%TF.GenerationSoftware,KiCad,Pcbnew,(5.1.9)-1*%
%TF.CreationDate,2021-07-25T11:44:51+02:00*%
%TF.ProjectId,RelayControls-HPK,52656c61-7943-46f6-9e74-726f6c732d48,V0.1*%
%TF.SameCoordinates,Original*%
%TF.FileFunction,Copper,L1,Top*%
%TF.FilePolarity,Positive*%
%FSLAX46Y46*%
G04 Gerber Fmt 4.6, Leading zero omitted, Abs format (unit mm)*
G04 Created by KiCad (PCBNEW (5.1.9)-1) date 2021-07-25 11:44:51*
%MOMM*%
%LPD*%
G01*
G04 APERTURE LIST*
%TA.AperFunction,SMDPad,CuDef*%
%ADD10R,0.450000X0.600000*%
%TD*%
%TA.AperFunction,SMDPad,CuDef*%
%ADD11R,2.200000X1.200000*%
%TD*%
%TA.AperFunction,SMDPad,CuDef*%
%ADD12R,6.400000X5.800000*%
%TD*%
%TA.AperFunction,ComponentPad*%
%ADD13R,1.600000X1.600000*%
%TD*%
%TA.AperFunction,ComponentPad*%
%ADD14O,1.600000X1.600000*%
%TD*%
%TA.AperFunction,ComponentPad*%
%ADD15C,10.160000*%
%TD*%
%TA.AperFunction,SMDPad,CuDef*%
%ADD16R,2.660000X0.800000*%
%TD*%
%TA.AperFunction,ViaPad*%
%ADD17C,0.800000*%
%TD*%
%TA.AperFunction,Conductor*%
%ADD18C,1.000000*%
%TD*%
%TA.AperFunction,Conductor*%
%ADD19C,3.000000*%
%TD*%
G04 APERTURE END LIST*
D10*
%TO.P,D3,1*%
%TO.N,Net-(D3-Pad1)*%
X33200000Y-99275000D03*
%TO.P,D3,2*%
%TO.N,Net-(D3-Pad2)*%
X33200000Y-101375000D03*
%TD*%
D11*
%TO.P,Q3,1*%
%TO.N,Net-(D5-Pad2)*%
X30824999Y-157054999D03*
%TO.P,Q3,2*%
%TO.N,Net-(D5-Pad1)*%
X30824999Y-154774999D03*
%TO.P,Q3,3*%
%TO.N,R3+*%
X30824999Y-152494999D03*
D12*
%TO.P,Q3,2*%
%TO.N,Net-(D5-Pad1)*%
X24524999Y-154774999D03*
%TD*%
%TO.P,C1,2*%
%TO.N,R1-*%
%TA.AperFunction,SMDPad,CuDef*%
G36*
G01*
X120500001Y-37325000D02*
X119199999Y-37325000D01*
G75*
G02*
X118950000Y-37075001I0J249999D01*
G01*
X118950000Y-36424999D01*
G75*
G02*
X119199999Y-36175000I249999J0D01*
G01*
X120500001Y-36175000D01*
G75*
G02*
X120750000Y-36424999I0J-249999D01*
G01*
X120750000Y-37075001D01*
G75*
G02*
X120500001Y-37325000I-249999J0D01*
G01*
G37*
%TD.AperFunction*%
%TO.P,C1,1*%
%TO.N,NC1*%
%TA.AperFunction,SMDPad,CuDef*%
G36*
G01*
X120500001Y-40275000D02*
X119199999Y-40275000D01*
G75*
G02*
X118950000Y-40025001I0J249999D01*
G01*
X118950000Y-39374999D01*
G75*
G02*
X119199999Y-39125000I249999J0D01*
G01*
X120500001Y-39125000D01*
G75*
G02*
X120750000Y-39374999I0J-249999D01*
G01*
X120750000Y-40025001D01*
G75*
G02*
X120500001Y-40275000I-249999J0D01*
G01*
G37*
%TD.AperFunction*%
%TD*%
%TO.P,C2,1*%
%TO.N,NC1*%
%TA.AperFunction,SMDPad,CuDef*%
G36*
G01*
X51425001Y-40275000D02*
X50124999Y-40275000D01*
G75*
G02*
X49875000Y-40025001I0J249999D01*
G01*
X49875000Y-39374999D01*
G75*
G02*
X50124999Y-39125000I249999J0D01*
G01*
X51425001Y-39125000D01*
G75*
G02*
X51675000Y-39374999I0J-249999D01*
G01*
X51675000Y-40025001D01*
G75*
G02*
X51425001Y-40275000I-249999J0D01*
G01*
G37*
%TD.AperFunction*%
%TO.P,C2,2*%
%TO.N,R1-*%
%TA.AperFunction,SMDPad,CuDef*%
G36*
G01*
X51425001Y-37325000D02*
X50124999Y-37325000D01*
G75*
G02*
X49875000Y-37075001I0J249999D01*
G01*
X49875000Y-36424999D01*
G75*
G02*
X50124999Y-36175000I249999J0D01*
G01*
X51425001Y-36175000D01*
G75*
G02*
X51675000Y-36424999I0J-249999D01*
G01*
X51675000Y-37075001D01*
G75*
G02*
X51425001Y-37325000I-249999J0D01*
G01*
G37*
%TD.AperFunction*%
%TD*%
%TO.P,C3,2*%
%TO.N,R1-*%
%TA.AperFunction,SMDPad,CuDef*%
G36*
G01*
X86025001Y-37325000D02*
X84724999Y-37325000D01*
G75*
G02*
X84475000Y-37075001I0J249999D01*
G01*
X84475000Y-36424999D01*
G75*
G02*
X84724999Y-36175000I249999J0D01*
G01*
X86025001Y-36175000D01*
G75*
G02*
X86275000Y-36424999I0J-249999D01*
G01*
X86275000Y-37075001D01*
G75*
G02*
X86025001Y-37325000I-249999J0D01*
G01*
G37*
%TD.AperFunction*%
%TO.P,C3,1*%
%TO.N,NC1*%
%TA.AperFunction,SMDPad,CuDef*%
G36*
G01*
X86025001Y-40275000D02*
X84724999Y-40275000D01*
G75*
G02*
X84475000Y-40025001I0J249999D01*
G01*
X84475000Y-39374999D01*
G75*
G02*
X84724999Y-39125000I249999J0D01*
G01*
X86025001Y-39125000D01*
G75*
G02*
X86275000Y-39374999I0J-249999D01*
G01*
X86275000Y-40025001D01*
G75*
G02*
X86025001Y-40275000I-249999J0D01*
G01*
G37*
%TD.AperFunction*%
%TD*%
%TO.P,C4,2*%
%TO.N,R1-*%
%TA.AperFunction,SMDPad,CuDef*%
G36*
G01*
X155025001Y-37325000D02*
X153724999Y-37325000D01*
G75*
G02*
X153475000Y-37075001I0J249999D01*
G01*
X153475000Y-36424999D01*
G75*
G02*
X153724999Y-36175000I249999J0D01*
G01*
X155025001Y-36175000D01*
G75*
G02*
X155275000Y-36424999I0J-249999D01*
G01*
X155275000Y-37075001D01*
G75*
G02*
X155025001Y-37325000I-249999J0D01*
G01*
G37*
%TD.AperFunction*%
%TO.P,C4,1*%
%TO.N,NC1*%
%TA.AperFunction,SMDPad,CuDef*%
G36*
G01*
X155025001Y-40275000D02*
X153724999Y-40275000D01*
G75*
G02*
X153475000Y-40025001I0J249999D01*
G01*
X153475000Y-39374999D01*
G75*
G02*
X153724999Y-39125000I249999J0D01*
G01*
X155025001Y-39125000D01*
G75*
G02*
X155275000Y-39374999I0J-249999D01*
G01*
X155275000Y-40025001D01*
G75*
G02*
X155025001Y-40275000I-249999J0D01*
G01*
G37*
%TD.AperFunction*%
%TD*%
%TO.P,C5,2*%
%TO.N,NO1*%
%TA.AperFunction,SMDPad,CuDef*%
G36*
G01*
X135799999Y-39125000D02*
X137100001Y-39125000D01*
G75*
G02*
X137350000Y-39374999I0J-249999D01*
G01*
X137350000Y-40025001D01*
G75*
G02*
X137100001Y-40275000I-249999J0D01*
G01*
X135799999Y-40275000D01*
G75*
G02*
X135550000Y-40025001I0J249999D01*
G01*
X135550000Y-39374999D01*
G75*
G02*
X135799999Y-39125000I249999J0D01*
G01*
G37*
%TD.AperFunction*%
%TO.P,C5,1*%
%TO.N,R1-*%
%TA.AperFunction,SMDPad,CuDef*%
G36*
G01*
X135799999Y-36175000D02*
X137100001Y-36175000D01*
G75*
G02*
X137350000Y-36424999I0J-249999D01*
G01*
X137350000Y-37075001D01*
G75*
G02*
X137100001Y-37325000I-249999J0D01*
G01*
X135799999Y-37325000D01*
G75*
G02*
X135550000Y-37075001I0J249999D01*
G01*
X135550000Y-36424999D01*
G75*
G02*
X135799999Y-36175000I249999J0D01*
G01*
G37*
%TD.AperFunction*%
%TD*%
%TO.P,C6,1*%
%TO.N,R1-*%
%TA.AperFunction,SMDPad,CuDef*%
G36*
G01*
X66749999Y-36175000D02*
X68050001Y-36175000D01*
G75*
G02*
X68300000Y-36424999I0J-249999D01*
G01*
X68300000Y-37075001D01*
G75*
G02*
X68050001Y-37325000I-249999J0D01*
G01*
X66749999Y-37325000D01*
G75*
G02*
X66500000Y-37075001I0J249999D01*
G01*
X66500000Y-36424999D01*
G75*
G02*
X66749999Y-36175000I249999J0D01*
G01*
G37*
%TD.AperFunction*%
%TO.P,C6,2*%
%TO.N,NO1*%
%TA.AperFunction,SMDPad,CuDef*%
G36*
G01*
X66749999Y-39125000D02*
X68050001Y-39125000D01*
G75*
G02*
X68300000Y-39374999I0J-249999D01*
G01*
X68300000Y-40025001D01*
G75*
G02*
X68050001Y-40275000I-249999J0D01*
G01*
X66749999Y-40275000D01*
G75*
G02*
X66500000Y-40025001I0J249999D01*
G01*
X66500000Y-39374999D01*
G75*
G02*
X66749999Y-39125000I249999J0D01*
G01*
G37*
%TD.AperFunction*%
%TD*%
%TO.P,C7,2*%
%TO.N,NO1*%
%TA.AperFunction,SMDPad,CuDef*%
G36*
G01*
X98819999Y-39125000D02*
X100120001Y-39125000D01*
G75*
G02*
X100370000Y-39374999I0J-249999D01*
G01*
X100370000Y-40025001D01*
G75*
G02*
X100120001Y-40275000I-249999J0D01*
G01*
X98819999Y-40275000D01*
G75*
G02*
X98570000Y-40025001I0J249999D01*
G01*
X98570000Y-39374999D01*
G75*
G02*
X98819999Y-39125000I249999J0D01*
G01*
G37*
%TD.AperFunction*%
%TO.P,C7,1*%
%TO.N,R1-*%
%TA.AperFunction,SMDPad,CuDef*%
G36*
G01*
X98819999Y-36175000D02*
X100120001Y-36175000D01*
G75*
G02*
X100370000Y-36424999I0J-249999D01*
G01*
X100370000Y-37075001D01*
G75*
G02*
X100120001Y-37325000I-249999J0D01*
G01*
X98819999Y-37325000D01*
G75*
G02*
X98570000Y-37075001I0J249999D01*
G01*
X98570000Y-36424999D01*
G75*
G02*
X98819999Y-36175000I249999J0D01*
G01*
G37*
%TD.AperFunction*%
%TD*%
%TO.P,C8,1*%
%TO.N,R1-*%
%TA.AperFunction,SMDPad,CuDef*%
G36*
G01*
X170349999Y-36175000D02*
X171650001Y-36175000D01*
G75*
G02*
X171900000Y-36424999I0J-249999D01*
G01*
X171900000Y-37075001D01*
G75*
G02*
X171650001Y-37325000I-249999J0D01*
G01*
X170349999Y-37325000D01*
G75*
G02*
X170100000Y-37075001I0J249999D01*
G01*
X170100000Y-36424999D01*
G75*
G02*
X170349999Y-36175000I249999J0D01*
G01*
G37*
%TD.AperFunction*%
%TO.P,C8,2*%
%TO.N,NO1*%
%TA.AperFunction,SMDPad,CuDef*%
G36*
G01*
X170349999Y-39125000D02*
X171650001Y-39125000D01*
G75*
G02*
X171900000Y-39374999I0J-249999D01*
G01*
X171900000Y-40025001D01*
G75*
G02*
X171650001Y-40275000I-249999J0D01*
G01*
X170349999Y-40275000D01*
G75*
G02*
X170100000Y-40025001I0J249999D01*
G01*
X170100000Y-39374999D01*
G75*
G02*
X170349999Y-39125000I249999J0D01*
G01*
G37*
%TD.AperFunction*%
%TD*%
%TO.P,C9,2*%
%TO.N,R2-*%
%TA.AperFunction,SMDPad,CuDef*%
G36*
G01*
X120875001Y-92725000D02*
X119574999Y-92725000D01*
G75*
G02*
X119325000Y-92475001I0J249999D01*
G01*
X119325000Y-91824999D01*
G75*
G02*
X119574999Y-91575000I249999J0D01*
G01*
X120875001Y-91575000D01*
G75*
G02*
X121125000Y-91824999I0J-249999D01*
G01*
X121125000Y-92475001D01*
G75*
G02*
X120875001Y-92725000I-249999J0D01*
G01*
G37*
%TD.AperFunction*%
%TO.P,C9,1*%
%TO.N,NC2*%
%TA.AperFunction,SMDPad,CuDef*%
G36*
G01*
X120875001Y-95675000D02*
X119574999Y-95675000D01*
G75*
G02*
X119325000Y-95425001I0J249999D01*
G01*
X119325000Y-94774999D01*
G75*
G02*
X119574999Y-94525000I249999J0D01*
G01*
X120875001Y-94525000D01*
G75*
G02*
X121125000Y-94774999I0J-249999D01*
G01*
X121125000Y-95425001D01*
G75*
G02*
X120875001Y-95675000I-249999J0D01*
G01*
G37*
%TD.AperFunction*%
%TD*%
%TO.P,C10,1*%
%TO.N,NC2*%
%TA.AperFunction,SMDPad,CuDef*%
G36*
G01*
X51825001Y-95675000D02*
X50524999Y-95675000D01*
G75*
G02*
X50275000Y-95425001I0J249999D01*
G01*
X50275000Y-94774999D01*
G75*
G02*
X50524999Y-94525000I249999J0D01*
G01*
X51825001Y-94525000D01*
G75*
G02*
X52075000Y-94774999I0J-249999D01*
G01*
X52075000Y-95425001D01*
G75*
G02*
X51825001Y-95675000I-249999J0D01*
G01*
G37*
%TD.AperFunction*%
%TO.P,C10,2*%
%TO.N,R2-*%
%TA.AperFunction,SMDPad,CuDef*%
G36*
G01*
X51825001Y-92725000D02*
X50524999Y-92725000D01*
G75*
G02*
X50275000Y-92475001I0J249999D01*
G01*
X50275000Y-91824999D01*
G75*
G02*
X50524999Y-91575000I249999J0D01*
G01*
X51825001Y-91575000D01*
G75*
G02*
X52075000Y-91824999I0J-249999D01*
G01*
X52075000Y-92475001D01*
G75*
G02*
X51825001Y-92725000I-249999J0D01*
G01*
G37*
%TD.AperFunction*%
%TD*%
%TO.P,C11,1*%
%TO.N,NC2*%
%TA.AperFunction,SMDPad,CuDef*%
G36*
G01*
X86325001Y-95675000D02*
X85024999Y-95675000D01*
G75*
G02*
X84775000Y-95425001I0J249999D01*
G01*
X84775000Y-94774999D01*
G75*
G02*
X85024999Y-94525000I249999J0D01*
G01*
X86325001Y-94525000D01*
G75*
G02*
X86575000Y-94774999I0J-249999D01*
G01*
X86575000Y-95425001D01*
G75*
G02*
X86325001Y-95675000I-249999J0D01*
G01*
G37*
%TD.AperFunction*%
%TO.P,C11,2*%
%TO.N,R2-*%
%TA.AperFunction,SMDPad,CuDef*%
G36*
G01*
X86325001Y-92725000D02*
X85024999Y-92725000D01*
G75*
G02*
X84775000Y-92475001I0J249999D01*
G01*
X84775000Y-91824999D01*
G75*
G02*
X85024999Y-91575000I249999J0D01*
G01*
X86325001Y-91575000D01*
G75*
G02*
X86575000Y-91824999I0J-249999D01*
G01*
X86575000Y-92475001D01*
G75*
G02*
X86325001Y-92725000I-249999J0D01*
G01*
G37*
%TD.AperFunction*%
%TD*%
%TO.P,C12,2*%
%TO.N,R2-*%
%TA.AperFunction,SMDPad,CuDef*%
G36*
G01*
X155390001Y-92790000D02*
X154089999Y-92790000D01*
G75*
G02*
X153840000Y-92540001I0J249999D01*
G01*
X153840000Y-91889999D01*
G75*
G02*
X154089999Y-91640000I249999J0D01*
G01*
X155390001Y-91640000D01*
G75*
G02*
X155640000Y-91889999I0J-249999D01*
G01*
X155640000Y-92540001D01*
G75*
G02*
X155390001Y-92790000I-249999J0D01*
G01*
G37*
%TD.AperFunction*%
%TO.P,C12,1*%
%TO.N,NC2*%
%TA.AperFunction,SMDPad,CuDef*%
G36*
G01*
X155390001Y-95740000D02*
X154089999Y-95740000D01*
G75*
G02*
X153840000Y-95490001I0J249999D01*
G01*
X153840000Y-94839999D01*
G75*
G02*
X154089999Y-94590000I249999J0D01*
G01*
X155390001Y-94590000D01*
G75*
G02*
X155640000Y-94839999I0J-249999D01*
G01*
X155640000Y-95490001D01*
G75*
G02*
X155390001Y-95740000I-249999J0D01*
G01*
G37*
%TD.AperFunction*%
%TD*%
%TO.P,C13,1*%
%TO.N,R2-*%
%TA.AperFunction,SMDPad,CuDef*%
G36*
G01*
X135924999Y-91575000D02*
X137225001Y-91575000D01*
G75*
G02*
X137475000Y-91824999I0J-249999D01*
G01*
X137475000Y-92475001D01*
G75*
G02*
X137225001Y-92725000I-249999J0D01*
G01*
X135924999Y-92725000D01*
G75*
G02*
X135675000Y-92475001I0J249999D01*
G01*
X135675000Y-91824999D01*
G75*
G02*
X135924999Y-91575000I249999J0D01*
G01*
G37*
%TD.AperFunction*%
%TO.P,C13,2*%
%TO.N,NO2*%
%TA.AperFunction,SMDPad,CuDef*%
G36*
G01*
X135924999Y-94525000D02*
X137225001Y-94525000D01*
G75*
G02*
X137475000Y-94774999I0J-249999D01*
G01*
X137475000Y-95425001D01*
G75*
G02*
X137225001Y-95675000I-249999J0D01*
G01*
X135924999Y-95675000D01*
G75*
G02*
X135675000Y-95425001I0J249999D01*
G01*
X135675000Y-94774999D01*
G75*
G02*
X135924999Y-94525000I249999J0D01*
G01*
G37*
%TD.AperFunction*%
%TD*%
%TO.P,C14,1*%
%TO.N,R2-*%
%TA.AperFunction,SMDPad,CuDef*%
G36*
G01*
X66874999Y-91575000D02*
X68175001Y-91575000D01*
G75*
G02*
X68425000Y-91824999I0J-249999D01*
G01*
X68425000Y-92475001D01*
G75*
G02*
X68175001Y-92725000I-249999J0D01*
G01*
X66874999Y-92725000D01*
G75*
G02*
X66625000Y-92475001I0J249999D01*
G01*
X66625000Y-91824999D01*
G75*
G02*
X66874999Y-91575000I249999J0D01*
G01*
G37*
%TD.AperFunction*%
%TO.P,C14,2*%
%TO.N,NO2*%
%TA.AperFunction,SMDPad,CuDef*%
G36*
G01*
X66874999Y-94525000D02*
X68175001Y-94525000D01*
G75*
G02*
X68425000Y-94774999I0J-249999D01*
G01*
X68425000Y-95425001D01*
G75*
G02*
X68175001Y-95675000I-249999J0D01*
G01*
X66874999Y-95675000D01*
G75*
G02*
X66625000Y-95425001I0J249999D01*
G01*
X66625000Y-94774999D01*
G75*
G02*
X66874999Y-94525000I249999J0D01*
G01*
G37*
%TD.AperFunction*%
%TD*%
%TO.P,C15,1*%
%TO.N,R2-*%
%TA.AperFunction,SMDPad,CuDef*%
G36*
G01*
X101424999Y-91575000D02*
X102725001Y-91575000D01*
G75*
G02*
X102975000Y-91824999I0J-249999D01*
G01*
X102975000Y-92475001D01*
G75*
G02*
X102725001Y-92725000I-249999J0D01*
G01*
X101424999Y-92725000D01*
G75*
G02*
X101175000Y-92475001I0J249999D01*
G01*
X101175000Y-91824999D01*
G75*
G02*
X101424999Y-91575000I249999J0D01*
G01*
G37*
%TD.AperFunction*%
%TO.P,C15,2*%
%TO.N,NO2*%
%TA.AperFunction,SMDPad,CuDef*%
G36*
G01*
X101424999Y-94525000D02*
X102725001Y-94525000D01*
G75*
G02*
X102975000Y-94774999I0J-249999D01*
G01*
X102975000Y-95425001D01*
G75*
G02*
X102725001Y-95675000I-249999J0D01*
G01*
X101424999Y-95675000D01*
G75*
G02*
X101175000Y-95425001I0J249999D01*
G01*
X101175000Y-94774999D01*
G75*
G02*
X101424999Y-94525000I249999J0D01*
G01*
G37*
%TD.AperFunction*%
%TD*%
%TO.P,C16,1*%
%TO.N,R2-*%
%TA.AperFunction,SMDPad,CuDef*%
G36*
G01*
X170669999Y-91640000D02*
X171970001Y-91640000D01*
G75*
G02*
X172220000Y-91889999I0J-249999D01*
G01*
X172220000Y-92540001D01*
G75*
G02*
X171970001Y-92790000I-249999J0D01*
G01*
X170669999Y-92790000D01*
G75*
G02*
X170420000Y-92540001I0J249999D01*
G01*
X170420000Y-91889999D01*
G75*
G02*
X170669999Y-91640000I249999J0D01*
G01*
G37*
%TD.AperFunction*%
%TO.P,C16,2*%
%TO.N,NO2*%
%TA.AperFunction,SMDPad,CuDef*%
G36*
G01*
X170669999Y-94590000D02*
X171970001Y-94590000D01*
G75*
G02*
X172220000Y-94839999I0J-249999D01*
G01*
X172220000Y-95490001D01*
G75*
G02*
X171970001Y-95740000I-249999J0D01*
G01*
X170669999Y-95740000D01*
G75*
G02*
X170420000Y-95490001I0J249999D01*
G01*
X170420000Y-94839999D01*
G75*
G02*
X170669999Y-94590000I249999J0D01*
G01*
G37*
%TD.AperFunction*%
%TD*%
%TO.P,C17,1*%
%TO.N,NC3*%
%TA.AperFunction,SMDPad,CuDef*%
G36*
G01*
X120825001Y-151075000D02*
X119524999Y-151075000D01*
G75*
G02*
X119275000Y-150825001I0J249999D01*
G01*
X119275000Y-150174999D01*
G75*
G02*
X119524999Y-149925000I249999J0D01*
G01*
X120825001Y-149925000D01*
G75*
G02*
X121075000Y-150174999I0J-249999D01*
G01*
X121075000Y-150825001D01*
G75*
G02*
X120825001Y-151075000I-249999J0D01*
G01*
G37*
%TD.AperFunction*%
%TO.P,C17,2*%
%TO.N,R3-*%
%TA.AperFunction,SMDPad,CuDef*%
G36*
G01*
X120825001Y-148125000D02*
X119524999Y-148125000D01*
G75*
G02*
X119275000Y-147875001I0J249999D01*
G01*
X119275000Y-147224999D01*
G75*
G02*
X119524999Y-146975000I249999J0D01*
G01*
X120825001Y-146975000D01*
G75*
G02*
X121075000Y-147224999I0J-249999D01*
G01*
X121075000Y-147875001D01*
G75*
G02*
X120825001Y-148125000I-249999J0D01*
G01*
G37*
%TD.AperFunction*%
%TD*%
%TO.P,C18,2*%
%TO.N,R3-*%
%TA.AperFunction,SMDPad,CuDef*%
G36*
G01*
X51800001Y-148125000D02*
X50499999Y-148125000D01*
G75*
G02*
X50250000Y-147875001I0J249999D01*
G01*
X50250000Y-147224999D01*
G75*
G02*
X50499999Y-146975000I249999J0D01*
G01*
X51800001Y-146975000D01*
G75*
G02*
X52050000Y-147224999I0J-249999D01*
G01*
X52050000Y-147875001D01*
G75*
G02*
X51800001Y-148125000I-249999J0D01*
G01*
G37*
%TD.AperFunction*%
%TO.P,C18,1*%
%TO.N,NC3*%
%TA.AperFunction,SMDPad,CuDef*%
G36*
G01*
X51800001Y-151075000D02*
X50499999Y-151075000D01*
G75*
G02*
X50250000Y-150825001I0J249999D01*
G01*
X50250000Y-150174999D01*
G75*
G02*
X50499999Y-149925000I249999J0D01*
G01*
X51800001Y-149925000D01*
G75*
G02*
X52050000Y-150174999I0J-249999D01*
G01*
X52050000Y-150825001D01*
G75*
G02*
X51800001Y-151075000I-249999J0D01*
G01*
G37*
%TD.AperFunction*%
%TD*%
%TO.P,C19,2*%
%TO.N,R3-*%
%TA.AperFunction,SMDPad,CuDef*%
G36*
G01*
X86325001Y-148125000D02*
X85024999Y-148125000D01*
G75*
G02*
X84775000Y-147875001I0J249999D01*
G01*
X84775000Y-147224999D01*
G75*
G02*
X85024999Y-146975000I249999J0D01*
G01*
X86325001Y-146975000D01*
G75*
G02*
X86575000Y-147224999I0J-249999D01*
G01*
X86575000Y-147875001D01*
G75*
G02*
X86325001Y-148125000I-249999J0D01*
G01*
G37*
%TD.AperFunction*%
%TO.P,C19,1*%
%TO.N,NC3*%
%TA.AperFunction,SMDPad,CuDef*%
G36*
G01*
X86325001Y-151075000D02*
X85024999Y-151075000D01*
G75*
G02*
X84775000Y-150825001I0J249999D01*
G01*
X84775000Y-150174999D01*
G75*
G02*
X85024999Y-149925000I249999J0D01*
G01*
X86325001Y-149925000D01*
G75*
G02*
X86575000Y-150174999I0J-249999D01*
G01*
X86575000Y-150825001D01*
G75*
G02*
X86325001Y-151075000I-249999J0D01*
G01*
G37*
%TD.AperFunction*%
%TD*%
%TO.P,C20,1*%
%TO.N,NC3*%
%TA.AperFunction,SMDPad,CuDef*%
G36*
G01*
X155410001Y-151075000D02*
X154109999Y-151075000D01*
G75*
G02*
X153860000Y-150825001I0J249999D01*
G01*
X153860000Y-150174999D01*
G75*
G02*
X154109999Y-149925000I249999J0D01*
G01*
X155410001Y-149925000D01*
G75*
G02*
X155660000Y-150174999I0J-249999D01*
G01*
X155660000Y-150825001D01*
G75*
G02*
X155410001Y-151075000I-249999J0D01*
G01*
G37*
%TD.AperFunction*%
%TO.P,C20,2*%
%TO.N,R3-*%
%TA.AperFunction,SMDPad,CuDef*%
G36*
G01*
X155410001Y-148125000D02*
X154109999Y-148125000D01*
G75*
G02*
X153860000Y-147875001I0J249999D01*
G01*
X153860000Y-147224999D01*
G75*
G02*
X154109999Y-146975000I249999J0D01*
G01*
X155410001Y-146975000D01*
G75*
G02*
X155660000Y-147224999I0J-249999D01*
G01*
X155660000Y-147875001D01*
G75*
G02*
X155410001Y-148125000I-249999J0D01*
G01*
G37*
%TD.AperFunction*%
%TD*%
%TO.P,C21,2*%
%TO.N,NO3*%
%TA.AperFunction,SMDPad,CuDef*%
G36*
G01*
X136099999Y-149925000D02*
X137400001Y-149925000D01*
G75*
G02*
X137650000Y-150174999I0J-249999D01*
G01*
X137650000Y-150825001D01*
G75*
G02*
X137400001Y-151075000I-249999J0D01*
G01*
X136099999Y-151075000D01*
G75*
G02*
X135850000Y-150825001I0J249999D01*
G01*
X135850000Y-150174999D01*
G75*
G02*
X136099999Y-149925000I249999J0D01*
G01*
G37*
%TD.AperFunction*%
%TO.P,C21,1*%
%TO.N,R3-*%
%TA.AperFunction,SMDPad,CuDef*%
G36*
G01*
X136099999Y-146975000D02*
X137400001Y-146975000D01*
G75*
G02*
X137650000Y-147224999I0J-249999D01*
G01*
X137650000Y-147875001D01*
G75*
G02*
X137400001Y-148125000I-249999J0D01*
G01*
X136099999Y-148125000D01*
G75*
G02*
X135850000Y-147875001I0J249999D01*
G01*
X135850000Y-147224999D01*
G75*
G02*
X136099999Y-146975000I249999J0D01*
G01*
G37*
%TD.AperFunction*%
%TD*%
%TO.P,C22,2*%
%TO.N,NO3*%
%TA.AperFunction,SMDPad,CuDef*%
G36*
G01*
X66799999Y-149925000D02*
X68100001Y-149925000D01*
G75*
G02*
X68350000Y-150174999I0J-249999D01*
G01*
X68350000Y-150825001D01*
G75*
G02*
X68100001Y-151075000I-249999J0D01*
G01*
X66799999Y-151075000D01*
G75*
G02*
X66550000Y-150825001I0J249999D01*
G01*
X66550000Y-150174999D01*
G75*
G02*
X66799999Y-149925000I249999J0D01*
G01*
G37*
%TD.AperFunction*%
%TO.P,C22,1*%
%TO.N,R3-*%
%TA.AperFunction,SMDPad,CuDef*%
G36*
G01*
X66799999Y-146975000D02*
X68100001Y-146975000D01*
G75*
G02*
X68350000Y-147224999I0J-249999D01*
G01*
X68350000Y-147875001D01*
G75*
G02*
X68100001Y-148125000I-249999J0D01*
G01*
X66799999Y-148125000D01*
G75*
G02*
X66550000Y-147875001I0J249999D01*
G01*
X66550000Y-147224999D01*
G75*
G02*
X66799999Y-146975000I249999J0D01*
G01*
G37*
%TD.AperFunction*%
%TD*%
%TO.P,C23,1*%
%TO.N,R3-*%
%TA.AperFunction,SMDPad,CuDef*%
G36*
G01*
X101474999Y-146975000D02*
X102775001Y-146975000D01*
G75*
G02*
X103025000Y-147224999I0J-249999D01*
G01*
X103025000Y-147875001D01*
G75*
G02*
X102775001Y-148125000I-249999J0D01*
G01*
X101474999Y-148125000D01*
G75*
G02*
X101225000Y-147875001I0J249999D01*
G01*
X101225000Y-147224999D01*
G75*
G02*
X101474999Y-146975000I249999J0D01*
G01*
G37*
%TD.AperFunction*%
%TO.P,C23,2*%
%TO.N,NO3*%
%TA.AperFunction,SMDPad,CuDef*%
G36*
G01*
X101474999Y-149925000D02*
X102775001Y-149925000D01*
G75*
G02*
X103025000Y-150174999I0J-249999D01*
G01*
X103025000Y-150825001D01*
G75*
G02*
X102775001Y-151075000I-249999J0D01*
G01*
X101474999Y-151075000D01*
G75*
G02*
X101225000Y-150825001I0J249999D01*
G01*
X101225000Y-150174999D01*
G75*
G02*
X101474999Y-149925000I249999J0D01*
G01*
G37*
%TD.AperFunction*%
%TD*%
%TO.P,C24,2*%
%TO.N,NO3*%
%TA.AperFunction,SMDPad,CuDef*%
G36*
G01*
X170459999Y-149950000D02*
X171760001Y-149950000D01*
G75*
G02*
X172010000Y-150199999I0J-249999D01*
G01*
X172010000Y-150850001D01*
G75*
G02*
X171760001Y-151100000I-249999J0D01*
G01*
X170459999Y-151100000D01*
G75*
G02*
X170210000Y-150850001I0J249999D01*
G01*
X170210000Y-150199999D01*
G75*
G02*
X170459999Y-149950000I249999J0D01*
G01*
G37*
%TD.AperFunction*%
%TO.P,C24,1*%
%TO.N,R3-*%
%TA.AperFunction,SMDPad,CuDef*%
G36*
G01*
X170459999Y-147000000D02*
X171760001Y-147000000D01*
G75*
G02*
X172010000Y-147249999I0J-249999D01*
G01*
X172010000Y-147900001D01*
G75*
G02*
X171760001Y-148150000I-249999J0D01*
G01*
X170459999Y-148150000D01*
G75*
G02*
X170210000Y-147900001I0J249999D01*
G01*
X170210000Y-147249999D01*
G75*
G02*
X170459999Y-147000000I249999J0D01*
G01*
G37*
%TD.AperFunction*%
%TD*%
D13*
%TO.P,D2,1*%
%TO.N,Net-(D2-Pad1)*%
X26850000Y-56200000D03*
D14*
%TO.P,D2,2*%
%TO.N,R1+*%
X26850000Y-58740000D03*
%TD*%
%TO.P,D4,2*%
%TO.N,R2+*%
X26743629Y-113665000D03*
D13*
%TO.P,D4,1*%
%TO.N,Net-(D4-Pad1)*%
X26743629Y-111125000D03*
%TD*%
%TO.P,D6,1*%
%TO.N,Net-(D6-Pad1)*%
X26638629Y-166600000D03*
D14*
%TO.P,D6,2*%
%TO.N,R3+*%
X26638629Y-169140000D03*
%TD*%
D15*
%TO.P,J1,1*%
%TO.N,Net-(J1-Pad1)*%
X28000000Y-29000000D03*
%TD*%
%TO.P,J2,1*%
%TO.N,Net-(J2-Pad1)*%
X188000000Y-200000000D03*
%TD*%
%TO.P,J3,1*%
%TO.N,R1-*%
X38300000Y-78350000D03*
%TD*%
%TO.P,J4,1*%
%TO.N,COM1*%
X66200000Y-78350000D03*
%TD*%
%TO.P,J5,1*%
%TO.N,COM1*%
X135250000Y-78375000D03*
%TD*%
%TO.P,J6,1*%
%TO.N,COM1*%
X100750000Y-78350000D03*
%TD*%
%TO.P,J7,1*%
%TO.N,COM1*%
X169775000Y-78375000D03*
%TD*%
%TO.P,J8,1*%
%TO.N,Net-(D1-Pad1)*%
X38300000Y-38350000D03*
%TD*%
%TO.P,J9,1*%
%TO.N,NO1*%
X74475000Y-38350000D03*
%TD*%
%TO.P,J10,1*%
%TO.N,NC1*%
X57900000Y-38350000D03*
%TD*%
%TO.P,J11,1*%
%TO.N,NO1*%
X143525000Y-38355000D03*
%TD*%
%TO.P,J12,1*%
%TO.N,NC1*%
X126970000Y-38355000D03*
%TD*%
%TO.P,J13,1*%
%TO.N,NO1*%
X109040000Y-38355000D03*
%TD*%
%TO.P,J14,1*%
%TO.N,NC1*%
X92445000Y-38355000D03*
%TD*%
%TO.P,J15,1*%
%TO.N,NO1*%
X178070000Y-38350000D03*
%TD*%
%TO.P,J16,1*%
%TO.N,NC1*%
X161495000Y-38350000D03*
%TD*%
%TO.P,J17,1*%
%TO.N,R2-*%
X38275000Y-133750000D03*
%TD*%
%TO.P,J18,1*%
%TO.N,COM2*%
X135252500Y-133750000D03*
%TD*%
%TO.P,J19,1*%
%TO.N,COM2*%
X66182500Y-133750000D03*
%TD*%
%TO.P,J20,1*%
%TO.N,COM2*%
X100700000Y-133750000D03*
%TD*%
%TO.P,J21,1*%
%TO.N,COM2*%
X169777500Y-133750000D03*
%TD*%
%TO.P,J22,1*%
%TO.N,Net-(D3-Pad1)*%
X38300000Y-93645000D03*
%TD*%
%TO.P,J23,1*%
%TO.N,NO2*%
X143525000Y-93645000D03*
%TD*%
%TO.P,J24,1*%
%TO.N,NC2*%
X126970000Y-93645000D03*
%TD*%
%TO.P,J25,1*%
%TO.N,NO2*%
X74475000Y-93645000D03*
%TD*%
%TO.P,J26,1*%
%TO.N,NC2*%
X57900000Y-93645000D03*
%TD*%
%TO.P,J27,1*%
%TO.N,NO2*%
X109000000Y-93645000D03*
%TD*%
%TO.P,J28,1*%
%TO.N,NC2*%
X92425000Y-93645000D03*
%TD*%
%TO.P,J29,1*%
%TO.N,NO2*%
X178070000Y-93645000D03*
%TD*%
%TO.P,J30,1*%
%TO.N,NC2*%
X161495000Y-93645000D03*
%TD*%
%TO.P,J31,1*%
%TO.N,R3-*%
X38275000Y-189155000D03*
%TD*%
%TO.P,J32,1*%
%TO.N,COM3*%
X135227500Y-189155000D03*
%TD*%
%TO.P,J33,1*%
%TO.N,COM3*%
X66157500Y-189155000D03*
%TD*%
%TO.P,J34,1*%
%TO.N,COM3*%
X100682500Y-189155000D03*
%TD*%
%TO.P,J35,1*%
%TO.N,COM3*%
X169752500Y-189155000D03*
%TD*%
%TO.P,J36,1*%
%TO.N,Net-(D5-Pad1)*%
X38275000Y-149025000D03*
%TD*%
%TO.P,J37,1*%
%TO.N,NO3*%
X143500000Y-149025000D03*
%TD*%
%TO.P,J38,1*%
%TO.N,NC3*%
X126945000Y-149025000D03*
%TD*%
%TO.P,J39,1*%
%TO.N,NO3*%
X74450000Y-149025000D03*
%TD*%
%TO.P,J40,1*%
%TO.N,NC3*%
X57875000Y-149025000D03*
%TD*%
%TO.P,J41,1*%
%TO.N,NO3*%
X108975000Y-149000000D03*
%TD*%
%TO.P,J42,1*%
%TO.N,NC3*%
X92400000Y-149025000D03*
%TD*%
%TO.P,J43,1*%
%TO.N,NO3*%
X178045000Y-149025000D03*
%TD*%
%TO.P,J44,1*%
%TO.N,NC3*%
X161470000Y-149025000D03*
%TD*%
%TO.P,J45,1*%
%TO.N,Net-(J1-Pad1)*%
X188000000Y-29000000D03*
%TD*%
%TO.P,J46,1*%
%TO.N,Net-(J2-Pad1)*%
X28000000Y-200000000D03*
%TD*%
D16*
%TO.P,K1,1*%
%TO.N,R1+*%
X22410001Y-64154999D03*
%TO.P,K1,2*%
%TO.N,NC1*%
X22410001Y-67354999D03*
%TO.P,K1,3*%
%TO.N,COM1*%
X22410001Y-69554999D03*
%TO.P,K1,4*%
%TO.N,NO1*%
X22410001Y-71754999D03*
%TO.P,K1,5*%
X29150001Y-71754999D03*
%TO.P,K1,6*%
%TO.N,COM1*%
X29150001Y-69554999D03*
%TO.P,K1,7*%
%TO.N,NC1*%
X29150001Y-67354999D03*
%TO.P,K1,8*%
%TO.N,R1-*%
X29150001Y-64154999D03*
%TD*%
%TO.P,K2,1*%
%TO.N,R2+*%
X22260000Y-119500000D03*
%TO.P,K2,2*%
%TO.N,NC2*%
X22260000Y-122700000D03*
%TO.P,K2,3*%
%TO.N,COM2*%
X22260000Y-124900000D03*
%TO.P,K2,4*%
%TO.N,NO2*%
X22260000Y-127100000D03*
%TO.P,K2,5*%
X29000000Y-127100000D03*
%TO.P,K2,6*%
%TO.N,COM2*%
X29000000Y-124900000D03*
%TO.P,K2,7*%
%TO.N,NC2*%
X29000000Y-122700000D03*
%TO.P,K2,8*%
%TO.N,R2-*%
X29000000Y-119500000D03*
%TD*%
%TO.P,K3,8*%
%TO.N,R3-*%
X29000000Y-175000000D03*
%TO.P,K3,7*%
%TO.N,NC3*%
X29000000Y-178200000D03*
%TO.P,K3,6*%
%TO.N,COM3*%
X29000000Y-180400000D03*
%TO.P,K3,5*%
%TO.N,NO3*%
X29000000Y-182600000D03*
%TO.P,K3,4*%
X22260000Y-182600000D03*
%TO.P,K3,3*%
%TO.N,COM3*%
X22260000Y-180400000D03*
%TO.P,K3,2*%
%TO.N,NC3*%
X22260000Y-178200000D03*
%TO.P,K3,1*%
%TO.N,R3+*%
X22260000Y-175000000D03*
%TD*%
%TO.P,R1,2*%
%TO.N,R1-*%
%TA.AperFunction,SMDPad,CuDef*%
G36*
G01*
X26831371Y-52700002D02*
X26831371Y-51449998D01*
G75*
G02*
X27081369Y-51200000I249998J0D01*
G01*
X27706373Y-51200000D01*
G75*
G02*
X27956371Y-51449998I0J-249998D01*
G01*
X27956371Y-52700002D01*
G75*
G02*
X27706373Y-52950000I-249998J0D01*
G01*
X27081369Y-52950000D01*
G75*
G02*
X26831371Y-52700002I0J249998D01*
G01*
G37*
%TD.AperFunction*%
%TO.P,R1,1*%
%TO.N,Net-(D1-Pad2)*%
%TA.AperFunction,SMDPad,CuDef*%
G36*
G01*
X23906371Y-52700002D02*
X23906371Y-51449998D01*
G75*
G02*
X24156369Y-51200000I249998J0D01*
G01*
X24781373Y-51200000D01*
G75*
G02*
X25031371Y-51449998I0J-249998D01*
G01*
X25031371Y-52700002D01*
G75*
G02*
X24781373Y-52950000I-249998J0D01*
G01*
X24156369Y-52950000D01*
G75*
G02*
X23906371Y-52700002I0J249998D01*
G01*
G37*
%TD.AperFunction*%
%TD*%
%TO.P,R2,2*%
%TO.N,NO1*%
%TA.AperFunction,SMDPad,CuDef*%
G36*
G01*
X64299998Y-39125000D02*
X65550002Y-39125000D01*
G75*
G02*
X65800000Y-39374998I0J-249998D01*
G01*
X65800000Y-40000002D01*
G75*
G02*
X65550002Y-40250000I-249998J0D01*
G01*
X64299998Y-40250000D01*
G75*
G02*
X64050000Y-40000002I0J249998D01*
G01*
X64050000Y-39374998D01*
G75*
G02*
X64299998Y-39125000I249998J0D01*
G01*
G37*
%TD.AperFunction*%
%TO.P,R2,1*%
%TO.N,R1-*%
%TA.AperFunction,SMDPad,CuDef*%
G36*
G01*
X64299998Y-36200000D02*
X65550002Y-36200000D01*
G75*
G02*
X65800000Y-36449998I0J-249998D01*
G01*
X65800000Y-37075002D01*
G75*
G02*
X65550002Y-37325000I-249998J0D01*
G01*
X64299998Y-37325000D01*
G75*
G02*
X64050000Y-37075002I0J249998D01*
G01*
X64050000Y-36449998D01*
G75*
G02*
X64299998Y-36200000I249998J0D01*
G01*
G37*
%TD.AperFunction*%
%TD*%
%TO.P,R3,1*%
%TO.N,NC1*%
%TA.AperFunction,SMDPad,CuDef*%
G36*
G01*
X118000002Y-40250000D02*
X116749998Y-40250000D01*
G75*
G02*
X116500000Y-40000002I0J249998D01*
G01*
X116500000Y-39374998D01*
G75*
G02*
X116749998Y-39125000I249998J0D01*
G01*
X118000002Y-39125000D01*
G75*
G02*
X118250000Y-39374998I0J-249998D01*
G01*
X118250000Y-40000002D01*
G75*
G02*
X118000002Y-40250000I-249998J0D01*
G01*
G37*
%TD.AperFunction*%
%TO.P,R3,2*%
%TO.N,R1-*%
%TA.AperFunction,SMDPad,CuDef*%
G36*
G01*
X118000002Y-37325000D02*
X116749998Y-37325000D01*
G75*
G02*
X116500000Y-37075002I0J249998D01*
G01*
X116500000Y-36449998D01*
G75*
G02*
X116749998Y-36200000I249998J0D01*
G01*
X118000002Y-36200000D01*
G75*
G02*
X118250000Y-36449998I0J-249998D01*
G01*
X118250000Y-37075002D01*
G75*
G02*
X118000002Y-37325000I-249998J0D01*
G01*
G37*
%TD.AperFunction*%
%TD*%
%TO.P,R4,2*%
%TO.N,R1-*%
%TA.AperFunction,SMDPad,CuDef*%
G36*
G01*
X48825002Y-37325000D02*
X47574998Y-37325000D01*
G75*
G02*
X47325000Y-37075002I0J249998D01*
G01*
X47325000Y-36449998D01*
G75*
G02*
X47574998Y-36200000I249998J0D01*
G01*
X48825002Y-36200000D01*
G75*
G02*
X49075000Y-36449998I0J-249998D01*
G01*
X49075000Y-37075002D01*
G75*
G02*
X48825002Y-37325000I-249998J0D01*
G01*
G37*
%TD.AperFunction*%
%TO.P,R4,1*%
%TO.N,NC1*%
%TA.AperFunction,SMDPad,CuDef*%
G36*
G01*
X48825002Y-40250000D02*
X47574998Y-40250000D01*
G75*
G02*
X47325000Y-40000002I0J249998D01*
G01*
X47325000Y-39374998D01*
G75*
G02*
X47574998Y-39125000I249998J0D01*
G01*
X48825002Y-39125000D01*
G75*
G02*
X49075000Y-39374998I0J-249998D01*
G01*
X49075000Y-40000002D01*
G75*
G02*
X48825002Y-40250000I-249998J0D01*
G01*
G37*
%TD.AperFunction*%
%TD*%
%TO.P,R5,2*%
%TO.N,R1-*%
%TA.AperFunction,SMDPad,CuDef*%
G36*
G01*
X83550002Y-37325000D02*
X82299998Y-37325000D01*
G75*
G02*
X82050000Y-37075002I0J249998D01*
G01*
X82050000Y-36449998D01*
G75*
G02*
X82299998Y-36200000I249998J0D01*
G01*
X83550002Y-36200000D01*
G75*
G02*
X83800000Y-36449998I0J-249998D01*
G01*
X83800000Y-37075002D01*
G75*
G02*
X83550002Y-37325000I-249998J0D01*
G01*
G37*
%TD.AperFunction*%
%TO.P,R5,1*%
%TO.N,NC1*%
%TA.AperFunction,SMDPad,CuDef*%
G36*
G01*
X83550002Y-40250000D02*
X82299998Y-40250000D01*
G75*
G02*
X82050000Y-40000002I0J249998D01*
G01*
X82050000Y-39374998D01*
G75*
G02*
X82299998Y-39125000I249998J0D01*
G01*
X83550002Y-39125000D01*
G75*
G02*
X83800000Y-39374998I0J-249998D01*
G01*
X83800000Y-40000002D01*
G75*
G02*
X83550002Y-40250000I-249998J0D01*
G01*
G37*
%TD.AperFunction*%
%TD*%
%TO.P,R6,1*%
%TO.N,NC1*%
%TA.AperFunction,SMDPad,CuDef*%
G36*
G01*
X152550002Y-40250000D02*
X151299998Y-40250000D01*
G75*
G02*
X151050000Y-40000002I0J249998D01*
G01*
X151050000Y-39374998D01*
G75*
G02*
X151299998Y-39125000I249998J0D01*
G01*
X152550002Y-39125000D01*
G75*
G02*
X152800000Y-39374998I0J-249998D01*
G01*
X152800000Y-40000002D01*
G75*
G02*
X152550002Y-40250000I-249998J0D01*
G01*
G37*
%TD.AperFunction*%
%TO.P,R6,2*%
%TO.N,R1-*%
%TA.AperFunction,SMDPad,CuDef*%
G36*
G01*
X152550002Y-37325000D02*
X151299998Y-37325000D01*
G75*
G02*
X151050000Y-37075002I0J249998D01*
G01*
X151050000Y-36449998D01*
G75*
G02*
X151299998Y-36200000I249998J0D01*
G01*
X152550002Y-36200000D01*
G75*
G02*
X152800000Y-36449998I0J-249998D01*
G01*
X152800000Y-37075002D01*
G75*
G02*
X152550002Y-37325000I-249998J0D01*
G01*
G37*
%TD.AperFunction*%
%TD*%
%TO.P,R7,1*%
%TO.N,R1-*%
%TA.AperFunction,SMDPad,CuDef*%
G36*
G01*
X133374998Y-36200000D02*
X134625002Y-36200000D01*
G75*
G02*
X134875000Y-36449998I0J-249998D01*
G01*
X134875000Y-37075002D01*
G75*
G02*
X134625002Y-37325000I-249998J0D01*
G01*
X133374998Y-37325000D01*
G75*
G02*
X133125000Y-37075002I0J249998D01*
G01*
X133125000Y-36449998D01*
G75*
G02*
X133374998Y-36200000I249998J0D01*
G01*
G37*
%TD.AperFunction*%
%TO.P,R7,2*%
%TO.N,NO1*%
%TA.AperFunction,SMDPad,CuDef*%
G36*
G01*
X133374998Y-39125000D02*
X134625002Y-39125000D01*
G75*
G02*
X134875000Y-39374998I0J-249998D01*
G01*
X134875000Y-40000002D01*
G75*
G02*
X134625002Y-40250000I-249998J0D01*
G01*
X133374998Y-40250000D01*
G75*
G02*
X133125000Y-40000002I0J249998D01*
G01*
X133125000Y-39374998D01*
G75*
G02*
X133374998Y-39125000I249998J0D01*
G01*
G37*
%TD.AperFunction*%
%TD*%
%TO.P,R8,2*%
%TO.N,NO1*%
%TA.AperFunction,SMDPad,CuDef*%
G36*
G01*
X101369998Y-39125000D02*
X102620002Y-39125000D01*
G75*
G02*
X102870000Y-39374998I0J-249998D01*
G01*
X102870000Y-40000002D01*
G75*
G02*
X102620002Y-40250000I-249998J0D01*
G01*
X101369998Y-40250000D01*
G75*
G02*
X101120000Y-40000002I0J249998D01*
G01*
X101120000Y-39374998D01*
G75*
G02*
X101369998Y-39125000I249998J0D01*
G01*
G37*
%TD.AperFunction*%
%TO.P,R8,1*%
%TO.N,R1-*%
%TA.AperFunction,SMDPad,CuDef*%
G36*
G01*
X101369998Y-36200000D02*
X102620002Y-36200000D01*
G75*
G02*
X102870000Y-36449998I0J-249998D01*
G01*
X102870000Y-37075002D01*
G75*
G02*
X102620002Y-37325000I-249998J0D01*
G01*
X101369998Y-37325000D01*
G75*
G02*
X101120000Y-37075002I0J249998D01*
G01*
X101120000Y-36449998D01*
G75*
G02*
X101369998Y-36200000I249998J0D01*
G01*
G37*
%TD.AperFunction*%
%TD*%
%TO.P,R9,2*%
%TO.N,NO1*%
%TA.AperFunction,SMDPad,CuDef*%
G36*
G01*
X167924998Y-39125000D02*
X169175002Y-39125000D01*
G75*
G02*
X169425000Y-39374998I0J-249998D01*
G01*
X169425000Y-40000002D01*
G75*
G02*
X169175002Y-40250000I-249998J0D01*
G01*
X167924998Y-40250000D01*
G75*
G02*
X167675000Y-40000002I0J249998D01*
G01*
X167675000Y-39374998D01*
G75*
G02*
X167924998Y-39125000I249998J0D01*
G01*
G37*
%TD.AperFunction*%
%TO.P,R9,1*%
%TO.N,R1-*%
%TA.AperFunction,SMDPad,CuDef*%
G36*
G01*
X167924998Y-36200000D02*
X169175002Y-36200000D01*
G75*
G02*
X169425000Y-36449998I0J-249998D01*
G01*
X169425000Y-37075002D01*
G75*
G02*
X169175002Y-37325000I-249998J0D01*
G01*
X167924998Y-37325000D01*
G75*
G02*
X167675000Y-37075002I0J249998D01*
G01*
X167675000Y-36449998D01*
G75*
G02*
X167924998Y-36200000I249998J0D01*
G01*
G37*
%TD.AperFunction*%
%TD*%
%TO.P,R10,2*%
%TO.N,Net-(D2-Pad1)*%
%TA.AperFunction,SMDPad,CuDef*%
G36*
G01*
X24375002Y-56725685D02*
X23124998Y-56725685D01*
G75*
G02*
X22875000Y-56475687I0J249998D01*
G01*
X22875000Y-55850683D01*
G75*
G02*
X23124998Y-55600685I249998J0D01*
G01*
X24375002Y-55600685D01*
G75*
G02*
X24625000Y-55850683I0J-249998D01*
G01*
X24625000Y-56475687D01*
G75*
G02*
X24375002Y-56725685I-249998J0D01*
G01*
G37*
%TD.AperFunction*%
%TO.P,R10,1*%
%TO.N,R1-*%
%TA.AperFunction,SMDPad,CuDef*%
G36*
G01*
X24375002Y-59650685D02*
X23124998Y-59650685D01*
G75*
G02*
X22875000Y-59400687I0J249998D01*
G01*
X22875000Y-58775683D01*
G75*
G02*
X23124998Y-58525685I249998J0D01*
G01*
X24375002Y-58525685D01*
G75*
G02*
X24625000Y-58775683I0J-249998D01*
G01*
X24625000Y-59400687D01*
G75*
G02*
X24375002Y-59650685I-249998J0D01*
G01*
G37*
%TD.AperFunction*%
%TD*%
%TO.P,R11,1*%
%TO.N,Net-(D3-Pad2)*%
%TA.AperFunction,SMDPad,CuDef*%
G36*
G01*
X23800000Y-107625002D02*
X23800000Y-106374998D01*
G75*
G02*
X24049998Y-106125000I249998J0D01*
G01*
X24675002Y-106125000D01*
G75*
G02*
X24925000Y-106374998I0J-249998D01*
G01*
X24925000Y-107625002D01*
G75*
G02*
X24675002Y-107875000I-249998J0D01*
G01*
X24049998Y-107875000D01*
G75*
G02*
X23800000Y-107625002I0J249998D01*
G01*
G37*
%TD.AperFunction*%
%TO.P,R11,2*%
%TO.N,R2-*%
%TA.AperFunction,SMDPad,CuDef*%
G36*
G01*
X26725000Y-107625002D02*
X26725000Y-106374998D01*
G75*
G02*
X26974998Y-106125000I249998J0D01*
G01*
X27600002Y-106125000D01*
G75*
G02*
X27850000Y-106374998I0J-249998D01*
G01*
X27850000Y-107625002D01*
G75*
G02*
X27600002Y-107875000I-249998J0D01*
G01*
X26974998Y-107875000D01*
G75*
G02*
X26725000Y-107625002I0J249998D01*
G01*
G37*
%TD.AperFunction*%
%TD*%
%TO.P,R12,1*%
%TO.N,NC2*%
%TA.AperFunction,SMDPad,CuDef*%
G36*
G01*
X118375002Y-95650000D02*
X117124998Y-95650000D01*
G75*
G02*
X116875000Y-95400002I0J249998D01*
G01*
X116875000Y-94774998D01*
G75*
G02*
X117124998Y-94525000I249998J0D01*
G01*
X118375002Y-94525000D01*
G75*
G02*
X118625000Y-94774998I0J-249998D01*
G01*
X118625000Y-95400002D01*
G75*
G02*
X118375002Y-95650000I-249998J0D01*
G01*
G37*
%TD.AperFunction*%
%TO.P,R12,2*%
%TO.N,R2-*%
%TA.AperFunction,SMDPad,CuDef*%
G36*
G01*
X118375002Y-92725000D02*
X117124998Y-92725000D01*
G75*
G02*
X116875000Y-92475002I0J249998D01*
G01*
X116875000Y-91849998D01*
G75*
G02*
X117124998Y-91600000I249998J0D01*
G01*
X118375002Y-91600000D01*
G75*
G02*
X118625000Y-91849998I0J-249998D01*
G01*
X118625000Y-92475002D01*
G75*
G02*
X118375002Y-92725000I-249998J0D01*
G01*
G37*
%TD.AperFunction*%
%TD*%
%TO.P,R13,1*%
%TO.N,NC2*%
%TA.AperFunction,SMDPad,CuDef*%
G36*
G01*
X49450002Y-95650000D02*
X48199998Y-95650000D01*
G75*
G02*
X47950000Y-95400002I0J249998D01*
G01*
X47950000Y-94774998D01*
G75*
G02*
X48199998Y-94525000I249998J0D01*
G01*
X49450002Y-94525000D01*
G75*
G02*
X49700000Y-94774998I0J-249998D01*
G01*
X49700000Y-95400002D01*
G75*
G02*
X49450002Y-95650000I-249998J0D01*
G01*
G37*
%TD.AperFunction*%
%TO.P,R13,2*%
%TO.N,R2-*%
%TA.AperFunction,SMDPad,CuDef*%
G36*
G01*
X49450002Y-92725000D02*
X48199998Y-92725000D01*
G75*
G02*
X47950000Y-92475002I0J249998D01*
G01*
X47950000Y-91849998D01*
G75*
G02*
X48199998Y-91600000I249998J0D01*
G01*
X49450002Y-91600000D01*
G75*
G02*
X49700000Y-91849998I0J-249998D01*
G01*
X49700000Y-92475002D01*
G75*
G02*
X49450002Y-92725000I-249998J0D01*
G01*
G37*
%TD.AperFunction*%
%TD*%
%TO.P,R14,1*%
%TO.N,NC2*%
%TA.AperFunction,SMDPad,CuDef*%
G36*
G01*
X83925002Y-95650000D02*
X82674998Y-95650000D01*
G75*
G02*
X82425000Y-95400002I0J249998D01*
G01*
X82425000Y-94774998D01*
G75*
G02*
X82674998Y-94525000I249998J0D01*
G01*
X83925002Y-94525000D01*
G75*
G02*
X84175000Y-94774998I0J-249998D01*
G01*
X84175000Y-95400002D01*
G75*
G02*
X83925002Y-95650000I-249998J0D01*
G01*
G37*
%TD.AperFunction*%
%TO.P,R14,2*%
%TO.N,R2-*%
%TA.AperFunction,SMDPad,CuDef*%
G36*
G01*
X83925002Y-92725000D02*
X82674998Y-92725000D01*
G75*
G02*
X82425000Y-92475002I0J249998D01*
G01*
X82425000Y-91849998D01*
G75*
G02*
X82674998Y-91600000I249998J0D01*
G01*
X83925002Y-91600000D01*
G75*
G02*
X84175000Y-91849998I0J-249998D01*
G01*
X84175000Y-92475002D01*
G75*
G02*
X83925002Y-92725000I-249998J0D01*
G01*
G37*
%TD.AperFunction*%
%TD*%
%TO.P,R15,2*%
%TO.N,R2-*%
%TA.AperFunction,SMDPad,CuDef*%
G36*
G01*
X152895002Y-92790000D02*
X151644998Y-92790000D01*
G75*
G02*
X151395000Y-92540002I0J249998D01*
G01*
X151395000Y-91914998D01*
G75*
G02*
X151644998Y-91665000I249998J0D01*
G01*
X152895002Y-91665000D01*
G75*
G02*
X153145000Y-91914998I0J-249998D01*
G01*
X153145000Y-92540002D01*
G75*
G02*
X152895002Y-92790000I-249998J0D01*
G01*
G37*
%TD.AperFunction*%
%TO.P,R15,1*%
%TO.N,NC2*%
%TA.AperFunction,SMDPad,CuDef*%
G36*
G01*
X152895002Y-95715000D02*
X151644998Y-95715000D01*
G75*
G02*
X151395000Y-95465002I0J249998D01*
G01*
X151395000Y-94839998D01*
G75*
G02*
X151644998Y-94590000I249998J0D01*
G01*
X152895002Y-94590000D01*
G75*
G02*
X153145000Y-94839998I0J-249998D01*
G01*
X153145000Y-95465002D01*
G75*
G02*
X152895002Y-95715000I-249998J0D01*
G01*
G37*
%TD.AperFunction*%
%TD*%
%TO.P,R16,1*%
%TO.N,R2-*%
%TA.AperFunction,SMDPad,CuDef*%
G36*
G01*
X133264998Y-91600000D02*
X134515002Y-91600000D01*
G75*
G02*
X134765000Y-91849998I0J-249998D01*
G01*
X134765000Y-92475002D01*
G75*
G02*
X134515002Y-92725000I-249998J0D01*
G01*
X133264998Y-92725000D01*
G75*
G02*
X133015000Y-92475002I0J249998D01*
G01*
X133015000Y-91849998D01*
G75*
G02*
X133264998Y-91600000I249998J0D01*
G01*
G37*
%TD.AperFunction*%
%TO.P,R16,2*%
%TO.N,NO2*%
%TA.AperFunction,SMDPad,CuDef*%
G36*
G01*
X133264998Y-94525000D02*
X134515002Y-94525000D01*
G75*
G02*
X134765000Y-94774998I0J-249998D01*
G01*
X134765000Y-95400002D01*
G75*
G02*
X134515002Y-95650000I-249998J0D01*
G01*
X133264998Y-95650000D01*
G75*
G02*
X133015000Y-95400002I0J249998D01*
G01*
X133015000Y-94774998D01*
G75*
G02*
X133264998Y-94525000I249998J0D01*
G01*
G37*
%TD.AperFunction*%
%TD*%
%TO.P,R17,2*%
%TO.N,NO2*%
%TA.AperFunction,SMDPad,CuDef*%
G36*
G01*
X64174998Y-94525000D02*
X65425002Y-94525000D01*
G75*
G02*
X65675000Y-94774998I0J-249998D01*
G01*
X65675000Y-95400002D01*
G75*
G02*
X65425002Y-95650000I-249998J0D01*
G01*
X64174998Y-95650000D01*
G75*
G02*
X63925000Y-95400002I0J249998D01*
G01*
X63925000Y-94774998D01*
G75*
G02*
X64174998Y-94525000I249998J0D01*
G01*
G37*
%TD.AperFunction*%
%TO.P,R17,1*%
%TO.N,R2-*%
%TA.AperFunction,SMDPad,CuDef*%
G36*
G01*
X64174998Y-91600000D02*
X65425002Y-91600000D01*
G75*
G02*
X65675000Y-91849998I0J-249998D01*
G01*
X65675000Y-92475002D01*
G75*
G02*
X65425002Y-92725000I-249998J0D01*
G01*
X64174998Y-92725000D01*
G75*
G02*
X63925000Y-92475002I0J249998D01*
G01*
X63925000Y-91849998D01*
G75*
G02*
X64174998Y-91600000I249998J0D01*
G01*
G37*
%TD.AperFunction*%
%TD*%
%TO.P,R18,2*%
%TO.N,NO2*%
%TA.AperFunction,SMDPad,CuDef*%
G36*
G01*
X98824998Y-94525000D02*
X100075002Y-94525000D01*
G75*
G02*
X100325000Y-94774998I0J-249998D01*
G01*
X100325000Y-95400002D01*
G75*
G02*
X100075002Y-95650000I-249998J0D01*
G01*
X98824998Y-95650000D01*
G75*
G02*
X98575000Y-95400002I0J249998D01*
G01*
X98575000Y-94774998D01*
G75*
G02*
X98824998Y-94525000I249998J0D01*
G01*
G37*
%TD.AperFunction*%
%TO.P,R18,1*%
%TO.N,R2-*%
%TA.AperFunction,SMDPad,CuDef*%
G36*
G01*
X98824998Y-91600000D02*
X100075002Y-91600000D01*
G75*
G02*
X100325000Y-91849998I0J-249998D01*
G01*
X100325000Y-92475002D01*
G75*
G02*
X100075002Y-92725000I-249998J0D01*
G01*
X98824998Y-92725000D01*
G75*
G02*
X98575000Y-92475002I0J249998D01*
G01*
X98575000Y-91849998D01*
G75*
G02*
X98824998Y-91600000I249998J0D01*
G01*
G37*
%TD.AperFunction*%
%TD*%
%TO.P,R19,1*%
%TO.N,R2-*%
%TA.AperFunction,SMDPad,CuDef*%
G36*
G01*
X167854998Y-91665000D02*
X169105002Y-91665000D01*
G75*
G02*
X169355000Y-91914998I0J-249998D01*
G01*
X169355000Y-92540002D01*
G75*
G02*
X169105002Y-92790000I-249998J0D01*
G01*
X167854998Y-92790000D01*
G75*
G02*
X167605000Y-92540002I0J249998D01*
G01*
X167605000Y-91914998D01*
G75*
G02*
X167854998Y-91665000I249998J0D01*
G01*
G37*
%TD.AperFunction*%
%TO.P,R19,2*%
%TO.N,NO2*%
%TA.AperFunction,SMDPad,CuDef*%
G36*
G01*
X167854998Y-94590000D02*
X169105002Y-94590000D01*
G75*
G02*
X169355000Y-94839998I0J-249998D01*
G01*
X169355000Y-95465002D01*
G75*
G02*
X169105002Y-95715000I-249998J0D01*
G01*
X167854998Y-95715000D01*
G75*
G02*
X167605000Y-95465002I0J249998D01*
G01*
X167605000Y-94839998D01*
G75*
G02*
X167854998Y-94590000I249998J0D01*
G01*
G37*
%TD.AperFunction*%
%TD*%
%TO.P,R20,2*%
%TO.N,Net-(D4-Pad1)*%
%TA.AperFunction,SMDPad,CuDef*%
G36*
G01*
X24425002Y-111650685D02*
X23174998Y-111650685D01*
G75*
G02*
X22925000Y-111400687I0J249998D01*
G01*
X22925000Y-110775683D01*
G75*
G02*
X23174998Y-110525685I249998J0D01*
G01*
X24425002Y-110525685D01*
G75*
G02*
X24675000Y-110775683I0J-249998D01*
G01*
X24675000Y-111400687D01*
G75*
G02*
X24425002Y-111650685I-249998J0D01*
G01*
G37*
%TD.AperFunction*%
%TO.P,R20,1*%
%TO.N,R2-*%
%TA.AperFunction,SMDPad,CuDef*%
G36*
G01*
X24425002Y-114575685D02*
X23174998Y-114575685D01*
G75*
G02*
X22925000Y-114325687I0J249998D01*
G01*
X22925000Y-113700683D01*
G75*
G02*
X23174998Y-113450685I249998J0D01*
G01*
X24425002Y-113450685D01*
G75*
G02*
X24675000Y-113700683I0J-249998D01*
G01*
X24675000Y-114325687D01*
G75*
G02*
X24425002Y-114575685I-249998J0D01*
G01*
G37*
%TD.AperFunction*%
%TD*%
%TO.P,R21,2*%
%TO.N,R3-*%
%TA.AperFunction,SMDPad,CuDef*%
G36*
G01*
X26620000Y-163100002D02*
X26620000Y-161849998D01*
G75*
G02*
X26869998Y-161600000I249998J0D01*
G01*
X27495002Y-161600000D01*
G75*
G02*
X27745000Y-161849998I0J-249998D01*
G01*
X27745000Y-163100002D01*
G75*
G02*
X27495002Y-163350000I-249998J0D01*
G01*
X26869998Y-163350000D01*
G75*
G02*
X26620000Y-163100002I0J249998D01*
G01*
G37*
%TD.AperFunction*%
%TO.P,R21,1*%
%TO.N,Net-(D5-Pad2)*%
%TA.AperFunction,SMDPad,CuDef*%
G36*
G01*
X23695000Y-163100002D02*
X23695000Y-161849998D01*
G75*
G02*
X23944998Y-161600000I249998J0D01*
G01*
X24570002Y-161600000D01*
G75*
G02*
X24820000Y-161849998I0J-249998D01*
G01*
X24820000Y-163100002D01*
G75*
G02*
X24570002Y-163350000I-249998J0D01*
G01*
X23944998Y-163350000D01*
G75*
G02*
X23695000Y-163100002I0J249998D01*
G01*
G37*
%TD.AperFunction*%
%TD*%
%TO.P,R22,1*%
%TO.N,NC3*%
%TA.AperFunction,SMDPad,CuDef*%
G36*
G01*
X118375002Y-151050000D02*
X117124998Y-151050000D01*
G75*
G02*
X116875000Y-150800002I0J249998D01*
G01*
X116875000Y-150174998D01*
G75*
G02*
X117124998Y-149925000I249998J0D01*
G01*
X118375002Y-149925000D01*
G75*
G02*
X118625000Y-150174998I0J-249998D01*
G01*
X118625000Y-150800002D01*
G75*
G02*
X118375002Y-151050000I-249998J0D01*
G01*
G37*
%TD.AperFunction*%
%TO.P,R22,2*%
%TO.N,R3-*%
%TA.AperFunction,SMDPad,CuDef*%
G36*
G01*
X118375002Y-148125000D02*
X117124998Y-148125000D01*
G75*
G02*
X116875000Y-147875002I0J249998D01*
G01*
X116875000Y-147249998D01*
G75*
G02*
X117124998Y-147000000I249998J0D01*
G01*
X118375002Y-147000000D01*
G75*
G02*
X118625000Y-147249998I0J-249998D01*
G01*
X118625000Y-147875002D01*
G75*
G02*
X118375002Y-148125000I-249998J0D01*
G01*
G37*
%TD.AperFunction*%
%TD*%
%TO.P,R23,1*%
%TO.N,NC3*%
%TA.AperFunction,SMDPad,CuDef*%
G36*
G01*
X49300002Y-151062500D02*
X48049998Y-151062500D01*
G75*
G02*
X47800000Y-150812502I0J249998D01*
G01*
X47800000Y-150187498D01*
G75*
G02*
X48049998Y-149937500I249998J0D01*
G01*
X49300002Y-149937500D01*
G75*
G02*
X49550000Y-150187498I0J-249998D01*
G01*
X49550000Y-150812502D01*
G75*
G02*
X49300002Y-151062500I-249998J0D01*
G01*
G37*
%TD.AperFunction*%
%TO.P,R23,2*%
%TO.N,R3-*%
%TA.AperFunction,SMDPad,CuDef*%
G36*
G01*
X49300002Y-148137500D02*
X48049998Y-148137500D01*
G75*
G02*
X47800000Y-147887502I0J249998D01*
G01*
X47800000Y-147262498D01*
G75*
G02*
X48049998Y-147012500I249998J0D01*
G01*
X49300002Y-147012500D01*
G75*
G02*
X49550000Y-147262498I0J-249998D01*
G01*
X49550000Y-147887502D01*
G75*
G02*
X49300002Y-148137500I-249998J0D01*
G01*
G37*
%TD.AperFunction*%
%TD*%
%TO.P,R24,2*%
%TO.N,R3-*%
%TA.AperFunction,SMDPad,CuDef*%
G36*
G01*
X83475002Y-148125000D02*
X82224998Y-148125000D01*
G75*
G02*
X81975000Y-147875002I0J249998D01*
G01*
X81975000Y-147249998D01*
G75*
G02*
X82224998Y-147000000I249998J0D01*
G01*
X83475002Y-147000000D01*
G75*
G02*
X83725000Y-147249998I0J-249998D01*
G01*
X83725000Y-147875002D01*
G75*
G02*
X83475002Y-148125000I-249998J0D01*
G01*
G37*
%TD.AperFunction*%
%TO.P,R24,1*%
%TO.N,NC3*%
%TA.AperFunction,SMDPad,CuDef*%
G36*
G01*
X83475002Y-151050000D02*
X82224998Y-151050000D01*
G75*
G02*
X81975000Y-150800002I0J249998D01*
G01*
X81975000Y-150174998D01*
G75*
G02*
X82224998Y-149925000I249998J0D01*
G01*
X83475002Y-149925000D01*
G75*
G02*
X83725000Y-150174998I0J-249998D01*
G01*
X83725000Y-150800002D01*
G75*
G02*
X83475002Y-151050000I-249998J0D01*
G01*
G37*
%TD.AperFunction*%
%TD*%
%TO.P,R25,1*%
%TO.N,NC3*%
%TA.AperFunction,SMDPad,CuDef*%
G36*
G01*
X152805002Y-151035000D02*
X151554998Y-151035000D01*
G75*
G02*
X151305000Y-150785002I0J249998D01*
G01*
X151305000Y-150159998D01*
G75*
G02*
X151554998Y-149910000I249998J0D01*
G01*
X152805002Y-149910000D01*
G75*
G02*
X153055000Y-150159998I0J-249998D01*
G01*
X153055000Y-150785002D01*
G75*
G02*
X152805002Y-151035000I-249998J0D01*
G01*
G37*
%TD.AperFunction*%
%TO.P,R25,2*%
%TO.N,R3-*%
%TA.AperFunction,SMDPad,CuDef*%
G36*
G01*
X152805002Y-148110000D02*
X151554998Y-148110000D01*
G75*
G02*
X151305000Y-147860002I0J249998D01*
G01*
X151305000Y-147234998D01*
G75*
G02*
X151554998Y-146985000I249998J0D01*
G01*
X152805002Y-146985000D01*
G75*
G02*
X153055000Y-147234998I0J-249998D01*
G01*
X153055000Y-147860002D01*
G75*
G02*
X152805002Y-148110000I-249998J0D01*
G01*
G37*
%TD.AperFunction*%
%TD*%
%TO.P,R26,1*%
%TO.N,R3-*%
%TA.AperFunction,SMDPad,CuDef*%
G36*
G01*
X133099998Y-147000000D02*
X134350002Y-147000000D01*
G75*
G02*
X134600000Y-147249998I0J-249998D01*
G01*
X134600000Y-147875002D01*
G75*
G02*
X134350002Y-148125000I-249998J0D01*
G01*
X133099998Y-148125000D01*
G75*
G02*
X132850000Y-147875002I0J249998D01*
G01*
X132850000Y-147249998D01*
G75*
G02*
X133099998Y-147000000I249998J0D01*
G01*
G37*
%TD.AperFunction*%
%TO.P,R26,2*%
%TO.N,NO3*%
%TA.AperFunction,SMDPad,CuDef*%
G36*
G01*
X133099998Y-149925000D02*
X134350002Y-149925000D01*
G75*
G02*
X134600000Y-150174998I0J-249998D01*
G01*
X134600000Y-150800002D01*
G75*
G02*
X134350002Y-151050000I-249998J0D01*
G01*
X133099998Y-151050000D01*
G75*
G02*
X132850000Y-150800002I0J249998D01*
G01*
X132850000Y-150174998D01*
G75*
G02*
X133099998Y-149925000I249998J0D01*
G01*
G37*
%TD.AperFunction*%
%TD*%
%TO.P,R27,1*%
%TO.N,R3-*%
%TA.AperFunction,SMDPad,CuDef*%
G36*
G01*
X64134998Y-147000000D02*
X65385002Y-147000000D01*
G75*
G02*
X65635000Y-147249998I0J-249998D01*
G01*
X65635000Y-147875002D01*
G75*
G02*
X65385002Y-148125000I-249998J0D01*
G01*
X64134998Y-148125000D01*
G75*
G02*
X63885000Y-147875002I0J249998D01*
G01*
X63885000Y-147249998D01*
G75*
G02*
X64134998Y-147000000I249998J0D01*
G01*
G37*
%TD.AperFunction*%
%TO.P,R27,2*%
%TO.N,NO3*%
%TA.AperFunction,SMDPad,CuDef*%
G36*
G01*
X64134998Y-149925000D02*
X65385002Y-149925000D01*
G75*
G02*
X65635000Y-150174998I0J-249998D01*
G01*
X65635000Y-150800002D01*
G75*
G02*
X65385002Y-151050000I-249998J0D01*
G01*
X64134998Y-151050000D01*
G75*
G02*
X63885000Y-150800002I0J249998D01*
G01*
X63885000Y-150174998D01*
G75*
G02*
X64134998Y-149925000I249998J0D01*
G01*
G37*
%TD.AperFunction*%
%TD*%
%TO.P,R28,1*%
%TO.N,R3-*%
%TA.AperFunction,SMDPad,CuDef*%
G36*
G01*
X98774998Y-147000000D02*
X100025002Y-147000000D01*
G75*
G02*
X100275000Y-147249998I0J-249998D01*
G01*
X100275000Y-147875002D01*
G75*
G02*
X100025002Y-148125000I-249998J0D01*
G01*
X98774998Y-148125000D01*
G75*
G02*
X98525000Y-147875002I0J249998D01*
G01*
X98525000Y-147249998D01*
G75*
G02*
X98774998Y-147000000I249998J0D01*
G01*
G37*
%TD.AperFunction*%
%TO.P,R28,2*%
%TO.N,NO3*%
%TA.AperFunction,SMDPad,CuDef*%
G36*
G01*
X98774998Y-149925000D02*
X100025002Y-149925000D01*
G75*
G02*
X100275000Y-150174998I0J-249998D01*
G01*
X100275000Y-150800002D01*
G75*
G02*
X100025002Y-151050000I-249998J0D01*
G01*
X98774998Y-151050000D01*
G75*
G02*
X98525000Y-150800002I0J249998D01*
G01*
X98525000Y-150174998D01*
G75*
G02*
X98774998Y-149925000I249998J0D01*
G01*
G37*
%TD.AperFunction*%
%TD*%
%TO.P,R29,2*%
%TO.N,NO3*%
%TA.AperFunction,SMDPad,CuDef*%
G36*
G01*
X167844998Y-149950000D02*
X169095002Y-149950000D01*
G75*
G02*
X169345000Y-150199998I0J-249998D01*
G01*
X169345000Y-150825002D01*
G75*
G02*
X169095002Y-151075000I-249998J0D01*
G01*
X167844998Y-151075000D01*
G75*
G02*
X167595000Y-150825002I0J249998D01*
G01*
X167595000Y-150199998D01*
G75*
G02*
X167844998Y-149950000I249998J0D01*
G01*
G37*
%TD.AperFunction*%
%TO.P,R29,1*%
%TO.N,R3-*%
%TA.AperFunction,SMDPad,CuDef*%
G36*
G01*
X167844998Y-147025000D02*
X169095002Y-147025000D01*
G75*
G02*
X169345000Y-147274998I0J-249998D01*
G01*
X169345000Y-147900002D01*
G75*
G02*
X169095002Y-148150000I-249998J0D01*
G01*
X167844998Y-148150000D01*
G75*
G02*
X167595000Y-147900002I0J249998D01*
G01*
X167595000Y-147274998D01*
G75*
G02*
X167844998Y-147025000I249998J0D01*
G01*
G37*
%TD.AperFunction*%
%TD*%
%TO.P,R30,2*%
%TO.N,Net-(D6-Pad1)*%
%TA.AperFunction,SMDPad,CuDef*%
G36*
G01*
X24375002Y-167125685D02*
X23124998Y-167125685D01*
G75*
G02*
X22875000Y-166875687I0J249998D01*
G01*
X22875000Y-166250683D01*
G75*
G02*
X23124998Y-166000685I249998J0D01*
G01*
X24375002Y-166000685D01*
G75*
G02*
X24625000Y-166250683I0J-249998D01*
G01*
X24625000Y-166875687D01*
G75*
G02*
X24375002Y-167125685I-249998J0D01*
G01*
G37*
%TD.AperFunction*%
%TO.P,R30,1*%
%TO.N,R3-*%
%TA.AperFunction,SMDPad,CuDef*%
G36*
G01*
X24375002Y-170050685D02*
X23124998Y-170050685D01*
G75*
G02*
X22875000Y-169800687I0J249998D01*
G01*
X22875000Y-169175683D01*
G75*
G02*
X23124998Y-168925685I249998J0D01*
G01*
X24375002Y-168925685D01*
G75*
G02*
X24625000Y-169175683I0J-249998D01*
G01*
X24625000Y-169800687D01*
G75*
G02*
X24375002Y-170050685I-249998J0D01*
G01*
G37*
%TD.AperFunction*%
%TD*%
D10*
%TO.P,D1,2*%
%TO.N,Net-(D1-Pad2)*%
X33200000Y-46050000D03*
%TO.P,D1,1*%
%TO.N,Net-(D1-Pad1)*%
X33200000Y-43950000D03*
%TD*%
%TO.P,D5,1*%
%TO.N,Net-(D5-Pad1)*%
X33500000Y-155450000D03*
%TO.P,D5,2*%
%TO.N,Net-(D5-Pad2)*%
X33500000Y-157550000D03*
%TD*%
D12*
%TO.P,Q1,2*%
%TO.N,Net-(D1-Pad1)*%
X24300000Y-43400000D03*
D11*
%TO.P,Q1,3*%
%TO.N,R1+*%
X30600000Y-41120000D03*
%TO.P,Q1,2*%
%TO.N,Net-(D1-Pad1)*%
X30600000Y-43400000D03*
%TO.P,Q1,1*%
%TO.N,Net-(D1-Pad2)*%
X30600000Y-45680000D03*
%TD*%
%TO.P,Q2,1*%
%TO.N,Net-(D3-Pad2)*%
X30025000Y-101105000D03*
%TO.P,Q2,2*%
%TO.N,Net-(D3-Pad1)*%
X30025000Y-98825000D03*
%TO.P,Q2,3*%
%TO.N,R2+*%
X30025000Y-96545000D03*
D12*
%TO.P,Q2,2*%
%TO.N,Net-(D3-Pad1)*%
X23725000Y-98825000D03*
%TD*%
D17*
%TO.N,R1-*%
X32000000Y-64250000D03*
X27500000Y-50000000D03*
X48250000Y-34750000D03*
X50750000Y-34750000D03*
X65000000Y-34750000D03*
X67500000Y-34750000D03*
X83000000Y-34750000D03*
X85500000Y-34750000D03*
X99500000Y-34750000D03*
X102000000Y-34750000D03*
X117250000Y-34750000D03*
X119750000Y-34750000D03*
X134000000Y-34750000D03*
X136500000Y-34750000D03*
X151750000Y-34750000D03*
X154500000Y-34750000D03*
X168500000Y-34750000D03*
X171000000Y-34750000D03*
%TO.N,NO1*%
X46245001Y-71754999D03*
%TO.N,R2-*%
X27250000Y-105250000D03*
X31500000Y-119500000D03*
X48750000Y-90500000D03*
X51250000Y-90500000D03*
X64750000Y-90500000D03*
X67500000Y-90500000D03*
X83250000Y-90500000D03*
X85750000Y-90500000D03*
X99500000Y-90500000D03*
X102250000Y-90500000D03*
X117750000Y-90500000D03*
X120250000Y-90500000D03*
X134000000Y-90500000D03*
X136750000Y-90500000D03*
X152250000Y-90500000D03*
X154750000Y-90500000D03*
X168500000Y-90500000D03*
X171500000Y-90500000D03*
%TO.N,NO2*%
X46900000Y-127100000D03*
%TO.N,R3-*%
X31500000Y-175000000D03*
X27250000Y-160500000D03*
X171250000Y-145750000D03*
X168500000Y-145750000D03*
X154750000Y-145750000D03*
X152000000Y-145750000D03*
X136750000Y-145750000D03*
X133750000Y-145750000D03*
X120250000Y-145750000D03*
X117500000Y-145750000D03*
X102000000Y-145750000D03*
X99250000Y-145750000D03*
X85750000Y-145750000D03*
X82750000Y-145750000D03*
X67500000Y-145750000D03*
X64750000Y-145750000D03*
X51000000Y-145750000D03*
X48750000Y-145750000D03*
%TO.N,NO3*%
X46400000Y-182600000D03*
%TD*%
D18*
%TO.N,R1-*%
X22088185Y-59088185D02*
X23750000Y-59088185D01*
X21250000Y-55250000D02*
X21250000Y-58250000D01*
X21250000Y-58250000D02*
X22088185Y-59088185D01*
X22250000Y-54250000D02*
X21250000Y-55250000D01*
X26750000Y-54250000D02*
X22250000Y-54250000D01*
X27393871Y-53606129D02*
X26750000Y-54250000D01*
X27393871Y-52075000D02*
X27393871Y-53606129D01*
X31904999Y-64154999D02*
X32000000Y-64250000D01*
X29150001Y-64154999D02*
X31904999Y-64154999D01*
X27500000Y-51968871D02*
X27393871Y-52075000D01*
X27500000Y-50000000D02*
X27500000Y-51968871D01*
X48200000Y-34800000D02*
X48250000Y-34750000D01*
X48200000Y-36762500D02*
X48200000Y-34800000D01*
X50775000Y-34775000D02*
X50750000Y-34750000D01*
X50775000Y-36750000D02*
X50775000Y-34775000D01*
X65000000Y-36687500D02*
X64925000Y-36762500D01*
X65000000Y-34750000D02*
X65000000Y-36687500D01*
X67500000Y-36650000D02*
X67400000Y-36750000D01*
X67500000Y-34750000D02*
X67500000Y-36650000D01*
X83000000Y-36687500D02*
X82925000Y-36762500D01*
X83000000Y-34750000D02*
X83000000Y-36687500D01*
X85500000Y-36625000D02*
X85375000Y-36750000D01*
X85500000Y-34750000D02*
X85500000Y-36625000D01*
X99500000Y-36720000D02*
X99470000Y-36750000D01*
X99500000Y-34750000D02*
X99500000Y-36720000D01*
X102000000Y-36757500D02*
X101995000Y-36762500D01*
X102000000Y-34750000D02*
X102000000Y-36757500D01*
X117250000Y-36637500D02*
X117375000Y-36762500D01*
X117250000Y-34750000D02*
X117250000Y-36637500D01*
X119750000Y-36650000D02*
X119850000Y-36750000D01*
X119750000Y-34750000D02*
X119750000Y-36650000D01*
X134000000Y-34750000D02*
X134000000Y-36762500D01*
X136500000Y-36700000D02*
X136450000Y-36750000D01*
X136500000Y-34750000D02*
X136500000Y-36700000D01*
X151750000Y-36587500D02*
X151925000Y-36762500D01*
X151750000Y-34750000D02*
X151750000Y-36587500D01*
X154500000Y-36625000D02*
X154375000Y-36750000D01*
X154500000Y-34750000D02*
X154500000Y-36625000D01*
X168500000Y-36712500D02*
X168550000Y-36762500D01*
X168500000Y-34750000D02*
X168500000Y-36712500D01*
X171000000Y-34750000D02*
X171000000Y-36750000D01*
%TO.N,NC1*%
X29150001Y-67354999D02*
X22410001Y-67354999D01*
X50762500Y-39687500D02*
X50775000Y-39700000D01*
X48200000Y-39687500D02*
X50762500Y-39687500D01*
X56550000Y-39700000D02*
X57900000Y-38350000D01*
X50775000Y-39700000D02*
X56550000Y-39700000D01*
X85362500Y-39687500D02*
X85375000Y-39700000D01*
X82925000Y-39687500D02*
X85362500Y-39687500D01*
X91100000Y-39700000D02*
X92445000Y-38355000D01*
X85375000Y-39700000D02*
X91100000Y-39700000D01*
X119837500Y-39687500D02*
X119850000Y-39700000D01*
X117375000Y-39687500D02*
X119837500Y-39687500D01*
X125625000Y-39700000D02*
X126970000Y-38355000D01*
X119850000Y-39700000D02*
X125625000Y-39700000D01*
X160157500Y-39687500D02*
X161495000Y-38350000D01*
X151925000Y-39687500D02*
X160157500Y-39687500D01*
X57900000Y-58350000D02*
X57900000Y-38350000D01*
X48895001Y-67354999D02*
X57900000Y-58350000D01*
X29150001Y-67354999D02*
X48895001Y-67354999D01*
X92445000Y-58305000D02*
X92445000Y-38355000D01*
X83395001Y-67354999D02*
X92445000Y-58305000D01*
X48895001Y-67354999D02*
X83395001Y-67354999D01*
X83395001Y-67354999D02*
X117895001Y-67354999D01*
X126970000Y-58280000D02*
X126970000Y-38355000D01*
X117895001Y-67354999D02*
X126970000Y-58280000D01*
X161495000Y-58255000D02*
X161495000Y-38350000D01*
X152395001Y-67354999D02*
X161495000Y-58255000D01*
X117895001Y-67354999D02*
X152395001Y-67354999D01*
%TO.N,NO1*%
X22410001Y-71754999D02*
X29150001Y-71754999D01*
X67387500Y-39687500D02*
X67400000Y-39700000D01*
X64925000Y-39687500D02*
X67387500Y-39687500D01*
X73125000Y-39700000D02*
X74475000Y-38350000D01*
X67400000Y-39700000D02*
X73125000Y-39700000D01*
X101982500Y-39700000D02*
X101995000Y-39687500D01*
X99470000Y-39700000D02*
X101982500Y-39700000D01*
X107707500Y-39687500D02*
X109040000Y-38355000D01*
X101995000Y-39687500D02*
X107707500Y-39687500D01*
X136437500Y-39687500D02*
X136450000Y-39700000D01*
X134000000Y-39687500D02*
X136437500Y-39687500D01*
X142180000Y-39700000D02*
X143525000Y-38355000D01*
X136450000Y-39700000D02*
X142180000Y-39700000D01*
X176732500Y-39687500D02*
X178070000Y-38350000D01*
X168550000Y-39687500D02*
X176732500Y-39687500D01*
X29150001Y-71754999D02*
X46245001Y-71754999D01*
X46245001Y-71754999D02*
X46245001Y-71754999D01*
%TO.N,R2-*%
X22500000Y-109000000D02*
X26500000Y-109000000D01*
X26500000Y-109000000D02*
X27287500Y-108212500D01*
X21500000Y-110000000D02*
X22500000Y-109000000D01*
X21500000Y-112750000D02*
X21500000Y-110000000D01*
X22763185Y-114013185D02*
X21500000Y-112750000D01*
X27287500Y-108212500D02*
X27287500Y-107000000D01*
X23800000Y-114013185D02*
X22763185Y-114013185D01*
X27287500Y-105287500D02*
X27250000Y-105250000D01*
X27287500Y-107000000D02*
X27287500Y-105287500D01*
X171500000Y-92035000D02*
X171320000Y-92215000D01*
X171500000Y-90500000D02*
X171500000Y-92035000D01*
X168500000Y-92207500D02*
X168480000Y-92227500D01*
X168500000Y-90500000D02*
X168500000Y-92207500D01*
X154750000Y-92205000D02*
X154740000Y-92215000D01*
X154750000Y-90500000D02*
X154750000Y-92205000D01*
X152250000Y-92207500D02*
X152270000Y-92227500D01*
X152250000Y-90500000D02*
X152250000Y-92207500D01*
X136750000Y-91975000D02*
X136575000Y-92150000D01*
X136750000Y-90500000D02*
X136750000Y-91975000D01*
X134000000Y-92052500D02*
X133890000Y-92162500D01*
X134000000Y-90500000D02*
X134000000Y-92052500D01*
X120250000Y-92125000D02*
X120225000Y-92150000D01*
X120250000Y-90500000D02*
X120250000Y-92125000D01*
X117750000Y-90500000D02*
X117750000Y-92162500D01*
X102250000Y-91975000D02*
X102075000Y-92150000D01*
X102250000Y-90500000D02*
X102250000Y-91975000D01*
X99500000Y-92112500D02*
X99450000Y-92162500D01*
X99500000Y-90500000D02*
X99500000Y-92112500D01*
X85750000Y-92075000D02*
X85675000Y-92150000D01*
X85750000Y-90500000D02*
X85750000Y-92075000D01*
X83250000Y-92112500D02*
X83300000Y-92162500D01*
X83250000Y-90500000D02*
X83250000Y-92112500D01*
X67500000Y-92125000D02*
X67525000Y-92150000D01*
X67500000Y-90500000D02*
X67500000Y-92125000D01*
X64750000Y-92112500D02*
X64800000Y-92162500D01*
X64750000Y-90500000D02*
X64750000Y-92112500D01*
X51250000Y-92075000D02*
X51175000Y-92150000D01*
X51250000Y-90500000D02*
X51250000Y-92075000D01*
X48750000Y-92087500D02*
X48825000Y-92162500D01*
X48750000Y-90500000D02*
X48750000Y-92087500D01*
X29000000Y-119500000D02*
X31500000Y-119500000D01*
%TO.N,NC2*%
X56457500Y-95087500D02*
X57900000Y-93645000D01*
X48825000Y-95087500D02*
X56457500Y-95087500D01*
X90982500Y-95087500D02*
X92425000Y-93645000D01*
X83300000Y-95087500D02*
X90982500Y-95087500D01*
X125527500Y-95087500D02*
X126970000Y-93645000D01*
X117750000Y-95087500D02*
X125527500Y-95087500D01*
X159987500Y-95152500D02*
X161495000Y-93645000D01*
X152270000Y-95152500D02*
X159987500Y-95152500D01*
X22260000Y-122700000D02*
X29000000Y-122700000D01*
X29000000Y-122700000D02*
X49050000Y-122700000D01*
X57900000Y-113850000D02*
X57900000Y-93645000D01*
X49050000Y-122700000D02*
X57900000Y-113850000D01*
X49050000Y-122700000D02*
X83300000Y-122700000D01*
X92425000Y-113575000D02*
X92425000Y-93645000D01*
X83300000Y-122700000D02*
X92425000Y-113575000D01*
X126970000Y-113780000D02*
X126970000Y-93645000D01*
X118050000Y-122700000D02*
X126970000Y-113780000D01*
X83300000Y-122700000D02*
X118050000Y-122700000D01*
X118050000Y-122700000D02*
X152300000Y-122700000D01*
X161495000Y-113505000D02*
X161495000Y-93645000D01*
X152300000Y-122700000D02*
X161495000Y-113505000D01*
%TO.N,NO2*%
X73032500Y-95087500D02*
X74475000Y-93645000D01*
X64800000Y-95087500D02*
X73032500Y-95087500D01*
X107557500Y-95087500D02*
X109000000Y-93645000D01*
X99450000Y-95087500D02*
X107557500Y-95087500D01*
X142082500Y-95087500D02*
X143525000Y-93645000D01*
X133890000Y-95087500D02*
X142082500Y-95087500D01*
X176562500Y-95152500D02*
X178070000Y-93645000D01*
X168480000Y-95152500D02*
X176562500Y-95152500D01*
X22260000Y-127100000D02*
X29000000Y-127100000D01*
X29000000Y-127100000D02*
X46900000Y-127100000D01*
X46900000Y-127100000D02*
X46900000Y-127100000D01*
%TO.N,NC3*%
X22260000Y-178200000D02*
X29000000Y-178200000D01*
X56400000Y-150500000D02*
X57875000Y-149025000D01*
X48675000Y-150500000D02*
X56400000Y-150500000D01*
X90937500Y-150487500D02*
X92400000Y-149025000D01*
X82850000Y-150487500D02*
X90937500Y-150487500D01*
X125482500Y-150487500D02*
X126945000Y-149025000D01*
X117750000Y-150487500D02*
X125482500Y-150487500D01*
X160022500Y-150472500D02*
X161470000Y-149025000D01*
X152180000Y-150472500D02*
X160022500Y-150472500D01*
X57875000Y-169125000D02*
X57875000Y-149025000D01*
X92400000Y-168850000D02*
X92400000Y-149025000D01*
X83050000Y-178200000D02*
X92400000Y-168850000D01*
X49300000Y-178200000D02*
X83050000Y-178200000D01*
X83050000Y-178200000D02*
X117550000Y-178200000D01*
X126945000Y-168805000D02*
X126945000Y-149025000D01*
X117550000Y-178200000D02*
X126945000Y-168805000D01*
X161470000Y-168530000D02*
X161470000Y-149025000D01*
X151800000Y-178200000D02*
X161470000Y-168530000D01*
X117550000Y-178200000D02*
X151800000Y-178200000D01*
X49300000Y-177700000D02*
X49300000Y-178200000D01*
X48800000Y-178200000D02*
X54125000Y-172875000D01*
X48550000Y-178200000D02*
X48800000Y-178200000D01*
X54125000Y-172875000D02*
X57875000Y-169125000D01*
X49300000Y-177700000D02*
X54125000Y-172875000D01*
X29000000Y-178200000D02*
X48550000Y-178200000D01*
X48550000Y-178200000D02*
X49300000Y-178200000D01*
%TO.N,R3-*%
X27182500Y-163817500D02*
X27182500Y-162475000D01*
X26500000Y-164500000D02*
X27182500Y-163817500D01*
X22750000Y-164500000D02*
X26500000Y-164500000D01*
X21500000Y-165750000D02*
X22750000Y-164500000D01*
X21500000Y-168250000D02*
X21500000Y-165750000D01*
X22738185Y-169488185D02*
X21500000Y-168250000D01*
X23750000Y-169488185D02*
X22738185Y-169488185D01*
X27250000Y-162407500D02*
X27182500Y-162475000D01*
X27250000Y-160500000D02*
X27250000Y-162407500D01*
X31500000Y-175000000D02*
X29000000Y-175000000D01*
X48750000Y-147500000D02*
X48675000Y-147575000D01*
X48750000Y-145750000D02*
X48750000Y-147500000D01*
X51000000Y-147400000D02*
X51150000Y-147550000D01*
X51000000Y-145750000D02*
X51000000Y-147400000D01*
X64750000Y-147552500D02*
X64760000Y-147562500D01*
X64750000Y-145750000D02*
X64750000Y-147552500D01*
X67500000Y-147500000D02*
X67450000Y-147550000D01*
X67500000Y-145750000D02*
X67500000Y-147500000D01*
X82750000Y-147462500D02*
X82850000Y-147562500D01*
X82750000Y-145750000D02*
X82750000Y-147462500D01*
X85750000Y-147475000D02*
X85675000Y-147550000D01*
X85750000Y-145750000D02*
X85750000Y-147475000D01*
X99250000Y-147412500D02*
X99400000Y-147562500D01*
X99250000Y-145750000D02*
X99250000Y-147412500D01*
X102000000Y-147425000D02*
X102125000Y-147550000D01*
X102000000Y-145750000D02*
X102000000Y-147425000D01*
X117500000Y-147312500D02*
X117750000Y-147562500D01*
X117500000Y-145750000D02*
X117500000Y-147312500D01*
X120250000Y-147475000D02*
X120175000Y-147550000D01*
X120250000Y-145750000D02*
X120250000Y-147475000D01*
X133750000Y-147537500D02*
X133725000Y-147562500D01*
X133750000Y-145750000D02*
X133750000Y-147537500D01*
X152000000Y-147367500D02*
X152180000Y-147547500D01*
X152000000Y-145750000D02*
X152000000Y-147367500D01*
X154750000Y-147540000D02*
X154760000Y-147550000D01*
X154750000Y-145750000D02*
X154750000Y-147540000D01*
X168500000Y-147557500D02*
X168470000Y-147587500D01*
X168500000Y-145750000D02*
X168500000Y-147557500D01*
X171250000Y-147435000D02*
X171110000Y-147575000D01*
X171250000Y-145750000D02*
X171250000Y-147435000D01*
X136750000Y-147550000D02*
X136750000Y-145750000D01*
%TO.N,NO3*%
X29000000Y-182600000D02*
X22350000Y-182600000D01*
X22350000Y-182600000D02*
X28400000Y-182600000D01*
X22260000Y-182600000D02*
X22350000Y-182600000D01*
X72987500Y-150487500D02*
X74450000Y-149025000D01*
X64760000Y-150487500D02*
X72987500Y-150487500D01*
X107487500Y-150487500D02*
X108975000Y-149000000D01*
X99400000Y-150487500D02*
X107487500Y-150487500D01*
X142037500Y-150487500D02*
X143500000Y-149025000D01*
X133725000Y-150487500D02*
X142037500Y-150487500D01*
X176557500Y-150512500D02*
X178045000Y-149025000D01*
X168470000Y-150512500D02*
X176557500Y-150512500D01*
X29000000Y-182600000D02*
X46400000Y-182600000D01*
X46400000Y-182600000D02*
X46400000Y-182600000D01*
%TO.N,Net-(D1-Pad2)*%
X24468871Y-52075000D02*
X24468871Y-49488870D01*
X30100000Y-45680000D02*
X27580000Y-48200000D01*
X30600000Y-45680000D02*
X30100000Y-45680000D01*
X25757741Y-48200000D02*
X24468871Y-49488870D01*
X27580000Y-48200000D02*
X25757741Y-48200000D01*
X32830000Y-45680000D02*
X33200000Y-46050000D01*
X30600000Y-45680000D02*
X32830000Y-45680000D01*
%TO.N,R1+*%
X22410001Y-64154999D02*
X23770001Y-64154999D01*
X26850000Y-61075000D02*
X23770001Y-64154999D01*
X26850000Y-58740000D02*
X26850000Y-61075000D01*
X28030000Y-38550000D02*
X30600000Y-41120000D01*
X21275000Y-38550000D02*
X28030000Y-38550000D01*
X19250000Y-40575000D02*
X21275000Y-38550000D01*
X19250000Y-60994998D02*
X19250000Y-40575000D01*
X22410001Y-64154999D02*
X19250000Y-60994998D01*
%TO.N,Net-(D1-Pad1)*%
X30600000Y-43400000D02*
X24300000Y-43400000D01*
%TO.N,Net-(D2-Pad1)*%
X26813185Y-56163185D02*
X26850000Y-56200000D01*
X23750000Y-56163185D02*
X26813185Y-56163185D01*
%TO.N,R2+*%
X22260000Y-119500000D02*
X24000000Y-119500000D01*
X26743629Y-116756371D02*
X26743629Y-113665000D01*
X24000000Y-119500000D02*
X26743629Y-116756371D01*
X27480000Y-94000000D02*
X30025000Y-96545000D01*
X19275000Y-95125000D02*
X20400000Y-94000000D01*
X19275000Y-117025000D02*
X19275000Y-95125000D01*
X21750000Y-119500000D02*
X19275000Y-117025000D01*
X20400000Y-94000000D02*
X27480000Y-94000000D01*
X22260000Y-119500000D02*
X21750000Y-119500000D01*
%TO.N,Net-(D3-Pad1)*%
X23725000Y-98825000D02*
X30025000Y-98825000D01*
X32750000Y-98825000D02*
X33200000Y-99275000D01*
X30025000Y-98825000D02*
X32750000Y-98825000D01*
%TO.N,Net-(D3-Pad2)*%
X32930000Y-101105000D02*
X33200000Y-101375000D01*
X30025000Y-101105000D02*
X32930000Y-101105000D01*
X24362500Y-107000000D02*
X24362500Y-104537500D01*
X24362500Y-104537500D02*
X25425000Y-103475000D01*
X27655000Y-103475000D02*
X30025000Y-101105000D01*
X25425000Y-103475000D02*
X27655000Y-103475000D01*
%TO.N,Net-(D4-Pad1)*%
X26706814Y-111088185D02*
X26743629Y-111125000D01*
X23800000Y-111088185D02*
X26706814Y-111088185D01*
%TO.N,R3+*%
X22260000Y-175000000D02*
X24250000Y-175000000D01*
X26638629Y-172611371D02*
X26638629Y-169140000D01*
X24250000Y-175000000D02*
X26638629Y-172611371D01*
X28680000Y-150350000D02*
X30824999Y-152494999D01*
X20925000Y-150350000D02*
X28680000Y-150350000D01*
X19250000Y-171990000D02*
X19250000Y-152025000D01*
X19250000Y-152025000D02*
X20925000Y-150350000D01*
X22260000Y-175000000D02*
X19250000Y-171990000D01*
%TO.N,Net-(D5-Pad1)*%
X30824999Y-154774999D02*
X24524999Y-154774999D01*
X32824999Y-154774999D02*
X33500000Y-155450000D01*
X30824999Y-154774999D02*
X32824999Y-154774999D01*
%TO.N,Net-(D5-Pad2)*%
X24300000Y-162432500D02*
X24257500Y-162475000D01*
X24257500Y-162475000D02*
X24257500Y-160492500D01*
X24257500Y-160492500D02*
X25750000Y-159000000D01*
X28879998Y-159000000D02*
X30824999Y-157054999D01*
X25750000Y-159000000D02*
X28879998Y-159000000D01*
X33004999Y-157054999D02*
X33500000Y-157550000D01*
X30824999Y-157054999D02*
X33004999Y-157054999D01*
%TO.N,Net-(D6-Pad1)*%
X26601814Y-166563185D02*
X26638629Y-166600000D01*
X23750000Y-166563185D02*
X26601814Y-166563185D01*
D19*
%TO.N,Net-(J1-Pad1)*%
X28000000Y-29000000D02*
X28000000Y-27500000D01*
X28000000Y-27500000D02*
X32750000Y-22750000D01*
X181750000Y-22750000D02*
X188000000Y-29000000D01*
X32750000Y-22750000D02*
X181750000Y-22750000D01*
%TO.N,Net-(J2-Pad1)*%
X28000000Y-200000000D02*
X28000000Y-201250000D01*
X28000000Y-201250000D02*
X32500000Y-205750000D01*
X182250000Y-205750000D02*
X188000000Y-200000000D01*
X32500000Y-205750000D02*
X182250000Y-205750000D01*
D18*
%TO.N,COM1*%
X22410001Y-69554999D02*
X29150001Y-69554999D01*
X66200000Y-78350000D02*
X100750000Y-78350000D01*
X135225000Y-78350000D02*
X135250000Y-78375000D01*
X100750000Y-78350000D02*
X135225000Y-78350000D01*
X135250000Y-78375000D02*
X169775000Y-78375000D01*
X49304999Y-69554999D02*
X29150001Y-69554999D01*
X58100000Y-78350000D02*
X49304999Y-69554999D01*
X66200000Y-78350000D02*
X58100000Y-78350000D01*
%TO.N,Net-(D1-Pad1)*%
X38200000Y-38250000D02*
X38300000Y-38350000D01*
X38300000Y-38350000D02*
X33370000Y-38350000D01*
%TO.N,COM2*%
X66182500Y-133750000D02*
X169777500Y-133750000D01*
X22260000Y-124900000D02*
X29000000Y-124900000D01*
X58000000Y-133750000D02*
X66182500Y-133750000D01*
X49150000Y-124900000D02*
X58000000Y-133750000D01*
X29000000Y-124900000D02*
X49150000Y-124900000D01*
%TO.N,COM3*%
X29000000Y-180400000D02*
X22260000Y-180400000D01*
X66157500Y-189155000D02*
X169752500Y-189155000D01*
X58155000Y-189155000D02*
X66157500Y-189155000D01*
X49400000Y-180400000D02*
X58155000Y-189155000D01*
X29000000Y-180400000D02*
X49400000Y-180400000D01*
%TO.N,Net-(D5-Pad1)*%
X38275000Y-149025000D02*
X34294998Y-149025000D01*
%TO.N,Net-(D1-Pad1)*%
X33250000Y-43400000D02*
X38300000Y-38350000D01*
X30600000Y-43400000D02*
X33250000Y-43400000D01*
X33250000Y-43900000D02*
X33200000Y-43950000D01*
X33250000Y-43400000D02*
X33250000Y-43900000D01*
%TO.N,Net-(D3-Pad1)*%
X33120000Y-98825000D02*
X30025000Y-98825000D01*
X38300000Y-93645000D02*
X33120000Y-98825000D01*
%TO.N,Net-(D5-Pad1)*%
X32525001Y-154774999D02*
X30824999Y-154774999D01*
X38275000Y-149025000D02*
X32525001Y-154774999D01*
%TD*%
M02*
