M48
; DRILL file {KiCad (5.1.9)-1} date 07/25/21 11:44:55
; FORMAT={-:-/ absolute / inch / decimal}
; #@! TF.CreationDate,2021-07-25T11:44:55+02:00
; #@! TF.GenerationSoftware,Kicad,Pcbnew,(5.1.9)-1
; #@! TF.FileFunction,Plated,1,2,PTH
FMAT,2
INCH
T1C0.0157
T2C0.0315
T3C0.2402
%
G90
G05
T1
X1.0728Y-4.1437
X1.0728Y-6.3189
X1.0827Y-1.9685
X1.2402Y-4.7047
X1.2402Y-6.8898
X1.2598Y-2.5295
X1.8207Y-2.825
X1.8268Y-7.189
X1.8465Y-5.0039
X1.8996Y-1.3681
X1.9193Y-3.563
X1.9193Y-5.7382
X1.998Y-1.3681
X2.0079Y-5.7382
X2.0177Y-3.563
X2.5492Y-3.563
X2.5492Y-5.7382
X2.5591Y-1.3681
X2.6575Y-1.3681
X2.6575Y-3.563
X2.6575Y-5.7382
X3.2579Y-5.7382
X3.2677Y-1.3681
X3.2776Y-3.563
X3.3661Y-1.3681
X3.376Y-3.563
X3.376Y-5.7382
X3.9075Y-5.7382
X3.9173Y-1.3681
X3.9173Y-3.563
X4.0157Y-1.3681
X4.0157Y-5.7382
X4.0256Y-3.563
X4.6161Y-1.3681
X4.626Y-5.7382
X4.6358Y-3.563
X4.7146Y-1.3681
X4.7343Y-3.563
X4.7343Y-5.7382
X5.2657Y-5.7382
X5.2756Y-1.3681
X5.2756Y-3.563
X5.374Y-1.3681
X5.3839Y-3.563
X5.3839Y-5.7382
X5.9744Y-1.3681
X5.9843Y-5.7382
X5.9941Y-3.563
X6.0827Y-1.3681
X6.0925Y-3.563
X6.0925Y-5.7382
X6.6339Y-1.3681
X6.6339Y-3.563
X6.6339Y-5.7382
X6.7323Y-1.3681
X6.7421Y-5.7382
X6.752Y-3.563
T2
X1.0488Y-6.5591
X1.0488Y-6.6591
X1.0529Y-4.375
X1.0529Y-4.475
X1.0571Y-2.2126
X1.0571Y-2.3126
T3
X1.1024Y-1.1417
X1.1024Y-7.874
X1.5069Y-5.2657
X1.5069Y-5.8671
X1.5069Y-7.447
X1.5079Y-1.5098
X1.5079Y-3.0846
X1.5079Y-3.6868
X2.2785Y-5.8671
X2.2795Y-1.5098
X2.2795Y-3.6868
X2.6046Y-7.447
X2.6056Y-5.2657
X2.6063Y-3.0846
X2.9311Y-5.8671
X2.9321Y-1.5098
X2.9321Y-3.6868
X3.6378Y-5.8671
X3.6388Y-3.6868
X3.6396Y-1.51
X3.9639Y-7.447
X3.9646Y-5.2657
X3.9665Y-3.0846
X4.2904Y-5.8661
X4.2913Y-3.6868
X4.2929Y-1.51
X4.9978Y-5.8671
X4.9988Y-1.51
X4.9988Y-3.6868
X5.3239Y-7.447
X5.3248Y-3.0856
X5.3249Y-5.2657
X5.6496Y-5.8671
X5.6506Y-1.51
X5.6506Y-3.6868
X6.3571Y-5.8671
X6.3581Y-1.5098
X6.3581Y-3.6868
X6.6832Y-7.447
X6.6841Y-3.0856
X6.6842Y-5.2657
X7.0096Y-5.8671
X7.0106Y-1.5098
X7.0106Y-3.6868
X7.4016Y-1.1417
X7.4016Y-7.874
T0
M30
