%TF.GenerationSoftware,KiCad,Pcbnew,(5.1.9)-1*%
%TF.CreationDate,2021-07-25T11:44:51+02:00*%
%TF.ProjectId,RelayControls-HPK,52656c61-7943-46f6-9e74-726f6c732d48,V0.1*%
%TF.SameCoordinates,Original*%
%TF.FileFunction,Legend,Top*%
%TF.FilePolarity,Positive*%
%FSLAX46Y46*%
G04 Gerber Fmt 4.6, Leading zero omitted, Abs format (unit mm)*
G04 Created by KiCad (PCBNEW (5.1.9)-1) date 2021-07-25 11:44:51*
%MOMM*%
%LPD*%
G01*
G04 APERTURE LIST*
%ADD10C,0.200000*%
%ADD11C,0.120000*%
%ADD12C,0.010000*%
%ADD13C,0.100000*%
%ADD14C,0.150000*%
%ADD15C,0.254000*%
G04 APERTURE END LIST*
D10*
X163875000Y-169055000D02*
X164875000Y-169055000D01*
X47775000Y-169055000D02*
X48775000Y-169055000D01*
X73800000Y-169055000D02*
X74800000Y-169055000D01*
X107825000Y-169055000D02*
X108825000Y-169055000D01*
X53775000Y-169055000D02*
X54775000Y-169055000D01*
X171875000Y-169055000D02*
X172875000Y-169055000D01*
X57775000Y-169055000D02*
X58775000Y-169055000D01*
X63775000Y-169055000D02*
X64775000Y-169055000D01*
X74450000Y-149055000D02*
X74450000Y-159605000D01*
X177875000Y-169055000D02*
X178875000Y-169055000D01*
X51775000Y-169055000D02*
X52775000Y-169055000D01*
X59775000Y-169055000D02*
X60775000Y-169055000D01*
X34525000Y-164055000D02*
X42025000Y-174055000D01*
X161875000Y-169055000D02*
X162875000Y-169055000D01*
X38275000Y-164055000D02*
X38275000Y-149055000D01*
X175875000Y-169055000D02*
X176875000Y-169055000D01*
X95800000Y-169055000D02*
X96800000Y-169055000D01*
X55775000Y-169055000D02*
X56775000Y-169055000D01*
X74450000Y-159605000D02*
X74450000Y-164055000D01*
X101800000Y-169055000D02*
X102800000Y-169055000D01*
X87800000Y-169055000D02*
X88800000Y-169055000D01*
X83800000Y-169055000D02*
X84800000Y-169055000D01*
X71800000Y-169055000D02*
X72800000Y-169055000D01*
X153875000Y-169055000D02*
X154875000Y-169055000D01*
X109825000Y-169055000D02*
X110825000Y-169055000D01*
X165875000Y-169055000D02*
X166875000Y-169055000D01*
X93800000Y-169055000D02*
X94800000Y-169055000D01*
X57875000Y-149055000D02*
X57875000Y-159605000D01*
X85800000Y-169055000D02*
X86800000Y-169055000D01*
X99800000Y-169055000D02*
X100800000Y-169055000D01*
X49775000Y-169055000D02*
X50775000Y-169055000D01*
X65775000Y-169055000D02*
X66775000Y-169055000D01*
X57875000Y-159605000D02*
X57875000Y-164055000D01*
X61775000Y-169055000D02*
X62775000Y-169055000D01*
X89800000Y-169055000D02*
X90800000Y-169055000D01*
X159875000Y-169055000D02*
X160875000Y-169055000D01*
X69775000Y-169055000D02*
X70775000Y-169055000D01*
X135220000Y-174055000D02*
X128570000Y-162530000D01*
X121825000Y-169055000D02*
X122825000Y-169055000D01*
X133825000Y-169055000D02*
X134825000Y-169055000D01*
X129825000Y-169055000D02*
X130825000Y-169055000D01*
X38275000Y-174055000D02*
X38275000Y-189055000D01*
X137825000Y-169055000D02*
X138825000Y-169055000D01*
X157875000Y-169055000D02*
X158875000Y-169055000D01*
X126945000Y-149055000D02*
X126945000Y-159605000D01*
X30775000Y-174055000D02*
X30775000Y-164055000D01*
X127825000Y-169055000D02*
X128825000Y-169055000D01*
X135225000Y-189080000D02*
X135220000Y-174055000D01*
X91800000Y-169055000D02*
X92800000Y-169055000D01*
X145850000Y-169055000D02*
X146850000Y-169055000D01*
X149850000Y-169055000D02*
X150850000Y-169055000D01*
X57875000Y-164055000D02*
X62875000Y-164055000D01*
X126945000Y-164155000D02*
X131945000Y-164155000D01*
X169875000Y-169055000D02*
X170875000Y-169055000D01*
X135825000Y-169055000D02*
X136825000Y-169055000D01*
X119825000Y-169055000D02*
X120825000Y-169055000D01*
X45775000Y-164055000D02*
X45775000Y-174055000D01*
X126945000Y-159605000D02*
X126945000Y-164055000D01*
X117825000Y-169055000D02*
X118825000Y-169055000D01*
X143520000Y-159605000D02*
X143520000Y-164055000D01*
X123825000Y-169055000D02*
X124825000Y-169055000D01*
X143500000Y-149055000D02*
X143500000Y-159605000D01*
X155875000Y-169055000D02*
X156875000Y-169055000D01*
X167875000Y-169055000D02*
X168875000Y-169055000D01*
X66155000Y-189080000D02*
X66150000Y-174055000D01*
X67775000Y-169055000D02*
X68775000Y-169055000D01*
X97800000Y-169055000D02*
X98800000Y-169055000D01*
X173875000Y-169055000D02*
X174875000Y-169055000D01*
X161470000Y-149055000D02*
X161470000Y-159605000D01*
X69450000Y-164055000D02*
X74450000Y-164055000D01*
X143850000Y-169055000D02*
X144850000Y-169055000D01*
X147850000Y-169055000D02*
X148850000Y-169055000D01*
X66150000Y-174055000D02*
X59500000Y-162530000D01*
X138520000Y-164155000D02*
X143520000Y-164155000D01*
X45775000Y-164055000D02*
X30775000Y-164055000D01*
X131825000Y-169055000D02*
X132825000Y-169055000D01*
X92400000Y-164055000D02*
X97400000Y-164055000D01*
X161470000Y-159605000D02*
X161470000Y-164055000D01*
X178045000Y-159605000D02*
X178045000Y-164055000D01*
X169745000Y-174055000D02*
X163095000Y-162530000D01*
X79800000Y-169055000D02*
X80800000Y-169055000D01*
X75800000Y-169055000D02*
X76800000Y-169055000D01*
X178045000Y-149055000D02*
X178045000Y-159605000D01*
X173045000Y-164155000D02*
X178045000Y-164155000D01*
X139825000Y-169055000D02*
X140825000Y-169055000D01*
X151850000Y-169055000D02*
X152850000Y-169055000D01*
X105800000Y-169055000D02*
X106800000Y-169055000D01*
X113825000Y-169055000D02*
X114825000Y-169055000D01*
X100680000Y-188980000D02*
X100675000Y-173955000D01*
X115825000Y-169055000D02*
X116825000Y-169055000D01*
X103800000Y-169055000D02*
X104800000Y-169055000D01*
X111825000Y-169055000D02*
X112825000Y-169055000D01*
X92400000Y-159505000D02*
X92400000Y-163955000D01*
X108975000Y-148955000D02*
X108975000Y-159505000D01*
X103975000Y-164055000D02*
X108975000Y-164055000D01*
X45775000Y-169055000D02*
X46775000Y-169055000D01*
X169750000Y-189080000D02*
X169745000Y-174055000D01*
X161470000Y-164155000D02*
X166470000Y-164155000D01*
X125825000Y-169055000D02*
X126825000Y-169055000D01*
X141825000Y-169055000D02*
X142825000Y-169055000D01*
X100675000Y-173955000D02*
X94025000Y-162430000D01*
X81800000Y-169055000D02*
X82800000Y-169055000D01*
X92400000Y-148955000D02*
X92400000Y-159505000D01*
X77800000Y-169055000D02*
X78800000Y-169055000D01*
X30775000Y-174055000D02*
X45775000Y-174055000D01*
X108975000Y-159505000D02*
X108975000Y-163955000D01*
X177900000Y-113675000D02*
X178900000Y-113675000D01*
X161900000Y-113675000D02*
X162900000Y-113675000D01*
X175900000Y-113675000D02*
X176900000Y-113675000D01*
X153900000Y-113675000D02*
X154900000Y-113675000D01*
X109850000Y-113675000D02*
X110850000Y-113675000D01*
X165900000Y-113675000D02*
X166900000Y-113675000D01*
X171900000Y-113675000D02*
X172900000Y-113675000D01*
X163900000Y-113675000D02*
X164900000Y-113675000D01*
X74475000Y-104225000D02*
X74475000Y-108675000D01*
X74475000Y-93675000D02*
X74475000Y-104225000D01*
X57900000Y-104225000D02*
X57900000Y-108675000D01*
X57900000Y-93675000D02*
X57900000Y-104225000D01*
X73825000Y-113675000D02*
X74825000Y-113675000D01*
X71825000Y-113675000D02*
X72825000Y-113675000D01*
X51800000Y-113675000D02*
X52800000Y-113675000D01*
X47800000Y-113675000D02*
X48800000Y-113675000D01*
X49800000Y-113675000D02*
X50800000Y-113675000D01*
X65800000Y-113675000D02*
X66800000Y-113675000D01*
X61800000Y-113675000D02*
X62800000Y-113675000D01*
X59800000Y-113675000D02*
X60800000Y-113675000D01*
X57800000Y-113675000D02*
X58800000Y-113675000D01*
X63800000Y-113675000D02*
X64800000Y-113675000D01*
X55800000Y-113675000D02*
X56800000Y-113675000D01*
X53800000Y-113675000D02*
X54800000Y-113675000D01*
X34550000Y-108675000D02*
X42050000Y-118675000D01*
X38300000Y-108675000D02*
X38300000Y-93675000D01*
X107850000Y-113675000D02*
X108850000Y-113675000D01*
X95825000Y-113675000D02*
X96825000Y-113675000D01*
X87825000Y-113675000D02*
X88825000Y-113675000D01*
X83825000Y-113675000D02*
X84825000Y-113675000D01*
X85825000Y-113675000D02*
X86825000Y-113675000D01*
X101825000Y-113675000D02*
X102825000Y-113675000D01*
X99825000Y-113675000D02*
X100825000Y-113675000D01*
X89825000Y-113675000D02*
X90825000Y-113675000D01*
X93825000Y-113675000D02*
X94825000Y-113675000D01*
X97825000Y-113675000D02*
X98825000Y-113675000D01*
X91825000Y-113675000D02*
X92825000Y-113675000D01*
X69475000Y-108675000D02*
X74475000Y-108675000D01*
X57900000Y-108675000D02*
X62900000Y-108675000D01*
X143875000Y-113675000D02*
X144875000Y-113675000D01*
X147875000Y-113675000D02*
X148875000Y-113675000D01*
X123850000Y-113675000D02*
X124850000Y-113675000D01*
X145875000Y-113675000D02*
X146875000Y-113675000D01*
X119850000Y-113675000D02*
X120850000Y-113675000D01*
X133850000Y-113675000D02*
X134850000Y-113675000D01*
X137850000Y-113675000D02*
X138850000Y-113675000D01*
X155900000Y-113675000D02*
X156900000Y-113675000D01*
X169900000Y-113675000D02*
X170900000Y-113675000D01*
X131850000Y-113675000D02*
X132850000Y-113675000D01*
X121850000Y-113675000D02*
X122850000Y-113675000D01*
X173900000Y-113675000D02*
X174900000Y-113675000D01*
X159900000Y-113675000D02*
X160900000Y-113675000D01*
X167900000Y-113675000D02*
X168900000Y-113675000D01*
X157900000Y-113675000D02*
X158900000Y-113675000D01*
X117850000Y-113675000D02*
X118850000Y-113675000D01*
X149875000Y-113675000D02*
X150875000Y-113675000D01*
X129850000Y-113675000D02*
X130850000Y-113675000D01*
X135850000Y-113675000D02*
X136850000Y-113675000D01*
X127850000Y-113675000D02*
X128850000Y-113675000D01*
X126970000Y-104225000D02*
X126970000Y-108675000D01*
X143545000Y-104225000D02*
X143545000Y-108675000D01*
X138545000Y-108775000D02*
X143545000Y-108775000D01*
X143525000Y-93675000D02*
X143525000Y-104225000D01*
X126970000Y-93675000D02*
X126970000Y-104225000D01*
X126970000Y-108775000D02*
X131970000Y-108775000D01*
X135245000Y-118675000D02*
X128595000Y-107150000D01*
X135250000Y-133700000D02*
X135245000Y-118675000D01*
X66175000Y-118675000D02*
X59525000Y-107150000D01*
X66180000Y-133700000D02*
X66175000Y-118675000D01*
X69800000Y-113675000D02*
X70800000Y-113675000D01*
X67800000Y-113675000D02*
X68800000Y-113675000D01*
X38300000Y-118675000D02*
X38300000Y-133675000D01*
X45800000Y-108675000D02*
X30800000Y-108675000D01*
X45800000Y-108675000D02*
X45800000Y-118675000D01*
X30800000Y-118675000D02*
X30800000Y-108675000D01*
X161495000Y-93675000D02*
X161495000Y-104225000D01*
X178070000Y-104225000D02*
X178070000Y-108675000D01*
X178070000Y-93675000D02*
X178070000Y-104225000D01*
X169775000Y-133700000D02*
X169770000Y-118675000D01*
X161495000Y-104225000D02*
X161495000Y-108675000D01*
X161495000Y-108775000D02*
X166495000Y-108775000D01*
X169770000Y-118675000D02*
X163120000Y-107150000D01*
X173070000Y-108775000D02*
X178070000Y-108775000D01*
X30800000Y-118675000D02*
X45800000Y-118675000D01*
X139850000Y-113675000D02*
X140850000Y-113675000D01*
X125850000Y-113675000D02*
X126850000Y-113675000D01*
X141850000Y-113675000D02*
X142850000Y-113675000D01*
X151875000Y-113675000D02*
X152875000Y-113675000D01*
X81825000Y-113675000D02*
X82825000Y-113675000D01*
X105825000Y-113675000D02*
X106825000Y-113675000D01*
X103825000Y-113675000D02*
X104825000Y-113675000D01*
X111850000Y-113675000D02*
X112850000Y-113675000D01*
X113850000Y-113675000D02*
X114850000Y-113675000D01*
X115850000Y-113675000D02*
X116850000Y-113675000D01*
X92425000Y-108675000D02*
X97425000Y-108675000D01*
X100700000Y-118575000D02*
X94050000Y-107050000D01*
X104000000Y-108675000D02*
X109000000Y-108675000D01*
X100697500Y-133600000D02*
X100692500Y-118575000D01*
X109000000Y-104125000D02*
X109000000Y-108575000D01*
X109000000Y-93575000D02*
X109000000Y-104125000D01*
X92425000Y-104125000D02*
X92425000Y-108575000D01*
X92425000Y-93575000D02*
X92425000Y-104125000D01*
X45800000Y-113675000D02*
X46800000Y-113675000D01*
X75825000Y-113675000D02*
X76825000Y-113675000D01*
X77825000Y-113675000D02*
X78825000Y-113675000D01*
X79825000Y-113675000D02*
X80825000Y-113675000D01*
X177900000Y-58350000D02*
X178900000Y-58350000D01*
X173900000Y-58350000D02*
X174900000Y-58350000D01*
X175900000Y-58350000D02*
X176900000Y-58350000D01*
X141850000Y-58350000D02*
X142850000Y-58350000D01*
X151875000Y-58350000D02*
X152875000Y-58350000D01*
X125850000Y-58350000D02*
X126850000Y-58350000D01*
X139850000Y-58350000D02*
X140850000Y-58350000D01*
X117850000Y-58350000D02*
X118850000Y-58350000D01*
X149875000Y-58350000D02*
X150875000Y-58350000D01*
X129850000Y-58350000D02*
X130850000Y-58350000D01*
X135850000Y-58350000D02*
X136850000Y-58350000D01*
X127850000Y-58350000D02*
X128850000Y-58350000D01*
X147875000Y-58350000D02*
X148875000Y-58350000D01*
X145875000Y-58350000D02*
X146875000Y-58350000D01*
X119850000Y-58350000D02*
X120850000Y-58350000D01*
X133850000Y-58350000D02*
X134850000Y-58350000D01*
X137850000Y-58350000D02*
X138850000Y-58350000D01*
X123850000Y-58350000D02*
X124850000Y-58350000D01*
X131850000Y-58350000D02*
X132850000Y-58350000D01*
X143875000Y-58350000D02*
X144875000Y-58350000D01*
X121850000Y-58350000D02*
X122850000Y-58350000D01*
X159900000Y-58350000D02*
X160900000Y-58350000D01*
X155900000Y-58350000D02*
X156900000Y-58350000D01*
X157900000Y-58350000D02*
X158900000Y-58350000D01*
X169900000Y-58350000D02*
X170900000Y-58350000D01*
X167900000Y-58350000D02*
X168900000Y-58350000D01*
X165900000Y-58350000D02*
X166900000Y-58350000D01*
X171900000Y-58350000D02*
X172900000Y-58350000D01*
X163900000Y-58350000D02*
X164900000Y-58350000D01*
X161900000Y-58350000D02*
X162900000Y-58350000D01*
X153900000Y-58350000D02*
X154900000Y-58350000D01*
X109850000Y-58350000D02*
X110850000Y-58350000D01*
X107850000Y-58350000D02*
X108850000Y-58350000D01*
X87825000Y-58350000D02*
X88825000Y-58350000D01*
X83825000Y-58350000D02*
X84825000Y-58350000D01*
X85825000Y-58350000D02*
X86825000Y-58350000D01*
X101825000Y-58350000D02*
X102825000Y-58350000D01*
X97825000Y-58350000D02*
X98825000Y-58350000D01*
X95825000Y-58350000D02*
X96825000Y-58350000D01*
X93825000Y-58350000D02*
X94825000Y-58350000D01*
X99825000Y-58350000D02*
X100825000Y-58350000D01*
X91825000Y-58350000D02*
X92825000Y-58350000D01*
X89825000Y-58350000D02*
X90825000Y-58350000D01*
X105825000Y-58350000D02*
X106825000Y-58350000D01*
X103825000Y-58350000D02*
X104825000Y-58350000D01*
X81825000Y-58350000D02*
X82825000Y-58350000D01*
X111850000Y-58350000D02*
X112850000Y-58350000D01*
X113850000Y-58350000D02*
X114850000Y-58350000D01*
X115850000Y-58350000D02*
X116850000Y-58350000D01*
X79825000Y-58350000D02*
X80825000Y-58350000D01*
X77825000Y-58350000D02*
X78825000Y-58350000D01*
X75825000Y-58350000D02*
X76825000Y-58350000D01*
X73825000Y-58350000D02*
X74825000Y-58350000D01*
X71825000Y-58350000D02*
X72825000Y-58350000D01*
X69800000Y-58350000D02*
X70800000Y-58350000D01*
X67800000Y-58350000D02*
X68800000Y-58350000D01*
X65800000Y-58350000D02*
X66800000Y-58350000D01*
X63800000Y-58350000D02*
X64800000Y-58350000D01*
X61800000Y-58350000D02*
X62800000Y-58350000D01*
X59800000Y-58350000D02*
X60800000Y-58350000D01*
X57800000Y-58350000D02*
X58800000Y-58350000D01*
X55800000Y-58350000D02*
X56800000Y-58350000D01*
X53800000Y-58350000D02*
X54800000Y-58350000D01*
X51800000Y-58350000D02*
X52800000Y-58350000D01*
X49800000Y-58350000D02*
X50800000Y-58350000D01*
X47800000Y-58350000D02*
X48800000Y-58350000D01*
X45800000Y-58350000D02*
X46800000Y-58350000D01*
X161495000Y-48900000D02*
X161495000Y-53350000D01*
X178070000Y-48900000D02*
X178070000Y-53350000D01*
X173070000Y-53450000D02*
X178070000Y-53450000D01*
X178070000Y-38350000D02*
X178070000Y-48900000D01*
X161495000Y-38350000D02*
X161495000Y-48900000D01*
X161495000Y-53450000D02*
X166495000Y-53450000D01*
X169770000Y-63350000D02*
X163120000Y-51825000D01*
X169775000Y-78375000D02*
X169770000Y-63350000D01*
X126970000Y-53450000D02*
X131970000Y-53450000D01*
X135245000Y-63350000D02*
X128595000Y-51825000D01*
X138545000Y-53450000D02*
X143545000Y-53450000D01*
X135250000Y-78375000D02*
X135245000Y-63350000D01*
X143545000Y-48900000D02*
X143545000Y-53350000D01*
X143525000Y-38350000D02*
X143525000Y-48900000D01*
X126970000Y-48900000D02*
X126970000Y-53350000D01*
X126970000Y-38350000D02*
X126970000Y-48900000D01*
X109000000Y-48800000D02*
X109000000Y-53250000D01*
X109000000Y-38250000D02*
X109000000Y-48800000D01*
X92425000Y-48800000D02*
X92425000Y-53250000D01*
X92425000Y-38250000D02*
X92425000Y-48800000D01*
X104000000Y-53350000D02*
X109000000Y-53350000D01*
X92425000Y-53350000D02*
X97425000Y-53350000D01*
X100700000Y-63250000D02*
X94050000Y-51725000D01*
X100705000Y-78275000D02*
X100700000Y-63250000D01*
X66175000Y-63350000D02*
X59525000Y-51825000D01*
X66180000Y-78375000D02*
X66175000Y-63350000D01*
X69475000Y-53350000D02*
X74475000Y-53350000D01*
X57900000Y-53350000D02*
X62900000Y-53350000D01*
X74475000Y-48900000D02*
X74475000Y-53350000D01*
X74475000Y-38350000D02*
X74475000Y-48900000D01*
X57900000Y-48900000D02*
X57900000Y-53350000D01*
X57900000Y-38350000D02*
X57900000Y-48900000D01*
X38300000Y-63350000D02*
X38300000Y-78350000D01*
X38300000Y-53350000D02*
X38300000Y-38350000D01*
X34550000Y-53350000D02*
X42050000Y-63350000D01*
X30800000Y-63350000D02*
X30800000Y-53350000D01*
X45800000Y-53350000D02*
X30800000Y-53350000D01*
X45800000Y-53350000D02*
X45800000Y-63350000D01*
X30800000Y-63350000D02*
X45800000Y-63350000D01*
D11*
%TO.C,D3*%
X34050000Y-98825000D02*
X34050000Y-101375000D01*
X32350000Y-98825000D02*
X32350000Y-101375000D01*
X34050000Y-98825000D02*
X32350000Y-98825000D01*
%TO.C,Q3*%
X29094999Y-151594999D02*
X30194999Y-151594999D01*
X29094999Y-151324999D02*
X29094999Y-151594999D01*
X27594999Y-151324999D02*
X29094999Y-151324999D01*
X29094999Y-157954999D02*
X31924999Y-157954999D01*
X29094999Y-158224999D02*
X29094999Y-157954999D01*
X27594999Y-158224999D02*
X29094999Y-158224999D01*
D12*
%TO.C,G\u002A\u002A\u002A*%
G36*
X103272816Y-195920079D02*
G01*
X103331462Y-195921888D01*
X103347692Y-195922862D01*
X103394046Y-195926812D01*
X103425297Y-195931772D01*
X103446660Y-195939119D01*
X103463350Y-195950233D01*
X103468545Y-195954800D01*
X103473321Y-195959476D01*
X103481457Y-195967873D01*
X103493394Y-195980475D01*
X103509574Y-195997764D01*
X103530438Y-196020223D01*
X103556427Y-196048335D01*
X103587984Y-196082582D01*
X103625549Y-196123448D01*
X103669564Y-196171415D01*
X103720471Y-196226966D01*
X103778710Y-196290584D01*
X103844724Y-196362752D01*
X103918954Y-196443953D01*
X104001841Y-196534669D01*
X104093827Y-196635384D01*
X104195353Y-196746580D01*
X104306861Y-196868740D01*
X104428792Y-197002347D01*
X104561588Y-197147884D01*
X104705690Y-197305833D01*
X104861540Y-197476678D01*
X105029579Y-197660901D01*
X105210248Y-197858986D01*
X105403989Y-198071414D01*
X105484342Y-198159520D01*
X105605031Y-198291817D01*
X105738586Y-198438147D01*
X105884143Y-198597566D01*
X106040836Y-198769128D01*
X106207802Y-198951887D01*
X106384175Y-199144898D01*
X106569091Y-199347216D01*
X106761685Y-199557894D01*
X106961093Y-199775989D01*
X107166450Y-200000555D01*
X107376891Y-200230645D01*
X107591551Y-200465315D01*
X107809567Y-200703619D01*
X108030073Y-200944612D01*
X108252205Y-201187349D01*
X108475098Y-201430884D01*
X108697887Y-201674272D01*
X108919708Y-201916567D01*
X109139697Y-202156824D01*
X109356987Y-202394098D01*
X109545065Y-202599440D01*
X109656409Y-202720920D01*
X109764188Y-202838365D01*
X109867584Y-202950893D01*
X109965780Y-203057617D01*
X110057957Y-203157655D01*
X110143299Y-203250121D01*
X110220986Y-203334133D01*
X110290202Y-203408806D01*
X110350128Y-203473256D01*
X110399946Y-203526599D01*
X110438839Y-203567951D01*
X110465988Y-203596428D01*
X110480576Y-203611145D01*
X110482718Y-203612986D01*
X110503680Y-203625772D01*
X110503680Y-201050626D01*
X110503713Y-200747721D01*
X110503814Y-200464845D01*
X110503985Y-200201704D01*
X110504225Y-199958007D01*
X110504537Y-199733462D01*
X110504921Y-199527776D01*
X110505380Y-199340657D01*
X110505913Y-199171814D01*
X110506523Y-199020954D01*
X110507210Y-198887786D01*
X110507976Y-198772016D01*
X110508822Y-198673353D01*
X110509749Y-198591506D01*
X110510758Y-198526181D01*
X110511851Y-198477087D01*
X110513029Y-198443932D01*
X110514293Y-198426423D01*
X110514602Y-198424551D01*
X110534678Y-198364440D01*
X110567102Y-198318872D01*
X110614187Y-198284720D01*
X110620534Y-198281440D01*
X110671320Y-198256040D01*
X111006600Y-198256040D01*
X111109137Y-198256228D01*
X111193518Y-198256985D01*
X111261906Y-198258600D01*
X111316463Y-198261362D01*
X111359351Y-198265557D01*
X111392732Y-198271476D01*
X111418769Y-198279407D01*
X111439623Y-198289637D01*
X111457458Y-198302457D01*
X111474435Y-198318153D01*
X111474792Y-198318510D01*
X111499092Y-198348497D01*
X111518208Y-198381783D01*
X111521689Y-198390468D01*
X111522895Y-198397080D01*
X111524032Y-198410102D01*
X111525102Y-198430091D01*
X111526107Y-198457603D01*
X111527050Y-198493194D01*
X111527933Y-198537419D01*
X111528758Y-198590836D01*
X111529527Y-198653999D01*
X111530243Y-198727466D01*
X111530907Y-198811791D01*
X111531522Y-198907532D01*
X111532090Y-199015244D01*
X111532613Y-199135483D01*
X111533093Y-199268805D01*
X111533533Y-199415767D01*
X111533935Y-199576924D01*
X111534301Y-199752832D01*
X111534633Y-199944048D01*
X111534933Y-200151128D01*
X111535204Y-200374627D01*
X111535448Y-200615102D01*
X111535667Y-200873109D01*
X111535863Y-201149203D01*
X111536038Y-201443941D01*
X111536195Y-201757879D01*
X111536335Y-202091573D01*
X111536337Y-202096520D01*
X111536494Y-202450134D01*
X111536683Y-202783781D01*
X111536906Y-203097813D01*
X111537165Y-203392583D01*
X111537460Y-203668442D01*
X111537792Y-203925744D01*
X111538163Y-204164842D01*
X111538574Y-204386086D01*
X111539026Y-204589831D01*
X111539521Y-204776429D01*
X111540059Y-204946231D01*
X111540642Y-205099592D01*
X111541271Y-205236862D01*
X111541947Y-205358395D01*
X111542671Y-205464543D01*
X111543445Y-205555659D01*
X111544270Y-205632094D01*
X111545147Y-205694203D01*
X111546077Y-205742337D01*
X111547061Y-205776848D01*
X111548101Y-205798089D01*
X111549007Y-205805894D01*
X111562554Y-205840964D01*
X111582595Y-205877591D01*
X111589113Y-205887174D01*
X111600925Y-205901509D01*
X111625224Y-205929427D01*
X111660763Y-205969540D01*
X111706291Y-206020459D01*
X111760558Y-206080795D01*
X111822314Y-206149160D01*
X111890310Y-206224164D01*
X111963296Y-206304419D01*
X112040022Y-206388537D01*
X112059123Y-206409440D01*
X112115609Y-206471271D01*
X112180894Y-206542800D01*
X112253816Y-206622751D01*
X112333218Y-206709851D01*
X112417938Y-206802823D01*
X112506818Y-206900395D01*
X112598698Y-207001291D01*
X112692418Y-207104236D01*
X112786819Y-207207956D01*
X112880741Y-207311177D01*
X112973025Y-207412624D01*
X113062511Y-207511021D01*
X113148040Y-207605096D01*
X113228452Y-207693573D01*
X113302588Y-207775177D01*
X113369287Y-207848634D01*
X113427390Y-207912669D01*
X113475739Y-207966008D01*
X113513173Y-208007377D01*
X113538532Y-208035500D01*
X113544914Y-208042619D01*
X113557957Y-208059330D01*
X113561112Y-208067965D01*
X113561033Y-208068019D01*
X113549932Y-208068545D01*
X113522105Y-208068304D01*
X113481129Y-208067370D01*
X113430579Y-208065816D01*
X113399280Y-208064697D01*
X113321709Y-208060637D01*
X113260096Y-208054286D01*
X113210119Y-208044609D01*
X113167454Y-208030571D01*
X113127778Y-208011138D01*
X113097415Y-207992420D01*
X113086260Y-207982110D01*
X113062291Y-207957678D01*
X113026356Y-207920042D01*
X112979306Y-207870119D01*
X112921991Y-207808828D01*
X112855261Y-207737085D01*
X112779964Y-207655808D01*
X112696953Y-207565915D01*
X112607075Y-207468323D01*
X112511182Y-207363950D01*
X112410122Y-207253714D01*
X112304746Y-207138531D01*
X112195904Y-207019321D01*
X112181749Y-207003800D01*
X112013025Y-206818792D01*
X111844425Y-206633961D01*
X111675230Y-206448522D01*
X111504721Y-206261688D01*
X111332181Y-206072673D01*
X111156890Y-205880690D01*
X110978129Y-205684954D01*
X110795181Y-205484678D01*
X110607326Y-205279077D01*
X110413847Y-205067363D01*
X110214024Y-204848752D01*
X110007139Y-204622456D01*
X109792474Y-204387689D01*
X109569309Y-204143666D01*
X109336927Y-203889600D01*
X109094609Y-203624705D01*
X108841636Y-203348195D01*
X108577289Y-203059283D01*
X108300851Y-202757184D01*
X108011602Y-202441111D01*
X107928345Y-202350137D01*
X107778491Y-202186390D01*
X107631976Y-202026282D01*
X107489413Y-201870483D01*
X107351415Y-201719662D01*
X107218594Y-201574490D01*
X107091562Y-201435635D01*
X106970932Y-201303768D01*
X106857316Y-201179558D01*
X106751326Y-201063675D01*
X106653576Y-200956787D01*
X106564676Y-200859566D01*
X106485241Y-200772680D01*
X106415881Y-200696799D01*
X106357211Y-200632592D01*
X106309841Y-200580730D01*
X106274385Y-200541882D01*
X106251454Y-200516718D01*
X106241831Y-200506097D01*
X106234394Y-200497016D01*
X106227490Y-200487564D01*
X106221098Y-200478441D01*
X106215199Y-200470347D01*
X106209770Y-200463985D01*
X106204790Y-200460056D01*
X106200239Y-200459260D01*
X106196096Y-200462298D01*
X106192340Y-200469873D01*
X106188949Y-200482684D01*
X106185903Y-200501433D01*
X106183181Y-200526822D01*
X106180762Y-200559551D01*
X106178625Y-200600321D01*
X106176748Y-200649834D01*
X106175111Y-200708791D01*
X106173694Y-200777892D01*
X106172474Y-200857840D01*
X106171431Y-200949334D01*
X106170544Y-201053077D01*
X106169791Y-201169770D01*
X106169153Y-201300112D01*
X106168608Y-201444807D01*
X106168135Y-201604554D01*
X106167713Y-201780055D01*
X106167321Y-201972011D01*
X106166938Y-202181123D01*
X106166543Y-202408093D01*
X106166115Y-202653621D01*
X106165634Y-202918409D01*
X106165360Y-203061720D01*
X106160280Y-205662680D01*
X106134880Y-205707852D01*
X106105589Y-205746798D01*
X106064561Y-205776032D01*
X106058985Y-205778972D01*
X106008490Y-205804920D01*
X105675136Y-205808091D01*
X105579821Y-205808851D01*
X105502499Y-205809082D01*
X105440848Y-205808709D01*
X105392548Y-205807657D01*
X105355275Y-205805852D01*
X105326709Y-205803217D01*
X105304527Y-205799677D01*
X105287812Y-205795572D01*
X105233845Y-205774806D01*
X105195149Y-205746846D01*
X105166996Y-205708103D01*
X105163348Y-205701056D01*
X105161664Y-205697253D01*
X105160080Y-205692416D01*
X105158593Y-205685924D01*
X105157197Y-205677153D01*
X105155890Y-205665482D01*
X105154667Y-205650289D01*
X105153524Y-205630953D01*
X105152458Y-205606850D01*
X105151463Y-205577359D01*
X105150537Y-205541857D01*
X105149674Y-205499724D01*
X105148872Y-205450336D01*
X105148125Y-205393072D01*
X105147431Y-205327310D01*
X105146784Y-205252427D01*
X105146181Y-205167801D01*
X105145618Y-205072812D01*
X105145091Y-204966835D01*
X105144595Y-204849251D01*
X105144127Y-204719435D01*
X105143683Y-204576767D01*
X105143258Y-204420624D01*
X105142849Y-204250385D01*
X105142451Y-204065427D01*
X105142061Y-203865128D01*
X105141675Y-203648866D01*
X105141287Y-203416020D01*
X105140896Y-203165966D01*
X105140495Y-202898084D01*
X105140082Y-202611751D01*
X105139652Y-202306344D01*
X105139202Y-201981243D01*
X105139200Y-201979680D01*
X105134120Y-198296680D01*
X105111277Y-198240257D01*
X105094050Y-198202524D01*
X105074694Y-198167056D01*
X105063885Y-198150559D01*
X105052384Y-198136756D01*
X105028519Y-198109537D01*
X104993683Y-198070444D01*
X104949265Y-198021019D01*
X104896656Y-197962803D01*
X104837248Y-197897338D01*
X104772431Y-197826166D01*
X104703597Y-197750828D01*
X104679382Y-197724382D01*
X104609819Y-197648397D01*
X104532995Y-197564384D01*
X104449964Y-197473500D01*
X104361780Y-197376904D01*
X104269495Y-197275753D01*
X104174165Y-197171207D01*
X104076843Y-197064424D01*
X103978582Y-196956562D01*
X103880437Y-196848778D01*
X103783462Y-196742232D01*
X103688709Y-196638082D01*
X103597233Y-196537486D01*
X103510088Y-196441602D01*
X103428327Y-196351588D01*
X103353005Y-196268603D01*
X103285174Y-196193806D01*
X103225890Y-196128354D01*
X103176205Y-196073405D01*
X103137173Y-196030118D01*
X103109849Y-195999652D01*
X103096236Y-195984264D01*
X103046871Y-195927369D01*
X103150695Y-195921846D01*
X103208823Y-195920046D01*
X103272816Y-195920079D01*
G37*
X103272816Y-195920079D02*
X103331462Y-195921888D01*
X103347692Y-195922862D01*
X103394046Y-195926812D01*
X103425297Y-195931772D01*
X103446660Y-195939119D01*
X103463350Y-195950233D01*
X103468545Y-195954800D01*
X103473321Y-195959476D01*
X103481457Y-195967873D01*
X103493394Y-195980475D01*
X103509574Y-195997764D01*
X103530438Y-196020223D01*
X103556427Y-196048335D01*
X103587984Y-196082582D01*
X103625549Y-196123448D01*
X103669564Y-196171415D01*
X103720471Y-196226966D01*
X103778710Y-196290584D01*
X103844724Y-196362752D01*
X103918954Y-196443953D01*
X104001841Y-196534669D01*
X104093827Y-196635384D01*
X104195353Y-196746580D01*
X104306861Y-196868740D01*
X104428792Y-197002347D01*
X104561588Y-197147884D01*
X104705690Y-197305833D01*
X104861540Y-197476678D01*
X105029579Y-197660901D01*
X105210248Y-197858986D01*
X105403989Y-198071414D01*
X105484342Y-198159520D01*
X105605031Y-198291817D01*
X105738586Y-198438147D01*
X105884143Y-198597566D01*
X106040836Y-198769128D01*
X106207802Y-198951887D01*
X106384175Y-199144898D01*
X106569091Y-199347216D01*
X106761685Y-199557894D01*
X106961093Y-199775989D01*
X107166450Y-200000555D01*
X107376891Y-200230645D01*
X107591551Y-200465315D01*
X107809567Y-200703619D01*
X108030073Y-200944612D01*
X108252205Y-201187349D01*
X108475098Y-201430884D01*
X108697887Y-201674272D01*
X108919708Y-201916567D01*
X109139697Y-202156824D01*
X109356987Y-202394098D01*
X109545065Y-202599440D01*
X109656409Y-202720920D01*
X109764188Y-202838365D01*
X109867584Y-202950893D01*
X109965780Y-203057617D01*
X110057957Y-203157655D01*
X110143299Y-203250121D01*
X110220986Y-203334133D01*
X110290202Y-203408806D01*
X110350128Y-203473256D01*
X110399946Y-203526599D01*
X110438839Y-203567951D01*
X110465988Y-203596428D01*
X110480576Y-203611145D01*
X110482718Y-203612986D01*
X110503680Y-203625772D01*
X110503680Y-201050626D01*
X110503713Y-200747721D01*
X110503814Y-200464845D01*
X110503985Y-200201704D01*
X110504225Y-199958007D01*
X110504537Y-199733462D01*
X110504921Y-199527776D01*
X110505380Y-199340657D01*
X110505913Y-199171814D01*
X110506523Y-199020954D01*
X110507210Y-198887786D01*
X110507976Y-198772016D01*
X110508822Y-198673353D01*
X110509749Y-198591506D01*
X110510758Y-198526181D01*
X110511851Y-198477087D01*
X110513029Y-198443932D01*
X110514293Y-198426423D01*
X110514602Y-198424551D01*
X110534678Y-198364440D01*
X110567102Y-198318872D01*
X110614187Y-198284720D01*
X110620534Y-198281440D01*
X110671320Y-198256040D01*
X111006600Y-198256040D01*
X111109137Y-198256228D01*
X111193518Y-198256985D01*
X111261906Y-198258600D01*
X111316463Y-198261362D01*
X111359351Y-198265557D01*
X111392732Y-198271476D01*
X111418769Y-198279407D01*
X111439623Y-198289637D01*
X111457458Y-198302457D01*
X111474435Y-198318153D01*
X111474792Y-198318510D01*
X111499092Y-198348497D01*
X111518208Y-198381783D01*
X111521689Y-198390468D01*
X111522895Y-198397080D01*
X111524032Y-198410102D01*
X111525102Y-198430091D01*
X111526107Y-198457603D01*
X111527050Y-198493194D01*
X111527933Y-198537419D01*
X111528758Y-198590836D01*
X111529527Y-198653999D01*
X111530243Y-198727466D01*
X111530907Y-198811791D01*
X111531522Y-198907532D01*
X111532090Y-199015244D01*
X111532613Y-199135483D01*
X111533093Y-199268805D01*
X111533533Y-199415767D01*
X111533935Y-199576924D01*
X111534301Y-199752832D01*
X111534633Y-199944048D01*
X111534933Y-200151128D01*
X111535204Y-200374627D01*
X111535448Y-200615102D01*
X111535667Y-200873109D01*
X111535863Y-201149203D01*
X111536038Y-201443941D01*
X111536195Y-201757879D01*
X111536335Y-202091573D01*
X111536337Y-202096520D01*
X111536494Y-202450134D01*
X111536683Y-202783781D01*
X111536906Y-203097813D01*
X111537165Y-203392583D01*
X111537460Y-203668442D01*
X111537792Y-203925744D01*
X111538163Y-204164842D01*
X111538574Y-204386086D01*
X111539026Y-204589831D01*
X111539521Y-204776429D01*
X111540059Y-204946231D01*
X111540642Y-205099592D01*
X111541271Y-205236862D01*
X111541947Y-205358395D01*
X111542671Y-205464543D01*
X111543445Y-205555659D01*
X111544270Y-205632094D01*
X111545147Y-205694203D01*
X111546077Y-205742337D01*
X111547061Y-205776848D01*
X111548101Y-205798089D01*
X111549007Y-205805894D01*
X111562554Y-205840964D01*
X111582595Y-205877591D01*
X111589113Y-205887174D01*
X111600925Y-205901509D01*
X111625224Y-205929427D01*
X111660763Y-205969540D01*
X111706291Y-206020459D01*
X111760558Y-206080795D01*
X111822314Y-206149160D01*
X111890310Y-206224164D01*
X111963296Y-206304419D01*
X112040022Y-206388537D01*
X112059123Y-206409440D01*
X112115609Y-206471271D01*
X112180894Y-206542800D01*
X112253816Y-206622751D01*
X112333218Y-206709851D01*
X112417938Y-206802823D01*
X112506818Y-206900395D01*
X112598698Y-207001291D01*
X112692418Y-207104236D01*
X112786819Y-207207956D01*
X112880741Y-207311177D01*
X112973025Y-207412624D01*
X113062511Y-207511021D01*
X113148040Y-207605096D01*
X113228452Y-207693573D01*
X113302588Y-207775177D01*
X113369287Y-207848634D01*
X113427390Y-207912669D01*
X113475739Y-207966008D01*
X113513173Y-208007377D01*
X113538532Y-208035500D01*
X113544914Y-208042619D01*
X113557957Y-208059330D01*
X113561112Y-208067965D01*
X113561033Y-208068019D01*
X113549932Y-208068545D01*
X113522105Y-208068304D01*
X113481129Y-208067370D01*
X113430579Y-208065816D01*
X113399280Y-208064697D01*
X113321709Y-208060637D01*
X113260096Y-208054286D01*
X113210119Y-208044609D01*
X113167454Y-208030571D01*
X113127778Y-208011138D01*
X113097415Y-207992420D01*
X113086260Y-207982110D01*
X113062291Y-207957678D01*
X113026356Y-207920042D01*
X112979306Y-207870119D01*
X112921991Y-207808828D01*
X112855261Y-207737085D01*
X112779964Y-207655808D01*
X112696953Y-207565915D01*
X112607075Y-207468323D01*
X112511182Y-207363950D01*
X112410122Y-207253714D01*
X112304746Y-207138531D01*
X112195904Y-207019321D01*
X112181749Y-207003800D01*
X112013025Y-206818792D01*
X111844425Y-206633961D01*
X111675230Y-206448522D01*
X111504721Y-206261688D01*
X111332181Y-206072673D01*
X111156890Y-205880690D01*
X110978129Y-205684954D01*
X110795181Y-205484678D01*
X110607326Y-205279077D01*
X110413847Y-205067363D01*
X110214024Y-204848752D01*
X110007139Y-204622456D01*
X109792474Y-204387689D01*
X109569309Y-204143666D01*
X109336927Y-203889600D01*
X109094609Y-203624705D01*
X108841636Y-203348195D01*
X108577289Y-203059283D01*
X108300851Y-202757184D01*
X108011602Y-202441111D01*
X107928345Y-202350137D01*
X107778491Y-202186390D01*
X107631976Y-202026282D01*
X107489413Y-201870483D01*
X107351415Y-201719662D01*
X107218594Y-201574490D01*
X107091562Y-201435635D01*
X106970932Y-201303768D01*
X106857316Y-201179558D01*
X106751326Y-201063675D01*
X106653576Y-200956787D01*
X106564676Y-200859566D01*
X106485241Y-200772680D01*
X106415881Y-200696799D01*
X106357211Y-200632592D01*
X106309841Y-200580730D01*
X106274385Y-200541882D01*
X106251454Y-200516718D01*
X106241831Y-200506097D01*
X106234394Y-200497016D01*
X106227490Y-200487564D01*
X106221098Y-200478441D01*
X106215199Y-200470347D01*
X106209770Y-200463985D01*
X106204790Y-200460056D01*
X106200239Y-200459260D01*
X106196096Y-200462298D01*
X106192340Y-200469873D01*
X106188949Y-200482684D01*
X106185903Y-200501433D01*
X106183181Y-200526822D01*
X106180762Y-200559551D01*
X106178625Y-200600321D01*
X106176748Y-200649834D01*
X106175111Y-200708791D01*
X106173694Y-200777892D01*
X106172474Y-200857840D01*
X106171431Y-200949334D01*
X106170544Y-201053077D01*
X106169791Y-201169770D01*
X106169153Y-201300112D01*
X106168608Y-201444807D01*
X106168135Y-201604554D01*
X106167713Y-201780055D01*
X106167321Y-201972011D01*
X106166938Y-202181123D01*
X106166543Y-202408093D01*
X106166115Y-202653621D01*
X106165634Y-202918409D01*
X106165360Y-203061720D01*
X106160280Y-205662680D01*
X106134880Y-205707852D01*
X106105589Y-205746798D01*
X106064561Y-205776032D01*
X106058985Y-205778972D01*
X106008490Y-205804920D01*
X105675136Y-205808091D01*
X105579821Y-205808851D01*
X105502499Y-205809082D01*
X105440848Y-205808709D01*
X105392548Y-205807657D01*
X105355275Y-205805852D01*
X105326709Y-205803217D01*
X105304527Y-205799677D01*
X105287812Y-205795572D01*
X105233845Y-205774806D01*
X105195149Y-205746846D01*
X105166996Y-205708103D01*
X105163348Y-205701056D01*
X105161664Y-205697253D01*
X105160080Y-205692416D01*
X105158593Y-205685924D01*
X105157197Y-205677153D01*
X105155890Y-205665482D01*
X105154667Y-205650289D01*
X105153524Y-205630953D01*
X105152458Y-205606850D01*
X105151463Y-205577359D01*
X105150537Y-205541857D01*
X105149674Y-205499724D01*
X105148872Y-205450336D01*
X105148125Y-205393072D01*
X105147431Y-205327310D01*
X105146784Y-205252427D01*
X105146181Y-205167801D01*
X105145618Y-205072812D01*
X105145091Y-204966835D01*
X105144595Y-204849251D01*
X105144127Y-204719435D01*
X105143683Y-204576767D01*
X105143258Y-204420624D01*
X105142849Y-204250385D01*
X105142451Y-204065427D01*
X105142061Y-203865128D01*
X105141675Y-203648866D01*
X105141287Y-203416020D01*
X105140896Y-203165966D01*
X105140495Y-202898084D01*
X105140082Y-202611751D01*
X105139652Y-202306344D01*
X105139202Y-201981243D01*
X105139200Y-201979680D01*
X105134120Y-198296680D01*
X105111277Y-198240257D01*
X105094050Y-198202524D01*
X105074694Y-198167056D01*
X105063885Y-198150559D01*
X105052384Y-198136756D01*
X105028519Y-198109537D01*
X104993683Y-198070444D01*
X104949265Y-198021019D01*
X104896656Y-197962803D01*
X104837248Y-197897338D01*
X104772431Y-197826166D01*
X104703597Y-197750828D01*
X104679382Y-197724382D01*
X104609819Y-197648397D01*
X104532995Y-197564384D01*
X104449964Y-197473500D01*
X104361780Y-197376904D01*
X104269495Y-197275753D01*
X104174165Y-197171207D01*
X104076843Y-197064424D01*
X103978582Y-196956562D01*
X103880437Y-196848778D01*
X103783462Y-196742232D01*
X103688709Y-196638082D01*
X103597233Y-196537486D01*
X103510088Y-196441602D01*
X103428327Y-196351588D01*
X103353005Y-196268603D01*
X103285174Y-196193806D01*
X103225890Y-196128354D01*
X103176205Y-196073405D01*
X103137173Y-196030118D01*
X103109849Y-195999652D01*
X103096236Y-195984264D01*
X103046871Y-195927369D01*
X103150695Y-195921846D01*
X103208823Y-195920046D01*
X103272816Y-195920079D01*
G36*
X96618345Y-198155793D02*
G01*
X96719312Y-198158619D01*
X96811119Y-198163550D01*
X96888985Y-198170587D01*
X96909600Y-198173203D01*
X97144790Y-198214056D01*
X97368105Y-198270293D01*
X97581186Y-198342669D01*
X97785674Y-198431941D01*
X97983209Y-198538865D01*
X98175433Y-198664197D01*
X98363987Y-198808695D01*
X98453079Y-198884563D01*
X98490743Y-198918126D01*
X98522170Y-198947005D01*
X98544543Y-198968544D01*
X98555047Y-198980088D01*
X98555489Y-198981083D01*
X98549014Y-198989904D01*
X98530560Y-199012314D01*
X98501561Y-199046636D01*
X98463452Y-199091195D01*
X98417667Y-199144316D01*
X98365642Y-199204322D01*
X98308811Y-199269540D01*
X98292636Y-199288045D01*
X98215564Y-199375634D01*
X98150788Y-199448078D01*
X98097747Y-199505972D01*
X98055882Y-199549907D01*
X98024633Y-199580479D01*
X98003441Y-199598278D01*
X97995487Y-199603005D01*
X97951988Y-199613633D01*
X97900023Y-199615236D01*
X97849239Y-199607997D01*
X97824000Y-199599765D01*
X97801673Y-199587206D01*
X97768653Y-199564882D01*
X97729743Y-199536173D01*
X97697000Y-199510391D01*
X97536283Y-199390961D01*
X97372959Y-199291558D01*
X97206681Y-199212018D01*
X97037107Y-199152175D01*
X96870134Y-199112966D01*
X96793869Y-199101984D01*
X96705455Y-199093615D01*
X96609877Y-199087971D01*
X96512118Y-199085159D01*
X96417163Y-199085291D01*
X96329997Y-199088475D01*
X96255605Y-199094822D01*
X96227091Y-199098826D01*
X96072603Y-199133237D01*
X95928074Y-199183571D01*
X95794555Y-199248936D01*
X95673096Y-199328442D01*
X95564747Y-199421199D01*
X95470560Y-199526317D01*
X95391583Y-199642904D01*
X95328869Y-199770070D01*
X95286242Y-199896368D01*
X95275583Y-199938772D01*
X95268267Y-199976415D01*
X95263706Y-200014988D01*
X95261313Y-200060180D01*
X95260500Y-200117682D01*
X95260487Y-200145800D01*
X95261212Y-200212889D01*
X95263444Y-200265014D01*
X95267691Y-200307506D01*
X95274462Y-200345698D01*
X95282777Y-200379480D01*
X95312144Y-200471363D01*
X95349130Y-200555543D01*
X95395229Y-200633517D01*
X95451935Y-200706778D01*
X95520745Y-200776823D01*
X95603152Y-200845145D01*
X95700652Y-200913241D01*
X95814740Y-200982605D01*
X95946909Y-201054732D01*
X95969800Y-201066611D01*
X96014168Y-201089304D01*
X96057068Y-201110770D01*
X96100424Y-201131860D01*
X96146161Y-201153427D01*
X96196206Y-201176325D01*
X96252482Y-201201405D01*
X96316915Y-201229522D01*
X96391431Y-201261527D01*
X96477954Y-201298274D01*
X96578409Y-201340616D01*
X96694722Y-201389405D01*
X96762280Y-201417676D01*
X96941385Y-201492903D01*
X97102846Y-201561463D01*
X97247970Y-201624018D01*
X97378067Y-201681232D01*
X97494442Y-201733768D01*
X97598405Y-201782289D01*
X97691262Y-201827457D01*
X97774322Y-201869936D01*
X97848892Y-201910389D01*
X97916281Y-201949477D01*
X97977795Y-201987866D01*
X98034743Y-202026217D01*
X98088433Y-202065193D01*
X98140172Y-202105457D01*
X98174520Y-202133588D01*
X98319408Y-202267268D01*
X98447781Y-202412753D01*
X98559494Y-202569814D01*
X98654404Y-202738222D01*
X98732368Y-202917747D01*
X98793243Y-203108162D01*
X98800044Y-203134293D01*
X98841182Y-203337273D01*
X98862656Y-203542739D01*
X98864526Y-203748938D01*
X98846854Y-203954112D01*
X98809702Y-204156505D01*
X98757877Y-204340227D01*
X98723346Y-204433836D01*
X98679928Y-204535308D01*
X98630732Y-204638245D01*
X98578866Y-204736248D01*
X98527439Y-204822921D01*
X98511378Y-204847523D01*
X98382141Y-205022286D01*
X98239114Y-205182258D01*
X98082674Y-205327213D01*
X97913198Y-205456926D01*
X97731063Y-205571173D01*
X97536646Y-205669729D01*
X97330323Y-205752369D01*
X97112471Y-205818869D01*
X96883468Y-205869003D01*
X96767360Y-205887519D01*
X96715672Y-205893097D01*
X96648091Y-205897876D01*
X96569032Y-205901768D01*
X96482911Y-205904683D01*
X96394140Y-205906531D01*
X96307136Y-205907223D01*
X96226314Y-205906669D01*
X96156087Y-205904781D01*
X96100871Y-205901468D01*
X96096800Y-205901098D01*
X95847008Y-205867925D01*
X95600367Y-205816125D01*
X95358619Y-205746386D01*
X95123506Y-205659398D01*
X94896772Y-205555850D01*
X94680160Y-205436430D01*
X94475413Y-205301827D01*
X94359440Y-205214425D01*
X94311433Y-205174381D01*
X94258177Y-205126567D01*
X94201474Y-205072925D01*
X94143122Y-205015397D01*
X94084922Y-204955927D01*
X94028675Y-204896457D01*
X93976180Y-204838928D01*
X93929238Y-204785283D01*
X93889650Y-204737464D01*
X93859216Y-204697414D01*
X93839735Y-204667075D01*
X93833008Y-204648389D01*
X93833217Y-204646684D01*
X93841844Y-204636246D01*
X93864205Y-204614768D01*
X93898230Y-204583986D01*
X93941848Y-204545634D01*
X93992991Y-204501447D01*
X94049589Y-204453159D01*
X94109571Y-204402505D01*
X94170869Y-204351219D01*
X94231412Y-204301035D01*
X94289131Y-204253689D01*
X94341955Y-204210914D01*
X94387816Y-204174445D01*
X94424643Y-204146016D01*
X94450366Y-204127363D01*
X94460144Y-204121306D01*
X94493763Y-204107913D01*
X94527525Y-204104143D01*
X94568095Y-204109900D01*
X94603180Y-204119271D01*
X94622306Y-204125777D01*
X94640512Y-204134515D01*
X94660199Y-204147473D01*
X94683767Y-204166642D01*
X94713619Y-204194014D01*
X94752155Y-204231577D01*
X94801777Y-204281322D01*
X94815844Y-204295538D01*
X94867926Y-204347365D01*
X94921030Y-204398685D01*
X94971547Y-204446118D01*
X95015866Y-204486286D01*
X95050380Y-204515808D01*
X95055400Y-204519831D01*
X95217748Y-204637394D01*
X95385425Y-204737399D01*
X95560646Y-204820824D01*
X95745629Y-204888645D01*
X95942591Y-204941839D01*
X96073095Y-204968151D01*
X96148235Y-204978738D01*
X96235365Y-204986467D01*
X96329740Y-204991300D01*
X96426611Y-204993200D01*
X96521233Y-204992126D01*
X96608859Y-204988042D01*
X96684741Y-204980908D01*
X96731431Y-204973466D01*
X96901957Y-204929989D01*
X97060364Y-204871001D01*
X97206116Y-204796886D01*
X97338676Y-204708028D01*
X97457508Y-204604813D01*
X97562077Y-204487625D01*
X97651844Y-204356847D01*
X97691841Y-204284873D01*
X97751677Y-204154102D01*
X97794172Y-204025834D01*
X97820391Y-203895253D01*
X97831397Y-203757544D01*
X97830686Y-203656080D01*
X97820675Y-203526891D01*
X97800155Y-203411571D01*
X97767851Y-203305887D01*
X97722484Y-203205607D01*
X97666724Y-203112389D01*
X97628047Y-203058968D01*
X97584353Y-203008313D01*
X97533990Y-202959276D01*
X97475304Y-202910710D01*
X97406645Y-202861470D01*
X97326358Y-202810408D01*
X97232792Y-202756377D01*
X97124294Y-202698231D01*
X96999212Y-202634823D01*
X96928573Y-202600123D01*
X96863878Y-202568834D01*
X96802657Y-202539742D01*
X96742577Y-202511838D01*
X96681303Y-202484115D01*
X96616498Y-202455562D01*
X96545829Y-202425171D01*
X96466961Y-202391933D01*
X96377558Y-202354839D01*
X96275286Y-202312881D01*
X96157810Y-202265048D01*
X96081560Y-202234124D01*
X95918120Y-202167346D01*
X95767965Y-202104840D01*
X95632179Y-202047074D01*
X95511848Y-201994520D01*
X95408057Y-201947646D01*
X95321890Y-201906924D01*
X95292548Y-201892436D01*
X95108149Y-201790367D01*
X94941098Y-201677736D01*
X94791341Y-201554468D01*
X94658821Y-201420490D01*
X94543482Y-201275726D01*
X94445269Y-201120102D01*
X94364127Y-200953544D01*
X94299999Y-200775977D01*
X94252830Y-200587326D01*
X94233684Y-200476000D01*
X94213612Y-200276203D01*
X94211669Y-200079149D01*
X94227800Y-199887339D01*
X94249364Y-199759720D01*
X94296542Y-199580494D01*
X94362899Y-199407021D01*
X94447890Y-199240166D01*
X94550973Y-199080794D01*
X94671602Y-198929771D01*
X94809233Y-198787963D01*
X94923320Y-198688146D01*
X95094735Y-198560171D01*
X95273781Y-198450157D01*
X95461443Y-198357691D01*
X95658704Y-198282356D01*
X95866549Y-198223737D01*
X96085962Y-198181419D01*
X96143484Y-198173239D01*
X96218519Y-198165541D01*
X96308305Y-198159946D01*
X96408059Y-198156457D01*
X96513000Y-198155072D01*
X96618345Y-198155793D01*
G37*
X96618345Y-198155793D02*
X96719312Y-198158619D01*
X96811119Y-198163550D01*
X96888985Y-198170587D01*
X96909600Y-198173203D01*
X97144790Y-198214056D01*
X97368105Y-198270293D01*
X97581186Y-198342669D01*
X97785674Y-198431941D01*
X97983209Y-198538865D01*
X98175433Y-198664197D01*
X98363987Y-198808695D01*
X98453079Y-198884563D01*
X98490743Y-198918126D01*
X98522170Y-198947005D01*
X98544543Y-198968544D01*
X98555047Y-198980088D01*
X98555489Y-198981083D01*
X98549014Y-198989904D01*
X98530560Y-199012314D01*
X98501561Y-199046636D01*
X98463452Y-199091195D01*
X98417667Y-199144316D01*
X98365642Y-199204322D01*
X98308811Y-199269540D01*
X98292636Y-199288045D01*
X98215564Y-199375634D01*
X98150788Y-199448078D01*
X98097747Y-199505972D01*
X98055882Y-199549907D01*
X98024633Y-199580479D01*
X98003441Y-199598278D01*
X97995487Y-199603005D01*
X97951988Y-199613633D01*
X97900023Y-199615236D01*
X97849239Y-199607997D01*
X97824000Y-199599765D01*
X97801673Y-199587206D01*
X97768653Y-199564882D01*
X97729743Y-199536173D01*
X97697000Y-199510391D01*
X97536283Y-199390961D01*
X97372959Y-199291558D01*
X97206681Y-199212018D01*
X97037107Y-199152175D01*
X96870134Y-199112966D01*
X96793869Y-199101984D01*
X96705455Y-199093615D01*
X96609877Y-199087971D01*
X96512118Y-199085159D01*
X96417163Y-199085291D01*
X96329997Y-199088475D01*
X96255605Y-199094822D01*
X96227091Y-199098826D01*
X96072603Y-199133237D01*
X95928074Y-199183571D01*
X95794555Y-199248936D01*
X95673096Y-199328442D01*
X95564747Y-199421199D01*
X95470560Y-199526317D01*
X95391583Y-199642904D01*
X95328869Y-199770070D01*
X95286242Y-199896368D01*
X95275583Y-199938772D01*
X95268267Y-199976415D01*
X95263706Y-200014988D01*
X95261313Y-200060180D01*
X95260500Y-200117682D01*
X95260487Y-200145800D01*
X95261212Y-200212889D01*
X95263444Y-200265014D01*
X95267691Y-200307506D01*
X95274462Y-200345698D01*
X95282777Y-200379480D01*
X95312144Y-200471363D01*
X95349130Y-200555543D01*
X95395229Y-200633517D01*
X95451935Y-200706778D01*
X95520745Y-200776823D01*
X95603152Y-200845145D01*
X95700652Y-200913241D01*
X95814740Y-200982605D01*
X95946909Y-201054732D01*
X95969800Y-201066611D01*
X96014168Y-201089304D01*
X96057068Y-201110770D01*
X96100424Y-201131860D01*
X96146161Y-201153427D01*
X96196206Y-201176325D01*
X96252482Y-201201405D01*
X96316915Y-201229522D01*
X96391431Y-201261527D01*
X96477954Y-201298274D01*
X96578409Y-201340616D01*
X96694722Y-201389405D01*
X96762280Y-201417676D01*
X96941385Y-201492903D01*
X97102846Y-201561463D01*
X97247970Y-201624018D01*
X97378067Y-201681232D01*
X97494442Y-201733768D01*
X97598405Y-201782289D01*
X97691262Y-201827457D01*
X97774322Y-201869936D01*
X97848892Y-201910389D01*
X97916281Y-201949477D01*
X97977795Y-201987866D01*
X98034743Y-202026217D01*
X98088433Y-202065193D01*
X98140172Y-202105457D01*
X98174520Y-202133588D01*
X98319408Y-202267268D01*
X98447781Y-202412753D01*
X98559494Y-202569814D01*
X98654404Y-202738222D01*
X98732368Y-202917747D01*
X98793243Y-203108162D01*
X98800044Y-203134293D01*
X98841182Y-203337273D01*
X98862656Y-203542739D01*
X98864526Y-203748938D01*
X98846854Y-203954112D01*
X98809702Y-204156505D01*
X98757877Y-204340227D01*
X98723346Y-204433836D01*
X98679928Y-204535308D01*
X98630732Y-204638245D01*
X98578866Y-204736248D01*
X98527439Y-204822921D01*
X98511378Y-204847523D01*
X98382141Y-205022286D01*
X98239114Y-205182258D01*
X98082674Y-205327213D01*
X97913198Y-205456926D01*
X97731063Y-205571173D01*
X97536646Y-205669729D01*
X97330323Y-205752369D01*
X97112471Y-205818869D01*
X96883468Y-205869003D01*
X96767360Y-205887519D01*
X96715672Y-205893097D01*
X96648091Y-205897876D01*
X96569032Y-205901768D01*
X96482911Y-205904683D01*
X96394140Y-205906531D01*
X96307136Y-205907223D01*
X96226314Y-205906669D01*
X96156087Y-205904781D01*
X96100871Y-205901468D01*
X96096800Y-205901098D01*
X95847008Y-205867925D01*
X95600367Y-205816125D01*
X95358619Y-205746386D01*
X95123506Y-205659398D01*
X94896772Y-205555850D01*
X94680160Y-205436430D01*
X94475413Y-205301827D01*
X94359440Y-205214425D01*
X94311433Y-205174381D01*
X94258177Y-205126567D01*
X94201474Y-205072925D01*
X94143122Y-205015397D01*
X94084922Y-204955927D01*
X94028675Y-204896457D01*
X93976180Y-204838928D01*
X93929238Y-204785283D01*
X93889650Y-204737464D01*
X93859216Y-204697414D01*
X93839735Y-204667075D01*
X93833008Y-204648389D01*
X93833217Y-204646684D01*
X93841844Y-204636246D01*
X93864205Y-204614768D01*
X93898230Y-204583986D01*
X93941848Y-204545634D01*
X93992991Y-204501447D01*
X94049589Y-204453159D01*
X94109571Y-204402505D01*
X94170869Y-204351219D01*
X94231412Y-204301035D01*
X94289131Y-204253689D01*
X94341955Y-204210914D01*
X94387816Y-204174445D01*
X94424643Y-204146016D01*
X94450366Y-204127363D01*
X94460144Y-204121306D01*
X94493763Y-204107913D01*
X94527525Y-204104143D01*
X94568095Y-204109900D01*
X94603180Y-204119271D01*
X94622306Y-204125777D01*
X94640512Y-204134515D01*
X94660199Y-204147473D01*
X94683767Y-204166642D01*
X94713619Y-204194014D01*
X94752155Y-204231577D01*
X94801777Y-204281322D01*
X94815844Y-204295538D01*
X94867926Y-204347365D01*
X94921030Y-204398685D01*
X94971547Y-204446118D01*
X95015866Y-204486286D01*
X95050380Y-204515808D01*
X95055400Y-204519831D01*
X95217748Y-204637394D01*
X95385425Y-204737399D01*
X95560646Y-204820824D01*
X95745629Y-204888645D01*
X95942591Y-204941839D01*
X96073095Y-204968151D01*
X96148235Y-204978738D01*
X96235365Y-204986467D01*
X96329740Y-204991300D01*
X96426611Y-204993200D01*
X96521233Y-204992126D01*
X96608859Y-204988042D01*
X96684741Y-204980908D01*
X96731431Y-204973466D01*
X96901957Y-204929989D01*
X97060364Y-204871001D01*
X97206116Y-204796886D01*
X97338676Y-204708028D01*
X97457508Y-204604813D01*
X97562077Y-204487625D01*
X97651844Y-204356847D01*
X97691841Y-204284873D01*
X97751677Y-204154102D01*
X97794172Y-204025834D01*
X97820391Y-203895253D01*
X97831397Y-203757544D01*
X97830686Y-203656080D01*
X97820675Y-203526891D01*
X97800155Y-203411571D01*
X97767851Y-203305887D01*
X97722484Y-203205607D01*
X97666724Y-203112389D01*
X97628047Y-203058968D01*
X97584353Y-203008313D01*
X97533990Y-202959276D01*
X97475304Y-202910710D01*
X97406645Y-202861470D01*
X97326358Y-202810408D01*
X97232792Y-202756377D01*
X97124294Y-202698231D01*
X96999212Y-202634823D01*
X96928573Y-202600123D01*
X96863878Y-202568834D01*
X96802657Y-202539742D01*
X96742577Y-202511838D01*
X96681303Y-202484115D01*
X96616498Y-202455562D01*
X96545829Y-202425171D01*
X96466961Y-202391933D01*
X96377558Y-202354839D01*
X96275286Y-202312881D01*
X96157810Y-202265048D01*
X96081560Y-202234124D01*
X95918120Y-202167346D01*
X95767965Y-202104840D01*
X95632179Y-202047074D01*
X95511848Y-201994520D01*
X95408057Y-201947646D01*
X95321890Y-201906924D01*
X95292548Y-201892436D01*
X95108149Y-201790367D01*
X94941098Y-201677736D01*
X94791341Y-201554468D01*
X94658821Y-201420490D01*
X94543482Y-201275726D01*
X94445269Y-201120102D01*
X94364127Y-200953544D01*
X94299999Y-200775977D01*
X94252830Y-200587326D01*
X94233684Y-200476000D01*
X94213612Y-200276203D01*
X94211669Y-200079149D01*
X94227800Y-199887339D01*
X94249364Y-199759720D01*
X94296542Y-199580494D01*
X94362899Y-199407021D01*
X94447890Y-199240166D01*
X94550973Y-199080794D01*
X94671602Y-198929771D01*
X94809233Y-198787963D01*
X94923320Y-198688146D01*
X95094735Y-198560171D01*
X95273781Y-198450157D01*
X95461443Y-198357691D01*
X95658704Y-198282356D01*
X95866549Y-198223737D01*
X96085962Y-198181419D01*
X96143484Y-198173239D01*
X96218519Y-198165541D01*
X96308305Y-198159946D01*
X96408059Y-198156457D01*
X96513000Y-198155072D01*
X96618345Y-198155793D01*
G36*
X114956772Y-198155687D02*
G01*
X115150981Y-198167244D01*
X115304280Y-198184704D01*
X115516008Y-198223497D01*
X115722538Y-198279918D01*
X115924876Y-198354430D01*
X116124029Y-198447492D01*
X116321005Y-198559566D01*
X116516811Y-198691114D01*
X116675880Y-198812769D01*
X116722579Y-198850866D01*
X116765868Y-198887011D01*
X116802283Y-198918249D01*
X116828360Y-198941626D01*
X116837735Y-198950791D01*
X116867510Y-198982343D01*
X116847021Y-199005271D01*
X116835742Y-199018086D01*
X116812783Y-199044329D01*
X116779800Y-199082099D01*
X116738451Y-199129497D01*
X116690396Y-199184622D01*
X116637290Y-199245574D01*
X116585395Y-199305166D01*
X116528968Y-199369503D01*
X116475722Y-199429312D01*
X116427353Y-199482756D01*
X116385558Y-199527995D01*
X116352033Y-199563193D01*
X116328476Y-199586511D01*
X116317029Y-199595908D01*
X116263672Y-199615469D01*
X116210251Y-199619114D01*
X116154648Y-199606293D01*
X116094744Y-199576455D01*
X116028419Y-199529050D01*
X116013843Y-199517116D01*
X115858026Y-199398766D01*
X115697173Y-199299823D01*
X115530044Y-199219732D01*
X115355400Y-199157939D01*
X115172000Y-199113890D01*
X115078737Y-199098638D01*
X115027232Y-199092330D01*
X114975731Y-199088146D01*
X114919537Y-199085928D01*
X114853951Y-199085519D01*
X114774275Y-199086761D01*
X114745480Y-199087470D01*
X114636049Y-199091779D01*
X114542623Y-199099095D01*
X114460992Y-199110355D01*
X114386945Y-199126496D01*
X114316273Y-199148457D01*
X114244767Y-199177175D01*
X114168215Y-199213587D01*
X114159581Y-199217962D01*
X114028289Y-199295675D01*
X113911430Y-199387461D01*
X113809594Y-199492597D01*
X113723371Y-199610362D01*
X113653352Y-199740031D01*
X113600126Y-199880882D01*
X113590149Y-199915417D01*
X113581116Y-199953034D01*
X113574841Y-199991729D01*
X113570851Y-200036518D01*
X113568672Y-200092420D01*
X113567898Y-200150880D01*
X113568549Y-200231435D01*
X113572371Y-200297193D01*
X113580499Y-200353572D01*
X113594064Y-200405992D01*
X113614199Y-200459872D01*
X113642038Y-200520631D01*
X113647542Y-200531880D01*
X113692476Y-200612274D01*
X113745967Y-200687012D01*
X113809759Y-200757579D01*
X113885597Y-200825461D01*
X113975227Y-200892144D01*
X114080392Y-200959112D01*
X114202837Y-201027852D01*
X114272788Y-201064217D01*
X114323602Y-201089827D01*
X114372808Y-201114104D01*
X114422425Y-201137940D01*
X114474473Y-201162227D01*
X114530973Y-201187858D01*
X114593943Y-201215727D01*
X114665404Y-201246725D01*
X114747375Y-201281747D01*
X114841877Y-201321684D01*
X114950929Y-201367430D01*
X115076551Y-201419877D01*
X115091222Y-201425991D01*
X115277677Y-201504121D01*
X115446386Y-201575844D01*
X115598632Y-201641870D01*
X115735702Y-201702911D01*
X115858881Y-201759677D01*
X115969454Y-201812879D01*
X116068706Y-201863228D01*
X116157924Y-201911435D01*
X116238391Y-201958210D01*
X116311394Y-202004265D01*
X116378217Y-202050311D01*
X116440147Y-202097058D01*
X116498468Y-202145218D01*
X116554465Y-202195501D01*
X116609425Y-202248618D01*
X116646199Y-202286034D01*
X116772328Y-202430979D01*
X116881226Y-202586601D01*
X116972805Y-202752662D01*
X117046976Y-202928927D01*
X117103648Y-203115158D01*
X117142731Y-203311118D01*
X117164138Y-203516571D01*
X117168556Y-203668379D01*
X117163055Y-203837156D01*
X117146011Y-203995514D01*
X117116309Y-204150474D01*
X117072831Y-204309056D01*
X117060707Y-204346960D01*
X116986865Y-204540221D01*
X116895563Y-204723711D01*
X116787513Y-204896746D01*
X116663431Y-205058640D01*
X116524032Y-205208709D01*
X116370028Y-205346266D01*
X116202135Y-205470627D01*
X116021068Y-205581108D01*
X115827540Y-205677022D01*
X115622267Y-205757685D01*
X115572061Y-205774463D01*
X115438890Y-205814794D01*
X115313332Y-205846653D01*
X115190275Y-205870836D01*
X115064606Y-205888139D01*
X114931215Y-205899357D01*
X114784990Y-205905287D01*
X114725160Y-205906317D01*
X114652551Y-205906991D01*
X114584249Y-205907284D01*
X114523665Y-205907208D01*
X114474210Y-205906775D01*
X114439299Y-205905997D01*
X114425440Y-205905263D01*
X114174450Y-205873382D01*
X113927870Y-205822916D01*
X113687013Y-205754464D01*
X113453189Y-205668623D01*
X113227710Y-205565991D01*
X113011889Y-205447166D01*
X112807036Y-205312746D01*
X112614465Y-205163328D01*
X112435486Y-204999510D01*
X112433407Y-204997441D01*
X112384197Y-204947056D01*
X112334760Y-204894028D01*
X112287033Y-204840687D01*
X112242954Y-204789361D01*
X112204461Y-204742380D01*
X112173490Y-204702074D01*
X112151980Y-204670771D01*
X112141868Y-204650802D01*
X112141461Y-204646458D01*
X112149954Y-204636488D01*
X112172715Y-204614902D01*
X112208285Y-204582950D01*
X112255205Y-204541885D01*
X112312016Y-204492958D01*
X112377260Y-204437420D01*
X112449477Y-204376523D01*
X112527209Y-204311518D01*
X112608997Y-204243657D01*
X112660902Y-204200862D01*
X112714524Y-204158249D01*
X112757531Y-204128629D01*
X112793788Y-204110742D01*
X112827165Y-204103328D01*
X112861529Y-204105127D01*
X112900748Y-204114881D01*
X112912917Y-204118797D01*
X112932542Y-204126310D01*
X112951795Y-204136500D01*
X112973085Y-204151385D01*
X112998822Y-204172982D01*
X113031417Y-204203310D01*
X113073280Y-204244387D01*
X113124872Y-204296258D01*
X113176871Y-204347996D01*
X113229915Y-204399242D01*
X113280377Y-204446604D01*
X113324633Y-204486687D01*
X113359056Y-204516097D01*
X113363720Y-204519831D01*
X113528852Y-204639008D01*
X113700539Y-204740536D01*
X113880500Y-204825159D01*
X114070454Y-204893622D01*
X114272121Y-204946671D01*
X114410200Y-204973223D01*
X114477094Y-204981815D01*
X114556870Y-204987954D01*
X114644791Y-204991637D01*
X114736120Y-204992865D01*
X114826122Y-204991635D01*
X114910060Y-204987946D01*
X114983198Y-204981797D01*
X115039751Y-204973398D01*
X115206455Y-204930931D01*
X115362811Y-204872957D01*
X115507680Y-204800189D01*
X115639926Y-204713339D01*
X115758411Y-204613120D01*
X115861999Y-204500244D01*
X115919695Y-204422069D01*
X116003489Y-204281299D01*
X116067433Y-204136542D01*
X116111717Y-203987195D01*
X116136526Y-203832658D01*
X116142480Y-203706880D01*
X116133624Y-203554258D01*
X116107031Y-203411544D01*
X116062655Y-203278656D01*
X116000455Y-203155512D01*
X115920388Y-203042033D01*
X115822409Y-202938136D01*
X115706478Y-202843741D01*
X115672806Y-202820352D01*
X115608649Y-202780573D01*
X115525442Y-202734653D01*
X115423465Y-202682719D01*
X115302996Y-202624899D01*
X115164316Y-202561322D01*
X115007702Y-202492115D01*
X114833435Y-202417406D01*
X114641794Y-202337323D01*
X114433057Y-202251994D01*
X114430520Y-202250967D01*
X114266979Y-202184453D01*
X114120965Y-202124279D01*
X113990960Y-202069704D01*
X113875444Y-202019989D01*
X113772898Y-201974393D01*
X113681802Y-201932176D01*
X113600637Y-201892598D01*
X113527884Y-201854919D01*
X113462024Y-201818399D01*
X113401538Y-201782296D01*
X113344906Y-201745873D01*
X113290609Y-201708387D01*
X113238858Y-201670403D01*
X113172165Y-201616038D01*
X113099765Y-201549990D01*
X113026322Y-201477046D01*
X112956503Y-201401992D01*
X112894971Y-201329615D01*
X112853688Y-201275220D01*
X112761734Y-201128174D01*
X112683786Y-200968487D01*
X112620352Y-200798701D01*
X112571937Y-200621362D01*
X112539049Y-200439014D01*
X112522193Y-200254203D01*
X112521876Y-200069471D01*
X112538604Y-199887365D01*
X112556596Y-199782567D01*
X112604038Y-199599049D01*
X112669935Y-199422561D01*
X112753387Y-199253958D01*
X112853492Y-199094093D01*
X112969348Y-198943817D01*
X113100053Y-198803985D01*
X113244706Y-198675450D01*
X113402405Y-198559064D01*
X113572248Y-198455681D01*
X113753333Y-198366153D01*
X113944759Y-198291334D01*
X114145624Y-198232076D01*
X114212080Y-198216466D01*
X114383891Y-198185497D01*
X114568457Y-198164952D01*
X114761008Y-198154969D01*
X114956772Y-198155687D01*
G37*
X114956772Y-198155687D02*
X115150981Y-198167244D01*
X115304280Y-198184704D01*
X115516008Y-198223497D01*
X115722538Y-198279918D01*
X115924876Y-198354430D01*
X116124029Y-198447492D01*
X116321005Y-198559566D01*
X116516811Y-198691114D01*
X116675880Y-198812769D01*
X116722579Y-198850866D01*
X116765868Y-198887011D01*
X116802283Y-198918249D01*
X116828360Y-198941626D01*
X116837735Y-198950791D01*
X116867510Y-198982343D01*
X116847021Y-199005271D01*
X116835742Y-199018086D01*
X116812783Y-199044329D01*
X116779800Y-199082099D01*
X116738451Y-199129497D01*
X116690396Y-199184622D01*
X116637290Y-199245574D01*
X116585395Y-199305166D01*
X116528968Y-199369503D01*
X116475722Y-199429312D01*
X116427353Y-199482756D01*
X116385558Y-199527995D01*
X116352033Y-199563193D01*
X116328476Y-199586511D01*
X116317029Y-199595908D01*
X116263672Y-199615469D01*
X116210251Y-199619114D01*
X116154648Y-199606293D01*
X116094744Y-199576455D01*
X116028419Y-199529050D01*
X116013843Y-199517116D01*
X115858026Y-199398766D01*
X115697173Y-199299823D01*
X115530044Y-199219732D01*
X115355400Y-199157939D01*
X115172000Y-199113890D01*
X115078737Y-199098638D01*
X115027232Y-199092330D01*
X114975731Y-199088146D01*
X114919537Y-199085928D01*
X114853951Y-199085519D01*
X114774275Y-199086761D01*
X114745480Y-199087470D01*
X114636049Y-199091779D01*
X114542623Y-199099095D01*
X114460992Y-199110355D01*
X114386945Y-199126496D01*
X114316273Y-199148457D01*
X114244767Y-199177175D01*
X114168215Y-199213587D01*
X114159581Y-199217962D01*
X114028289Y-199295675D01*
X113911430Y-199387461D01*
X113809594Y-199492597D01*
X113723371Y-199610362D01*
X113653352Y-199740031D01*
X113600126Y-199880882D01*
X113590149Y-199915417D01*
X113581116Y-199953034D01*
X113574841Y-199991729D01*
X113570851Y-200036518D01*
X113568672Y-200092420D01*
X113567898Y-200150880D01*
X113568549Y-200231435D01*
X113572371Y-200297193D01*
X113580499Y-200353572D01*
X113594064Y-200405992D01*
X113614199Y-200459872D01*
X113642038Y-200520631D01*
X113647542Y-200531880D01*
X113692476Y-200612274D01*
X113745967Y-200687012D01*
X113809759Y-200757579D01*
X113885597Y-200825461D01*
X113975227Y-200892144D01*
X114080392Y-200959112D01*
X114202837Y-201027852D01*
X114272788Y-201064217D01*
X114323602Y-201089827D01*
X114372808Y-201114104D01*
X114422425Y-201137940D01*
X114474473Y-201162227D01*
X114530973Y-201187858D01*
X114593943Y-201215727D01*
X114665404Y-201246725D01*
X114747375Y-201281747D01*
X114841877Y-201321684D01*
X114950929Y-201367430D01*
X115076551Y-201419877D01*
X115091222Y-201425991D01*
X115277677Y-201504121D01*
X115446386Y-201575844D01*
X115598632Y-201641870D01*
X115735702Y-201702911D01*
X115858881Y-201759677D01*
X115969454Y-201812879D01*
X116068706Y-201863228D01*
X116157924Y-201911435D01*
X116238391Y-201958210D01*
X116311394Y-202004265D01*
X116378217Y-202050311D01*
X116440147Y-202097058D01*
X116498468Y-202145218D01*
X116554465Y-202195501D01*
X116609425Y-202248618D01*
X116646199Y-202286034D01*
X116772328Y-202430979D01*
X116881226Y-202586601D01*
X116972805Y-202752662D01*
X117046976Y-202928927D01*
X117103648Y-203115158D01*
X117142731Y-203311118D01*
X117164138Y-203516571D01*
X117168556Y-203668379D01*
X117163055Y-203837156D01*
X117146011Y-203995514D01*
X117116309Y-204150474D01*
X117072831Y-204309056D01*
X117060707Y-204346960D01*
X116986865Y-204540221D01*
X116895563Y-204723711D01*
X116787513Y-204896746D01*
X116663431Y-205058640D01*
X116524032Y-205208709D01*
X116370028Y-205346266D01*
X116202135Y-205470627D01*
X116021068Y-205581108D01*
X115827540Y-205677022D01*
X115622267Y-205757685D01*
X115572061Y-205774463D01*
X115438890Y-205814794D01*
X115313332Y-205846653D01*
X115190275Y-205870836D01*
X115064606Y-205888139D01*
X114931215Y-205899357D01*
X114784990Y-205905287D01*
X114725160Y-205906317D01*
X114652551Y-205906991D01*
X114584249Y-205907284D01*
X114523665Y-205907208D01*
X114474210Y-205906775D01*
X114439299Y-205905997D01*
X114425440Y-205905263D01*
X114174450Y-205873382D01*
X113927870Y-205822916D01*
X113687013Y-205754464D01*
X113453189Y-205668623D01*
X113227710Y-205565991D01*
X113011889Y-205447166D01*
X112807036Y-205312746D01*
X112614465Y-205163328D01*
X112435486Y-204999510D01*
X112433407Y-204997441D01*
X112384197Y-204947056D01*
X112334760Y-204894028D01*
X112287033Y-204840687D01*
X112242954Y-204789361D01*
X112204461Y-204742380D01*
X112173490Y-204702074D01*
X112151980Y-204670771D01*
X112141868Y-204650802D01*
X112141461Y-204646458D01*
X112149954Y-204636488D01*
X112172715Y-204614902D01*
X112208285Y-204582950D01*
X112255205Y-204541885D01*
X112312016Y-204492958D01*
X112377260Y-204437420D01*
X112449477Y-204376523D01*
X112527209Y-204311518D01*
X112608997Y-204243657D01*
X112660902Y-204200862D01*
X112714524Y-204158249D01*
X112757531Y-204128629D01*
X112793788Y-204110742D01*
X112827165Y-204103328D01*
X112861529Y-204105127D01*
X112900748Y-204114881D01*
X112912917Y-204118797D01*
X112932542Y-204126310D01*
X112951795Y-204136500D01*
X112973085Y-204151385D01*
X112998822Y-204172982D01*
X113031417Y-204203310D01*
X113073280Y-204244387D01*
X113124872Y-204296258D01*
X113176871Y-204347996D01*
X113229915Y-204399242D01*
X113280377Y-204446604D01*
X113324633Y-204486687D01*
X113359056Y-204516097D01*
X113363720Y-204519831D01*
X113528852Y-204639008D01*
X113700539Y-204740536D01*
X113880500Y-204825159D01*
X114070454Y-204893622D01*
X114272121Y-204946671D01*
X114410200Y-204973223D01*
X114477094Y-204981815D01*
X114556870Y-204987954D01*
X114644791Y-204991637D01*
X114736120Y-204992865D01*
X114826122Y-204991635D01*
X114910060Y-204987946D01*
X114983198Y-204981797D01*
X115039751Y-204973398D01*
X115206455Y-204930931D01*
X115362811Y-204872957D01*
X115507680Y-204800189D01*
X115639926Y-204713339D01*
X115758411Y-204613120D01*
X115861999Y-204500244D01*
X115919695Y-204422069D01*
X116003489Y-204281299D01*
X116067433Y-204136542D01*
X116111717Y-203987195D01*
X116136526Y-203832658D01*
X116142480Y-203706880D01*
X116133624Y-203554258D01*
X116107031Y-203411544D01*
X116062655Y-203278656D01*
X116000455Y-203155512D01*
X115920388Y-203042033D01*
X115822409Y-202938136D01*
X115706478Y-202843741D01*
X115672806Y-202820352D01*
X115608649Y-202780573D01*
X115525442Y-202734653D01*
X115423465Y-202682719D01*
X115302996Y-202624899D01*
X115164316Y-202561322D01*
X115007702Y-202492115D01*
X114833435Y-202417406D01*
X114641794Y-202337323D01*
X114433057Y-202251994D01*
X114430520Y-202250967D01*
X114266979Y-202184453D01*
X114120965Y-202124279D01*
X113990960Y-202069704D01*
X113875444Y-202019989D01*
X113772898Y-201974393D01*
X113681802Y-201932176D01*
X113600637Y-201892598D01*
X113527884Y-201854919D01*
X113462024Y-201818399D01*
X113401538Y-201782296D01*
X113344906Y-201745873D01*
X113290609Y-201708387D01*
X113238858Y-201670403D01*
X113172165Y-201616038D01*
X113099765Y-201549990D01*
X113026322Y-201477046D01*
X112956503Y-201401992D01*
X112894971Y-201329615D01*
X112853688Y-201275220D01*
X112761734Y-201128174D01*
X112683786Y-200968487D01*
X112620352Y-200798701D01*
X112571937Y-200621362D01*
X112539049Y-200439014D01*
X112522193Y-200254203D01*
X112521876Y-200069471D01*
X112538604Y-199887365D01*
X112556596Y-199782567D01*
X112604038Y-199599049D01*
X112669935Y-199422561D01*
X112753387Y-199253958D01*
X112853492Y-199094093D01*
X112969348Y-198943817D01*
X113100053Y-198803985D01*
X113244706Y-198675450D01*
X113402405Y-198559064D01*
X113572248Y-198455681D01*
X113753333Y-198366153D01*
X113944759Y-198291334D01*
X114145624Y-198232076D01*
X114212080Y-198216466D01*
X114383891Y-198185497D01*
X114568457Y-198164952D01*
X114761008Y-198154969D01*
X114956772Y-198155687D01*
G36*
X101917455Y-204885517D02*
G01*
X102158906Y-204885572D01*
X102389719Y-204885719D01*
X102609232Y-204885953D01*
X102816782Y-204886273D01*
X103011708Y-204886676D01*
X103193349Y-204887157D01*
X103361043Y-204887716D01*
X103514128Y-204888347D01*
X103651942Y-204889050D01*
X103773824Y-204889820D01*
X103879113Y-204890655D01*
X103967145Y-204891552D01*
X104037261Y-204892508D01*
X104088798Y-204893520D01*
X104121094Y-204894585D01*
X104131278Y-204895284D01*
X104196090Y-204905879D01*
X104244789Y-204922119D01*
X104281297Y-204946275D01*
X104309537Y-204980618D01*
X104324029Y-205006821D01*
X104332535Y-205024617D01*
X104339127Y-205040903D01*
X104344094Y-205058540D01*
X104347723Y-205080392D01*
X104350303Y-205109320D01*
X104352121Y-205148188D01*
X104353465Y-205199859D01*
X104354623Y-205267194D01*
X104355381Y-205318557D01*
X104356238Y-205419499D01*
X104355631Y-205502386D01*
X104353577Y-205566599D01*
X104350091Y-205611519D01*
X104347431Y-205628437D01*
X104326141Y-205693115D01*
X104292535Y-205742513D01*
X104245266Y-205778456D01*
X104231766Y-205785271D01*
X104179080Y-205809801D01*
X101903240Y-205808722D01*
X101689446Y-205808600D01*
X101480936Y-205808441D01*
X101278626Y-205808247D01*
X101083436Y-205808021D01*
X100896284Y-205807764D01*
X100718087Y-205807480D01*
X100549765Y-205807170D01*
X100392236Y-205806836D01*
X100246418Y-205806482D01*
X100113229Y-205806108D01*
X99993588Y-205805718D01*
X99888413Y-205805314D01*
X99798622Y-205804898D01*
X99725134Y-205804473D01*
X99668867Y-205804040D01*
X99630739Y-205803602D01*
X99611669Y-205803161D01*
X99609620Y-205802996D01*
X99604806Y-205800545D01*
X99600947Y-205794620D01*
X99597942Y-205783190D01*
X99595687Y-205764224D01*
X99594079Y-205735689D01*
X99593015Y-205695554D01*
X99592394Y-205641787D01*
X99592111Y-205572355D01*
X99592066Y-205485229D01*
X99592082Y-205456195D01*
X99592406Y-205372961D01*
X99593212Y-205294694D01*
X99594436Y-205224107D01*
X99596010Y-205163914D01*
X99597868Y-205116830D01*
X99599944Y-205085570D01*
X99601393Y-205074957D01*
X99610513Y-205047360D01*
X99626071Y-205021598D01*
X99651008Y-204994287D01*
X99688261Y-204962040D01*
X99722895Y-204934981D01*
X99787910Y-204885440D01*
X101917455Y-204885517D01*
G37*
X101917455Y-204885517D02*
X102158906Y-204885572D01*
X102389719Y-204885719D01*
X102609232Y-204885953D01*
X102816782Y-204886273D01*
X103011708Y-204886676D01*
X103193349Y-204887157D01*
X103361043Y-204887716D01*
X103514128Y-204888347D01*
X103651942Y-204889050D01*
X103773824Y-204889820D01*
X103879113Y-204890655D01*
X103967145Y-204891552D01*
X104037261Y-204892508D01*
X104088798Y-204893520D01*
X104121094Y-204894585D01*
X104131278Y-204895284D01*
X104196090Y-204905879D01*
X104244789Y-204922119D01*
X104281297Y-204946275D01*
X104309537Y-204980618D01*
X104324029Y-205006821D01*
X104332535Y-205024617D01*
X104339127Y-205040903D01*
X104344094Y-205058540D01*
X104347723Y-205080392D01*
X104350303Y-205109320D01*
X104352121Y-205148188D01*
X104353465Y-205199859D01*
X104354623Y-205267194D01*
X104355381Y-205318557D01*
X104356238Y-205419499D01*
X104355631Y-205502386D01*
X104353577Y-205566599D01*
X104350091Y-205611519D01*
X104347431Y-205628437D01*
X104326141Y-205693115D01*
X104292535Y-205742513D01*
X104245266Y-205778456D01*
X104231766Y-205785271D01*
X104179080Y-205809801D01*
X101903240Y-205808722D01*
X101689446Y-205808600D01*
X101480936Y-205808441D01*
X101278626Y-205808247D01*
X101083436Y-205808021D01*
X100896284Y-205807764D01*
X100718087Y-205807480D01*
X100549765Y-205807170D01*
X100392236Y-205806836D01*
X100246418Y-205806482D01*
X100113229Y-205806108D01*
X99993588Y-205805718D01*
X99888413Y-205805314D01*
X99798622Y-205804898D01*
X99725134Y-205804473D01*
X99668867Y-205804040D01*
X99630739Y-205803602D01*
X99611669Y-205803161D01*
X99609620Y-205802996D01*
X99604806Y-205800545D01*
X99600947Y-205794620D01*
X99597942Y-205783190D01*
X99595687Y-205764224D01*
X99594079Y-205735689D01*
X99593015Y-205695554D01*
X99592394Y-205641787D01*
X99592111Y-205572355D01*
X99592066Y-205485229D01*
X99592082Y-205456195D01*
X99592406Y-205372961D01*
X99593212Y-205294694D01*
X99594436Y-205224107D01*
X99596010Y-205163914D01*
X99597868Y-205116830D01*
X99599944Y-205085570D01*
X99601393Y-205074957D01*
X99610513Y-205047360D01*
X99626071Y-205021598D01*
X99651008Y-204994287D01*
X99688261Y-204962040D01*
X99722895Y-204934981D01*
X99787910Y-204885440D01*
X101917455Y-204885517D01*
G36*
X120875023Y-197997161D02*
G01*
X120920213Y-198014404D01*
X120955690Y-198045980D01*
X120980147Y-198083739D01*
X120986943Y-198098347D01*
X121001260Y-198130673D01*
X121022675Y-198179734D01*
X121050768Y-198244546D01*
X121085116Y-198324123D01*
X121125298Y-198417483D01*
X121170891Y-198523641D01*
X121221473Y-198641611D01*
X121276623Y-198770412D01*
X121335918Y-198909057D01*
X121398938Y-199056562D01*
X121465259Y-199211944D01*
X121534460Y-199374218D01*
X121606118Y-199542400D01*
X121679813Y-199715506D01*
X121705110Y-199774960D01*
X121782497Y-199956839D01*
X121866996Y-200155385D01*
X121957744Y-200368571D01*
X122053878Y-200594374D01*
X122154536Y-200830769D01*
X122258856Y-201075731D01*
X122365974Y-201327235D01*
X122475030Y-201583258D01*
X122585160Y-201841774D01*
X122695502Y-202100759D01*
X122805193Y-202358188D01*
X122913372Y-202612037D01*
X123019175Y-202860281D01*
X123121740Y-203100896D01*
X123220205Y-203331857D01*
X123282638Y-203478280D01*
X123383103Y-203713848D01*
X123475916Y-203931450D01*
X123561367Y-204131827D01*
X123639744Y-204315718D01*
X123711334Y-204483862D01*
X123776426Y-204636999D01*
X123835307Y-204775868D01*
X123888265Y-204901211D01*
X123935589Y-205013765D01*
X123977566Y-205114271D01*
X124014484Y-205203468D01*
X124046631Y-205282096D01*
X124074296Y-205350895D01*
X124097766Y-205410604D01*
X124117329Y-205461963D01*
X124133273Y-205505712D01*
X124145887Y-205542590D01*
X124155457Y-205573337D01*
X124162273Y-205598692D01*
X124166622Y-205619396D01*
X124168791Y-205636187D01*
X124169070Y-205649806D01*
X124167745Y-205660992D01*
X124165106Y-205670485D01*
X124161440Y-205679024D01*
X124157034Y-205687350D01*
X124152177Y-205696201D01*
X124148764Y-205702897D01*
X124120710Y-205744776D01*
X124079601Y-205776771D01*
X124079004Y-205777123D01*
X124031720Y-205804920D01*
X123185004Y-205804920D01*
X123157793Y-205779520D01*
X123134391Y-205752598D01*
X123113499Y-205720706D01*
X123111741Y-205717385D01*
X123105650Y-205703789D01*
X123092199Y-205672534D01*
X123071848Y-205624714D01*
X123045056Y-205561426D01*
X123012285Y-205483763D01*
X122973995Y-205392822D01*
X122930644Y-205289698D01*
X122882695Y-205175486D01*
X122830606Y-205051281D01*
X122774839Y-204918179D01*
X122715853Y-204777275D01*
X122654108Y-204629664D01*
X122590064Y-204476441D01*
X122539331Y-204354982D01*
X122444159Y-204127093D01*
X122348706Y-203898585D01*
X122253313Y-203670268D01*
X122158317Y-203442950D01*
X122064056Y-203217438D01*
X121970869Y-202994541D01*
X121879095Y-202775067D01*
X121789071Y-202559825D01*
X121701136Y-202349621D01*
X121615629Y-202145265D01*
X121532888Y-201947565D01*
X121453251Y-201757328D01*
X121377057Y-201575363D01*
X121304644Y-201402478D01*
X121236350Y-201239480D01*
X121172514Y-201087179D01*
X121113474Y-200946382D01*
X121059569Y-200817898D01*
X121011137Y-200702534D01*
X120968516Y-200601098D01*
X120932045Y-200514400D01*
X120902062Y-200443246D01*
X120878905Y-200388445D01*
X120862913Y-200350806D01*
X120854582Y-200331491D01*
X120819865Y-200253022D01*
X120798916Y-200296142D01*
X120792066Y-200311469D01*
X120777622Y-200344827D01*
X120755876Y-200395521D01*
X120727122Y-200462858D01*
X120691654Y-200546142D01*
X120649766Y-200644680D01*
X120601751Y-200757775D01*
X120547904Y-200884734D01*
X120488519Y-201024863D01*
X120423888Y-201177465D01*
X120354306Y-201341848D01*
X120280067Y-201517315D01*
X120201464Y-201703174D01*
X120118792Y-201898728D01*
X120032344Y-202103284D01*
X119942414Y-202316146D01*
X119849295Y-202536620D01*
X119753282Y-202764012D01*
X119654668Y-202997627D01*
X119553748Y-203236770D01*
X119450814Y-203480747D01*
X119346161Y-203728863D01*
X119240083Y-203980423D01*
X119132873Y-204234733D01*
X119102699Y-204306320D01*
X119034675Y-204467587D01*
X118968612Y-204623967D01*
X118904955Y-204774410D01*
X118844154Y-204917870D01*
X118786655Y-205053298D01*
X118732906Y-205179647D01*
X118683354Y-205295869D01*
X118638447Y-205400915D01*
X118598632Y-205493738D01*
X118564357Y-205573290D01*
X118536070Y-205638523D01*
X118514217Y-205688389D01*
X118499246Y-205721841D01*
X118491604Y-205737830D01*
X118490967Y-205738880D01*
X118469647Y-205761943D01*
X118442150Y-205784758D01*
X118438743Y-205787140D01*
X118429966Y-205792873D01*
X118420782Y-205797556D01*
X118409169Y-205801293D01*
X118393106Y-205804191D01*
X118370572Y-205806354D01*
X118339548Y-205807886D01*
X118298011Y-205808893D01*
X118243941Y-205809480D01*
X118175318Y-205809751D01*
X118090119Y-205809812D01*
X118002797Y-205809776D01*
X117900817Y-205809657D01*
X117817101Y-205809365D01*
X117749592Y-205808813D01*
X117696233Y-205807912D01*
X117654967Y-205806576D01*
X117623740Y-205804718D01*
X117600492Y-205802248D01*
X117583170Y-205799081D01*
X117569715Y-205795128D01*
X117559379Y-205790902D01*
X117508927Y-205757614D01*
X117471432Y-205711517D01*
X117449288Y-205656766D01*
X117444887Y-205597516D01*
X117445351Y-205592895D01*
X117449577Y-205581302D01*
X117461492Y-205551804D01*
X117480771Y-205505167D01*
X117507086Y-205442155D01*
X117540108Y-205363536D01*
X117579511Y-205270074D01*
X117624966Y-205162536D01*
X117676147Y-205041686D01*
X117732725Y-204908292D01*
X117794373Y-204763118D01*
X117860764Y-204606931D01*
X117931570Y-204440496D01*
X118006462Y-204264578D01*
X118085115Y-204079945D01*
X118167200Y-203887360D01*
X118252389Y-203687591D01*
X118340355Y-203481403D01*
X118430770Y-203269561D01*
X118523308Y-203052832D01*
X118617639Y-202831981D01*
X118713437Y-202607774D01*
X118810374Y-202380976D01*
X118908123Y-202152354D01*
X119006355Y-201922673D01*
X119104744Y-201692698D01*
X119202962Y-201463197D01*
X119300680Y-201234934D01*
X119397572Y-201008675D01*
X119493311Y-200785185D01*
X119587567Y-200565232D01*
X119680014Y-200349580D01*
X119770325Y-200138994D01*
X119858171Y-199934242D01*
X119943225Y-199736089D01*
X120025160Y-199545299D01*
X120103647Y-199362640D01*
X120178360Y-199188877D01*
X120248971Y-199024775D01*
X120315151Y-198871101D01*
X120376575Y-198728620D01*
X120432913Y-198598098D01*
X120483839Y-198480300D01*
X120529024Y-198375993D01*
X120568142Y-198285941D01*
X120600864Y-198210912D01*
X120626864Y-198151670D01*
X120645813Y-198108982D01*
X120657384Y-198083613D01*
X120660374Y-198077522D01*
X120689347Y-198035253D01*
X120724686Y-198008507D01*
X120770665Y-197994938D01*
X120816080Y-197991992D01*
X120875023Y-197997161D01*
G37*
X120875023Y-197997161D02*
X120920213Y-198014404D01*
X120955690Y-198045980D01*
X120980147Y-198083739D01*
X120986943Y-198098347D01*
X121001260Y-198130673D01*
X121022675Y-198179734D01*
X121050768Y-198244546D01*
X121085116Y-198324123D01*
X121125298Y-198417483D01*
X121170891Y-198523641D01*
X121221473Y-198641611D01*
X121276623Y-198770412D01*
X121335918Y-198909057D01*
X121398938Y-199056562D01*
X121465259Y-199211944D01*
X121534460Y-199374218D01*
X121606118Y-199542400D01*
X121679813Y-199715506D01*
X121705110Y-199774960D01*
X121782497Y-199956839D01*
X121866996Y-200155385D01*
X121957744Y-200368571D01*
X122053878Y-200594374D01*
X122154536Y-200830769D01*
X122258856Y-201075731D01*
X122365974Y-201327235D01*
X122475030Y-201583258D01*
X122585160Y-201841774D01*
X122695502Y-202100759D01*
X122805193Y-202358188D01*
X122913372Y-202612037D01*
X123019175Y-202860281D01*
X123121740Y-203100896D01*
X123220205Y-203331857D01*
X123282638Y-203478280D01*
X123383103Y-203713848D01*
X123475916Y-203931450D01*
X123561367Y-204131827D01*
X123639744Y-204315718D01*
X123711334Y-204483862D01*
X123776426Y-204636999D01*
X123835307Y-204775868D01*
X123888265Y-204901211D01*
X123935589Y-205013765D01*
X123977566Y-205114271D01*
X124014484Y-205203468D01*
X124046631Y-205282096D01*
X124074296Y-205350895D01*
X124097766Y-205410604D01*
X124117329Y-205461963D01*
X124133273Y-205505712D01*
X124145887Y-205542590D01*
X124155457Y-205573337D01*
X124162273Y-205598692D01*
X124166622Y-205619396D01*
X124168791Y-205636187D01*
X124169070Y-205649806D01*
X124167745Y-205660992D01*
X124165106Y-205670485D01*
X124161440Y-205679024D01*
X124157034Y-205687350D01*
X124152177Y-205696201D01*
X124148764Y-205702897D01*
X124120710Y-205744776D01*
X124079601Y-205776771D01*
X124079004Y-205777123D01*
X124031720Y-205804920D01*
X123185004Y-205804920D01*
X123157793Y-205779520D01*
X123134391Y-205752598D01*
X123113499Y-205720706D01*
X123111741Y-205717385D01*
X123105650Y-205703789D01*
X123092199Y-205672534D01*
X123071848Y-205624714D01*
X123045056Y-205561426D01*
X123012285Y-205483763D01*
X122973995Y-205392822D01*
X122930644Y-205289698D01*
X122882695Y-205175486D01*
X122830606Y-205051281D01*
X122774839Y-204918179D01*
X122715853Y-204777275D01*
X122654108Y-204629664D01*
X122590064Y-204476441D01*
X122539331Y-204354982D01*
X122444159Y-204127093D01*
X122348706Y-203898585D01*
X122253313Y-203670268D01*
X122158317Y-203442950D01*
X122064056Y-203217438D01*
X121970869Y-202994541D01*
X121879095Y-202775067D01*
X121789071Y-202559825D01*
X121701136Y-202349621D01*
X121615629Y-202145265D01*
X121532888Y-201947565D01*
X121453251Y-201757328D01*
X121377057Y-201575363D01*
X121304644Y-201402478D01*
X121236350Y-201239480D01*
X121172514Y-201087179D01*
X121113474Y-200946382D01*
X121059569Y-200817898D01*
X121011137Y-200702534D01*
X120968516Y-200601098D01*
X120932045Y-200514400D01*
X120902062Y-200443246D01*
X120878905Y-200388445D01*
X120862913Y-200350806D01*
X120854582Y-200331491D01*
X120819865Y-200253022D01*
X120798916Y-200296142D01*
X120792066Y-200311469D01*
X120777622Y-200344827D01*
X120755876Y-200395521D01*
X120727122Y-200462858D01*
X120691654Y-200546142D01*
X120649766Y-200644680D01*
X120601751Y-200757775D01*
X120547904Y-200884734D01*
X120488519Y-201024863D01*
X120423888Y-201177465D01*
X120354306Y-201341848D01*
X120280067Y-201517315D01*
X120201464Y-201703174D01*
X120118792Y-201898728D01*
X120032344Y-202103284D01*
X119942414Y-202316146D01*
X119849295Y-202536620D01*
X119753282Y-202764012D01*
X119654668Y-202997627D01*
X119553748Y-203236770D01*
X119450814Y-203480747D01*
X119346161Y-203728863D01*
X119240083Y-203980423D01*
X119132873Y-204234733D01*
X119102699Y-204306320D01*
X119034675Y-204467587D01*
X118968612Y-204623967D01*
X118904955Y-204774410D01*
X118844154Y-204917870D01*
X118786655Y-205053298D01*
X118732906Y-205179647D01*
X118683354Y-205295869D01*
X118638447Y-205400915D01*
X118598632Y-205493738D01*
X118564357Y-205573290D01*
X118536070Y-205638523D01*
X118514217Y-205688389D01*
X118499246Y-205721841D01*
X118491604Y-205737830D01*
X118490967Y-205738880D01*
X118469647Y-205761943D01*
X118442150Y-205784758D01*
X118438743Y-205787140D01*
X118429966Y-205792873D01*
X118420782Y-205797556D01*
X118409169Y-205801293D01*
X118393106Y-205804191D01*
X118370572Y-205806354D01*
X118339548Y-205807886D01*
X118298011Y-205808893D01*
X118243941Y-205809480D01*
X118175318Y-205809751D01*
X118090119Y-205809812D01*
X118002797Y-205809776D01*
X117900817Y-205809657D01*
X117817101Y-205809365D01*
X117749592Y-205808813D01*
X117696233Y-205807912D01*
X117654967Y-205806576D01*
X117623740Y-205804718D01*
X117600492Y-205802248D01*
X117583170Y-205799081D01*
X117569715Y-205795128D01*
X117559379Y-205790902D01*
X117508927Y-205757614D01*
X117471432Y-205711517D01*
X117449288Y-205656766D01*
X117444887Y-205597516D01*
X117445351Y-205592895D01*
X117449577Y-205581302D01*
X117461492Y-205551804D01*
X117480771Y-205505167D01*
X117507086Y-205442155D01*
X117540108Y-205363536D01*
X117579511Y-205270074D01*
X117624966Y-205162536D01*
X117676147Y-205041686D01*
X117732725Y-204908292D01*
X117794373Y-204763118D01*
X117860764Y-204606931D01*
X117931570Y-204440496D01*
X118006462Y-204264578D01*
X118085115Y-204079945D01*
X118167200Y-203887360D01*
X118252389Y-203687591D01*
X118340355Y-203481403D01*
X118430770Y-203269561D01*
X118523308Y-203052832D01*
X118617639Y-202831981D01*
X118713437Y-202607774D01*
X118810374Y-202380976D01*
X118908123Y-202152354D01*
X119006355Y-201922673D01*
X119104744Y-201692698D01*
X119202962Y-201463197D01*
X119300680Y-201234934D01*
X119397572Y-201008675D01*
X119493311Y-200785185D01*
X119587567Y-200565232D01*
X119680014Y-200349580D01*
X119770325Y-200138994D01*
X119858171Y-199934242D01*
X119943225Y-199736089D01*
X120025160Y-199545299D01*
X120103647Y-199362640D01*
X120178360Y-199188877D01*
X120248971Y-199024775D01*
X120315151Y-198871101D01*
X120376575Y-198728620D01*
X120432913Y-198598098D01*
X120483839Y-198480300D01*
X120529024Y-198375993D01*
X120568142Y-198285941D01*
X120600864Y-198210912D01*
X120626864Y-198151670D01*
X120645813Y-198108982D01*
X120657384Y-198083613D01*
X120660374Y-198077522D01*
X120689347Y-198035253D01*
X120724686Y-198008507D01*
X120770665Y-197994938D01*
X120816080Y-197991992D01*
X120875023Y-197997161D01*
G36*
X104060392Y-201508222D02*
G01*
X104102096Y-201534321D01*
X104132101Y-201567602D01*
X104141127Y-201581882D01*
X104168920Y-201629160D01*
X104168920Y-201933960D01*
X104168879Y-202020734D01*
X104168643Y-202089683D01*
X104168042Y-202143301D01*
X104166906Y-202184081D01*
X104165065Y-202214518D01*
X104162350Y-202237107D01*
X104158591Y-202254341D01*
X104153617Y-202268715D01*
X104147259Y-202282723D01*
X104144829Y-202287690D01*
X104110100Y-202337620D01*
X104061808Y-202373056D01*
X103999010Y-202394666D01*
X103992035Y-202396066D01*
X103976285Y-202397132D01*
X103941407Y-202398133D01*
X103888581Y-202399069D01*
X103818987Y-202399941D01*
X103733803Y-202400747D01*
X103634208Y-202401489D01*
X103521383Y-202402166D01*
X103396506Y-202402778D01*
X103260756Y-202403326D01*
X103115313Y-202403810D01*
X102961355Y-202404229D01*
X102800063Y-202404583D01*
X102632614Y-202404874D01*
X102460189Y-202405100D01*
X102283967Y-202405263D01*
X102105127Y-202405361D01*
X101924848Y-202405396D01*
X101744309Y-202405366D01*
X101564689Y-202405273D01*
X101387168Y-202405116D01*
X101212926Y-202404896D01*
X101043140Y-202404612D01*
X100878991Y-202404265D01*
X100721657Y-202403854D01*
X100572318Y-202403380D01*
X100432154Y-202402843D01*
X100302342Y-202402243D01*
X100184063Y-202401579D01*
X100078495Y-202400853D01*
X99986819Y-202400064D01*
X99910212Y-202399211D01*
X99849855Y-202398297D01*
X99806927Y-202397319D01*
X99782606Y-202396279D01*
X99778036Y-202395789D01*
X99713516Y-202375161D01*
X99663833Y-202341209D01*
X99627635Y-202292889D01*
X99617724Y-202271967D01*
X99612466Y-202248661D01*
X99608151Y-202208399D01*
X99604779Y-202154522D01*
X99602351Y-202090372D01*
X99600866Y-202019292D01*
X99600325Y-201944622D01*
X99600727Y-201869704D01*
X99602072Y-201797881D01*
X99604360Y-201732493D01*
X99607592Y-201676884D01*
X99611767Y-201634394D01*
X99616886Y-201608365D01*
X99617724Y-201606112D01*
X99648697Y-201553386D01*
X99692801Y-201515016D01*
X99718840Y-201501042D01*
X99724075Y-201498881D01*
X99730584Y-201496893D01*
X99739191Y-201495069D01*
X99750724Y-201493403D01*
X99766007Y-201491887D01*
X99785867Y-201490515D01*
X99811130Y-201489279D01*
X99842621Y-201488172D01*
X99881166Y-201487186D01*
X99927591Y-201486315D01*
X99982722Y-201485550D01*
X100047385Y-201484886D01*
X100122405Y-201484314D01*
X100208609Y-201483828D01*
X100306822Y-201483419D01*
X100417870Y-201483082D01*
X100542580Y-201482808D01*
X100681776Y-201482590D01*
X100836285Y-201482422D01*
X101006933Y-201482296D01*
X101194545Y-201482204D01*
X101399947Y-201482140D01*
X101623966Y-201482096D01*
X101867426Y-201482064D01*
X101883465Y-201482063D01*
X104007450Y-201481840D01*
X104060392Y-201508222D01*
G37*
X104060392Y-201508222D02*
X104102096Y-201534321D01*
X104132101Y-201567602D01*
X104141127Y-201581882D01*
X104168920Y-201629160D01*
X104168920Y-201933960D01*
X104168879Y-202020734D01*
X104168643Y-202089683D01*
X104168042Y-202143301D01*
X104166906Y-202184081D01*
X104165065Y-202214518D01*
X104162350Y-202237107D01*
X104158591Y-202254341D01*
X104153617Y-202268715D01*
X104147259Y-202282723D01*
X104144829Y-202287690D01*
X104110100Y-202337620D01*
X104061808Y-202373056D01*
X103999010Y-202394666D01*
X103992035Y-202396066D01*
X103976285Y-202397132D01*
X103941407Y-202398133D01*
X103888581Y-202399069D01*
X103818987Y-202399941D01*
X103733803Y-202400747D01*
X103634208Y-202401489D01*
X103521383Y-202402166D01*
X103396506Y-202402778D01*
X103260756Y-202403326D01*
X103115313Y-202403810D01*
X102961355Y-202404229D01*
X102800063Y-202404583D01*
X102632614Y-202404874D01*
X102460189Y-202405100D01*
X102283967Y-202405263D01*
X102105127Y-202405361D01*
X101924848Y-202405396D01*
X101744309Y-202405366D01*
X101564689Y-202405273D01*
X101387168Y-202405116D01*
X101212926Y-202404896D01*
X101043140Y-202404612D01*
X100878991Y-202404265D01*
X100721657Y-202403854D01*
X100572318Y-202403380D01*
X100432154Y-202402843D01*
X100302342Y-202402243D01*
X100184063Y-202401579D01*
X100078495Y-202400853D01*
X99986819Y-202400064D01*
X99910212Y-202399211D01*
X99849855Y-202398297D01*
X99806927Y-202397319D01*
X99782606Y-202396279D01*
X99778036Y-202395789D01*
X99713516Y-202375161D01*
X99663833Y-202341209D01*
X99627635Y-202292889D01*
X99617724Y-202271967D01*
X99612466Y-202248661D01*
X99608151Y-202208399D01*
X99604779Y-202154522D01*
X99602351Y-202090372D01*
X99600866Y-202019292D01*
X99600325Y-201944622D01*
X99600727Y-201869704D01*
X99602072Y-201797881D01*
X99604360Y-201732493D01*
X99607592Y-201676884D01*
X99611767Y-201634394D01*
X99616886Y-201608365D01*
X99617724Y-201606112D01*
X99648697Y-201553386D01*
X99692801Y-201515016D01*
X99718840Y-201501042D01*
X99724075Y-201498881D01*
X99730584Y-201496893D01*
X99739191Y-201495069D01*
X99750724Y-201493403D01*
X99766007Y-201491887D01*
X99785867Y-201490515D01*
X99811130Y-201489279D01*
X99842621Y-201488172D01*
X99881166Y-201487186D01*
X99927591Y-201486315D01*
X99982722Y-201485550D01*
X100047385Y-201484886D01*
X100122405Y-201484314D01*
X100208609Y-201483828D01*
X100306822Y-201483419D01*
X100417870Y-201483082D01*
X100542580Y-201482808D01*
X100681776Y-201482590D01*
X100836285Y-201482422D01*
X101006933Y-201482296D01*
X101194545Y-201482204D01*
X101399947Y-201482140D01*
X101623966Y-201482096D01*
X101867426Y-201482064D01*
X101883465Y-201482063D01*
X104007450Y-201481840D01*
X104060392Y-201508222D01*
G36*
X102865378Y-198256021D02*
G01*
X103044626Y-198256098D01*
X103207570Y-198256250D01*
X103355014Y-198256497D01*
X103487759Y-198256861D01*
X103606610Y-198257362D01*
X103712369Y-198258022D01*
X103805841Y-198258861D01*
X103887827Y-198259901D01*
X103959131Y-198261162D01*
X104020557Y-198262665D01*
X104072906Y-198264431D01*
X104116984Y-198266482D01*
X104153592Y-198268838D01*
X104183534Y-198271520D01*
X104207614Y-198274550D01*
X104226633Y-198277947D01*
X104241396Y-198281734D01*
X104252706Y-198285931D01*
X104261365Y-198290558D01*
X104268178Y-198295638D01*
X104273946Y-198301191D01*
X104279474Y-198307238D01*
X104285564Y-198313799D01*
X104288345Y-198316580D01*
X104306081Y-198335354D01*
X104320089Y-198355058D01*
X104330867Y-198378350D01*
X104338911Y-198407888D01*
X104344717Y-198446329D01*
X104348781Y-198496331D01*
X104351601Y-198560552D01*
X104353672Y-198641651D01*
X104354213Y-198669215D01*
X104355421Y-198775723D01*
X104354353Y-198864058D01*
X104350526Y-198936291D01*
X104343457Y-198994489D01*
X104332662Y-199040722D01*
X104317660Y-199077059D01*
X104297965Y-199105567D01*
X104273097Y-199128317D01*
X104242571Y-199147377D01*
X104242568Y-199147379D01*
X104199400Y-199170440D01*
X101994680Y-199171997D01*
X101784052Y-199172110D01*
X101578591Y-199172148D01*
X101379238Y-199172116D01*
X101186935Y-199172015D01*
X101002624Y-199171849D01*
X100827247Y-199171619D01*
X100661746Y-199171329D01*
X100507063Y-199170982D01*
X100364139Y-199170579D01*
X100233918Y-199170124D01*
X100117340Y-199169619D01*
X100015349Y-199169067D01*
X99928885Y-199168471D01*
X99858891Y-199167833D01*
X99806309Y-199167156D01*
X99772081Y-199166443D01*
X99757149Y-199165697D01*
X99756793Y-199165630D01*
X99708846Y-199146464D01*
X99664958Y-199115316D01*
X99632306Y-199077608D01*
X99626447Y-199067206D01*
X99620766Y-199054162D01*
X99616247Y-199038833D01*
X99612725Y-199018743D01*
X99610031Y-198991418D01*
X99607998Y-198954382D01*
X99606459Y-198905160D01*
X99605247Y-198841277D01*
X99604194Y-198760257D01*
X99603899Y-198733560D01*
X99603217Y-198628031D01*
X99603655Y-198541878D01*
X99605206Y-198475325D01*
X99607865Y-198428597D01*
X99611628Y-198401916D01*
X99611977Y-198400651D01*
X99636616Y-198350337D01*
X99676514Y-198307255D01*
X99726711Y-198276621D01*
X99732013Y-198274479D01*
X99738079Y-198272384D01*
X99745524Y-198270454D01*
X99755164Y-198268682D01*
X99767813Y-198267061D01*
X99784287Y-198265584D01*
X99805401Y-198264245D01*
X99831969Y-198263038D01*
X99864807Y-198261954D01*
X99904729Y-198260988D01*
X99952551Y-198260133D01*
X100009088Y-198259382D01*
X100075155Y-198258728D01*
X100151566Y-198258165D01*
X100239138Y-198257687D01*
X100338684Y-198257285D01*
X100451019Y-198256954D01*
X100576960Y-198256687D01*
X100717320Y-198256477D01*
X100872916Y-198256317D01*
X101044561Y-198256201D01*
X101233071Y-198256122D01*
X101439261Y-198256073D01*
X101663946Y-198256048D01*
X101907941Y-198256040D01*
X101969280Y-198256040D01*
X102221776Y-198256028D01*
X102454756Y-198256007D01*
X102669022Y-198255998D01*
X102865378Y-198256021D01*
G37*
X102865378Y-198256021D02*
X103044626Y-198256098D01*
X103207570Y-198256250D01*
X103355014Y-198256497D01*
X103487759Y-198256861D01*
X103606610Y-198257362D01*
X103712369Y-198258022D01*
X103805841Y-198258861D01*
X103887827Y-198259901D01*
X103959131Y-198261162D01*
X104020557Y-198262665D01*
X104072906Y-198264431D01*
X104116984Y-198266482D01*
X104153592Y-198268838D01*
X104183534Y-198271520D01*
X104207614Y-198274550D01*
X104226633Y-198277947D01*
X104241396Y-198281734D01*
X104252706Y-198285931D01*
X104261365Y-198290558D01*
X104268178Y-198295638D01*
X104273946Y-198301191D01*
X104279474Y-198307238D01*
X104285564Y-198313799D01*
X104288345Y-198316580D01*
X104306081Y-198335354D01*
X104320089Y-198355058D01*
X104330867Y-198378350D01*
X104338911Y-198407888D01*
X104344717Y-198446329D01*
X104348781Y-198496331D01*
X104351601Y-198560552D01*
X104353672Y-198641651D01*
X104354213Y-198669215D01*
X104355421Y-198775723D01*
X104354353Y-198864058D01*
X104350526Y-198936291D01*
X104343457Y-198994489D01*
X104332662Y-199040722D01*
X104317660Y-199077059D01*
X104297965Y-199105567D01*
X104273097Y-199128317D01*
X104242571Y-199147377D01*
X104242568Y-199147379D01*
X104199400Y-199170440D01*
X101994680Y-199171997D01*
X101784052Y-199172110D01*
X101578591Y-199172148D01*
X101379238Y-199172116D01*
X101186935Y-199172015D01*
X101002624Y-199171849D01*
X100827247Y-199171619D01*
X100661746Y-199171329D01*
X100507063Y-199170982D01*
X100364139Y-199170579D01*
X100233918Y-199170124D01*
X100117340Y-199169619D01*
X100015349Y-199169067D01*
X99928885Y-199168471D01*
X99858891Y-199167833D01*
X99806309Y-199167156D01*
X99772081Y-199166443D01*
X99757149Y-199165697D01*
X99756793Y-199165630D01*
X99708846Y-199146464D01*
X99664958Y-199115316D01*
X99632306Y-199077608D01*
X99626447Y-199067206D01*
X99620766Y-199054162D01*
X99616247Y-199038833D01*
X99612725Y-199018743D01*
X99610031Y-198991418D01*
X99607998Y-198954382D01*
X99606459Y-198905160D01*
X99605247Y-198841277D01*
X99604194Y-198760257D01*
X99603899Y-198733560D01*
X99603217Y-198628031D01*
X99603655Y-198541878D01*
X99605206Y-198475325D01*
X99607865Y-198428597D01*
X99611628Y-198401916D01*
X99611977Y-198400651D01*
X99636616Y-198350337D01*
X99676514Y-198307255D01*
X99726711Y-198276621D01*
X99732013Y-198274479D01*
X99738079Y-198272384D01*
X99745524Y-198270454D01*
X99755164Y-198268682D01*
X99767813Y-198267061D01*
X99784287Y-198265584D01*
X99805401Y-198264245D01*
X99831969Y-198263038D01*
X99864807Y-198261954D01*
X99904729Y-198260988D01*
X99952551Y-198260133D01*
X100009088Y-198259382D01*
X100075155Y-198258728D01*
X100151566Y-198258165D01*
X100239138Y-198257687D01*
X100338684Y-198257285D01*
X100451019Y-198256954D01*
X100576960Y-198256687D01*
X100717320Y-198256477D01*
X100872916Y-198256317D01*
X101044561Y-198256201D01*
X101233071Y-198256122D01*
X101439261Y-198256073D01*
X101663946Y-198256048D01*
X101907941Y-198256040D01*
X101969280Y-198256040D01*
X102221776Y-198256028D01*
X102454756Y-198256007D01*
X102669022Y-198255998D01*
X102865378Y-198256021D01*
D11*
%TO.C,C1*%
X118940000Y-38936252D02*
X118940000Y-37513748D01*
X120760000Y-38936252D02*
X120760000Y-37513748D01*
%TO.C,C2*%
X51685000Y-38936252D02*
X51685000Y-37513748D01*
X49865000Y-38936252D02*
X49865000Y-37513748D01*
%TO.C,C3*%
X84465000Y-38936252D02*
X84465000Y-37513748D01*
X86285000Y-38936252D02*
X86285000Y-37513748D01*
%TO.C,C4*%
X153465000Y-38936252D02*
X153465000Y-37513748D01*
X155285000Y-38936252D02*
X155285000Y-37513748D01*
%TO.C,C5*%
X137360000Y-37513748D02*
X137360000Y-38936252D01*
X135540000Y-37513748D02*
X135540000Y-38936252D01*
%TO.C,C6*%
X66490000Y-37513748D02*
X66490000Y-38936252D01*
X68310000Y-37513748D02*
X68310000Y-38936252D01*
%TO.C,C7*%
X100380000Y-37513748D02*
X100380000Y-38936252D01*
X98560000Y-37513748D02*
X98560000Y-38936252D01*
%TO.C,C8*%
X170090000Y-37513748D02*
X170090000Y-38936252D01*
X171910000Y-37513748D02*
X171910000Y-38936252D01*
%TO.C,C9*%
X119315000Y-94336252D02*
X119315000Y-92913748D01*
X121135000Y-94336252D02*
X121135000Y-92913748D01*
%TO.C,C10*%
X52085000Y-94336252D02*
X52085000Y-92913748D01*
X50265000Y-94336252D02*
X50265000Y-92913748D01*
%TO.C,C11*%
X86585000Y-94336252D02*
X86585000Y-92913748D01*
X84765000Y-94336252D02*
X84765000Y-92913748D01*
%TO.C,C12*%
X153830000Y-94401252D02*
X153830000Y-92978748D01*
X155650000Y-94401252D02*
X155650000Y-92978748D01*
%TO.C,C13*%
X135665000Y-92913748D02*
X135665000Y-94336252D01*
X137485000Y-92913748D02*
X137485000Y-94336252D01*
%TO.C,C14*%
X66615000Y-92913748D02*
X66615000Y-94336252D01*
X68435000Y-92913748D02*
X68435000Y-94336252D01*
%TO.C,C15*%
X101165000Y-92913748D02*
X101165000Y-94336252D01*
X102985000Y-92913748D02*
X102985000Y-94336252D01*
%TO.C,C16*%
X170410000Y-92978748D02*
X170410000Y-94401252D01*
X172230000Y-92978748D02*
X172230000Y-94401252D01*
%TO.C,C17*%
X121085000Y-149736252D02*
X121085000Y-148313748D01*
X119265000Y-149736252D02*
X119265000Y-148313748D01*
%TO.C,C18*%
X50240000Y-149736252D02*
X50240000Y-148313748D01*
X52060000Y-149736252D02*
X52060000Y-148313748D01*
%TO.C,C19*%
X84765000Y-149736252D02*
X84765000Y-148313748D01*
X86585000Y-149736252D02*
X86585000Y-148313748D01*
%TO.C,C20*%
X155670000Y-149736252D02*
X155670000Y-148313748D01*
X153850000Y-149736252D02*
X153850000Y-148313748D01*
%TO.C,C21*%
X137660000Y-148313748D02*
X137660000Y-149736252D01*
X135840000Y-148313748D02*
X135840000Y-149736252D01*
%TO.C,C22*%
X68360000Y-148313748D02*
X68360000Y-149736252D01*
X66540000Y-148313748D02*
X66540000Y-149736252D01*
%TO.C,C23*%
X101215000Y-148313748D02*
X101215000Y-149736252D01*
X103035000Y-148313748D02*
X103035000Y-149736252D01*
%TO.C,C24*%
X172020000Y-148338748D02*
X172020000Y-149761252D01*
X170200000Y-148338748D02*
X170200000Y-149761252D01*
%TO.C,D2*%
X26850000Y-57413629D02*
X26850000Y-57300000D01*
X28176371Y-58740000D02*
G75*
G03*
X28176371Y-58740000I-1326371J0D01*
G01*
%TO.C,D4*%
X28070000Y-113665000D02*
G75*
G03*
X28070000Y-113665000I-1326371J0D01*
G01*
X26743629Y-112338629D02*
X26743629Y-112225000D01*
%TO.C,D6*%
X26638629Y-167813629D02*
X26638629Y-167700000D01*
X27965000Y-169140000D02*
G75*
G03*
X27965000Y-169140000I-1326371J0D01*
G01*
%TO.C,J1*%
X33500000Y-29000000D02*
G75*
G03*
X33500000Y-29000000I-5500000J0D01*
G01*
%TO.C,J2*%
X193500000Y-200000000D02*
G75*
G03*
X193500000Y-200000000I-5500000J0D01*
G01*
%TO.C,J3*%
X43800000Y-78350000D02*
G75*
G03*
X43800000Y-78350000I-5500000J0D01*
G01*
%TO.C,J4*%
X71700000Y-78350000D02*
G75*
G03*
X71700000Y-78350000I-5500000J0D01*
G01*
%TO.C,J5*%
X140750000Y-78375000D02*
G75*
G03*
X140750000Y-78375000I-5500000J0D01*
G01*
%TO.C,J6*%
X106250000Y-78350000D02*
G75*
G03*
X106250000Y-78350000I-5500000J0D01*
G01*
%TO.C,J7*%
X175275000Y-78375000D02*
G75*
G03*
X175275000Y-78375000I-5500000J0D01*
G01*
%TO.C,J8*%
X43800000Y-38350000D02*
G75*
G03*
X43800000Y-38350000I-5500000J0D01*
G01*
%TO.C,J9*%
X79975000Y-38350000D02*
G75*
G03*
X79975000Y-38350000I-5500000J0D01*
G01*
%TO.C,J10*%
X63400000Y-38350000D02*
G75*
G03*
X63400000Y-38350000I-5500000J0D01*
G01*
%TO.C,J11*%
X149025000Y-38355000D02*
G75*
G03*
X149025000Y-38355000I-5500000J0D01*
G01*
%TO.C,J12*%
X132470000Y-38355000D02*
G75*
G03*
X132470000Y-38355000I-5500000J0D01*
G01*
%TO.C,J13*%
X114540000Y-38355000D02*
G75*
G03*
X114540000Y-38355000I-5500000J0D01*
G01*
%TO.C,J14*%
X97945000Y-38355000D02*
G75*
G03*
X97945000Y-38355000I-5500000J0D01*
G01*
%TO.C,J15*%
X183570000Y-38350000D02*
G75*
G03*
X183570000Y-38350000I-5500000J0D01*
G01*
%TO.C,J16*%
X166995000Y-38350000D02*
G75*
G03*
X166995000Y-38350000I-5500000J0D01*
G01*
%TO.C,J17*%
X43775000Y-133750000D02*
G75*
G03*
X43775000Y-133750000I-5500000J0D01*
G01*
%TO.C,J18*%
X140752500Y-133750000D02*
G75*
G03*
X140752500Y-133750000I-5500000J0D01*
G01*
%TO.C,J19*%
X71682500Y-133750000D02*
G75*
G03*
X71682500Y-133750000I-5500000J0D01*
G01*
%TO.C,J20*%
X106200000Y-133750000D02*
G75*
G03*
X106200000Y-133750000I-5500000J0D01*
G01*
%TO.C,J21*%
X175277500Y-133750000D02*
G75*
G03*
X175277500Y-133750000I-5500000J0D01*
G01*
%TO.C,J22*%
X43800000Y-93645000D02*
G75*
G03*
X43800000Y-93645000I-5500000J0D01*
G01*
%TO.C,J23*%
X149025000Y-93645000D02*
G75*
G03*
X149025000Y-93645000I-5500000J0D01*
G01*
%TO.C,J24*%
X132470000Y-93645000D02*
G75*
G03*
X132470000Y-93645000I-5500000J0D01*
G01*
%TO.C,J25*%
X79975000Y-93645000D02*
G75*
G03*
X79975000Y-93645000I-5500000J0D01*
G01*
%TO.C,J26*%
X63400000Y-93645000D02*
G75*
G03*
X63400000Y-93645000I-5500000J0D01*
G01*
%TO.C,J27*%
X114500000Y-93645000D02*
G75*
G03*
X114500000Y-93645000I-5500000J0D01*
G01*
%TO.C,J28*%
X97925000Y-93645000D02*
G75*
G03*
X97925000Y-93645000I-5500000J0D01*
G01*
%TO.C,J29*%
X183570000Y-93645000D02*
G75*
G03*
X183570000Y-93645000I-5500000J0D01*
G01*
%TO.C,J30*%
X166995000Y-93645000D02*
G75*
G03*
X166995000Y-93645000I-5500000J0D01*
G01*
%TO.C,J31*%
X43775000Y-189155000D02*
G75*
G03*
X43775000Y-189155000I-5500000J0D01*
G01*
%TO.C,J32*%
X140727500Y-189155000D02*
G75*
G03*
X140727500Y-189155000I-5500000J0D01*
G01*
%TO.C,J33*%
X71657500Y-189155000D02*
G75*
G03*
X71657500Y-189155000I-5500000J0D01*
G01*
%TO.C,J34*%
X106182500Y-189155000D02*
G75*
G03*
X106182500Y-189155000I-5500000J0D01*
G01*
%TO.C,J35*%
X175252500Y-189155000D02*
G75*
G03*
X175252500Y-189155000I-5500000J0D01*
G01*
%TO.C,J36*%
X43775000Y-149025000D02*
G75*
G03*
X43775000Y-149025000I-5500000J0D01*
G01*
%TO.C,J37*%
X149000000Y-149025000D02*
G75*
G03*
X149000000Y-149025000I-5500000J0D01*
G01*
%TO.C,J38*%
X132445000Y-149025000D02*
G75*
G03*
X132445000Y-149025000I-5500000J0D01*
G01*
%TO.C,J39*%
X79950000Y-149025000D02*
G75*
G03*
X79950000Y-149025000I-5500000J0D01*
G01*
%TO.C,J40*%
X63375000Y-149025000D02*
G75*
G03*
X63375000Y-149025000I-5500000J0D01*
G01*
%TO.C,J41*%
X114475000Y-149000000D02*
G75*
G03*
X114475000Y-149000000I-5500000J0D01*
G01*
%TO.C,J42*%
X97900000Y-149025000D02*
G75*
G03*
X97900000Y-149025000I-5500000J0D01*
G01*
%TO.C,J43*%
X183545000Y-149025000D02*
G75*
G03*
X183545000Y-149025000I-5500000J0D01*
G01*
%TO.C,J44*%
X166970000Y-149025000D02*
G75*
G03*
X166970000Y-149025000I-5500000J0D01*
G01*
%TO.C,J45*%
X193500000Y-29000000D02*
G75*
G03*
X193500000Y-29000000I-5500000J0D01*
G01*
%TO.C,J46*%
X33500000Y-200000000D02*
G75*
G03*
X33500000Y-200000000I-5500000J0D01*
G01*
D13*
%TO.C,K1*%
X29380001Y-72754999D02*
X29380001Y-73254999D01*
X29380001Y-73254999D02*
X22180001Y-73254999D01*
X22180001Y-73254999D02*
X22180001Y-72754999D01*
X29380001Y-63154999D02*
X29380001Y-62654999D01*
X29380001Y-62654999D02*
X22180001Y-62654999D01*
X22180001Y-62654999D02*
X22180001Y-63154999D01*
%TO.C,K2*%
X29230000Y-128100000D02*
X29230000Y-128600000D01*
X29230000Y-128600000D02*
X22030000Y-128600000D01*
X22030000Y-128600000D02*
X22030000Y-128100000D01*
X29230000Y-118500000D02*
X29230000Y-118000000D01*
X29230000Y-118000000D02*
X22030000Y-118000000D01*
X22030000Y-118000000D02*
X22030000Y-118500000D01*
%TO.C,K3*%
X22030000Y-173500000D02*
X22030000Y-174000000D01*
X29230000Y-173500000D02*
X22030000Y-173500000D01*
X29230000Y-174000000D02*
X29230000Y-173500000D01*
X22030000Y-184100000D02*
X22030000Y-183600000D01*
X29230000Y-184100000D02*
X22030000Y-184100000D01*
X29230000Y-183600000D02*
X29230000Y-184100000D01*
D11*
%TO.C,R1*%
X25204307Y-51165000D02*
X26658435Y-51165000D01*
X25204307Y-52985000D02*
X26658435Y-52985000D01*
%TO.C,R2*%
X65835000Y-37497936D02*
X65835000Y-38952064D01*
X64015000Y-37497936D02*
X64015000Y-38952064D01*
%TO.C,R3*%
X118285000Y-38952064D02*
X118285000Y-37497936D01*
X116465000Y-38952064D02*
X116465000Y-37497936D01*
%TO.C,R4*%
X47290000Y-38952064D02*
X47290000Y-37497936D01*
X49110000Y-38952064D02*
X49110000Y-37497936D01*
%TO.C,R5*%
X82015000Y-38952064D02*
X82015000Y-37497936D01*
X83835000Y-38952064D02*
X83835000Y-37497936D01*
%TO.C,R6*%
X152835000Y-38952064D02*
X152835000Y-37497936D01*
X151015000Y-38952064D02*
X151015000Y-37497936D01*
%TO.C,R7*%
X133090000Y-37497936D02*
X133090000Y-38952064D01*
X134910000Y-37497936D02*
X134910000Y-38952064D01*
%TO.C,R8*%
X102905000Y-37497936D02*
X102905000Y-38952064D01*
X101085000Y-37497936D02*
X101085000Y-38952064D01*
%TO.C,R9*%
X169460000Y-37497936D02*
X169460000Y-38952064D01*
X167640000Y-37497936D02*
X167640000Y-38952064D01*
%TO.C,R10*%
X22840000Y-58352749D02*
X22840000Y-56898621D01*
X24660000Y-58352749D02*
X24660000Y-56898621D01*
%TO.C,R11*%
X25097936Y-107910000D02*
X26552064Y-107910000D01*
X25097936Y-106090000D02*
X26552064Y-106090000D01*
%TO.C,R12*%
X118660000Y-94352064D02*
X118660000Y-92897936D01*
X116840000Y-94352064D02*
X116840000Y-92897936D01*
%TO.C,R13*%
X49735000Y-94352064D02*
X49735000Y-92897936D01*
X47915000Y-94352064D02*
X47915000Y-92897936D01*
%TO.C,R14*%
X84210000Y-94352064D02*
X84210000Y-92897936D01*
X82390000Y-94352064D02*
X82390000Y-92897936D01*
%TO.C,R15*%
X151360000Y-94417064D02*
X151360000Y-92962936D01*
X153180000Y-94417064D02*
X153180000Y-92962936D01*
%TO.C,R16*%
X132980000Y-92897936D02*
X132980000Y-94352064D01*
X134800000Y-92897936D02*
X134800000Y-94352064D01*
%TO.C,R17*%
X65710000Y-92897936D02*
X65710000Y-94352064D01*
X63890000Y-92897936D02*
X63890000Y-94352064D01*
%TO.C,R18*%
X100360000Y-92897936D02*
X100360000Y-94352064D01*
X98540000Y-92897936D02*
X98540000Y-94352064D01*
%TO.C,R19*%
X167570000Y-92962936D02*
X167570000Y-94417064D01*
X169390000Y-92962936D02*
X169390000Y-94417064D01*
%TO.C,R20*%
X22890000Y-113277749D02*
X22890000Y-111823621D01*
X24710000Y-113277749D02*
X24710000Y-111823621D01*
%TO.C,R21*%
X24992936Y-161565000D02*
X26447064Y-161565000D01*
X24992936Y-163385000D02*
X26447064Y-163385000D01*
%TO.C,R22*%
X118660000Y-149752064D02*
X118660000Y-148297936D01*
X116840000Y-149752064D02*
X116840000Y-148297936D01*
%TO.C,R23*%
X49585000Y-149764564D02*
X49585000Y-148310436D01*
X47765000Y-149764564D02*
X47765000Y-148310436D01*
%TO.C,R24*%
X81940000Y-149752064D02*
X81940000Y-148297936D01*
X83760000Y-149752064D02*
X83760000Y-148297936D01*
%TO.C,R25*%
X153090000Y-149737064D02*
X153090000Y-148282936D01*
X151270000Y-149737064D02*
X151270000Y-148282936D01*
%TO.C,R26*%
X132815000Y-148297936D02*
X132815000Y-149752064D01*
X134635000Y-148297936D02*
X134635000Y-149752064D01*
%TO.C,R27*%
X63850000Y-148297936D02*
X63850000Y-149752064D01*
X65670000Y-148297936D02*
X65670000Y-149752064D01*
%TO.C,R28*%
X98490000Y-148297936D02*
X98490000Y-149752064D01*
X100310000Y-148297936D02*
X100310000Y-149752064D01*
%TO.C,R29*%
X169380000Y-148322936D02*
X169380000Y-149777064D01*
X167560000Y-148322936D02*
X167560000Y-149777064D01*
%TO.C,R30*%
X22840000Y-168752749D02*
X22840000Y-167298621D01*
X24660000Y-168752749D02*
X24660000Y-167298621D01*
%TO.C,D1*%
X34050000Y-43500000D02*
X32350000Y-43500000D01*
X32350000Y-43500000D02*
X32350000Y-46050000D01*
X34050000Y-43500000D02*
X34050000Y-46050000D01*
%TO.C,D5*%
X34350000Y-155000000D02*
X34350000Y-157550000D01*
X32650000Y-155000000D02*
X32650000Y-157550000D01*
X34350000Y-155000000D02*
X32650000Y-155000000D01*
%TO.C,Q1*%
X27370000Y-46850000D02*
X28870000Y-46850000D01*
X28870000Y-46850000D02*
X28870000Y-46580000D01*
X28870000Y-46580000D02*
X31700000Y-46580000D01*
X27370000Y-39950000D02*
X28870000Y-39950000D01*
X28870000Y-39950000D02*
X28870000Y-40220000D01*
X28870000Y-40220000D02*
X29970000Y-40220000D01*
%TO.C,Q2*%
X28295000Y-95645000D02*
X29395000Y-95645000D01*
X28295000Y-95375000D02*
X28295000Y-95645000D01*
X26795000Y-95375000D02*
X28295000Y-95375000D01*
X28295000Y-102005000D02*
X31125000Y-102005000D01*
X28295000Y-102275000D02*
X28295000Y-102005000D01*
X26795000Y-102275000D02*
X28295000Y-102275000D01*
%TO.C,D3*%
D14*
X32461904Y-103277380D02*
X32461904Y-102277380D01*
X32700000Y-102277380D01*
X32842857Y-102325000D01*
X32938095Y-102420238D01*
X32985714Y-102515476D01*
X33033333Y-102705952D01*
X33033333Y-102848809D01*
X32985714Y-103039285D01*
X32938095Y-103134523D01*
X32842857Y-103229761D01*
X32700000Y-103277380D01*
X32461904Y-103277380D01*
X33366666Y-102277380D02*
X33985714Y-102277380D01*
X33652380Y-102658333D01*
X33795238Y-102658333D01*
X33890476Y-102705952D01*
X33938095Y-102753571D01*
X33985714Y-102848809D01*
X33985714Y-103086904D01*
X33938095Y-103182142D01*
X33890476Y-103229761D01*
X33795238Y-103277380D01*
X33509523Y-103277380D01*
X33414285Y-103229761D01*
X33366666Y-103182142D01*
%TO.C,Q3*%
X26529760Y-159822618D02*
X26434522Y-159774999D01*
X26339284Y-159679760D01*
X26196427Y-159536903D01*
X26101189Y-159489284D01*
X26005951Y-159489284D01*
X26053570Y-159727379D02*
X25958332Y-159679760D01*
X25863094Y-159584522D01*
X25815475Y-159394046D01*
X25815475Y-159060713D01*
X25863094Y-158870237D01*
X25958332Y-158774999D01*
X26053570Y-158727379D01*
X26244046Y-158727379D01*
X26339284Y-158774999D01*
X26434522Y-158870237D01*
X26482141Y-159060713D01*
X26482141Y-159394046D01*
X26434522Y-159584522D01*
X26339284Y-159679760D01*
X26244046Y-159727379D01*
X26053570Y-159727379D01*
X26815475Y-158727379D02*
X27434522Y-158727379D01*
X27101189Y-159108332D01*
X27244046Y-159108332D01*
X27339284Y-159155951D01*
X27386903Y-159203570D01*
X27434522Y-159298808D01*
X27434522Y-159536903D01*
X27386903Y-159632141D01*
X27339284Y-159679760D01*
X27244046Y-159727379D01*
X26958332Y-159727379D01*
X26863094Y-159679760D01*
X26815475Y-159632141D01*
%TO.C,C1*%
X119633333Y-41682142D02*
X119585714Y-41729761D01*
X119442857Y-41777380D01*
X119347619Y-41777380D01*
X119204761Y-41729761D01*
X119109523Y-41634523D01*
X119061904Y-41539285D01*
X119014285Y-41348809D01*
X119014285Y-41205952D01*
X119061904Y-41015476D01*
X119109523Y-40920238D01*
X119204761Y-40825000D01*
X119347619Y-40777380D01*
X119442857Y-40777380D01*
X119585714Y-40825000D01*
X119633333Y-40872619D01*
X120585714Y-41777380D02*
X120014285Y-41777380D01*
X120300000Y-41777380D02*
X120300000Y-40777380D01*
X120204761Y-40920238D01*
X120109523Y-41015476D01*
X120014285Y-41063095D01*
%TO.C,C2*%
X50613333Y-41607142D02*
X50565714Y-41654761D01*
X50422857Y-41702380D01*
X50327619Y-41702380D01*
X50184761Y-41654761D01*
X50089523Y-41559523D01*
X50041904Y-41464285D01*
X49994285Y-41273809D01*
X49994285Y-41130952D01*
X50041904Y-40940476D01*
X50089523Y-40845238D01*
X50184761Y-40750000D01*
X50327619Y-40702380D01*
X50422857Y-40702380D01*
X50565714Y-40750000D01*
X50613333Y-40797619D01*
X50994285Y-40797619D02*
X51041904Y-40750000D01*
X51137142Y-40702380D01*
X51375238Y-40702380D01*
X51470476Y-40750000D01*
X51518095Y-40797619D01*
X51565714Y-40892857D01*
X51565714Y-40988095D01*
X51518095Y-41130952D01*
X50946666Y-41702380D01*
X51565714Y-41702380D01*
%TO.C,C3*%
X85158333Y-41682142D02*
X85110714Y-41729761D01*
X84967857Y-41777380D01*
X84872619Y-41777380D01*
X84729761Y-41729761D01*
X84634523Y-41634523D01*
X84586904Y-41539285D01*
X84539285Y-41348809D01*
X84539285Y-41205952D01*
X84586904Y-41015476D01*
X84634523Y-40920238D01*
X84729761Y-40825000D01*
X84872619Y-40777380D01*
X84967857Y-40777380D01*
X85110714Y-40825000D01*
X85158333Y-40872619D01*
X85491666Y-40777380D02*
X86110714Y-40777380D01*
X85777380Y-41158333D01*
X85920238Y-41158333D01*
X86015476Y-41205952D01*
X86063095Y-41253571D01*
X86110714Y-41348809D01*
X86110714Y-41586904D01*
X86063095Y-41682142D01*
X86015476Y-41729761D01*
X85920238Y-41777380D01*
X85634523Y-41777380D01*
X85539285Y-41729761D01*
X85491666Y-41682142D01*
%TO.C,C4*%
X154133333Y-41682142D02*
X154085714Y-41729761D01*
X153942857Y-41777380D01*
X153847619Y-41777380D01*
X153704761Y-41729761D01*
X153609523Y-41634523D01*
X153561904Y-41539285D01*
X153514285Y-41348809D01*
X153514285Y-41205952D01*
X153561904Y-41015476D01*
X153609523Y-40920238D01*
X153704761Y-40825000D01*
X153847619Y-40777380D01*
X153942857Y-40777380D01*
X154085714Y-40825000D01*
X154133333Y-40872619D01*
X154990476Y-41110714D02*
X154990476Y-41777380D01*
X154752380Y-40729761D02*
X154514285Y-41444047D01*
X155133333Y-41444047D01*
%TO.C,C5*%
X136183333Y-41682142D02*
X136135714Y-41729761D01*
X135992857Y-41777380D01*
X135897619Y-41777380D01*
X135754761Y-41729761D01*
X135659523Y-41634523D01*
X135611904Y-41539285D01*
X135564285Y-41348809D01*
X135564285Y-41205952D01*
X135611904Y-41015476D01*
X135659523Y-40920238D01*
X135754761Y-40825000D01*
X135897619Y-40777380D01*
X135992857Y-40777380D01*
X136135714Y-40825000D01*
X136183333Y-40872619D01*
X137088095Y-40777380D02*
X136611904Y-40777380D01*
X136564285Y-41253571D01*
X136611904Y-41205952D01*
X136707142Y-41158333D01*
X136945238Y-41158333D01*
X137040476Y-41205952D01*
X137088095Y-41253571D01*
X137135714Y-41348809D01*
X137135714Y-41586904D01*
X137088095Y-41682142D01*
X137040476Y-41729761D01*
X136945238Y-41777380D01*
X136707142Y-41777380D01*
X136611904Y-41729761D01*
X136564285Y-41682142D01*
%TO.C,C6*%
X67263333Y-41582142D02*
X67215714Y-41629761D01*
X67072857Y-41677380D01*
X66977619Y-41677380D01*
X66834761Y-41629761D01*
X66739523Y-41534523D01*
X66691904Y-41439285D01*
X66644285Y-41248809D01*
X66644285Y-41105952D01*
X66691904Y-40915476D01*
X66739523Y-40820238D01*
X66834761Y-40725000D01*
X66977619Y-40677380D01*
X67072857Y-40677380D01*
X67215714Y-40725000D01*
X67263333Y-40772619D01*
X68120476Y-40677380D02*
X67930000Y-40677380D01*
X67834761Y-40725000D01*
X67787142Y-40772619D01*
X67691904Y-40915476D01*
X67644285Y-41105952D01*
X67644285Y-41486904D01*
X67691904Y-41582142D01*
X67739523Y-41629761D01*
X67834761Y-41677380D01*
X68025238Y-41677380D01*
X68120476Y-41629761D01*
X68168095Y-41582142D01*
X68215714Y-41486904D01*
X68215714Y-41248809D01*
X68168095Y-41153571D01*
X68120476Y-41105952D01*
X68025238Y-41058333D01*
X67834761Y-41058333D01*
X67739523Y-41105952D01*
X67691904Y-41153571D01*
X67644285Y-41248809D01*
%TO.C,C7*%
X99273333Y-41707142D02*
X99225714Y-41754761D01*
X99082857Y-41802380D01*
X98987619Y-41802380D01*
X98844761Y-41754761D01*
X98749523Y-41659523D01*
X98701904Y-41564285D01*
X98654285Y-41373809D01*
X98654285Y-41230952D01*
X98701904Y-41040476D01*
X98749523Y-40945238D01*
X98844761Y-40850000D01*
X98987619Y-40802380D01*
X99082857Y-40802380D01*
X99225714Y-40850000D01*
X99273333Y-40897619D01*
X99606666Y-40802380D02*
X100273333Y-40802380D01*
X99844761Y-41802380D01*
%TO.C,C8*%
X170683333Y-41682142D02*
X170635714Y-41729761D01*
X170492857Y-41777380D01*
X170397619Y-41777380D01*
X170254761Y-41729761D01*
X170159523Y-41634523D01*
X170111904Y-41539285D01*
X170064285Y-41348809D01*
X170064285Y-41205952D01*
X170111904Y-41015476D01*
X170159523Y-40920238D01*
X170254761Y-40825000D01*
X170397619Y-40777380D01*
X170492857Y-40777380D01*
X170635714Y-40825000D01*
X170683333Y-40872619D01*
X171254761Y-41205952D02*
X171159523Y-41158333D01*
X171111904Y-41110714D01*
X171064285Y-41015476D01*
X171064285Y-40967857D01*
X171111904Y-40872619D01*
X171159523Y-40825000D01*
X171254761Y-40777380D01*
X171445238Y-40777380D01*
X171540476Y-40825000D01*
X171588095Y-40872619D01*
X171635714Y-40967857D01*
X171635714Y-41015476D01*
X171588095Y-41110714D01*
X171540476Y-41158333D01*
X171445238Y-41205952D01*
X171254761Y-41205952D01*
X171159523Y-41253571D01*
X171111904Y-41301190D01*
X171064285Y-41396428D01*
X171064285Y-41586904D01*
X171111904Y-41682142D01*
X171159523Y-41729761D01*
X171254761Y-41777380D01*
X171445238Y-41777380D01*
X171540476Y-41729761D01*
X171588095Y-41682142D01*
X171635714Y-41586904D01*
X171635714Y-41396428D01*
X171588095Y-41301190D01*
X171540476Y-41253571D01*
X171445238Y-41205952D01*
%TO.C,C9*%
X120083333Y-97182142D02*
X120035714Y-97229761D01*
X119892857Y-97277380D01*
X119797619Y-97277380D01*
X119654761Y-97229761D01*
X119559523Y-97134523D01*
X119511904Y-97039285D01*
X119464285Y-96848809D01*
X119464285Y-96705952D01*
X119511904Y-96515476D01*
X119559523Y-96420238D01*
X119654761Y-96325000D01*
X119797619Y-96277380D01*
X119892857Y-96277380D01*
X120035714Y-96325000D01*
X120083333Y-96372619D01*
X120559523Y-97277380D02*
X120750000Y-97277380D01*
X120845238Y-97229761D01*
X120892857Y-97182142D01*
X120988095Y-97039285D01*
X121035714Y-96848809D01*
X121035714Y-96467857D01*
X120988095Y-96372619D01*
X120940476Y-96325000D01*
X120845238Y-96277380D01*
X120654761Y-96277380D01*
X120559523Y-96325000D01*
X120511904Y-96372619D01*
X120464285Y-96467857D01*
X120464285Y-96705952D01*
X120511904Y-96801190D01*
X120559523Y-96848809D01*
X120654761Y-96896428D01*
X120845238Y-96896428D01*
X120940476Y-96848809D01*
X120988095Y-96801190D01*
X121035714Y-96705952D01*
%TO.C,C10*%
X50532142Y-97182142D02*
X50484523Y-97229761D01*
X50341666Y-97277380D01*
X50246428Y-97277380D01*
X50103571Y-97229761D01*
X50008333Y-97134523D01*
X49960714Y-97039285D01*
X49913095Y-96848809D01*
X49913095Y-96705952D01*
X49960714Y-96515476D01*
X50008333Y-96420238D01*
X50103571Y-96325000D01*
X50246428Y-96277380D01*
X50341666Y-96277380D01*
X50484523Y-96325000D01*
X50532142Y-96372619D01*
X51484523Y-97277380D02*
X50913095Y-97277380D01*
X51198809Y-97277380D02*
X51198809Y-96277380D01*
X51103571Y-96420238D01*
X51008333Y-96515476D01*
X50913095Y-96563095D01*
X52103571Y-96277380D02*
X52198809Y-96277380D01*
X52294047Y-96325000D01*
X52341666Y-96372619D01*
X52389285Y-96467857D01*
X52436904Y-96658333D01*
X52436904Y-96896428D01*
X52389285Y-97086904D01*
X52341666Y-97182142D01*
X52294047Y-97229761D01*
X52198809Y-97277380D01*
X52103571Y-97277380D01*
X52008333Y-97229761D01*
X51960714Y-97182142D01*
X51913095Y-97086904D01*
X51865476Y-96896428D01*
X51865476Y-96658333D01*
X51913095Y-96467857D01*
X51960714Y-96372619D01*
X52008333Y-96325000D01*
X52103571Y-96277380D01*
%TO.C,C11*%
X85057142Y-97182142D02*
X85009523Y-97229761D01*
X84866666Y-97277380D01*
X84771428Y-97277380D01*
X84628571Y-97229761D01*
X84533333Y-97134523D01*
X84485714Y-97039285D01*
X84438095Y-96848809D01*
X84438095Y-96705952D01*
X84485714Y-96515476D01*
X84533333Y-96420238D01*
X84628571Y-96325000D01*
X84771428Y-96277380D01*
X84866666Y-96277380D01*
X85009523Y-96325000D01*
X85057142Y-96372619D01*
X86009523Y-97277380D02*
X85438095Y-97277380D01*
X85723809Y-97277380D02*
X85723809Y-96277380D01*
X85628571Y-96420238D01*
X85533333Y-96515476D01*
X85438095Y-96563095D01*
X86961904Y-97277380D02*
X86390476Y-97277380D01*
X86676190Y-97277380D02*
X86676190Y-96277380D01*
X86580952Y-96420238D01*
X86485714Y-96515476D01*
X86390476Y-96563095D01*
%TO.C,C12*%
X154097142Y-97182142D02*
X154049523Y-97229761D01*
X153906666Y-97277380D01*
X153811428Y-97277380D01*
X153668571Y-97229761D01*
X153573333Y-97134523D01*
X153525714Y-97039285D01*
X153478095Y-96848809D01*
X153478095Y-96705952D01*
X153525714Y-96515476D01*
X153573333Y-96420238D01*
X153668571Y-96325000D01*
X153811428Y-96277380D01*
X153906666Y-96277380D01*
X154049523Y-96325000D01*
X154097142Y-96372619D01*
X155049523Y-97277380D02*
X154478095Y-97277380D01*
X154763809Y-97277380D02*
X154763809Y-96277380D01*
X154668571Y-96420238D01*
X154573333Y-96515476D01*
X154478095Y-96563095D01*
X155430476Y-96372619D02*
X155478095Y-96325000D01*
X155573333Y-96277380D01*
X155811428Y-96277380D01*
X155906666Y-96325000D01*
X155954285Y-96372619D01*
X156001904Y-96467857D01*
X156001904Y-96563095D01*
X155954285Y-96705952D01*
X155382857Y-97277380D01*
X156001904Y-97277380D01*
%TO.C,C13*%
X135932142Y-97107142D02*
X135884523Y-97154761D01*
X135741666Y-97202380D01*
X135646428Y-97202380D01*
X135503571Y-97154761D01*
X135408333Y-97059523D01*
X135360714Y-96964285D01*
X135313095Y-96773809D01*
X135313095Y-96630952D01*
X135360714Y-96440476D01*
X135408333Y-96345238D01*
X135503571Y-96250000D01*
X135646428Y-96202380D01*
X135741666Y-96202380D01*
X135884523Y-96250000D01*
X135932142Y-96297619D01*
X136884523Y-97202380D02*
X136313095Y-97202380D01*
X136598809Y-97202380D02*
X136598809Y-96202380D01*
X136503571Y-96345238D01*
X136408333Y-96440476D01*
X136313095Y-96488095D01*
X137217857Y-96202380D02*
X137836904Y-96202380D01*
X137503571Y-96583333D01*
X137646428Y-96583333D01*
X137741666Y-96630952D01*
X137789285Y-96678571D01*
X137836904Y-96773809D01*
X137836904Y-97011904D01*
X137789285Y-97107142D01*
X137741666Y-97154761D01*
X137646428Y-97202380D01*
X137360714Y-97202380D01*
X137265476Y-97154761D01*
X137217857Y-97107142D01*
%TO.C,C14*%
X67082142Y-97182142D02*
X67034523Y-97229761D01*
X66891666Y-97277380D01*
X66796428Y-97277380D01*
X66653571Y-97229761D01*
X66558333Y-97134523D01*
X66510714Y-97039285D01*
X66463095Y-96848809D01*
X66463095Y-96705952D01*
X66510714Y-96515476D01*
X66558333Y-96420238D01*
X66653571Y-96325000D01*
X66796428Y-96277380D01*
X66891666Y-96277380D01*
X67034523Y-96325000D01*
X67082142Y-96372619D01*
X68034523Y-97277380D02*
X67463095Y-97277380D01*
X67748809Y-97277380D02*
X67748809Y-96277380D01*
X67653571Y-96420238D01*
X67558333Y-96515476D01*
X67463095Y-96563095D01*
X68891666Y-96610714D02*
X68891666Y-97277380D01*
X68653571Y-96229761D02*
X68415476Y-96944047D01*
X69034523Y-96944047D01*
%TO.C,C15*%
X101857142Y-97182142D02*
X101809523Y-97229761D01*
X101666666Y-97277380D01*
X101571428Y-97277380D01*
X101428571Y-97229761D01*
X101333333Y-97134523D01*
X101285714Y-97039285D01*
X101238095Y-96848809D01*
X101238095Y-96705952D01*
X101285714Y-96515476D01*
X101333333Y-96420238D01*
X101428571Y-96325000D01*
X101571428Y-96277380D01*
X101666666Y-96277380D01*
X101809523Y-96325000D01*
X101857142Y-96372619D01*
X102809523Y-97277380D02*
X102238095Y-97277380D01*
X102523809Y-97277380D02*
X102523809Y-96277380D01*
X102428571Y-96420238D01*
X102333333Y-96515476D01*
X102238095Y-96563095D01*
X103714285Y-96277380D02*
X103238095Y-96277380D01*
X103190476Y-96753571D01*
X103238095Y-96705952D01*
X103333333Y-96658333D01*
X103571428Y-96658333D01*
X103666666Y-96705952D01*
X103714285Y-96753571D01*
X103761904Y-96848809D01*
X103761904Y-97086904D01*
X103714285Y-97182142D01*
X103666666Y-97229761D01*
X103571428Y-97277380D01*
X103333333Y-97277380D01*
X103238095Y-97229761D01*
X103190476Y-97182142D01*
%TO.C,C16*%
X170697142Y-97182142D02*
X170649523Y-97229761D01*
X170506666Y-97277380D01*
X170411428Y-97277380D01*
X170268571Y-97229761D01*
X170173333Y-97134523D01*
X170125714Y-97039285D01*
X170078095Y-96848809D01*
X170078095Y-96705952D01*
X170125714Y-96515476D01*
X170173333Y-96420238D01*
X170268571Y-96325000D01*
X170411428Y-96277380D01*
X170506666Y-96277380D01*
X170649523Y-96325000D01*
X170697142Y-96372619D01*
X171649523Y-97277380D02*
X171078095Y-97277380D01*
X171363809Y-97277380D02*
X171363809Y-96277380D01*
X171268571Y-96420238D01*
X171173333Y-96515476D01*
X171078095Y-96563095D01*
X172506666Y-96277380D02*
X172316190Y-96277380D01*
X172220952Y-96325000D01*
X172173333Y-96372619D01*
X172078095Y-96515476D01*
X172030476Y-96705952D01*
X172030476Y-97086904D01*
X172078095Y-97182142D01*
X172125714Y-97229761D01*
X172220952Y-97277380D01*
X172411428Y-97277380D01*
X172506666Y-97229761D01*
X172554285Y-97182142D01*
X172601904Y-97086904D01*
X172601904Y-96848809D01*
X172554285Y-96753571D01*
X172506666Y-96705952D01*
X172411428Y-96658333D01*
X172220952Y-96658333D01*
X172125714Y-96705952D01*
X172078095Y-96753571D01*
X172030476Y-96848809D01*
%TO.C,C17*%
X119607142Y-152457142D02*
X119559523Y-152504761D01*
X119416666Y-152552380D01*
X119321428Y-152552380D01*
X119178571Y-152504761D01*
X119083333Y-152409523D01*
X119035714Y-152314285D01*
X118988095Y-152123809D01*
X118988095Y-151980952D01*
X119035714Y-151790476D01*
X119083333Y-151695238D01*
X119178571Y-151600000D01*
X119321428Y-151552380D01*
X119416666Y-151552380D01*
X119559523Y-151600000D01*
X119607142Y-151647619D01*
X120559523Y-152552380D02*
X119988095Y-152552380D01*
X120273809Y-152552380D02*
X120273809Y-151552380D01*
X120178571Y-151695238D01*
X120083333Y-151790476D01*
X119988095Y-151838095D01*
X120892857Y-151552380D02*
X121559523Y-151552380D01*
X121130952Y-152552380D01*
%TO.C,C18*%
X50532142Y-152357142D02*
X50484523Y-152404761D01*
X50341666Y-152452380D01*
X50246428Y-152452380D01*
X50103571Y-152404761D01*
X50008333Y-152309523D01*
X49960714Y-152214285D01*
X49913095Y-152023809D01*
X49913095Y-151880952D01*
X49960714Y-151690476D01*
X50008333Y-151595238D01*
X50103571Y-151500000D01*
X50246428Y-151452380D01*
X50341666Y-151452380D01*
X50484523Y-151500000D01*
X50532142Y-151547619D01*
X51484523Y-152452380D02*
X50913095Y-152452380D01*
X51198809Y-152452380D02*
X51198809Y-151452380D01*
X51103571Y-151595238D01*
X51008333Y-151690476D01*
X50913095Y-151738095D01*
X52055952Y-151880952D02*
X51960714Y-151833333D01*
X51913095Y-151785714D01*
X51865476Y-151690476D01*
X51865476Y-151642857D01*
X51913095Y-151547619D01*
X51960714Y-151500000D01*
X52055952Y-151452380D01*
X52246428Y-151452380D01*
X52341666Y-151500000D01*
X52389285Y-151547619D01*
X52436904Y-151642857D01*
X52436904Y-151690476D01*
X52389285Y-151785714D01*
X52341666Y-151833333D01*
X52246428Y-151880952D01*
X52055952Y-151880952D01*
X51960714Y-151928571D01*
X51913095Y-151976190D01*
X51865476Y-152071428D01*
X51865476Y-152261904D01*
X51913095Y-152357142D01*
X51960714Y-152404761D01*
X52055952Y-152452380D01*
X52246428Y-152452380D01*
X52341666Y-152404761D01*
X52389285Y-152357142D01*
X52436904Y-152261904D01*
X52436904Y-152071428D01*
X52389285Y-151976190D01*
X52341666Y-151928571D01*
X52246428Y-151880952D01*
%TO.C,C19*%
X84932142Y-152332142D02*
X84884523Y-152379761D01*
X84741666Y-152427380D01*
X84646428Y-152427380D01*
X84503571Y-152379761D01*
X84408333Y-152284523D01*
X84360714Y-152189285D01*
X84313095Y-151998809D01*
X84313095Y-151855952D01*
X84360714Y-151665476D01*
X84408333Y-151570238D01*
X84503571Y-151475000D01*
X84646428Y-151427380D01*
X84741666Y-151427380D01*
X84884523Y-151475000D01*
X84932142Y-151522619D01*
X85884523Y-152427380D02*
X85313095Y-152427380D01*
X85598809Y-152427380D02*
X85598809Y-151427380D01*
X85503571Y-151570238D01*
X85408333Y-151665476D01*
X85313095Y-151713095D01*
X86360714Y-152427380D02*
X86551190Y-152427380D01*
X86646428Y-152379761D01*
X86694047Y-152332142D01*
X86789285Y-152189285D01*
X86836904Y-151998809D01*
X86836904Y-151617857D01*
X86789285Y-151522619D01*
X86741666Y-151475000D01*
X86646428Y-151427380D01*
X86455952Y-151427380D01*
X86360714Y-151475000D01*
X86313095Y-151522619D01*
X86265476Y-151617857D01*
X86265476Y-151855952D01*
X86313095Y-151951190D01*
X86360714Y-151998809D01*
X86455952Y-152046428D01*
X86646428Y-152046428D01*
X86741666Y-151998809D01*
X86789285Y-151951190D01*
X86836904Y-151855952D01*
%TO.C,C20*%
X154317142Y-152492142D02*
X154269523Y-152539761D01*
X154126666Y-152587380D01*
X154031428Y-152587380D01*
X153888571Y-152539761D01*
X153793333Y-152444523D01*
X153745714Y-152349285D01*
X153698095Y-152158809D01*
X153698095Y-152015952D01*
X153745714Y-151825476D01*
X153793333Y-151730238D01*
X153888571Y-151635000D01*
X154031428Y-151587380D01*
X154126666Y-151587380D01*
X154269523Y-151635000D01*
X154317142Y-151682619D01*
X154698095Y-151682619D02*
X154745714Y-151635000D01*
X154840952Y-151587380D01*
X155079047Y-151587380D01*
X155174285Y-151635000D01*
X155221904Y-151682619D01*
X155269523Y-151777857D01*
X155269523Y-151873095D01*
X155221904Y-152015952D01*
X154650476Y-152587380D01*
X155269523Y-152587380D01*
X155888571Y-151587380D02*
X155983809Y-151587380D01*
X156079047Y-151635000D01*
X156126666Y-151682619D01*
X156174285Y-151777857D01*
X156221904Y-151968333D01*
X156221904Y-152206428D01*
X156174285Y-152396904D01*
X156126666Y-152492142D01*
X156079047Y-152539761D01*
X155983809Y-152587380D01*
X155888571Y-152587380D01*
X155793333Y-152539761D01*
X155745714Y-152492142D01*
X155698095Y-152396904D01*
X155650476Y-152206428D01*
X155650476Y-151968333D01*
X155698095Y-151777857D01*
X155745714Y-151682619D01*
X155793333Y-151635000D01*
X155888571Y-151587380D01*
%TO.C,C21*%
X136203142Y-152339642D02*
X136155523Y-152387261D01*
X136012666Y-152434880D01*
X135917428Y-152434880D01*
X135774571Y-152387261D01*
X135679333Y-152292023D01*
X135631714Y-152196785D01*
X135584095Y-152006309D01*
X135584095Y-151863452D01*
X135631714Y-151672976D01*
X135679333Y-151577738D01*
X135774571Y-151482500D01*
X135917428Y-151434880D01*
X136012666Y-151434880D01*
X136155523Y-151482500D01*
X136203142Y-151530119D01*
X136584095Y-151530119D02*
X136631714Y-151482500D01*
X136726952Y-151434880D01*
X136965047Y-151434880D01*
X137060285Y-151482500D01*
X137107904Y-151530119D01*
X137155523Y-151625357D01*
X137155523Y-151720595D01*
X137107904Y-151863452D01*
X136536476Y-152434880D01*
X137155523Y-152434880D01*
X138107904Y-152434880D02*
X137536476Y-152434880D01*
X137822190Y-152434880D02*
X137822190Y-151434880D01*
X137726952Y-151577738D01*
X137631714Y-151672976D01*
X137536476Y-151720595D01*
%TO.C,C22*%
X66747142Y-152492142D02*
X66699523Y-152539761D01*
X66556666Y-152587380D01*
X66461428Y-152587380D01*
X66318571Y-152539761D01*
X66223333Y-152444523D01*
X66175714Y-152349285D01*
X66128095Y-152158809D01*
X66128095Y-152015952D01*
X66175714Y-151825476D01*
X66223333Y-151730238D01*
X66318571Y-151635000D01*
X66461428Y-151587380D01*
X66556666Y-151587380D01*
X66699523Y-151635000D01*
X66747142Y-151682619D01*
X67128095Y-151682619D02*
X67175714Y-151635000D01*
X67270952Y-151587380D01*
X67509047Y-151587380D01*
X67604285Y-151635000D01*
X67651904Y-151682619D01*
X67699523Y-151777857D01*
X67699523Y-151873095D01*
X67651904Y-152015952D01*
X67080476Y-152587380D01*
X67699523Y-152587380D01*
X68080476Y-151682619D02*
X68128095Y-151635000D01*
X68223333Y-151587380D01*
X68461428Y-151587380D01*
X68556666Y-151635000D01*
X68604285Y-151682619D01*
X68651904Y-151777857D01*
X68651904Y-151873095D01*
X68604285Y-152015952D01*
X68032857Y-152587380D01*
X68651904Y-152587380D01*
%TO.C,C23*%
X101457142Y-152357142D02*
X101409523Y-152404761D01*
X101266666Y-152452380D01*
X101171428Y-152452380D01*
X101028571Y-152404761D01*
X100933333Y-152309523D01*
X100885714Y-152214285D01*
X100838095Y-152023809D01*
X100838095Y-151880952D01*
X100885714Y-151690476D01*
X100933333Y-151595238D01*
X101028571Y-151500000D01*
X101171428Y-151452380D01*
X101266666Y-151452380D01*
X101409523Y-151500000D01*
X101457142Y-151547619D01*
X101838095Y-151547619D02*
X101885714Y-151500000D01*
X101980952Y-151452380D01*
X102219047Y-151452380D01*
X102314285Y-151500000D01*
X102361904Y-151547619D01*
X102409523Y-151642857D01*
X102409523Y-151738095D01*
X102361904Y-151880952D01*
X101790476Y-152452380D01*
X102409523Y-152452380D01*
X102742857Y-151452380D02*
X103361904Y-151452380D01*
X103028571Y-151833333D01*
X103171428Y-151833333D01*
X103266666Y-151880952D01*
X103314285Y-151928571D01*
X103361904Y-152023809D01*
X103361904Y-152261904D01*
X103314285Y-152357142D01*
X103266666Y-152404761D01*
X103171428Y-152452380D01*
X102885714Y-152452380D01*
X102790476Y-152404761D01*
X102742857Y-152357142D01*
%TO.C,C24*%
X170467142Y-152587142D02*
X170419523Y-152634761D01*
X170276666Y-152682380D01*
X170181428Y-152682380D01*
X170038571Y-152634761D01*
X169943333Y-152539523D01*
X169895714Y-152444285D01*
X169848095Y-152253809D01*
X169848095Y-152110952D01*
X169895714Y-151920476D01*
X169943333Y-151825238D01*
X170038571Y-151730000D01*
X170181428Y-151682380D01*
X170276666Y-151682380D01*
X170419523Y-151730000D01*
X170467142Y-151777619D01*
X170848095Y-151777619D02*
X170895714Y-151730000D01*
X170990952Y-151682380D01*
X171229047Y-151682380D01*
X171324285Y-151730000D01*
X171371904Y-151777619D01*
X171419523Y-151872857D01*
X171419523Y-151968095D01*
X171371904Y-152110952D01*
X170800476Y-152682380D01*
X171419523Y-152682380D01*
X172276666Y-152015714D02*
X172276666Y-152682380D01*
X172038571Y-151634761D02*
X171800476Y-152349047D01*
X172419523Y-152349047D01*
%TO.C,D2*%
X29628751Y-58208095D02*
X28628751Y-58208095D01*
X28628751Y-57970000D01*
X28676371Y-57827142D01*
X28771609Y-57731904D01*
X28866847Y-57684285D01*
X29057323Y-57636666D01*
X29200180Y-57636666D01*
X29390656Y-57684285D01*
X29485894Y-57731904D01*
X29581132Y-57827142D01*
X29628751Y-57970000D01*
X29628751Y-58208095D01*
X28723990Y-57255714D02*
X28676371Y-57208095D01*
X28628751Y-57112857D01*
X28628751Y-56874761D01*
X28676371Y-56779523D01*
X28723990Y-56731904D01*
X28819228Y-56684285D01*
X28914466Y-56684285D01*
X29057323Y-56731904D01*
X29628751Y-57303333D01*
X29628751Y-56684285D01*
X27302380Y-54661904D02*
X26302380Y-54661904D01*
X27302380Y-54090476D02*
X26730952Y-54519047D01*
X26302380Y-54090476D02*
X26873809Y-54661904D01*
%TO.C,D4*%
X29522380Y-113133095D02*
X28522380Y-113133095D01*
X28522380Y-112895000D01*
X28570000Y-112752142D01*
X28665238Y-112656904D01*
X28760476Y-112609285D01*
X28950952Y-112561666D01*
X29093809Y-112561666D01*
X29284285Y-112609285D01*
X29379523Y-112656904D01*
X29474761Y-112752142D01*
X29522380Y-112895000D01*
X29522380Y-113133095D01*
X28855714Y-111704523D02*
X29522380Y-111704523D01*
X28474761Y-111942619D02*
X29189047Y-112180714D01*
X29189047Y-111561666D01*
X27196009Y-109586904D02*
X26196009Y-109586904D01*
X27196009Y-109015476D02*
X26624581Y-109444047D01*
X26196009Y-109015476D02*
X26767438Y-109586904D01*
%TO.C,D6*%
X29417380Y-168608095D02*
X28417380Y-168608095D01*
X28417380Y-168370000D01*
X28465000Y-168227142D01*
X28560238Y-168131904D01*
X28655476Y-168084285D01*
X28845952Y-168036666D01*
X28988809Y-168036666D01*
X29179285Y-168084285D01*
X29274523Y-168131904D01*
X29369761Y-168227142D01*
X29417380Y-168370000D01*
X29417380Y-168608095D01*
X28417380Y-167179523D02*
X28417380Y-167370000D01*
X28465000Y-167465238D01*
X28512619Y-167512857D01*
X28655476Y-167608095D01*
X28845952Y-167655714D01*
X29226904Y-167655714D01*
X29322142Y-167608095D01*
X29369761Y-167560476D01*
X29417380Y-167465238D01*
X29417380Y-167274761D01*
X29369761Y-167179523D01*
X29322142Y-167131904D01*
X29226904Y-167084285D01*
X28988809Y-167084285D01*
X28893571Y-167131904D01*
X28845952Y-167179523D01*
X28798333Y-167274761D01*
X28798333Y-167465238D01*
X28845952Y-167560476D01*
X28893571Y-167608095D01*
X28988809Y-167655714D01*
X27091009Y-165061904D02*
X26091009Y-165061904D01*
X27091009Y-164490476D02*
X26519581Y-164919047D01*
X26091009Y-164490476D02*
X26662438Y-165061904D01*
%TO.C,J1*%
X27666666Y-21952380D02*
X27666666Y-22666666D01*
X27619047Y-22809523D01*
X27523809Y-22904761D01*
X27380952Y-22952380D01*
X27285714Y-22952380D01*
X28666666Y-22952380D02*
X28095238Y-22952380D01*
X28380952Y-22952380D02*
X28380952Y-21952380D01*
X28285714Y-22095238D01*
X28190476Y-22190476D01*
X28095238Y-22238095D01*
%TO.C,J2*%
X187666666Y-192952380D02*
X187666666Y-193666666D01*
X187619047Y-193809523D01*
X187523809Y-193904761D01*
X187380952Y-193952380D01*
X187285714Y-193952380D01*
X188095238Y-193047619D02*
X188142857Y-193000000D01*
X188238095Y-192952380D01*
X188476190Y-192952380D01*
X188571428Y-193000000D01*
X188619047Y-193047619D01*
X188666666Y-193142857D01*
X188666666Y-193238095D01*
X188619047Y-193380952D01*
X188047619Y-193952380D01*
X188666666Y-193952380D01*
%TO.C,J3*%
X37566666Y-84402380D02*
X37566666Y-85116666D01*
X37519047Y-85259523D01*
X37423809Y-85354761D01*
X37280952Y-85402380D01*
X37185714Y-85402380D01*
X37947619Y-84402380D02*
X38566666Y-84402380D01*
X38233333Y-84783333D01*
X38376190Y-84783333D01*
X38471428Y-84830952D01*
X38519047Y-84878571D01*
X38566666Y-84973809D01*
X38566666Y-85211904D01*
X38519047Y-85307142D01*
X38471428Y-85354761D01*
X38376190Y-85402380D01*
X38090476Y-85402380D01*
X37995238Y-85354761D01*
X37947619Y-85307142D01*
%TO.C,J4*%
X56916666Y-77452380D02*
X56916666Y-78166666D01*
X56869047Y-78309523D01*
X56773809Y-78404761D01*
X56630952Y-78452380D01*
X56535714Y-78452380D01*
X57821428Y-77785714D02*
X57821428Y-78452380D01*
X57583333Y-77404761D02*
X57345238Y-78119047D01*
X57964285Y-78119047D01*
%TO.C,J5*%
X126266666Y-77452380D02*
X126266666Y-78166666D01*
X126219047Y-78309523D01*
X126123809Y-78404761D01*
X125980952Y-78452380D01*
X125885714Y-78452380D01*
X127219047Y-77452380D02*
X126742857Y-77452380D01*
X126695238Y-77928571D01*
X126742857Y-77880952D01*
X126838095Y-77833333D01*
X127076190Y-77833333D01*
X127171428Y-77880952D01*
X127219047Y-77928571D01*
X127266666Y-78023809D01*
X127266666Y-78261904D01*
X127219047Y-78357142D01*
X127171428Y-78404761D01*
X127076190Y-78452380D01*
X126838095Y-78452380D01*
X126742857Y-78404761D01*
X126695238Y-78357142D01*
%TO.C,J6*%
X91666666Y-77452380D02*
X91666666Y-78166666D01*
X91619047Y-78309523D01*
X91523809Y-78404761D01*
X91380952Y-78452380D01*
X91285714Y-78452380D01*
X92571428Y-77452380D02*
X92380952Y-77452380D01*
X92285714Y-77500000D01*
X92238095Y-77547619D01*
X92142857Y-77690476D01*
X92095238Y-77880952D01*
X92095238Y-78261904D01*
X92142857Y-78357142D01*
X92190476Y-78404761D01*
X92285714Y-78452380D01*
X92476190Y-78452380D01*
X92571428Y-78404761D01*
X92619047Y-78357142D01*
X92666666Y-78261904D01*
X92666666Y-78023809D01*
X92619047Y-77928571D01*
X92571428Y-77880952D01*
X92476190Y-77833333D01*
X92285714Y-77833333D01*
X92190476Y-77880952D01*
X92142857Y-77928571D01*
X92095238Y-78023809D01*
%TO.C,J7*%
X160066666Y-77452380D02*
X160066666Y-78166666D01*
X160019047Y-78309523D01*
X159923809Y-78404761D01*
X159780952Y-78452380D01*
X159685714Y-78452380D01*
X160447619Y-77452380D02*
X161114285Y-77452380D01*
X160685714Y-78452380D01*
%TO.C,J8*%
X37566666Y-31302380D02*
X37566666Y-32016666D01*
X37519047Y-32159523D01*
X37423809Y-32254761D01*
X37280952Y-32302380D01*
X37185714Y-32302380D01*
X38185714Y-31730952D02*
X38090476Y-31683333D01*
X38042857Y-31635714D01*
X37995238Y-31540476D01*
X37995238Y-31492857D01*
X38042857Y-31397619D01*
X38090476Y-31350000D01*
X38185714Y-31302380D01*
X38376190Y-31302380D01*
X38471428Y-31350000D01*
X38519047Y-31397619D01*
X38566666Y-31492857D01*
X38566666Y-31540476D01*
X38519047Y-31635714D01*
X38471428Y-31683333D01*
X38376190Y-31730952D01*
X38185714Y-31730952D01*
X38090476Y-31778571D01*
X38042857Y-31826190D01*
X37995238Y-31921428D01*
X37995238Y-32111904D01*
X38042857Y-32207142D01*
X38090476Y-32254761D01*
X38185714Y-32302380D01*
X38376190Y-32302380D01*
X38471428Y-32254761D01*
X38519047Y-32207142D01*
X38566666Y-32111904D01*
X38566666Y-31921428D01*
X38519047Y-31826190D01*
X38471428Y-31778571D01*
X38376190Y-31730952D01*
%TO.C,J9*%
X74116666Y-31377380D02*
X74116666Y-32091666D01*
X74069047Y-32234523D01*
X73973809Y-32329761D01*
X73830952Y-32377380D01*
X73735714Y-32377380D01*
X74640476Y-32377380D02*
X74830952Y-32377380D01*
X74926190Y-32329761D01*
X74973809Y-32282142D01*
X75069047Y-32139285D01*
X75116666Y-31948809D01*
X75116666Y-31567857D01*
X75069047Y-31472619D01*
X75021428Y-31425000D01*
X74926190Y-31377380D01*
X74735714Y-31377380D01*
X74640476Y-31425000D01*
X74592857Y-31472619D01*
X74545238Y-31567857D01*
X74545238Y-31805952D01*
X74592857Y-31901190D01*
X74640476Y-31948809D01*
X74735714Y-31996428D01*
X74926190Y-31996428D01*
X75021428Y-31948809D01*
X75069047Y-31901190D01*
X75116666Y-31805952D01*
%TO.C,J10*%
X57065476Y-31302380D02*
X57065476Y-32016666D01*
X57017857Y-32159523D01*
X56922619Y-32254761D01*
X56779761Y-32302380D01*
X56684523Y-32302380D01*
X58065476Y-32302380D02*
X57494047Y-32302380D01*
X57779761Y-32302380D02*
X57779761Y-31302380D01*
X57684523Y-31445238D01*
X57589285Y-31540476D01*
X57494047Y-31588095D01*
X58684523Y-31302380D02*
X58779761Y-31302380D01*
X58875000Y-31350000D01*
X58922619Y-31397619D01*
X58970238Y-31492857D01*
X59017857Y-31683333D01*
X59017857Y-31921428D01*
X58970238Y-32111904D01*
X58922619Y-32207142D01*
X58875000Y-32254761D01*
X58779761Y-32302380D01*
X58684523Y-32302380D01*
X58589285Y-32254761D01*
X58541666Y-32207142D01*
X58494047Y-32111904D01*
X58446428Y-31921428D01*
X58446428Y-31683333D01*
X58494047Y-31492857D01*
X58541666Y-31397619D01*
X58589285Y-31350000D01*
X58684523Y-31302380D01*
%TO.C,J11*%
X142690476Y-31307380D02*
X142690476Y-32021666D01*
X142642857Y-32164523D01*
X142547619Y-32259761D01*
X142404761Y-32307380D01*
X142309523Y-32307380D01*
X143690476Y-32307380D02*
X143119047Y-32307380D01*
X143404761Y-32307380D02*
X143404761Y-31307380D01*
X143309523Y-31450238D01*
X143214285Y-31545476D01*
X143119047Y-31593095D01*
X144642857Y-32307380D02*
X144071428Y-32307380D01*
X144357142Y-32307380D02*
X144357142Y-31307380D01*
X144261904Y-31450238D01*
X144166666Y-31545476D01*
X144071428Y-31593095D01*
%TO.C,J12*%
X126135476Y-31307380D02*
X126135476Y-32021666D01*
X126087857Y-32164523D01*
X125992619Y-32259761D01*
X125849761Y-32307380D01*
X125754523Y-32307380D01*
X127135476Y-32307380D02*
X126564047Y-32307380D01*
X126849761Y-32307380D02*
X126849761Y-31307380D01*
X126754523Y-31450238D01*
X126659285Y-31545476D01*
X126564047Y-31593095D01*
X127516428Y-31402619D02*
X127564047Y-31355000D01*
X127659285Y-31307380D01*
X127897380Y-31307380D01*
X127992619Y-31355000D01*
X128040238Y-31402619D01*
X128087857Y-31497857D01*
X128087857Y-31593095D01*
X128040238Y-31735952D01*
X127468809Y-32307380D01*
X128087857Y-32307380D01*
%TO.C,J13*%
X108165476Y-31307380D02*
X108165476Y-32021666D01*
X108117857Y-32164523D01*
X108022619Y-32259761D01*
X107879761Y-32307380D01*
X107784523Y-32307380D01*
X109165476Y-32307380D02*
X108594047Y-32307380D01*
X108879761Y-32307380D02*
X108879761Y-31307380D01*
X108784523Y-31450238D01*
X108689285Y-31545476D01*
X108594047Y-31593095D01*
X109498809Y-31307380D02*
X110117857Y-31307380D01*
X109784523Y-31688333D01*
X109927380Y-31688333D01*
X110022619Y-31735952D01*
X110070238Y-31783571D01*
X110117857Y-31878809D01*
X110117857Y-32116904D01*
X110070238Y-32212142D01*
X110022619Y-32259761D01*
X109927380Y-32307380D01*
X109641666Y-32307380D01*
X109546428Y-32259761D01*
X109498809Y-32212142D01*
%TO.C,J14*%
X91590476Y-31307380D02*
X91590476Y-32021666D01*
X91542857Y-32164523D01*
X91447619Y-32259761D01*
X91304761Y-32307380D01*
X91209523Y-32307380D01*
X92590476Y-32307380D02*
X92019047Y-32307380D01*
X92304761Y-32307380D02*
X92304761Y-31307380D01*
X92209523Y-31450238D01*
X92114285Y-31545476D01*
X92019047Y-31593095D01*
X93447619Y-31640714D02*
X93447619Y-32307380D01*
X93209523Y-31259761D02*
X92971428Y-31974047D01*
X93590476Y-31974047D01*
%TO.C,J15*%
X177235476Y-31302380D02*
X177235476Y-32016666D01*
X177187857Y-32159523D01*
X177092619Y-32254761D01*
X176949761Y-32302380D01*
X176854523Y-32302380D01*
X178235476Y-32302380D02*
X177664047Y-32302380D01*
X177949761Y-32302380D02*
X177949761Y-31302380D01*
X177854523Y-31445238D01*
X177759285Y-31540476D01*
X177664047Y-31588095D01*
X179140238Y-31302380D02*
X178664047Y-31302380D01*
X178616428Y-31778571D01*
X178664047Y-31730952D01*
X178759285Y-31683333D01*
X178997380Y-31683333D01*
X179092619Y-31730952D01*
X179140238Y-31778571D01*
X179187857Y-31873809D01*
X179187857Y-32111904D01*
X179140238Y-32207142D01*
X179092619Y-32254761D01*
X178997380Y-32302380D01*
X178759285Y-32302380D01*
X178664047Y-32254761D01*
X178616428Y-32207142D01*
%TO.C,J16*%
X160660476Y-31302380D02*
X160660476Y-32016666D01*
X160612857Y-32159523D01*
X160517619Y-32254761D01*
X160374761Y-32302380D01*
X160279523Y-32302380D01*
X161660476Y-32302380D02*
X161089047Y-32302380D01*
X161374761Y-32302380D02*
X161374761Y-31302380D01*
X161279523Y-31445238D01*
X161184285Y-31540476D01*
X161089047Y-31588095D01*
X162517619Y-31302380D02*
X162327142Y-31302380D01*
X162231904Y-31350000D01*
X162184285Y-31397619D01*
X162089047Y-31540476D01*
X162041428Y-31730952D01*
X162041428Y-32111904D01*
X162089047Y-32207142D01*
X162136666Y-32254761D01*
X162231904Y-32302380D01*
X162422380Y-32302380D01*
X162517619Y-32254761D01*
X162565238Y-32207142D01*
X162612857Y-32111904D01*
X162612857Y-31873809D01*
X162565238Y-31778571D01*
X162517619Y-31730952D01*
X162422380Y-31683333D01*
X162231904Y-31683333D01*
X162136666Y-31730952D01*
X162089047Y-31778571D01*
X162041428Y-31873809D01*
%TO.C,J17*%
X37090476Y-139677380D02*
X37090476Y-140391666D01*
X37042857Y-140534523D01*
X36947619Y-140629761D01*
X36804761Y-140677380D01*
X36709523Y-140677380D01*
X38090476Y-140677380D02*
X37519047Y-140677380D01*
X37804761Y-140677380D02*
X37804761Y-139677380D01*
X37709523Y-139820238D01*
X37614285Y-139915476D01*
X37519047Y-139963095D01*
X38423809Y-139677380D02*
X39090476Y-139677380D01*
X38661904Y-140677380D01*
%TO.C,J18*%
X125590476Y-132952380D02*
X125590476Y-133666666D01*
X125542857Y-133809523D01*
X125447619Y-133904761D01*
X125304761Y-133952380D01*
X125209523Y-133952380D01*
X126590476Y-133952380D02*
X126019047Y-133952380D01*
X126304761Y-133952380D02*
X126304761Y-132952380D01*
X126209523Y-133095238D01*
X126114285Y-133190476D01*
X126019047Y-133238095D01*
X127161904Y-133380952D02*
X127066666Y-133333333D01*
X127019047Y-133285714D01*
X126971428Y-133190476D01*
X126971428Y-133142857D01*
X127019047Y-133047619D01*
X127066666Y-133000000D01*
X127161904Y-132952380D01*
X127352380Y-132952380D01*
X127447619Y-133000000D01*
X127495238Y-133047619D01*
X127542857Y-133142857D01*
X127542857Y-133190476D01*
X127495238Y-133285714D01*
X127447619Y-133333333D01*
X127352380Y-133380952D01*
X127161904Y-133380952D01*
X127066666Y-133428571D01*
X127019047Y-133476190D01*
X126971428Y-133571428D01*
X126971428Y-133761904D01*
X127019047Y-133857142D01*
X127066666Y-133904761D01*
X127161904Y-133952380D01*
X127352380Y-133952380D01*
X127447619Y-133904761D01*
X127495238Y-133857142D01*
X127542857Y-133761904D01*
X127542857Y-133571428D01*
X127495238Y-133476190D01*
X127447619Y-133428571D01*
X127352380Y-133380952D01*
%TO.C,J19*%
X56440476Y-132952380D02*
X56440476Y-133666666D01*
X56392857Y-133809523D01*
X56297619Y-133904761D01*
X56154761Y-133952380D01*
X56059523Y-133952380D01*
X57440476Y-133952380D02*
X56869047Y-133952380D01*
X57154761Y-133952380D02*
X57154761Y-132952380D01*
X57059523Y-133095238D01*
X56964285Y-133190476D01*
X56869047Y-133238095D01*
X57916666Y-133952380D02*
X58107142Y-133952380D01*
X58202380Y-133904761D01*
X58250000Y-133857142D01*
X58345238Y-133714285D01*
X58392857Y-133523809D01*
X58392857Y-133142857D01*
X58345238Y-133047619D01*
X58297619Y-133000000D01*
X58202380Y-132952380D01*
X58011904Y-132952380D01*
X57916666Y-133000000D01*
X57869047Y-133047619D01*
X57821428Y-133142857D01*
X57821428Y-133380952D01*
X57869047Y-133476190D01*
X57916666Y-133523809D01*
X58011904Y-133571428D01*
X58202380Y-133571428D01*
X58297619Y-133523809D01*
X58345238Y-133476190D01*
X58392857Y-133380952D01*
%TO.C,J20*%
X90790476Y-132952380D02*
X90790476Y-133666666D01*
X90742857Y-133809523D01*
X90647619Y-133904761D01*
X90504761Y-133952380D01*
X90409523Y-133952380D01*
X91219047Y-133047619D02*
X91266666Y-133000000D01*
X91361904Y-132952380D01*
X91600000Y-132952380D01*
X91695238Y-133000000D01*
X91742857Y-133047619D01*
X91790476Y-133142857D01*
X91790476Y-133238095D01*
X91742857Y-133380952D01*
X91171428Y-133952380D01*
X91790476Y-133952380D01*
X92409523Y-132952380D02*
X92504761Y-132952380D01*
X92600000Y-133000000D01*
X92647619Y-133047619D01*
X92695238Y-133142857D01*
X92742857Y-133333333D01*
X92742857Y-133571428D01*
X92695238Y-133761904D01*
X92647619Y-133857142D01*
X92600000Y-133904761D01*
X92504761Y-133952380D01*
X92409523Y-133952380D01*
X92314285Y-133904761D01*
X92266666Y-133857142D01*
X92219047Y-133761904D01*
X92171428Y-133571428D01*
X92171428Y-133333333D01*
X92219047Y-133142857D01*
X92266666Y-133047619D01*
X92314285Y-133000000D01*
X92409523Y-132952380D01*
%TO.C,J21*%
X161190476Y-132952380D02*
X161190476Y-133666666D01*
X161142857Y-133809523D01*
X161047619Y-133904761D01*
X160904761Y-133952380D01*
X160809523Y-133952380D01*
X161619047Y-133047619D02*
X161666666Y-133000000D01*
X161761904Y-132952380D01*
X162000000Y-132952380D01*
X162095238Y-133000000D01*
X162142857Y-133047619D01*
X162190476Y-133142857D01*
X162190476Y-133238095D01*
X162142857Y-133380952D01*
X161571428Y-133952380D01*
X162190476Y-133952380D01*
X163142857Y-133952380D02*
X162571428Y-133952380D01*
X162857142Y-133952380D02*
X162857142Y-132952380D01*
X162761904Y-133095238D01*
X162666666Y-133190476D01*
X162571428Y-133238095D01*
%TO.C,J22*%
X37090476Y-86597380D02*
X37090476Y-87311666D01*
X37042857Y-87454523D01*
X36947619Y-87549761D01*
X36804761Y-87597380D01*
X36709523Y-87597380D01*
X37519047Y-86692619D02*
X37566666Y-86645000D01*
X37661904Y-86597380D01*
X37900000Y-86597380D01*
X37995238Y-86645000D01*
X38042857Y-86692619D01*
X38090476Y-86787857D01*
X38090476Y-86883095D01*
X38042857Y-87025952D01*
X37471428Y-87597380D01*
X38090476Y-87597380D01*
X38471428Y-86692619D02*
X38519047Y-86645000D01*
X38614285Y-86597380D01*
X38852380Y-86597380D01*
X38947619Y-86645000D01*
X38995238Y-86692619D01*
X39042857Y-86787857D01*
X39042857Y-86883095D01*
X38995238Y-87025952D01*
X38423809Y-87597380D01*
X39042857Y-87597380D01*
%TO.C,J23*%
X142690476Y-86597380D02*
X142690476Y-87311666D01*
X142642857Y-87454523D01*
X142547619Y-87549761D01*
X142404761Y-87597380D01*
X142309523Y-87597380D01*
X143119047Y-86692619D02*
X143166666Y-86645000D01*
X143261904Y-86597380D01*
X143500000Y-86597380D01*
X143595238Y-86645000D01*
X143642857Y-86692619D01*
X143690476Y-86787857D01*
X143690476Y-86883095D01*
X143642857Y-87025952D01*
X143071428Y-87597380D01*
X143690476Y-87597380D01*
X144023809Y-86597380D02*
X144642857Y-86597380D01*
X144309523Y-86978333D01*
X144452380Y-86978333D01*
X144547619Y-87025952D01*
X144595238Y-87073571D01*
X144642857Y-87168809D01*
X144642857Y-87406904D01*
X144595238Y-87502142D01*
X144547619Y-87549761D01*
X144452380Y-87597380D01*
X144166666Y-87597380D01*
X144071428Y-87549761D01*
X144023809Y-87502142D01*
%TO.C,J24*%
X126135476Y-86597380D02*
X126135476Y-87311666D01*
X126087857Y-87454523D01*
X125992619Y-87549761D01*
X125849761Y-87597380D01*
X125754523Y-87597380D01*
X126564047Y-86692619D02*
X126611666Y-86645000D01*
X126706904Y-86597380D01*
X126945000Y-86597380D01*
X127040238Y-86645000D01*
X127087857Y-86692619D01*
X127135476Y-86787857D01*
X127135476Y-86883095D01*
X127087857Y-87025952D01*
X126516428Y-87597380D01*
X127135476Y-87597380D01*
X127992619Y-86930714D02*
X127992619Y-87597380D01*
X127754523Y-86549761D02*
X127516428Y-87264047D01*
X128135476Y-87264047D01*
%TO.C,J25*%
X73640476Y-86597380D02*
X73640476Y-87311666D01*
X73592857Y-87454523D01*
X73497619Y-87549761D01*
X73354761Y-87597380D01*
X73259523Y-87597380D01*
X74069047Y-86692619D02*
X74116666Y-86645000D01*
X74211904Y-86597380D01*
X74450000Y-86597380D01*
X74545238Y-86645000D01*
X74592857Y-86692619D01*
X74640476Y-86787857D01*
X74640476Y-86883095D01*
X74592857Y-87025952D01*
X74021428Y-87597380D01*
X74640476Y-87597380D01*
X75545238Y-86597380D02*
X75069047Y-86597380D01*
X75021428Y-87073571D01*
X75069047Y-87025952D01*
X75164285Y-86978333D01*
X75402380Y-86978333D01*
X75497619Y-87025952D01*
X75545238Y-87073571D01*
X75592857Y-87168809D01*
X75592857Y-87406904D01*
X75545238Y-87502142D01*
X75497619Y-87549761D01*
X75402380Y-87597380D01*
X75164285Y-87597380D01*
X75069047Y-87549761D01*
X75021428Y-87502142D01*
%TO.C,J26*%
X57065476Y-86597380D02*
X57065476Y-87311666D01*
X57017857Y-87454523D01*
X56922619Y-87549761D01*
X56779761Y-87597380D01*
X56684523Y-87597380D01*
X57494047Y-86692619D02*
X57541666Y-86645000D01*
X57636904Y-86597380D01*
X57875000Y-86597380D01*
X57970238Y-86645000D01*
X58017857Y-86692619D01*
X58065476Y-86787857D01*
X58065476Y-86883095D01*
X58017857Y-87025952D01*
X57446428Y-87597380D01*
X58065476Y-87597380D01*
X58922619Y-86597380D02*
X58732142Y-86597380D01*
X58636904Y-86645000D01*
X58589285Y-86692619D01*
X58494047Y-86835476D01*
X58446428Y-87025952D01*
X58446428Y-87406904D01*
X58494047Y-87502142D01*
X58541666Y-87549761D01*
X58636904Y-87597380D01*
X58827380Y-87597380D01*
X58922619Y-87549761D01*
X58970238Y-87502142D01*
X59017857Y-87406904D01*
X59017857Y-87168809D01*
X58970238Y-87073571D01*
X58922619Y-87025952D01*
X58827380Y-86978333D01*
X58636904Y-86978333D01*
X58541666Y-87025952D01*
X58494047Y-87073571D01*
X58446428Y-87168809D01*
%TO.C,J27*%
X108165476Y-86597380D02*
X108165476Y-87311666D01*
X108117857Y-87454523D01*
X108022619Y-87549761D01*
X107879761Y-87597380D01*
X107784523Y-87597380D01*
X108594047Y-86692619D02*
X108641666Y-86645000D01*
X108736904Y-86597380D01*
X108975000Y-86597380D01*
X109070238Y-86645000D01*
X109117857Y-86692619D01*
X109165476Y-86787857D01*
X109165476Y-86883095D01*
X109117857Y-87025952D01*
X108546428Y-87597380D01*
X109165476Y-87597380D01*
X109498809Y-86597380D02*
X110165476Y-86597380D01*
X109736904Y-87597380D01*
%TO.C,J28*%
X91590476Y-86597380D02*
X91590476Y-87311666D01*
X91542857Y-87454523D01*
X91447619Y-87549761D01*
X91304761Y-87597380D01*
X91209523Y-87597380D01*
X92019047Y-86692619D02*
X92066666Y-86645000D01*
X92161904Y-86597380D01*
X92400000Y-86597380D01*
X92495238Y-86645000D01*
X92542857Y-86692619D01*
X92590476Y-86787857D01*
X92590476Y-86883095D01*
X92542857Y-87025952D01*
X91971428Y-87597380D01*
X92590476Y-87597380D01*
X93161904Y-87025952D02*
X93066666Y-86978333D01*
X93019047Y-86930714D01*
X92971428Y-86835476D01*
X92971428Y-86787857D01*
X93019047Y-86692619D01*
X93066666Y-86645000D01*
X93161904Y-86597380D01*
X93352380Y-86597380D01*
X93447619Y-86645000D01*
X93495238Y-86692619D01*
X93542857Y-86787857D01*
X93542857Y-86835476D01*
X93495238Y-86930714D01*
X93447619Y-86978333D01*
X93352380Y-87025952D01*
X93161904Y-87025952D01*
X93066666Y-87073571D01*
X93019047Y-87121190D01*
X92971428Y-87216428D01*
X92971428Y-87406904D01*
X93019047Y-87502142D01*
X93066666Y-87549761D01*
X93161904Y-87597380D01*
X93352380Y-87597380D01*
X93447619Y-87549761D01*
X93495238Y-87502142D01*
X93542857Y-87406904D01*
X93542857Y-87216428D01*
X93495238Y-87121190D01*
X93447619Y-87073571D01*
X93352380Y-87025952D01*
%TO.C,J29*%
X177235476Y-86597380D02*
X177235476Y-87311666D01*
X177187857Y-87454523D01*
X177092619Y-87549761D01*
X176949761Y-87597380D01*
X176854523Y-87597380D01*
X177664047Y-86692619D02*
X177711666Y-86645000D01*
X177806904Y-86597380D01*
X178045000Y-86597380D01*
X178140238Y-86645000D01*
X178187857Y-86692619D01*
X178235476Y-86787857D01*
X178235476Y-86883095D01*
X178187857Y-87025952D01*
X177616428Y-87597380D01*
X178235476Y-87597380D01*
X178711666Y-87597380D02*
X178902142Y-87597380D01*
X178997380Y-87549761D01*
X179045000Y-87502142D01*
X179140238Y-87359285D01*
X179187857Y-87168809D01*
X179187857Y-86787857D01*
X179140238Y-86692619D01*
X179092619Y-86645000D01*
X178997380Y-86597380D01*
X178806904Y-86597380D01*
X178711666Y-86645000D01*
X178664047Y-86692619D01*
X178616428Y-86787857D01*
X178616428Y-87025952D01*
X178664047Y-87121190D01*
X178711666Y-87168809D01*
X178806904Y-87216428D01*
X178997380Y-87216428D01*
X179092619Y-87168809D01*
X179140238Y-87121190D01*
X179187857Y-87025952D01*
%TO.C,J30*%
X160660476Y-86597380D02*
X160660476Y-87311666D01*
X160612857Y-87454523D01*
X160517619Y-87549761D01*
X160374761Y-87597380D01*
X160279523Y-87597380D01*
X161041428Y-86597380D02*
X161660476Y-86597380D01*
X161327142Y-86978333D01*
X161470000Y-86978333D01*
X161565238Y-87025952D01*
X161612857Y-87073571D01*
X161660476Y-87168809D01*
X161660476Y-87406904D01*
X161612857Y-87502142D01*
X161565238Y-87549761D01*
X161470000Y-87597380D01*
X161184285Y-87597380D01*
X161089047Y-87549761D01*
X161041428Y-87502142D01*
X162279523Y-86597380D02*
X162374761Y-86597380D01*
X162470000Y-86645000D01*
X162517619Y-86692619D01*
X162565238Y-86787857D01*
X162612857Y-86978333D01*
X162612857Y-87216428D01*
X162565238Y-87406904D01*
X162517619Y-87502142D01*
X162470000Y-87549761D01*
X162374761Y-87597380D01*
X162279523Y-87597380D01*
X162184285Y-87549761D01*
X162136666Y-87502142D01*
X162089047Y-87406904D01*
X162041428Y-87216428D01*
X162041428Y-86978333D01*
X162089047Y-86787857D01*
X162136666Y-86692619D01*
X162184285Y-86645000D01*
X162279523Y-86597380D01*
%TO.C,J31*%
X37090476Y-195202380D02*
X37090476Y-195916666D01*
X37042857Y-196059523D01*
X36947619Y-196154761D01*
X36804761Y-196202380D01*
X36709523Y-196202380D01*
X37471428Y-195202380D02*
X38090476Y-195202380D01*
X37757142Y-195583333D01*
X37900000Y-195583333D01*
X37995238Y-195630952D01*
X38042857Y-195678571D01*
X38090476Y-195773809D01*
X38090476Y-196011904D01*
X38042857Y-196107142D01*
X37995238Y-196154761D01*
X37900000Y-196202380D01*
X37614285Y-196202380D01*
X37519047Y-196154761D01*
X37471428Y-196107142D01*
X39042857Y-196202380D02*
X38471428Y-196202380D01*
X38757142Y-196202380D02*
X38757142Y-195202380D01*
X38661904Y-195345238D01*
X38566666Y-195440476D01*
X38471428Y-195488095D01*
%TO.C,J32*%
X124940476Y-188452380D02*
X124940476Y-189166666D01*
X124892857Y-189309523D01*
X124797619Y-189404761D01*
X124654761Y-189452380D01*
X124559523Y-189452380D01*
X125321428Y-188452380D02*
X125940476Y-188452380D01*
X125607142Y-188833333D01*
X125750000Y-188833333D01*
X125845238Y-188880952D01*
X125892857Y-188928571D01*
X125940476Y-189023809D01*
X125940476Y-189261904D01*
X125892857Y-189357142D01*
X125845238Y-189404761D01*
X125750000Y-189452380D01*
X125464285Y-189452380D01*
X125369047Y-189404761D01*
X125321428Y-189357142D01*
X126321428Y-188547619D02*
X126369047Y-188500000D01*
X126464285Y-188452380D01*
X126702380Y-188452380D01*
X126797619Y-188500000D01*
X126845238Y-188547619D01*
X126892857Y-188642857D01*
X126892857Y-188738095D01*
X126845238Y-188880952D01*
X126273809Y-189452380D01*
X126892857Y-189452380D01*
%TO.C,J33*%
X56440476Y-188452380D02*
X56440476Y-189166666D01*
X56392857Y-189309523D01*
X56297619Y-189404761D01*
X56154761Y-189452380D01*
X56059523Y-189452380D01*
X56821428Y-188452380D02*
X57440476Y-188452380D01*
X57107142Y-188833333D01*
X57250000Y-188833333D01*
X57345238Y-188880952D01*
X57392857Y-188928571D01*
X57440476Y-189023809D01*
X57440476Y-189261904D01*
X57392857Y-189357142D01*
X57345238Y-189404761D01*
X57250000Y-189452380D01*
X56964285Y-189452380D01*
X56869047Y-189404761D01*
X56821428Y-189357142D01*
X57773809Y-188452380D02*
X58392857Y-188452380D01*
X58059523Y-188833333D01*
X58202380Y-188833333D01*
X58297619Y-188880952D01*
X58345238Y-188928571D01*
X58392857Y-189023809D01*
X58392857Y-189261904D01*
X58345238Y-189357142D01*
X58297619Y-189404761D01*
X58202380Y-189452380D01*
X57916666Y-189452380D01*
X57821428Y-189404761D01*
X57773809Y-189357142D01*
%TO.C,J34*%
X91190476Y-188452380D02*
X91190476Y-189166666D01*
X91142857Y-189309523D01*
X91047619Y-189404761D01*
X90904761Y-189452380D01*
X90809523Y-189452380D01*
X91571428Y-188452380D02*
X92190476Y-188452380D01*
X91857142Y-188833333D01*
X92000000Y-188833333D01*
X92095238Y-188880952D01*
X92142857Y-188928571D01*
X92190476Y-189023809D01*
X92190476Y-189261904D01*
X92142857Y-189357142D01*
X92095238Y-189404761D01*
X92000000Y-189452380D01*
X91714285Y-189452380D01*
X91619047Y-189404761D01*
X91571428Y-189357142D01*
X93047619Y-188785714D02*
X93047619Y-189452380D01*
X92809523Y-188404761D02*
X92571428Y-189119047D01*
X93190476Y-189119047D01*
%TO.C,J35*%
X160190476Y-188452380D02*
X160190476Y-189166666D01*
X160142857Y-189309523D01*
X160047619Y-189404761D01*
X159904761Y-189452380D01*
X159809523Y-189452380D01*
X160571428Y-188452380D02*
X161190476Y-188452380D01*
X160857142Y-188833333D01*
X161000000Y-188833333D01*
X161095238Y-188880952D01*
X161142857Y-188928571D01*
X161190476Y-189023809D01*
X161190476Y-189261904D01*
X161142857Y-189357142D01*
X161095238Y-189404761D01*
X161000000Y-189452380D01*
X160714285Y-189452380D01*
X160619047Y-189404761D01*
X160571428Y-189357142D01*
X162095238Y-188452380D02*
X161619047Y-188452380D01*
X161571428Y-188928571D01*
X161619047Y-188880952D01*
X161714285Y-188833333D01*
X161952380Y-188833333D01*
X162047619Y-188880952D01*
X162095238Y-188928571D01*
X162142857Y-189023809D01*
X162142857Y-189261904D01*
X162095238Y-189357142D01*
X162047619Y-189404761D01*
X161952380Y-189452380D01*
X161714285Y-189452380D01*
X161619047Y-189404761D01*
X161571428Y-189357142D01*
%TO.C,J36*%
X37090476Y-141977380D02*
X37090476Y-142691666D01*
X37042857Y-142834523D01*
X36947619Y-142929761D01*
X36804761Y-142977380D01*
X36709523Y-142977380D01*
X37471428Y-141977380D02*
X38090476Y-141977380D01*
X37757142Y-142358333D01*
X37900000Y-142358333D01*
X37995238Y-142405952D01*
X38042857Y-142453571D01*
X38090476Y-142548809D01*
X38090476Y-142786904D01*
X38042857Y-142882142D01*
X37995238Y-142929761D01*
X37900000Y-142977380D01*
X37614285Y-142977380D01*
X37519047Y-142929761D01*
X37471428Y-142882142D01*
X38947619Y-141977380D02*
X38757142Y-141977380D01*
X38661904Y-142025000D01*
X38614285Y-142072619D01*
X38519047Y-142215476D01*
X38471428Y-142405952D01*
X38471428Y-142786904D01*
X38519047Y-142882142D01*
X38566666Y-142929761D01*
X38661904Y-142977380D01*
X38852380Y-142977380D01*
X38947619Y-142929761D01*
X38995238Y-142882142D01*
X39042857Y-142786904D01*
X39042857Y-142548809D01*
X38995238Y-142453571D01*
X38947619Y-142405952D01*
X38852380Y-142358333D01*
X38661904Y-142358333D01*
X38566666Y-142405952D01*
X38519047Y-142453571D01*
X38471428Y-142548809D01*
%TO.C,J37*%
X142690476Y-141977380D02*
X142690476Y-142691666D01*
X142642857Y-142834523D01*
X142547619Y-142929761D01*
X142404761Y-142977380D01*
X142309523Y-142977380D01*
X143071428Y-141977380D02*
X143690476Y-141977380D01*
X143357142Y-142358333D01*
X143500000Y-142358333D01*
X143595238Y-142405952D01*
X143642857Y-142453571D01*
X143690476Y-142548809D01*
X143690476Y-142786904D01*
X143642857Y-142882142D01*
X143595238Y-142929761D01*
X143500000Y-142977380D01*
X143214285Y-142977380D01*
X143119047Y-142929761D01*
X143071428Y-142882142D01*
X144023809Y-141977380D02*
X144690476Y-141977380D01*
X144261904Y-142977380D01*
%TO.C,J38*%
X126135476Y-141977380D02*
X126135476Y-142691666D01*
X126087857Y-142834523D01*
X125992619Y-142929761D01*
X125849761Y-142977380D01*
X125754523Y-142977380D01*
X126516428Y-141977380D02*
X127135476Y-141977380D01*
X126802142Y-142358333D01*
X126945000Y-142358333D01*
X127040238Y-142405952D01*
X127087857Y-142453571D01*
X127135476Y-142548809D01*
X127135476Y-142786904D01*
X127087857Y-142882142D01*
X127040238Y-142929761D01*
X126945000Y-142977380D01*
X126659285Y-142977380D01*
X126564047Y-142929761D01*
X126516428Y-142882142D01*
X127706904Y-142405952D02*
X127611666Y-142358333D01*
X127564047Y-142310714D01*
X127516428Y-142215476D01*
X127516428Y-142167857D01*
X127564047Y-142072619D01*
X127611666Y-142025000D01*
X127706904Y-141977380D01*
X127897380Y-141977380D01*
X127992619Y-142025000D01*
X128040238Y-142072619D01*
X128087857Y-142167857D01*
X128087857Y-142215476D01*
X128040238Y-142310714D01*
X127992619Y-142358333D01*
X127897380Y-142405952D01*
X127706904Y-142405952D01*
X127611666Y-142453571D01*
X127564047Y-142501190D01*
X127516428Y-142596428D01*
X127516428Y-142786904D01*
X127564047Y-142882142D01*
X127611666Y-142929761D01*
X127706904Y-142977380D01*
X127897380Y-142977380D01*
X127992619Y-142929761D01*
X128040238Y-142882142D01*
X128087857Y-142786904D01*
X128087857Y-142596428D01*
X128040238Y-142501190D01*
X127992619Y-142453571D01*
X127897380Y-142405952D01*
%TO.C,J39*%
X73640476Y-141977380D02*
X73640476Y-142691666D01*
X73592857Y-142834523D01*
X73497619Y-142929761D01*
X73354761Y-142977380D01*
X73259523Y-142977380D01*
X74021428Y-141977380D02*
X74640476Y-141977380D01*
X74307142Y-142358333D01*
X74450000Y-142358333D01*
X74545238Y-142405952D01*
X74592857Y-142453571D01*
X74640476Y-142548809D01*
X74640476Y-142786904D01*
X74592857Y-142882142D01*
X74545238Y-142929761D01*
X74450000Y-142977380D01*
X74164285Y-142977380D01*
X74069047Y-142929761D01*
X74021428Y-142882142D01*
X75116666Y-142977380D02*
X75307142Y-142977380D01*
X75402380Y-142929761D01*
X75450000Y-142882142D01*
X75545238Y-142739285D01*
X75592857Y-142548809D01*
X75592857Y-142167857D01*
X75545238Y-142072619D01*
X75497619Y-142025000D01*
X75402380Y-141977380D01*
X75211904Y-141977380D01*
X75116666Y-142025000D01*
X75069047Y-142072619D01*
X75021428Y-142167857D01*
X75021428Y-142405952D01*
X75069047Y-142501190D01*
X75116666Y-142548809D01*
X75211904Y-142596428D01*
X75402380Y-142596428D01*
X75497619Y-142548809D01*
X75545238Y-142501190D01*
X75592857Y-142405952D01*
%TO.C,J40*%
X57065476Y-141977380D02*
X57065476Y-142691666D01*
X57017857Y-142834523D01*
X56922619Y-142929761D01*
X56779761Y-142977380D01*
X56684523Y-142977380D01*
X57970238Y-142310714D02*
X57970238Y-142977380D01*
X57732142Y-141929761D02*
X57494047Y-142644047D01*
X58113095Y-142644047D01*
X58684523Y-141977380D02*
X58779761Y-141977380D01*
X58875000Y-142025000D01*
X58922619Y-142072619D01*
X58970238Y-142167857D01*
X59017857Y-142358333D01*
X59017857Y-142596428D01*
X58970238Y-142786904D01*
X58922619Y-142882142D01*
X58875000Y-142929761D01*
X58779761Y-142977380D01*
X58684523Y-142977380D01*
X58589285Y-142929761D01*
X58541666Y-142882142D01*
X58494047Y-142786904D01*
X58446428Y-142596428D01*
X58446428Y-142358333D01*
X58494047Y-142167857D01*
X58541666Y-142072619D01*
X58589285Y-142025000D01*
X58684523Y-141977380D01*
%TO.C,J41*%
X108165476Y-141952380D02*
X108165476Y-142666666D01*
X108117857Y-142809523D01*
X108022619Y-142904761D01*
X107879761Y-142952380D01*
X107784523Y-142952380D01*
X109070238Y-142285714D02*
X109070238Y-142952380D01*
X108832142Y-141904761D02*
X108594047Y-142619047D01*
X109213095Y-142619047D01*
X110117857Y-142952380D02*
X109546428Y-142952380D01*
X109832142Y-142952380D02*
X109832142Y-141952380D01*
X109736904Y-142095238D01*
X109641666Y-142190476D01*
X109546428Y-142238095D01*
%TO.C,J42*%
X91590476Y-141977380D02*
X91590476Y-142691666D01*
X91542857Y-142834523D01*
X91447619Y-142929761D01*
X91304761Y-142977380D01*
X91209523Y-142977380D01*
X92495238Y-142310714D02*
X92495238Y-142977380D01*
X92257142Y-141929761D02*
X92019047Y-142644047D01*
X92638095Y-142644047D01*
X92971428Y-142072619D02*
X93019047Y-142025000D01*
X93114285Y-141977380D01*
X93352380Y-141977380D01*
X93447619Y-142025000D01*
X93495238Y-142072619D01*
X93542857Y-142167857D01*
X93542857Y-142263095D01*
X93495238Y-142405952D01*
X92923809Y-142977380D01*
X93542857Y-142977380D01*
%TO.C,J43*%
X177235476Y-141977380D02*
X177235476Y-142691666D01*
X177187857Y-142834523D01*
X177092619Y-142929761D01*
X176949761Y-142977380D01*
X176854523Y-142977380D01*
X178140238Y-142310714D02*
X178140238Y-142977380D01*
X177902142Y-141929761D02*
X177664047Y-142644047D01*
X178283095Y-142644047D01*
X178568809Y-141977380D02*
X179187857Y-141977380D01*
X178854523Y-142358333D01*
X178997380Y-142358333D01*
X179092619Y-142405952D01*
X179140238Y-142453571D01*
X179187857Y-142548809D01*
X179187857Y-142786904D01*
X179140238Y-142882142D01*
X179092619Y-142929761D01*
X178997380Y-142977380D01*
X178711666Y-142977380D01*
X178616428Y-142929761D01*
X178568809Y-142882142D01*
%TO.C,J44*%
X160660476Y-141977380D02*
X160660476Y-142691666D01*
X160612857Y-142834523D01*
X160517619Y-142929761D01*
X160374761Y-142977380D01*
X160279523Y-142977380D01*
X161565238Y-142310714D02*
X161565238Y-142977380D01*
X161327142Y-141929761D02*
X161089047Y-142644047D01*
X161708095Y-142644047D01*
X162517619Y-142310714D02*
X162517619Y-142977380D01*
X162279523Y-141929761D02*
X162041428Y-142644047D01*
X162660476Y-142644047D01*
%TO.C,J45*%
X187190476Y-21952380D02*
X187190476Y-22666666D01*
X187142857Y-22809523D01*
X187047619Y-22904761D01*
X186904761Y-22952380D01*
X186809523Y-22952380D01*
X188095238Y-22285714D02*
X188095238Y-22952380D01*
X187857142Y-21904761D02*
X187619047Y-22619047D01*
X188238095Y-22619047D01*
X189095238Y-21952380D02*
X188619047Y-21952380D01*
X188571428Y-22428571D01*
X188619047Y-22380952D01*
X188714285Y-22333333D01*
X188952380Y-22333333D01*
X189047619Y-22380952D01*
X189095238Y-22428571D01*
X189142857Y-22523809D01*
X189142857Y-22761904D01*
X189095238Y-22857142D01*
X189047619Y-22904761D01*
X188952380Y-22952380D01*
X188714285Y-22952380D01*
X188619047Y-22904761D01*
X188571428Y-22857142D01*
%TO.C,J46*%
X27190476Y-192952380D02*
X27190476Y-193666666D01*
X27142857Y-193809523D01*
X27047619Y-193904761D01*
X26904761Y-193952380D01*
X26809523Y-193952380D01*
X28095238Y-193285714D02*
X28095238Y-193952380D01*
X27857142Y-192904761D02*
X27619047Y-193619047D01*
X28238095Y-193619047D01*
X29047619Y-192952380D02*
X28857142Y-192952380D01*
X28761904Y-193000000D01*
X28714285Y-193047619D01*
X28619047Y-193190476D01*
X28571428Y-193380952D01*
X28571428Y-193761904D01*
X28619047Y-193857142D01*
X28666666Y-193904761D01*
X28761904Y-193952380D01*
X28952380Y-193952380D01*
X29047619Y-193904761D01*
X29095238Y-193857142D01*
X29142857Y-193761904D01*
X29142857Y-193523809D01*
X29095238Y-193428571D01*
X29047619Y-193380952D01*
X28952380Y-193333333D01*
X28761904Y-193333333D01*
X28666666Y-193380952D01*
X28619047Y-193428571D01*
X28571428Y-193523809D01*
%TO.C,K1*%
D15*
X26354524Y-68892379D02*
X25084524Y-68892379D01*
X26354524Y-68166665D02*
X25628810Y-68710951D01*
X25084524Y-68166665D02*
X25810239Y-68892379D01*
X26354524Y-66957141D02*
X26354524Y-67682856D01*
X26354524Y-67319999D02*
X25084524Y-67319999D01*
X25265953Y-67440951D01*
X25386905Y-67561903D01*
X25447381Y-67682856D01*
%TO.C,K2*%
X26204523Y-124237380D02*
X24934523Y-124237380D01*
X26204523Y-123511666D02*
X25478809Y-124055952D01*
X24934523Y-123511666D02*
X25660238Y-124237380D01*
X25055476Y-123027857D02*
X24995000Y-122967380D01*
X24934523Y-122846428D01*
X24934523Y-122544047D01*
X24995000Y-122423095D01*
X25055476Y-122362619D01*
X25176428Y-122302142D01*
X25297380Y-122302142D01*
X25478809Y-122362619D01*
X26204523Y-123088333D01*
X26204523Y-122302142D01*
%TO.C,K3*%
X26204523Y-179737380D02*
X24934523Y-179737380D01*
X26204523Y-179011666D02*
X25478809Y-179555952D01*
X24934523Y-179011666D02*
X25660238Y-179737380D01*
X24934523Y-178588333D02*
X24934523Y-177802142D01*
X25418333Y-178225476D01*
X25418333Y-178044047D01*
X25478809Y-177923095D01*
X25539285Y-177862619D01*
X25660238Y-177802142D01*
X25962619Y-177802142D01*
X26083571Y-177862619D01*
X26144047Y-177923095D01*
X26204523Y-178044047D01*
X26204523Y-178406904D01*
X26144047Y-178527857D01*
X26083571Y-178588333D01*
%TO.C,R1*%
D14*
X23383751Y-52241666D02*
X22907561Y-52575000D01*
X23383751Y-52813095D02*
X22383751Y-52813095D01*
X22383751Y-52432142D01*
X22431371Y-52336904D01*
X22478990Y-52289285D01*
X22574228Y-52241666D01*
X22717085Y-52241666D01*
X22812323Y-52289285D01*
X22859942Y-52336904D01*
X22907561Y-52432142D01*
X22907561Y-52813095D01*
X23383751Y-51289285D02*
X23383751Y-51860714D01*
X23383751Y-51575000D02*
X22383751Y-51575000D01*
X22526609Y-51670238D01*
X22621847Y-51765476D01*
X22669466Y-51860714D01*
%TO.C,R2*%
X64813333Y-41677380D02*
X64480000Y-41201190D01*
X64241904Y-41677380D02*
X64241904Y-40677380D01*
X64622857Y-40677380D01*
X64718095Y-40725000D01*
X64765714Y-40772619D01*
X64813333Y-40867857D01*
X64813333Y-41010714D01*
X64765714Y-41105952D01*
X64718095Y-41153571D01*
X64622857Y-41201190D01*
X64241904Y-41201190D01*
X65194285Y-40772619D02*
X65241904Y-40725000D01*
X65337142Y-40677380D01*
X65575238Y-40677380D01*
X65670476Y-40725000D01*
X65718095Y-40772619D01*
X65765714Y-40867857D01*
X65765714Y-40963095D01*
X65718095Y-41105952D01*
X65146666Y-41677380D01*
X65765714Y-41677380D01*
%TO.C,R3*%
X117208333Y-41777380D02*
X116875000Y-41301190D01*
X116636904Y-41777380D02*
X116636904Y-40777380D01*
X117017857Y-40777380D01*
X117113095Y-40825000D01*
X117160714Y-40872619D01*
X117208333Y-40967857D01*
X117208333Y-41110714D01*
X117160714Y-41205952D01*
X117113095Y-41253571D01*
X117017857Y-41301190D01*
X116636904Y-41301190D01*
X117541666Y-40777380D02*
X118160714Y-40777380D01*
X117827380Y-41158333D01*
X117970238Y-41158333D01*
X118065476Y-41205952D01*
X118113095Y-41253571D01*
X118160714Y-41348809D01*
X118160714Y-41586904D01*
X118113095Y-41682142D01*
X118065476Y-41729761D01*
X117970238Y-41777380D01*
X117684523Y-41777380D01*
X117589285Y-41729761D01*
X117541666Y-41682142D01*
%TO.C,R4*%
X48113333Y-41702380D02*
X47780000Y-41226190D01*
X47541904Y-41702380D02*
X47541904Y-40702380D01*
X47922857Y-40702380D01*
X48018095Y-40750000D01*
X48065714Y-40797619D01*
X48113333Y-40892857D01*
X48113333Y-41035714D01*
X48065714Y-41130952D01*
X48018095Y-41178571D01*
X47922857Y-41226190D01*
X47541904Y-41226190D01*
X48970476Y-41035714D02*
X48970476Y-41702380D01*
X48732380Y-40654761D02*
X48494285Y-41369047D01*
X49113333Y-41369047D01*
%TO.C,R5*%
X82758333Y-41802380D02*
X82425000Y-41326190D01*
X82186904Y-41802380D02*
X82186904Y-40802380D01*
X82567857Y-40802380D01*
X82663095Y-40850000D01*
X82710714Y-40897619D01*
X82758333Y-40992857D01*
X82758333Y-41135714D01*
X82710714Y-41230952D01*
X82663095Y-41278571D01*
X82567857Y-41326190D01*
X82186904Y-41326190D01*
X83663095Y-40802380D02*
X83186904Y-40802380D01*
X83139285Y-41278571D01*
X83186904Y-41230952D01*
X83282142Y-41183333D01*
X83520238Y-41183333D01*
X83615476Y-41230952D01*
X83663095Y-41278571D01*
X83710714Y-41373809D01*
X83710714Y-41611904D01*
X83663095Y-41707142D01*
X83615476Y-41754761D01*
X83520238Y-41802380D01*
X83282142Y-41802380D01*
X83186904Y-41754761D01*
X83139285Y-41707142D01*
%TO.C,R6*%
X151608333Y-41764880D02*
X151275000Y-41288690D01*
X151036904Y-41764880D02*
X151036904Y-40764880D01*
X151417857Y-40764880D01*
X151513095Y-40812500D01*
X151560714Y-40860119D01*
X151608333Y-40955357D01*
X151608333Y-41098214D01*
X151560714Y-41193452D01*
X151513095Y-41241071D01*
X151417857Y-41288690D01*
X151036904Y-41288690D01*
X152465476Y-40764880D02*
X152275000Y-40764880D01*
X152179761Y-40812500D01*
X152132142Y-40860119D01*
X152036904Y-41002976D01*
X151989285Y-41193452D01*
X151989285Y-41574404D01*
X152036904Y-41669642D01*
X152084523Y-41717261D01*
X152179761Y-41764880D01*
X152370238Y-41764880D01*
X152465476Y-41717261D01*
X152513095Y-41669642D01*
X152560714Y-41574404D01*
X152560714Y-41336309D01*
X152513095Y-41241071D01*
X152465476Y-41193452D01*
X152370238Y-41145833D01*
X152179761Y-41145833D01*
X152084523Y-41193452D01*
X152036904Y-41241071D01*
X151989285Y-41336309D01*
%TO.C,R7*%
X133858333Y-41802380D02*
X133525000Y-41326190D01*
X133286904Y-41802380D02*
X133286904Y-40802380D01*
X133667857Y-40802380D01*
X133763095Y-40850000D01*
X133810714Y-40897619D01*
X133858333Y-40992857D01*
X133858333Y-41135714D01*
X133810714Y-41230952D01*
X133763095Y-41278571D01*
X133667857Y-41326190D01*
X133286904Y-41326190D01*
X134191666Y-40802380D02*
X134858333Y-40802380D01*
X134429761Y-41802380D01*
%TO.C,R8*%
X101773333Y-41802380D02*
X101440000Y-41326190D01*
X101201904Y-41802380D02*
X101201904Y-40802380D01*
X101582857Y-40802380D01*
X101678095Y-40850000D01*
X101725714Y-40897619D01*
X101773333Y-40992857D01*
X101773333Y-41135714D01*
X101725714Y-41230952D01*
X101678095Y-41278571D01*
X101582857Y-41326190D01*
X101201904Y-41326190D01*
X102344761Y-41230952D02*
X102249523Y-41183333D01*
X102201904Y-41135714D01*
X102154285Y-41040476D01*
X102154285Y-40992857D01*
X102201904Y-40897619D01*
X102249523Y-40850000D01*
X102344761Y-40802380D01*
X102535238Y-40802380D01*
X102630476Y-40850000D01*
X102678095Y-40897619D01*
X102725714Y-40992857D01*
X102725714Y-41040476D01*
X102678095Y-41135714D01*
X102630476Y-41183333D01*
X102535238Y-41230952D01*
X102344761Y-41230952D01*
X102249523Y-41278571D01*
X102201904Y-41326190D01*
X102154285Y-41421428D01*
X102154285Y-41611904D01*
X102201904Y-41707142D01*
X102249523Y-41754761D01*
X102344761Y-41802380D01*
X102535238Y-41802380D01*
X102630476Y-41754761D01*
X102678095Y-41707142D01*
X102725714Y-41611904D01*
X102725714Y-41421428D01*
X102678095Y-41326190D01*
X102630476Y-41278571D01*
X102535238Y-41230952D01*
%TO.C,R9*%
X168283333Y-41789880D02*
X167950000Y-41313690D01*
X167711904Y-41789880D02*
X167711904Y-40789880D01*
X168092857Y-40789880D01*
X168188095Y-40837500D01*
X168235714Y-40885119D01*
X168283333Y-40980357D01*
X168283333Y-41123214D01*
X168235714Y-41218452D01*
X168188095Y-41266071D01*
X168092857Y-41313690D01*
X167711904Y-41313690D01*
X168759523Y-41789880D02*
X168950000Y-41789880D01*
X169045238Y-41742261D01*
X169092857Y-41694642D01*
X169188095Y-41551785D01*
X169235714Y-41361309D01*
X169235714Y-40980357D01*
X169188095Y-40885119D01*
X169140476Y-40837500D01*
X169045238Y-40789880D01*
X168854761Y-40789880D01*
X168759523Y-40837500D01*
X168711904Y-40885119D01*
X168664285Y-40980357D01*
X168664285Y-41218452D01*
X168711904Y-41313690D01*
X168759523Y-41361309D01*
X168854761Y-41408928D01*
X169045238Y-41408928D01*
X169140476Y-41361309D01*
X169188095Y-41313690D01*
X169235714Y-41218452D01*
%TO.C,R10*%
X22302380Y-58267856D02*
X21826190Y-58601189D01*
X22302380Y-58839284D02*
X21302380Y-58839284D01*
X21302380Y-58458332D01*
X21350000Y-58363094D01*
X21397619Y-58315475D01*
X21492857Y-58267856D01*
X21635714Y-58267856D01*
X21730952Y-58315475D01*
X21778571Y-58363094D01*
X21826190Y-58458332D01*
X21826190Y-58839284D01*
X22302380Y-57315475D02*
X22302380Y-57886903D01*
X22302380Y-57601189D02*
X21302380Y-57601189D01*
X21445238Y-57696427D01*
X21540476Y-57791665D01*
X21588095Y-57886903D01*
X21302380Y-56696427D02*
X21302380Y-56601189D01*
X21350000Y-56505951D01*
X21397619Y-56458332D01*
X21492857Y-56410713D01*
X21683333Y-56363094D01*
X21921428Y-56363094D01*
X22111904Y-56410713D01*
X22207142Y-56458332D01*
X22254761Y-56505951D01*
X22302380Y-56601189D01*
X22302380Y-56696427D01*
X22254761Y-56791665D01*
X22207142Y-56839284D01*
X22111904Y-56886903D01*
X21921428Y-56934522D01*
X21683333Y-56934522D01*
X21492857Y-56886903D01*
X21397619Y-56839284D01*
X21350000Y-56791665D01*
X21302380Y-56696427D01*
%TO.C,R11*%
X23202380Y-107617857D02*
X22726190Y-107951190D01*
X23202380Y-108189285D02*
X22202380Y-108189285D01*
X22202380Y-107808333D01*
X22250000Y-107713095D01*
X22297619Y-107665476D01*
X22392857Y-107617857D01*
X22535714Y-107617857D01*
X22630952Y-107665476D01*
X22678571Y-107713095D01*
X22726190Y-107808333D01*
X22726190Y-108189285D01*
X23202380Y-106665476D02*
X23202380Y-107236904D01*
X23202380Y-106951190D02*
X22202380Y-106951190D01*
X22345238Y-107046428D01*
X22440476Y-107141666D01*
X22488095Y-107236904D01*
X23202380Y-105713095D02*
X23202380Y-106284523D01*
X23202380Y-105998809D02*
X22202380Y-105998809D01*
X22345238Y-106094047D01*
X22440476Y-106189285D01*
X22488095Y-106284523D01*
%TO.C,R12*%
X117107142Y-97277380D02*
X116773809Y-96801190D01*
X116535714Y-97277380D02*
X116535714Y-96277380D01*
X116916666Y-96277380D01*
X117011904Y-96325000D01*
X117059523Y-96372619D01*
X117107142Y-96467857D01*
X117107142Y-96610714D01*
X117059523Y-96705952D01*
X117011904Y-96753571D01*
X116916666Y-96801190D01*
X116535714Y-96801190D01*
X118059523Y-97277380D02*
X117488095Y-97277380D01*
X117773809Y-97277380D02*
X117773809Y-96277380D01*
X117678571Y-96420238D01*
X117583333Y-96515476D01*
X117488095Y-96563095D01*
X118440476Y-96372619D02*
X118488095Y-96325000D01*
X118583333Y-96277380D01*
X118821428Y-96277380D01*
X118916666Y-96325000D01*
X118964285Y-96372619D01*
X119011904Y-96467857D01*
X119011904Y-96563095D01*
X118964285Y-96705952D01*
X118392857Y-97277380D01*
X119011904Y-97277380D01*
%TO.C,R13*%
X47282142Y-97277380D02*
X46948809Y-96801190D01*
X46710714Y-97277380D02*
X46710714Y-96277380D01*
X47091666Y-96277380D01*
X47186904Y-96325000D01*
X47234523Y-96372619D01*
X47282142Y-96467857D01*
X47282142Y-96610714D01*
X47234523Y-96705952D01*
X47186904Y-96753571D01*
X47091666Y-96801190D01*
X46710714Y-96801190D01*
X48234523Y-97277380D02*
X47663095Y-97277380D01*
X47948809Y-97277380D02*
X47948809Y-96277380D01*
X47853571Y-96420238D01*
X47758333Y-96515476D01*
X47663095Y-96563095D01*
X48567857Y-96277380D02*
X49186904Y-96277380D01*
X48853571Y-96658333D01*
X48996428Y-96658333D01*
X49091666Y-96705952D01*
X49139285Y-96753571D01*
X49186904Y-96848809D01*
X49186904Y-97086904D01*
X49139285Y-97182142D01*
X49091666Y-97229761D01*
X48996428Y-97277380D01*
X48710714Y-97277380D01*
X48615476Y-97229761D01*
X48567857Y-97182142D01*
%TO.C,R14*%
X82207142Y-97277380D02*
X81873809Y-96801190D01*
X81635714Y-97277380D02*
X81635714Y-96277380D01*
X82016666Y-96277380D01*
X82111904Y-96325000D01*
X82159523Y-96372619D01*
X82207142Y-96467857D01*
X82207142Y-96610714D01*
X82159523Y-96705952D01*
X82111904Y-96753571D01*
X82016666Y-96801190D01*
X81635714Y-96801190D01*
X83159523Y-97277380D02*
X82588095Y-97277380D01*
X82873809Y-97277380D02*
X82873809Y-96277380D01*
X82778571Y-96420238D01*
X82683333Y-96515476D01*
X82588095Y-96563095D01*
X84016666Y-96610714D02*
X84016666Y-97277380D01*
X83778571Y-96229761D02*
X83540476Y-96944047D01*
X84159523Y-96944047D01*
%TO.C,R15*%
X151267142Y-97277380D02*
X150933809Y-96801190D01*
X150695714Y-97277380D02*
X150695714Y-96277380D01*
X151076666Y-96277380D01*
X151171904Y-96325000D01*
X151219523Y-96372619D01*
X151267142Y-96467857D01*
X151267142Y-96610714D01*
X151219523Y-96705952D01*
X151171904Y-96753571D01*
X151076666Y-96801190D01*
X150695714Y-96801190D01*
X152219523Y-97277380D02*
X151648095Y-97277380D01*
X151933809Y-97277380D02*
X151933809Y-96277380D01*
X151838571Y-96420238D01*
X151743333Y-96515476D01*
X151648095Y-96563095D01*
X153124285Y-96277380D02*
X152648095Y-96277380D01*
X152600476Y-96753571D01*
X152648095Y-96705952D01*
X152743333Y-96658333D01*
X152981428Y-96658333D01*
X153076666Y-96705952D01*
X153124285Y-96753571D01*
X153171904Y-96848809D01*
X153171904Y-97086904D01*
X153124285Y-97182142D01*
X153076666Y-97229761D01*
X152981428Y-97277380D01*
X152743333Y-97277380D01*
X152648095Y-97229761D01*
X152600476Y-97182142D01*
%TO.C,R16*%
X133107142Y-97202380D02*
X132773809Y-96726190D01*
X132535714Y-97202380D02*
X132535714Y-96202380D01*
X132916666Y-96202380D01*
X133011904Y-96250000D01*
X133059523Y-96297619D01*
X133107142Y-96392857D01*
X133107142Y-96535714D01*
X133059523Y-96630952D01*
X133011904Y-96678571D01*
X132916666Y-96726190D01*
X132535714Y-96726190D01*
X134059523Y-97202380D02*
X133488095Y-97202380D01*
X133773809Y-97202380D02*
X133773809Y-96202380D01*
X133678571Y-96345238D01*
X133583333Y-96440476D01*
X133488095Y-96488095D01*
X134916666Y-96202380D02*
X134726190Y-96202380D01*
X134630952Y-96250000D01*
X134583333Y-96297619D01*
X134488095Y-96440476D01*
X134440476Y-96630952D01*
X134440476Y-97011904D01*
X134488095Y-97107142D01*
X134535714Y-97154761D01*
X134630952Y-97202380D01*
X134821428Y-97202380D01*
X134916666Y-97154761D01*
X134964285Y-97107142D01*
X135011904Y-97011904D01*
X135011904Y-96773809D01*
X134964285Y-96678571D01*
X134916666Y-96630952D01*
X134821428Y-96583333D01*
X134630952Y-96583333D01*
X134535714Y-96630952D01*
X134488095Y-96678571D01*
X134440476Y-96773809D01*
%TO.C,R17*%
X64007142Y-97277380D02*
X63673809Y-96801190D01*
X63435714Y-97277380D02*
X63435714Y-96277380D01*
X63816666Y-96277380D01*
X63911904Y-96325000D01*
X63959523Y-96372619D01*
X64007142Y-96467857D01*
X64007142Y-96610714D01*
X63959523Y-96705952D01*
X63911904Y-96753571D01*
X63816666Y-96801190D01*
X63435714Y-96801190D01*
X64959523Y-97277380D02*
X64388095Y-97277380D01*
X64673809Y-97277380D02*
X64673809Y-96277380D01*
X64578571Y-96420238D01*
X64483333Y-96515476D01*
X64388095Y-96563095D01*
X65292857Y-96277380D02*
X65959523Y-96277380D01*
X65530952Y-97277380D01*
%TO.C,R18*%
X98457142Y-97277380D02*
X98123809Y-96801190D01*
X97885714Y-97277380D02*
X97885714Y-96277380D01*
X98266666Y-96277380D01*
X98361904Y-96325000D01*
X98409523Y-96372619D01*
X98457142Y-96467857D01*
X98457142Y-96610714D01*
X98409523Y-96705952D01*
X98361904Y-96753571D01*
X98266666Y-96801190D01*
X97885714Y-96801190D01*
X99409523Y-97277380D02*
X98838095Y-97277380D01*
X99123809Y-97277380D02*
X99123809Y-96277380D01*
X99028571Y-96420238D01*
X98933333Y-96515476D01*
X98838095Y-96563095D01*
X99980952Y-96705952D02*
X99885714Y-96658333D01*
X99838095Y-96610714D01*
X99790476Y-96515476D01*
X99790476Y-96467857D01*
X99838095Y-96372619D01*
X99885714Y-96325000D01*
X99980952Y-96277380D01*
X100171428Y-96277380D01*
X100266666Y-96325000D01*
X100314285Y-96372619D01*
X100361904Y-96467857D01*
X100361904Y-96515476D01*
X100314285Y-96610714D01*
X100266666Y-96658333D01*
X100171428Y-96705952D01*
X99980952Y-96705952D01*
X99885714Y-96753571D01*
X99838095Y-96801190D01*
X99790476Y-96896428D01*
X99790476Y-97086904D01*
X99838095Y-97182142D01*
X99885714Y-97229761D01*
X99980952Y-97277380D01*
X100171428Y-97277380D01*
X100266666Y-97229761D01*
X100314285Y-97182142D01*
X100361904Y-97086904D01*
X100361904Y-96896428D01*
X100314285Y-96801190D01*
X100266666Y-96753571D01*
X100171428Y-96705952D01*
%TO.C,R19*%
X167757142Y-97277380D02*
X167423809Y-96801190D01*
X167185714Y-97277380D02*
X167185714Y-96277380D01*
X167566666Y-96277380D01*
X167661904Y-96325000D01*
X167709523Y-96372619D01*
X167757142Y-96467857D01*
X167757142Y-96610714D01*
X167709523Y-96705952D01*
X167661904Y-96753571D01*
X167566666Y-96801190D01*
X167185714Y-96801190D01*
X168709523Y-97277380D02*
X168138095Y-97277380D01*
X168423809Y-97277380D02*
X168423809Y-96277380D01*
X168328571Y-96420238D01*
X168233333Y-96515476D01*
X168138095Y-96563095D01*
X169185714Y-97277380D02*
X169376190Y-97277380D01*
X169471428Y-97229761D01*
X169519047Y-97182142D01*
X169614285Y-97039285D01*
X169661904Y-96848809D01*
X169661904Y-96467857D01*
X169614285Y-96372619D01*
X169566666Y-96325000D01*
X169471428Y-96277380D01*
X169280952Y-96277380D01*
X169185714Y-96325000D01*
X169138095Y-96372619D01*
X169090476Y-96467857D01*
X169090476Y-96705952D01*
X169138095Y-96801190D01*
X169185714Y-96848809D01*
X169280952Y-96896428D01*
X169471428Y-96896428D01*
X169566666Y-96848809D01*
X169614285Y-96801190D01*
X169661904Y-96705952D01*
%TO.C,R20*%
X22432380Y-113193542D02*
X21956190Y-113526875D01*
X22432380Y-113764970D02*
X21432380Y-113764970D01*
X21432380Y-113384018D01*
X21480000Y-113288780D01*
X21527619Y-113241161D01*
X21622857Y-113193542D01*
X21765714Y-113193542D01*
X21860952Y-113241161D01*
X21908571Y-113288780D01*
X21956190Y-113384018D01*
X21956190Y-113764970D01*
X21527619Y-112812589D02*
X21480000Y-112764970D01*
X21432380Y-112669732D01*
X21432380Y-112431637D01*
X21480000Y-112336399D01*
X21527619Y-112288780D01*
X21622857Y-112241161D01*
X21718095Y-112241161D01*
X21860952Y-112288780D01*
X22432380Y-112860208D01*
X22432380Y-112241161D01*
X21432380Y-111622113D02*
X21432380Y-111526875D01*
X21480000Y-111431637D01*
X21527619Y-111384018D01*
X21622857Y-111336399D01*
X21813333Y-111288780D01*
X22051428Y-111288780D01*
X22241904Y-111336399D01*
X22337142Y-111384018D01*
X22384761Y-111431637D01*
X22432380Y-111526875D01*
X22432380Y-111622113D01*
X22384761Y-111717351D01*
X22337142Y-111764970D01*
X22241904Y-111812589D01*
X22051428Y-111860208D01*
X21813333Y-111860208D01*
X21622857Y-111812589D01*
X21527619Y-111764970D01*
X21480000Y-111717351D01*
X21432380Y-111622113D01*
%TO.C,R21*%
X22822380Y-163017857D02*
X22346190Y-163351190D01*
X22822380Y-163589285D02*
X21822380Y-163589285D01*
X21822380Y-163208333D01*
X21870000Y-163113095D01*
X21917619Y-163065476D01*
X22012857Y-163017857D01*
X22155714Y-163017857D01*
X22250952Y-163065476D01*
X22298571Y-163113095D01*
X22346190Y-163208333D01*
X22346190Y-163589285D01*
X21917619Y-162636904D02*
X21870000Y-162589285D01*
X21822380Y-162494047D01*
X21822380Y-162255952D01*
X21870000Y-162160714D01*
X21917619Y-162113095D01*
X22012857Y-162065476D01*
X22108095Y-162065476D01*
X22250952Y-162113095D01*
X22822380Y-162684523D01*
X22822380Y-162065476D01*
X22822380Y-161113095D02*
X22822380Y-161684523D01*
X22822380Y-161398809D02*
X21822380Y-161398809D01*
X21965238Y-161494047D01*
X22060476Y-161589285D01*
X22108095Y-161684523D01*
%TO.C,R22*%
X116582142Y-152552380D02*
X116248809Y-152076190D01*
X116010714Y-152552380D02*
X116010714Y-151552380D01*
X116391666Y-151552380D01*
X116486904Y-151600000D01*
X116534523Y-151647619D01*
X116582142Y-151742857D01*
X116582142Y-151885714D01*
X116534523Y-151980952D01*
X116486904Y-152028571D01*
X116391666Y-152076190D01*
X116010714Y-152076190D01*
X116963095Y-151647619D02*
X117010714Y-151600000D01*
X117105952Y-151552380D01*
X117344047Y-151552380D01*
X117439285Y-151600000D01*
X117486904Y-151647619D01*
X117534523Y-151742857D01*
X117534523Y-151838095D01*
X117486904Y-151980952D01*
X116915476Y-152552380D01*
X117534523Y-152552380D01*
X117915476Y-151647619D02*
X117963095Y-151600000D01*
X118058333Y-151552380D01*
X118296428Y-151552380D01*
X118391666Y-151600000D01*
X118439285Y-151647619D01*
X118486904Y-151742857D01*
X118486904Y-151838095D01*
X118439285Y-151980952D01*
X117867857Y-152552380D01*
X118486904Y-152552380D01*
%TO.C,R23*%
X47857142Y-152452380D02*
X47523809Y-151976190D01*
X47285714Y-152452380D02*
X47285714Y-151452380D01*
X47666666Y-151452380D01*
X47761904Y-151500000D01*
X47809523Y-151547619D01*
X47857142Y-151642857D01*
X47857142Y-151785714D01*
X47809523Y-151880952D01*
X47761904Y-151928571D01*
X47666666Y-151976190D01*
X47285714Y-151976190D01*
X48238095Y-151547619D02*
X48285714Y-151500000D01*
X48380952Y-151452380D01*
X48619047Y-151452380D01*
X48714285Y-151500000D01*
X48761904Y-151547619D01*
X48809523Y-151642857D01*
X48809523Y-151738095D01*
X48761904Y-151880952D01*
X48190476Y-152452380D01*
X48809523Y-152452380D01*
X49142857Y-151452380D02*
X49761904Y-151452380D01*
X49428571Y-151833333D01*
X49571428Y-151833333D01*
X49666666Y-151880952D01*
X49714285Y-151928571D01*
X49761904Y-152023809D01*
X49761904Y-152261904D01*
X49714285Y-152357142D01*
X49666666Y-152404761D01*
X49571428Y-152452380D01*
X49285714Y-152452380D01*
X49190476Y-152404761D01*
X49142857Y-152357142D01*
%TO.C,R24*%
X82082142Y-152477380D02*
X81748809Y-152001190D01*
X81510714Y-152477380D02*
X81510714Y-151477380D01*
X81891666Y-151477380D01*
X81986904Y-151525000D01*
X82034523Y-151572619D01*
X82082142Y-151667857D01*
X82082142Y-151810714D01*
X82034523Y-151905952D01*
X81986904Y-151953571D01*
X81891666Y-152001190D01*
X81510714Y-152001190D01*
X82463095Y-151572619D02*
X82510714Y-151525000D01*
X82605952Y-151477380D01*
X82844047Y-151477380D01*
X82939285Y-151525000D01*
X82986904Y-151572619D01*
X83034523Y-151667857D01*
X83034523Y-151763095D01*
X82986904Y-151905952D01*
X82415476Y-152477380D01*
X83034523Y-152477380D01*
X83891666Y-151810714D02*
X83891666Y-152477380D01*
X83653571Y-151429761D02*
X83415476Y-152144047D01*
X84034523Y-152144047D01*
%TO.C,R25*%
X151287142Y-152597380D02*
X150953809Y-152121190D01*
X150715714Y-152597380D02*
X150715714Y-151597380D01*
X151096666Y-151597380D01*
X151191904Y-151645000D01*
X151239523Y-151692619D01*
X151287142Y-151787857D01*
X151287142Y-151930714D01*
X151239523Y-152025952D01*
X151191904Y-152073571D01*
X151096666Y-152121190D01*
X150715714Y-152121190D01*
X151668095Y-151692619D02*
X151715714Y-151645000D01*
X151810952Y-151597380D01*
X152049047Y-151597380D01*
X152144285Y-151645000D01*
X152191904Y-151692619D01*
X152239523Y-151787857D01*
X152239523Y-151883095D01*
X152191904Y-152025952D01*
X151620476Y-152597380D01*
X152239523Y-152597380D01*
X153144285Y-151597380D02*
X152668095Y-151597380D01*
X152620476Y-152073571D01*
X152668095Y-152025952D01*
X152763333Y-151978333D01*
X153001428Y-151978333D01*
X153096666Y-152025952D01*
X153144285Y-152073571D01*
X153191904Y-152168809D01*
X153191904Y-152406904D01*
X153144285Y-152502142D01*
X153096666Y-152549761D01*
X153001428Y-152597380D01*
X152763333Y-152597380D01*
X152668095Y-152549761D01*
X152620476Y-152502142D01*
%TO.C,R26*%
X133047142Y-152434880D02*
X132713809Y-151958690D01*
X132475714Y-152434880D02*
X132475714Y-151434880D01*
X132856666Y-151434880D01*
X132951904Y-151482500D01*
X132999523Y-151530119D01*
X133047142Y-151625357D01*
X133047142Y-151768214D01*
X132999523Y-151863452D01*
X132951904Y-151911071D01*
X132856666Y-151958690D01*
X132475714Y-151958690D01*
X133428095Y-151530119D02*
X133475714Y-151482500D01*
X133570952Y-151434880D01*
X133809047Y-151434880D01*
X133904285Y-151482500D01*
X133951904Y-151530119D01*
X133999523Y-151625357D01*
X133999523Y-151720595D01*
X133951904Y-151863452D01*
X133380476Y-152434880D01*
X133999523Y-152434880D01*
X134856666Y-151434880D02*
X134666190Y-151434880D01*
X134570952Y-151482500D01*
X134523333Y-151530119D01*
X134428095Y-151672976D01*
X134380476Y-151863452D01*
X134380476Y-152244404D01*
X134428095Y-152339642D01*
X134475714Y-152387261D01*
X134570952Y-152434880D01*
X134761428Y-152434880D01*
X134856666Y-152387261D01*
X134904285Y-152339642D01*
X134951904Y-152244404D01*
X134951904Y-152006309D01*
X134904285Y-151911071D01*
X134856666Y-151863452D01*
X134761428Y-151815833D01*
X134570952Y-151815833D01*
X134475714Y-151863452D01*
X134428095Y-151911071D01*
X134380476Y-152006309D01*
%TO.C,R27*%
X64057142Y-152599880D02*
X63723809Y-152123690D01*
X63485714Y-152599880D02*
X63485714Y-151599880D01*
X63866666Y-151599880D01*
X63961904Y-151647500D01*
X64009523Y-151695119D01*
X64057142Y-151790357D01*
X64057142Y-151933214D01*
X64009523Y-152028452D01*
X63961904Y-152076071D01*
X63866666Y-152123690D01*
X63485714Y-152123690D01*
X64438095Y-151695119D02*
X64485714Y-151647500D01*
X64580952Y-151599880D01*
X64819047Y-151599880D01*
X64914285Y-151647500D01*
X64961904Y-151695119D01*
X65009523Y-151790357D01*
X65009523Y-151885595D01*
X64961904Y-152028452D01*
X64390476Y-152599880D01*
X65009523Y-152599880D01*
X65342857Y-151599880D02*
X66009523Y-151599880D01*
X65580952Y-152599880D01*
%TO.C,R28*%
X98632142Y-152452380D02*
X98298809Y-151976190D01*
X98060714Y-152452380D02*
X98060714Y-151452380D01*
X98441666Y-151452380D01*
X98536904Y-151500000D01*
X98584523Y-151547619D01*
X98632142Y-151642857D01*
X98632142Y-151785714D01*
X98584523Y-151880952D01*
X98536904Y-151928571D01*
X98441666Y-151976190D01*
X98060714Y-151976190D01*
X99013095Y-151547619D02*
X99060714Y-151500000D01*
X99155952Y-151452380D01*
X99394047Y-151452380D01*
X99489285Y-151500000D01*
X99536904Y-151547619D01*
X99584523Y-151642857D01*
X99584523Y-151738095D01*
X99536904Y-151880952D01*
X98965476Y-152452380D01*
X99584523Y-152452380D01*
X100155952Y-151880952D02*
X100060714Y-151833333D01*
X100013095Y-151785714D01*
X99965476Y-151690476D01*
X99965476Y-151642857D01*
X100013095Y-151547619D01*
X100060714Y-151500000D01*
X100155952Y-151452380D01*
X100346428Y-151452380D01*
X100441666Y-151500000D01*
X100489285Y-151547619D01*
X100536904Y-151642857D01*
X100536904Y-151690476D01*
X100489285Y-151785714D01*
X100441666Y-151833333D01*
X100346428Y-151880952D01*
X100155952Y-151880952D01*
X100060714Y-151928571D01*
X100013095Y-151976190D01*
X99965476Y-152071428D01*
X99965476Y-152261904D01*
X100013095Y-152357142D01*
X100060714Y-152404761D01*
X100155952Y-152452380D01*
X100346428Y-152452380D01*
X100441666Y-152404761D01*
X100489285Y-152357142D01*
X100536904Y-152261904D01*
X100536904Y-152071428D01*
X100489285Y-151976190D01*
X100441666Y-151928571D01*
X100346428Y-151880952D01*
%TO.C,R29*%
X167587142Y-152652380D02*
X167253809Y-152176190D01*
X167015714Y-152652380D02*
X167015714Y-151652380D01*
X167396666Y-151652380D01*
X167491904Y-151700000D01*
X167539523Y-151747619D01*
X167587142Y-151842857D01*
X167587142Y-151985714D01*
X167539523Y-152080952D01*
X167491904Y-152128571D01*
X167396666Y-152176190D01*
X167015714Y-152176190D01*
X167968095Y-151747619D02*
X168015714Y-151700000D01*
X168110952Y-151652380D01*
X168349047Y-151652380D01*
X168444285Y-151700000D01*
X168491904Y-151747619D01*
X168539523Y-151842857D01*
X168539523Y-151938095D01*
X168491904Y-152080952D01*
X167920476Y-152652380D01*
X168539523Y-152652380D01*
X169015714Y-152652380D02*
X169206190Y-152652380D01*
X169301428Y-152604761D01*
X169349047Y-152557142D01*
X169444285Y-152414285D01*
X169491904Y-152223809D01*
X169491904Y-151842857D01*
X169444285Y-151747619D01*
X169396666Y-151700000D01*
X169301428Y-151652380D01*
X169110952Y-151652380D01*
X169015714Y-151700000D01*
X168968095Y-151747619D01*
X168920476Y-151842857D01*
X168920476Y-152080952D01*
X168968095Y-152176190D01*
X169015714Y-152223809D01*
X169110952Y-152271428D01*
X169301428Y-152271428D01*
X169396666Y-152223809D01*
X169444285Y-152176190D01*
X169491904Y-152080952D01*
%TO.C,R30*%
X22382380Y-168668542D02*
X21906190Y-169001875D01*
X22382380Y-169239970D02*
X21382380Y-169239970D01*
X21382380Y-168859018D01*
X21430000Y-168763780D01*
X21477619Y-168716161D01*
X21572857Y-168668542D01*
X21715714Y-168668542D01*
X21810952Y-168716161D01*
X21858571Y-168763780D01*
X21906190Y-168859018D01*
X21906190Y-169239970D01*
X21382380Y-168335208D02*
X21382380Y-167716161D01*
X21763333Y-168049494D01*
X21763333Y-167906637D01*
X21810952Y-167811399D01*
X21858571Y-167763780D01*
X21953809Y-167716161D01*
X22191904Y-167716161D01*
X22287142Y-167763780D01*
X22334761Y-167811399D01*
X22382380Y-167906637D01*
X22382380Y-168192351D01*
X22334761Y-168287589D01*
X22287142Y-168335208D01*
X21382380Y-167097113D02*
X21382380Y-167001875D01*
X21430000Y-166906637D01*
X21477619Y-166859018D01*
X21572857Y-166811399D01*
X21763333Y-166763780D01*
X22001428Y-166763780D01*
X22191904Y-166811399D01*
X22287142Y-166859018D01*
X22334761Y-166906637D01*
X22382380Y-167001875D01*
X22382380Y-167097113D01*
X22334761Y-167192351D01*
X22287142Y-167239970D01*
X22191904Y-167287589D01*
X22001428Y-167335208D01*
X21763333Y-167335208D01*
X21572857Y-167287589D01*
X21477619Y-167239970D01*
X21430000Y-167192351D01*
X21382380Y-167097113D01*
%TO.C,D1*%
X32661904Y-48052380D02*
X32661904Y-47052380D01*
X32900000Y-47052380D01*
X33042857Y-47100000D01*
X33138095Y-47195238D01*
X33185714Y-47290476D01*
X33233333Y-47480952D01*
X33233333Y-47623809D01*
X33185714Y-47814285D01*
X33138095Y-47909523D01*
X33042857Y-48004761D01*
X32900000Y-48052380D01*
X32661904Y-48052380D01*
X34185714Y-48052380D02*
X33614285Y-48052380D01*
X33900000Y-48052380D02*
X33900000Y-47052380D01*
X33804761Y-47195238D01*
X33709523Y-47290476D01*
X33614285Y-47338095D01*
%TO.C,D5*%
X32761904Y-159452380D02*
X32761904Y-158452380D01*
X33000000Y-158452380D01*
X33142857Y-158500000D01*
X33238095Y-158595238D01*
X33285714Y-158690476D01*
X33333333Y-158880952D01*
X33333333Y-159023809D01*
X33285714Y-159214285D01*
X33238095Y-159309523D01*
X33142857Y-159404761D01*
X33000000Y-159452380D01*
X32761904Y-159452380D01*
X34238095Y-158452380D02*
X33761904Y-158452380D01*
X33714285Y-158928571D01*
X33761904Y-158880952D01*
X33857142Y-158833333D01*
X34095238Y-158833333D01*
X34190476Y-158880952D01*
X34238095Y-158928571D01*
X34285714Y-159023809D01*
X34285714Y-159261904D01*
X34238095Y-159357142D01*
X34190476Y-159404761D01*
X34095238Y-159452380D01*
X33857142Y-159452380D01*
X33761904Y-159404761D01*
X33714285Y-159357142D01*
%TO.C,Q1*%
X26304761Y-48447619D02*
X26209523Y-48400000D01*
X26114285Y-48304761D01*
X25971428Y-48161904D01*
X25876190Y-48114285D01*
X25780952Y-48114285D01*
X25828571Y-48352380D02*
X25733333Y-48304761D01*
X25638095Y-48209523D01*
X25590476Y-48019047D01*
X25590476Y-47685714D01*
X25638095Y-47495238D01*
X25733333Y-47400000D01*
X25828571Y-47352380D01*
X26019047Y-47352380D01*
X26114285Y-47400000D01*
X26209523Y-47495238D01*
X26257142Y-47685714D01*
X26257142Y-48019047D01*
X26209523Y-48209523D01*
X26114285Y-48304761D01*
X26019047Y-48352380D01*
X25828571Y-48352380D01*
X27209523Y-48352380D02*
X26638095Y-48352380D01*
X26923809Y-48352380D02*
X26923809Y-47352380D01*
X26828571Y-47495238D01*
X26733333Y-47590476D01*
X26638095Y-47638095D01*
%TO.C,Q2*%
X25729761Y-103872619D02*
X25634523Y-103825000D01*
X25539285Y-103729761D01*
X25396428Y-103586904D01*
X25301190Y-103539285D01*
X25205952Y-103539285D01*
X25253571Y-103777380D02*
X25158333Y-103729761D01*
X25063095Y-103634523D01*
X25015476Y-103444047D01*
X25015476Y-103110714D01*
X25063095Y-102920238D01*
X25158333Y-102825000D01*
X25253571Y-102777380D01*
X25444047Y-102777380D01*
X25539285Y-102825000D01*
X25634523Y-102920238D01*
X25682142Y-103110714D01*
X25682142Y-103444047D01*
X25634523Y-103634523D01*
X25539285Y-103729761D01*
X25444047Y-103777380D01*
X25253571Y-103777380D01*
X26063095Y-102872619D02*
X26110714Y-102825000D01*
X26205952Y-102777380D01*
X26444047Y-102777380D01*
X26539285Y-102825000D01*
X26586904Y-102872619D01*
X26634523Y-102967857D01*
X26634523Y-103063095D01*
X26586904Y-103205952D01*
X26015476Y-103777380D01*
X26634523Y-103777380D01*
%TD*%
M02*
