%TF.GenerationSoftware,KiCad,Pcbnew,(5.1.9)-1*%
%TF.CreationDate,2021-07-25T11:44:51+02:00*%
%TF.ProjectId,RelayControls-HPK,52656c61-7943-46f6-9e74-726f6c732d48,V0.1*%
%TF.SameCoordinates,Original*%
%TF.FileFunction,Legend,Bot*%
%TF.FilePolarity,Positive*%
%FSLAX46Y46*%
G04 Gerber Fmt 4.6, Leading zero omitted, Abs format (unit mm)*
G04 Created by KiCad (PCBNEW (5.1.9)-1) date 2021-07-25 11:44:51*
%MOMM*%
%LPD*%
G01*
G04 APERTURE LIST*
%ADD10C,0.500000*%
%ADD11C,0.010000*%
G04 APERTURE END LIST*
D10*
X174035714Y-201857142D02*
X175035714Y-200428571D01*
X175750000Y-201857142D02*
X175750000Y-198857142D01*
X174607142Y-198857142D01*
X174321428Y-199000000D01*
X174178571Y-199142857D01*
X174035714Y-199428571D01*
X174035714Y-199857142D01*
X174178571Y-200142857D01*
X174321428Y-200285714D01*
X174607142Y-200428571D01*
X175750000Y-200428571D01*
X171607142Y-201714285D02*
X171892857Y-201857142D01*
X172464285Y-201857142D01*
X172750000Y-201714285D01*
X172892857Y-201428571D01*
X172892857Y-200285714D01*
X172750000Y-200000000D01*
X172464285Y-199857142D01*
X171892857Y-199857142D01*
X171607142Y-200000000D01*
X171464285Y-200285714D01*
X171464285Y-200571428D01*
X172892857Y-200857142D01*
X169750000Y-201857142D02*
X170035714Y-201714285D01*
X170178571Y-201428571D01*
X170178571Y-198857142D01*
X167321428Y-201857142D02*
X167321428Y-200285714D01*
X167464285Y-200000000D01*
X167750000Y-199857142D01*
X168321428Y-199857142D01*
X168607142Y-200000000D01*
X167321428Y-201714285D02*
X167607142Y-201857142D01*
X168321428Y-201857142D01*
X168607142Y-201714285D01*
X168750000Y-201428571D01*
X168750000Y-201142857D01*
X168607142Y-200857142D01*
X168321428Y-200714285D01*
X167607142Y-200714285D01*
X167321428Y-200571428D01*
X166178571Y-199857142D02*
X165464285Y-201857142D01*
X164750000Y-199857142D02*
X165464285Y-201857142D01*
X165750000Y-202571428D01*
X165892857Y-202714285D01*
X166178571Y-202857142D01*
X160321428Y-200285714D02*
X159892857Y-200428571D01*
X159750000Y-200571428D01*
X159607142Y-200857142D01*
X159607142Y-201285714D01*
X159750000Y-201571428D01*
X159892857Y-201714285D01*
X160178571Y-201857142D01*
X161321428Y-201857142D01*
X161321428Y-198857142D01*
X160321428Y-198857142D01*
X160035714Y-199000000D01*
X159892857Y-199142857D01*
X159750000Y-199428571D01*
X159750000Y-199714285D01*
X159892857Y-200000000D01*
X160035714Y-200142857D01*
X160321428Y-200285714D01*
X161321428Y-200285714D01*
X157892857Y-201857142D02*
X158178571Y-201714285D01*
X158321428Y-201571428D01*
X158464285Y-201285714D01*
X158464285Y-200428571D01*
X158321428Y-200142857D01*
X158178571Y-200000000D01*
X157892857Y-199857142D01*
X157464285Y-199857142D01*
X157178571Y-200000000D01*
X157035714Y-200142857D01*
X156892857Y-200428571D01*
X156892857Y-201285714D01*
X157035714Y-201571428D01*
X157178571Y-201714285D01*
X157464285Y-201857142D01*
X157892857Y-201857142D01*
X155892857Y-201857142D02*
X154321428Y-199857142D01*
X155892857Y-199857142D02*
X154321428Y-201857142D01*
X150321428Y-198857142D02*
X150035714Y-198857142D01*
X149750000Y-199000000D01*
X149607142Y-199142857D01*
X149464285Y-199428571D01*
X149321428Y-200000000D01*
X149321428Y-200714285D01*
X149464285Y-201285714D01*
X149607142Y-201571428D01*
X149750000Y-201714285D01*
X150035714Y-201857142D01*
X150321428Y-201857142D01*
X150607142Y-201714285D01*
X150750000Y-201571428D01*
X150892857Y-201285714D01*
X151035714Y-200714285D01*
X151035714Y-200000000D01*
X150892857Y-199428571D01*
X150750000Y-199142857D01*
X150607142Y-199000000D01*
X150321428Y-198857142D01*
X148321428Y-198857142D02*
X146321428Y-198857142D01*
X147607142Y-201857142D01*
X145178571Y-201571428D02*
X145035714Y-201714285D01*
X145178571Y-201857142D01*
X145321428Y-201714285D01*
X145178571Y-201571428D01*
X145178571Y-201857142D01*
X143892857Y-199142857D02*
X143750000Y-199000000D01*
X143464285Y-198857142D01*
X142750000Y-198857142D01*
X142464285Y-199000000D01*
X142321428Y-199142857D01*
X142178571Y-199428571D01*
X142178571Y-199714285D01*
X142321428Y-200142857D01*
X144035714Y-201857142D01*
X142178571Y-201857142D01*
X140321428Y-198857142D02*
X140035714Y-198857142D01*
X139750000Y-199000000D01*
X139607142Y-199142857D01*
X139464285Y-199428571D01*
X139321428Y-200000000D01*
X139321428Y-200714285D01*
X139464285Y-201285714D01*
X139607142Y-201571428D01*
X139750000Y-201714285D01*
X140035714Y-201857142D01*
X140321428Y-201857142D01*
X140607142Y-201714285D01*
X140750000Y-201571428D01*
X140892857Y-201285714D01*
X141035714Y-200714285D01*
X141035714Y-200000000D01*
X140892857Y-199428571D01*
X140750000Y-199142857D01*
X140607142Y-199000000D01*
X140321428Y-198857142D01*
X138178571Y-199142857D02*
X138035714Y-199000000D01*
X137750000Y-198857142D01*
X137035714Y-198857142D01*
X136750000Y-199000000D01*
X136607142Y-199142857D01*
X136464285Y-199428571D01*
X136464285Y-199714285D01*
X136607142Y-200142857D01*
X138321428Y-201857142D01*
X136464285Y-201857142D01*
X133607142Y-201857142D02*
X135321428Y-201857142D01*
X134464285Y-201857142D02*
X134464285Y-198857142D01*
X134750000Y-199285714D01*
X135035714Y-199571428D01*
X135321428Y-199714285D01*
D11*
%TO.C,G\u002A\u002A\u002A*%
G36*
X120595243Y-98823573D02*
G01*
X120343171Y-99044898D01*
X119767754Y-99622972D01*
X118905495Y-100519003D01*
X117792899Y-101694201D01*
X116466469Y-103109774D01*
X114962711Y-104726933D01*
X113318128Y-106506885D01*
X111569225Y-108410840D01*
X111426343Y-108566866D01*
X102640527Y-118163157D01*
X102569102Y-111531575D01*
X102497677Y-104899992D01*
X101833839Y-104733380D01*
X101031599Y-104667590D01*
X100501579Y-104734530D01*
X99833158Y-104902293D01*
X99833158Y-123946489D01*
X97293158Y-126689413D01*
X96376703Y-127690090D01*
X95607299Y-128551173D01*
X95050685Y-129197466D01*
X94772599Y-129553772D01*
X94753158Y-129594853D01*
X94946036Y-129744496D01*
X95504053Y-129540458D01*
X95724098Y-129419216D01*
X96026332Y-129152787D01*
X96644376Y-128534377D01*
X97535772Y-127608980D01*
X98658063Y-126421589D01*
X99968792Y-125017199D01*
X101425502Y-123440801D01*
X102985734Y-121737390D01*
X103344098Y-121344090D01*
X104973423Y-119555898D01*
X106550315Y-117828437D01*
X108024409Y-116216647D01*
X109345343Y-114775471D01*
X110462754Y-113559850D01*
X111326276Y-112624724D01*
X111885548Y-112025035D01*
X111922268Y-111986195D01*
X113450325Y-110373158D01*
X113459636Y-117138860D01*
X113468948Y-123904562D01*
X114738948Y-123823070D01*
X116008948Y-123741579D01*
X116079202Y-114150641D01*
X116149457Y-104559704D01*
X118724592Y-101778838D01*
X119851887Y-100534997D01*
X120606782Y-99635234D01*
X121004592Y-99055358D01*
X121060628Y-98771177D01*
X120790204Y-98758499D01*
X120595243Y-98823573D01*
G37*
X120595243Y-98823573D02*
X120343171Y-99044898D01*
X119767754Y-99622972D01*
X118905495Y-100519003D01*
X117792899Y-101694201D01*
X116466469Y-103109774D01*
X114962711Y-104726933D01*
X113318128Y-106506885D01*
X111569225Y-108410840D01*
X111426343Y-108566866D01*
X102640527Y-118163157D01*
X102569102Y-111531575D01*
X102497677Y-104899992D01*
X101833839Y-104733380D01*
X101031599Y-104667590D01*
X100501579Y-104734530D01*
X99833158Y-104902293D01*
X99833158Y-123946489D01*
X97293158Y-126689413D01*
X96376703Y-127690090D01*
X95607299Y-128551173D01*
X95050685Y-129197466D01*
X94772599Y-129553772D01*
X94753158Y-129594853D01*
X94946036Y-129744496D01*
X95504053Y-129540458D01*
X95724098Y-129419216D01*
X96026332Y-129152787D01*
X96644376Y-128534377D01*
X97535772Y-127608980D01*
X98658063Y-126421589D01*
X99968792Y-125017199D01*
X101425502Y-123440801D01*
X102985734Y-121737390D01*
X103344098Y-121344090D01*
X104973423Y-119555898D01*
X106550315Y-117828437D01*
X108024409Y-116216647D01*
X109345343Y-114775471D01*
X110462754Y-113559850D01*
X111326276Y-112624724D01*
X111885548Y-112025035D01*
X111922268Y-111986195D01*
X113450325Y-110373158D01*
X113459636Y-117138860D01*
X113468948Y-123904562D01*
X114738948Y-123823070D01*
X116008948Y-123741579D01*
X116079202Y-114150641D01*
X116149457Y-104559704D01*
X118724592Y-101778838D01*
X119851887Y-100534997D01*
X120606782Y-99635234D01*
X121004592Y-99055358D01*
X121060628Y-98771177D01*
X120790204Y-98758499D01*
X120595243Y-98823573D01*
G36*
X136232967Y-104712905D02*
G01*
X134774807Y-105137847D01*
X133580373Y-105802668D01*
X133151026Y-106195246D01*
X132919529Y-106525359D01*
X132956565Y-106852046D01*
X133303259Y-107346873D01*
X133477842Y-107558601D01*
X134226697Y-108455609D01*
X135051454Y-107845840D01*
X136205845Y-107229405D01*
X137424789Y-106970555D01*
X138607505Y-107040636D01*
X139653214Y-107410995D01*
X140461135Y-108052977D01*
X140930487Y-108937930D01*
X141007895Y-109539356D01*
X140941451Y-110099005D01*
X140699088Y-110596663D01*
X140216264Y-111084166D01*
X139428436Y-111613347D01*
X138271060Y-112236043D01*
X136713535Y-112988167D01*
X135161300Y-113752117D01*
X134028489Y-114411992D01*
X133229720Y-115040120D01*
X132679613Y-115708825D01*
X132292789Y-116490433D01*
X132168937Y-116837876D01*
X131904604Y-118411773D01*
X132118230Y-119922853D01*
X132753070Y-121302289D01*
X133752379Y-122481252D01*
X135059414Y-123390916D01*
X136617430Y-123962453D01*
X138181628Y-124130896D01*
X139252765Y-124065160D01*
X140267532Y-123908819D01*
X140772001Y-123773508D01*
X142227154Y-123103705D01*
X143538043Y-122228707D01*
X144167594Y-121654494D01*
X144778171Y-121004564D01*
X143941993Y-120300966D01*
X143205635Y-119767649D01*
X142660521Y-119641573D01*
X142163377Y-119912797D01*
X141918281Y-120160556D01*
X140856580Y-120990984D01*
X139533746Y-121524967D01*
X138119277Y-121727901D01*
X136782667Y-121565184D01*
X136186512Y-121330737D01*
X135378566Y-120659377D01*
X134834660Y-119710270D01*
X134596180Y-118644056D01*
X134704512Y-117621376D01*
X135058948Y-116954158D01*
X135475508Y-116634703D01*
X136274718Y-116169674D01*
X137345559Y-115619001D01*
X138577010Y-115042617D01*
X138706690Y-114984999D01*
X140429265Y-114173787D01*
X141702679Y-113438504D01*
X142593802Y-112714886D01*
X143169506Y-111938669D01*
X143496661Y-111045591D01*
X143618755Y-110264499D01*
X143661336Y-109330770D01*
X143620917Y-108511363D01*
X143576656Y-108253613D01*
X143166754Y-107402763D01*
X142415493Y-106478506D01*
X141465942Y-105633877D01*
X140632579Y-105104403D01*
X139317575Y-104673478D01*
X137799130Y-104550547D01*
X136232967Y-104712905D01*
G37*
X136232967Y-104712905D02*
X134774807Y-105137847D01*
X133580373Y-105802668D01*
X133151026Y-106195246D01*
X132919529Y-106525359D01*
X132956565Y-106852046D01*
X133303259Y-107346873D01*
X133477842Y-107558601D01*
X134226697Y-108455609D01*
X135051454Y-107845840D01*
X136205845Y-107229405D01*
X137424789Y-106970555D01*
X138607505Y-107040636D01*
X139653214Y-107410995D01*
X140461135Y-108052977D01*
X140930487Y-108937930D01*
X141007895Y-109539356D01*
X140941451Y-110099005D01*
X140699088Y-110596663D01*
X140216264Y-111084166D01*
X139428436Y-111613347D01*
X138271060Y-112236043D01*
X136713535Y-112988167D01*
X135161300Y-113752117D01*
X134028489Y-114411992D01*
X133229720Y-115040120D01*
X132679613Y-115708825D01*
X132292789Y-116490433D01*
X132168937Y-116837876D01*
X131904604Y-118411773D01*
X132118230Y-119922853D01*
X132753070Y-121302289D01*
X133752379Y-122481252D01*
X135059414Y-123390916D01*
X136617430Y-123962453D01*
X138181628Y-124130896D01*
X139252765Y-124065160D01*
X140267532Y-123908819D01*
X140772001Y-123773508D01*
X142227154Y-123103705D01*
X143538043Y-122228707D01*
X144167594Y-121654494D01*
X144778171Y-121004564D01*
X143941993Y-120300966D01*
X143205635Y-119767649D01*
X142660521Y-119641573D01*
X142163377Y-119912797D01*
X141918281Y-120160556D01*
X140856580Y-120990984D01*
X139533746Y-121524967D01*
X138119277Y-121727901D01*
X136782667Y-121565184D01*
X136186512Y-121330737D01*
X135378566Y-120659377D01*
X134834660Y-119710270D01*
X134596180Y-118644056D01*
X134704512Y-117621376D01*
X135058948Y-116954158D01*
X135475508Y-116634703D01*
X136274718Y-116169674D01*
X137345559Y-115619001D01*
X138577010Y-115042617D01*
X138706690Y-114984999D01*
X140429265Y-114173787D01*
X141702679Y-113438504D01*
X142593802Y-112714886D01*
X143169506Y-111938669D01*
X143496661Y-111045591D01*
X143618755Y-110264499D01*
X143661336Y-109330770D01*
X143620917Y-108511363D01*
X143576656Y-108253613D01*
X143166754Y-107402763D01*
X142415493Y-106478506D01*
X141465942Y-105633877D01*
X140632579Y-105104403D01*
X139317575Y-104673478D01*
X137799130Y-104550547D01*
X136232967Y-104712905D01*
G36*
X89881857Y-104679889D02*
G01*
X88606180Y-105058597D01*
X87338222Y-105774751D01*
X87335511Y-105776582D01*
X86693510Y-106286537D01*
X86520646Y-106722688D01*
X86806415Y-107228873D01*
X87200000Y-107632097D01*
X87935263Y-108333186D01*
X89004737Y-107683489D01*
X90100327Y-107228924D01*
X91349721Y-107028961D01*
X92553735Y-107093666D01*
X93513182Y-107433103D01*
X93545900Y-107454005D01*
X94204214Y-108163849D01*
X94572049Y-109121358D01*
X94572834Y-110097847D01*
X94505749Y-110320662D01*
X94279497Y-110765276D01*
X93915149Y-111164090D01*
X93331145Y-111569521D01*
X92445925Y-112033983D01*
X91177929Y-112609891D01*
X90464626Y-112917704D01*
X88657570Y-113779574D01*
X87326789Y-114642800D01*
X86417305Y-115569699D01*
X85874144Y-116622585D01*
X85642329Y-117863775D01*
X85624436Y-118404053D01*
X85715250Y-119457897D01*
X85946212Y-120453668D01*
X86079240Y-120795543D01*
X86813870Y-121873018D01*
X87877791Y-122868775D01*
X89072778Y-123613534D01*
X89635310Y-123832335D01*
X90970021Y-124071008D01*
X92484293Y-124097623D01*
X93912626Y-123917501D01*
X94561606Y-123733629D01*
X95557305Y-123266940D01*
X96578485Y-122627661D01*
X97447815Y-121939641D01*
X97973221Y-121350949D01*
X98130792Y-120955372D01*
X97962256Y-120602023D01*
X97527983Y-120215824D01*
X96835095Y-119737088D01*
X96336970Y-119650563D01*
X95869316Y-119952200D01*
X95663544Y-120169866D01*
X94745834Y-120886935D01*
X93516433Y-121429261D01*
X92191108Y-121710030D01*
X91784803Y-121730444D01*
X90512448Y-121529485D01*
X89454328Y-120972961D01*
X88683443Y-120149796D01*
X88272796Y-119148917D01*
X88295388Y-118059250D01*
X88430875Y-117644876D01*
X88679977Y-117116833D01*
X88983101Y-116701500D01*
X89433841Y-116334250D01*
X90125788Y-115950459D01*
X91152534Y-115485500D01*
X92193534Y-115046749D01*
X93661785Y-114420788D01*
X94722363Y-113921422D01*
X95469097Y-113489668D01*
X95995815Y-113066543D01*
X96396347Y-112593062D01*
X96608155Y-112271568D01*
X97241125Y-110813275D01*
X97386128Y-109367537D01*
X97087310Y-107999811D01*
X96388818Y-106775556D01*
X95334796Y-105760230D01*
X93969393Y-105019288D01*
X92336753Y-104618191D01*
X91411053Y-104565590D01*
X89881857Y-104679889D01*
G37*
X89881857Y-104679889D02*
X88606180Y-105058597D01*
X87338222Y-105774751D01*
X87335511Y-105776582D01*
X86693510Y-106286537D01*
X86520646Y-106722688D01*
X86806415Y-107228873D01*
X87200000Y-107632097D01*
X87935263Y-108333186D01*
X89004737Y-107683489D01*
X90100327Y-107228924D01*
X91349721Y-107028961D01*
X92553735Y-107093666D01*
X93513182Y-107433103D01*
X93545900Y-107454005D01*
X94204214Y-108163849D01*
X94572049Y-109121358D01*
X94572834Y-110097847D01*
X94505749Y-110320662D01*
X94279497Y-110765276D01*
X93915149Y-111164090D01*
X93331145Y-111569521D01*
X92445925Y-112033983D01*
X91177929Y-112609891D01*
X90464626Y-112917704D01*
X88657570Y-113779574D01*
X87326789Y-114642800D01*
X86417305Y-115569699D01*
X85874144Y-116622585D01*
X85642329Y-117863775D01*
X85624436Y-118404053D01*
X85715250Y-119457897D01*
X85946212Y-120453668D01*
X86079240Y-120795543D01*
X86813870Y-121873018D01*
X87877791Y-122868775D01*
X89072778Y-123613534D01*
X89635310Y-123832335D01*
X90970021Y-124071008D01*
X92484293Y-124097623D01*
X93912626Y-123917501D01*
X94561606Y-123733629D01*
X95557305Y-123266940D01*
X96578485Y-122627661D01*
X97447815Y-121939641D01*
X97973221Y-121350949D01*
X98130792Y-120955372D01*
X97962256Y-120602023D01*
X97527983Y-120215824D01*
X96835095Y-119737088D01*
X96336970Y-119650563D01*
X95869316Y-119952200D01*
X95663544Y-120169866D01*
X94745834Y-120886935D01*
X93516433Y-121429261D01*
X92191108Y-121710030D01*
X91784803Y-121730444D01*
X90512448Y-121529485D01*
X89454328Y-120972961D01*
X88683443Y-120149796D01*
X88272796Y-119148917D01*
X88295388Y-118059250D01*
X88430875Y-117644876D01*
X88679977Y-117116833D01*
X88983101Y-116701500D01*
X89433841Y-116334250D01*
X90125788Y-115950459D01*
X91152534Y-115485500D01*
X92193534Y-115046749D01*
X93661785Y-114420788D01*
X94722363Y-113921422D01*
X95469097Y-113489668D01*
X95995815Y-113066543D01*
X96396347Y-112593062D01*
X96608155Y-112271568D01*
X97241125Y-110813275D01*
X97386128Y-109367537D01*
X97087310Y-107999811D01*
X96388818Y-106775556D01*
X95334796Y-105760230D01*
X93969393Y-105019288D01*
X92336753Y-104618191D01*
X91411053Y-104565590D01*
X89881857Y-104679889D01*
G36*
X118147895Y-123741579D02*
G01*
X124112468Y-123813578D01*
X130077040Y-123885577D01*
X129912106Y-121602631D01*
X118147895Y-121602631D01*
X118147895Y-123741579D01*
G37*
X118147895Y-123741579D02*
X124112468Y-123813578D01*
X130077040Y-123885577D01*
X129912106Y-121602631D01*
X118147895Y-121602631D01*
X118147895Y-123741579D01*
G36*
X76116644Y-104460789D02*
G01*
X75750891Y-105129027D01*
X75241019Y-106163779D01*
X74614727Y-107500428D01*
X73899716Y-109074356D01*
X73123685Y-110820945D01*
X72314335Y-112675577D01*
X71499366Y-114573635D01*
X70706477Y-116450500D01*
X69963369Y-118241555D01*
X69297741Y-119882182D01*
X68737294Y-121307764D01*
X68309728Y-122453682D01*
X68042742Y-123255318D01*
X67964037Y-123648055D01*
X67973553Y-123672079D01*
X68367602Y-123800534D01*
X69072289Y-123838972D01*
X69367121Y-123825569D01*
X70523209Y-123741579D01*
X73345820Y-116990526D01*
X74091478Y-115221566D01*
X74775765Y-113625780D01*
X75370586Y-112266487D01*
X75847848Y-111207007D01*
X76179455Y-110510658D01*
X76337313Y-110240761D01*
X76341238Y-110239473D01*
X76534605Y-110464032D01*
X76823395Y-111031565D01*
X76961931Y-111358854D01*
X77195557Y-111928086D01*
X77601607Y-112901858D01*
X78143294Y-114192602D01*
X78783828Y-115712749D01*
X79486420Y-117374730D01*
X79826254Y-118176749D01*
X82242689Y-123875263D01*
X83551608Y-123875263D01*
X84439425Y-123813768D01*
X84833888Y-123624420D01*
X84860527Y-123529464D01*
X84757994Y-123214088D01*
X84465728Y-122463538D01*
X84006731Y-121333243D01*
X83404003Y-119878630D01*
X82680543Y-118155125D01*
X81859352Y-116218156D01*
X80963431Y-114123150D01*
X80783158Y-113703675D01*
X79563638Y-110891825D01*
X78537223Y-108576221D01*
X77702956Y-106754829D01*
X77059876Y-105425616D01*
X76607025Y-104586548D01*
X76343443Y-104235592D01*
X76310578Y-104223684D01*
X76116644Y-104460789D01*
G37*
X76116644Y-104460789D02*
X75750891Y-105129027D01*
X75241019Y-106163779D01*
X74614727Y-107500428D01*
X73899716Y-109074356D01*
X73123685Y-110820945D01*
X72314335Y-112675577D01*
X71499366Y-114573635D01*
X70706477Y-116450500D01*
X69963369Y-118241555D01*
X69297741Y-119882182D01*
X68737294Y-121307764D01*
X68309728Y-122453682D01*
X68042742Y-123255318D01*
X67964037Y-123648055D01*
X67973553Y-123672079D01*
X68367602Y-123800534D01*
X69072289Y-123838972D01*
X69367121Y-123825569D01*
X70523209Y-123741579D01*
X73345820Y-116990526D01*
X74091478Y-115221566D01*
X74775765Y-113625780D01*
X75370586Y-112266487D01*
X75847848Y-111207007D01*
X76179455Y-110510658D01*
X76337313Y-110240761D01*
X76341238Y-110239473D01*
X76534605Y-110464032D01*
X76823395Y-111031565D01*
X76961931Y-111358854D01*
X77195557Y-111928086D01*
X77601607Y-112901858D01*
X78143294Y-114192602D01*
X78783828Y-115712749D01*
X79486420Y-117374730D01*
X79826254Y-118176749D01*
X82242689Y-123875263D01*
X83551608Y-123875263D01*
X84439425Y-123813768D01*
X84833888Y-123624420D01*
X84860527Y-123529464D01*
X84757994Y-123214088D01*
X84465728Y-122463538D01*
X84006731Y-121333243D01*
X83404003Y-119878630D01*
X82680543Y-118155125D01*
X81859352Y-116218156D01*
X80963431Y-114123150D01*
X80783158Y-113703675D01*
X79563638Y-110891825D01*
X78537223Y-108576221D01*
X77702956Y-106754829D01*
X77059876Y-105425616D01*
X76607025Y-104586548D01*
X76343443Y-104235592D01*
X76310578Y-104223684D01*
X76116644Y-104460789D01*
G36*
X118600155Y-114044111D02*
G01*
X118682632Y-115185789D01*
X124236829Y-115258075D01*
X126141336Y-115277456D01*
X127575807Y-115277001D01*
X128604694Y-115253186D01*
X129292449Y-115202490D01*
X129703523Y-115121390D01*
X129902369Y-115006363D01*
X129938347Y-114946450D01*
X130019145Y-114404505D01*
X129998886Y-113804690D01*
X129912106Y-113046842D01*
X124214892Y-112974637D01*
X118517677Y-112902432D01*
X118600155Y-114044111D01*
G37*
X118600155Y-114044111D02*
X118682632Y-115185789D01*
X124236829Y-115258075D01*
X126141336Y-115277456D01*
X127575807Y-115277001D01*
X128604694Y-115253186D01*
X129292449Y-115202490D01*
X129703523Y-115121390D01*
X129902369Y-115006363D01*
X129938347Y-114946450D01*
X130019145Y-114404505D01*
X129998886Y-113804690D01*
X129912106Y-113046842D01*
X124214892Y-112974637D01*
X118517677Y-112902432D01*
X118600155Y-114044111D01*
G36*
X122761815Y-104632384D02*
G01*
X121315087Y-104648155D01*
X120057400Y-104675795D01*
X119092131Y-104715306D01*
X118522659Y-104766686D01*
X118437131Y-104787026D01*
X118113770Y-105180371D01*
X118014211Y-105990184D01*
X118014211Y-107031052D01*
X130045790Y-107031052D01*
X130045790Y-105990184D01*
X129936386Y-105152363D01*
X129622870Y-104787026D01*
X129212835Y-104731578D01*
X128371574Y-104688000D01*
X127202463Y-104656291D01*
X125808881Y-104636452D01*
X124294205Y-104628483D01*
X122761815Y-104632384D01*
G37*
X122761815Y-104632384D02*
X121315087Y-104648155D01*
X120057400Y-104675795D01*
X119092131Y-104715306D01*
X118522659Y-104766686D01*
X118437131Y-104787026D01*
X118113770Y-105180371D01*
X118014211Y-105990184D01*
X118014211Y-107031052D01*
X130045790Y-107031052D01*
X130045790Y-105990184D01*
X129936386Y-105152363D01*
X129622870Y-104787026D01*
X129212835Y-104731578D01*
X128371574Y-104688000D01*
X127202463Y-104656291D01*
X125808881Y-104636452D01*
X124294205Y-104628483D01*
X122761815Y-104632384D01*
%TD*%
M02*
