%TF.GenerationSoftware,KiCad,Pcbnew,(5.1.9)-1*%
%TF.CreationDate,2021-07-25T11:44:51+02:00*%
%TF.ProjectId,RelayControls-HPK,52656c61-7943-46f6-9e74-726f6c732d48,V0.1*%
%TF.SameCoordinates,Original*%
%TF.FileFunction,Soldermask,Bot*%
%TF.FilePolarity,Negative*%
%FSLAX46Y46*%
G04 Gerber Fmt 4.6, Leading zero omitted, Abs format (unit mm)*
G04 Created by KiCad (PCBNEW (5.1.9)-1) date 2021-07-25 11:44:51*
%MOMM*%
%LPD*%
G01*
G04 APERTURE LIST*
%ADD10R,1.600000X1.600000*%
%ADD11O,1.600000X1.600000*%
%ADD12C,10.160000*%
G04 APERTURE END LIST*
D10*
%TO.C,D2*%
X26850000Y-56200000D03*
D11*
X26850000Y-58740000D03*
%TD*%
%TO.C,D4*%
X26743629Y-113665000D03*
D10*
X26743629Y-111125000D03*
%TD*%
%TO.C,D6*%
X26638629Y-166600000D03*
D11*
X26638629Y-169140000D03*
%TD*%
D12*
%TO.C,J1*%
X28000000Y-29000000D03*
%TD*%
%TO.C,J2*%
X188000000Y-200000000D03*
%TD*%
%TO.C,J3*%
X38300000Y-78350000D03*
%TD*%
%TO.C,J4*%
X66200000Y-78350000D03*
%TD*%
%TO.C,J5*%
X135250000Y-78375000D03*
%TD*%
%TO.C,J6*%
X100750000Y-78350000D03*
%TD*%
%TO.C,J7*%
X169775000Y-78375000D03*
%TD*%
%TO.C,J8*%
X38300000Y-38350000D03*
%TD*%
%TO.C,J9*%
X74475000Y-38350000D03*
%TD*%
%TO.C,J10*%
X57900000Y-38350000D03*
%TD*%
%TO.C,J11*%
X143525000Y-38355000D03*
%TD*%
%TO.C,J12*%
X126970000Y-38355000D03*
%TD*%
%TO.C,J13*%
X109040000Y-38355000D03*
%TD*%
%TO.C,J14*%
X92445000Y-38355000D03*
%TD*%
%TO.C,J15*%
X178070000Y-38350000D03*
%TD*%
%TO.C,J16*%
X161495000Y-38350000D03*
%TD*%
%TO.C,J17*%
X38275000Y-133750000D03*
%TD*%
%TO.C,J18*%
X135252500Y-133750000D03*
%TD*%
%TO.C,J19*%
X66182500Y-133750000D03*
%TD*%
%TO.C,J20*%
X100700000Y-133750000D03*
%TD*%
%TO.C,J21*%
X169777500Y-133750000D03*
%TD*%
%TO.C,J22*%
X38300000Y-93645000D03*
%TD*%
%TO.C,J23*%
X143525000Y-93645000D03*
%TD*%
%TO.C,J24*%
X126970000Y-93645000D03*
%TD*%
%TO.C,J25*%
X74475000Y-93645000D03*
%TD*%
%TO.C,J26*%
X57900000Y-93645000D03*
%TD*%
%TO.C,J27*%
X109000000Y-93645000D03*
%TD*%
%TO.C,J28*%
X92425000Y-93645000D03*
%TD*%
%TO.C,J29*%
X178070000Y-93645000D03*
%TD*%
%TO.C,J30*%
X161495000Y-93645000D03*
%TD*%
%TO.C,J31*%
X38275000Y-189155000D03*
%TD*%
%TO.C,J32*%
X135227500Y-189155000D03*
%TD*%
%TO.C,J33*%
X66157500Y-189155000D03*
%TD*%
%TO.C,J34*%
X100682500Y-189155000D03*
%TD*%
%TO.C,J35*%
X169752500Y-189155000D03*
%TD*%
%TO.C,J36*%
X38275000Y-149025000D03*
%TD*%
%TO.C,J37*%
X143500000Y-149025000D03*
%TD*%
%TO.C,J38*%
X126945000Y-149025000D03*
%TD*%
%TO.C,J39*%
X74450000Y-149025000D03*
%TD*%
%TO.C,J40*%
X57875000Y-149025000D03*
%TD*%
%TO.C,J41*%
X108975000Y-149000000D03*
%TD*%
%TO.C,J42*%
X92400000Y-149025000D03*
%TD*%
%TO.C,J43*%
X178045000Y-149025000D03*
%TD*%
%TO.C,J44*%
X161470000Y-149025000D03*
%TD*%
%TO.C,J45*%
X188000000Y-29000000D03*
%TD*%
%TO.C,J46*%
X28000000Y-200000000D03*
%TD*%
M02*
