%TF.GenerationSoftware,KiCad,Pcbnew,(5.1.9)-1*%
%TF.CreationDate,2021-08-08T20:50:52+02:00*%
%TF.ProjectId,SwitchBox,53776974-6368-4426-9f78-2e6b69636164,rev?*%
%TF.SameCoordinates,Original*%
%TF.FileFunction,Soldermask,Top*%
%TF.FilePolarity,Negative*%
%FSLAX46Y46*%
G04 Gerber Fmt 4.6, Leading zero omitted, Abs format (unit mm)*
G04 Created by KiCad (PCBNEW (5.1.9)-1) date 2021-08-08 20:50:52*
%MOMM*%
%LPD*%
G01*
G04 APERTURE LIST*
%ADD10R,0.600000X0.450000*%
%ADD11C,22.500000*%
%ADD12C,6.000000*%
%ADD13C,0.100000*%
%ADD14R,1.200000X2.200000*%
%ADD15R,5.800000X6.400000*%
G04 APERTURE END LIST*
%TO.C,C1*%
G36*
G01*
X95074999Y-62425000D02*
X96375001Y-62425000D01*
G75*
G02*
X96625000Y-62674999I0J-249999D01*
G01*
X96625000Y-63500001D01*
G75*
G02*
X96375001Y-63750000I-249999J0D01*
G01*
X95074999Y-63750000D01*
G75*
G02*
X94825000Y-63500001I0J249999D01*
G01*
X94825000Y-62674999D01*
G75*
G02*
X95074999Y-62425000I249999J0D01*
G01*
G37*
G36*
G01*
X95074999Y-65550000D02*
X96375001Y-65550000D01*
G75*
G02*
X96625000Y-65799999I0J-249999D01*
G01*
X96625000Y-66625001D01*
G75*
G02*
X96375001Y-66875000I-249999J0D01*
G01*
X95074999Y-66875000D01*
G75*
G02*
X94825000Y-66625001I0J249999D01*
G01*
X94825000Y-65799999D01*
G75*
G02*
X95074999Y-65550000I249999J0D01*
G01*
G37*
%TD*%
%TO.C,C2*%
G36*
G01*
X106814999Y-103681666D02*
X108115001Y-103681666D01*
G75*
G02*
X108365000Y-103931665I0J-249999D01*
G01*
X108365000Y-104756667D01*
G75*
G02*
X108115001Y-105006666I-249999J0D01*
G01*
X106814999Y-105006666D01*
G75*
G02*
X106565000Y-104756667I0J249999D01*
G01*
X106565000Y-103931665D01*
G75*
G02*
X106814999Y-103681666I249999J0D01*
G01*
G37*
G36*
G01*
X106814999Y-106806666D02*
X108115001Y-106806666D01*
G75*
G02*
X108365000Y-107056665I0J-249999D01*
G01*
X108365000Y-107881667D01*
G75*
G02*
X108115001Y-108131666I-249999J0D01*
G01*
X106814999Y-108131666D01*
G75*
G02*
X106565000Y-107881667I0J249999D01*
G01*
X106565000Y-107056665D01*
G75*
G02*
X106814999Y-106806666I249999J0D01*
G01*
G37*
%TD*%
%TO.C,C3*%
G36*
G01*
X95074999Y-148063332D02*
X96375001Y-148063332D01*
G75*
G02*
X96625000Y-148313331I0J-249999D01*
G01*
X96625000Y-149138333D01*
G75*
G02*
X96375001Y-149388332I-249999J0D01*
G01*
X95074999Y-149388332D01*
G75*
G02*
X94825000Y-149138333I0J249999D01*
G01*
X94825000Y-148313331D01*
G75*
G02*
X95074999Y-148063332I249999J0D01*
G01*
G37*
G36*
G01*
X95074999Y-144938332D02*
X96375001Y-144938332D01*
G75*
G02*
X96625000Y-145188331I0J-249999D01*
G01*
X96625000Y-146013333D01*
G75*
G02*
X96375001Y-146263332I-249999J0D01*
G01*
X95074999Y-146263332D01*
G75*
G02*
X94825000Y-146013333I0J249999D01*
G01*
X94825000Y-145188331D01*
G75*
G02*
X95074999Y-144938332I249999J0D01*
G01*
G37*
%TD*%
%TO.C,C4*%
G36*
G01*
X106814999Y-186195000D02*
X108115001Y-186195000D01*
G75*
G02*
X108365000Y-186444999I0J-249999D01*
G01*
X108365000Y-187270001D01*
G75*
G02*
X108115001Y-187520000I-249999J0D01*
G01*
X106814999Y-187520000D01*
G75*
G02*
X106565000Y-187270001I0J249999D01*
G01*
X106565000Y-186444999D01*
G75*
G02*
X106814999Y-186195000I249999J0D01*
G01*
G37*
G36*
G01*
X106814999Y-189320000D02*
X108115001Y-189320000D01*
G75*
G02*
X108365000Y-189569999I0J-249999D01*
G01*
X108365000Y-190395001D01*
G75*
G02*
X108115001Y-190645000I-249999J0D01*
G01*
X106814999Y-190645000D01*
G75*
G02*
X106565000Y-190395001I0J249999D01*
G01*
X106565000Y-189569999D01*
G75*
G02*
X106814999Y-189320000I249999J0D01*
G01*
G37*
%TD*%
%TO.C,C5*%
G36*
G01*
X118544999Y-65630000D02*
X119845001Y-65630000D01*
G75*
G02*
X120095000Y-65879999I0J-249999D01*
G01*
X120095000Y-66705001D01*
G75*
G02*
X119845001Y-66955000I-249999J0D01*
G01*
X118544999Y-66955000D01*
G75*
G02*
X118295000Y-66705001I0J249999D01*
G01*
X118295000Y-65879999D01*
G75*
G02*
X118544999Y-65630000I249999J0D01*
G01*
G37*
G36*
G01*
X118544999Y-62505000D02*
X119845001Y-62505000D01*
G75*
G02*
X120095000Y-62754999I0J-249999D01*
G01*
X120095000Y-63580001D01*
G75*
G02*
X119845001Y-63830000I-249999J0D01*
G01*
X118544999Y-63830000D01*
G75*
G02*
X118295000Y-63580001I0J249999D01*
G01*
X118295000Y-62754999D01*
G75*
G02*
X118544999Y-62505000I249999J0D01*
G01*
G37*
%TD*%
%TO.C,C6*%
G36*
G01*
X130284999Y-103681666D02*
X131585001Y-103681666D01*
G75*
G02*
X131835000Y-103931665I0J-249999D01*
G01*
X131835000Y-104756667D01*
G75*
G02*
X131585001Y-105006666I-249999J0D01*
G01*
X130284999Y-105006666D01*
G75*
G02*
X130035000Y-104756667I0J249999D01*
G01*
X130035000Y-103931665D01*
G75*
G02*
X130284999Y-103681666I249999J0D01*
G01*
G37*
G36*
G01*
X130284999Y-106806666D02*
X131585001Y-106806666D01*
G75*
G02*
X131835000Y-107056665I0J-249999D01*
G01*
X131835000Y-107881667D01*
G75*
G02*
X131585001Y-108131666I-249999J0D01*
G01*
X130284999Y-108131666D01*
G75*
G02*
X130035000Y-107881667I0J249999D01*
G01*
X130035000Y-107056665D01*
G75*
G02*
X130284999Y-106806666I249999J0D01*
G01*
G37*
%TD*%
%TO.C,C7*%
G36*
G01*
X118544999Y-148063332D02*
X119845001Y-148063332D01*
G75*
G02*
X120095000Y-148313331I0J-249999D01*
G01*
X120095000Y-149138333D01*
G75*
G02*
X119845001Y-149388332I-249999J0D01*
G01*
X118544999Y-149388332D01*
G75*
G02*
X118295000Y-149138333I0J249999D01*
G01*
X118295000Y-148313331D01*
G75*
G02*
X118544999Y-148063332I249999J0D01*
G01*
G37*
G36*
G01*
X118544999Y-144938332D02*
X119845001Y-144938332D01*
G75*
G02*
X120095000Y-145188331I0J-249999D01*
G01*
X120095000Y-146013333D01*
G75*
G02*
X119845001Y-146263332I-249999J0D01*
G01*
X118544999Y-146263332D01*
G75*
G02*
X118295000Y-146013333I0J249999D01*
G01*
X118295000Y-145188331D01*
G75*
G02*
X118544999Y-144938332I249999J0D01*
G01*
G37*
%TD*%
%TO.C,C8*%
G36*
G01*
X130284999Y-189320000D02*
X131585001Y-189320000D01*
G75*
G02*
X131835000Y-189569999I0J-249999D01*
G01*
X131835000Y-190395001D01*
G75*
G02*
X131585001Y-190645000I-249999J0D01*
G01*
X130284999Y-190645000D01*
G75*
G02*
X130035000Y-190395001I0J249999D01*
G01*
X130035000Y-189569999D01*
G75*
G02*
X130284999Y-189320000I249999J0D01*
G01*
G37*
G36*
G01*
X130284999Y-186195000D02*
X131585001Y-186195000D01*
G75*
G02*
X131835000Y-186444999I0J-249999D01*
G01*
X131835000Y-187270001D01*
G75*
G02*
X131585001Y-187520000I-249999J0D01*
G01*
X130284999Y-187520000D01*
G75*
G02*
X130035000Y-187270001I0J249999D01*
G01*
X130035000Y-186444999D01*
G75*
G02*
X130284999Y-186195000I249999J0D01*
G01*
G37*
%TD*%
D10*
%TO.C,D1*%
X40800000Y-92510000D03*
X38700000Y-92510000D03*
%TD*%
%TO.C,D2*%
X69700000Y-133380000D03*
X71800000Y-133380000D03*
%TD*%
%TO.C,D3*%
X40690000Y-175060000D03*
X42790000Y-175060000D03*
%TD*%
%TO.C,D4*%
X91770000Y-169900000D03*
X93870000Y-169900000D03*
%TD*%
%TO.C,D5*%
X56023811Y-92770000D03*
X58123811Y-92770000D03*
%TD*%
%TO.C,D6*%
X83520000Y-133380000D03*
X85620000Y-133380000D03*
%TD*%
%TO.C,D7*%
X60610000Y-175060000D03*
X58510000Y-175060000D03*
%TD*%
%TO.C,D8*%
X77950000Y-169900000D03*
X80050000Y-169900000D03*
%TD*%
D11*
%TO.C,D9*%
X161190000Y-64650000D03*
D12*
X149090000Y-78150000D03*
X149090000Y-51150000D03*
%TD*%
%TO.C,D10*%
X149090000Y-92406666D03*
X149090000Y-119406666D03*
D11*
X161190000Y-105906666D03*
%TD*%
%TO.C,D11*%
X161230000Y-147163332D03*
D12*
X149130000Y-160663332D03*
X149130000Y-133663332D03*
%TD*%
%TO.C,D12*%
X149150000Y-174920000D03*
X149150000Y-201920000D03*
D11*
X161250000Y-188420000D03*
%TD*%
%TO.C,F1*%
G36*
G01*
X48315001Y-88915000D02*
X43364999Y-88915000D01*
G75*
G02*
X43115000Y-88665001I0J249999D01*
G01*
X43115000Y-87239999D01*
G75*
G02*
X43364999Y-86990000I249999J0D01*
G01*
X48315001Y-86990000D01*
G75*
G02*
X48565000Y-87239999I0J-249999D01*
G01*
X48565000Y-88665001D01*
G75*
G02*
X48315001Y-88915000I-249999J0D01*
G01*
G37*
G36*
G01*
X48315001Y-95690000D02*
X43364999Y-95690000D01*
G75*
G02*
X43115000Y-95440001I0J249999D01*
G01*
X43115000Y-94014999D01*
G75*
G02*
X43364999Y-93765000I249999J0D01*
G01*
X48315001Y-93765000D01*
G75*
G02*
X48565000Y-94014999I0J-249999D01*
G01*
X48565000Y-95440001D01*
G75*
G02*
X48315001Y-95690000I-249999J0D01*
G01*
G37*
%TD*%
%TO.C,F2*%
G36*
G01*
X79415001Y-136610000D02*
X74464999Y-136610000D01*
G75*
G02*
X74215000Y-136360001I0J249999D01*
G01*
X74215000Y-134934999D01*
G75*
G02*
X74464999Y-134685000I249999J0D01*
G01*
X79415001Y-134685000D01*
G75*
G02*
X79665000Y-134934999I0J-249999D01*
G01*
X79665000Y-136360001D01*
G75*
G02*
X79415001Y-136610000I-249999J0D01*
G01*
G37*
G36*
G01*
X79415001Y-129835000D02*
X74464999Y-129835000D01*
G75*
G02*
X74215000Y-129585001I0J249999D01*
G01*
X74215000Y-128159999D01*
G75*
G02*
X74464999Y-127910000I249999J0D01*
G01*
X79415001Y-127910000D01*
G75*
G02*
X79665000Y-128159999I0J-249999D01*
G01*
X79665000Y-129585001D01*
G75*
G02*
X79415001Y-129835000I-249999J0D01*
G01*
G37*
%TD*%
%TO.C,F3*%
G36*
G01*
X50405001Y-178170000D02*
X45454999Y-178170000D01*
G75*
G02*
X45205000Y-177920001I0J249999D01*
G01*
X45205000Y-176494999D01*
G75*
G02*
X45454999Y-176245000I249999J0D01*
G01*
X50405001Y-176245000D01*
G75*
G02*
X50655000Y-176494999I0J-249999D01*
G01*
X50655000Y-177920001D01*
G75*
G02*
X50405001Y-178170000I-249999J0D01*
G01*
G37*
G36*
G01*
X50405001Y-171395000D02*
X45454999Y-171395000D01*
G75*
G02*
X45205000Y-171145001I0J249999D01*
G01*
X45205000Y-169719999D01*
G75*
G02*
X45454999Y-169470000I249999J0D01*
G01*
X50405001Y-169470000D01*
G75*
G02*
X50655000Y-169719999I0J-249999D01*
G01*
X50655000Y-171145001D01*
G75*
G02*
X50405001Y-171395000I-249999J0D01*
G01*
G37*
%TD*%
%TO.C,F4*%
G36*
G01*
X84154999Y-166750000D02*
X89105001Y-166750000D01*
G75*
G02*
X89355000Y-166999999I0J-249999D01*
G01*
X89355000Y-168425001D01*
G75*
G02*
X89105001Y-168675000I-249999J0D01*
G01*
X84154999Y-168675000D01*
G75*
G02*
X83905000Y-168425001I0J249999D01*
G01*
X83905000Y-166999999D01*
G75*
G02*
X84154999Y-166750000I249999J0D01*
G01*
G37*
G36*
G01*
X84154999Y-173525000D02*
X89105001Y-173525000D01*
G75*
G02*
X89355000Y-173774999I0J-249999D01*
G01*
X89355000Y-175200001D01*
G75*
G02*
X89105001Y-175450000I-249999J0D01*
G01*
X84154999Y-175450000D01*
G75*
G02*
X83905000Y-175200001I0J249999D01*
G01*
X83905000Y-173774999D01*
G75*
G02*
X84154999Y-173525000I249999J0D01*
G01*
G37*
%TD*%
%TO.C,F5*%
G36*
G01*
X65715001Y-96010000D02*
X60764999Y-96010000D01*
G75*
G02*
X60515000Y-95760001I0J249999D01*
G01*
X60515000Y-94334999D01*
G75*
G02*
X60764999Y-94085000I249999J0D01*
G01*
X65715001Y-94085000D01*
G75*
G02*
X65965000Y-94334999I0J-249999D01*
G01*
X65965000Y-95760001D01*
G75*
G02*
X65715001Y-96010000I-249999J0D01*
G01*
G37*
G36*
G01*
X65715001Y-89235000D02*
X60764999Y-89235000D01*
G75*
G02*
X60515000Y-88985001I0J249999D01*
G01*
X60515000Y-87559999D01*
G75*
G02*
X60764999Y-87310000I249999J0D01*
G01*
X65715001Y-87310000D01*
G75*
G02*
X65965000Y-87559999I0J-249999D01*
G01*
X65965000Y-88985001D01*
G75*
G02*
X65715001Y-89235000I-249999J0D01*
G01*
G37*
%TD*%
%TO.C,F6*%
G36*
G01*
X93215001Y-129835000D02*
X88264999Y-129835000D01*
G75*
G02*
X88015000Y-129585001I0J249999D01*
G01*
X88015000Y-128159999D01*
G75*
G02*
X88264999Y-127910000I249999J0D01*
G01*
X93215001Y-127910000D01*
G75*
G02*
X93465000Y-128159999I0J-249999D01*
G01*
X93465000Y-129585001D01*
G75*
G02*
X93215001Y-129835000I-249999J0D01*
G01*
G37*
G36*
G01*
X93215001Y-136610000D02*
X88264999Y-136610000D01*
G75*
G02*
X88015000Y-136360001I0J249999D01*
G01*
X88015000Y-134934999D01*
G75*
G02*
X88264999Y-134685000I249999J0D01*
G01*
X93215001Y-134685000D01*
G75*
G02*
X93465000Y-134934999I0J-249999D01*
G01*
X93465000Y-136360001D01*
G75*
G02*
X93215001Y-136610000I-249999J0D01*
G01*
G37*
%TD*%
%TO.C,F7*%
G36*
G01*
X68205001Y-171395000D02*
X63254999Y-171395000D01*
G75*
G02*
X63005000Y-171145001I0J249999D01*
G01*
X63005000Y-169719999D01*
G75*
G02*
X63254999Y-169470000I249999J0D01*
G01*
X68205001Y-169470000D01*
G75*
G02*
X68455000Y-169719999I0J-249999D01*
G01*
X68455000Y-171145001D01*
G75*
G02*
X68205001Y-171395000I-249999J0D01*
G01*
G37*
G36*
G01*
X68205001Y-178170000D02*
X63254999Y-178170000D01*
G75*
G02*
X63005000Y-177920001I0J249999D01*
G01*
X63005000Y-176494999D01*
G75*
G02*
X63254999Y-176245000I249999J0D01*
G01*
X68205001Y-176245000D01*
G75*
G02*
X68455000Y-176494999I0J-249999D01*
G01*
X68455000Y-177920001D01*
G75*
G02*
X68205001Y-178170000I-249999J0D01*
G01*
G37*
%TD*%
%TO.C,F8*%
G36*
G01*
X70354999Y-173525000D02*
X75305001Y-173525000D01*
G75*
G02*
X75555000Y-173774999I0J-249999D01*
G01*
X75555000Y-175200001D01*
G75*
G02*
X75305001Y-175450000I-249999J0D01*
G01*
X70354999Y-175450000D01*
G75*
G02*
X70105000Y-175200001I0J249999D01*
G01*
X70105000Y-173774999D01*
G75*
G02*
X70354999Y-173525000I249999J0D01*
G01*
G37*
G36*
G01*
X70354999Y-166750000D02*
X75305001Y-166750000D01*
G75*
G02*
X75555000Y-166999999I0J-249999D01*
G01*
X75555000Y-168425001D01*
G75*
G02*
X75305001Y-168675000I-249999J0D01*
G01*
X70354999Y-168675000D01*
G75*
G02*
X70105000Y-168425001I0J249999D01*
G01*
X70105000Y-166999999D01*
G75*
G02*
X70354999Y-166750000I249999J0D01*
G01*
G37*
%TD*%
%TO.C,BLACK*%
G36*
G01*
X38290000Y-214362777D02*
X44290000Y-214362777D01*
G75*
G02*
X44790000Y-214862777I0J-500000D01*
G01*
X44790000Y-215862777D01*
G75*
G02*
X44290000Y-216362777I-500000J0D01*
G01*
X38290000Y-216362777D01*
G75*
G02*
X37790000Y-215862777I0J500000D01*
G01*
X37790000Y-214862777D01*
G75*
G02*
X38290000Y-214362777I500000J0D01*
G01*
G37*
D13*
G36*
X41730191Y-208395247D02*
G01*
X42018941Y-208452683D01*
X42300670Y-208538145D01*
X42572665Y-208650809D01*
X42832308Y-208789591D01*
X43077098Y-208953154D01*
X43304677Y-209139924D01*
X43512853Y-209348100D01*
X43699623Y-209575679D01*
X43863186Y-209820469D01*
X44001968Y-210080112D01*
X44114632Y-210352107D01*
X44200094Y-210633836D01*
X44257530Y-210922586D01*
X44286386Y-211215574D01*
X44286386Y-211509980D01*
X44257530Y-211802968D01*
X44200094Y-212091718D01*
X44114632Y-212373447D01*
X44001968Y-212645442D01*
X43863186Y-212905085D01*
X43699623Y-213149875D01*
X43512853Y-213377454D01*
X43408765Y-213481542D01*
X44290000Y-214362777D01*
X38290000Y-214362777D01*
X39171235Y-213481542D01*
X39067147Y-213377454D01*
X38880377Y-213149875D01*
X38716814Y-212905085D01*
X38578032Y-212645442D01*
X38465368Y-212373447D01*
X38379906Y-212091718D01*
X38322470Y-211802968D01*
X38293614Y-211509980D01*
X38293614Y-211215574D01*
X38322470Y-210922586D01*
X38379906Y-210633836D01*
X38465368Y-210352107D01*
X38578032Y-210080112D01*
X38716814Y-209820469D01*
X38880377Y-209575679D01*
X39067147Y-209348100D01*
X39275323Y-209139924D01*
X39502902Y-208953154D01*
X39747692Y-208789591D01*
X40007335Y-208650809D01*
X40279330Y-208538145D01*
X40561059Y-208452683D01*
X40849809Y-208395247D01*
X41142797Y-208366391D01*
X41437203Y-208366391D01*
X41730191Y-208395247D01*
G37*
%TD*%
%TO.C,RED*%
G36*
X40869809Y-45274753D02*
G01*
X40581059Y-45217317D01*
X40299330Y-45131855D01*
X40027335Y-45019191D01*
X39767692Y-44880409D01*
X39522902Y-44716846D01*
X39295323Y-44530076D01*
X39087147Y-44321900D01*
X38900377Y-44094321D01*
X38736814Y-43849531D01*
X38598032Y-43589888D01*
X38485368Y-43317893D01*
X38399906Y-43036164D01*
X38342470Y-42747414D01*
X38313614Y-42454426D01*
X38313614Y-42160020D01*
X38342470Y-41867032D01*
X38399906Y-41578282D01*
X38485368Y-41296553D01*
X38598032Y-41024558D01*
X38736814Y-40764915D01*
X38900377Y-40520125D01*
X39087147Y-40292546D01*
X39191235Y-40188458D01*
X38310000Y-39307223D01*
X44310000Y-39307223D01*
X43428765Y-40188458D01*
X43532853Y-40292546D01*
X43719623Y-40520125D01*
X43883186Y-40764915D01*
X44021968Y-41024558D01*
X44134632Y-41296553D01*
X44220094Y-41578282D01*
X44277530Y-41867032D01*
X44306386Y-42160020D01*
X44306386Y-42454426D01*
X44277530Y-42747414D01*
X44220094Y-43036164D01*
X44134632Y-43317893D01*
X44021968Y-43589888D01*
X43883186Y-43849531D01*
X43719623Y-44094321D01*
X43532853Y-44321900D01*
X43324677Y-44530076D01*
X43097098Y-44716846D01*
X42852308Y-44880409D01*
X42592665Y-45019191D01*
X42320670Y-45131855D01*
X42038941Y-45217317D01*
X41750191Y-45274753D01*
X41457203Y-45303609D01*
X41162797Y-45303609D01*
X40869809Y-45274753D01*
G37*
G36*
G01*
X44310000Y-39307223D02*
X38310000Y-39307223D01*
G75*
G02*
X37810000Y-38807223I0J500000D01*
G01*
X37810000Y-37807223D01*
G75*
G02*
X38310000Y-37307223I500000J0D01*
G01*
X44310000Y-37307223D01*
G75*
G02*
X44810000Y-37807223I0J-500000D01*
G01*
X44810000Y-38807223D01*
G75*
G02*
X44310000Y-39307223I-500000J0D01*
G01*
G37*
%TD*%
%TO.C,BLACK*%
G36*
X61300191Y-213602470D02*
G01*
X61588941Y-213659906D01*
X61870670Y-213745368D01*
X62142665Y-213858032D01*
X62402308Y-213996814D01*
X62647098Y-214160377D01*
X62874677Y-214347147D01*
X63082853Y-214555323D01*
X63269623Y-214782902D01*
X63433186Y-215027692D01*
X63571968Y-215287335D01*
X63684632Y-215559330D01*
X63770094Y-215841059D01*
X63827530Y-216129809D01*
X63856386Y-216422797D01*
X63856386Y-216717203D01*
X63827530Y-217010191D01*
X63770094Y-217298941D01*
X63684632Y-217580670D01*
X63571968Y-217852665D01*
X63433186Y-218112308D01*
X63269623Y-218357098D01*
X63082853Y-218584677D01*
X62978765Y-218688765D01*
X63860000Y-219570000D01*
X57860000Y-219570000D01*
X58741235Y-218688765D01*
X58637147Y-218584677D01*
X58450377Y-218357098D01*
X58286814Y-218112308D01*
X58148032Y-217852665D01*
X58035368Y-217580670D01*
X57949906Y-217298941D01*
X57892470Y-217010191D01*
X57863614Y-216717203D01*
X57863614Y-216422797D01*
X57892470Y-216129809D01*
X57949906Y-215841059D01*
X58035368Y-215559330D01*
X58148032Y-215287335D01*
X58286814Y-215027692D01*
X58450377Y-214782902D01*
X58637147Y-214555323D01*
X58845323Y-214347147D01*
X59072902Y-214160377D01*
X59317692Y-213996814D01*
X59577335Y-213858032D01*
X59849330Y-213745368D01*
X60131059Y-213659906D01*
X60419809Y-213602470D01*
X60712797Y-213573614D01*
X61007203Y-213573614D01*
X61300191Y-213602470D01*
G37*
G36*
G01*
X57860000Y-219570000D02*
X63860000Y-219570000D01*
G75*
G02*
X64360000Y-220070000I0J-500000D01*
G01*
X64360000Y-221070000D01*
G75*
G02*
X63860000Y-221570000I-500000J0D01*
G01*
X57860000Y-221570000D01*
G75*
G02*
X57360000Y-221070000I0J500000D01*
G01*
X57360000Y-220070000D01*
G75*
G02*
X57860000Y-219570000I500000J0D01*
G01*
G37*
%TD*%
%TO.C,RED*%
G36*
G01*
X63860000Y-34570000D02*
X57860000Y-34570000D01*
G75*
G02*
X57360000Y-34070000I0J500000D01*
G01*
X57360000Y-33070000D01*
G75*
G02*
X57860000Y-32570000I500000J0D01*
G01*
X63860000Y-32570000D01*
G75*
G02*
X64360000Y-33070000I0J-500000D01*
G01*
X64360000Y-34070000D01*
G75*
G02*
X63860000Y-34570000I-500000J0D01*
G01*
G37*
G36*
X60419809Y-40537530D02*
G01*
X60131059Y-40480094D01*
X59849330Y-40394632D01*
X59577335Y-40281968D01*
X59317692Y-40143186D01*
X59072902Y-39979623D01*
X58845323Y-39792853D01*
X58637147Y-39584677D01*
X58450377Y-39357098D01*
X58286814Y-39112308D01*
X58148032Y-38852665D01*
X58035368Y-38580670D01*
X57949906Y-38298941D01*
X57892470Y-38010191D01*
X57863614Y-37717203D01*
X57863614Y-37422797D01*
X57892470Y-37129809D01*
X57949906Y-36841059D01*
X58035368Y-36559330D01*
X58148032Y-36287335D01*
X58286814Y-36027692D01*
X58450377Y-35782902D01*
X58637147Y-35555323D01*
X58741235Y-35451235D01*
X57860000Y-34570000D01*
X63860000Y-34570000D01*
X62978765Y-35451235D01*
X63082853Y-35555323D01*
X63269623Y-35782902D01*
X63433186Y-36027692D01*
X63571968Y-36287335D01*
X63684632Y-36559330D01*
X63770094Y-36841059D01*
X63827530Y-37129809D01*
X63856386Y-37422797D01*
X63856386Y-37717203D01*
X63827530Y-38010191D01*
X63770094Y-38298941D01*
X63684632Y-38580670D01*
X63571968Y-38852665D01*
X63433186Y-39112308D01*
X63269623Y-39357098D01*
X63082853Y-39584677D01*
X62874677Y-39792853D01*
X62647098Y-39979623D01*
X62402308Y-40143186D01*
X62142665Y-40281968D01*
X61870670Y-40394632D01*
X61588941Y-40480094D01*
X61300191Y-40537530D01*
X61007203Y-40566386D01*
X60712797Y-40566386D01*
X60419809Y-40537530D01*
G37*
%TD*%
%TO.C,BLACK*%
G36*
G01*
X87370000Y-219170000D02*
X93370000Y-219170000D01*
G75*
G02*
X93870000Y-219670000I0J-500000D01*
G01*
X93870000Y-220670000D01*
G75*
G02*
X93370000Y-221170000I-500000J0D01*
G01*
X87370000Y-221170000D01*
G75*
G02*
X86870000Y-220670000I0J500000D01*
G01*
X86870000Y-219670000D01*
G75*
G02*
X87370000Y-219170000I500000J0D01*
G01*
G37*
G36*
X90810191Y-213202470D02*
G01*
X91098941Y-213259906D01*
X91380670Y-213345368D01*
X91652665Y-213458032D01*
X91912308Y-213596814D01*
X92157098Y-213760377D01*
X92384677Y-213947147D01*
X92592853Y-214155323D01*
X92779623Y-214382902D01*
X92943186Y-214627692D01*
X93081968Y-214887335D01*
X93194632Y-215159330D01*
X93280094Y-215441059D01*
X93337530Y-215729809D01*
X93366386Y-216022797D01*
X93366386Y-216317203D01*
X93337530Y-216610191D01*
X93280094Y-216898941D01*
X93194632Y-217180670D01*
X93081968Y-217452665D01*
X92943186Y-217712308D01*
X92779623Y-217957098D01*
X92592853Y-218184677D01*
X92488765Y-218288765D01*
X93370000Y-219170000D01*
X87370000Y-219170000D01*
X88251235Y-218288765D01*
X88147147Y-218184677D01*
X87960377Y-217957098D01*
X87796814Y-217712308D01*
X87658032Y-217452665D01*
X87545368Y-217180670D01*
X87459906Y-216898941D01*
X87402470Y-216610191D01*
X87373614Y-216317203D01*
X87373614Y-216022797D01*
X87402470Y-215729809D01*
X87459906Y-215441059D01*
X87545368Y-215159330D01*
X87658032Y-214887335D01*
X87796814Y-214627692D01*
X87960377Y-214382902D01*
X88147147Y-214155323D01*
X88355323Y-213947147D01*
X88582902Y-213760377D01*
X88827692Y-213596814D01*
X89087335Y-213458032D01*
X89359330Y-213345368D01*
X89641059Y-213259906D01*
X89929809Y-213202470D01*
X90222797Y-213173614D01*
X90517203Y-213173614D01*
X90810191Y-213202470D01*
G37*
%TD*%
%TO.C,RED*%
G36*
X89929809Y-40537530D02*
G01*
X89641059Y-40480094D01*
X89359330Y-40394632D01*
X89087335Y-40281968D01*
X88827692Y-40143186D01*
X88582902Y-39979623D01*
X88355323Y-39792853D01*
X88147147Y-39584677D01*
X87960377Y-39357098D01*
X87796814Y-39112308D01*
X87658032Y-38852665D01*
X87545368Y-38580670D01*
X87459906Y-38298941D01*
X87402470Y-38010191D01*
X87373614Y-37717203D01*
X87373614Y-37422797D01*
X87402470Y-37129809D01*
X87459906Y-36841059D01*
X87545368Y-36559330D01*
X87658032Y-36287335D01*
X87796814Y-36027692D01*
X87960377Y-35782902D01*
X88147147Y-35555323D01*
X88251235Y-35451235D01*
X87370000Y-34570000D01*
X93370000Y-34570000D01*
X92488765Y-35451235D01*
X92592853Y-35555323D01*
X92779623Y-35782902D01*
X92943186Y-36027692D01*
X93081968Y-36287335D01*
X93194632Y-36559330D01*
X93280094Y-36841059D01*
X93337530Y-37129809D01*
X93366386Y-37422797D01*
X93366386Y-37717203D01*
X93337530Y-38010191D01*
X93280094Y-38298941D01*
X93194632Y-38580670D01*
X93081968Y-38852665D01*
X92943186Y-39112308D01*
X92779623Y-39357098D01*
X92592853Y-39584677D01*
X92384677Y-39792853D01*
X92157098Y-39979623D01*
X91912308Y-40143186D01*
X91652665Y-40281968D01*
X91380670Y-40394632D01*
X91098941Y-40480094D01*
X90810191Y-40537530D01*
X90517203Y-40566386D01*
X90222797Y-40566386D01*
X89929809Y-40537530D01*
G37*
G36*
G01*
X93370000Y-34570000D02*
X87370000Y-34570000D01*
G75*
G02*
X86870000Y-34070000I0J500000D01*
G01*
X86870000Y-33070000D01*
G75*
G02*
X87370000Y-32570000I500000J0D01*
G01*
X93370000Y-32570000D01*
G75*
G02*
X93870000Y-33070000I0J-500000D01*
G01*
X93870000Y-34070000D01*
G75*
G02*
X93370000Y-34570000I-500000J0D01*
G01*
G37*
%TD*%
%TO.C,BLACK*%
G36*
X120320191Y-213202470D02*
G01*
X120608941Y-213259906D01*
X120890670Y-213345368D01*
X121162665Y-213458032D01*
X121422308Y-213596814D01*
X121667098Y-213760377D01*
X121894677Y-213947147D01*
X122102853Y-214155323D01*
X122289623Y-214382902D01*
X122453186Y-214627692D01*
X122591968Y-214887335D01*
X122704632Y-215159330D01*
X122790094Y-215441059D01*
X122847530Y-215729809D01*
X122876386Y-216022797D01*
X122876386Y-216317203D01*
X122847530Y-216610191D01*
X122790094Y-216898941D01*
X122704632Y-217180670D01*
X122591968Y-217452665D01*
X122453186Y-217712308D01*
X122289623Y-217957098D01*
X122102853Y-218184677D01*
X121998765Y-218288765D01*
X122880000Y-219170000D01*
X116880000Y-219170000D01*
X117761235Y-218288765D01*
X117657147Y-218184677D01*
X117470377Y-217957098D01*
X117306814Y-217712308D01*
X117168032Y-217452665D01*
X117055368Y-217180670D01*
X116969906Y-216898941D01*
X116912470Y-216610191D01*
X116883614Y-216317203D01*
X116883614Y-216022797D01*
X116912470Y-215729809D01*
X116969906Y-215441059D01*
X117055368Y-215159330D01*
X117168032Y-214887335D01*
X117306814Y-214627692D01*
X117470377Y-214382902D01*
X117657147Y-214155323D01*
X117865323Y-213947147D01*
X118092902Y-213760377D01*
X118337692Y-213596814D01*
X118597335Y-213458032D01*
X118869330Y-213345368D01*
X119151059Y-213259906D01*
X119439809Y-213202470D01*
X119732797Y-213173614D01*
X120027203Y-213173614D01*
X120320191Y-213202470D01*
G37*
G36*
G01*
X116880000Y-219170000D02*
X122880000Y-219170000D01*
G75*
G02*
X123380000Y-219670000I0J-500000D01*
G01*
X123380000Y-220670000D01*
G75*
G02*
X122880000Y-221170000I-500000J0D01*
G01*
X116880000Y-221170000D01*
G75*
G02*
X116380000Y-220670000I0J500000D01*
G01*
X116380000Y-219670000D01*
G75*
G02*
X116880000Y-219170000I500000J0D01*
G01*
G37*
%TD*%
%TO.C,RED*%
G36*
G01*
X122880000Y-34570000D02*
X116880000Y-34570000D01*
G75*
G02*
X116380000Y-34070000I0J500000D01*
G01*
X116380000Y-33070000D01*
G75*
G02*
X116880000Y-32570000I500000J0D01*
G01*
X122880000Y-32570000D01*
G75*
G02*
X123380000Y-33070000I0J-500000D01*
G01*
X123380000Y-34070000D01*
G75*
G02*
X122880000Y-34570000I-500000J0D01*
G01*
G37*
G36*
X119439809Y-40537530D02*
G01*
X119151059Y-40480094D01*
X118869330Y-40394632D01*
X118597335Y-40281968D01*
X118337692Y-40143186D01*
X118092902Y-39979623D01*
X117865323Y-39792853D01*
X117657147Y-39584677D01*
X117470377Y-39357098D01*
X117306814Y-39112308D01*
X117168032Y-38852665D01*
X117055368Y-38580670D01*
X116969906Y-38298941D01*
X116912470Y-38010191D01*
X116883614Y-37717203D01*
X116883614Y-37422797D01*
X116912470Y-37129809D01*
X116969906Y-36841059D01*
X117055368Y-36559330D01*
X117168032Y-36287335D01*
X117306814Y-36027692D01*
X117470377Y-35782902D01*
X117657147Y-35555323D01*
X117761235Y-35451235D01*
X116880000Y-34570000D01*
X122880000Y-34570000D01*
X121998765Y-35451235D01*
X122102853Y-35555323D01*
X122289623Y-35782902D01*
X122453186Y-36027692D01*
X122591968Y-36287335D01*
X122704632Y-36559330D01*
X122790094Y-36841059D01*
X122847530Y-37129809D01*
X122876386Y-37422797D01*
X122876386Y-37717203D01*
X122847530Y-38010191D01*
X122790094Y-38298941D01*
X122704632Y-38580670D01*
X122591968Y-38852665D01*
X122453186Y-39112308D01*
X122289623Y-39357098D01*
X122102853Y-39584677D01*
X121894677Y-39792853D01*
X121667098Y-39979623D01*
X121422308Y-40143186D01*
X121162665Y-40281968D01*
X120890670Y-40394632D01*
X120608941Y-40480094D01*
X120320191Y-40537530D01*
X120027203Y-40566386D01*
X119732797Y-40566386D01*
X119439809Y-40537530D01*
G37*
%TD*%
%TO.C,BLACK*%
G36*
G01*
X146390000Y-219170000D02*
X152390000Y-219170000D01*
G75*
G02*
X152890000Y-219670000I0J-500000D01*
G01*
X152890000Y-220670000D01*
G75*
G02*
X152390000Y-221170000I-500000J0D01*
G01*
X146390000Y-221170000D01*
G75*
G02*
X145890000Y-220670000I0J500000D01*
G01*
X145890000Y-219670000D01*
G75*
G02*
X146390000Y-219170000I500000J0D01*
G01*
G37*
G36*
X149830191Y-213202470D02*
G01*
X150118941Y-213259906D01*
X150400670Y-213345368D01*
X150672665Y-213458032D01*
X150932308Y-213596814D01*
X151177098Y-213760377D01*
X151404677Y-213947147D01*
X151612853Y-214155323D01*
X151799623Y-214382902D01*
X151963186Y-214627692D01*
X152101968Y-214887335D01*
X152214632Y-215159330D01*
X152300094Y-215441059D01*
X152357530Y-215729809D01*
X152386386Y-216022797D01*
X152386386Y-216317203D01*
X152357530Y-216610191D01*
X152300094Y-216898941D01*
X152214632Y-217180670D01*
X152101968Y-217452665D01*
X151963186Y-217712308D01*
X151799623Y-217957098D01*
X151612853Y-218184677D01*
X151508765Y-218288765D01*
X152390000Y-219170000D01*
X146390000Y-219170000D01*
X147271235Y-218288765D01*
X147167147Y-218184677D01*
X146980377Y-217957098D01*
X146816814Y-217712308D01*
X146678032Y-217452665D01*
X146565368Y-217180670D01*
X146479906Y-216898941D01*
X146422470Y-216610191D01*
X146393614Y-216317203D01*
X146393614Y-216022797D01*
X146422470Y-215729809D01*
X146479906Y-215441059D01*
X146565368Y-215159330D01*
X146678032Y-214887335D01*
X146816814Y-214627692D01*
X146980377Y-214382902D01*
X147167147Y-214155323D01*
X147375323Y-213947147D01*
X147602902Y-213760377D01*
X147847692Y-213596814D01*
X148107335Y-213458032D01*
X148379330Y-213345368D01*
X148661059Y-213259906D01*
X148949809Y-213202470D01*
X149242797Y-213173614D01*
X149537203Y-213173614D01*
X149830191Y-213202470D01*
G37*
%TD*%
%TO.C,RED*%
G36*
X148949809Y-40537530D02*
G01*
X148661059Y-40480094D01*
X148379330Y-40394632D01*
X148107335Y-40281968D01*
X147847692Y-40143186D01*
X147602902Y-39979623D01*
X147375323Y-39792853D01*
X147167147Y-39584677D01*
X146980377Y-39357098D01*
X146816814Y-39112308D01*
X146678032Y-38852665D01*
X146565368Y-38580670D01*
X146479906Y-38298941D01*
X146422470Y-38010191D01*
X146393614Y-37717203D01*
X146393614Y-37422797D01*
X146422470Y-37129809D01*
X146479906Y-36841059D01*
X146565368Y-36559330D01*
X146678032Y-36287335D01*
X146816814Y-36027692D01*
X146980377Y-35782902D01*
X147167147Y-35555323D01*
X147271235Y-35451235D01*
X146390000Y-34570000D01*
X152390000Y-34570000D01*
X151508765Y-35451235D01*
X151612853Y-35555323D01*
X151799623Y-35782902D01*
X151963186Y-36027692D01*
X152101968Y-36287335D01*
X152214632Y-36559330D01*
X152300094Y-36841059D01*
X152357530Y-37129809D01*
X152386386Y-37422797D01*
X152386386Y-37717203D01*
X152357530Y-38010191D01*
X152300094Y-38298941D01*
X152214632Y-38580670D01*
X152101968Y-38852665D01*
X151963186Y-39112308D01*
X151799623Y-39357098D01*
X151612853Y-39584677D01*
X151404677Y-39792853D01*
X151177098Y-39979623D01*
X150932308Y-40143186D01*
X150672665Y-40281968D01*
X150400670Y-40394632D01*
X150118941Y-40480094D01*
X149830191Y-40537530D01*
X149537203Y-40566386D01*
X149242797Y-40566386D01*
X148949809Y-40537530D01*
G37*
G36*
G01*
X152390000Y-34570000D02*
X146390000Y-34570000D01*
G75*
G02*
X145890000Y-34070000I0J500000D01*
G01*
X145890000Y-33070000D01*
G75*
G02*
X146390000Y-32570000I500000J0D01*
G01*
X152390000Y-32570000D01*
G75*
G02*
X152890000Y-33070000I0J-500000D01*
G01*
X152890000Y-34070000D01*
G75*
G02*
X152390000Y-34570000I-500000J0D01*
G01*
G37*
%TD*%
%TO.C,BLACK*%
G36*
X171720191Y-208385247D02*
G01*
X172008941Y-208442683D01*
X172290670Y-208528145D01*
X172562665Y-208640809D01*
X172822308Y-208779591D01*
X173067098Y-208943154D01*
X173294677Y-209129924D01*
X173502853Y-209338100D01*
X173689623Y-209565679D01*
X173853186Y-209810469D01*
X173991968Y-210070112D01*
X174104632Y-210342107D01*
X174190094Y-210623836D01*
X174247530Y-210912586D01*
X174276386Y-211205574D01*
X174276386Y-211499980D01*
X174247530Y-211792968D01*
X174190094Y-212081718D01*
X174104632Y-212363447D01*
X173991968Y-212635442D01*
X173853186Y-212895085D01*
X173689623Y-213139875D01*
X173502853Y-213367454D01*
X173398765Y-213471542D01*
X174280000Y-214352777D01*
X168280000Y-214352777D01*
X169161235Y-213471542D01*
X169057147Y-213367454D01*
X168870377Y-213139875D01*
X168706814Y-212895085D01*
X168568032Y-212635442D01*
X168455368Y-212363447D01*
X168369906Y-212081718D01*
X168312470Y-211792968D01*
X168283614Y-211499980D01*
X168283614Y-211205574D01*
X168312470Y-210912586D01*
X168369906Y-210623836D01*
X168455368Y-210342107D01*
X168568032Y-210070112D01*
X168706814Y-209810469D01*
X168870377Y-209565679D01*
X169057147Y-209338100D01*
X169265323Y-209129924D01*
X169492902Y-208943154D01*
X169737692Y-208779591D01*
X169997335Y-208640809D01*
X170269330Y-208528145D01*
X170551059Y-208442683D01*
X170839809Y-208385247D01*
X171132797Y-208356391D01*
X171427203Y-208356391D01*
X171720191Y-208385247D01*
G37*
G36*
G01*
X168280000Y-214352777D02*
X174280000Y-214352777D01*
G75*
G02*
X174780000Y-214852777I0J-500000D01*
G01*
X174780000Y-215852777D01*
G75*
G02*
X174280000Y-216352777I-500000J0D01*
G01*
X168280000Y-216352777D01*
G75*
G02*
X167780000Y-215852777I0J500000D01*
G01*
X167780000Y-214852777D01*
G75*
G02*
X168280000Y-214352777I500000J0D01*
G01*
G37*
%TD*%
%TO.C,RED*%
G36*
G01*
X174300000Y-39297223D02*
X168300000Y-39297223D01*
G75*
G02*
X167800000Y-38797223I0J500000D01*
G01*
X167800000Y-37797223D01*
G75*
G02*
X168300000Y-37297223I500000J0D01*
G01*
X174300000Y-37297223D01*
G75*
G02*
X174800000Y-37797223I0J-500000D01*
G01*
X174800000Y-38797223D01*
G75*
G02*
X174300000Y-39297223I-500000J0D01*
G01*
G37*
G36*
X170859809Y-45264753D02*
G01*
X170571059Y-45207317D01*
X170289330Y-45121855D01*
X170017335Y-45009191D01*
X169757692Y-44870409D01*
X169512902Y-44706846D01*
X169285323Y-44520076D01*
X169077147Y-44311900D01*
X168890377Y-44084321D01*
X168726814Y-43839531D01*
X168588032Y-43579888D01*
X168475368Y-43307893D01*
X168389906Y-43026164D01*
X168332470Y-42737414D01*
X168303614Y-42444426D01*
X168303614Y-42150020D01*
X168332470Y-41857032D01*
X168389906Y-41568282D01*
X168475368Y-41286553D01*
X168588032Y-41014558D01*
X168726814Y-40754915D01*
X168890377Y-40510125D01*
X169077147Y-40282546D01*
X169181235Y-40178458D01*
X168300000Y-39297223D01*
X174300000Y-39297223D01*
X173418765Y-40178458D01*
X173522853Y-40282546D01*
X173709623Y-40510125D01*
X173873186Y-40754915D01*
X174011968Y-41014558D01*
X174124632Y-41286553D01*
X174210094Y-41568282D01*
X174267530Y-41857032D01*
X174296386Y-42150020D01*
X174296386Y-42444426D01*
X174267530Y-42737414D01*
X174210094Y-43026164D01*
X174124632Y-43307893D01*
X174011968Y-43579888D01*
X173873186Y-43839531D01*
X173709623Y-44084321D01*
X173522853Y-44311900D01*
X173314677Y-44520076D01*
X173087098Y-44706846D01*
X172842308Y-44870409D01*
X172582665Y-45009191D01*
X172310670Y-45121855D01*
X172028941Y-45207317D01*
X171740191Y-45264753D01*
X171447203Y-45293609D01*
X171152797Y-45293609D01*
X170859809Y-45264753D01*
G37*
%TD*%
%TO.C,BLACK*%
G36*
G01*
X102610000Y-46790000D02*
X96610000Y-46790000D01*
G75*
G02*
X96110000Y-46290000I0J500000D01*
G01*
X96110000Y-45290000D01*
G75*
G02*
X96610000Y-44790000I500000J0D01*
G01*
X102610000Y-44790000D01*
G75*
G02*
X103110000Y-45290000I0J-500000D01*
G01*
X103110000Y-46290000D01*
G75*
G02*
X102610000Y-46790000I-500000J0D01*
G01*
G37*
G36*
X99169809Y-52757530D02*
G01*
X98881059Y-52700094D01*
X98599330Y-52614632D01*
X98327335Y-52501968D01*
X98067692Y-52363186D01*
X97822902Y-52199623D01*
X97595323Y-52012853D01*
X97387147Y-51804677D01*
X97200377Y-51577098D01*
X97036814Y-51332308D01*
X96898032Y-51072665D01*
X96785368Y-50800670D01*
X96699906Y-50518941D01*
X96642470Y-50230191D01*
X96613614Y-49937203D01*
X96613614Y-49642797D01*
X96642470Y-49349809D01*
X96699906Y-49061059D01*
X96785368Y-48779330D01*
X96898032Y-48507335D01*
X97036814Y-48247692D01*
X97200377Y-48002902D01*
X97387147Y-47775323D01*
X97491235Y-47671235D01*
X96610000Y-46790000D01*
X102610000Y-46790000D01*
X101728765Y-47671235D01*
X101832853Y-47775323D01*
X102019623Y-48002902D01*
X102183186Y-48247692D01*
X102321968Y-48507335D01*
X102434632Y-48779330D01*
X102520094Y-49061059D01*
X102577530Y-49349809D01*
X102606386Y-49642797D01*
X102606386Y-49937203D01*
X102577530Y-50230191D01*
X102520094Y-50518941D01*
X102434632Y-50800670D01*
X102321968Y-51072665D01*
X102183186Y-51332308D01*
X102019623Y-51577098D01*
X101832853Y-51804677D01*
X101624677Y-52012853D01*
X101397098Y-52199623D01*
X101152308Y-52363186D01*
X100892665Y-52501968D01*
X100620670Y-52614632D01*
X100338941Y-52700094D01*
X100050191Y-52757530D01*
X99757203Y-52786386D01*
X99462797Y-52786386D01*
X99169809Y-52757530D01*
G37*
%TD*%
%TO.C,BLACK*%
G36*
X110909809Y-93647530D02*
G01*
X110621059Y-93590094D01*
X110339330Y-93504632D01*
X110067335Y-93391968D01*
X109807692Y-93253186D01*
X109562902Y-93089623D01*
X109335323Y-92902853D01*
X109127147Y-92694677D01*
X108940377Y-92467098D01*
X108776814Y-92222308D01*
X108638032Y-91962665D01*
X108525368Y-91690670D01*
X108439906Y-91408941D01*
X108382470Y-91120191D01*
X108353614Y-90827203D01*
X108353614Y-90532797D01*
X108382470Y-90239809D01*
X108439906Y-89951059D01*
X108525368Y-89669330D01*
X108638032Y-89397335D01*
X108776814Y-89137692D01*
X108940377Y-88892902D01*
X109127147Y-88665323D01*
X109231235Y-88561235D01*
X108350000Y-87680000D01*
X114350000Y-87680000D01*
X113468765Y-88561235D01*
X113572853Y-88665323D01*
X113759623Y-88892902D01*
X113923186Y-89137692D01*
X114061968Y-89397335D01*
X114174632Y-89669330D01*
X114260094Y-89951059D01*
X114317530Y-90239809D01*
X114346386Y-90532797D01*
X114346386Y-90827203D01*
X114317530Y-91120191D01*
X114260094Y-91408941D01*
X114174632Y-91690670D01*
X114061968Y-91962665D01*
X113923186Y-92222308D01*
X113759623Y-92467098D01*
X113572853Y-92694677D01*
X113364677Y-92902853D01*
X113137098Y-93089623D01*
X112892308Y-93253186D01*
X112632665Y-93391968D01*
X112360670Y-93504632D01*
X112078941Y-93590094D01*
X111790191Y-93647530D01*
X111497203Y-93676386D01*
X111202797Y-93676386D01*
X110909809Y-93647530D01*
G37*
G36*
G01*
X114350000Y-87680000D02*
X108350000Y-87680000D01*
G75*
G02*
X107850000Y-87180000I0J500000D01*
G01*
X107850000Y-86180000D01*
G75*
G02*
X108350000Y-85680000I500000J0D01*
G01*
X114350000Y-85680000D01*
G75*
G02*
X114850000Y-86180000I0J-500000D01*
G01*
X114850000Y-87180000D01*
G75*
G02*
X114350000Y-87680000I-500000J0D01*
G01*
G37*
%TD*%
%TO.C,BLACK*%
G36*
X100050191Y-76532470D02*
G01*
X100338941Y-76589906D01*
X100620670Y-76675368D01*
X100892665Y-76788032D01*
X101152308Y-76926814D01*
X101397098Y-77090377D01*
X101624677Y-77277147D01*
X101832853Y-77485323D01*
X102019623Y-77712902D01*
X102183186Y-77957692D01*
X102321968Y-78217335D01*
X102434632Y-78489330D01*
X102520094Y-78771059D01*
X102577530Y-79059809D01*
X102606386Y-79352797D01*
X102606386Y-79647203D01*
X102577530Y-79940191D01*
X102520094Y-80228941D01*
X102434632Y-80510670D01*
X102321968Y-80782665D01*
X102183186Y-81042308D01*
X102019623Y-81287098D01*
X101832853Y-81514677D01*
X101728765Y-81618765D01*
X102610000Y-82500000D01*
X96610000Y-82500000D01*
X97491235Y-81618765D01*
X97387147Y-81514677D01*
X97200377Y-81287098D01*
X97036814Y-81042308D01*
X96898032Y-80782665D01*
X96785368Y-80510670D01*
X96699906Y-80228941D01*
X96642470Y-79940191D01*
X96613614Y-79647203D01*
X96613614Y-79352797D01*
X96642470Y-79059809D01*
X96699906Y-78771059D01*
X96785368Y-78489330D01*
X96898032Y-78217335D01*
X97036814Y-77957692D01*
X97200377Y-77712902D01*
X97387147Y-77485323D01*
X97595323Y-77277147D01*
X97822902Y-77090377D01*
X98067692Y-76926814D01*
X98327335Y-76788032D01*
X98599330Y-76675368D01*
X98881059Y-76589906D01*
X99169809Y-76532470D01*
X99462797Y-76503614D01*
X99757203Y-76503614D01*
X100050191Y-76532470D01*
G37*
G36*
G01*
X96610000Y-82500000D02*
X102610000Y-82500000D01*
G75*
G02*
X103110000Y-83000000I0J-500000D01*
G01*
X103110000Y-84000000D01*
G75*
G02*
X102610000Y-84500000I-500000J0D01*
G01*
X96610000Y-84500000D01*
G75*
G02*
X96110000Y-84000000I0J500000D01*
G01*
X96110000Y-83000000D01*
G75*
G02*
X96610000Y-82500000I500000J0D01*
G01*
G37*
%TD*%
%TO.C,BLACK*%
G36*
X111790191Y-117802470D02*
G01*
X112078941Y-117859906D01*
X112360670Y-117945368D01*
X112632665Y-118058032D01*
X112892308Y-118196814D01*
X113137098Y-118360377D01*
X113364677Y-118547147D01*
X113572853Y-118755323D01*
X113759623Y-118982902D01*
X113923186Y-119227692D01*
X114061968Y-119487335D01*
X114174632Y-119759330D01*
X114260094Y-120041059D01*
X114317530Y-120329809D01*
X114346386Y-120622797D01*
X114346386Y-120917203D01*
X114317530Y-121210191D01*
X114260094Y-121498941D01*
X114174632Y-121780670D01*
X114061968Y-122052665D01*
X113923186Y-122312308D01*
X113759623Y-122557098D01*
X113572853Y-122784677D01*
X113468765Y-122888765D01*
X114350000Y-123770000D01*
X108350000Y-123770000D01*
X109231235Y-122888765D01*
X109127147Y-122784677D01*
X108940377Y-122557098D01*
X108776814Y-122312308D01*
X108638032Y-122052665D01*
X108525368Y-121780670D01*
X108439906Y-121498941D01*
X108382470Y-121210191D01*
X108353614Y-120917203D01*
X108353614Y-120622797D01*
X108382470Y-120329809D01*
X108439906Y-120041059D01*
X108525368Y-119759330D01*
X108638032Y-119487335D01*
X108776814Y-119227692D01*
X108940377Y-118982902D01*
X109127147Y-118755323D01*
X109335323Y-118547147D01*
X109562902Y-118360377D01*
X109807692Y-118196814D01*
X110067335Y-118058032D01*
X110339330Y-117945368D01*
X110621059Y-117859906D01*
X110909809Y-117802470D01*
X111202797Y-117773614D01*
X111497203Y-117773614D01*
X111790191Y-117802470D01*
G37*
G36*
G01*
X108350000Y-123770000D02*
X114350000Y-123770000D01*
G75*
G02*
X114850000Y-124270000I0J-500000D01*
G01*
X114850000Y-125270000D01*
G75*
G02*
X114350000Y-125770000I-500000J0D01*
G01*
X108350000Y-125770000D01*
G75*
G02*
X107850000Y-125270000I0J500000D01*
G01*
X107850000Y-124270000D01*
G75*
G02*
X108350000Y-123770000I500000J0D01*
G01*
G37*
%TD*%
%TO.C,BLACK*%
G36*
X99169809Y-135237530D02*
G01*
X98881059Y-135180094D01*
X98599330Y-135094632D01*
X98327335Y-134981968D01*
X98067692Y-134843186D01*
X97822902Y-134679623D01*
X97595323Y-134492853D01*
X97387147Y-134284677D01*
X97200377Y-134057098D01*
X97036814Y-133812308D01*
X96898032Y-133552665D01*
X96785368Y-133280670D01*
X96699906Y-132998941D01*
X96642470Y-132710191D01*
X96613614Y-132417203D01*
X96613614Y-132122797D01*
X96642470Y-131829809D01*
X96699906Y-131541059D01*
X96785368Y-131259330D01*
X96898032Y-130987335D01*
X97036814Y-130727692D01*
X97200377Y-130482902D01*
X97387147Y-130255323D01*
X97491235Y-130151235D01*
X96610000Y-129270000D01*
X102610000Y-129270000D01*
X101728765Y-130151235D01*
X101832853Y-130255323D01*
X102019623Y-130482902D01*
X102183186Y-130727692D01*
X102321968Y-130987335D01*
X102434632Y-131259330D01*
X102520094Y-131541059D01*
X102577530Y-131829809D01*
X102606386Y-132122797D01*
X102606386Y-132417203D01*
X102577530Y-132710191D01*
X102520094Y-132998941D01*
X102434632Y-133280670D01*
X102321968Y-133552665D01*
X102183186Y-133812308D01*
X102019623Y-134057098D01*
X101832853Y-134284677D01*
X101624677Y-134492853D01*
X101397098Y-134679623D01*
X101152308Y-134843186D01*
X100892665Y-134981968D01*
X100620670Y-135094632D01*
X100338941Y-135180094D01*
X100050191Y-135237530D01*
X99757203Y-135266386D01*
X99462797Y-135266386D01*
X99169809Y-135237530D01*
G37*
G36*
G01*
X102610000Y-129270000D02*
X96610000Y-129270000D01*
G75*
G02*
X96110000Y-128770000I0J500000D01*
G01*
X96110000Y-127770000D01*
G75*
G02*
X96610000Y-127270000I500000J0D01*
G01*
X102610000Y-127270000D01*
G75*
G02*
X103110000Y-127770000I0J-500000D01*
G01*
X103110000Y-128770000D01*
G75*
G02*
X102610000Y-129270000I-500000J0D01*
G01*
G37*
%TD*%
%TO.C,BLACK*%
G36*
G01*
X114350000Y-170570000D02*
X108350000Y-170570000D01*
G75*
G02*
X107850000Y-170070000I0J500000D01*
G01*
X107850000Y-169070000D01*
G75*
G02*
X108350000Y-168570000I500000J0D01*
G01*
X114350000Y-168570000D01*
G75*
G02*
X114850000Y-169070000I0J-500000D01*
G01*
X114850000Y-170070000D01*
G75*
G02*
X114350000Y-170570000I-500000J0D01*
G01*
G37*
G36*
X110909809Y-176537530D02*
G01*
X110621059Y-176480094D01*
X110339330Y-176394632D01*
X110067335Y-176281968D01*
X109807692Y-176143186D01*
X109562902Y-175979623D01*
X109335323Y-175792853D01*
X109127147Y-175584677D01*
X108940377Y-175357098D01*
X108776814Y-175112308D01*
X108638032Y-174852665D01*
X108525368Y-174580670D01*
X108439906Y-174298941D01*
X108382470Y-174010191D01*
X108353614Y-173717203D01*
X108353614Y-173422797D01*
X108382470Y-173129809D01*
X108439906Y-172841059D01*
X108525368Y-172559330D01*
X108638032Y-172287335D01*
X108776814Y-172027692D01*
X108940377Y-171782902D01*
X109127147Y-171555323D01*
X109231235Y-171451235D01*
X108350000Y-170570000D01*
X114350000Y-170570000D01*
X113468765Y-171451235D01*
X113572853Y-171555323D01*
X113759623Y-171782902D01*
X113923186Y-172027692D01*
X114061968Y-172287335D01*
X114174632Y-172559330D01*
X114260094Y-172841059D01*
X114317530Y-173129809D01*
X114346386Y-173422797D01*
X114346386Y-173717203D01*
X114317530Y-174010191D01*
X114260094Y-174298941D01*
X114174632Y-174580670D01*
X114061968Y-174852665D01*
X113923186Y-175112308D01*
X113759623Y-175357098D01*
X113572853Y-175584677D01*
X113364677Y-175792853D01*
X113137098Y-175979623D01*
X112892308Y-176143186D01*
X112632665Y-176281968D01*
X112360670Y-176394632D01*
X112078941Y-176480094D01*
X111790191Y-176537530D01*
X111497203Y-176566386D01*
X111202797Y-176566386D01*
X110909809Y-176537530D01*
G37*
%TD*%
%TO.C,BLACK*%
G36*
G01*
X96610000Y-165010000D02*
X102610000Y-165010000D01*
G75*
G02*
X103110000Y-165510000I0J-500000D01*
G01*
X103110000Y-166510000D01*
G75*
G02*
X102610000Y-167010000I-500000J0D01*
G01*
X96610000Y-167010000D01*
G75*
G02*
X96110000Y-166510000I0J500000D01*
G01*
X96110000Y-165510000D01*
G75*
G02*
X96610000Y-165010000I500000J0D01*
G01*
G37*
G36*
X100050191Y-159042470D02*
G01*
X100338941Y-159099906D01*
X100620670Y-159185368D01*
X100892665Y-159298032D01*
X101152308Y-159436814D01*
X101397098Y-159600377D01*
X101624677Y-159787147D01*
X101832853Y-159995323D01*
X102019623Y-160222902D01*
X102183186Y-160467692D01*
X102321968Y-160727335D01*
X102434632Y-160999330D01*
X102520094Y-161281059D01*
X102577530Y-161569809D01*
X102606386Y-161862797D01*
X102606386Y-162157203D01*
X102577530Y-162450191D01*
X102520094Y-162738941D01*
X102434632Y-163020670D01*
X102321968Y-163292665D01*
X102183186Y-163552308D01*
X102019623Y-163797098D01*
X101832853Y-164024677D01*
X101728765Y-164128765D01*
X102610000Y-165010000D01*
X96610000Y-165010000D01*
X97491235Y-164128765D01*
X97387147Y-164024677D01*
X97200377Y-163797098D01*
X97036814Y-163552308D01*
X96898032Y-163292665D01*
X96785368Y-163020670D01*
X96699906Y-162738941D01*
X96642470Y-162450191D01*
X96613614Y-162157203D01*
X96613614Y-161862797D01*
X96642470Y-161569809D01*
X96699906Y-161281059D01*
X96785368Y-160999330D01*
X96898032Y-160727335D01*
X97036814Y-160467692D01*
X97200377Y-160222902D01*
X97387147Y-159995323D01*
X97595323Y-159787147D01*
X97822902Y-159600377D01*
X98067692Y-159436814D01*
X98327335Y-159298032D01*
X98599330Y-159185368D01*
X98881059Y-159099906D01*
X99169809Y-159042470D01*
X99462797Y-159013614D01*
X99757203Y-159013614D01*
X100050191Y-159042470D01*
G37*
%TD*%
%TO.C,BLACK*%
G36*
G01*
X108350000Y-206650000D02*
X114350000Y-206650000D01*
G75*
G02*
X114850000Y-207150000I0J-500000D01*
G01*
X114850000Y-208150000D01*
G75*
G02*
X114350000Y-208650000I-500000J0D01*
G01*
X108350000Y-208650000D01*
G75*
G02*
X107850000Y-208150000I0J500000D01*
G01*
X107850000Y-207150000D01*
G75*
G02*
X108350000Y-206650000I500000J0D01*
G01*
G37*
G36*
X111790191Y-200682470D02*
G01*
X112078941Y-200739906D01*
X112360670Y-200825368D01*
X112632665Y-200938032D01*
X112892308Y-201076814D01*
X113137098Y-201240377D01*
X113364677Y-201427147D01*
X113572853Y-201635323D01*
X113759623Y-201862902D01*
X113923186Y-202107692D01*
X114061968Y-202367335D01*
X114174632Y-202639330D01*
X114260094Y-202921059D01*
X114317530Y-203209809D01*
X114346386Y-203502797D01*
X114346386Y-203797203D01*
X114317530Y-204090191D01*
X114260094Y-204378941D01*
X114174632Y-204660670D01*
X114061968Y-204932665D01*
X113923186Y-205192308D01*
X113759623Y-205437098D01*
X113572853Y-205664677D01*
X113468765Y-205768765D01*
X114350000Y-206650000D01*
X108350000Y-206650000D01*
X109231235Y-205768765D01*
X109127147Y-205664677D01*
X108940377Y-205437098D01*
X108776814Y-205192308D01*
X108638032Y-204932665D01*
X108525368Y-204660670D01*
X108439906Y-204378941D01*
X108382470Y-204090191D01*
X108353614Y-203797203D01*
X108353614Y-203502797D01*
X108382470Y-203209809D01*
X108439906Y-202921059D01*
X108525368Y-202639330D01*
X108638032Y-202367335D01*
X108776814Y-202107692D01*
X108940377Y-201862902D01*
X109127147Y-201635323D01*
X109335323Y-201427147D01*
X109562902Y-201240377D01*
X109807692Y-201076814D01*
X110067335Y-200938032D01*
X110339330Y-200825368D01*
X110621059Y-200739906D01*
X110909809Y-200682470D01*
X111202797Y-200653614D01*
X111497203Y-200653614D01*
X111790191Y-200682470D01*
G37*
%TD*%
%TO.C,BLACK*%
G36*
X122639809Y-52757530D02*
G01*
X122351059Y-52700094D01*
X122069330Y-52614632D01*
X121797335Y-52501968D01*
X121537692Y-52363186D01*
X121292902Y-52199623D01*
X121065323Y-52012853D01*
X120857147Y-51804677D01*
X120670377Y-51577098D01*
X120506814Y-51332308D01*
X120368032Y-51072665D01*
X120255368Y-50800670D01*
X120169906Y-50518941D01*
X120112470Y-50230191D01*
X120083614Y-49937203D01*
X120083614Y-49642797D01*
X120112470Y-49349809D01*
X120169906Y-49061059D01*
X120255368Y-48779330D01*
X120368032Y-48507335D01*
X120506814Y-48247692D01*
X120670377Y-48002902D01*
X120857147Y-47775323D01*
X120961235Y-47671235D01*
X120080000Y-46790000D01*
X126080000Y-46790000D01*
X125198765Y-47671235D01*
X125302853Y-47775323D01*
X125489623Y-48002902D01*
X125653186Y-48247692D01*
X125791968Y-48507335D01*
X125904632Y-48779330D01*
X125990094Y-49061059D01*
X126047530Y-49349809D01*
X126076386Y-49642797D01*
X126076386Y-49937203D01*
X126047530Y-50230191D01*
X125990094Y-50518941D01*
X125904632Y-50800670D01*
X125791968Y-51072665D01*
X125653186Y-51332308D01*
X125489623Y-51577098D01*
X125302853Y-51804677D01*
X125094677Y-52012853D01*
X124867098Y-52199623D01*
X124622308Y-52363186D01*
X124362665Y-52501968D01*
X124090670Y-52614632D01*
X123808941Y-52700094D01*
X123520191Y-52757530D01*
X123227203Y-52786386D01*
X122932797Y-52786386D01*
X122639809Y-52757530D01*
G37*
G36*
G01*
X126080000Y-46790000D02*
X120080000Y-46790000D01*
G75*
G02*
X119580000Y-46290000I0J500000D01*
G01*
X119580000Y-45290000D01*
G75*
G02*
X120080000Y-44790000I500000J0D01*
G01*
X126080000Y-44790000D01*
G75*
G02*
X126580000Y-45290000I0J-500000D01*
G01*
X126580000Y-46290000D01*
G75*
G02*
X126080000Y-46790000I-500000J0D01*
G01*
G37*
%TD*%
%TO.C,BLACK*%
G36*
X134379809Y-93647530D02*
G01*
X134091059Y-93590094D01*
X133809330Y-93504632D01*
X133537335Y-93391968D01*
X133277692Y-93253186D01*
X133032902Y-93089623D01*
X132805323Y-92902853D01*
X132597147Y-92694677D01*
X132410377Y-92467098D01*
X132246814Y-92222308D01*
X132108032Y-91962665D01*
X131995368Y-91690670D01*
X131909906Y-91408941D01*
X131852470Y-91120191D01*
X131823614Y-90827203D01*
X131823614Y-90532797D01*
X131852470Y-90239809D01*
X131909906Y-89951059D01*
X131995368Y-89669330D01*
X132108032Y-89397335D01*
X132246814Y-89137692D01*
X132410377Y-88892902D01*
X132597147Y-88665323D01*
X132701235Y-88561235D01*
X131820000Y-87680000D01*
X137820000Y-87680000D01*
X136938765Y-88561235D01*
X137042853Y-88665323D01*
X137229623Y-88892902D01*
X137393186Y-89137692D01*
X137531968Y-89397335D01*
X137644632Y-89669330D01*
X137730094Y-89951059D01*
X137787530Y-90239809D01*
X137816386Y-90532797D01*
X137816386Y-90827203D01*
X137787530Y-91120191D01*
X137730094Y-91408941D01*
X137644632Y-91690670D01*
X137531968Y-91962665D01*
X137393186Y-92222308D01*
X137229623Y-92467098D01*
X137042853Y-92694677D01*
X136834677Y-92902853D01*
X136607098Y-93089623D01*
X136362308Y-93253186D01*
X136102665Y-93391968D01*
X135830670Y-93504632D01*
X135548941Y-93590094D01*
X135260191Y-93647530D01*
X134967203Y-93676386D01*
X134672797Y-93676386D01*
X134379809Y-93647530D01*
G37*
G36*
G01*
X137820000Y-87680000D02*
X131820000Y-87680000D01*
G75*
G02*
X131320000Y-87180000I0J500000D01*
G01*
X131320000Y-86180000D01*
G75*
G02*
X131820000Y-85680000I500000J0D01*
G01*
X137820000Y-85680000D01*
G75*
G02*
X138320000Y-86180000I0J-500000D01*
G01*
X138320000Y-87180000D01*
G75*
G02*
X137820000Y-87680000I-500000J0D01*
G01*
G37*
%TD*%
%TO.C,BLACK*%
G36*
G01*
X120080000Y-82500000D02*
X126080000Y-82500000D01*
G75*
G02*
X126580000Y-83000000I0J-500000D01*
G01*
X126580000Y-84000000D01*
G75*
G02*
X126080000Y-84500000I-500000J0D01*
G01*
X120080000Y-84500000D01*
G75*
G02*
X119580000Y-84000000I0J500000D01*
G01*
X119580000Y-83000000D01*
G75*
G02*
X120080000Y-82500000I500000J0D01*
G01*
G37*
G36*
X123520191Y-76532470D02*
G01*
X123808941Y-76589906D01*
X124090670Y-76675368D01*
X124362665Y-76788032D01*
X124622308Y-76926814D01*
X124867098Y-77090377D01*
X125094677Y-77277147D01*
X125302853Y-77485323D01*
X125489623Y-77712902D01*
X125653186Y-77957692D01*
X125791968Y-78217335D01*
X125904632Y-78489330D01*
X125990094Y-78771059D01*
X126047530Y-79059809D01*
X126076386Y-79352797D01*
X126076386Y-79647203D01*
X126047530Y-79940191D01*
X125990094Y-80228941D01*
X125904632Y-80510670D01*
X125791968Y-80782665D01*
X125653186Y-81042308D01*
X125489623Y-81287098D01*
X125302853Y-81514677D01*
X125198765Y-81618765D01*
X126080000Y-82500000D01*
X120080000Y-82500000D01*
X120961235Y-81618765D01*
X120857147Y-81514677D01*
X120670377Y-81287098D01*
X120506814Y-81042308D01*
X120368032Y-80782665D01*
X120255368Y-80510670D01*
X120169906Y-80228941D01*
X120112470Y-79940191D01*
X120083614Y-79647203D01*
X120083614Y-79352797D01*
X120112470Y-79059809D01*
X120169906Y-78771059D01*
X120255368Y-78489330D01*
X120368032Y-78217335D01*
X120506814Y-77957692D01*
X120670377Y-77712902D01*
X120857147Y-77485323D01*
X121065323Y-77277147D01*
X121292902Y-77090377D01*
X121537692Y-76926814D01*
X121797335Y-76788032D01*
X122069330Y-76675368D01*
X122351059Y-76589906D01*
X122639809Y-76532470D01*
X122932797Y-76503614D01*
X123227203Y-76503614D01*
X123520191Y-76532470D01*
G37*
%TD*%
%TO.C,BLACK*%
G36*
G01*
X131820000Y-123740000D02*
X137820000Y-123740000D01*
G75*
G02*
X138320000Y-124240000I0J-500000D01*
G01*
X138320000Y-125240000D01*
G75*
G02*
X137820000Y-125740000I-500000J0D01*
G01*
X131820000Y-125740000D01*
G75*
G02*
X131320000Y-125240000I0J500000D01*
G01*
X131320000Y-124240000D01*
G75*
G02*
X131820000Y-123740000I500000J0D01*
G01*
G37*
G36*
X135260191Y-117772470D02*
G01*
X135548941Y-117829906D01*
X135830670Y-117915368D01*
X136102665Y-118028032D01*
X136362308Y-118166814D01*
X136607098Y-118330377D01*
X136834677Y-118517147D01*
X137042853Y-118725323D01*
X137229623Y-118952902D01*
X137393186Y-119197692D01*
X137531968Y-119457335D01*
X137644632Y-119729330D01*
X137730094Y-120011059D01*
X137787530Y-120299809D01*
X137816386Y-120592797D01*
X137816386Y-120887203D01*
X137787530Y-121180191D01*
X137730094Y-121468941D01*
X137644632Y-121750670D01*
X137531968Y-122022665D01*
X137393186Y-122282308D01*
X137229623Y-122527098D01*
X137042853Y-122754677D01*
X136938765Y-122858765D01*
X137820000Y-123740000D01*
X131820000Y-123740000D01*
X132701235Y-122858765D01*
X132597147Y-122754677D01*
X132410377Y-122527098D01*
X132246814Y-122282308D01*
X132108032Y-122022665D01*
X131995368Y-121750670D01*
X131909906Y-121468941D01*
X131852470Y-121180191D01*
X131823614Y-120887203D01*
X131823614Y-120592797D01*
X131852470Y-120299809D01*
X131909906Y-120011059D01*
X131995368Y-119729330D01*
X132108032Y-119457335D01*
X132246814Y-119197692D01*
X132410377Y-118952902D01*
X132597147Y-118725323D01*
X132805323Y-118517147D01*
X133032902Y-118330377D01*
X133277692Y-118166814D01*
X133537335Y-118028032D01*
X133809330Y-117915368D01*
X134091059Y-117829906D01*
X134379809Y-117772470D01*
X134672797Y-117743614D01*
X134967203Y-117743614D01*
X135260191Y-117772470D01*
G37*
%TD*%
%TO.C,BLACK*%
G36*
G01*
X126080000Y-129270000D02*
X120080000Y-129270000D01*
G75*
G02*
X119580000Y-128770000I0J500000D01*
G01*
X119580000Y-127770000D01*
G75*
G02*
X120080000Y-127270000I500000J0D01*
G01*
X126080000Y-127270000D01*
G75*
G02*
X126580000Y-127770000I0J-500000D01*
G01*
X126580000Y-128770000D01*
G75*
G02*
X126080000Y-129270000I-500000J0D01*
G01*
G37*
G36*
X122639809Y-135237530D02*
G01*
X122351059Y-135180094D01*
X122069330Y-135094632D01*
X121797335Y-134981968D01*
X121537692Y-134843186D01*
X121292902Y-134679623D01*
X121065323Y-134492853D01*
X120857147Y-134284677D01*
X120670377Y-134057098D01*
X120506814Y-133812308D01*
X120368032Y-133552665D01*
X120255368Y-133280670D01*
X120169906Y-132998941D01*
X120112470Y-132710191D01*
X120083614Y-132417203D01*
X120083614Y-132122797D01*
X120112470Y-131829809D01*
X120169906Y-131541059D01*
X120255368Y-131259330D01*
X120368032Y-130987335D01*
X120506814Y-130727692D01*
X120670377Y-130482902D01*
X120857147Y-130255323D01*
X120961235Y-130151235D01*
X120080000Y-129270000D01*
X126080000Y-129270000D01*
X125198765Y-130151235D01*
X125302853Y-130255323D01*
X125489623Y-130482902D01*
X125653186Y-130727692D01*
X125791968Y-130987335D01*
X125904632Y-131259330D01*
X125990094Y-131541059D01*
X126047530Y-131829809D01*
X126076386Y-132122797D01*
X126076386Y-132417203D01*
X126047530Y-132710191D01*
X125990094Y-132998941D01*
X125904632Y-133280670D01*
X125791968Y-133552665D01*
X125653186Y-133812308D01*
X125489623Y-134057098D01*
X125302853Y-134284677D01*
X125094677Y-134492853D01*
X124867098Y-134679623D01*
X124622308Y-134843186D01*
X124362665Y-134981968D01*
X124090670Y-135094632D01*
X123808941Y-135180094D01*
X123520191Y-135237530D01*
X123227203Y-135266386D01*
X122932797Y-135266386D01*
X122639809Y-135237530D01*
G37*
%TD*%
%TO.C,BLACK*%
G36*
X134379809Y-176547530D02*
G01*
X134091059Y-176490094D01*
X133809330Y-176404632D01*
X133537335Y-176291968D01*
X133277692Y-176153186D01*
X133032902Y-175989623D01*
X132805323Y-175802853D01*
X132597147Y-175594677D01*
X132410377Y-175367098D01*
X132246814Y-175122308D01*
X132108032Y-174862665D01*
X131995368Y-174590670D01*
X131909906Y-174308941D01*
X131852470Y-174020191D01*
X131823614Y-173727203D01*
X131823614Y-173432797D01*
X131852470Y-173139809D01*
X131909906Y-172851059D01*
X131995368Y-172569330D01*
X132108032Y-172297335D01*
X132246814Y-172037692D01*
X132410377Y-171792902D01*
X132597147Y-171565323D01*
X132701235Y-171461235D01*
X131820000Y-170580000D01*
X137820000Y-170580000D01*
X136938765Y-171461235D01*
X137042853Y-171565323D01*
X137229623Y-171792902D01*
X137393186Y-172037692D01*
X137531968Y-172297335D01*
X137644632Y-172569330D01*
X137730094Y-172851059D01*
X137787530Y-173139809D01*
X137816386Y-173432797D01*
X137816386Y-173727203D01*
X137787530Y-174020191D01*
X137730094Y-174308941D01*
X137644632Y-174590670D01*
X137531968Y-174862665D01*
X137393186Y-175122308D01*
X137229623Y-175367098D01*
X137042853Y-175594677D01*
X136834677Y-175802853D01*
X136607098Y-175989623D01*
X136362308Y-176153186D01*
X136102665Y-176291968D01*
X135830670Y-176404632D01*
X135548941Y-176490094D01*
X135260191Y-176547530D01*
X134967203Y-176576386D01*
X134672797Y-176576386D01*
X134379809Y-176547530D01*
G37*
G36*
G01*
X137820000Y-170580000D02*
X131820000Y-170580000D01*
G75*
G02*
X131320000Y-170080000I0J500000D01*
G01*
X131320000Y-169080000D01*
G75*
G02*
X131820000Y-168580000I500000J0D01*
G01*
X137820000Y-168580000D01*
G75*
G02*
X138320000Y-169080000I0J-500000D01*
G01*
X138320000Y-170080000D01*
G75*
G02*
X137820000Y-170580000I-500000J0D01*
G01*
G37*
%TD*%
%TO.C,BLACK*%
G36*
X123520191Y-159032470D02*
G01*
X123808941Y-159089906D01*
X124090670Y-159175368D01*
X124362665Y-159288032D01*
X124622308Y-159426814D01*
X124867098Y-159590377D01*
X125094677Y-159777147D01*
X125302853Y-159985323D01*
X125489623Y-160212902D01*
X125653186Y-160457692D01*
X125791968Y-160717335D01*
X125904632Y-160989330D01*
X125990094Y-161271059D01*
X126047530Y-161559809D01*
X126076386Y-161852797D01*
X126076386Y-162147203D01*
X126047530Y-162440191D01*
X125990094Y-162728941D01*
X125904632Y-163010670D01*
X125791968Y-163282665D01*
X125653186Y-163542308D01*
X125489623Y-163787098D01*
X125302853Y-164014677D01*
X125198765Y-164118765D01*
X126080000Y-165000000D01*
X120080000Y-165000000D01*
X120961235Y-164118765D01*
X120857147Y-164014677D01*
X120670377Y-163787098D01*
X120506814Y-163542308D01*
X120368032Y-163282665D01*
X120255368Y-163010670D01*
X120169906Y-162728941D01*
X120112470Y-162440191D01*
X120083614Y-162147203D01*
X120083614Y-161852797D01*
X120112470Y-161559809D01*
X120169906Y-161271059D01*
X120255368Y-160989330D01*
X120368032Y-160717335D01*
X120506814Y-160457692D01*
X120670377Y-160212902D01*
X120857147Y-159985323D01*
X121065323Y-159777147D01*
X121292902Y-159590377D01*
X121537692Y-159426814D01*
X121797335Y-159288032D01*
X122069330Y-159175368D01*
X122351059Y-159089906D01*
X122639809Y-159032470D01*
X122932797Y-159003614D01*
X123227203Y-159003614D01*
X123520191Y-159032470D01*
G37*
G36*
G01*
X120080000Y-165000000D02*
X126080000Y-165000000D01*
G75*
G02*
X126580000Y-165500000I0J-500000D01*
G01*
X126580000Y-166500000D01*
G75*
G02*
X126080000Y-167000000I-500000J0D01*
G01*
X120080000Y-167000000D01*
G75*
G02*
X119580000Y-166500000I0J500000D01*
G01*
X119580000Y-165500000D01*
G75*
G02*
X120080000Y-165000000I500000J0D01*
G01*
G37*
%TD*%
%TO.C,BLACK*%
G36*
G01*
X131820000Y-206640000D02*
X137820000Y-206640000D01*
G75*
G02*
X138320000Y-207140000I0J-500000D01*
G01*
X138320000Y-208140000D01*
G75*
G02*
X137820000Y-208640000I-500000J0D01*
G01*
X131820000Y-208640000D01*
G75*
G02*
X131320000Y-208140000I0J500000D01*
G01*
X131320000Y-207140000D01*
G75*
G02*
X131820000Y-206640000I500000J0D01*
G01*
G37*
G36*
X135260191Y-200672470D02*
G01*
X135548941Y-200729906D01*
X135830670Y-200815368D01*
X136102665Y-200928032D01*
X136362308Y-201066814D01*
X136607098Y-201230377D01*
X136834677Y-201417147D01*
X137042853Y-201625323D01*
X137229623Y-201852902D01*
X137393186Y-202097692D01*
X137531968Y-202357335D01*
X137644632Y-202629330D01*
X137730094Y-202911059D01*
X137787530Y-203199809D01*
X137816386Y-203492797D01*
X137816386Y-203787203D01*
X137787530Y-204080191D01*
X137730094Y-204368941D01*
X137644632Y-204650670D01*
X137531968Y-204922665D01*
X137393186Y-205182308D01*
X137229623Y-205427098D01*
X137042853Y-205654677D01*
X136938765Y-205758765D01*
X137820000Y-206640000D01*
X131820000Y-206640000D01*
X132701235Y-205758765D01*
X132597147Y-205654677D01*
X132410377Y-205427098D01*
X132246814Y-205182308D01*
X132108032Y-204922665D01*
X131995368Y-204650670D01*
X131909906Y-204368941D01*
X131852470Y-204080191D01*
X131823614Y-203787203D01*
X131823614Y-203492797D01*
X131852470Y-203199809D01*
X131909906Y-202911059D01*
X131995368Y-202629330D01*
X132108032Y-202357335D01*
X132246814Y-202097692D01*
X132410377Y-201852902D01*
X132597147Y-201625323D01*
X132805323Y-201417147D01*
X133032902Y-201230377D01*
X133277692Y-201066814D01*
X133537335Y-200928032D01*
X133809330Y-200815368D01*
X134091059Y-200729906D01*
X134379809Y-200672470D01*
X134672797Y-200643614D01*
X134967203Y-200643614D01*
X135260191Y-200672470D01*
G37*
%TD*%
%TO.C,BLACK*%
G36*
G01*
X179220000Y-48157223D02*
X173220000Y-48157223D01*
G75*
G02*
X172720000Y-47657223I0J500000D01*
G01*
X172720000Y-46657223D01*
G75*
G02*
X173220000Y-46157223I500000J0D01*
G01*
X179220000Y-46157223D01*
G75*
G02*
X179720000Y-46657223I0J-500000D01*
G01*
X179720000Y-47657223D01*
G75*
G02*
X179220000Y-48157223I-500000J0D01*
G01*
G37*
G36*
X175779809Y-54124753D02*
G01*
X175491059Y-54067317D01*
X175209330Y-53981855D01*
X174937335Y-53869191D01*
X174677692Y-53730409D01*
X174432902Y-53566846D01*
X174205323Y-53380076D01*
X173997147Y-53171900D01*
X173810377Y-52944321D01*
X173646814Y-52699531D01*
X173508032Y-52439888D01*
X173395368Y-52167893D01*
X173309906Y-51886164D01*
X173252470Y-51597414D01*
X173223614Y-51304426D01*
X173223614Y-51010020D01*
X173252470Y-50717032D01*
X173309906Y-50428282D01*
X173395368Y-50146553D01*
X173508032Y-49874558D01*
X173646814Y-49614915D01*
X173810377Y-49370125D01*
X173997147Y-49142546D01*
X174101235Y-49038458D01*
X173220000Y-48157223D01*
X179220000Y-48157223D01*
X178338765Y-49038458D01*
X178442853Y-49142546D01*
X178629623Y-49370125D01*
X178793186Y-49614915D01*
X178931968Y-49874558D01*
X179044632Y-50146553D01*
X179130094Y-50428282D01*
X179187530Y-50717032D01*
X179216386Y-51010020D01*
X179216386Y-51304426D01*
X179187530Y-51597414D01*
X179130094Y-51886164D01*
X179044632Y-52167893D01*
X178931968Y-52439888D01*
X178793186Y-52699531D01*
X178629623Y-52944321D01*
X178442853Y-53171900D01*
X178234677Y-53380076D01*
X178007098Y-53566846D01*
X177762308Y-53730409D01*
X177502665Y-53869191D01*
X177230670Y-53981855D01*
X176948941Y-54067317D01*
X176660191Y-54124753D01*
X176367203Y-54153609D01*
X176072797Y-54153609D01*
X175779809Y-54124753D01*
G37*
%TD*%
%TO.C,BLACK*%
G36*
X176660191Y-75175247D02*
G01*
X176948941Y-75232683D01*
X177230670Y-75318145D01*
X177502665Y-75430809D01*
X177762308Y-75569591D01*
X178007098Y-75733154D01*
X178234677Y-75919924D01*
X178442853Y-76128100D01*
X178629623Y-76355679D01*
X178793186Y-76600469D01*
X178931968Y-76860112D01*
X179044632Y-77132107D01*
X179130094Y-77413836D01*
X179187530Y-77702586D01*
X179216386Y-77995574D01*
X179216386Y-78289980D01*
X179187530Y-78582968D01*
X179130094Y-78871718D01*
X179044632Y-79153447D01*
X178931968Y-79425442D01*
X178793186Y-79685085D01*
X178629623Y-79929875D01*
X178442853Y-80157454D01*
X178338765Y-80261542D01*
X179220000Y-81142777D01*
X173220000Y-81142777D01*
X174101235Y-80261542D01*
X173997147Y-80157454D01*
X173810377Y-79929875D01*
X173646814Y-79685085D01*
X173508032Y-79425442D01*
X173395368Y-79153447D01*
X173309906Y-78871718D01*
X173252470Y-78582968D01*
X173223614Y-78289980D01*
X173223614Y-77995574D01*
X173252470Y-77702586D01*
X173309906Y-77413836D01*
X173395368Y-77132107D01*
X173508032Y-76860112D01*
X173646814Y-76600469D01*
X173810377Y-76355679D01*
X173997147Y-76128100D01*
X174205323Y-75919924D01*
X174432902Y-75733154D01*
X174677692Y-75569591D01*
X174937335Y-75430809D01*
X175209330Y-75318145D01*
X175491059Y-75232683D01*
X175779809Y-75175247D01*
X176072797Y-75146391D01*
X176367203Y-75146391D01*
X176660191Y-75175247D01*
G37*
G36*
G01*
X173220000Y-81142777D02*
X179220000Y-81142777D01*
G75*
G02*
X179720000Y-81642777I0J-500000D01*
G01*
X179720000Y-82642777D01*
G75*
G02*
X179220000Y-83142777I-500000J0D01*
G01*
X173220000Y-83142777D01*
G75*
G02*
X172720000Y-82642777I0J500000D01*
G01*
X172720000Y-81642777D01*
G75*
G02*
X173220000Y-81142777I500000J0D01*
G01*
G37*
%TD*%
%TO.C,BLACK*%
G36*
X175779809Y-95381419D02*
G01*
X175491059Y-95323983D01*
X175209330Y-95238521D01*
X174937335Y-95125857D01*
X174677692Y-94987075D01*
X174432902Y-94823512D01*
X174205323Y-94636742D01*
X173997147Y-94428566D01*
X173810377Y-94200987D01*
X173646814Y-93956197D01*
X173508032Y-93696554D01*
X173395368Y-93424559D01*
X173309906Y-93142830D01*
X173252470Y-92854080D01*
X173223614Y-92561092D01*
X173223614Y-92266686D01*
X173252470Y-91973698D01*
X173309906Y-91684948D01*
X173395368Y-91403219D01*
X173508032Y-91131224D01*
X173646814Y-90871581D01*
X173810377Y-90626791D01*
X173997147Y-90399212D01*
X174101235Y-90295124D01*
X173220000Y-89413889D01*
X179220000Y-89413889D01*
X178338765Y-90295124D01*
X178442853Y-90399212D01*
X178629623Y-90626791D01*
X178793186Y-90871581D01*
X178931968Y-91131224D01*
X179044632Y-91403219D01*
X179130094Y-91684948D01*
X179187530Y-91973698D01*
X179216386Y-92266686D01*
X179216386Y-92561092D01*
X179187530Y-92854080D01*
X179130094Y-93142830D01*
X179044632Y-93424559D01*
X178931968Y-93696554D01*
X178793186Y-93956197D01*
X178629623Y-94200987D01*
X178442853Y-94428566D01*
X178234677Y-94636742D01*
X178007098Y-94823512D01*
X177762308Y-94987075D01*
X177502665Y-95125857D01*
X177230670Y-95238521D01*
X176948941Y-95323983D01*
X176660191Y-95381419D01*
X176367203Y-95410275D01*
X176072797Y-95410275D01*
X175779809Y-95381419D01*
G37*
G36*
G01*
X179220000Y-89413889D02*
X173220000Y-89413889D01*
G75*
G02*
X172720000Y-88913889I0J500000D01*
G01*
X172720000Y-87913889D01*
G75*
G02*
X173220000Y-87413889I500000J0D01*
G01*
X179220000Y-87413889D01*
G75*
G02*
X179720000Y-87913889I0J-500000D01*
G01*
X179720000Y-88913889D01*
G75*
G02*
X179220000Y-89413889I-500000J0D01*
G01*
G37*
%TD*%
%TO.C,BLACK*%
G36*
G01*
X173220000Y-122399443D02*
X179220000Y-122399443D01*
G75*
G02*
X179720000Y-122899443I0J-500000D01*
G01*
X179720000Y-123899443D01*
G75*
G02*
X179220000Y-124399443I-500000J0D01*
G01*
X173220000Y-124399443D01*
G75*
G02*
X172720000Y-123899443I0J500000D01*
G01*
X172720000Y-122899443D01*
G75*
G02*
X173220000Y-122399443I500000J0D01*
G01*
G37*
G36*
X176660191Y-116431913D02*
G01*
X176948941Y-116489349D01*
X177230670Y-116574811D01*
X177502665Y-116687475D01*
X177762308Y-116826257D01*
X178007098Y-116989820D01*
X178234677Y-117176590D01*
X178442853Y-117384766D01*
X178629623Y-117612345D01*
X178793186Y-117857135D01*
X178931968Y-118116778D01*
X179044632Y-118388773D01*
X179130094Y-118670502D01*
X179187530Y-118959252D01*
X179216386Y-119252240D01*
X179216386Y-119546646D01*
X179187530Y-119839634D01*
X179130094Y-120128384D01*
X179044632Y-120410113D01*
X178931968Y-120682108D01*
X178793186Y-120941751D01*
X178629623Y-121186541D01*
X178442853Y-121414120D01*
X178338765Y-121518208D01*
X179220000Y-122399443D01*
X173220000Y-122399443D01*
X174101235Y-121518208D01*
X173997147Y-121414120D01*
X173810377Y-121186541D01*
X173646814Y-120941751D01*
X173508032Y-120682108D01*
X173395368Y-120410113D01*
X173309906Y-120128384D01*
X173252470Y-119839634D01*
X173223614Y-119546646D01*
X173223614Y-119252240D01*
X173252470Y-118959252D01*
X173309906Y-118670502D01*
X173395368Y-118388773D01*
X173508032Y-118116778D01*
X173646814Y-117857135D01*
X173810377Y-117612345D01*
X173997147Y-117384766D01*
X174205323Y-117176590D01*
X174432902Y-116989820D01*
X174677692Y-116826257D01*
X174937335Y-116687475D01*
X175209330Y-116574811D01*
X175491059Y-116489349D01*
X175779809Y-116431913D01*
X176072797Y-116403057D01*
X176367203Y-116403057D01*
X176660191Y-116431913D01*
G37*
%TD*%
%TO.C,BLACK*%
G36*
G01*
X179220000Y-130670555D02*
X173220000Y-130670555D01*
G75*
G02*
X172720000Y-130170555I0J500000D01*
G01*
X172720000Y-129170555D01*
G75*
G02*
X173220000Y-128670555I500000J0D01*
G01*
X179220000Y-128670555D01*
G75*
G02*
X179720000Y-129170555I0J-500000D01*
G01*
X179720000Y-130170555D01*
G75*
G02*
X179220000Y-130670555I-500000J0D01*
G01*
G37*
G36*
X175779809Y-136638085D02*
G01*
X175491059Y-136580649D01*
X175209330Y-136495187D01*
X174937335Y-136382523D01*
X174677692Y-136243741D01*
X174432902Y-136080178D01*
X174205323Y-135893408D01*
X173997147Y-135685232D01*
X173810377Y-135457653D01*
X173646814Y-135212863D01*
X173508032Y-134953220D01*
X173395368Y-134681225D01*
X173309906Y-134399496D01*
X173252470Y-134110746D01*
X173223614Y-133817758D01*
X173223614Y-133523352D01*
X173252470Y-133230364D01*
X173309906Y-132941614D01*
X173395368Y-132659885D01*
X173508032Y-132387890D01*
X173646814Y-132128247D01*
X173810377Y-131883457D01*
X173997147Y-131655878D01*
X174101235Y-131551790D01*
X173220000Y-130670555D01*
X179220000Y-130670555D01*
X178338765Y-131551790D01*
X178442853Y-131655878D01*
X178629623Y-131883457D01*
X178793186Y-132128247D01*
X178931968Y-132387890D01*
X179044632Y-132659885D01*
X179130094Y-132941614D01*
X179187530Y-133230364D01*
X179216386Y-133523352D01*
X179216386Y-133817758D01*
X179187530Y-134110746D01*
X179130094Y-134399496D01*
X179044632Y-134681225D01*
X178931968Y-134953220D01*
X178793186Y-135212863D01*
X178629623Y-135457653D01*
X178442853Y-135685232D01*
X178234677Y-135893408D01*
X178007098Y-136080178D01*
X177762308Y-136243741D01*
X177502665Y-136382523D01*
X177230670Y-136495187D01*
X176948941Y-136580649D01*
X176660191Y-136638085D01*
X176367203Y-136666941D01*
X176072797Y-136666941D01*
X175779809Y-136638085D01*
G37*
%TD*%
%TO.C,BLACK*%
G36*
X176660191Y-157688579D02*
G01*
X176948941Y-157746015D01*
X177230670Y-157831477D01*
X177502665Y-157944141D01*
X177762308Y-158082923D01*
X178007098Y-158246486D01*
X178234677Y-158433256D01*
X178442853Y-158641432D01*
X178629623Y-158869011D01*
X178793186Y-159113801D01*
X178931968Y-159373444D01*
X179044632Y-159645439D01*
X179130094Y-159927168D01*
X179187530Y-160215918D01*
X179216386Y-160508906D01*
X179216386Y-160803312D01*
X179187530Y-161096300D01*
X179130094Y-161385050D01*
X179044632Y-161666779D01*
X178931968Y-161938774D01*
X178793186Y-162198417D01*
X178629623Y-162443207D01*
X178442853Y-162670786D01*
X178338765Y-162774874D01*
X179220000Y-163656109D01*
X173220000Y-163656109D01*
X174101235Y-162774874D01*
X173997147Y-162670786D01*
X173810377Y-162443207D01*
X173646814Y-162198417D01*
X173508032Y-161938774D01*
X173395368Y-161666779D01*
X173309906Y-161385050D01*
X173252470Y-161096300D01*
X173223614Y-160803312D01*
X173223614Y-160508906D01*
X173252470Y-160215918D01*
X173309906Y-159927168D01*
X173395368Y-159645439D01*
X173508032Y-159373444D01*
X173646814Y-159113801D01*
X173810377Y-158869011D01*
X173997147Y-158641432D01*
X174205323Y-158433256D01*
X174432902Y-158246486D01*
X174677692Y-158082923D01*
X174937335Y-157944141D01*
X175209330Y-157831477D01*
X175491059Y-157746015D01*
X175779809Y-157688579D01*
X176072797Y-157659723D01*
X176367203Y-157659723D01*
X176660191Y-157688579D01*
G37*
G36*
G01*
X173220000Y-163656109D02*
X179220000Y-163656109D01*
G75*
G02*
X179720000Y-164156109I0J-500000D01*
G01*
X179720000Y-165156109D01*
G75*
G02*
X179220000Y-165656109I-500000J0D01*
G01*
X173220000Y-165656109D01*
G75*
G02*
X172720000Y-165156109I0J500000D01*
G01*
X172720000Y-164156109D01*
G75*
G02*
X173220000Y-163656109I500000J0D01*
G01*
G37*
%TD*%
%TO.C,BLACK*%
G36*
X175779809Y-177894753D02*
G01*
X175491059Y-177837317D01*
X175209330Y-177751855D01*
X174937335Y-177639191D01*
X174677692Y-177500409D01*
X174432902Y-177336846D01*
X174205323Y-177150076D01*
X173997147Y-176941900D01*
X173810377Y-176714321D01*
X173646814Y-176469531D01*
X173508032Y-176209888D01*
X173395368Y-175937893D01*
X173309906Y-175656164D01*
X173252470Y-175367414D01*
X173223614Y-175074426D01*
X173223614Y-174780020D01*
X173252470Y-174487032D01*
X173309906Y-174198282D01*
X173395368Y-173916553D01*
X173508032Y-173644558D01*
X173646814Y-173384915D01*
X173810377Y-173140125D01*
X173997147Y-172912546D01*
X174101235Y-172808458D01*
X173220000Y-171927223D01*
X179220000Y-171927223D01*
X178338765Y-172808458D01*
X178442853Y-172912546D01*
X178629623Y-173140125D01*
X178793186Y-173384915D01*
X178931968Y-173644558D01*
X179044632Y-173916553D01*
X179130094Y-174198282D01*
X179187530Y-174487032D01*
X179216386Y-174780020D01*
X179216386Y-175074426D01*
X179187530Y-175367414D01*
X179130094Y-175656164D01*
X179044632Y-175937893D01*
X178931968Y-176209888D01*
X178793186Y-176469531D01*
X178629623Y-176714321D01*
X178442853Y-176941900D01*
X178234677Y-177150076D01*
X178007098Y-177336846D01*
X177762308Y-177500409D01*
X177502665Y-177639191D01*
X177230670Y-177751855D01*
X176948941Y-177837317D01*
X176660191Y-177894753D01*
X176367203Y-177923609D01*
X176072797Y-177923609D01*
X175779809Y-177894753D01*
G37*
G36*
G01*
X179220000Y-171927223D02*
X173220000Y-171927223D01*
G75*
G02*
X172720000Y-171427223I0J500000D01*
G01*
X172720000Y-170427223D01*
G75*
G02*
X173220000Y-169927223I500000J0D01*
G01*
X179220000Y-169927223D01*
G75*
G02*
X179720000Y-170427223I0J-500000D01*
G01*
X179720000Y-171427223D01*
G75*
G02*
X179220000Y-171927223I-500000J0D01*
G01*
G37*
%TD*%
%TO.C,BLACK*%
G36*
G01*
X173220000Y-204912777D02*
X179220000Y-204912777D01*
G75*
G02*
X179720000Y-205412777I0J-500000D01*
G01*
X179720000Y-206412777D01*
G75*
G02*
X179220000Y-206912777I-500000J0D01*
G01*
X173220000Y-206912777D01*
G75*
G02*
X172720000Y-206412777I0J500000D01*
G01*
X172720000Y-205412777D01*
G75*
G02*
X173220000Y-204912777I500000J0D01*
G01*
G37*
G36*
X176660191Y-198945247D02*
G01*
X176948941Y-199002683D01*
X177230670Y-199088145D01*
X177502665Y-199200809D01*
X177762308Y-199339591D01*
X178007098Y-199503154D01*
X178234677Y-199689924D01*
X178442853Y-199898100D01*
X178629623Y-200125679D01*
X178793186Y-200370469D01*
X178931968Y-200630112D01*
X179044632Y-200902107D01*
X179130094Y-201183836D01*
X179187530Y-201472586D01*
X179216386Y-201765574D01*
X179216386Y-202059980D01*
X179187530Y-202352968D01*
X179130094Y-202641718D01*
X179044632Y-202923447D01*
X178931968Y-203195442D01*
X178793186Y-203455085D01*
X178629623Y-203699875D01*
X178442853Y-203927454D01*
X178338765Y-204031542D01*
X179220000Y-204912777D01*
X173220000Y-204912777D01*
X174101235Y-204031542D01*
X173997147Y-203927454D01*
X173810377Y-203699875D01*
X173646814Y-203455085D01*
X173508032Y-203195442D01*
X173395368Y-202923447D01*
X173309906Y-202641718D01*
X173252470Y-202352968D01*
X173223614Y-202059980D01*
X173223614Y-201765574D01*
X173252470Y-201472586D01*
X173309906Y-201183836D01*
X173395368Y-200902107D01*
X173508032Y-200630112D01*
X173646814Y-200370469D01*
X173810377Y-200125679D01*
X173997147Y-199898100D01*
X174205323Y-199689924D01*
X174432902Y-199503154D01*
X174677692Y-199339591D01*
X174937335Y-199200809D01*
X175209330Y-199088145D01*
X175491059Y-199002683D01*
X175779809Y-198945247D01*
X176072797Y-198916391D01*
X176367203Y-198916391D01*
X176660191Y-198945247D01*
G37*
%TD*%
D14*
%TO.C,Q1*%
X43930000Y-97490000D03*
X41650000Y-97490000D03*
X39370000Y-97490000D03*
D15*
X41650000Y-103790000D03*
%TD*%
%TO.C,Q2*%
X72650000Y-144730000D03*
D14*
X70370000Y-138430000D03*
X72650000Y-138430000D03*
X74930000Y-138430000D03*
%TD*%
%TO.C,Q3*%
X45920000Y-179920000D03*
X43640000Y-179920000D03*
X41360000Y-179920000D03*
D15*
X43640000Y-186220000D03*
%TD*%
D14*
%TO.C,Q4*%
X88640000Y-164960000D03*
X90920000Y-164960000D03*
X93200000Y-164960000D03*
D15*
X90920000Y-158660000D03*
%TD*%
%TO.C,Q5*%
X58973811Y-104140000D03*
D14*
X56693811Y-97840000D03*
X58973811Y-97840000D03*
X61253811Y-97840000D03*
%TD*%
D15*
%TO.C,Q6*%
X86470000Y-144730000D03*
D14*
X84190000Y-138430000D03*
X86470000Y-138430000D03*
X88750000Y-138430000D03*
%TD*%
%TO.C,Q7*%
X63740000Y-179920000D03*
X61460000Y-179920000D03*
X59180000Y-179920000D03*
D15*
X61460000Y-186220000D03*
%TD*%
%TO.C,Q8*%
X77100000Y-158660000D03*
D14*
X79380000Y-164960000D03*
X77100000Y-164960000D03*
X74820000Y-164960000D03*
%TD*%
%TO.C,R1*%
G36*
G01*
X38405000Y-95445001D02*
X38405000Y-94194999D01*
G75*
G02*
X38654999Y-93945000I249999J0D01*
G01*
X39280001Y-93945000D01*
G75*
G02*
X39530000Y-94194999I0J-249999D01*
G01*
X39530000Y-95445001D01*
G75*
G02*
X39280001Y-95695000I-249999J0D01*
G01*
X38654999Y-95695000D01*
G75*
G02*
X38405000Y-95445001I0J249999D01*
G01*
G37*
G36*
G01*
X41330000Y-95445001D02*
X41330000Y-94194999D01*
G75*
G02*
X41579999Y-93945000I249999J0D01*
G01*
X42205001Y-93945000D01*
G75*
G02*
X42455000Y-94194999I0J-249999D01*
G01*
X42455000Y-95445001D01*
G75*
G02*
X42205001Y-95695000I-249999J0D01*
G01*
X41579999Y-95695000D01*
G75*
G02*
X41330000Y-95445001I0J249999D01*
G01*
G37*
%TD*%
%TO.C,R2*%
G36*
G01*
X69405000Y-136365001D02*
X69405000Y-135114999D01*
G75*
G02*
X69654999Y-134865000I249999J0D01*
G01*
X70280001Y-134865000D01*
G75*
G02*
X70530000Y-135114999I0J-249999D01*
G01*
X70530000Y-136365001D01*
G75*
G02*
X70280001Y-136615000I-249999J0D01*
G01*
X69654999Y-136615000D01*
G75*
G02*
X69405000Y-136365001I0J249999D01*
G01*
G37*
G36*
G01*
X72330000Y-136365001D02*
X72330000Y-135114999D01*
G75*
G02*
X72579999Y-134865000I249999J0D01*
G01*
X73205001Y-134865000D01*
G75*
G02*
X73455000Y-135114999I0J-249999D01*
G01*
X73455000Y-136365001D01*
G75*
G02*
X73205001Y-136615000I-249999J0D01*
G01*
X72579999Y-136615000D01*
G75*
G02*
X72330000Y-136365001I0J249999D01*
G01*
G37*
%TD*%
%TO.C,R3*%
G36*
G01*
X43320000Y-177915001D02*
X43320000Y-176664999D01*
G75*
G02*
X43569999Y-176415000I249999J0D01*
G01*
X44195001Y-176415000D01*
G75*
G02*
X44445000Y-176664999I0J-249999D01*
G01*
X44445000Y-177915001D01*
G75*
G02*
X44195001Y-178165000I-249999J0D01*
G01*
X43569999Y-178165000D01*
G75*
G02*
X43320000Y-177915001I0J249999D01*
G01*
G37*
G36*
G01*
X40395000Y-177915001D02*
X40395000Y-176664999D01*
G75*
G02*
X40644999Y-176415000I249999J0D01*
G01*
X41270001Y-176415000D01*
G75*
G02*
X41520000Y-176664999I0J-249999D01*
G01*
X41520000Y-177915001D01*
G75*
G02*
X41270001Y-178165000I-249999J0D01*
G01*
X40644999Y-178165000D01*
G75*
G02*
X40395000Y-177915001I0J249999D01*
G01*
G37*
%TD*%
%TO.C,R4*%
G36*
G01*
X91240000Y-167014999D02*
X91240000Y-168265001D01*
G75*
G02*
X90990001Y-168515000I-249999J0D01*
G01*
X90364999Y-168515000D01*
G75*
G02*
X90115000Y-168265001I0J249999D01*
G01*
X90115000Y-167014999D01*
G75*
G02*
X90364999Y-166765000I249999J0D01*
G01*
X90990001Y-166765000D01*
G75*
G02*
X91240000Y-167014999I0J-249999D01*
G01*
G37*
G36*
G01*
X94165000Y-167014999D02*
X94165000Y-168265001D01*
G75*
G02*
X93915001Y-168515000I-249999J0D01*
G01*
X93289999Y-168515000D01*
G75*
G02*
X93040000Y-168265001I0J249999D01*
G01*
X93040000Y-167014999D01*
G75*
G02*
X93289999Y-166765000I249999J0D01*
G01*
X93915001Y-166765000D01*
G75*
G02*
X94165000Y-167014999I0J-249999D01*
G01*
G37*
%TD*%
%TO.C,R5*%
G36*
G01*
X55728811Y-95755001D02*
X55728811Y-94504999D01*
G75*
G02*
X55978810Y-94255000I249999J0D01*
G01*
X56603812Y-94255000D01*
G75*
G02*
X56853811Y-94504999I0J-249999D01*
G01*
X56853811Y-95755001D01*
G75*
G02*
X56603812Y-96005000I-249999J0D01*
G01*
X55978810Y-96005000D01*
G75*
G02*
X55728811Y-95755001I0J249999D01*
G01*
G37*
G36*
G01*
X58653811Y-95755001D02*
X58653811Y-94504999D01*
G75*
G02*
X58903810Y-94255000I249999J0D01*
G01*
X59528812Y-94255000D01*
G75*
G02*
X59778811Y-94504999I0J-249999D01*
G01*
X59778811Y-95755001D01*
G75*
G02*
X59528812Y-96005000I-249999J0D01*
G01*
X58903810Y-96005000D01*
G75*
G02*
X58653811Y-95755001I0J249999D01*
G01*
G37*
%TD*%
%TO.C,R6*%
G36*
G01*
X86150000Y-136365001D02*
X86150000Y-135114999D01*
G75*
G02*
X86399999Y-134865000I249999J0D01*
G01*
X87025001Y-134865000D01*
G75*
G02*
X87275000Y-135114999I0J-249999D01*
G01*
X87275000Y-136365001D01*
G75*
G02*
X87025001Y-136615000I-249999J0D01*
G01*
X86399999Y-136615000D01*
G75*
G02*
X86150000Y-136365001I0J249999D01*
G01*
G37*
G36*
G01*
X83225000Y-136365001D02*
X83225000Y-135114999D01*
G75*
G02*
X83474999Y-134865000I249999J0D01*
G01*
X84100001Y-134865000D01*
G75*
G02*
X84350000Y-135114999I0J-249999D01*
G01*
X84350000Y-136365001D01*
G75*
G02*
X84100001Y-136615000I-249999J0D01*
G01*
X83474999Y-136615000D01*
G75*
G02*
X83225000Y-136365001I0J249999D01*
G01*
G37*
%TD*%
%TO.C,R7*%
G36*
G01*
X61140000Y-177915001D02*
X61140000Y-176664999D01*
G75*
G02*
X61389999Y-176415000I249999J0D01*
G01*
X62015001Y-176415000D01*
G75*
G02*
X62265000Y-176664999I0J-249999D01*
G01*
X62265000Y-177915001D01*
G75*
G02*
X62015001Y-178165000I-249999J0D01*
G01*
X61389999Y-178165000D01*
G75*
G02*
X61140000Y-177915001I0J249999D01*
G01*
G37*
G36*
G01*
X58215000Y-177915001D02*
X58215000Y-176664999D01*
G75*
G02*
X58464999Y-176415000I249999J0D01*
G01*
X59090001Y-176415000D01*
G75*
G02*
X59340000Y-176664999I0J-249999D01*
G01*
X59340000Y-177915001D01*
G75*
G02*
X59090001Y-178165000I-249999J0D01*
G01*
X58464999Y-178165000D01*
G75*
G02*
X58215000Y-177915001I0J249999D01*
G01*
G37*
%TD*%
%TO.C,R8*%
G36*
G01*
X77420000Y-167014999D02*
X77420000Y-168265001D01*
G75*
G02*
X77170001Y-168515000I-249999J0D01*
G01*
X76544999Y-168515000D01*
G75*
G02*
X76295000Y-168265001I0J249999D01*
G01*
X76295000Y-167014999D01*
G75*
G02*
X76544999Y-166765000I249999J0D01*
G01*
X77170001Y-166765000D01*
G75*
G02*
X77420000Y-167014999I0J-249999D01*
G01*
G37*
G36*
G01*
X80345000Y-167014999D02*
X80345000Y-168265001D01*
G75*
G02*
X80095001Y-168515000I-249999J0D01*
G01*
X79469999Y-168515000D01*
G75*
G02*
X79220000Y-168265001I0J249999D01*
G01*
X79220000Y-167014999D01*
G75*
G02*
X79469999Y-166765000I249999J0D01*
G01*
X80095001Y-166765000D01*
G75*
G02*
X80345000Y-167014999I0J-249999D01*
G01*
G37*
%TD*%
%TO.C,R9*%
G36*
G01*
X98984999Y-62625000D02*
X100235001Y-62625000D01*
G75*
G02*
X100485000Y-62874999I0J-249999D01*
G01*
X100485000Y-63500001D01*
G75*
G02*
X100235001Y-63750000I-249999J0D01*
G01*
X98984999Y-63750000D01*
G75*
G02*
X98735000Y-63500001I0J249999D01*
G01*
X98735000Y-62874999D01*
G75*
G02*
X98984999Y-62625000I249999J0D01*
G01*
G37*
G36*
G01*
X98984999Y-65550000D02*
X100235001Y-65550000D01*
G75*
G02*
X100485000Y-65799999I0J-249999D01*
G01*
X100485000Y-66425001D01*
G75*
G02*
X100235001Y-66675000I-249999J0D01*
G01*
X98984999Y-66675000D01*
G75*
G02*
X98735000Y-66425001I0J249999D01*
G01*
X98735000Y-65799999D01*
G75*
G02*
X98984999Y-65550000I249999J0D01*
G01*
G37*
%TD*%
%TO.C,R10*%
G36*
G01*
X110724999Y-106806666D02*
X111975001Y-106806666D01*
G75*
G02*
X112225000Y-107056665I0J-249999D01*
G01*
X112225000Y-107681667D01*
G75*
G02*
X111975001Y-107931666I-249999J0D01*
G01*
X110724999Y-107931666D01*
G75*
G02*
X110475000Y-107681667I0J249999D01*
G01*
X110475000Y-107056665D01*
G75*
G02*
X110724999Y-106806666I249999J0D01*
G01*
G37*
G36*
G01*
X110724999Y-103881666D02*
X111975001Y-103881666D01*
G75*
G02*
X112225000Y-104131665I0J-249999D01*
G01*
X112225000Y-104756667D01*
G75*
G02*
X111975001Y-105006666I-249999J0D01*
G01*
X110724999Y-105006666D01*
G75*
G02*
X110475000Y-104756667I0J249999D01*
G01*
X110475000Y-104131665D01*
G75*
G02*
X110724999Y-103881666I249999J0D01*
G01*
G37*
%TD*%
%TO.C,R11*%
G36*
G01*
X98984999Y-145138332D02*
X100235001Y-145138332D01*
G75*
G02*
X100485000Y-145388331I0J-249999D01*
G01*
X100485000Y-146013333D01*
G75*
G02*
X100235001Y-146263332I-249999J0D01*
G01*
X98984999Y-146263332D01*
G75*
G02*
X98735000Y-146013333I0J249999D01*
G01*
X98735000Y-145388331D01*
G75*
G02*
X98984999Y-145138332I249999J0D01*
G01*
G37*
G36*
G01*
X98984999Y-148063332D02*
X100235001Y-148063332D01*
G75*
G02*
X100485000Y-148313331I0J-249999D01*
G01*
X100485000Y-148938333D01*
G75*
G02*
X100235001Y-149188332I-249999J0D01*
G01*
X98984999Y-149188332D01*
G75*
G02*
X98735000Y-148938333I0J249999D01*
G01*
X98735000Y-148313331D01*
G75*
G02*
X98984999Y-148063332I249999J0D01*
G01*
G37*
%TD*%
%TO.C,R12*%
G36*
G01*
X110724999Y-189320000D02*
X111975001Y-189320000D01*
G75*
G02*
X112225000Y-189569999I0J-249999D01*
G01*
X112225000Y-190195001D01*
G75*
G02*
X111975001Y-190445000I-249999J0D01*
G01*
X110724999Y-190445000D01*
G75*
G02*
X110475000Y-190195001I0J249999D01*
G01*
X110475000Y-189569999D01*
G75*
G02*
X110724999Y-189320000I249999J0D01*
G01*
G37*
G36*
G01*
X110724999Y-186395000D02*
X111975001Y-186395000D01*
G75*
G02*
X112225000Y-186644999I0J-249999D01*
G01*
X112225000Y-187270001D01*
G75*
G02*
X111975001Y-187520000I-249999J0D01*
G01*
X110724999Y-187520000D01*
G75*
G02*
X110475000Y-187270001I0J249999D01*
G01*
X110475000Y-186644999D01*
G75*
G02*
X110724999Y-186395000I249999J0D01*
G01*
G37*
%TD*%
%TO.C,R13*%
G36*
G01*
X122454999Y-62625000D02*
X123705001Y-62625000D01*
G75*
G02*
X123955000Y-62874999I0J-249999D01*
G01*
X123955000Y-63500001D01*
G75*
G02*
X123705001Y-63750000I-249999J0D01*
G01*
X122454999Y-63750000D01*
G75*
G02*
X122205000Y-63500001I0J249999D01*
G01*
X122205000Y-62874999D01*
G75*
G02*
X122454999Y-62625000I249999J0D01*
G01*
G37*
G36*
G01*
X122454999Y-65550000D02*
X123705001Y-65550000D01*
G75*
G02*
X123955000Y-65799999I0J-249999D01*
G01*
X123955000Y-66425001D01*
G75*
G02*
X123705001Y-66675000I-249999J0D01*
G01*
X122454999Y-66675000D01*
G75*
G02*
X122205000Y-66425001I0J249999D01*
G01*
X122205000Y-65799999D01*
G75*
G02*
X122454999Y-65550000I249999J0D01*
G01*
G37*
%TD*%
%TO.C,R14*%
G36*
G01*
X134194999Y-103881666D02*
X135445001Y-103881666D01*
G75*
G02*
X135695000Y-104131665I0J-249999D01*
G01*
X135695000Y-104756667D01*
G75*
G02*
X135445001Y-105006666I-249999J0D01*
G01*
X134194999Y-105006666D01*
G75*
G02*
X133945000Y-104756667I0J249999D01*
G01*
X133945000Y-104131665D01*
G75*
G02*
X134194999Y-103881666I249999J0D01*
G01*
G37*
G36*
G01*
X134194999Y-106806666D02*
X135445001Y-106806666D01*
G75*
G02*
X135695000Y-107056665I0J-249999D01*
G01*
X135695000Y-107681667D01*
G75*
G02*
X135445001Y-107931666I-249999J0D01*
G01*
X134194999Y-107931666D01*
G75*
G02*
X133945000Y-107681667I0J249999D01*
G01*
X133945000Y-107056665D01*
G75*
G02*
X134194999Y-106806666I249999J0D01*
G01*
G37*
%TD*%
%TO.C,R15*%
G36*
G01*
X122454999Y-145138332D02*
X123705001Y-145138332D01*
G75*
G02*
X123955000Y-145388331I0J-249999D01*
G01*
X123955000Y-146013333D01*
G75*
G02*
X123705001Y-146263332I-249999J0D01*
G01*
X122454999Y-146263332D01*
G75*
G02*
X122205000Y-146013333I0J249999D01*
G01*
X122205000Y-145388331D01*
G75*
G02*
X122454999Y-145138332I249999J0D01*
G01*
G37*
G36*
G01*
X122454999Y-148063332D02*
X123705001Y-148063332D01*
G75*
G02*
X123955000Y-148313331I0J-249999D01*
G01*
X123955000Y-148938333D01*
G75*
G02*
X123705001Y-149188332I-249999J0D01*
G01*
X122454999Y-149188332D01*
G75*
G02*
X122205000Y-148938333I0J249999D01*
G01*
X122205000Y-148313331D01*
G75*
G02*
X122454999Y-148063332I249999J0D01*
G01*
G37*
%TD*%
%TO.C,R16*%
G36*
G01*
X134194999Y-189320000D02*
X135445001Y-189320000D01*
G75*
G02*
X135695000Y-189569999I0J-249999D01*
G01*
X135695000Y-190195001D01*
G75*
G02*
X135445001Y-190445000I-249999J0D01*
G01*
X134194999Y-190445000D01*
G75*
G02*
X133945000Y-190195001I0J249999D01*
G01*
X133945000Y-189569999D01*
G75*
G02*
X134194999Y-189320000I249999J0D01*
G01*
G37*
G36*
G01*
X134194999Y-186395000D02*
X135445001Y-186395000D01*
G75*
G02*
X135695000Y-186644999I0J-249999D01*
G01*
X135695000Y-187270001D01*
G75*
G02*
X135445001Y-187520000I-249999J0D01*
G01*
X134194999Y-187520000D01*
G75*
G02*
X133945000Y-187270001I0J249999D01*
G01*
X133945000Y-186644999D01*
G75*
G02*
X134194999Y-186395000I249999J0D01*
G01*
G37*
%TD*%
D11*
%TO.C,BUTTON*%
X53770000Y-64650000D03*
D12*
X35170000Y-76950000D03*
X35170000Y-83250000D03*
X35170000Y-70650000D03*
%TD*%
%TO.C,BUTTON*%
X66110000Y-111906666D03*
X66110000Y-124506666D03*
X66110000Y-118206666D03*
D11*
X84710000Y-105906666D03*
%TD*%
D12*
%TO.C,SWITCH*%
X35170000Y-153163332D03*
X35170000Y-165763332D03*
X35170000Y-159463332D03*
D11*
X53770000Y-147163332D03*
%TD*%
%TO.C,SWITCH*%
X84710000Y-188420000D03*
D12*
X66110000Y-200720000D03*
X66110000Y-207020000D03*
X66110000Y-194420000D03*
%TD*%
M02*
