%TF.GenerationSoftware,KiCad,Pcbnew,(5.1.9)-1*%
%TF.CreationDate,2021-08-08T20:50:52+02:00*%
%TF.ProjectId,SwitchBox,53776974-6368-4426-9f78-2e6b69636164,rev?*%
%TF.SameCoordinates,Original*%
%TF.FileFunction,Paste,Top*%
%TF.FilePolarity,Positive*%
%FSLAX46Y46*%
G04 Gerber Fmt 4.6, Leading zero omitted, Abs format (unit mm)*
G04 Created by KiCad (PCBNEW (5.1.9)-1) date 2021-08-08 20:50:52*
%MOMM*%
%LPD*%
G01*
G04 APERTURE LIST*
%ADD10R,0.600000X0.450000*%
%ADD11R,1.200000X2.200000*%
%ADD12R,2.750000X3.050000*%
G04 APERTURE END LIST*
%TO.C,C1*%
G36*
G01*
X95074999Y-62425000D02*
X96375001Y-62425000D01*
G75*
G02*
X96625000Y-62674999I0J-249999D01*
G01*
X96625000Y-63500001D01*
G75*
G02*
X96375001Y-63750000I-249999J0D01*
G01*
X95074999Y-63750000D01*
G75*
G02*
X94825000Y-63500001I0J249999D01*
G01*
X94825000Y-62674999D01*
G75*
G02*
X95074999Y-62425000I249999J0D01*
G01*
G37*
G36*
G01*
X95074999Y-65550000D02*
X96375001Y-65550000D01*
G75*
G02*
X96625000Y-65799999I0J-249999D01*
G01*
X96625000Y-66625001D01*
G75*
G02*
X96375001Y-66875000I-249999J0D01*
G01*
X95074999Y-66875000D01*
G75*
G02*
X94825000Y-66625001I0J249999D01*
G01*
X94825000Y-65799999D01*
G75*
G02*
X95074999Y-65550000I249999J0D01*
G01*
G37*
%TD*%
%TO.C,C2*%
G36*
G01*
X106814999Y-103681666D02*
X108115001Y-103681666D01*
G75*
G02*
X108365000Y-103931665I0J-249999D01*
G01*
X108365000Y-104756667D01*
G75*
G02*
X108115001Y-105006666I-249999J0D01*
G01*
X106814999Y-105006666D01*
G75*
G02*
X106565000Y-104756667I0J249999D01*
G01*
X106565000Y-103931665D01*
G75*
G02*
X106814999Y-103681666I249999J0D01*
G01*
G37*
G36*
G01*
X106814999Y-106806666D02*
X108115001Y-106806666D01*
G75*
G02*
X108365000Y-107056665I0J-249999D01*
G01*
X108365000Y-107881667D01*
G75*
G02*
X108115001Y-108131666I-249999J0D01*
G01*
X106814999Y-108131666D01*
G75*
G02*
X106565000Y-107881667I0J249999D01*
G01*
X106565000Y-107056665D01*
G75*
G02*
X106814999Y-106806666I249999J0D01*
G01*
G37*
%TD*%
%TO.C,C3*%
G36*
G01*
X95074999Y-148063332D02*
X96375001Y-148063332D01*
G75*
G02*
X96625000Y-148313331I0J-249999D01*
G01*
X96625000Y-149138333D01*
G75*
G02*
X96375001Y-149388332I-249999J0D01*
G01*
X95074999Y-149388332D01*
G75*
G02*
X94825000Y-149138333I0J249999D01*
G01*
X94825000Y-148313331D01*
G75*
G02*
X95074999Y-148063332I249999J0D01*
G01*
G37*
G36*
G01*
X95074999Y-144938332D02*
X96375001Y-144938332D01*
G75*
G02*
X96625000Y-145188331I0J-249999D01*
G01*
X96625000Y-146013333D01*
G75*
G02*
X96375001Y-146263332I-249999J0D01*
G01*
X95074999Y-146263332D01*
G75*
G02*
X94825000Y-146013333I0J249999D01*
G01*
X94825000Y-145188331D01*
G75*
G02*
X95074999Y-144938332I249999J0D01*
G01*
G37*
%TD*%
%TO.C,C4*%
G36*
G01*
X106814999Y-186195000D02*
X108115001Y-186195000D01*
G75*
G02*
X108365000Y-186444999I0J-249999D01*
G01*
X108365000Y-187270001D01*
G75*
G02*
X108115001Y-187520000I-249999J0D01*
G01*
X106814999Y-187520000D01*
G75*
G02*
X106565000Y-187270001I0J249999D01*
G01*
X106565000Y-186444999D01*
G75*
G02*
X106814999Y-186195000I249999J0D01*
G01*
G37*
G36*
G01*
X106814999Y-189320000D02*
X108115001Y-189320000D01*
G75*
G02*
X108365000Y-189569999I0J-249999D01*
G01*
X108365000Y-190395001D01*
G75*
G02*
X108115001Y-190645000I-249999J0D01*
G01*
X106814999Y-190645000D01*
G75*
G02*
X106565000Y-190395001I0J249999D01*
G01*
X106565000Y-189569999D01*
G75*
G02*
X106814999Y-189320000I249999J0D01*
G01*
G37*
%TD*%
%TO.C,C5*%
G36*
G01*
X118544999Y-65630000D02*
X119845001Y-65630000D01*
G75*
G02*
X120095000Y-65879999I0J-249999D01*
G01*
X120095000Y-66705001D01*
G75*
G02*
X119845001Y-66955000I-249999J0D01*
G01*
X118544999Y-66955000D01*
G75*
G02*
X118295000Y-66705001I0J249999D01*
G01*
X118295000Y-65879999D01*
G75*
G02*
X118544999Y-65630000I249999J0D01*
G01*
G37*
G36*
G01*
X118544999Y-62505000D02*
X119845001Y-62505000D01*
G75*
G02*
X120095000Y-62754999I0J-249999D01*
G01*
X120095000Y-63580001D01*
G75*
G02*
X119845001Y-63830000I-249999J0D01*
G01*
X118544999Y-63830000D01*
G75*
G02*
X118295000Y-63580001I0J249999D01*
G01*
X118295000Y-62754999D01*
G75*
G02*
X118544999Y-62505000I249999J0D01*
G01*
G37*
%TD*%
%TO.C,C6*%
G36*
G01*
X130284999Y-103681666D02*
X131585001Y-103681666D01*
G75*
G02*
X131835000Y-103931665I0J-249999D01*
G01*
X131835000Y-104756667D01*
G75*
G02*
X131585001Y-105006666I-249999J0D01*
G01*
X130284999Y-105006666D01*
G75*
G02*
X130035000Y-104756667I0J249999D01*
G01*
X130035000Y-103931665D01*
G75*
G02*
X130284999Y-103681666I249999J0D01*
G01*
G37*
G36*
G01*
X130284999Y-106806666D02*
X131585001Y-106806666D01*
G75*
G02*
X131835000Y-107056665I0J-249999D01*
G01*
X131835000Y-107881667D01*
G75*
G02*
X131585001Y-108131666I-249999J0D01*
G01*
X130284999Y-108131666D01*
G75*
G02*
X130035000Y-107881667I0J249999D01*
G01*
X130035000Y-107056665D01*
G75*
G02*
X130284999Y-106806666I249999J0D01*
G01*
G37*
%TD*%
%TO.C,C7*%
G36*
G01*
X118544999Y-148063332D02*
X119845001Y-148063332D01*
G75*
G02*
X120095000Y-148313331I0J-249999D01*
G01*
X120095000Y-149138333D01*
G75*
G02*
X119845001Y-149388332I-249999J0D01*
G01*
X118544999Y-149388332D01*
G75*
G02*
X118295000Y-149138333I0J249999D01*
G01*
X118295000Y-148313331D01*
G75*
G02*
X118544999Y-148063332I249999J0D01*
G01*
G37*
G36*
G01*
X118544999Y-144938332D02*
X119845001Y-144938332D01*
G75*
G02*
X120095000Y-145188331I0J-249999D01*
G01*
X120095000Y-146013333D01*
G75*
G02*
X119845001Y-146263332I-249999J0D01*
G01*
X118544999Y-146263332D01*
G75*
G02*
X118295000Y-146013333I0J249999D01*
G01*
X118295000Y-145188331D01*
G75*
G02*
X118544999Y-144938332I249999J0D01*
G01*
G37*
%TD*%
%TO.C,C8*%
G36*
G01*
X130284999Y-189320000D02*
X131585001Y-189320000D01*
G75*
G02*
X131835000Y-189569999I0J-249999D01*
G01*
X131835000Y-190395001D01*
G75*
G02*
X131585001Y-190645000I-249999J0D01*
G01*
X130284999Y-190645000D01*
G75*
G02*
X130035000Y-190395001I0J249999D01*
G01*
X130035000Y-189569999D01*
G75*
G02*
X130284999Y-189320000I249999J0D01*
G01*
G37*
G36*
G01*
X130284999Y-186195000D02*
X131585001Y-186195000D01*
G75*
G02*
X131835000Y-186444999I0J-249999D01*
G01*
X131835000Y-187270001D01*
G75*
G02*
X131585001Y-187520000I-249999J0D01*
G01*
X130284999Y-187520000D01*
G75*
G02*
X130035000Y-187270001I0J249999D01*
G01*
X130035000Y-186444999D01*
G75*
G02*
X130284999Y-186195000I249999J0D01*
G01*
G37*
%TD*%
D10*
%TO.C,D1*%
X40800000Y-92510000D03*
X38700000Y-92510000D03*
%TD*%
%TO.C,D2*%
X69700000Y-133380000D03*
X71800000Y-133380000D03*
%TD*%
%TO.C,D3*%
X40690000Y-175060000D03*
X42790000Y-175060000D03*
%TD*%
%TO.C,D4*%
X91770000Y-169900000D03*
X93870000Y-169900000D03*
%TD*%
%TO.C,D5*%
X56023811Y-92770000D03*
X58123811Y-92770000D03*
%TD*%
%TO.C,D6*%
X83520000Y-133380000D03*
X85620000Y-133380000D03*
%TD*%
%TO.C,D7*%
X60610000Y-175060000D03*
X58510000Y-175060000D03*
%TD*%
%TO.C,D8*%
X77950000Y-169900000D03*
X80050000Y-169900000D03*
%TD*%
%TO.C,F1*%
G36*
G01*
X48315001Y-88915000D02*
X43364999Y-88915000D01*
G75*
G02*
X43115000Y-88665001I0J249999D01*
G01*
X43115000Y-87239999D01*
G75*
G02*
X43364999Y-86990000I249999J0D01*
G01*
X48315001Y-86990000D01*
G75*
G02*
X48565000Y-87239999I0J-249999D01*
G01*
X48565000Y-88665001D01*
G75*
G02*
X48315001Y-88915000I-249999J0D01*
G01*
G37*
G36*
G01*
X48315001Y-95690000D02*
X43364999Y-95690000D01*
G75*
G02*
X43115000Y-95440001I0J249999D01*
G01*
X43115000Y-94014999D01*
G75*
G02*
X43364999Y-93765000I249999J0D01*
G01*
X48315001Y-93765000D01*
G75*
G02*
X48565000Y-94014999I0J-249999D01*
G01*
X48565000Y-95440001D01*
G75*
G02*
X48315001Y-95690000I-249999J0D01*
G01*
G37*
%TD*%
%TO.C,F2*%
G36*
G01*
X79415001Y-136610000D02*
X74464999Y-136610000D01*
G75*
G02*
X74215000Y-136360001I0J249999D01*
G01*
X74215000Y-134934999D01*
G75*
G02*
X74464999Y-134685000I249999J0D01*
G01*
X79415001Y-134685000D01*
G75*
G02*
X79665000Y-134934999I0J-249999D01*
G01*
X79665000Y-136360001D01*
G75*
G02*
X79415001Y-136610000I-249999J0D01*
G01*
G37*
G36*
G01*
X79415001Y-129835000D02*
X74464999Y-129835000D01*
G75*
G02*
X74215000Y-129585001I0J249999D01*
G01*
X74215000Y-128159999D01*
G75*
G02*
X74464999Y-127910000I249999J0D01*
G01*
X79415001Y-127910000D01*
G75*
G02*
X79665000Y-128159999I0J-249999D01*
G01*
X79665000Y-129585001D01*
G75*
G02*
X79415001Y-129835000I-249999J0D01*
G01*
G37*
%TD*%
%TO.C,F3*%
G36*
G01*
X50405001Y-178170000D02*
X45454999Y-178170000D01*
G75*
G02*
X45205000Y-177920001I0J249999D01*
G01*
X45205000Y-176494999D01*
G75*
G02*
X45454999Y-176245000I249999J0D01*
G01*
X50405001Y-176245000D01*
G75*
G02*
X50655000Y-176494999I0J-249999D01*
G01*
X50655000Y-177920001D01*
G75*
G02*
X50405001Y-178170000I-249999J0D01*
G01*
G37*
G36*
G01*
X50405001Y-171395000D02*
X45454999Y-171395000D01*
G75*
G02*
X45205000Y-171145001I0J249999D01*
G01*
X45205000Y-169719999D01*
G75*
G02*
X45454999Y-169470000I249999J0D01*
G01*
X50405001Y-169470000D01*
G75*
G02*
X50655000Y-169719999I0J-249999D01*
G01*
X50655000Y-171145001D01*
G75*
G02*
X50405001Y-171395000I-249999J0D01*
G01*
G37*
%TD*%
%TO.C,F4*%
G36*
G01*
X84154999Y-166750000D02*
X89105001Y-166750000D01*
G75*
G02*
X89355000Y-166999999I0J-249999D01*
G01*
X89355000Y-168425001D01*
G75*
G02*
X89105001Y-168675000I-249999J0D01*
G01*
X84154999Y-168675000D01*
G75*
G02*
X83905000Y-168425001I0J249999D01*
G01*
X83905000Y-166999999D01*
G75*
G02*
X84154999Y-166750000I249999J0D01*
G01*
G37*
G36*
G01*
X84154999Y-173525000D02*
X89105001Y-173525000D01*
G75*
G02*
X89355000Y-173774999I0J-249999D01*
G01*
X89355000Y-175200001D01*
G75*
G02*
X89105001Y-175450000I-249999J0D01*
G01*
X84154999Y-175450000D01*
G75*
G02*
X83905000Y-175200001I0J249999D01*
G01*
X83905000Y-173774999D01*
G75*
G02*
X84154999Y-173525000I249999J0D01*
G01*
G37*
%TD*%
%TO.C,F5*%
G36*
G01*
X65715001Y-96010000D02*
X60764999Y-96010000D01*
G75*
G02*
X60515000Y-95760001I0J249999D01*
G01*
X60515000Y-94334999D01*
G75*
G02*
X60764999Y-94085000I249999J0D01*
G01*
X65715001Y-94085000D01*
G75*
G02*
X65965000Y-94334999I0J-249999D01*
G01*
X65965000Y-95760001D01*
G75*
G02*
X65715001Y-96010000I-249999J0D01*
G01*
G37*
G36*
G01*
X65715001Y-89235000D02*
X60764999Y-89235000D01*
G75*
G02*
X60515000Y-88985001I0J249999D01*
G01*
X60515000Y-87559999D01*
G75*
G02*
X60764999Y-87310000I249999J0D01*
G01*
X65715001Y-87310000D01*
G75*
G02*
X65965000Y-87559999I0J-249999D01*
G01*
X65965000Y-88985001D01*
G75*
G02*
X65715001Y-89235000I-249999J0D01*
G01*
G37*
%TD*%
%TO.C,F6*%
G36*
G01*
X93215001Y-129835000D02*
X88264999Y-129835000D01*
G75*
G02*
X88015000Y-129585001I0J249999D01*
G01*
X88015000Y-128159999D01*
G75*
G02*
X88264999Y-127910000I249999J0D01*
G01*
X93215001Y-127910000D01*
G75*
G02*
X93465000Y-128159999I0J-249999D01*
G01*
X93465000Y-129585001D01*
G75*
G02*
X93215001Y-129835000I-249999J0D01*
G01*
G37*
G36*
G01*
X93215001Y-136610000D02*
X88264999Y-136610000D01*
G75*
G02*
X88015000Y-136360001I0J249999D01*
G01*
X88015000Y-134934999D01*
G75*
G02*
X88264999Y-134685000I249999J0D01*
G01*
X93215001Y-134685000D01*
G75*
G02*
X93465000Y-134934999I0J-249999D01*
G01*
X93465000Y-136360001D01*
G75*
G02*
X93215001Y-136610000I-249999J0D01*
G01*
G37*
%TD*%
%TO.C,F7*%
G36*
G01*
X68205001Y-171395000D02*
X63254999Y-171395000D01*
G75*
G02*
X63005000Y-171145001I0J249999D01*
G01*
X63005000Y-169719999D01*
G75*
G02*
X63254999Y-169470000I249999J0D01*
G01*
X68205001Y-169470000D01*
G75*
G02*
X68455000Y-169719999I0J-249999D01*
G01*
X68455000Y-171145001D01*
G75*
G02*
X68205001Y-171395000I-249999J0D01*
G01*
G37*
G36*
G01*
X68205001Y-178170000D02*
X63254999Y-178170000D01*
G75*
G02*
X63005000Y-177920001I0J249999D01*
G01*
X63005000Y-176494999D01*
G75*
G02*
X63254999Y-176245000I249999J0D01*
G01*
X68205001Y-176245000D01*
G75*
G02*
X68455000Y-176494999I0J-249999D01*
G01*
X68455000Y-177920001D01*
G75*
G02*
X68205001Y-178170000I-249999J0D01*
G01*
G37*
%TD*%
%TO.C,F8*%
G36*
G01*
X70354999Y-173525000D02*
X75305001Y-173525000D01*
G75*
G02*
X75555000Y-173774999I0J-249999D01*
G01*
X75555000Y-175200001D01*
G75*
G02*
X75305001Y-175450000I-249999J0D01*
G01*
X70354999Y-175450000D01*
G75*
G02*
X70105000Y-175200001I0J249999D01*
G01*
X70105000Y-173774999D01*
G75*
G02*
X70354999Y-173525000I249999J0D01*
G01*
G37*
G36*
G01*
X70354999Y-166750000D02*
X75305001Y-166750000D01*
G75*
G02*
X75555000Y-166999999I0J-249999D01*
G01*
X75555000Y-168425001D01*
G75*
G02*
X75305001Y-168675000I-249999J0D01*
G01*
X70354999Y-168675000D01*
G75*
G02*
X70105000Y-168425001I0J249999D01*
G01*
X70105000Y-166999999D01*
G75*
G02*
X70354999Y-166750000I249999J0D01*
G01*
G37*
%TD*%
D11*
%TO.C,Q1*%
X43930000Y-97490000D03*
X41650000Y-97490000D03*
X39370000Y-97490000D03*
D12*
X40125000Y-105465000D03*
X43175000Y-102115000D03*
X43175000Y-105465000D03*
X40125000Y-102115000D03*
%TD*%
%TO.C,Q2*%
X71125000Y-143055000D03*
X74175000Y-146405000D03*
X74175000Y-143055000D03*
X71125000Y-146405000D03*
D11*
X70370000Y-138430000D03*
X72650000Y-138430000D03*
X74930000Y-138430000D03*
%TD*%
%TO.C,Q3*%
X45920000Y-179920000D03*
X43640000Y-179920000D03*
X41360000Y-179920000D03*
D12*
X42115000Y-187895000D03*
X45165000Y-184545000D03*
X45165000Y-187895000D03*
X42115000Y-184545000D03*
%TD*%
D11*
%TO.C,Q4*%
X88640000Y-164960000D03*
X90920000Y-164960000D03*
X93200000Y-164960000D03*
D12*
X92445000Y-156985000D03*
X89395000Y-160335000D03*
X89395000Y-156985000D03*
X92445000Y-160335000D03*
%TD*%
%TO.C,Q5*%
X57448811Y-102465000D03*
X60498811Y-105815000D03*
X60498811Y-102465000D03*
X57448811Y-105815000D03*
D11*
X56693811Y-97840000D03*
X58973811Y-97840000D03*
X61253811Y-97840000D03*
%TD*%
D12*
%TO.C,Q6*%
X84945000Y-143055000D03*
X87995000Y-146405000D03*
X87995000Y-143055000D03*
X84945000Y-146405000D03*
D11*
X84190000Y-138430000D03*
X86470000Y-138430000D03*
X88750000Y-138430000D03*
%TD*%
%TO.C,Q7*%
X63740000Y-179920000D03*
X61460000Y-179920000D03*
X59180000Y-179920000D03*
D12*
X59935000Y-187895000D03*
X62985000Y-184545000D03*
X62985000Y-187895000D03*
X59935000Y-184545000D03*
%TD*%
%TO.C,Q8*%
X78625000Y-160335000D03*
X75575000Y-156985000D03*
X75575000Y-160335000D03*
X78625000Y-156985000D03*
D11*
X79380000Y-164960000D03*
X77100000Y-164960000D03*
X74820000Y-164960000D03*
%TD*%
%TO.C,R1*%
G36*
G01*
X38405000Y-95445001D02*
X38405000Y-94194999D01*
G75*
G02*
X38654999Y-93945000I249999J0D01*
G01*
X39280001Y-93945000D01*
G75*
G02*
X39530000Y-94194999I0J-249999D01*
G01*
X39530000Y-95445001D01*
G75*
G02*
X39280001Y-95695000I-249999J0D01*
G01*
X38654999Y-95695000D01*
G75*
G02*
X38405000Y-95445001I0J249999D01*
G01*
G37*
G36*
G01*
X41330000Y-95445001D02*
X41330000Y-94194999D01*
G75*
G02*
X41579999Y-93945000I249999J0D01*
G01*
X42205001Y-93945000D01*
G75*
G02*
X42455000Y-94194999I0J-249999D01*
G01*
X42455000Y-95445001D01*
G75*
G02*
X42205001Y-95695000I-249999J0D01*
G01*
X41579999Y-95695000D01*
G75*
G02*
X41330000Y-95445001I0J249999D01*
G01*
G37*
%TD*%
%TO.C,R2*%
G36*
G01*
X69405000Y-136365001D02*
X69405000Y-135114999D01*
G75*
G02*
X69654999Y-134865000I249999J0D01*
G01*
X70280001Y-134865000D01*
G75*
G02*
X70530000Y-135114999I0J-249999D01*
G01*
X70530000Y-136365001D01*
G75*
G02*
X70280001Y-136615000I-249999J0D01*
G01*
X69654999Y-136615000D01*
G75*
G02*
X69405000Y-136365001I0J249999D01*
G01*
G37*
G36*
G01*
X72330000Y-136365001D02*
X72330000Y-135114999D01*
G75*
G02*
X72579999Y-134865000I249999J0D01*
G01*
X73205001Y-134865000D01*
G75*
G02*
X73455000Y-135114999I0J-249999D01*
G01*
X73455000Y-136365001D01*
G75*
G02*
X73205001Y-136615000I-249999J0D01*
G01*
X72579999Y-136615000D01*
G75*
G02*
X72330000Y-136365001I0J249999D01*
G01*
G37*
%TD*%
%TO.C,R3*%
G36*
G01*
X43320000Y-177915001D02*
X43320000Y-176664999D01*
G75*
G02*
X43569999Y-176415000I249999J0D01*
G01*
X44195001Y-176415000D01*
G75*
G02*
X44445000Y-176664999I0J-249999D01*
G01*
X44445000Y-177915001D01*
G75*
G02*
X44195001Y-178165000I-249999J0D01*
G01*
X43569999Y-178165000D01*
G75*
G02*
X43320000Y-177915001I0J249999D01*
G01*
G37*
G36*
G01*
X40395000Y-177915001D02*
X40395000Y-176664999D01*
G75*
G02*
X40644999Y-176415000I249999J0D01*
G01*
X41270001Y-176415000D01*
G75*
G02*
X41520000Y-176664999I0J-249999D01*
G01*
X41520000Y-177915001D01*
G75*
G02*
X41270001Y-178165000I-249999J0D01*
G01*
X40644999Y-178165000D01*
G75*
G02*
X40395000Y-177915001I0J249999D01*
G01*
G37*
%TD*%
%TO.C,R4*%
G36*
G01*
X91240000Y-167014999D02*
X91240000Y-168265001D01*
G75*
G02*
X90990001Y-168515000I-249999J0D01*
G01*
X90364999Y-168515000D01*
G75*
G02*
X90115000Y-168265001I0J249999D01*
G01*
X90115000Y-167014999D01*
G75*
G02*
X90364999Y-166765000I249999J0D01*
G01*
X90990001Y-166765000D01*
G75*
G02*
X91240000Y-167014999I0J-249999D01*
G01*
G37*
G36*
G01*
X94165000Y-167014999D02*
X94165000Y-168265001D01*
G75*
G02*
X93915001Y-168515000I-249999J0D01*
G01*
X93289999Y-168515000D01*
G75*
G02*
X93040000Y-168265001I0J249999D01*
G01*
X93040000Y-167014999D01*
G75*
G02*
X93289999Y-166765000I249999J0D01*
G01*
X93915001Y-166765000D01*
G75*
G02*
X94165000Y-167014999I0J-249999D01*
G01*
G37*
%TD*%
%TO.C,R5*%
G36*
G01*
X55728811Y-95755001D02*
X55728811Y-94504999D01*
G75*
G02*
X55978810Y-94255000I249999J0D01*
G01*
X56603812Y-94255000D01*
G75*
G02*
X56853811Y-94504999I0J-249999D01*
G01*
X56853811Y-95755001D01*
G75*
G02*
X56603812Y-96005000I-249999J0D01*
G01*
X55978810Y-96005000D01*
G75*
G02*
X55728811Y-95755001I0J249999D01*
G01*
G37*
G36*
G01*
X58653811Y-95755001D02*
X58653811Y-94504999D01*
G75*
G02*
X58903810Y-94255000I249999J0D01*
G01*
X59528812Y-94255000D01*
G75*
G02*
X59778811Y-94504999I0J-249999D01*
G01*
X59778811Y-95755001D01*
G75*
G02*
X59528812Y-96005000I-249999J0D01*
G01*
X58903810Y-96005000D01*
G75*
G02*
X58653811Y-95755001I0J249999D01*
G01*
G37*
%TD*%
%TO.C,R6*%
G36*
G01*
X86150000Y-136365001D02*
X86150000Y-135114999D01*
G75*
G02*
X86399999Y-134865000I249999J0D01*
G01*
X87025001Y-134865000D01*
G75*
G02*
X87275000Y-135114999I0J-249999D01*
G01*
X87275000Y-136365001D01*
G75*
G02*
X87025001Y-136615000I-249999J0D01*
G01*
X86399999Y-136615000D01*
G75*
G02*
X86150000Y-136365001I0J249999D01*
G01*
G37*
G36*
G01*
X83225000Y-136365001D02*
X83225000Y-135114999D01*
G75*
G02*
X83474999Y-134865000I249999J0D01*
G01*
X84100001Y-134865000D01*
G75*
G02*
X84350000Y-135114999I0J-249999D01*
G01*
X84350000Y-136365001D01*
G75*
G02*
X84100001Y-136615000I-249999J0D01*
G01*
X83474999Y-136615000D01*
G75*
G02*
X83225000Y-136365001I0J249999D01*
G01*
G37*
%TD*%
%TO.C,R7*%
G36*
G01*
X61140000Y-177915001D02*
X61140000Y-176664999D01*
G75*
G02*
X61389999Y-176415000I249999J0D01*
G01*
X62015001Y-176415000D01*
G75*
G02*
X62265000Y-176664999I0J-249999D01*
G01*
X62265000Y-177915001D01*
G75*
G02*
X62015001Y-178165000I-249999J0D01*
G01*
X61389999Y-178165000D01*
G75*
G02*
X61140000Y-177915001I0J249999D01*
G01*
G37*
G36*
G01*
X58215000Y-177915001D02*
X58215000Y-176664999D01*
G75*
G02*
X58464999Y-176415000I249999J0D01*
G01*
X59090001Y-176415000D01*
G75*
G02*
X59340000Y-176664999I0J-249999D01*
G01*
X59340000Y-177915001D01*
G75*
G02*
X59090001Y-178165000I-249999J0D01*
G01*
X58464999Y-178165000D01*
G75*
G02*
X58215000Y-177915001I0J249999D01*
G01*
G37*
%TD*%
%TO.C,R8*%
G36*
G01*
X77420000Y-167014999D02*
X77420000Y-168265001D01*
G75*
G02*
X77170001Y-168515000I-249999J0D01*
G01*
X76544999Y-168515000D01*
G75*
G02*
X76295000Y-168265001I0J249999D01*
G01*
X76295000Y-167014999D01*
G75*
G02*
X76544999Y-166765000I249999J0D01*
G01*
X77170001Y-166765000D01*
G75*
G02*
X77420000Y-167014999I0J-249999D01*
G01*
G37*
G36*
G01*
X80345000Y-167014999D02*
X80345000Y-168265001D01*
G75*
G02*
X80095001Y-168515000I-249999J0D01*
G01*
X79469999Y-168515000D01*
G75*
G02*
X79220000Y-168265001I0J249999D01*
G01*
X79220000Y-167014999D01*
G75*
G02*
X79469999Y-166765000I249999J0D01*
G01*
X80095001Y-166765000D01*
G75*
G02*
X80345000Y-167014999I0J-249999D01*
G01*
G37*
%TD*%
%TO.C,R9*%
G36*
G01*
X98984999Y-62625000D02*
X100235001Y-62625000D01*
G75*
G02*
X100485000Y-62874999I0J-249999D01*
G01*
X100485000Y-63500001D01*
G75*
G02*
X100235001Y-63750000I-249999J0D01*
G01*
X98984999Y-63750000D01*
G75*
G02*
X98735000Y-63500001I0J249999D01*
G01*
X98735000Y-62874999D01*
G75*
G02*
X98984999Y-62625000I249999J0D01*
G01*
G37*
G36*
G01*
X98984999Y-65550000D02*
X100235001Y-65550000D01*
G75*
G02*
X100485000Y-65799999I0J-249999D01*
G01*
X100485000Y-66425001D01*
G75*
G02*
X100235001Y-66675000I-249999J0D01*
G01*
X98984999Y-66675000D01*
G75*
G02*
X98735000Y-66425001I0J249999D01*
G01*
X98735000Y-65799999D01*
G75*
G02*
X98984999Y-65550000I249999J0D01*
G01*
G37*
%TD*%
%TO.C,R10*%
G36*
G01*
X110724999Y-106806666D02*
X111975001Y-106806666D01*
G75*
G02*
X112225000Y-107056665I0J-249999D01*
G01*
X112225000Y-107681667D01*
G75*
G02*
X111975001Y-107931666I-249999J0D01*
G01*
X110724999Y-107931666D01*
G75*
G02*
X110475000Y-107681667I0J249999D01*
G01*
X110475000Y-107056665D01*
G75*
G02*
X110724999Y-106806666I249999J0D01*
G01*
G37*
G36*
G01*
X110724999Y-103881666D02*
X111975001Y-103881666D01*
G75*
G02*
X112225000Y-104131665I0J-249999D01*
G01*
X112225000Y-104756667D01*
G75*
G02*
X111975001Y-105006666I-249999J0D01*
G01*
X110724999Y-105006666D01*
G75*
G02*
X110475000Y-104756667I0J249999D01*
G01*
X110475000Y-104131665D01*
G75*
G02*
X110724999Y-103881666I249999J0D01*
G01*
G37*
%TD*%
%TO.C,R11*%
G36*
G01*
X98984999Y-145138332D02*
X100235001Y-145138332D01*
G75*
G02*
X100485000Y-145388331I0J-249999D01*
G01*
X100485000Y-146013333D01*
G75*
G02*
X100235001Y-146263332I-249999J0D01*
G01*
X98984999Y-146263332D01*
G75*
G02*
X98735000Y-146013333I0J249999D01*
G01*
X98735000Y-145388331D01*
G75*
G02*
X98984999Y-145138332I249999J0D01*
G01*
G37*
G36*
G01*
X98984999Y-148063332D02*
X100235001Y-148063332D01*
G75*
G02*
X100485000Y-148313331I0J-249999D01*
G01*
X100485000Y-148938333D01*
G75*
G02*
X100235001Y-149188332I-249999J0D01*
G01*
X98984999Y-149188332D01*
G75*
G02*
X98735000Y-148938333I0J249999D01*
G01*
X98735000Y-148313331D01*
G75*
G02*
X98984999Y-148063332I249999J0D01*
G01*
G37*
%TD*%
%TO.C,R12*%
G36*
G01*
X110724999Y-189320000D02*
X111975001Y-189320000D01*
G75*
G02*
X112225000Y-189569999I0J-249999D01*
G01*
X112225000Y-190195001D01*
G75*
G02*
X111975001Y-190445000I-249999J0D01*
G01*
X110724999Y-190445000D01*
G75*
G02*
X110475000Y-190195001I0J249999D01*
G01*
X110475000Y-189569999D01*
G75*
G02*
X110724999Y-189320000I249999J0D01*
G01*
G37*
G36*
G01*
X110724999Y-186395000D02*
X111975001Y-186395000D01*
G75*
G02*
X112225000Y-186644999I0J-249999D01*
G01*
X112225000Y-187270001D01*
G75*
G02*
X111975001Y-187520000I-249999J0D01*
G01*
X110724999Y-187520000D01*
G75*
G02*
X110475000Y-187270001I0J249999D01*
G01*
X110475000Y-186644999D01*
G75*
G02*
X110724999Y-186395000I249999J0D01*
G01*
G37*
%TD*%
%TO.C,R13*%
G36*
G01*
X122454999Y-62625000D02*
X123705001Y-62625000D01*
G75*
G02*
X123955000Y-62874999I0J-249999D01*
G01*
X123955000Y-63500001D01*
G75*
G02*
X123705001Y-63750000I-249999J0D01*
G01*
X122454999Y-63750000D01*
G75*
G02*
X122205000Y-63500001I0J249999D01*
G01*
X122205000Y-62874999D01*
G75*
G02*
X122454999Y-62625000I249999J0D01*
G01*
G37*
G36*
G01*
X122454999Y-65550000D02*
X123705001Y-65550000D01*
G75*
G02*
X123955000Y-65799999I0J-249999D01*
G01*
X123955000Y-66425001D01*
G75*
G02*
X123705001Y-66675000I-249999J0D01*
G01*
X122454999Y-66675000D01*
G75*
G02*
X122205000Y-66425001I0J249999D01*
G01*
X122205000Y-65799999D01*
G75*
G02*
X122454999Y-65550000I249999J0D01*
G01*
G37*
%TD*%
%TO.C,R14*%
G36*
G01*
X134194999Y-103881666D02*
X135445001Y-103881666D01*
G75*
G02*
X135695000Y-104131665I0J-249999D01*
G01*
X135695000Y-104756667D01*
G75*
G02*
X135445001Y-105006666I-249999J0D01*
G01*
X134194999Y-105006666D01*
G75*
G02*
X133945000Y-104756667I0J249999D01*
G01*
X133945000Y-104131665D01*
G75*
G02*
X134194999Y-103881666I249999J0D01*
G01*
G37*
G36*
G01*
X134194999Y-106806666D02*
X135445001Y-106806666D01*
G75*
G02*
X135695000Y-107056665I0J-249999D01*
G01*
X135695000Y-107681667D01*
G75*
G02*
X135445001Y-107931666I-249999J0D01*
G01*
X134194999Y-107931666D01*
G75*
G02*
X133945000Y-107681667I0J249999D01*
G01*
X133945000Y-107056665D01*
G75*
G02*
X134194999Y-106806666I249999J0D01*
G01*
G37*
%TD*%
%TO.C,R15*%
G36*
G01*
X122454999Y-145138332D02*
X123705001Y-145138332D01*
G75*
G02*
X123955000Y-145388331I0J-249999D01*
G01*
X123955000Y-146013333D01*
G75*
G02*
X123705001Y-146263332I-249999J0D01*
G01*
X122454999Y-146263332D01*
G75*
G02*
X122205000Y-146013333I0J249999D01*
G01*
X122205000Y-145388331D01*
G75*
G02*
X122454999Y-145138332I249999J0D01*
G01*
G37*
G36*
G01*
X122454999Y-148063332D02*
X123705001Y-148063332D01*
G75*
G02*
X123955000Y-148313331I0J-249999D01*
G01*
X123955000Y-148938333D01*
G75*
G02*
X123705001Y-149188332I-249999J0D01*
G01*
X122454999Y-149188332D01*
G75*
G02*
X122205000Y-148938333I0J249999D01*
G01*
X122205000Y-148313331D01*
G75*
G02*
X122454999Y-148063332I249999J0D01*
G01*
G37*
%TD*%
%TO.C,R16*%
G36*
G01*
X134194999Y-189320000D02*
X135445001Y-189320000D01*
G75*
G02*
X135695000Y-189569999I0J-249999D01*
G01*
X135695000Y-190195001D01*
G75*
G02*
X135445001Y-190445000I-249999J0D01*
G01*
X134194999Y-190445000D01*
G75*
G02*
X133945000Y-190195001I0J249999D01*
G01*
X133945000Y-189569999D01*
G75*
G02*
X134194999Y-189320000I249999J0D01*
G01*
G37*
G36*
G01*
X134194999Y-186395000D02*
X135445001Y-186395000D01*
G75*
G02*
X135695000Y-186644999I0J-249999D01*
G01*
X135695000Y-187270001D01*
G75*
G02*
X135445001Y-187520000I-249999J0D01*
G01*
X134194999Y-187520000D01*
G75*
G02*
X133945000Y-187270001I0J249999D01*
G01*
X133945000Y-186644999D01*
G75*
G02*
X134194999Y-186395000I249999J0D01*
G01*
G37*
%TD*%
M02*
