%TF.GenerationSoftware,KiCad,Pcbnew,(5.1.9)-1*%
%TF.CreationDate,2021-08-08T20:50:52+02:00*%
%TF.ProjectId,SwitchBox,53776974-6368-4426-9f78-2e6b69636164,rev?*%
%TF.SameCoordinates,Original*%
%TF.FileFunction,Copper,L2,Bot*%
%TF.FilePolarity,Positive*%
%FSLAX46Y46*%
G04 Gerber Fmt 4.6, Leading zero omitted, Abs format (unit mm)*
G04 Created by KiCad (PCBNEW (5.1.9)-1) date 2021-08-08 20:50:52*
%MOMM*%
%LPD*%
G01*
G04 APERTURE LIST*
%TA.AperFunction,ComponentPad*%
%ADD10C,22.500000*%
%TD*%
%TA.AperFunction,ComponentPad*%
%ADD11C,6.000000*%
%TD*%
%TA.AperFunction,ComponentPad*%
%ADD12C,0.100000*%
%TD*%
%TA.AperFunction,ViaPad*%
%ADD13C,1.500000*%
%TD*%
%TA.AperFunction,ViaPad*%
%ADD14C,0.800000*%
%TD*%
%TA.AperFunction,ViaPad*%
%ADD15C,1.000000*%
%TD*%
%TA.AperFunction,Conductor*%
%ADD16C,1.500000*%
%TD*%
%TA.AperFunction,Conductor*%
%ADD17C,0.254000*%
%TD*%
%TA.AperFunction,Conductor*%
%ADD18C,0.100000*%
%TD*%
G04 APERTURE END LIST*
D10*
%TO.P,D9,*%
%TO.N,*%
X161190000Y-64650000D03*
D11*
%TO.P,D9,2*%
%TO.N,Net-(D9-Pad2)*%
X149090000Y-78150000D03*
%TO.P,D9,1*%
%TO.N,Net-(D9-Pad1)*%
X149090000Y-51150000D03*
%TD*%
%TO.P,D10,1*%
%TO.N,Net-(D10-Pad1)*%
X149090000Y-92406666D03*
%TO.P,D10,2*%
%TO.N,Net-(D10-Pad2)*%
X149090000Y-119406666D03*
D10*
%TO.P,D10,*%
%TO.N,*%
X161190000Y-105906666D03*
%TD*%
%TO.P,D11,*%
%TO.N,*%
X161230000Y-147163332D03*
D11*
%TO.P,D11,2*%
%TO.N,Net-(D11-Pad2)*%
X149130000Y-160663332D03*
%TO.P,D11,1*%
%TO.N,Net-(D11-Pad1)*%
X149130000Y-133663332D03*
%TD*%
%TO.P,D12,1*%
%TO.N,Net-(D12-Pad1)*%
X149150000Y-174920000D03*
%TO.P,D12,2*%
%TO.N,Net-(D12-Pad2)*%
X149150000Y-201920000D03*
D10*
%TO.P,D12,*%
%TO.N,*%
X161250000Y-188420000D03*
%TD*%
%TO.P,BLACK,1*%
%TO.N,Net-(J1-Pad1)*%
%TA.AperFunction,ComponentPad*%
G36*
G01*
X38290000Y-214362777D02*
X44290000Y-214362777D01*
G75*
G02*
X44790000Y-214862777I0J-500000D01*
G01*
X44790000Y-215862777D01*
G75*
G02*
X44290000Y-216362777I-500000J0D01*
G01*
X38290000Y-216362777D01*
G75*
G02*
X37790000Y-215862777I0J500000D01*
G01*
X37790000Y-214862777D01*
G75*
G02*
X38290000Y-214362777I500000J0D01*
G01*
G37*
%TD.AperFunction*%
%TA.AperFunction,ComponentPad*%
D12*
G36*
X41730191Y-208395247D02*
G01*
X42018941Y-208452683D01*
X42300670Y-208538145D01*
X42572665Y-208650809D01*
X42832308Y-208789591D01*
X43077098Y-208953154D01*
X43304677Y-209139924D01*
X43512853Y-209348100D01*
X43699623Y-209575679D01*
X43863186Y-209820469D01*
X44001968Y-210080112D01*
X44114632Y-210352107D01*
X44200094Y-210633836D01*
X44257530Y-210922586D01*
X44286386Y-211215574D01*
X44286386Y-211509980D01*
X44257530Y-211802968D01*
X44200094Y-212091718D01*
X44114632Y-212373447D01*
X44001968Y-212645442D01*
X43863186Y-212905085D01*
X43699623Y-213149875D01*
X43512853Y-213377454D01*
X43408765Y-213481542D01*
X44290000Y-214362777D01*
X38290000Y-214362777D01*
X39171235Y-213481542D01*
X39067147Y-213377454D01*
X38880377Y-213149875D01*
X38716814Y-212905085D01*
X38578032Y-212645442D01*
X38465368Y-212373447D01*
X38379906Y-212091718D01*
X38322470Y-211802968D01*
X38293614Y-211509980D01*
X38293614Y-211215574D01*
X38322470Y-210922586D01*
X38379906Y-210633836D01*
X38465368Y-210352107D01*
X38578032Y-210080112D01*
X38716814Y-209820469D01*
X38880377Y-209575679D01*
X39067147Y-209348100D01*
X39275323Y-209139924D01*
X39502902Y-208953154D01*
X39747692Y-208789591D01*
X40007335Y-208650809D01*
X40279330Y-208538145D01*
X40561059Y-208452683D01*
X40849809Y-208395247D01*
X41142797Y-208366391D01*
X41437203Y-208366391D01*
X41730191Y-208395247D01*
G37*
%TD.AperFunction*%
%TD*%
%TA.AperFunction,ComponentPad*%
%TO.P,RED,1*%
%TO.N,Net-(J10-Pad1)*%
G36*
X40869809Y-45274753D02*
G01*
X40581059Y-45217317D01*
X40299330Y-45131855D01*
X40027335Y-45019191D01*
X39767692Y-44880409D01*
X39522902Y-44716846D01*
X39295323Y-44530076D01*
X39087147Y-44321900D01*
X38900377Y-44094321D01*
X38736814Y-43849531D01*
X38598032Y-43589888D01*
X38485368Y-43317893D01*
X38399906Y-43036164D01*
X38342470Y-42747414D01*
X38313614Y-42454426D01*
X38313614Y-42160020D01*
X38342470Y-41867032D01*
X38399906Y-41578282D01*
X38485368Y-41296553D01*
X38598032Y-41024558D01*
X38736814Y-40764915D01*
X38900377Y-40520125D01*
X39087147Y-40292546D01*
X39191235Y-40188458D01*
X38310000Y-39307223D01*
X44310000Y-39307223D01*
X43428765Y-40188458D01*
X43532853Y-40292546D01*
X43719623Y-40520125D01*
X43883186Y-40764915D01*
X44021968Y-41024558D01*
X44134632Y-41296553D01*
X44220094Y-41578282D01*
X44277530Y-41867032D01*
X44306386Y-42160020D01*
X44306386Y-42454426D01*
X44277530Y-42747414D01*
X44220094Y-43036164D01*
X44134632Y-43317893D01*
X44021968Y-43589888D01*
X43883186Y-43849531D01*
X43719623Y-44094321D01*
X43532853Y-44321900D01*
X43324677Y-44530076D01*
X43097098Y-44716846D01*
X42852308Y-44880409D01*
X42592665Y-45019191D01*
X42320670Y-45131855D01*
X42038941Y-45217317D01*
X41750191Y-45274753D01*
X41457203Y-45303609D01*
X41162797Y-45303609D01*
X40869809Y-45274753D01*
G37*
%TD.AperFunction*%
%TA.AperFunction,ComponentPad*%
G36*
G01*
X44310000Y-39307223D02*
X38310000Y-39307223D01*
G75*
G02*
X37810000Y-38807223I0J500000D01*
G01*
X37810000Y-37807223D01*
G75*
G02*
X38310000Y-37307223I500000J0D01*
G01*
X44310000Y-37307223D01*
G75*
G02*
X44810000Y-37807223I0J-500000D01*
G01*
X44810000Y-38807223D01*
G75*
G02*
X44310000Y-39307223I-500000J0D01*
G01*
G37*
%TD.AperFunction*%
%TD*%
%TA.AperFunction,ComponentPad*%
%TO.P,BLACK,1*%
%TO.N,Net-(J1-Pad1)*%
G36*
X61300191Y-213602470D02*
G01*
X61588941Y-213659906D01*
X61870670Y-213745368D01*
X62142665Y-213858032D01*
X62402308Y-213996814D01*
X62647098Y-214160377D01*
X62874677Y-214347147D01*
X63082853Y-214555323D01*
X63269623Y-214782902D01*
X63433186Y-215027692D01*
X63571968Y-215287335D01*
X63684632Y-215559330D01*
X63770094Y-215841059D01*
X63827530Y-216129809D01*
X63856386Y-216422797D01*
X63856386Y-216717203D01*
X63827530Y-217010191D01*
X63770094Y-217298941D01*
X63684632Y-217580670D01*
X63571968Y-217852665D01*
X63433186Y-218112308D01*
X63269623Y-218357098D01*
X63082853Y-218584677D01*
X62978765Y-218688765D01*
X63860000Y-219570000D01*
X57860000Y-219570000D01*
X58741235Y-218688765D01*
X58637147Y-218584677D01*
X58450377Y-218357098D01*
X58286814Y-218112308D01*
X58148032Y-217852665D01*
X58035368Y-217580670D01*
X57949906Y-217298941D01*
X57892470Y-217010191D01*
X57863614Y-216717203D01*
X57863614Y-216422797D01*
X57892470Y-216129809D01*
X57949906Y-215841059D01*
X58035368Y-215559330D01*
X58148032Y-215287335D01*
X58286814Y-215027692D01*
X58450377Y-214782902D01*
X58637147Y-214555323D01*
X58845323Y-214347147D01*
X59072902Y-214160377D01*
X59317692Y-213996814D01*
X59577335Y-213858032D01*
X59849330Y-213745368D01*
X60131059Y-213659906D01*
X60419809Y-213602470D01*
X60712797Y-213573614D01*
X61007203Y-213573614D01*
X61300191Y-213602470D01*
G37*
%TD.AperFunction*%
%TA.AperFunction,ComponentPad*%
G36*
G01*
X57860000Y-219570000D02*
X63860000Y-219570000D01*
G75*
G02*
X64360000Y-220070000I0J-500000D01*
G01*
X64360000Y-221070000D01*
G75*
G02*
X63860000Y-221570000I-500000J0D01*
G01*
X57860000Y-221570000D01*
G75*
G02*
X57360000Y-221070000I0J500000D01*
G01*
X57360000Y-220070000D01*
G75*
G02*
X57860000Y-219570000I500000J0D01*
G01*
G37*
%TD.AperFunction*%
%TD*%
%TO.P,RED,1*%
%TO.N,Net-(J10-Pad1)*%
%TA.AperFunction,ComponentPad*%
G36*
G01*
X63860000Y-34570000D02*
X57860000Y-34570000D01*
G75*
G02*
X57360000Y-34070000I0J500000D01*
G01*
X57360000Y-33070000D01*
G75*
G02*
X57860000Y-32570000I500000J0D01*
G01*
X63860000Y-32570000D01*
G75*
G02*
X64360000Y-33070000I0J-500000D01*
G01*
X64360000Y-34070000D01*
G75*
G02*
X63860000Y-34570000I-500000J0D01*
G01*
G37*
%TD.AperFunction*%
%TA.AperFunction,ComponentPad*%
G36*
X60419809Y-40537530D02*
G01*
X60131059Y-40480094D01*
X59849330Y-40394632D01*
X59577335Y-40281968D01*
X59317692Y-40143186D01*
X59072902Y-39979623D01*
X58845323Y-39792853D01*
X58637147Y-39584677D01*
X58450377Y-39357098D01*
X58286814Y-39112308D01*
X58148032Y-38852665D01*
X58035368Y-38580670D01*
X57949906Y-38298941D01*
X57892470Y-38010191D01*
X57863614Y-37717203D01*
X57863614Y-37422797D01*
X57892470Y-37129809D01*
X57949906Y-36841059D01*
X58035368Y-36559330D01*
X58148032Y-36287335D01*
X58286814Y-36027692D01*
X58450377Y-35782902D01*
X58637147Y-35555323D01*
X58741235Y-35451235D01*
X57860000Y-34570000D01*
X63860000Y-34570000D01*
X62978765Y-35451235D01*
X63082853Y-35555323D01*
X63269623Y-35782902D01*
X63433186Y-36027692D01*
X63571968Y-36287335D01*
X63684632Y-36559330D01*
X63770094Y-36841059D01*
X63827530Y-37129809D01*
X63856386Y-37422797D01*
X63856386Y-37717203D01*
X63827530Y-38010191D01*
X63770094Y-38298941D01*
X63684632Y-38580670D01*
X63571968Y-38852665D01*
X63433186Y-39112308D01*
X63269623Y-39357098D01*
X63082853Y-39584677D01*
X62874677Y-39792853D01*
X62647098Y-39979623D01*
X62402308Y-40143186D01*
X62142665Y-40281968D01*
X61870670Y-40394632D01*
X61588941Y-40480094D01*
X61300191Y-40537530D01*
X61007203Y-40566386D01*
X60712797Y-40566386D01*
X60419809Y-40537530D01*
G37*
%TD.AperFunction*%
%TD*%
%TO.P,BLACK,1*%
%TO.N,Net-(J1-Pad1)*%
%TA.AperFunction,ComponentPad*%
G36*
G01*
X87370000Y-219170000D02*
X93370000Y-219170000D01*
G75*
G02*
X93870000Y-219670000I0J-500000D01*
G01*
X93870000Y-220670000D01*
G75*
G02*
X93370000Y-221170000I-500000J0D01*
G01*
X87370000Y-221170000D01*
G75*
G02*
X86870000Y-220670000I0J500000D01*
G01*
X86870000Y-219670000D01*
G75*
G02*
X87370000Y-219170000I500000J0D01*
G01*
G37*
%TD.AperFunction*%
%TA.AperFunction,ComponentPad*%
G36*
X90810191Y-213202470D02*
G01*
X91098941Y-213259906D01*
X91380670Y-213345368D01*
X91652665Y-213458032D01*
X91912308Y-213596814D01*
X92157098Y-213760377D01*
X92384677Y-213947147D01*
X92592853Y-214155323D01*
X92779623Y-214382902D01*
X92943186Y-214627692D01*
X93081968Y-214887335D01*
X93194632Y-215159330D01*
X93280094Y-215441059D01*
X93337530Y-215729809D01*
X93366386Y-216022797D01*
X93366386Y-216317203D01*
X93337530Y-216610191D01*
X93280094Y-216898941D01*
X93194632Y-217180670D01*
X93081968Y-217452665D01*
X92943186Y-217712308D01*
X92779623Y-217957098D01*
X92592853Y-218184677D01*
X92488765Y-218288765D01*
X93370000Y-219170000D01*
X87370000Y-219170000D01*
X88251235Y-218288765D01*
X88147147Y-218184677D01*
X87960377Y-217957098D01*
X87796814Y-217712308D01*
X87658032Y-217452665D01*
X87545368Y-217180670D01*
X87459906Y-216898941D01*
X87402470Y-216610191D01*
X87373614Y-216317203D01*
X87373614Y-216022797D01*
X87402470Y-215729809D01*
X87459906Y-215441059D01*
X87545368Y-215159330D01*
X87658032Y-214887335D01*
X87796814Y-214627692D01*
X87960377Y-214382902D01*
X88147147Y-214155323D01*
X88355323Y-213947147D01*
X88582902Y-213760377D01*
X88827692Y-213596814D01*
X89087335Y-213458032D01*
X89359330Y-213345368D01*
X89641059Y-213259906D01*
X89929809Y-213202470D01*
X90222797Y-213173614D01*
X90517203Y-213173614D01*
X90810191Y-213202470D01*
G37*
%TD.AperFunction*%
%TD*%
%TA.AperFunction,ComponentPad*%
%TO.P,RED,1*%
%TO.N,Net-(J10-Pad1)*%
G36*
X89929809Y-40537530D02*
G01*
X89641059Y-40480094D01*
X89359330Y-40394632D01*
X89087335Y-40281968D01*
X88827692Y-40143186D01*
X88582902Y-39979623D01*
X88355323Y-39792853D01*
X88147147Y-39584677D01*
X87960377Y-39357098D01*
X87796814Y-39112308D01*
X87658032Y-38852665D01*
X87545368Y-38580670D01*
X87459906Y-38298941D01*
X87402470Y-38010191D01*
X87373614Y-37717203D01*
X87373614Y-37422797D01*
X87402470Y-37129809D01*
X87459906Y-36841059D01*
X87545368Y-36559330D01*
X87658032Y-36287335D01*
X87796814Y-36027692D01*
X87960377Y-35782902D01*
X88147147Y-35555323D01*
X88251235Y-35451235D01*
X87370000Y-34570000D01*
X93370000Y-34570000D01*
X92488765Y-35451235D01*
X92592853Y-35555323D01*
X92779623Y-35782902D01*
X92943186Y-36027692D01*
X93081968Y-36287335D01*
X93194632Y-36559330D01*
X93280094Y-36841059D01*
X93337530Y-37129809D01*
X93366386Y-37422797D01*
X93366386Y-37717203D01*
X93337530Y-38010191D01*
X93280094Y-38298941D01*
X93194632Y-38580670D01*
X93081968Y-38852665D01*
X92943186Y-39112308D01*
X92779623Y-39357098D01*
X92592853Y-39584677D01*
X92384677Y-39792853D01*
X92157098Y-39979623D01*
X91912308Y-40143186D01*
X91652665Y-40281968D01*
X91380670Y-40394632D01*
X91098941Y-40480094D01*
X90810191Y-40537530D01*
X90517203Y-40566386D01*
X90222797Y-40566386D01*
X89929809Y-40537530D01*
G37*
%TD.AperFunction*%
%TA.AperFunction,ComponentPad*%
G36*
G01*
X93370000Y-34570000D02*
X87370000Y-34570000D01*
G75*
G02*
X86870000Y-34070000I0J500000D01*
G01*
X86870000Y-33070000D01*
G75*
G02*
X87370000Y-32570000I500000J0D01*
G01*
X93370000Y-32570000D01*
G75*
G02*
X93870000Y-33070000I0J-500000D01*
G01*
X93870000Y-34070000D01*
G75*
G02*
X93370000Y-34570000I-500000J0D01*
G01*
G37*
%TD.AperFunction*%
%TD*%
%TA.AperFunction,ComponentPad*%
%TO.P,BLACK,1*%
%TO.N,Net-(J1-Pad1)*%
G36*
X120320191Y-213202470D02*
G01*
X120608941Y-213259906D01*
X120890670Y-213345368D01*
X121162665Y-213458032D01*
X121422308Y-213596814D01*
X121667098Y-213760377D01*
X121894677Y-213947147D01*
X122102853Y-214155323D01*
X122289623Y-214382902D01*
X122453186Y-214627692D01*
X122591968Y-214887335D01*
X122704632Y-215159330D01*
X122790094Y-215441059D01*
X122847530Y-215729809D01*
X122876386Y-216022797D01*
X122876386Y-216317203D01*
X122847530Y-216610191D01*
X122790094Y-216898941D01*
X122704632Y-217180670D01*
X122591968Y-217452665D01*
X122453186Y-217712308D01*
X122289623Y-217957098D01*
X122102853Y-218184677D01*
X121998765Y-218288765D01*
X122880000Y-219170000D01*
X116880000Y-219170000D01*
X117761235Y-218288765D01*
X117657147Y-218184677D01*
X117470377Y-217957098D01*
X117306814Y-217712308D01*
X117168032Y-217452665D01*
X117055368Y-217180670D01*
X116969906Y-216898941D01*
X116912470Y-216610191D01*
X116883614Y-216317203D01*
X116883614Y-216022797D01*
X116912470Y-215729809D01*
X116969906Y-215441059D01*
X117055368Y-215159330D01*
X117168032Y-214887335D01*
X117306814Y-214627692D01*
X117470377Y-214382902D01*
X117657147Y-214155323D01*
X117865323Y-213947147D01*
X118092902Y-213760377D01*
X118337692Y-213596814D01*
X118597335Y-213458032D01*
X118869330Y-213345368D01*
X119151059Y-213259906D01*
X119439809Y-213202470D01*
X119732797Y-213173614D01*
X120027203Y-213173614D01*
X120320191Y-213202470D01*
G37*
%TD.AperFunction*%
%TA.AperFunction,ComponentPad*%
G36*
G01*
X116880000Y-219170000D02*
X122880000Y-219170000D01*
G75*
G02*
X123380000Y-219670000I0J-500000D01*
G01*
X123380000Y-220670000D01*
G75*
G02*
X122880000Y-221170000I-500000J0D01*
G01*
X116880000Y-221170000D01*
G75*
G02*
X116380000Y-220670000I0J500000D01*
G01*
X116380000Y-219670000D01*
G75*
G02*
X116880000Y-219170000I500000J0D01*
G01*
G37*
%TD.AperFunction*%
%TD*%
%TO.P,RED,1*%
%TO.N,Net-(J10-Pad1)*%
%TA.AperFunction,ComponentPad*%
G36*
G01*
X122880000Y-34570000D02*
X116880000Y-34570000D01*
G75*
G02*
X116380000Y-34070000I0J500000D01*
G01*
X116380000Y-33070000D01*
G75*
G02*
X116880000Y-32570000I500000J0D01*
G01*
X122880000Y-32570000D01*
G75*
G02*
X123380000Y-33070000I0J-500000D01*
G01*
X123380000Y-34070000D01*
G75*
G02*
X122880000Y-34570000I-500000J0D01*
G01*
G37*
%TD.AperFunction*%
%TA.AperFunction,ComponentPad*%
G36*
X119439809Y-40537530D02*
G01*
X119151059Y-40480094D01*
X118869330Y-40394632D01*
X118597335Y-40281968D01*
X118337692Y-40143186D01*
X118092902Y-39979623D01*
X117865323Y-39792853D01*
X117657147Y-39584677D01*
X117470377Y-39357098D01*
X117306814Y-39112308D01*
X117168032Y-38852665D01*
X117055368Y-38580670D01*
X116969906Y-38298941D01*
X116912470Y-38010191D01*
X116883614Y-37717203D01*
X116883614Y-37422797D01*
X116912470Y-37129809D01*
X116969906Y-36841059D01*
X117055368Y-36559330D01*
X117168032Y-36287335D01*
X117306814Y-36027692D01*
X117470377Y-35782902D01*
X117657147Y-35555323D01*
X117761235Y-35451235D01*
X116880000Y-34570000D01*
X122880000Y-34570000D01*
X121998765Y-35451235D01*
X122102853Y-35555323D01*
X122289623Y-35782902D01*
X122453186Y-36027692D01*
X122591968Y-36287335D01*
X122704632Y-36559330D01*
X122790094Y-36841059D01*
X122847530Y-37129809D01*
X122876386Y-37422797D01*
X122876386Y-37717203D01*
X122847530Y-38010191D01*
X122790094Y-38298941D01*
X122704632Y-38580670D01*
X122591968Y-38852665D01*
X122453186Y-39112308D01*
X122289623Y-39357098D01*
X122102853Y-39584677D01*
X121894677Y-39792853D01*
X121667098Y-39979623D01*
X121422308Y-40143186D01*
X121162665Y-40281968D01*
X120890670Y-40394632D01*
X120608941Y-40480094D01*
X120320191Y-40537530D01*
X120027203Y-40566386D01*
X119732797Y-40566386D01*
X119439809Y-40537530D01*
G37*
%TD.AperFunction*%
%TD*%
%TO.P,BLACK,1*%
%TO.N,Net-(J1-Pad1)*%
%TA.AperFunction,ComponentPad*%
G36*
G01*
X146390000Y-219170000D02*
X152390000Y-219170000D01*
G75*
G02*
X152890000Y-219670000I0J-500000D01*
G01*
X152890000Y-220670000D01*
G75*
G02*
X152390000Y-221170000I-500000J0D01*
G01*
X146390000Y-221170000D01*
G75*
G02*
X145890000Y-220670000I0J500000D01*
G01*
X145890000Y-219670000D01*
G75*
G02*
X146390000Y-219170000I500000J0D01*
G01*
G37*
%TD.AperFunction*%
%TA.AperFunction,ComponentPad*%
G36*
X149830191Y-213202470D02*
G01*
X150118941Y-213259906D01*
X150400670Y-213345368D01*
X150672665Y-213458032D01*
X150932308Y-213596814D01*
X151177098Y-213760377D01*
X151404677Y-213947147D01*
X151612853Y-214155323D01*
X151799623Y-214382902D01*
X151963186Y-214627692D01*
X152101968Y-214887335D01*
X152214632Y-215159330D01*
X152300094Y-215441059D01*
X152357530Y-215729809D01*
X152386386Y-216022797D01*
X152386386Y-216317203D01*
X152357530Y-216610191D01*
X152300094Y-216898941D01*
X152214632Y-217180670D01*
X152101968Y-217452665D01*
X151963186Y-217712308D01*
X151799623Y-217957098D01*
X151612853Y-218184677D01*
X151508765Y-218288765D01*
X152390000Y-219170000D01*
X146390000Y-219170000D01*
X147271235Y-218288765D01*
X147167147Y-218184677D01*
X146980377Y-217957098D01*
X146816814Y-217712308D01*
X146678032Y-217452665D01*
X146565368Y-217180670D01*
X146479906Y-216898941D01*
X146422470Y-216610191D01*
X146393614Y-216317203D01*
X146393614Y-216022797D01*
X146422470Y-215729809D01*
X146479906Y-215441059D01*
X146565368Y-215159330D01*
X146678032Y-214887335D01*
X146816814Y-214627692D01*
X146980377Y-214382902D01*
X147167147Y-214155323D01*
X147375323Y-213947147D01*
X147602902Y-213760377D01*
X147847692Y-213596814D01*
X148107335Y-213458032D01*
X148379330Y-213345368D01*
X148661059Y-213259906D01*
X148949809Y-213202470D01*
X149242797Y-213173614D01*
X149537203Y-213173614D01*
X149830191Y-213202470D01*
G37*
%TD.AperFunction*%
%TD*%
%TA.AperFunction,ComponentPad*%
%TO.P,RED,1*%
%TO.N,Net-(J10-Pad1)*%
G36*
X148949809Y-40537530D02*
G01*
X148661059Y-40480094D01*
X148379330Y-40394632D01*
X148107335Y-40281968D01*
X147847692Y-40143186D01*
X147602902Y-39979623D01*
X147375323Y-39792853D01*
X147167147Y-39584677D01*
X146980377Y-39357098D01*
X146816814Y-39112308D01*
X146678032Y-38852665D01*
X146565368Y-38580670D01*
X146479906Y-38298941D01*
X146422470Y-38010191D01*
X146393614Y-37717203D01*
X146393614Y-37422797D01*
X146422470Y-37129809D01*
X146479906Y-36841059D01*
X146565368Y-36559330D01*
X146678032Y-36287335D01*
X146816814Y-36027692D01*
X146980377Y-35782902D01*
X147167147Y-35555323D01*
X147271235Y-35451235D01*
X146390000Y-34570000D01*
X152390000Y-34570000D01*
X151508765Y-35451235D01*
X151612853Y-35555323D01*
X151799623Y-35782902D01*
X151963186Y-36027692D01*
X152101968Y-36287335D01*
X152214632Y-36559330D01*
X152300094Y-36841059D01*
X152357530Y-37129809D01*
X152386386Y-37422797D01*
X152386386Y-37717203D01*
X152357530Y-38010191D01*
X152300094Y-38298941D01*
X152214632Y-38580670D01*
X152101968Y-38852665D01*
X151963186Y-39112308D01*
X151799623Y-39357098D01*
X151612853Y-39584677D01*
X151404677Y-39792853D01*
X151177098Y-39979623D01*
X150932308Y-40143186D01*
X150672665Y-40281968D01*
X150400670Y-40394632D01*
X150118941Y-40480094D01*
X149830191Y-40537530D01*
X149537203Y-40566386D01*
X149242797Y-40566386D01*
X148949809Y-40537530D01*
G37*
%TD.AperFunction*%
%TA.AperFunction,ComponentPad*%
G36*
G01*
X152390000Y-34570000D02*
X146390000Y-34570000D01*
G75*
G02*
X145890000Y-34070000I0J500000D01*
G01*
X145890000Y-33070000D01*
G75*
G02*
X146390000Y-32570000I500000J0D01*
G01*
X152390000Y-32570000D01*
G75*
G02*
X152890000Y-33070000I0J-500000D01*
G01*
X152890000Y-34070000D01*
G75*
G02*
X152390000Y-34570000I-500000J0D01*
G01*
G37*
%TD.AperFunction*%
%TD*%
%TA.AperFunction,ComponentPad*%
%TO.P,BLACK,1*%
%TO.N,Net-(J1-Pad1)*%
G36*
X171720191Y-208385247D02*
G01*
X172008941Y-208442683D01*
X172290670Y-208528145D01*
X172562665Y-208640809D01*
X172822308Y-208779591D01*
X173067098Y-208943154D01*
X173294677Y-209129924D01*
X173502853Y-209338100D01*
X173689623Y-209565679D01*
X173853186Y-209810469D01*
X173991968Y-210070112D01*
X174104632Y-210342107D01*
X174190094Y-210623836D01*
X174247530Y-210912586D01*
X174276386Y-211205574D01*
X174276386Y-211499980D01*
X174247530Y-211792968D01*
X174190094Y-212081718D01*
X174104632Y-212363447D01*
X173991968Y-212635442D01*
X173853186Y-212895085D01*
X173689623Y-213139875D01*
X173502853Y-213367454D01*
X173398765Y-213471542D01*
X174280000Y-214352777D01*
X168280000Y-214352777D01*
X169161235Y-213471542D01*
X169057147Y-213367454D01*
X168870377Y-213139875D01*
X168706814Y-212895085D01*
X168568032Y-212635442D01*
X168455368Y-212363447D01*
X168369906Y-212081718D01*
X168312470Y-211792968D01*
X168283614Y-211499980D01*
X168283614Y-211205574D01*
X168312470Y-210912586D01*
X168369906Y-210623836D01*
X168455368Y-210342107D01*
X168568032Y-210070112D01*
X168706814Y-209810469D01*
X168870377Y-209565679D01*
X169057147Y-209338100D01*
X169265323Y-209129924D01*
X169492902Y-208943154D01*
X169737692Y-208779591D01*
X169997335Y-208640809D01*
X170269330Y-208528145D01*
X170551059Y-208442683D01*
X170839809Y-208385247D01*
X171132797Y-208356391D01*
X171427203Y-208356391D01*
X171720191Y-208385247D01*
G37*
%TD.AperFunction*%
%TA.AperFunction,ComponentPad*%
G36*
G01*
X168280000Y-214352777D02*
X174280000Y-214352777D01*
G75*
G02*
X174780000Y-214852777I0J-500000D01*
G01*
X174780000Y-215852777D01*
G75*
G02*
X174280000Y-216352777I-500000J0D01*
G01*
X168280000Y-216352777D01*
G75*
G02*
X167780000Y-215852777I0J500000D01*
G01*
X167780000Y-214852777D01*
G75*
G02*
X168280000Y-214352777I500000J0D01*
G01*
G37*
%TD.AperFunction*%
%TD*%
%TO.P,RED,1*%
%TO.N,Net-(J10-Pad1)*%
%TA.AperFunction,ComponentPad*%
G36*
G01*
X174300000Y-39297223D02*
X168300000Y-39297223D01*
G75*
G02*
X167800000Y-38797223I0J500000D01*
G01*
X167800000Y-37797223D01*
G75*
G02*
X168300000Y-37297223I500000J0D01*
G01*
X174300000Y-37297223D01*
G75*
G02*
X174800000Y-37797223I0J-500000D01*
G01*
X174800000Y-38797223D01*
G75*
G02*
X174300000Y-39297223I-500000J0D01*
G01*
G37*
%TD.AperFunction*%
%TA.AperFunction,ComponentPad*%
G36*
X170859809Y-45264753D02*
G01*
X170571059Y-45207317D01*
X170289330Y-45121855D01*
X170017335Y-45009191D01*
X169757692Y-44870409D01*
X169512902Y-44706846D01*
X169285323Y-44520076D01*
X169077147Y-44311900D01*
X168890377Y-44084321D01*
X168726814Y-43839531D01*
X168588032Y-43579888D01*
X168475368Y-43307893D01*
X168389906Y-43026164D01*
X168332470Y-42737414D01*
X168303614Y-42444426D01*
X168303614Y-42150020D01*
X168332470Y-41857032D01*
X168389906Y-41568282D01*
X168475368Y-41286553D01*
X168588032Y-41014558D01*
X168726814Y-40754915D01*
X168890377Y-40510125D01*
X169077147Y-40282546D01*
X169181235Y-40178458D01*
X168300000Y-39297223D01*
X174300000Y-39297223D01*
X173418765Y-40178458D01*
X173522853Y-40282546D01*
X173709623Y-40510125D01*
X173873186Y-40754915D01*
X174011968Y-41014558D01*
X174124632Y-41286553D01*
X174210094Y-41568282D01*
X174267530Y-41857032D01*
X174296386Y-42150020D01*
X174296386Y-42444426D01*
X174267530Y-42737414D01*
X174210094Y-43026164D01*
X174124632Y-43307893D01*
X174011968Y-43579888D01*
X173873186Y-43839531D01*
X173709623Y-44084321D01*
X173522853Y-44311900D01*
X173314677Y-44520076D01*
X173087098Y-44706846D01*
X172842308Y-44870409D01*
X172582665Y-45009191D01*
X172310670Y-45121855D01*
X172028941Y-45207317D01*
X171740191Y-45264753D01*
X171447203Y-45293609D01*
X171152797Y-45293609D01*
X170859809Y-45264753D01*
G37*
%TD.AperFunction*%
%TD*%
%TO.P,BLACK,1*%
%TO.N,/PASS1_NO*%
%TA.AperFunction,ComponentPad*%
G36*
G01*
X102610000Y-46790000D02*
X96610000Y-46790000D01*
G75*
G02*
X96110000Y-46290000I0J500000D01*
G01*
X96110000Y-45290000D01*
G75*
G02*
X96610000Y-44790000I500000J0D01*
G01*
X102610000Y-44790000D01*
G75*
G02*
X103110000Y-45290000I0J-500000D01*
G01*
X103110000Y-46290000D01*
G75*
G02*
X102610000Y-46790000I-500000J0D01*
G01*
G37*
%TD.AperFunction*%
%TA.AperFunction,ComponentPad*%
G36*
X99169809Y-52757530D02*
G01*
X98881059Y-52700094D01*
X98599330Y-52614632D01*
X98327335Y-52501968D01*
X98067692Y-52363186D01*
X97822902Y-52199623D01*
X97595323Y-52012853D01*
X97387147Y-51804677D01*
X97200377Y-51577098D01*
X97036814Y-51332308D01*
X96898032Y-51072665D01*
X96785368Y-50800670D01*
X96699906Y-50518941D01*
X96642470Y-50230191D01*
X96613614Y-49937203D01*
X96613614Y-49642797D01*
X96642470Y-49349809D01*
X96699906Y-49061059D01*
X96785368Y-48779330D01*
X96898032Y-48507335D01*
X97036814Y-48247692D01*
X97200377Y-48002902D01*
X97387147Y-47775323D01*
X97491235Y-47671235D01*
X96610000Y-46790000D01*
X102610000Y-46790000D01*
X101728765Y-47671235D01*
X101832853Y-47775323D01*
X102019623Y-48002902D01*
X102183186Y-48247692D01*
X102321968Y-48507335D01*
X102434632Y-48779330D01*
X102520094Y-49061059D01*
X102577530Y-49349809D01*
X102606386Y-49642797D01*
X102606386Y-49937203D01*
X102577530Y-50230191D01*
X102520094Y-50518941D01*
X102434632Y-50800670D01*
X102321968Y-51072665D01*
X102183186Y-51332308D01*
X102019623Y-51577098D01*
X101832853Y-51804677D01*
X101624677Y-52012853D01*
X101397098Y-52199623D01*
X101152308Y-52363186D01*
X100892665Y-52501968D01*
X100620670Y-52614632D01*
X100338941Y-52700094D01*
X100050191Y-52757530D01*
X99757203Y-52786386D01*
X99462797Y-52786386D01*
X99169809Y-52757530D01*
G37*
%TD.AperFunction*%
%TD*%
%TA.AperFunction,ComponentPad*%
%TO.P,BLACK,1*%
%TO.N,/PASS2_NO*%
G36*
X110909809Y-93647530D02*
G01*
X110621059Y-93590094D01*
X110339330Y-93504632D01*
X110067335Y-93391968D01*
X109807692Y-93253186D01*
X109562902Y-93089623D01*
X109335323Y-92902853D01*
X109127147Y-92694677D01*
X108940377Y-92467098D01*
X108776814Y-92222308D01*
X108638032Y-91962665D01*
X108525368Y-91690670D01*
X108439906Y-91408941D01*
X108382470Y-91120191D01*
X108353614Y-90827203D01*
X108353614Y-90532797D01*
X108382470Y-90239809D01*
X108439906Y-89951059D01*
X108525368Y-89669330D01*
X108638032Y-89397335D01*
X108776814Y-89137692D01*
X108940377Y-88892902D01*
X109127147Y-88665323D01*
X109231235Y-88561235D01*
X108350000Y-87680000D01*
X114350000Y-87680000D01*
X113468765Y-88561235D01*
X113572853Y-88665323D01*
X113759623Y-88892902D01*
X113923186Y-89137692D01*
X114061968Y-89397335D01*
X114174632Y-89669330D01*
X114260094Y-89951059D01*
X114317530Y-90239809D01*
X114346386Y-90532797D01*
X114346386Y-90827203D01*
X114317530Y-91120191D01*
X114260094Y-91408941D01*
X114174632Y-91690670D01*
X114061968Y-91962665D01*
X113923186Y-92222308D01*
X113759623Y-92467098D01*
X113572853Y-92694677D01*
X113364677Y-92902853D01*
X113137098Y-93089623D01*
X112892308Y-93253186D01*
X112632665Y-93391968D01*
X112360670Y-93504632D01*
X112078941Y-93590094D01*
X111790191Y-93647530D01*
X111497203Y-93676386D01*
X111202797Y-93676386D01*
X110909809Y-93647530D01*
G37*
%TD.AperFunction*%
%TA.AperFunction,ComponentPad*%
G36*
G01*
X114350000Y-87680000D02*
X108350000Y-87680000D01*
G75*
G02*
X107850000Y-87180000I0J500000D01*
G01*
X107850000Y-86180000D01*
G75*
G02*
X108350000Y-85680000I500000J0D01*
G01*
X114350000Y-85680000D01*
G75*
G02*
X114850000Y-86180000I0J-500000D01*
G01*
X114850000Y-87180000D01*
G75*
G02*
X114350000Y-87680000I-500000J0D01*
G01*
G37*
%TD.AperFunction*%
%TD*%
%TA.AperFunction,ComponentPad*%
%TO.P,BLACK,1*%
%TO.N,/IN1\u002A*%
G36*
X100050191Y-76532470D02*
G01*
X100338941Y-76589906D01*
X100620670Y-76675368D01*
X100892665Y-76788032D01*
X101152308Y-76926814D01*
X101397098Y-77090377D01*
X101624677Y-77277147D01*
X101832853Y-77485323D01*
X102019623Y-77712902D01*
X102183186Y-77957692D01*
X102321968Y-78217335D01*
X102434632Y-78489330D01*
X102520094Y-78771059D01*
X102577530Y-79059809D01*
X102606386Y-79352797D01*
X102606386Y-79647203D01*
X102577530Y-79940191D01*
X102520094Y-80228941D01*
X102434632Y-80510670D01*
X102321968Y-80782665D01*
X102183186Y-81042308D01*
X102019623Y-81287098D01*
X101832853Y-81514677D01*
X101728765Y-81618765D01*
X102610000Y-82500000D01*
X96610000Y-82500000D01*
X97491235Y-81618765D01*
X97387147Y-81514677D01*
X97200377Y-81287098D01*
X97036814Y-81042308D01*
X96898032Y-80782665D01*
X96785368Y-80510670D01*
X96699906Y-80228941D01*
X96642470Y-79940191D01*
X96613614Y-79647203D01*
X96613614Y-79352797D01*
X96642470Y-79059809D01*
X96699906Y-78771059D01*
X96785368Y-78489330D01*
X96898032Y-78217335D01*
X97036814Y-77957692D01*
X97200377Y-77712902D01*
X97387147Y-77485323D01*
X97595323Y-77277147D01*
X97822902Y-77090377D01*
X98067692Y-76926814D01*
X98327335Y-76788032D01*
X98599330Y-76675368D01*
X98881059Y-76589906D01*
X99169809Y-76532470D01*
X99462797Y-76503614D01*
X99757203Y-76503614D01*
X100050191Y-76532470D01*
G37*
%TD.AperFunction*%
%TA.AperFunction,ComponentPad*%
G36*
G01*
X96610000Y-82500000D02*
X102610000Y-82500000D01*
G75*
G02*
X103110000Y-83000000I0J-500000D01*
G01*
X103110000Y-84000000D01*
G75*
G02*
X102610000Y-84500000I-500000J0D01*
G01*
X96610000Y-84500000D01*
G75*
G02*
X96110000Y-84000000I0J500000D01*
G01*
X96110000Y-83000000D01*
G75*
G02*
X96610000Y-82500000I500000J0D01*
G01*
G37*
%TD.AperFunction*%
%TD*%
%TA.AperFunction,ComponentPad*%
%TO.P,BLACK,1*%
%TO.N,/IN2\u002A*%
G36*
X111790191Y-117802470D02*
G01*
X112078941Y-117859906D01*
X112360670Y-117945368D01*
X112632665Y-118058032D01*
X112892308Y-118196814D01*
X113137098Y-118360377D01*
X113364677Y-118547147D01*
X113572853Y-118755323D01*
X113759623Y-118982902D01*
X113923186Y-119227692D01*
X114061968Y-119487335D01*
X114174632Y-119759330D01*
X114260094Y-120041059D01*
X114317530Y-120329809D01*
X114346386Y-120622797D01*
X114346386Y-120917203D01*
X114317530Y-121210191D01*
X114260094Y-121498941D01*
X114174632Y-121780670D01*
X114061968Y-122052665D01*
X113923186Y-122312308D01*
X113759623Y-122557098D01*
X113572853Y-122784677D01*
X113468765Y-122888765D01*
X114350000Y-123770000D01*
X108350000Y-123770000D01*
X109231235Y-122888765D01*
X109127147Y-122784677D01*
X108940377Y-122557098D01*
X108776814Y-122312308D01*
X108638032Y-122052665D01*
X108525368Y-121780670D01*
X108439906Y-121498941D01*
X108382470Y-121210191D01*
X108353614Y-120917203D01*
X108353614Y-120622797D01*
X108382470Y-120329809D01*
X108439906Y-120041059D01*
X108525368Y-119759330D01*
X108638032Y-119487335D01*
X108776814Y-119227692D01*
X108940377Y-118982902D01*
X109127147Y-118755323D01*
X109335323Y-118547147D01*
X109562902Y-118360377D01*
X109807692Y-118196814D01*
X110067335Y-118058032D01*
X110339330Y-117945368D01*
X110621059Y-117859906D01*
X110909809Y-117802470D01*
X111202797Y-117773614D01*
X111497203Y-117773614D01*
X111790191Y-117802470D01*
G37*
%TD.AperFunction*%
%TA.AperFunction,ComponentPad*%
G36*
G01*
X108350000Y-123770000D02*
X114350000Y-123770000D01*
G75*
G02*
X114850000Y-124270000I0J-500000D01*
G01*
X114850000Y-125270000D01*
G75*
G02*
X114350000Y-125770000I-500000J0D01*
G01*
X108350000Y-125770000D01*
G75*
G02*
X107850000Y-125270000I0J500000D01*
G01*
X107850000Y-124270000D01*
G75*
G02*
X108350000Y-123770000I500000J0D01*
G01*
G37*
%TD.AperFunction*%
%TD*%
%TA.AperFunction,ComponentPad*%
%TO.P,BLACK,1*%
%TO.N,/PASS3_NO*%
G36*
X99169809Y-135237530D02*
G01*
X98881059Y-135180094D01*
X98599330Y-135094632D01*
X98327335Y-134981968D01*
X98067692Y-134843186D01*
X97822902Y-134679623D01*
X97595323Y-134492853D01*
X97387147Y-134284677D01*
X97200377Y-134057098D01*
X97036814Y-133812308D01*
X96898032Y-133552665D01*
X96785368Y-133280670D01*
X96699906Y-132998941D01*
X96642470Y-132710191D01*
X96613614Y-132417203D01*
X96613614Y-132122797D01*
X96642470Y-131829809D01*
X96699906Y-131541059D01*
X96785368Y-131259330D01*
X96898032Y-130987335D01*
X97036814Y-130727692D01*
X97200377Y-130482902D01*
X97387147Y-130255323D01*
X97491235Y-130151235D01*
X96610000Y-129270000D01*
X102610000Y-129270000D01*
X101728765Y-130151235D01*
X101832853Y-130255323D01*
X102019623Y-130482902D01*
X102183186Y-130727692D01*
X102321968Y-130987335D01*
X102434632Y-131259330D01*
X102520094Y-131541059D01*
X102577530Y-131829809D01*
X102606386Y-132122797D01*
X102606386Y-132417203D01*
X102577530Y-132710191D01*
X102520094Y-132998941D01*
X102434632Y-133280670D01*
X102321968Y-133552665D01*
X102183186Y-133812308D01*
X102019623Y-134057098D01*
X101832853Y-134284677D01*
X101624677Y-134492853D01*
X101397098Y-134679623D01*
X101152308Y-134843186D01*
X100892665Y-134981968D01*
X100620670Y-135094632D01*
X100338941Y-135180094D01*
X100050191Y-135237530D01*
X99757203Y-135266386D01*
X99462797Y-135266386D01*
X99169809Y-135237530D01*
G37*
%TD.AperFunction*%
%TA.AperFunction,ComponentPad*%
G36*
G01*
X102610000Y-129270000D02*
X96610000Y-129270000D01*
G75*
G02*
X96110000Y-128770000I0J500000D01*
G01*
X96110000Y-127770000D01*
G75*
G02*
X96610000Y-127270000I500000J0D01*
G01*
X102610000Y-127270000D01*
G75*
G02*
X103110000Y-127770000I0J-500000D01*
G01*
X103110000Y-128770000D01*
G75*
G02*
X102610000Y-129270000I-500000J0D01*
G01*
G37*
%TD.AperFunction*%
%TD*%
%TO.P,BLACK,1*%
%TO.N,/PASS4_NO*%
%TA.AperFunction,ComponentPad*%
G36*
G01*
X114350000Y-170570000D02*
X108350000Y-170570000D01*
G75*
G02*
X107850000Y-170070000I0J500000D01*
G01*
X107850000Y-169070000D01*
G75*
G02*
X108350000Y-168570000I500000J0D01*
G01*
X114350000Y-168570000D01*
G75*
G02*
X114850000Y-169070000I0J-500000D01*
G01*
X114850000Y-170070000D01*
G75*
G02*
X114350000Y-170570000I-500000J0D01*
G01*
G37*
%TD.AperFunction*%
%TA.AperFunction,ComponentPad*%
G36*
X110909809Y-176537530D02*
G01*
X110621059Y-176480094D01*
X110339330Y-176394632D01*
X110067335Y-176281968D01*
X109807692Y-176143186D01*
X109562902Y-175979623D01*
X109335323Y-175792853D01*
X109127147Y-175584677D01*
X108940377Y-175357098D01*
X108776814Y-175112308D01*
X108638032Y-174852665D01*
X108525368Y-174580670D01*
X108439906Y-174298941D01*
X108382470Y-174010191D01*
X108353614Y-173717203D01*
X108353614Y-173422797D01*
X108382470Y-173129809D01*
X108439906Y-172841059D01*
X108525368Y-172559330D01*
X108638032Y-172287335D01*
X108776814Y-172027692D01*
X108940377Y-171782902D01*
X109127147Y-171555323D01*
X109231235Y-171451235D01*
X108350000Y-170570000D01*
X114350000Y-170570000D01*
X113468765Y-171451235D01*
X113572853Y-171555323D01*
X113759623Y-171782902D01*
X113923186Y-172027692D01*
X114061968Y-172287335D01*
X114174632Y-172559330D01*
X114260094Y-172841059D01*
X114317530Y-173129809D01*
X114346386Y-173422797D01*
X114346386Y-173717203D01*
X114317530Y-174010191D01*
X114260094Y-174298941D01*
X114174632Y-174580670D01*
X114061968Y-174852665D01*
X113923186Y-175112308D01*
X113759623Y-175357098D01*
X113572853Y-175584677D01*
X113364677Y-175792853D01*
X113137098Y-175979623D01*
X112892308Y-176143186D01*
X112632665Y-176281968D01*
X112360670Y-176394632D01*
X112078941Y-176480094D01*
X111790191Y-176537530D01*
X111497203Y-176566386D01*
X111202797Y-176566386D01*
X110909809Y-176537530D01*
G37*
%TD.AperFunction*%
%TD*%
%TO.P,BLACK,1*%
%TO.N,/IN3\u002A*%
%TA.AperFunction,ComponentPad*%
G36*
G01*
X96610000Y-165010000D02*
X102610000Y-165010000D01*
G75*
G02*
X103110000Y-165510000I0J-500000D01*
G01*
X103110000Y-166510000D01*
G75*
G02*
X102610000Y-167010000I-500000J0D01*
G01*
X96610000Y-167010000D01*
G75*
G02*
X96110000Y-166510000I0J500000D01*
G01*
X96110000Y-165510000D01*
G75*
G02*
X96610000Y-165010000I500000J0D01*
G01*
G37*
%TD.AperFunction*%
%TA.AperFunction,ComponentPad*%
G36*
X100050191Y-159042470D02*
G01*
X100338941Y-159099906D01*
X100620670Y-159185368D01*
X100892665Y-159298032D01*
X101152308Y-159436814D01*
X101397098Y-159600377D01*
X101624677Y-159787147D01*
X101832853Y-159995323D01*
X102019623Y-160222902D01*
X102183186Y-160467692D01*
X102321968Y-160727335D01*
X102434632Y-160999330D01*
X102520094Y-161281059D01*
X102577530Y-161569809D01*
X102606386Y-161862797D01*
X102606386Y-162157203D01*
X102577530Y-162450191D01*
X102520094Y-162738941D01*
X102434632Y-163020670D01*
X102321968Y-163292665D01*
X102183186Y-163552308D01*
X102019623Y-163797098D01*
X101832853Y-164024677D01*
X101728765Y-164128765D01*
X102610000Y-165010000D01*
X96610000Y-165010000D01*
X97491235Y-164128765D01*
X97387147Y-164024677D01*
X97200377Y-163797098D01*
X97036814Y-163552308D01*
X96898032Y-163292665D01*
X96785368Y-163020670D01*
X96699906Y-162738941D01*
X96642470Y-162450191D01*
X96613614Y-162157203D01*
X96613614Y-161862797D01*
X96642470Y-161569809D01*
X96699906Y-161281059D01*
X96785368Y-160999330D01*
X96898032Y-160727335D01*
X97036814Y-160467692D01*
X97200377Y-160222902D01*
X97387147Y-159995323D01*
X97595323Y-159787147D01*
X97822902Y-159600377D01*
X98067692Y-159436814D01*
X98327335Y-159298032D01*
X98599330Y-159185368D01*
X98881059Y-159099906D01*
X99169809Y-159042470D01*
X99462797Y-159013614D01*
X99757203Y-159013614D01*
X100050191Y-159042470D01*
G37*
%TD.AperFunction*%
%TD*%
%TO.P,BLACK,1*%
%TO.N,/IN4\u002A*%
%TA.AperFunction,ComponentPad*%
G36*
G01*
X108350000Y-206650000D02*
X114350000Y-206650000D01*
G75*
G02*
X114850000Y-207150000I0J-500000D01*
G01*
X114850000Y-208150000D01*
G75*
G02*
X114350000Y-208650000I-500000J0D01*
G01*
X108350000Y-208650000D01*
G75*
G02*
X107850000Y-208150000I0J500000D01*
G01*
X107850000Y-207150000D01*
G75*
G02*
X108350000Y-206650000I500000J0D01*
G01*
G37*
%TD.AperFunction*%
%TA.AperFunction,ComponentPad*%
G36*
X111790191Y-200682470D02*
G01*
X112078941Y-200739906D01*
X112360670Y-200825368D01*
X112632665Y-200938032D01*
X112892308Y-201076814D01*
X113137098Y-201240377D01*
X113364677Y-201427147D01*
X113572853Y-201635323D01*
X113759623Y-201862902D01*
X113923186Y-202107692D01*
X114061968Y-202367335D01*
X114174632Y-202639330D01*
X114260094Y-202921059D01*
X114317530Y-203209809D01*
X114346386Y-203502797D01*
X114346386Y-203797203D01*
X114317530Y-204090191D01*
X114260094Y-204378941D01*
X114174632Y-204660670D01*
X114061968Y-204932665D01*
X113923186Y-205192308D01*
X113759623Y-205437098D01*
X113572853Y-205664677D01*
X113468765Y-205768765D01*
X114350000Y-206650000D01*
X108350000Y-206650000D01*
X109231235Y-205768765D01*
X109127147Y-205664677D01*
X108940377Y-205437098D01*
X108776814Y-205192308D01*
X108638032Y-204932665D01*
X108525368Y-204660670D01*
X108439906Y-204378941D01*
X108382470Y-204090191D01*
X108353614Y-203797203D01*
X108353614Y-203502797D01*
X108382470Y-203209809D01*
X108439906Y-202921059D01*
X108525368Y-202639330D01*
X108638032Y-202367335D01*
X108776814Y-202107692D01*
X108940377Y-201862902D01*
X109127147Y-201635323D01*
X109335323Y-201427147D01*
X109562902Y-201240377D01*
X109807692Y-201076814D01*
X110067335Y-200938032D01*
X110339330Y-200825368D01*
X110621059Y-200739906D01*
X110909809Y-200682470D01*
X111202797Y-200653614D01*
X111497203Y-200653614D01*
X111790191Y-200682470D01*
G37*
%TD.AperFunction*%
%TD*%
%TA.AperFunction,ComponentPad*%
%TO.P,BLACK,1*%
%TO.N,/PASS1_NC*%
G36*
X122639809Y-52757530D02*
G01*
X122351059Y-52700094D01*
X122069330Y-52614632D01*
X121797335Y-52501968D01*
X121537692Y-52363186D01*
X121292902Y-52199623D01*
X121065323Y-52012853D01*
X120857147Y-51804677D01*
X120670377Y-51577098D01*
X120506814Y-51332308D01*
X120368032Y-51072665D01*
X120255368Y-50800670D01*
X120169906Y-50518941D01*
X120112470Y-50230191D01*
X120083614Y-49937203D01*
X120083614Y-49642797D01*
X120112470Y-49349809D01*
X120169906Y-49061059D01*
X120255368Y-48779330D01*
X120368032Y-48507335D01*
X120506814Y-48247692D01*
X120670377Y-48002902D01*
X120857147Y-47775323D01*
X120961235Y-47671235D01*
X120080000Y-46790000D01*
X126080000Y-46790000D01*
X125198765Y-47671235D01*
X125302853Y-47775323D01*
X125489623Y-48002902D01*
X125653186Y-48247692D01*
X125791968Y-48507335D01*
X125904632Y-48779330D01*
X125990094Y-49061059D01*
X126047530Y-49349809D01*
X126076386Y-49642797D01*
X126076386Y-49937203D01*
X126047530Y-50230191D01*
X125990094Y-50518941D01*
X125904632Y-50800670D01*
X125791968Y-51072665D01*
X125653186Y-51332308D01*
X125489623Y-51577098D01*
X125302853Y-51804677D01*
X125094677Y-52012853D01*
X124867098Y-52199623D01*
X124622308Y-52363186D01*
X124362665Y-52501968D01*
X124090670Y-52614632D01*
X123808941Y-52700094D01*
X123520191Y-52757530D01*
X123227203Y-52786386D01*
X122932797Y-52786386D01*
X122639809Y-52757530D01*
G37*
%TD.AperFunction*%
%TA.AperFunction,ComponentPad*%
G36*
G01*
X126080000Y-46790000D02*
X120080000Y-46790000D01*
G75*
G02*
X119580000Y-46290000I0J500000D01*
G01*
X119580000Y-45290000D01*
G75*
G02*
X120080000Y-44790000I500000J0D01*
G01*
X126080000Y-44790000D01*
G75*
G02*
X126580000Y-45290000I0J-500000D01*
G01*
X126580000Y-46290000D01*
G75*
G02*
X126080000Y-46790000I-500000J0D01*
G01*
G37*
%TD.AperFunction*%
%TD*%
%TA.AperFunction,ComponentPad*%
%TO.P,BLACK,1*%
%TO.N,/PASS2_NC*%
G36*
X134379809Y-93647530D02*
G01*
X134091059Y-93590094D01*
X133809330Y-93504632D01*
X133537335Y-93391968D01*
X133277692Y-93253186D01*
X133032902Y-93089623D01*
X132805323Y-92902853D01*
X132597147Y-92694677D01*
X132410377Y-92467098D01*
X132246814Y-92222308D01*
X132108032Y-91962665D01*
X131995368Y-91690670D01*
X131909906Y-91408941D01*
X131852470Y-91120191D01*
X131823614Y-90827203D01*
X131823614Y-90532797D01*
X131852470Y-90239809D01*
X131909906Y-89951059D01*
X131995368Y-89669330D01*
X132108032Y-89397335D01*
X132246814Y-89137692D01*
X132410377Y-88892902D01*
X132597147Y-88665323D01*
X132701235Y-88561235D01*
X131820000Y-87680000D01*
X137820000Y-87680000D01*
X136938765Y-88561235D01*
X137042853Y-88665323D01*
X137229623Y-88892902D01*
X137393186Y-89137692D01*
X137531968Y-89397335D01*
X137644632Y-89669330D01*
X137730094Y-89951059D01*
X137787530Y-90239809D01*
X137816386Y-90532797D01*
X137816386Y-90827203D01*
X137787530Y-91120191D01*
X137730094Y-91408941D01*
X137644632Y-91690670D01*
X137531968Y-91962665D01*
X137393186Y-92222308D01*
X137229623Y-92467098D01*
X137042853Y-92694677D01*
X136834677Y-92902853D01*
X136607098Y-93089623D01*
X136362308Y-93253186D01*
X136102665Y-93391968D01*
X135830670Y-93504632D01*
X135548941Y-93590094D01*
X135260191Y-93647530D01*
X134967203Y-93676386D01*
X134672797Y-93676386D01*
X134379809Y-93647530D01*
G37*
%TD.AperFunction*%
%TA.AperFunction,ComponentPad*%
G36*
G01*
X137820000Y-87680000D02*
X131820000Y-87680000D01*
G75*
G02*
X131320000Y-87180000I0J500000D01*
G01*
X131320000Y-86180000D01*
G75*
G02*
X131820000Y-85680000I500000J0D01*
G01*
X137820000Y-85680000D01*
G75*
G02*
X138320000Y-86180000I0J-500000D01*
G01*
X138320000Y-87180000D01*
G75*
G02*
X137820000Y-87680000I-500000J0D01*
G01*
G37*
%TD.AperFunction*%
%TD*%
%TO.P,BLACK,1*%
%TO.N,/IN1\u002A*%
%TA.AperFunction,ComponentPad*%
G36*
G01*
X120080000Y-82500000D02*
X126080000Y-82500000D01*
G75*
G02*
X126580000Y-83000000I0J-500000D01*
G01*
X126580000Y-84000000D01*
G75*
G02*
X126080000Y-84500000I-500000J0D01*
G01*
X120080000Y-84500000D01*
G75*
G02*
X119580000Y-84000000I0J500000D01*
G01*
X119580000Y-83000000D01*
G75*
G02*
X120080000Y-82500000I500000J0D01*
G01*
G37*
%TD.AperFunction*%
%TA.AperFunction,ComponentPad*%
G36*
X123520191Y-76532470D02*
G01*
X123808941Y-76589906D01*
X124090670Y-76675368D01*
X124362665Y-76788032D01*
X124622308Y-76926814D01*
X124867098Y-77090377D01*
X125094677Y-77277147D01*
X125302853Y-77485323D01*
X125489623Y-77712902D01*
X125653186Y-77957692D01*
X125791968Y-78217335D01*
X125904632Y-78489330D01*
X125990094Y-78771059D01*
X126047530Y-79059809D01*
X126076386Y-79352797D01*
X126076386Y-79647203D01*
X126047530Y-79940191D01*
X125990094Y-80228941D01*
X125904632Y-80510670D01*
X125791968Y-80782665D01*
X125653186Y-81042308D01*
X125489623Y-81287098D01*
X125302853Y-81514677D01*
X125198765Y-81618765D01*
X126080000Y-82500000D01*
X120080000Y-82500000D01*
X120961235Y-81618765D01*
X120857147Y-81514677D01*
X120670377Y-81287098D01*
X120506814Y-81042308D01*
X120368032Y-80782665D01*
X120255368Y-80510670D01*
X120169906Y-80228941D01*
X120112470Y-79940191D01*
X120083614Y-79647203D01*
X120083614Y-79352797D01*
X120112470Y-79059809D01*
X120169906Y-78771059D01*
X120255368Y-78489330D01*
X120368032Y-78217335D01*
X120506814Y-77957692D01*
X120670377Y-77712902D01*
X120857147Y-77485323D01*
X121065323Y-77277147D01*
X121292902Y-77090377D01*
X121537692Y-76926814D01*
X121797335Y-76788032D01*
X122069330Y-76675368D01*
X122351059Y-76589906D01*
X122639809Y-76532470D01*
X122932797Y-76503614D01*
X123227203Y-76503614D01*
X123520191Y-76532470D01*
G37*
%TD.AperFunction*%
%TD*%
%TO.P,BLACK,1*%
%TO.N,/IN2\u002A*%
%TA.AperFunction,ComponentPad*%
G36*
G01*
X131820000Y-123740000D02*
X137820000Y-123740000D01*
G75*
G02*
X138320000Y-124240000I0J-500000D01*
G01*
X138320000Y-125240000D01*
G75*
G02*
X137820000Y-125740000I-500000J0D01*
G01*
X131820000Y-125740000D01*
G75*
G02*
X131320000Y-125240000I0J500000D01*
G01*
X131320000Y-124240000D01*
G75*
G02*
X131820000Y-123740000I500000J0D01*
G01*
G37*
%TD.AperFunction*%
%TA.AperFunction,ComponentPad*%
G36*
X135260191Y-117772470D02*
G01*
X135548941Y-117829906D01*
X135830670Y-117915368D01*
X136102665Y-118028032D01*
X136362308Y-118166814D01*
X136607098Y-118330377D01*
X136834677Y-118517147D01*
X137042853Y-118725323D01*
X137229623Y-118952902D01*
X137393186Y-119197692D01*
X137531968Y-119457335D01*
X137644632Y-119729330D01*
X137730094Y-120011059D01*
X137787530Y-120299809D01*
X137816386Y-120592797D01*
X137816386Y-120887203D01*
X137787530Y-121180191D01*
X137730094Y-121468941D01*
X137644632Y-121750670D01*
X137531968Y-122022665D01*
X137393186Y-122282308D01*
X137229623Y-122527098D01*
X137042853Y-122754677D01*
X136938765Y-122858765D01*
X137820000Y-123740000D01*
X131820000Y-123740000D01*
X132701235Y-122858765D01*
X132597147Y-122754677D01*
X132410377Y-122527098D01*
X132246814Y-122282308D01*
X132108032Y-122022665D01*
X131995368Y-121750670D01*
X131909906Y-121468941D01*
X131852470Y-121180191D01*
X131823614Y-120887203D01*
X131823614Y-120592797D01*
X131852470Y-120299809D01*
X131909906Y-120011059D01*
X131995368Y-119729330D01*
X132108032Y-119457335D01*
X132246814Y-119197692D01*
X132410377Y-118952902D01*
X132597147Y-118725323D01*
X132805323Y-118517147D01*
X133032902Y-118330377D01*
X133277692Y-118166814D01*
X133537335Y-118028032D01*
X133809330Y-117915368D01*
X134091059Y-117829906D01*
X134379809Y-117772470D01*
X134672797Y-117743614D01*
X134967203Y-117743614D01*
X135260191Y-117772470D01*
G37*
%TD.AperFunction*%
%TD*%
%TO.P,BLACK,1*%
%TO.N,/PASS3_NC*%
%TA.AperFunction,ComponentPad*%
G36*
G01*
X126080000Y-129270000D02*
X120080000Y-129270000D01*
G75*
G02*
X119580000Y-128770000I0J500000D01*
G01*
X119580000Y-127770000D01*
G75*
G02*
X120080000Y-127270000I500000J0D01*
G01*
X126080000Y-127270000D01*
G75*
G02*
X126580000Y-127770000I0J-500000D01*
G01*
X126580000Y-128770000D01*
G75*
G02*
X126080000Y-129270000I-500000J0D01*
G01*
G37*
%TD.AperFunction*%
%TA.AperFunction,ComponentPad*%
G36*
X122639809Y-135237530D02*
G01*
X122351059Y-135180094D01*
X122069330Y-135094632D01*
X121797335Y-134981968D01*
X121537692Y-134843186D01*
X121292902Y-134679623D01*
X121065323Y-134492853D01*
X120857147Y-134284677D01*
X120670377Y-134057098D01*
X120506814Y-133812308D01*
X120368032Y-133552665D01*
X120255368Y-133280670D01*
X120169906Y-132998941D01*
X120112470Y-132710191D01*
X120083614Y-132417203D01*
X120083614Y-132122797D01*
X120112470Y-131829809D01*
X120169906Y-131541059D01*
X120255368Y-131259330D01*
X120368032Y-130987335D01*
X120506814Y-130727692D01*
X120670377Y-130482902D01*
X120857147Y-130255323D01*
X120961235Y-130151235D01*
X120080000Y-129270000D01*
X126080000Y-129270000D01*
X125198765Y-130151235D01*
X125302853Y-130255323D01*
X125489623Y-130482902D01*
X125653186Y-130727692D01*
X125791968Y-130987335D01*
X125904632Y-131259330D01*
X125990094Y-131541059D01*
X126047530Y-131829809D01*
X126076386Y-132122797D01*
X126076386Y-132417203D01*
X126047530Y-132710191D01*
X125990094Y-132998941D01*
X125904632Y-133280670D01*
X125791968Y-133552665D01*
X125653186Y-133812308D01*
X125489623Y-134057098D01*
X125302853Y-134284677D01*
X125094677Y-134492853D01*
X124867098Y-134679623D01*
X124622308Y-134843186D01*
X124362665Y-134981968D01*
X124090670Y-135094632D01*
X123808941Y-135180094D01*
X123520191Y-135237530D01*
X123227203Y-135266386D01*
X122932797Y-135266386D01*
X122639809Y-135237530D01*
G37*
%TD.AperFunction*%
%TD*%
%TA.AperFunction,ComponentPad*%
%TO.P,BLACK,1*%
%TO.N,/PASS4_NC*%
G36*
X134379809Y-176547530D02*
G01*
X134091059Y-176490094D01*
X133809330Y-176404632D01*
X133537335Y-176291968D01*
X133277692Y-176153186D01*
X133032902Y-175989623D01*
X132805323Y-175802853D01*
X132597147Y-175594677D01*
X132410377Y-175367098D01*
X132246814Y-175122308D01*
X132108032Y-174862665D01*
X131995368Y-174590670D01*
X131909906Y-174308941D01*
X131852470Y-174020191D01*
X131823614Y-173727203D01*
X131823614Y-173432797D01*
X131852470Y-173139809D01*
X131909906Y-172851059D01*
X131995368Y-172569330D01*
X132108032Y-172297335D01*
X132246814Y-172037692D01*
X132410377Y-171792902D01*
X132597147Y-171565323D01*
X132701235Y-171461235D01*
X131820000Y-170580000D01*
X137820000Y-170580000D01*
X136938765Y-171461235D01*
X137042853Y-171565323D01*
X137229623Y-171792902D01*
X137393186Y-172037692D01*
X137531968Y-172297335D01*
X137644632Y-172569330D01*
X137730094Y-172851059D01*
X137787530Y-173139809D01*
X137816386Y-173432797D01*
X137816386Y-173727203D01*
X137787530Y-174020191D01*
X137730094Y-174308941D01*
X137644632Y-174590670D01*
X137531968Y-174862665D01*
X137393186Y-175122308D01*
X137229623Y-175367098D01*
X137042853Y-175594677D01*
X136834677Y-175802853D01*
X136607098Y-175989623D01*
X136362308Y-176153186D01*
X136102665Y-176291968D01*
X135830670Y-176404632D01*
X135548941Y-176490094D01*
X135260191Y-176547530D01*
X134967203Y-176576386D01*
X134672797Y-176576386D01*
X134379809Y-176547530D01*
G37*
%TD.AperFunction*%
%TA.AperFunction,ComponentPad*%
G36*
G01*
X137820000Y-170580000D02*
X131820000Y-170580000D01*
G75*
G02*
X131320000Y-170080000I0J500000D01*
G01*
X131320000Y-169080000D01*
G75*
G02*
X131820000Y-168580000I500000J0D01*
G01*
X137820000Y-168580000D01*
G75*
G02*
X138320000Y-169080000I0J-500000D01*
G01*
X138320000Y-170080000D01*
G75*
G02*
X137820000Y-170580000I-500000J0D01*
G01*
G37*
%TD.AperFunction*%
%TD*%
%TA.AperFunction,ComponentPad*%
%TO.P,BLACK,1*%
%TO.N,/IN3\u002A*%
G36*
X123520191Y-159032470D02*
G01*
X123808941Y-159089906D01*
X124090670Y-159175368D01*
X124362665Y-159288032D01*
X124622308Y-159426814D01*
X124867098Y-159590377D01*
X125094677Y-159777147D01*
X125302853Y-159985323D01*
X125489623Y-160212902D01*
X125653186Y-160457692D01*
X125791968Y-160717335D01*
X125904632Y-160989330D01*
X125990094Y-161271059D01*
X126047530Y-161559809D01*
X126076386Y-161852797D01*
X126076386Y-162147203D01*
X126047530Y-162440191D01*
X125990094Y-162728941D01*
X125904632Y-163010670D01*
X125791968Y-163282665D01*
X125653186Y-163542308D01*
X125489623Y-163787098D01*
X125302853Y-164014677D01*
X125198765Y-164118765D01*
X126080000Y-165000000D01*
X120080000Y-165000000D01*
X120961235Y-164118765D01*
X120857147Y-164014677D01*
X120670377Y-163787098D01*
X120506814Y-163542308D01*
X120368032Y-163282665D01*
X120255368Y-163010670D01*
X120169906Y-162728941D01*
X120112470Y-162440191D01*
X120083614Y-162147203D01*
X120083614Y-161852797D01*
X120112470Y-161559809D01*
X120169906Y-161271059D01*
X120255368Y-160989330D01*
X120368032Y-160717335D01*
X120506814Y-160457692D01*
X120670377Y-160212902D01*
X120857147Y-159985323D01*
X121065323Y-159777147D01*
X121292902Y-159590377D01*
X121537692Y-159426814D01*
X121797335Y-159288032D01*
X122069330Y-159175368D01*
X122351059Y-159089906D01*
X122639809Y-159032470D01*
X122932797Y-159003614D01*
X123227203Y-159003614D01*
X123520191Y-159032470D01*
G37*
%TD.AperFunction*%
%TA.AperFunction,ComponentPad*%
G36*
G01*
X120080000Y-165000000D02*
X126080000Y-165000000D01*
G75*
G02*
X126580000Y-165500000I0J-500000D01*
G01*
X126580000Y-166500000D01*
G75*
G02*
X126080000Y-167000000I-500000J0D01*
G01*
X120080000Y-167000000D01*
G75*
G02*
X119580000Y-166500000I0J500000D01*
G01*
X119580000Y-165500000D01*
G75*
G02*
X120080000Y-165000000I500000J0D01*
G01*
G37*
%TD.AperFunction*%
%TD*%
%TO.P,BLACK,1*%
%TO.N,/IN4\u002A*%
%TA.AperFunction,ComponentPad*%
G36*
G01*
X131820000Y-206640000D02*
X137820000Y-206640000D01*
G75*
G02*
X138320000Y-207140000I0J-500000D01*
G01*
X138320000Y-208140000D01*
G75*
G02*
X137820000Y-208640000I-500000J0D01*
G01*
X131820000Y-208640000D01*
G75*
G02*
X131320000Y-208140000I0J500000D01*
G01*
X131320000Y-207140000D01*
G75*
G02*
X131820000Y-206640000I500000J0D01*
G01*
G37*
%TD.AperFunction*%
%TA.AperFunction,ComponentPad*%
G36*
X135260191Y-200672470D02*
G01*
X135548941Y-200729906D01*
X135830670Y-200815368D01*
X136102665Y-200928032D01*
X136362308Y-201066814D01*
X136607098Y-201230377D01*
X136834677Y-201417147D01*
X137042853Y-201625323D01*
X137229623Y-201852902D01*
X137393186Y-202097692D01*
X137531968Y-202357335D01*
X137644632Y-202629330D01*
X137730094Y-202911059D01*
X137787530Y-203199809D01*
X137816386Y-203492797D01*
X137816386Y-203787203D01*
X137787530Y-204080191D01*
X137730094Y-204368941D01*
X137644632Y-204650670D01*
X137531968Y-204922665D01*
X137393186Y-205182308D01*
X137229623Y-205427098D01*
X137042853Y-205654677D01*
X136938765Y-205758765D01*
X137820000Y-206640000D01*
X131820000Y-206640000D01*
X132701235Y-205758765D01*
X132597147Y-205654677D01*
X132410377Y-205427098D01*
X132246814Y-205182308D01*
X132108032Y-204922665D01*
X131995368Y-204650670D01*
X131909906Y-204368941D01*
X131852470Y-204080191D01*
X131823614Y-203787203D01*
X131823614Y-203492797D01*
X131852470Y-203199809D01*
X131909906Y-202911059D01*
X131995368Y-202629330D01*
X132108032Y-202357335D01*
X132246814Y-202097692D01*
X132410377Y-201852902D01*
X132597147Y-201625323D01*
X132805323Y-201417147D01*
X133032902Y-201230377D01*
X133277692Y-201066814D01*
X133537335Y-200928032D01*
X133809330Y-200815368D01*
X134091059Y-200729906D01*
X134379809Y-200672470D01*
X134672797Y-200643614D01*
X134967203Y-200643614D01*
X135260191Y-200672470D01*
G37*
%TD.AperFunction*%
%TD*%
%TO.P,BLACK,1*%
%TO.N,Net-(D9-Pad1)*%
%TA.AperFunction,ComponentPad*%
G36*
G01*
X179220000Y-48157223D02*
X173220000Y-48157223D01*
G75*
G02*
X172720000Y-47657223I0J500000D01*
G01*
X172720000Y-46657223D01*
G75*
G02*
X173220000Y-46157223I500000J0D01*
G01*
X179220000Y-46157223D01*
G75*
G02*
X179720000Y-46657223I0J-500000D01*
G01*
X179720000Y-47657223D01*
G75*
G02*
X179220000Y-48157223I-500000J0D01*
G01*
G37*
%TD.AperFunction*%
%TA.AperFunction,ComponentPad*%
G36*
X175779809Y-54124753D02*
G01*
X175491059Y-54067317D01*
X175209330Y-53981855D01*
X174937335Y-53869191D01*
X174677692Y-53730409D01*
X174432902Y-53566846D01*
X174205323Y-53380076D01*
X173997147Y-53171900D01*
X173810377Y-52944321D01*
X173646814Y-52699531D01*
X173508032Y-52439888D01*
X173395368Y-52167893D01*
X173309906Y-51886164D01*
X173252470Y-51597414D01*
X173223614Y-51304426D01*
X173223614Y-51010020D01*
X173252470Y-50717032D01*
X173309906Y-50428282D01*
X173395368Y-50146553D01*
X173508032Y-49874558D01*
X173646814Y-49614915D01*
X173810377Y-49370125D01*
X173997147Y-49142546D01*
X174101235Y-49038458D01*
X173220000Y-48157223D01*
X179220000Y-48157223D01*
X178338765Y-49038458D01*
X178442853Y-49142546D01*
X178629623Y-49370125D01*
X178793186Y-49614915D01*
X178931968Y-49874558D01*
X179044632Y-50146553D01*
X179130094Y-50428282D01*
X179187530Y-50717032D01*
X179216386Y-51010020D01*
X179216386Y-51304426D01*
X179187530Y-51597414D01*
X179130094Y-51886164D01*
X179044632Y-52167893D01*
X178931968Y-52439888D01*
X178793186Y-52699531D01*
X178629623Y-52944321D01*
X178442853Y-53171900D01*
X178234677Y-53380076D01*
X178007098Y-53566846D01*
X177762308Y-53730409D01*
X177502665Y-53869191D01*
X177230670Y-53981855D01*
X176948941Y-54067317D01*
X176660191Y-54124753D01*
X176367203Y-54153609D01*
X176072797Y-54153609D01*
X175779809Y-54124753D01*
G37*
%TD.AperFunction*%
%TD*%
%TA.AperFunction,ComponentPad*%
%TO.P,BLACK,1*%
%TO.N,Net-(D9-Pad2)*%
G36*
X176660191Y-75175247D02*
G01*
X176948941Y-75232683D01*
X177230670Y-75318145D01*
X177502665Y-75430809D01*
X177762308Y-75569591D01*
X178007098Y-75733154D01*
X178234677Y-75919924D01*
X178442853Y-76128100D01*
X178629623Y-76355679D01*
X178793186Y-76600469D01*
X178931968Y-76860112D01*
X179044632Y-77132107D01*
X179130094Y-77413836D01*
X179187530Y-77702586D01*
X179216386Y-77995574D01*
X179216386Y-78289980D01*
X179187530Y-78582968D01*
X179130094Y-78871718D01*
X179044632Y-79153447D01*
X178931968Y-79425442D01*
X178793186Y-79685085D01*
X178629623Y-79929875D01*
X178442853Y-80157454D01*
X178338765Y-80261542D01*
X179220000Y-81142777D01*
X173220000Y-81142777D01*
X174101235Y-80261542D01*
X173997147Y-80157454D01*
X173810377Y-79929875D01*
X173646814Y-79685085D01*
X173508032Y-79425442D01*
X173395368Y-79153447D01*
X173309906Y-78871718D01*
X173252470Y-78582968D01*
X173223614Y-78289980D01*
X173223614Y-77995574D01*
X173252470Y-77702586D01*
X173309906Y-77413836D01*
X173395368Y-77132107D01*
X173508032Y-76860112D01*
X173646814Y-76600469D01*
X173810377Y-76355679D01*
X173997147Y-76128100D01*
X174205323Y-75919924D01*
X174432902Y-75733154D01*
X174677692Y-75569591D01*
X174937335Y-75430809D01*
X175209330Y-75318145D01*
X175491059Y-75232683D01*
X175779809Y-75175247D01*
X176072797Y-75146391D01*
X176367203Y-75146391D01*
X176660191Y-75175247D01*
G37*
%TD.AperFunction*%
%TA.AperFunction,ComponentPad*%
G36*
G01*
X173220000Y-81142777D02*
X179220000Y-81142777D01*
G75*
G02*
X179720000Y-81642777I0J-500000D01*
G01*
X179720000Y-82642777D01*
G75*
G02*
X179220000Y-83142777I-500000J0D01*
G01*
X173220000Y-83142777D01*
G75*
G02*
X172720000Y-82642777I0J500000D01*
G01*
X172720000Y-81642777D01*
G75*
G02*
X173220000Y-81142777I500000J0D01*
G01*
G37*
%TD.AperFunction*%
%TD*%
%TA.AperFunction,ComponentPad*%
%TO.P,BLACK,1*%
%TO.N,Net-(D10-Pad1)*%
G36*
X175779809Y-95381419D02*
G01*
X175491059Y-95323983D01*
X175209330Y-95238521D01*
X174937335Y-95125857D01*
X174677692Y-94987075D01*
X174432902Y-94823512D01*
X174205323Y-94636742D01*
X173997147Y-94428566D01*
X173810377Y-94200987D01*
X173646814Y-93956197D01*
X173508032Y-93696554D01*
X173395368Y-93424559D01*
X173309906Y-93142830D01*
X173252470Y-92854080D01*
X173223614Y-92561092D01*
X173223614Y-92266686D01*
X173252470Y-91973698D01*
X173309906Y-91684948D01*
X173395368Y-91403219D01*
X173508032Y-91131224D01*
X173646814Y-90871581D01*
X173810377Y-90626791D01*
X173997147Y-90399212D01*
X174101235Y-90295124D01*
X173220000Y-89413889D01*
X179220000Y-89413889D01*
X178338765Y-90295124D01*
X178442853Y-90399212D01*
X178629623Y-90626791D01*
X178793186Y-90871581D01*
X178931968Y-91131224D01*
X179044632Y-91403219D01*
X179130094Y-91684948D01*
X179187530Y-91973698D01*
X179216386Y-92266686D01*
X179216386Y-92561092D01*
X179187530Y-92854080D01*
X179130094Y-93142830D01*
X179044632Y-93424559D01*
X178931968Y-93696554D01*
X178793186Y-93956197D01*
X178629623Y-94200987D01*
X178442853Y-94428566D01*
X178234677Y-94636742D01*
X178007098Y-94823512D01*
X177762308Y-94987075D01*
X177502665Y-95125857D01*
X177230670Y-95238521D01*
X176948941Y-95323983D01*
X176660191Y-95381419D01*
X176367203Y-95410275D01*
X176072797Y-95410275D01*
X175779809Y-95381419D01*
G37*
%TD.AperFunction*%
%TA.AperFunction,ComponentPad*%
G36*
G01*
X179220000Y-89413889D02*
X173220000Y-89413889D01*
G75*
G02*
X172720000Y-88913889I0J500000D01*
G01*
X172720000Y-87913889D01*
G75*
G02*
X173220000Y-87413889I500000J0D01*
G01*
X179220000Y-87413889D01*
G75*
G02*
X179720000Y-87913889I0J-500000D01*
G01*
X179720000Y-88913889D01*
G75*
G02*
X179220000Y-89413889I-500000J0D01*
G01*
G37*
%TD.AperFunction*%
%TD*%
%TO.P,BLACK,1*%
%TO.N,Net-(D10-Pad2)*%
%TA.AperFunction,ComponentPad*%
G36*
G01*
X173220000Y-122399443D02*
X179220000Y-122399443D01*
G75*
G02*
X179720000Y-122899443I0J-500000D01*
G01*
X179720000Y-123899443D01*
G75*
G02*
X179220000Y-124399443I-500000J0D01*
G01*
X173220000Y-124399443D01*
G75*
G02*
X172720000Y-123899443I0J500000D01*
G01*
X172720000Y-122899443D01*
G75*
G02*
X173220000Y-122399443I500000J0D01*
G01*
G37*
%TD.AperFunction*%
%TA.AperFunction,ComponentPad*%
G36*
X176660191Y-116431913D02*
G01*
X176948941Y-116489349D01*
X177230670Y-116574811D01*
X177502665Y-116687475D01*
X177762308Y-116826257D01*
X178007098Y-116989820D01*
X178234677Y-117176590D01*
X178442853Y-117384766D01*
X178629623Y-117612345D01*
X178793186Y-117857135D01*
X178931968Y-118116778D01*
X179044632Y-118388773D01*
X179130094Y-118670502D01*
X179187530Y-118959252D01*
X179216386Y-119252240D01*
X179216386Y-119546646D01*
X179187530Y-119839634D01*
X179130094Y-120128384D01*
X179044632Y-120410113D01*
X178931968Y-120682108D01*
X178793186Y-120941751D01*
X178629623Y-121186541D01*
X178442853Y-121414120D01*
X178338765Y-121518208D01*
X179220000Y-122399443D01*
X173220000Y-122399443D01*
X174101235Y-121518208D01*
X173997147Y-121414120D01*
X173810377Y-121186541D01*
X173646814Y-120941751D01*
X173508032Y-120682108D01*
X173395368Y-120410113D01*
X173309906Y-120128384D01*
X173252470Y-119839634D01*
X173223614Y-119546646D01*
X173223614Y-119252240D01*
X173252470Y-118959252D01*
X173309906Y-118670502D01*
X173395368Y-118388773D01*
X173508032Y-118116778D01*
X173646814Y-117857135D01*
X173810377Y-117612345D01*
X173997147Y-117384766D01*
X174205323Y-117176590D01*
X174432902Y-116989820D01*
X174677692Y-116826257D01*
X174937335Y-116687475D01*
X175209330Y-116574811D01*
X175491059Y-116489349D01*
X175779809Y-116431913D01*
X176072797Y-116403057D01*
X176367203Y-116403057D01*
X176660191Y-116431913D01*
G37*
%TD.AperFunction*%
%TD*%
%TO.P,BLACK,1*%
%TO.N,Net-(D11-Pad1)*%
%TA.AperFunction,ComponentPad*%
G36*
G01*
X179220000Y-130670555D02*
X173220000Y-130670555D01*
G75*
G02*
X172720000Y-130170555I0J500000D01*
G01*
X172720000Y-129170555D01*
G75*
G02*
X173220000Y-128670555I500000J0D01*
G01*
X179220000Y-128670555D01*
G75*
G02*
X179720000Y-129170555I0J-500000D01*
G01*
X179720000Y-130170555D01*
G75*
G02*
X179220000Y-130670555I-500000J0D01*
G01*
G37*
%TD.AperFunction*%
%TA.AperFunction,ComponentPad*%
G36*
X175779809Y-136638085D02*
G01*
X175491059Y-136580649D01*
X175209330Y-136495187D01*
X174937335Y-136382523D01*
X174677692Y-136243741D01*
X174432902Y-136080178D01*
X174205323Y-135893408D01*
X173997147Y-135685232D01*
X173810377Y-135457653D01*
X173646814Y-135212863D01*
X173508032Y-134953220D01*
X173395368Y-134681225D01*
X173309906Y-134399496D01*
X173252470Y-134110746D01*
X173223614Y-133817758D01*
X173223614Y-133523352D01*
X173252470Y-133230364D01*
X173309906Y-132941614D01*
X173395368Y-132659885D01*
X173508032Y-132387890D01*
X173646814Y-132128247D01*
X173810377Y-131883457D01*
X173997147Y-131655878D01*
X174101235Y-131551790D01*
X173220000Y-130670555D01*
X179220000Y-130670555D01*
X178338765Y-131551790D01*
X178442853Y-131655878D01*
X178629623Y-131883457D01*
X178793186Y-132128247D01*
X178931968Y-132387890D01*
X179044632Y-132659885D01*
X179130094Y-132941614D01*
X179187530Y-133230364D01*
X179216386Y-133523352D01*
X179216386Y-133817758D01*
X179187530Y-134110746D01*
X179130094Y-134399496D01*
X179044632Y-134681225D01*
X178931968Y-134953220D01*
X178793186Y-135212863D01*
X178629623Y-135457653D01*
X178442853Y-135685232D01*
X178234677Y-135893408D01*
X178007098Y-136080178D01*
X177762308Y-136243741D01*
X177502665Y-136382523D01*
X177230670Y-136495187D01*
X176948941Y-136580649D01*
X176660191Y-136638085D01*
X176367203Y-136666941D01*
X176072797Y-136666941D01*
X175779809Y-136638085D01*
G37*
%TD.AperFunction*%
%TD*%
%TA.AperFunction,ComponentPad*%
%TO.P,BLACK,1*%
%TO.N,Net-(D11-Pad2)*%
G36*
X176660191Y-157688579D02*
G01*
X176948941Y-157746015D01*
X177230670Y-157831477D01*
X177502665Y-157944141D01*
X177762308Y-158082923D01*
X178007098Y-158246486D01*
X178234677Y-158433256D01*
X178442853Y-158641432D01*
X178629623Y-158869011D01*
X178793186Y-159113801D01*
X178931968Y-159373444D01*
X179044632Y-159645439D01*
X179130094Y-159927168D01*
X179187530Y-160215918D01*
X179216386Y-160508906D01*
X179216386Y-160803312D01*
X179187530Y-161096300D01*
X179130094Y-161385050D01*
X179044632Y-161666779D01*
X178931968Y-161938774D01*
X178793186Y-162198417D01*
X178629623Y-162443207D01*
X178442853Y-162670786D01*
X178338765Y-162774874D01*
X179220000Y-163656109D01*
X173220000Y-163656109D01*
X174101235Y-162774874D01*
X173997147Y-162670786D01*
X173810377Y-162443207D01*
X173646814Y-162198417D01*
X173508032Y-161938774D01*
X173395368Y-161666779D01*
X173309906Y-161385050D01*
X173252470Y-161096300D01*
X173223614Y-160803312D01*
X173223614Y-160508906D01*
X173252470Y-160215918D01*
X173309906Y-159927168D01*
X173395368Y-159645439D01*
X173508032Y-159373444D01*
X173646814Y-159113801D01*
X173810377Y-158869011D01*
X173997147Y-158641432D01*
X174205323Y-158433256D01*
X174432902Y-158246486D01*
X174677692Y-158082923D01*
X174937335Y-157944141D01*
X175209330Y-157831477D01*
X175491059Y-157746015D01*
X175779809Y-157688579D01*
X176072797Y-157659723D01*
X176367203Y-157659723D01*
X176660191Y-157688579D01*
G37*
%TD.AperFunction*%
%TA.AperFunction,ComponentPad*%
G36*
G01*
X173220000Y-163656109D02*
X179220000Y-163656109D01*
G75*
G02*
X179720000Y-164156109I0J-500000D01*
G01*
X179720000Y-165156109D01*
G75*
G02*
X179220000Y-165656109I-500000J0D01*
G01*
X173220000Y-165656109D01*
G75*
G02*
X172720000Y-165156109I0J500000D01*
G01*
X172720000Y-164156109D01*
G75*
G02*
X173220000Y-163656109I500000J0D01*
G01*
G37*
%TD.AperFunction*%
%TD*%
%TA.AperFunction,ComponentPad*%
%TO.P,BLACK,1*%
%TO.N,Net-(D12-Pad1)*%
G36*
X175779809Y-177894753D02*
G01*
X175491059Y-177837317D01*
X175209330Y-177751855D01*
X174937335Y-177639191D01*
X174677692Y-177500409D01*
X174432902Y-177336846D01*
X174205323Y-177150076D01*
X173997147Y-176941900D01*
X173810377Y-176714321D01*
X173646814Y-176469531D01*
X173508032Y-176209888D01*
X173395368Y-175937893D01*
X173309906Y-175656164D01*
X173252470Y-175367414D01*
X173223614Y-175074426D01*
X173223614Y-174780020D01*
X173252470Y-174487032D01*
X173309906Y-174198282D01*
X173395368Y-173916553D01*
X173508032Y-173644558D01*
X173646814Y-173384915D01*
X173810377Y-173140125D01*
X173997147Y-172912546D01*
X174101235Y-172808458D01*
X173220000Y-171927223D01*
X179220000Y-171927223D01*
X178338765Y-172808458D01*
X178442853Y-172912546D01*
X178629623Y-173140125D01*
X178793186Y-173384915D01*
X178931968Y-173644558D01*
X179044632Y-173916553D01*
X179130094Y-174198282D01*
X179187530Y-174487032D01*
X179216386Y-174780020D01*
X179216386Y-175074426D01*
X179187530Y-175367414D01*
X179130094Y-175656164D01*
X179044632Y-175937893D01*
X178931968Y-176209888D01*
X178793186Y-176469531D01*
X178629623Y-176714321D01*
X178442853Y-176941900D01*
X178234677Y-177150076D01*
X178007098Y-177336846D01*
X177762308Y-177500409D01*
X177502665Y-177639191D01*
X177230670Y-177751855D01*
X176948941Y-177837317D01*
X176660191Y-177894753D01*
X176367203Y-177923609D01*
X176072797Y-177923609D01*
X175779809Y-177894753D01*
G37*
%TD.AperFunction*%
%TA.AperFunction,ComponentPad*%
G36*
G01*
X179220000Y-171927223D02*
X173220000Y-171927223D01*
G75*
G02*
X172720000Y-171427223I0J500000D01*
G01*
X172720000Y-170427223D01*
G75*
G02*
X173220000Y-169927223I500000J0D01*
G01*
X179220000Y-169927223D01*
G75*
G02*
X179720000Y-170427223I0J-500000D01*
G01*
X179720000Y-171427223D01*
G75*
G02*
X179220000Y-171927223I-500000J0D01*
G01*
G37*
%TD.AperFunction*%
%TD*%
%TO.P,BLACK,1*%
%TO.N,Net-(D12-Pad2)*%
%TA.AperFunction,ComponentPad*%
G36*
G01*
X173220000Y-204912777D02*
X179220000Y-204912777D01*
G75*
G02*
X179720000Y-205412777I0J-500000D01*
G01*
X179720000Y-206412777D01*
G75*
G02*
X179220000Y-206912777I-500000J0D01*
G01*
X173220000Y-206912777D01*
G75*
G02*
X172720000Y-206412777I0J500000D01*
G01*
X172720000Y-205412777D01*
G75*
G02*
X173220000Y-204912777I500000J0D01*
G01*
G37*
%TD.AperFunction*%
%TA.AperFunction,ComponentPad*%
G36*
X176660191Y-198945247D02*
G01*
X176948941Y-199002683D01*
X177230670Y-199088145D01*
X177502665Y-199200809D01*
X177762308Y-199339591D01*
X178007098Y-199503154D01*
X178234677Y-199689924D01*
X178442853Y-199898100D01*
X178629623Y-200125679D01*
X178793186Y-200370469D01*
X178931968Y-200630112D01*
X179044632Y-200902107D01*
X179130094Y-201183836D01*
X179187530Y-201472586D01*
X179216386Y-201765574D01*
X179216386Y-202059980D01*
X179187530Y-202352968D01*
X179130094Y-202641718D01*
X179044632Y-202923447D01*
X178931968Y-203195442D01*
X178793186Y-203455085D01*
X178629623Y-203699875D01*
X178442853Y-203927454D01*
X178338765Y-204031542D01*
X179220000Y-204912777D01*
X173220000Y-204912777D01*
X174101235Y-204031542D01*
X173997147Y-203927454D01*
X173810377Y-203699875D01*
X173646814Y-203455085D01*
X173508032Y-203195442D01*
X173395368Y-202923447D01*
X173309906Y-202641718D01*
X173252470Y-202352968D01*
X173223614Y-202059980D01*
X173223614Y-201765574D01*
X173252470Y-201472586D01*
X173309906Y-201183836D01*
X173395368Y-200902107D01*
X173508032Y-200630112D01*
X173646814Y-200370469D01*
X173810377Y-200125679D01*
X173997147Y-199898100D01*
X174205323Y-199689924D01*
X174432902Y-199503154D01*
X174677692Y-199339591D01*
X174937335Y-199200809D01*
X175209330Y-199088145D01*
X175491059Y-199002683D01*
X175779809Y-198945247D01*
X176072797Y-198916391D01*
X176367203Y-198916391D01*
X176660191Y-198945247D01*
G37*
%TD.AperFunction*%
%TD*%
D10*
%TO.P,BUTTON,*%
%TO.N,*%
X53770000Y-64650000D03*
D11*
%TO.P,BUTTON,2*%
%TO.N,/IN1*%
X35170000Y-76950000D03*
%TO.P,BUTTON,1*%
%TO.N,/PASS1_NC*%
X35170000Y-83250000D03*
%TO.P,BUTTON,3*%
%TO.N,/PASS1_NO*%
X35170000Y-70650000D03*
%TD*%
%TO.P,BUTTON,3*%
%TO.N,/PASS2_NO*%
X66110000Y-111906666D03*
%TO.P,BUTTON,1*%
%TO.N,/PASS2_NC*%
X66110000Y-124506666D03*
%TO.P,BUTTON,2*%
%TO.N,/IN2*%
X66110000Y-118206666D03*
D10*
%TO.P,BUTTON,*%
%TO.N,*%
X84710000Y-105906666D03*
%TD*%
D11*
%TO.P,SWITCH,3*%
%TO.N,/PASS3_NO*%
X35170000Y-153163332D03*
%TO.P,SWITCH,1*%
%TO.N,/PASS3_NC*%
X35170000Y-165763332D03*
%TO.P,SWITCH,2*%
%TO.N,/IN3*%
X35170000Y-159463332D03*
D10*
%TO.P,SWITCH,*%
%TO.N,*%
X53770000Y-147163332D03*
%TD*%
%TO.P,SWITCH,*%
%TO.N,*%
X84710000Y-188420000D03*
D11*
%TO.P,SWITCH,2*%
%TO.N,/IN4*%
X66110000Y-200720000D03*
%TO.P,SWITCH,1*%
%TO.N,/PASS4_NC*%
X66110000Y-207020000D03*
%TO.P,SWITCH,3*%
%TO.N,/PASS4_NO*%
X66110000Y-194420000D03*
%TD*%
D13*
%TO.N,/IN4*%
X86820000Y-172370000D03*
X72840000Y-172440000D03*
%TO.N,/IN2\u002A*%
X68370000Y-138430000D03*
X82190000Y-138430000D03*
D14*
X83520000Y-132380000D03*
X69700000Y-132380000D03*
D15*
X129030000Y-107469166D03*
X105660000Y-107470000D03*
D13*
%TO.N,/PASS3_NO*%
X56850000Y-177290000D03*
X54470000Y-168030000D03*
D15*
%TO.N,/IN4\u002A*%
X105630000Y-189960000D03*
X129140000Y-189982500D03*
D13*
X95350000Y-164310000D03*
X81710000Y-164980000D03*
D14*
X94990000Y-169900000D03*
X81300000Y-169940000D03*
D13*
%TO.N,/PASS3_NC*%
X39230000Y-177290000D03*
%TO.N,/PASS4_NC*%
X96960000Y-170200000D03*
%TO.N,/IN1*%
X63390000Y-85520000D03*
%TO.N,/IN2*%
X90740000Y-126450000D03*
%TO.N,/IN3*%
X65800000Y-168140000D03*
%TD*%
D16*
%TO.N,/PASS3_NO*%
X56170000Y-177290000D02*
X56850000Y-177290000D01*
X54470000Y-175590000D02*
X56170000Y-177290000D01*
X54470000Y-168030000D02*
X54470000Y-175590000D01*
%TO.N,/PASS1_NC*%
X35170000Y-83250000D02*
X47490000Y-83250000D01*
X47490000Y-83250000D02*
X56190000Y-91950000D01*
X56190000Y-91950000D02*
X67880000Y-91950000D01*
X110040000Y-49790000D02*
X123080000Y-49790000D01*
X67880000Y-91950000D02*
X110040000Y-49790000D01*
%TO.N,/PASS2_NC*%
X105120000Y-104310000D02*
X121380000Y-104310000D01*
X103140000Y-107930000D02*
X103140000Y-106290000D01*
X103140000Y-106290000D02*
X105120000Y-104310000D01*
X93760000Y-117310000D02*
X103140000Y-107930000D01*
X92680000Y-128630000D02*
X93760000Y-127550000D01*
X81768002Y-128630000D02*
X92680000Y-128630000D01*
X121380000Y-104310000D02*
X134820000Y-90870000D01*
X93760000Y-127550000D02*
X93760000Y-117310000D01*
X77644668Y-124506666D02*
X81768002Y-128630000D01*
X134820000Y-90870000D02*
X134820000Y-90680000D01*
X66110000Y-124506666D02*
X77644668Y-124506666D01*
%TO.N,/PASS3_NC*%
X35170000Y-165763332D02*
X35170000Y-175570000D01*
X36890000Y-177290000D02*
X39230000Y-177290000D01*
X35170000Y-175570000D02*
X36890000Y-177290000D01*
X112950000Y-135980000D02*
X116660000Y-132270000D01*
X112950000Y-148540000D02*
X112950000Y-135980000D01*
X108030000Y-153460000D02*
X112950000Y-148540000D01*
X70010000Y-153460000D02*
X108030000Y-153460000D01*
X68410000Y-155060000D02*
X70010000Y-153460000D01*
X68410000Y-169060000D02*
X68410000Y-155060000D01*
X67010000Y-170460000D02*
X68410000Y-169060000D01*
X116660000Y-132270000D02*
X123080000Y-132270000D01*
X61280000Y-170460000D02*
X67010000Y-170460000D01*
X56583332Y-165763332D02*
X61280000Y-170460000D01*
X35170000Y-165763332D02*
X56583332Y-165763332D01*
%TO.N,/PASS4_NC*%
X96960000Y-170200000D02*
X102910000Y-170200000D01*
X102910000Y-170200000D02*
X106320000Y-166790000D01*
X106320000Y-166790000D02*
X115430000Y-166790000D01*
X115430000Y-166790000D02*
X118740000Y-170100000D01*
X131340000Y-170100000D02*
X134820000Y-173580000D01*
X118740000Y-170100000D02*
X131340000Y-170100000D01*
%TO.N,/IN1*%
X35170000Y-76950000D02*
X55730000Y-76950000D01*
X55730000Y-76950000D02*
X63390000Y-84610000D01*
X63390000Y-84610000D02*
X63390000Y-85520000D01*
X63390000Y-85520000D02*
X63390000Y-85520000D01*
%TO.N,/IN2*%
X66110000Y-118206666D02*
X84046666Y-118206666D01*
X84046666Y-118206666D02*
X90740000Y-124900000D01*
X90740000Y-124900000D02*
X90740000Y-126450000D01*
X90740000Y-126450000D02*
X90740000Y-126450000D01*
%TO.N,/IN3*%
X35170000Y-159463332D02*
X60043332Y-159463332D01*
X60043332Y-159463332D02*
X65800000Y-165220000D01*
X65800000Y-165220000D02*
X65800000Y-168140000D01*
X65800000Y-168140000D02*
X65800000Y-168140000D01*
%TO.N,/IN4*%
X66110000Y-200720000D02*
X69360000Y-200720000D01*
X69360000Y-200720000D02*
X71160000Y-198920000D01*
X71160000Y-174120000D02*
X72840000Y-172440000D01*
X71160000Y-198920000D02*
X71160000Y-174120000D01*
X86750000Y-172440000D02*
X86820000Y-172370000D01*
X72840000Y-172440000D02*
X86750000Y-172440000D01*
%TD*%
D17*
%TO.N,/IN2\u002A*%
X73174468Y-102979200D02*
X72825000Y-104736096D01*
X72825000Y-107077236D01*
X73281734Y-109373392D01*
X74177650Y-111536324D01*
X75478318Y-113482912D01*
X77133754Y-115138348D01*
X79080342Y-116439016D01*
X80004141Y-116821666D01*
X69470810Y-116821666D01*
X69331295Y-116484848D01*
X68933489Y-115889489D01*
X68427177Y-115383177D01*
X67938519Y-115056666D01*
X68427177Y-114730155D01*
X68933489Y-114223843D01*
X69331295Y-113628484D01*
X69605309Y-112966956D01*
X69745000Y-112264682D01*
X69745000Y-111548650D01*
X69605309Y-110846376D01*
X69331295Y-110184848D01*
X68933489Y-109589489D01*
X68427177Y-109083177D01*
X67831818Y-108685371D01*
X67170290Y-108411357D01*
X66468016Y-108271666D01*
X65751984Y-108271666D01*
X65049710Y-108411357D01*
X64388182Y-108685371D01*
X63792823Y-109083177D01*
X63286511Y-109589489D01*
X62888705Y-110184848D01*
X62614691Y-110846376D01*
X62475000Y-111548650D01*
X62475000Y-112264682D01*
X62614691Y-112966956D01*
X62888705Y-113628484D01*
X63286511Y-114223843D01*
X63792823Y-114730155D01*
X64281481Y-115056666D01*
X63792823Y-115383177D01*
X63286511Y-115889489D01*
X62888705Y-116484848D01*
X62614691Y-117146376D01*
X62475000Y-117848650D01*
X62475000Y-118564682D01*
X62614691Y-119266956D01*
X62888705Y-119928484D01*
X63286511Y-120523843D01*
X63792823Y-121030155D01*
X64281481Y-121356666D01*
X63792823Y-121683177D01*
X63286511Y-122189489D01*
X62888705Y-122784848D01*
X62614691Y-123446376D01*
X62475000Y-124148650D01*
X62475000Y-124864682D01*
X62614691Y-125566956D01*
X62888705Y-126228484D01*
X63286511Y-126823843D01*
X63792823Y-127330155D01*
X64388182Y-127727961D01*
X65049710Y-128001975D01*
X65751984Y-128141666D01*
X66468016Y-128141666D01*
X67170290Y-128001975D01*
X67831818Y-127727961D01*
X68427177Y-127330155D01*
X68933489Y-126823843D01*
X69331295Y-126228484D01*
X69470810Y-125891666D01*
X77070983Y-125891666D01*
X80740552Y-129561236D01*
X80783921Y-129614081D01*
X80836766Y-129657450D01*
X80836768Y-129657452D01*
X80914427Y-129721185D01*
X80994814Y-129787157D01*
X81235421Y-129915764D01*
X81496495Y-129994960D01*
X81699965Y-130015000D01*
X81699973Y-130015000D01*
X81768002Y-130021700D01*
X81836031Y-130015000D01*
X92611971Y-130015000D01*
X92680000Y-130021700D01*
X92748029Y-130015000D01*
X92748037Y-130015000D01*
X92951507Y-129994960D01*
X93212581Y-129915764D01*
X93453188Y-129787157D01*
X93664081Y-129614081D01*
X93707454Y-129561231D01*
X94691241Y-128577445D01*
X94744080Y-128534081D01*
X94787445Y-128481241D01*
X94787452Y-128481234D01*
X94917157Y-128323188D01*
X95045764Y-128082581D01*
X95124960Y-127821507D01*
X95130032Y-127770000D01*
X95471928Y-127770000D01*
X95471928Y-128770000D01*
X95493796Y-128992027D01*
X95558559Y-129205521D01*
X95663728Y-129402279D01*
X95805262Y-129574738D01*
X95977721Y-129716272D01*
X96174479Y-129821441D01*
X96295905Y-129858275D01*
X96636073Y-130198443D01*
X96433699Y-130501316D01*
X96374734Y-130611631D01*
X96149677Y-131154967D01*
X96113367Y-131274665D01*
X95998634Y-131851468D01*
X95986374Y-131975949D01*
X95986374Y-132564051D01*
X95998634Y-132688532D01*
X96113367Y-133265335D01*
X96149677Y-133385033D01*
X96374734Y-133928369D01*
X96433699Y-134038684D01*
X96760432Y-134527674D01*
X96839784Y-134624365D01*
X97255635Y-135040216D01*
X97352326Y-135119568D01*
X97841316Y-135446301D01*
X97951631Y-135505266D01*
X98494967Y-135730323D01*
X98614665Y-135766633D01*
X99191468Y-135881366D01*
X99315949Y-135893626D01*
X99904051Y-135893626D01*
X100028532Y-135881366D01*
X100605335Y-135766633D01*
X100725033Y-135730323D01*
X101268369Y-135505266D01*
X101378684Y-135446301D01*
X101867674Y-135119568D01*
X101964365Y-135040216D01*
X102380216Y-134624365D01*
X102459568Y-134527674D01*
X102786301Y-134038684D01*
X102845266Y-133928369D01*
X103070323Y-133385033D01*
X103106633Y-133265335D01*
X103221366Y-132688532D01*
X103233626Y-132564051D01*
X103233626Y-131975949D01*
X103221366Y-131851468D01*
X103106633Y-131274665D01*
X103070323Y-131154967D01*
X102845266Y-130611631D01*
X102786301Y-130501316D01*
X102583927Y-130198443D01*
X102924095Y-129858275D01*
X103045521Y-129821441D01*
X103242279Y-129716272D01*
X103414738Y-129574738D01*
X103556272Y-129402279D01*
X103661441Y-129205521D01*
X103726204Y-128992027D01*
X103748072Y-128770000D01*
X103748072Y-127770000D01*
X103726204Y-127547973D01*
X103661441Y-127334479D01*
X103556272Y-127137721D01*
X103414738Y-126965262D01*
X103242279Y-126823728D01*
X103045521Y-126718559D01*
X102832027Y-126653796D01*
X102610000Y-126631928D01*
X96610000Y-126631928D01*
X96387973Y-126653796D01*
X96174479Y-126718559D01*
X95977721Y-126823728D01*
X95805262Y-126965262D01*
X95663728Y-127137721D01*
X95558559Y-127334479D01*
X95493796Y-127547973D01*
X95471928Y-127770000D01*
X95130032Y-127770000D01*
X95134173Y-127727961D01*
X95145000Y-127618037D01*
X95145000Y-127618029D01*
X95151700Y-127550000D01*
X95145000Y-127481971D01*
X95145000Y-125770000D01*
X107211928Y-125770000D01*
X107224188Y-125894482D01*
X107260498Y-126014180D01*
X107319463Y-126124494D01*
X107398815Y-126221185D01*
X107495506Y-126300537D01*
X107605820Y-126359502D01*
X107725518Y-126395812D01*
X107850000Y-126408072D01*
X111064250Y-126405000D01*
X111223000Y-126246250D01*
X111223000Y-124897000D01*
X111477000Y-124897000D01*
X111477000Y-126246250D01*
X111635750Y-126405000D01*
X114850000Y-126408072D01*
X114974482Y-126395812D01*
X115094180Y-126359502D01*
X115204494Y-126300537D01*
X115301185Y-126221185D01*
X115380537Y-126124494D01*
X115439502Y-126014180D01*
X115475812Y-125894482D01*
X115488072Y-125770000D01*
X115487943Y-125740000D01*
X130681928Y-125740000D01*
X130694188Y-125864482D01*
X130730498Y-125984180D01*
X130789463Y-126094494D01*
X130868815Y-126191185D01*
X130965506Y-126270537D01*
X131075820Y-126329502D01*
X131195518Y-126365812D01*
X131320000Y-126378072D01*
X134534250Y-126375000D01*
X134693000Y-126216250D01*
X134693000Y-124867000D01*
X134947000Y-124867000D01*
X134947000Y-126216250D01*
X135105750Y-126375000D01*
X138320000Y-126378072D01*
X138444482Y-126365812D01*
X138564180Y-126329502D01*
X138674494Y-126270537D01*
X138771185Y-126191185D01*
X138850537Y-126094494D01*
X138909502Y-125984180D01*
X138945812Y-125864482D01*
X138958072Y-125740000D01*
X138955000Y-125025750D01*
X138796250Y-124867000D01*
X134947000Y-124867000D01*
X134693000Y-124867000D01*
X130843750Y-124867000D01*
X130685000Y-125025750D01*
X130681928Y-125740000D01*
X115487943Y-125740000D01*
X115485000Y-125055750D01*
X115326250Y-124897000D01*
X111477000Y-124897000D01*
X111223000Y-124897000D01*
X107373750Y-124897000D01*
X107215000Y-125055750D01*
X107211928Y-125770000D01*
X95145000Y-125770000D01*
X95145000Y-123770000D01*
X107211928Y-123770000D01*
X107215000Y-124484250D01*
X107373750Y-124643000D01*
X111223000Y-124643000D01*
X111223000Y-124623000D01*
X111477000Y-124623000D01*
X111477000Y-124643000D01*
X115326250Y-124643000D01*
X115485000Y-124484250D01*
X115488072Y-123770000D01*
X115485118Y-123740000D01*
X130681928Y-123740000D01*
X130685000Y-124454250D01*
X130843750Y-124613000D01*
X134693000Y-124613000D01*
X134693000Y-124593000D01*
X134947000Y-124593000D01*
X134947000Y-124613000D01*
X138796250Y-124613000D01*
X138955000Y-124454250D01*
X138958072Y-123740000D01*
X138945812Y-123615518D01*
X138909502Y-123495820D01*
X138850537Y-123385506D01*
X138771185Y-123288815D01*
X138674494Y-123209463D01*
X138564180Y-123150498D01*
X138444482Y-123114188D01*
X138320000Y-123101928D01*
X138084523Y-123102153D01*
X137793927Y-122811557D01*
X137996301Y-122508684D01*
X138055266Y-122398369D01*
X138280323Y-121855033D01*
X138316633Y-121735335D01*
X138431366Y-121158532D01*
X138443626Y-121034051D01*
X138443626Y-120445949D01*
X138431366Y-120321468D01*
X138316633Y-119744665D01*
X138280323Y-119624967D01*
X138055266Y-119081631D01*
X137996301Y-118971316D01*
X137669568Y-118482326D01*
X137590216Y-118385635D01*
X137174365Y-117969784D01*
X137077674Y-117890432D01*
X136588684Y-117563699D01*
X136478369Y-117504734D01*
X135935033Y-117279677D01*
X135815335Y-117243367D01*
X135238532Y-117128634D01*
X135114051Y-117116374D01*
X134525949Y-117116374D01*
X134401468Y-117128634D01*
X133824665Y-117243367D01*
X133704967Y-117279677D01*
X133161631Y-117504734D01*
X133051316Y-117563699D01*
X132562326Y-117890432D01*
X132465635Y-117969784D01*
X132049784Y-118385635D01*
X131970432Y-118482326D01*
X131643699Y-118971316D01*
X131584734Y-119081631D01*
X131359677Y-119624967D01*
X131323367Y-119744665D01*
X131208634Y-120321468D01*
X131196374Y-120445949D01*
X131196374Y-121034051D01*
X131208634Y-121158532D01*
X131323367Y-121735335D01*
X131359677Y-121855033D01*
X131584734Y-122398369D01*
X131643699Y-122508684D01*
X131846073Y-122811557D01*
X131555477Y-123102153D01*
X131320000Y-123101928D01*
X131195518Y-123114188D01*
X131075820Y-123150498D01*
X130965506Y-123209463D01*
X130868815Y-123288815D01*
X130789463Y-123385506D01*
X130730498Y-123495820D01*
X130694188Y-123615518D01*
X130681928Y-123740000D01*
X115485118Y-123740000D01*
X115475812Y-123645518D01*
X115439502Y-123525820D01*
X115380537Y-123415506D01*
X115301185Y-123318815D01*
X115204494Y-123239463D01*
X115094180Y-123180498D01*
X114974482Y-123144188D01*
X114850000Y-123131928D01*
X114614523Y-123132153D01*
X114323927Y-122841557D01*
X114526301Y-122538684D01*
X114585266Y-122428369D01*
X114810323Y-121885033D01*
X114846633Y-121765335D01*
X114961366Y-121188532D01*
X114973626Y-121064051D01*
X114973626Y-120475949D01*
X114961366Y-120351468D01*
X114846633Y-119774665D01*
X114810323Y-119654967D01*
X114585266Y-119111631D01*
X114526301Y-119001316D01*
X114199568Y-118512326D01*
X114120216Y-118415635D01*
X113704365Y-117999784D01*
X113607674Y-117920432D01*
X113118684Y-117593699D01*
X113008369Y-117534734D01*
X112465033Y-117309677D01*
X112345335Y-117273367D01*
X111768532Y-117158634D01*
X111644051Y-117146374D01*
X111055949Y-117146374D01*
X110931468Y-117158634D01*
X110354665Y-117273367D01*
X110234967Y-117309677D01*
X109691631Y-117534734D01*
X109581316Y-117593699D01*
X109092326Y-117920432D01*
X108995635Y-117999784D01*
X108579784Y-118415635D01*
X108500432Y-118512326D01*
X108173699Y-119001316D01*
X108114734Y-119111631D01*
X107889677Y-119654967D01*
X107853367Y-119774665D01*
X107738634Y-120351468D01*
X107726374Y-120475949D01*
X107726374Y-121064051D01*
X107738634Y-121188532D01*
X107853367Y-121765335D01*
X107889677Y-121885033D01*
X108114734Y-122428369D01*
X108173699Y-122538684D01*
X108376073Y-122841557D01*
X108085477Y-123132153D01*
X107850000Y-123131928D01*
X107725518Y-123144188D01*
X107605820Y-123180498D01*
X107495506Y-123239463D01*
X107398815Y-123318815D01*
X107319463Y-123415506D01*
X107260498Y-123525820D01*
X107224188Y-123645518D01*
X107211928Y-123770000D01*
X95145000Y-123770000D01*
X95145000Y-117883685D01*
X104071241Y-108957445D01*
X104124080Y-108914081D01*
X104167445Y-108861241D01*
X104167452Y-108861234D01*
X104297156Y-108703189D01*
X104297157Y-108703188D01*
X104425764Y-108462581D01*
X104504960Y-108201507D01*
X104525000Y-107998037D01*
X104525000Y-107998028D01*
X104531700Y-107930001D01*
X104525000Y-107861974D01*
X104525000Y-106863685D01*
X105693686Y-105695000D01*
X121311971Y-105695000D01*
X121380000Y-105701700D01*
X121448029Y-105695000D01*
X121448037Y-105695000D01*
X121651507Y-105674960D01*
X121912581Y-105595764D01*
X122153188Y-105467157D01*
X122364081Y-105294081D01*
X122407454Y-105241231D01*
X124485120Y-103163565D01*
X142012786Y-103226544D01*
X141973215Y-126712130D01*
X106255868Y-126468003D01*
X106231075Y-126470274D01*
X106207202Y-126477338D01*
X106185166Y-126488924D01*
X106165813Y-126504586D01*
X106149888Y-126523722D01*
X106138002Y-126545598D01*
X106130613Y-126569373D01*
X106128006Y-126596256D01*
X106380075Y-152075000D01*
X70078029Y-152075000D01*
X70010000Y-152068300D01*
X69941971Y-152075000D01*
X69941963Y-152075000D01*
X69738493Y-152095040D01*
X69480319Y-152173356D01*
X64562842Y-152164108D01*
X65198266Y-150630058D01*
X65655000Y-148333902D01*
X65655000Y-145992762D01*
X65198266Y-143696606D01*
X64302350Y-141533674D01*
X63001682Y-139587086D01*
X61405122Y-137990526D01*
X61556451Y-102937455D01*
X73174468Y-102979200D01*
%TA.AperFunction,Conductor*%
D18*
G36*
X73174468Y-102979200D02*
G01*
X72825000Y-104736096D01*
X72825000Y-107077236D01*
X73281734Y-109373392D01*
X74177650Y-111536324D01*
X75478318Y-113482912D01*
X77133754Y-115138348D01*
X79080342Y-116439016D01*
X80004141Y-116821666D01*
X69470810Y-116821666D01*
X69331295Y-116484848D01*
X68933489Y-115889489D01*
X68427177Y-115383177D01*
X67938519Y-115056666D01*
X68427177Y-114730155D01*
X68933489Y-114223843D01*
X69331295Y-113628484D01*
X69605309Y-112966956D01*
X69745000Y-112264682D01*
X69745000Y-111548650D01*
X69605309Y-110846376D01*
X69331295Y-110184848D01*
X68933489Y-109589489D01*
X68427177Y-109083177D01*
X67831818Y-108685371D01*
X67170290Y-108411357D01*
X66468016Y-108271666D01*
X65751984Y-108271666D01*
X65049710Y-108411357D01*
X64388182Y-108685371D01*
X63792823Y-109083177D01*
X63286511Y-109589489D01*
X62888705Y-110184848D01*
X62614691Y-110846376D01*
X62475000Y-111548650D01*
X62475000Y-112264682D01*
X62614691Y-112966956D01*
X62888705Y-113628484D01*
X63286511Y-114223843D01*
X63792823Y-114730155D01*
X64281481Y-115056666D01*
X63792823Y-115383177D01*
X63286511Y-115889489D01*
X62888705Y-116484848D01*
X62614691Y-117146376D01*
X62475000Y-117848650D01*
X62475000Y-118564682D01*
X62614691Y-119266956D01*
X62888705Y-119928484D01*
X63286511Y-120523843D01*
X63792823Y-121030155D01*
X64281481Y-121356666D01*
X63792823Y-121683177D01*
X63286511Y-122189489D01*
X62888705Y-122784848D01*
X62614691Y-123446376D01*
X62475000Y-124148650D01*
X62475000Y-124864682D01*
X62614691Y-125566956D01*
X62888705Y-126228484D01*
X63286511Y-126823843D01*
X63792823Y-127330155D01*
X64388182Y-127727961D01*
X65049710Y-128001975D01*
X65751984Y-128141666D01*
X66468016Y-128141666D01*
X67170290Y-128001975D01*
X67831818Y-127727961D01*
X68427177Y-127330155D01*
X68933489Y-126823843D01*
X69331295Y-126228484D01*
X69470810Y-125891666D01*
X77070983Y-125891666D01*
X80740552Y-129561236D01*
X80783921Y-129614081D01*
X80836766Y-129657450D01*
X80836768Y-129657452D01*
X80914427Y-129721185D01*
X80994814Y-129787157D01*
X81235421Y-129915764D01*
X81496495Y-129994960D01*
X81699965Y-130015000D01*
X81699973Y-130015000D01*
X81768002Y-130021700D01*
X81836031Y-130015000D01*
X92611971Y-130015000D01*
X92680000Y-130021700D01*
X92748029Y-130015000D01*
X92748037Y-130015000D01*
X92951507Y-129994960D01*
X93212581Y-129915764D01*
X93453188Y-129787157D01*
X93664081Y-129614081D01*
X93707454Y-129561231D01*
X94691241Y-128577445D01*
X94744080Y-128534081D01*
X94787445Y-128481241D01*
X94787452Y-128481234D01*
X94917157Y-128323188D01*
X95045764Y-128082581D01*
X95124960Y-127821507D01*
X95130032Y-127770000D01*
X95471928Y-127770000D01*
X95471928Y-128770000D01*
X95493796Y-128992027D01*
X95558559Y-129205521D01*
X95663728Y-129402279D01*
X95805262Y-129574738D01*
X95977721Y-129716272D01*
X96174479Y-129821441D01*
X96295905Y-129858275D01*
X96636073Y-130198443D01*
X96433699Y-130501316D01*
X96374734Y-130611631D01*
X96149677Y-131154967D01*
X96113367Y-131274665D01*
X95998634Y-131851468D01*
X95986374Y-131975949D01*
X95986374Y-132564051D01*
X95998634Y-132688532D01*
X96113367Y-133265335D01*
X96149677Y-133385033D01*
X96374734Y-133928369D01*
X96433699Y-134038684D01*
X96760432Y-134527674D01*
X96839784Y-134624365D01*
X97255635Y-135040216D01*
X97352326Y-135119568D01*
X97841316Y-135446301D01*
X97951631Y-135505266D01*
X98494967Y-135730323D01*
X98614665Y-135766633D01*
X99191468Y-135881366D01*
X99315949Y-135893626D01*
X99904051Y-135893626D01*
X100028532Y-135881366D01*
X100605335Y-135766633D01*
X100725033Y-135730323D01*
X101268369Y-135505266D01*
X101378684Y-135446301D01*
X101867674Y-135119568D01*
X101964365Y-135040216D01*
X102380216Y-134624365D01*
X102459568Y-134527674D01*
X102786301Y-134038684D01*
X102845266Y-133928369D01*
X103070323Y-133385033D01*
X103106633Y-133265335D01*
X103221366Y-132688532D01*
X103233626Y-132564051D01*
X103233626Y-131975949D01*
X103221366Y-131851468D01*
X103106633Y-131274665D01*
X103070323Y-131154967D01*
X102845266Y-130611631D01*
X102786301Y-130501316D01*
X102583927Y-130198443D01*
X102924095Y-129858275D01*
X103045521Y-129821441D01*
X103242279Y-129716272D01*
X103414738Y-129574738D01*
X103556272Y-129402279D01*
X103661441Y-129205521D01*
X103726204Y-128992027D01*
X103748072Y-128770000D01*
X103748072Y-127770000D01*
X103726204Y-127547973D01*
X103661441Y-127334479D01*
X103556272Y-127137721D01*
X103414738Y-126965262D01*
X103242279Y-126823728D01*
X103045521Y-126718559D01*
X102832027Y-126653796D01*
X102610000Y-126631928D01*
X96610000Y-126631928D01*
X96387973Y-126653796D01*
X96174479Y-126718559D01*
X95977721Y-126823728D01*
X95805262Y-126965262D01*
X95663728Y-127137721D01*
X95558559Y-127334479D01*
X95493796Y-127547973D01*
X95471928Y-127770000D01*
X95130032Y-127770000D01*
X95134173Y-127727961D01*
X95145000Y-127618037D01*
X95145000Y-127618029D01*
X95151700Y-127550000D01*
X95145000Y-127481971D01*
X95145000Y-125770000D01*
X107211928Y-125770000D01*
X107224188Y-125894482D01*
X107260498Y-126014180D01*
X107319463Y-126124494D01*
X107398815Y-126221185D01*
X107495506Y-126300537D01*
X107605820Y-126359502D01*
X107725518Y-126395812D01*
X107850000Y-126408072D01*
X111064250Y-126405000D01*
X111223000Y-126246250D01*
X111223000Y-124897000D01*
X111477000Y-124897000D01*
X111477000Y-126246250D01*
X111635750Y-126405000D01*
X114850000Y-126408072D01*
X114974482Y-126395812D01*
X115094180Y-126359502D01*
X115204494Y-126300537D01*
X115301185Y-126221185D01*
X115380537Y-126124494D01*
X115439502Y-126014180D01*
X115475812Y-125894482D01*
X115488072Y-125770000D01*
X115487943Y-125740000D01*
X130681928Y-125740000D01*
X130694188Y-125864482D01*
X130730498Y-125984180D01*
X130789463Y-126094494D01*
X130868815Y-126191185D01*
X130965506Y-126270537D01*
X131075820Y-126329502D01*
X131195518Y-126365812D01*
X131320000Y-126378072D01*
X134534250Y-126375000D01*
X134693000Y-126216250D01*
X134693000Y-124867000D01*
X134947000Y-124867000D01*
X134947000Y-126216250D01*
X135105750Y-126375000D01*
X138320000Y-126378072D01*
X138444482Y-126365812D01*
X138564180Y-126329502D01*
X138674494Y-126270537D01*
X138771185Y-126191185D01*
X138850537Y-126094494D01*
X138909502Y-125984180D01*
X138945812Y-125864482D01*
X138958072Y-125740000D01*
X138955000Y-125025750D01*
X138796250Y-124867000D01*
X134947000Y-124867000D01*
X134693000Y-124867000D01*
X130843750Y-124867000D01*
X130685000Y-125025750D01*
X130681928Y-125740000D01*
X115487943Y-125740000D01*
X115485000Y-125055750D01*
X115326250Y-124897000D01*
X111477000Y-124897000D01*
X111223000Y-124897000D01*
X107373750Y-124897000D01*
X107215000Y-125055750D01*
X107211928Y-125770000D01*
X95145000Y-125770000D01*
X95145000Y-123770000D01*
X107211928Y-123770000D01*
X107215000Y-124484250D01*
X107373750Y-124643000D01*
X111223000Y-124643000D01*
X111223000Y-124623000D01*
X111477000Y-124623000D01*
X111477000Y-124643000D01*
X115326250Y-124643000D01*
X115485000Y-124484250D01*
X115488072Y-123770000D01*
X115485118Y-123740000D01*
X130681928Y-123740000D01*
X130685000Y-124454250D01*
X130843750Y-124613000D01*
X134693000Y-124613000D01*
X134693000Y-124593000D01*
X134947000Y-124593000D01*
X134947000Y-124613000D01*
X138796250Y-124613000D01*
X138955000Y-124454250D01*
X138958072Y-123740000D01*
X138945812Y-123615518D01*
X138909502Y-123495820D01*
X138850537Y-123385506D01*
X138771185Y-123288815D01*
X138674494Y-123209463D01*
X138564180Y-123150498D01*
X138444482Y-123114188D01*
X138320000Y-123101928D01*
X138084523Y-123102153D01*
X137793927Y-122811557D01*
X137996301Y-122508684D01*
X138055266Y-122398369D01*
X138280323Y-121855033D01*
X138316633Y-121735335D01*
X138431366Y-121158532D01*
X138443626Y-121034051D01*
X138443626Y-120445949D01*
X138431366Y-120321468D01*
X138316633Y-119744665D01*
X138280323Y-119624967D01*
X138055266Y-119081631D01*
X137996301Y-118971316D01*
X137669568Y-118482326D01*
X137590216Y-118385635D01*
X137174365Y-117969784D01*
X137077674Y-117890432D01*
X136588684Y-117563699D01*
X136478369Y-117504734D01*
X135935033Y-117279677D01*
X135815335Y-117243367D01*
X135238532Y-117128634D01*
X135114051Y-117116374D01*
X134525949Y-117116374D01*
X134401468Y-117128634D01*
X133824665Y-117243367D01*
X133704967Y-117279677D01*
X133161631Y-117504734D01*
X133051316Y-117563699D01*
X132562326Y-117890432D01*
X132465635Y-117969784D01*
X132049784Y-118385635D01*
X131970432Y-118482326D01*
X131643699Y-118971316D01*
X131584734Y-119081631D01*
X131359677Y-119624967D01*
X131323367Y-119744665D01*
X131208634Y-120321468D01*
X131196374Y-120445949D01*
X131196374Y-121034051D01*
X131208634Y-121158532D01*
X131323367Y-121735335D01*
X131359677Y-121855033D01*
X131584734Y-122398369D01*
X131643699Y-122508684D01*
X131846073Y-122811557D01*
X131555477Y-123102153D01*
X131320000Y-123101928D01*
X131195518Y-123114188D01*
X131075820Y-123150498D01*
X130965506Y-123209463D01*
X130868815Y-123288815D01*
X130789463Y-123385506D01*
X130730498Y-123495820D01*
X130694188Y-123615518D01*
X130681928Y-123740000D01*
X115485118Y-123740000D01*
X115475812Y-123645518D01*
X115439502Y-123525820D01*
X115380537Y-123415506D01*
X115301185Y-123318815D01*
X115204494Y-123239463D01*
X115094180Y-123180498D01*
X114974482Y-123144188D01*
X114850000Y-123131928D01*
X114614523Y-123132153D01*
X114323927Y-122841557D01*
X114526301Y-122538684D01*
X114585266Y-122428369D01*
X114810323Y-121885033D01*
X114846633Y-121765335D01*
X114961366Y-121188532D01*
X114973626Y-121064051D01*
X114973626Y-120475949D01*
X114961366Y-120351468D01*
X114846633Y-119774665D01*
X114810323Y-119654967D01*
X114585266Y-119111631D01*
X114526301Y-119001316D01*
X114199568Y-118512326D01*
X114120216Y-118415635D01*
X113704365Y-117999784D01*
X113607674Y-117920432D01*
X113118684Y-117593699D01*
X113008369Y-117534734D01*
X112465033Y-117309677D01*
X112345335Y-117273367D01*
X111768532Y-117158634D01*
X111644051Y-117146374D01*
X111055949Y-117146374D01*
X110931468Y-117158634D01*
X110354665Y-117273367D01*
X110234967Y-117309677D01*
X109691631Y-117534734D01*
X109581316Y-117593699D01*
X109092326Y-117920432D01*
X108995635Y-117999784D01*
X108579784Y-118415635D01*
X108500432Y-118512326D01*
X108173699Y-119001316D01*
X108114734Y-119111631D01*
X107889677Y-119654967D01*
X107853367Y-119774665D01*
X107738634Y-120351468D01*
X107726374Y-120475949D01*
X107726374Y-121064051D01*
X107738634Y-121188532D01*
X107853367Y-121765335D01*
X107889677Y-121885033D01*
X108114734Y-122428369D01*
X108173699Y-122538684D01*
X108376073Y-122841557D01*
X108085477Y-123132153D01*
X107850000Y-123131928D01*
X107725518Y-123144188D01*
X107605820Y-123180498D01*
X107495506Y-123239463D01*
X107398815Y-123318815D01*
X107319463Y-123415506D01*
X107260498Y-123525820D01*
X107224188Y-123645518D01*
X107211928Y-123770000D01*
X95145000Y-123770000D01*
X95145000Y-117883685D01*
X104071241Y-108957445D01*
X104124080Y-108914081D01*
X104167445Y-108861241D01*
X104167452Y-108861234D01*
X104297156Y-108703189D01*
X104297157Y-108703188D01*
X104425764Y-108462581D01*
X104504960Y-108201507D01*
X104525000Y-107998037D01*
X104525000Y-107998028D01*
X104531700Y-107930001D01*
X104525000Y-107861974D01*
X104525000Y-106863685D01*
X105693686Y-105695000D01*
X121311971Y-105695000D01*
X121380000Y-105701700D01*
X121448029Y-105695000D01*
X121448037Y-105695000D01*
X121651507Y-105674960D01*
X121912581Y-105595764D01*
X122153188Y-105467157D01*
X122364081Y-105294081D01*
X122407454Y-105241231D01*
X124485120Y-103163565D01*
X142012786Y-103226544D01*
X141973215Y-126712130D01*
X106255868Y-126468003D01*
X106231075Y-126470274D01*
X106207202Y-126477338D01*
X106185166Y-126488924D01*
X106165813Y-126504586D01*
X106149888Y-126523722D01*
X106138002Y-126545598D01*
X106130613Y-126569373D01*
X106128006Y-126596256D01*
X106380075Y-152075000D01*
X70078029Y-152075000D01*
X70010000Y-152068300D01*
X69941971Y-152075000D01*
X69941963Y-152075000D01*
X69738493Y-152095040D01*
X69480319Y-152173356D01*
X64562842Y-152164108D01*
X65198266Y-150630058D01*
X65655000Y-148333902D01*
X65655000Y-145992762D01*
X65198266Y-143696606D01*
X64302350Y-141533674D01*
X63001682Y-139587086D01*
X61405122Y-137990526D01*
X61556451Y-102937455D01*
X73174468Y-102979200D01*
G37*
%TD.AperFunction*%
%TD*%
D17*
%TO.N,/IN4\u002A*%
X106267752Y-165403446D02*
X106251972Y-165405000D01*
X106251963Y-165405000D01*
X106048493Y-165425040D01*
X105787419Y-165504236D01*
X105546812Y-165632843D01*
X105501099Y-165670359D01*
X105388766Y-165762548D01*
X105388764Y-165762550D01*
X105335919Y-165805919D01*
X105292550Y-165858764D01*
X102336315Y-168815000D01*
X96823589Y-168815000D01*
X96756530Y-168828339D01*
X96688493Y-168835040D01*
X96623068Y-168854886D01*
X96556011Y-168868225D01*
X96492845Y-168894389D01*
X96427419Y-168914236D01*
X96367123Y-168946465D01*
X96303957Y-168972629D01*
X96247110Y-169010613D01*
X96186812Y-169042843D01*
X96133960Y-169086217D01*
X96077114Y-169124201D01*
X96028769Y-169172546D01*
X95975919Y-169215919D01*
X95932548Y-169268767D01*
X95884201Y-169317114D01*
X95846217Y-169373960D01*
X95802843Y-169426812D01*
X95770613Y-169487110D01*
X95732629Y-169543957D01*
X95706465Y-169607123D01*
X95674236Y-169667419D01*
X95654389Y-169732845D01*
X95628225Y-169796011D01*
X95614886Y-169863068D01*
X95595040Y-169928493D01*
X95588339Y-169996530D01*
X95575000Y-170063589D01*
X95575000Y-170131963D01*
X95568299Y-170200000D01*
X95575000Y-170268037D01*
X95575000Y-170336411D01*
X95588339Y-170403470D01*
X95595040Y-170471507D01*
X95614886Y-170536932D01*
X95628225Y-170603989D01*
X95654389Y-170667155D01*
X95674236Y-170732581D01*
X95706465Y-170792877D01*
X95732629Y-170856043D01*
X95770613Y-170912890D01*
X95802843Y-170973188D01*
X95846217Y-171026040D01*
X95884201Y-171082886D01*
X95932546Y-171131231D01*
X95975919Y-171184081D01*
X96028767Y-171227452D01*
X96077114Y-171275799D01*
X96133960Y-171313783D01*
X96186812Y-171357157D01*
X96247110Y-171389387D01*
X96303957Y-171427371D01*
X96367123Y-171453535D01*
X96427419Y-171485764D01*
X96492845Y-171505611D01*
X96556011Y-171531775D01*
X96623068Y-171545114D01*
X96688493Y-171564960D01*
X96756530Y-171571661D01*
X96823589Y-171585000D01*
X102841971Y-171585000D01*
X102910000Y-171591700D01*
X102978029Y-171585000D01*
X102978037Y-171585000D01*
X103181507Y-171564960D01*
X103442581Y-171485764D01*
X103683188Y-171357157D01*
X103894081Y-171184081D01*
X103937454Y-171131231D01*
X106287883Y-168780803D01*
X106373002Y-183060757D01*
X106375590Y-183085518D01*
X106382959Y-183109299D01*
X106394826Y-183131186D01*
X106410734Y-183150336D01*
X106430073Y-183166015D01*
X106452099Y-183177620D01*
X106475966Y-183184705D01*
X106498410Y-183186990D01*
X141525091Y-183625446D01*
X141995855Y-211628463D01*
X61541451Y-211917545D01*
X61464366Y-194061984D01*
X62475000Y-194061984D01*
X62475000Y-194778016D01*
X62614691Y-195480290D01*
X62888705Y-196141818D01*
X63286511Y-196737177D01*
X63792823Y-197243489D01*
X64281481Y-197570000D01*
X63792823Y-197896511D01*
X63286511Y-198402823D01*
X62888705Y-198998182D01*
X62614691Y-199659710D01*
X62475000Y-200361984D01*
X62475000Y-201078016D01*
X62614691Y-201780290D01*
X62888705Y-202441818D01*
X63286511Y-203037177D01*
X63792823Y-203543489D01*
X64281481Y-203870000D01*
X63792823Y-204196511D01*
X63286511Y-204702823D01*
X62888705Y-205298182D01*
X62614691Y-205959710D01*
X62475000Y-206661984D01*
X62475000Y-207378016D01*
X62614691Y-208080290D01*
X62888705Y-208741818D01*
X63286511Y-209337177D01*
X63792823Y-209843489D01*
X64388182Y-210241295D01*
X65049710Y-210515309D01*
X65751984Y-210655000D01*
X66468016Y-210655000D01*
X67170290Y-210515309D01*
X67831818Y-210241295D01*
X68427177Y-209843489D01*
X68933489Y-209337177D01*
X69331295Y-208741818D01*
X69369327Y-208650000D01*
X107211928Y-208650000D01*
X107224188Y-208774482D01*
X107260498Y-208894180D01*
X107319463Y-209004494D01*
X107398815Y-209101185D01*
X107495506Y-209180537D01*
X107605820Y-209239502D01*
X107725518Y-209275812D01*
X107850000Y-209288072D01*
X111064250Y-209285000D01*
X111223000Y-209126250D01*
X111223000Y-207777000D01*
X111477000Y-207777000D01*
X111477000Y-209126250D01*
X111635750Y-209285000D01*
X114850000Y-209288072D01*
X114974482Y-209275812D01*
X115094180Y-209239502D01*
X115204494Y-209180537D01*
X115301185Y-209101185D01*
X115380537Y-209004494D01*
X115439502Y-208894180D01*
X115475812Y-208774482D01*
X115488072Y-208650000D01*
X115488029Y-208640000D01*
X130681928Y-208640000D01*
X130694188Y-208764482D01*
X130730498Y-208884180D01*
X130789463Y-208994494D01*
X130868815Y-209091185D01*
X130965506Y-209170537D01*
X131075820Y-209229502D01*
X131195518Y-209265812D01*
X131320000Y-209278072D01*
X134534250Y-209275000D01*
X134693000Y-209116250D01*
X134693000Y-207767000D01*
X134947000Y-207767000D01*
X134947000Y-209116250D01*
X135105750Y-209275000D01*
X138320000Y-209278072D01*
X138444482Y-209265812D01*
X138564180Y-209229502D01*
X138674494Y-209170537D01*
X138771185Y-209091185D01*
X138850537Y-208994494D01*
X138909502Y-208884180D01*
X138945812Y-208764482D01*
X138958072Y-208640000D01*
X138955000Y-207925750D01*
X138796250Y-207767000D01*
X134947000Y-207767000D01*
X134693000Y-207767000D01*
X130843750Y-207767000D01*
X130685000Y-207925750D01*
X130681928Y-208640000D01*
X115488029Y-208640000D01*
X115485000Y-207935750D01*
X115326250Y-207777000D01*
X111477000Y-207777000D01*
X111223000Y-207777000D01*
X107373750Y-207777000D01*
X107215000Y-207935750D01*
X107211928Y-208650000D01*
X69369327Y-208650000D01*
X69605309Y-208080290D01*
X69745000Y-207378016D01*
X69745000Y-206661984D01*
X69742617Y-206650000D01*
X107211928Y-206650000D01*
X107215000Y-207364250D01*
X107373750Y-207523000D01*
X111223000Y-207523000D01*
X111223000Y-207503000D01*
X111477000Y-207503000D01*
X111477000Y-207523000D01*
X115326250Y-207523000D01*
X115485000Y-207364250D01*
X115488072Y-206650000D01*
X115487088Y-206640000D01*
X130681928Y-206640000D01*
X130685000Y-207354250D01*
X130843750Y-207513000D01*
X134693000Y-207513000D01*
X134693000Y-207493000D01*
X134947000Y-207493000D01*
X134947000Y-207513000D01*
X138796250Y-207513000D01*
X138955000Y-207354250D01*
X138958072Y-206640000D01*
X138945812Y-206515518D01*
X138909502Y-206395820D01*
X138850537Y-206285506D01*
X138771185Y-206188815D01*
X138674494Y-206109463D01*
X138564180Y-206050498D01*
X138444482Y-206014188D01*
X138320000Y-206001928D01*
X138084523Y-206002153D01*
X137793927Y-205711557D01*
X137996301Y-205408684D01*
X138055266Y-205298369D01*
X138280323Y-204755033D01*
X138316633Y-204635335D01*
X138431366Y-204058532D01*
X138443626Y-203934051D01*
X138443626Y-203345949D01*
X138431366Y-203221468D01*
X138316633Y-202644665D01*
X138280323Y-202524967D01*
X138055266Y-201981631D01*
X137996301Y-201871316D01*
X137669568Y-201382326D01*
X137590216Y-201285635D01*
X137174365Y-200869784D01*
X137077674Y-200790432D01*
X136588684Y-200463699D01*
X136478369Y-200404734D01*
X135935033Y-200179677D01*
X135815335Y-200143367D01*
X135238532Y-200028634D01*
X135114051Y-200016374D01*
X134525949Y-200016374D01*
X134401468Y-200028634D01*
X133824665Y-200143367D01*
X133704967Y-200179677D01*
X133161631Y-200404734D01*
X133051316Y-200463699D01*
X132562326Y-200790432D01*
X132465635Y-200869784D01*
X132049784Y-201285635D01*
X131970432Y-201382326D01*
X131643699Y-201871316D01*
X131584734Y-201981631D01*
X131359677Y-202524967D01*
X131323367Y-202644665D01*
X131208634Y-203221468D01*
X131196374Y-203345949D01*
X131196374Y-203934051D01*
X131208634Y-204058532D01*
X131323367Y-204635335D01*
X131359677Y-204755033D01*
X131584734Y-205298369D01*
X131643699Y-205408684D01*
X131846073Y-205711557D01*
X131555477Y-206002153D01*
X131320000Y-206001928D01*
X131195518Y-206014188D01*
X131075820Y-206050498D01*
X130965506Y-206109463D01*
X130868815Y-206188815D01*
X130789463Y-206285506D01*
X130730498Y-206395820D01*
X130694188Y-206515518D01*
X130681928Y-206640000D01*
X115487088Y-206640000D01*
X115475812Y-206525518D01*
X115439502Y-206405820D01*
X115380537Y-206295506D01*
X115301185Y-206198815D01*
X115204494Y-206119463D01*
X115094180Y-206060498D01*
X114974482Y-206024188D01*
X114850000Y-206011928D01*
X114614523Y-206012153D01*
X114323927Y-205721557D01*
X114526301Y-205418684D01*
X114585266Y-205308369D01*
X114810323Y-204765033D01*
X114846633Y-204645335D01*
X114961366Y-204068532D01*
X114973626Y-203944051D01*
X114973626Y-203355949D01*
X114961366Y-203231468D01*
X114846633Y-202654665D01*
X114810323Y-202534967D01*
X114585266Y-201991631D01*
X114526301Y-201881316D01*
X114199568Y-201392326D01*
X114120216Y-201295635D01*
X113704365Y-200879784D01*
X113607674Y-200800432D01*
X113118684Y-200473699D01*
X113008369Y-200414734D01*
X112465033Y-200189677D01*
X112345335Y-200153367D01*
X111768532Y-200038634D01*
X111644051Y-200026374D01*
X111055949Y-200026374D01*
X110931468Y-200038634D01*
X110354665Y-200153367D01*
X110234967Y-200189677D01*
X109691631Y-200414734D01*
X109581316Y-200473699D01*
X109092326Y-200800432D01*
X108995635Y-200879784D01*
X108579784Y-201295635D01*
X108500432Y-201392326D01*
X108173699Y-201881316D01*
X108114734Y-201991631D01*
X107889677Y-202534967D01*
X107853367Y-202654665D01*
X107738634Y-203231468D01*
X107726374Y-203355949D01*
X107726374Y-203944051D01*
X107738634Y-204068532D01*
X107853367Y-204645335D01*
X107889677Y-204765033D01*
X108114734Y-205308369D01*
X108173699Y-205418684D01*
X108376073Y-205721557D01*
X108085477Y-206012153D01*
X107850000Y-206011928D01*
X107725518Y-206024188D01*
X107605820Y-206060498D01*
X107495506Y-206119463D01*
X107398815Y-206198815D01*
X107319463Y-206295506D01*
X107260498Y-206405820D01*
X107224188Y-206525518D01*
X107211928Y-206650000D01*
X69742617Y-206650000D01*
X69605309Y-205959710D01*
X69331295Y-205298182D01*
X68933489Y-204702823D01*
X68427177Y-204196511D01*
X67938519Y-203870000D01*
X68427177Y-203543489D01*
X68933489Y-203037177D01*
X69331295Y-202441818D01*
X69472629Y-202100608D01*
X69631507Y-202084960D01*
X69892581Y-202005764D01*
X70133188Y-201877157D01*
X70344081Y-201704081D01*
X70387454Y-201651231D01*
X72091241Y-199947445D01*
X72144080Y-199904081D01*
X72187445Y-199851241D01*
X72187452Y-199851234D01*
X72317156Y-199693189D01*
X72317157Y-199693188D01*
X72445764Y-199452581D01*
X72524960Y-199191507D01*
X72545000Y-198988037D01*
X72545000Y-198988028D01*
X72551700Y-198920001D01*
X72545000Y-198851974D01*
X72545000Y-187249430D01*
X72825000Y-187249430D01*
X72825000Y-189590570D01*
X73281734Y-191886726D01*
X74177650Y-194049658D01*
X75478318Y-195996246D01*
X77133754Y-197651682D01*
X79080342Y-198952350D01*
X81243274Y-199848266D01*
X83539430Y-200305000D01*
X85880570Y-200305000D01*
X88176726Y-199848266D01*
X90339658Y-198952350D01*
X92286246Y-197651682D01*
X93941682Y-195996246D01*
X95242350Y-194049658D01*
X96138266Y-191886726D01*
X96595000Y-189590570D01*
X96595000Y-187249430D01*
X96138266Y-184953274D01*
X95242350Y-182790342D01*
X93941682Y-180843754D01*
X92286246Y-179188318D01*
X90339658Y-177887650D01*
X88176726Y-176991734D01*
X85880570Y-176535000D01*
X83539430Y-176535000D01*
X81243274Y-176991734D01*
X79080342Y-177887650D01*
X77133754Y-179188318D01*
X75478318Y-180843754D01*
X74177650Y-182790342D01*
X73281734Y-184953274D01*
X72825000Y-187249430D01*
X72545000Y-187249430D01*
X72545000Y-174693685D01*
X73413686Y-173825000D01*
X86681971Y-173825000D01*
X86750000Y-173831700D01*
X86818029Y-173825000D01*
X86818037Y-173825000D01*
X87021507Y-173804960D01*
X87282581Y-173725764D01*
X87523188Y-173597157D01*
X87734081Y-173424081D01*
X87777454Y-173371231D01*
X87895799Y-173252886D01*
X87933788Y-173196031D01*
X87977156Y-173143187D01*
X88009380Y-173082900D01*
X88047371Y-173026043D01*
X88073538Y-172962870D01*
X88105764Y-172902580D01*
X88125610Y-172837158D01*
X88151775Y-172773989D01*
X88165114Y-172706931D01*
X88184960Y-172641507D01*
X88191661Y-172573472D01*
X88205000Y-172506411D01*
X88205000Y-172438029D01*
X88211700Y-172370000D01*
X88205000Y-172301971D01*
X88205000Y-172233589D01*
X88191661Y-172166528D01*
X88184960Y-172098493D01*
X88165114Y-172033069D01*
X88151775Y-171966011D01*
X88125610Y-171902842D01*
X88105764Y-171837420D01*
X88073537Y-171777129D01*
X88047371Y-171713957D01*
X88009382Y-171657103D01*
X87977156Y-171596812D01*
X87933786Y-171543965D01*
X87895799Y-171487114D01*
X87847453Y-171438768D01*
X87804081Y-171385919D01*
X87751232Y-171342547D01*
X87702886Y-171294201D01*
X87646035Y-171256214D01*
X87593188Y-171212844D01*
X87532897Y-171180618D01*
X87476043Y-171142629D01*
X87412871Y-171116463D01*
X87352580Y-171084236D01*
X87287158Y-171064390D01*
X87223989Y-171038225D01*
X87156931Y-171024886D01*
X87091507Y-171005040D01*
X87023472Y-170998339D01*
X86956411Y-170985000D01*
X86888029Y-170985000D01*
X86820000Y-170978300D01*
X86751971Y-170985000D01*
X86683589Y-170985000D01*
X86616528Y-170998339D01*
X86548493Y-171005040D01*
X86483069Y-171024886D01*
X86416011Y-171038225D01*
X86375512Y-171055000D01*
X72908029Y-171055000D01*
X72840000Y-171048300D01*
X72771971Y-171055000D01*
X72703589Y-171055000D01*
X72636530Y-171068339D01*
X72568493Y-171075040D01*
X72503068Y-171094886D01*
X72436011Y-171108225D01*
X72372845Y-171134389D01*
X72307419Y-171154236D01*
X72247123Y-171186465D01*
X72183957Y-171212629D01*
X72127110Y-171250613D01*
X72066812Y-171282843D01*
X72013959Y-171326218D01*
X71957114Y-171364201D01*
X71908772Y-171412543D01*
X71908766Y-171412548D01*
X71908764Y-171412550D01*
X71855919Y-171455919D01*
X71812550Y-171508764D01*
X70228764Y-173092551D01*
X70175920Y-173135919D01*
X70132551Y-173188764D01*
X70132548Y-173188767D01*
X70002844Y-173346812D01*
X69874236Y-173587420D01*
X69795040Y-173848493D01*
X69768300Y-174120000D01*
X69775001Y-174188039D01*
X69775000Y-198346314D01*
X69247917Y-198873398D01*
X68933489Y-198402823D01*
X68427177Y-197896511D01*
X67938519Y-197570000D01*
X68427177Y-197243489D01*
X68933489Y-196737177D01*
X69331295Y-196141818D01*
X69605309Y-195480290D01*
X69745000Y-194778016D01*
X69745000Y-194061984D01*
X69605309Y-193359710D01*
X69331295Y-192698182D01*
X68933489Y-192102823D01*
X68427177Y-191596511D01*
X67831818Y-191198705D01*
X67170290Y-190924691D01*
X66468016Y-190785000D01*
X65751984Y-190785000D01*
X65049710Y-190924691D01*
X64388182Y-191198705D01*
X63792823Y-191596511D01*
X63286511Y-192102823D01*
X62888705Y-192698182D01*
X62614691Y-193359710D01*
X62475000Y-194061984D01*
X61464366Y-194061984D01*
X61368452Y-171845000D01*
X66941971Y-171845000D01*
X67010000Y-171851700D01*
X67078029Y-171845000D01*
X67078037Y-171845000D01*
X67281507Y-171824960D01*
X67542581Y-171745764D01*
X67783188Y-171617157D01*
X67994081Y-171444081D01*
X68037454Y-171391231D01*
X69341241Y-170087445D01*
X69394080Y-170044081D01*
X69437445Y-169991241D01*
X69437452Y-169991234D01*
X69567156Y-169833189D01*
X69567158Y-169833187D01*
X69695764Y-169592581D01*
X69715122Y-169528766D01*
X69774960Y-169331508D01*
X69786356Y-169215799D01*
X69795000Y-169128037D01*
X69795000Y-169128029D01*
X69801700Y-169060000D01*
X69795000Y-168991971D01*
X69795000Y-165510000D01*
X95471928Y-165510000D01*
X95471928Y-166510000D01*
X95493796Y-166732027D01*
X95558559Y-166945521D01*
X95663728Y-167142279D01*
X95805262Y-167314738D01*
X95977721Y-167456272D01*
X96174479Y-167561441D01*
X96387973Y-167626204D01*
X96610000Y-167648072D01*
X102610000Y-167648072D01*
X102832027Y-167626204D01*
X103045521Y-167561441D01*
X103242279Y-167456272D01*
X103414738Y-167314738D01*
X103556272Y-167142279D01*
X103661441Y-166945521D01*
X103726204Y-166732027D01*
X103748072Y-166510000D01*
X103748072Y-165510000D01*
X103726204Y-165287973D01*
X103661441Y-165074479D01*
X103556272Y-164877721D01*
X103414738Y-164705262D01*
X103242279Y-164563728D01*
X103045521Y-164458559D01*
X102924095Y-164421725D01*
X102583927Y-164081557D01*
X102786301Y-163778684D01*
X102845266Y-163668369D01*
X103070323Y-163125033D01*
X103106633Y-163005335D01*
X103221366Y-162428532D01*
X103233626Y-162304051D01*
X103233626Y-161715949D01*
X103221366Y-161591468D01*
X103106633Y-161014665D01*
X103070323Y-160894967D01*
X102845266Y-160351631D01*
X102786301Y-160241316D01*
X102459568Y-159752326D01*
X102380216Y-159655635D01*
X101964365Y-159239784D01*
X101867674Y-159160432D01*
X101378684Y-158833699D01*
X101268369Y-158774734D01*
X100725033Y-158549677D01*
X100605335Y-158513367D01*
X100028532Y-158398634D01*
X99904051Y-158386374D01*
X99315949Y-158386374D01*
X99191468Y-158398634D01*
X98614665Y-158513367D01*
X98494967Y-158549677D01*
X97951631Y-158774734D01*
X97841316Y-158833699D01*
X97352326Y-159160432D01*
X97255635Y-159239784D01*
X96839784Y-159655635D01*
X96760432Y-159752326D01*
X96433699Y-160241316D01*
X96374734Y-160351631D01*
X96149677Y-160894967D01*
X96113367Y-161014665D01*
X95998634Y-161591468D01*
X95986374Y-161715949D01*
X95986374Y-162304051D01*
X95998634Y-162428532D01*
X96113367Y-163005335D01*
X96149677Y-163125033D01*
X96374734Y-163668369D01*
X96433699Y-163778684D01*
X96636073Y-164081557D01*
X96295905Y-164421725D01*
X96174479Y-164458559D01*
X95977721Y-164563728D01*
X95805262Y-164705262D01*
X95663728Y-164877721D01*
X95558559Y-165074479D01*
X95493796Y-165287973D01*
X95471928Y-165510000D01*
X69795000Y-165510000D01*
X69795000Y-155633685D01*
X70583686Y-154845000D01*
X106204816Y-154845000D01*
X106267752Y-165403446D01*
%TA.AperFunction,Conductor*%
D18*
G36*
X106267752Y-165403446D02*
G01*
X106251972Y-165405000D01*
X106251963Y-165405000D01*
X106048493Y-165425040D01*
X105787419Y-165504236D01*
X105546812Y-165632843D01*
X105501099Y-165670359D01*
X105388766Y-165762548D01*
X105388764Y-165762550D01*
X105335919Y-165805919D01*
X105292550Y-165858764D01*
X102336315Y-168815000D01*
X96823589Y-168815000D01*
X96756530Y-168828339D01*
X96688493Y-168835040D01*
X96623068Y-168854886D01*
X96556011Y-168868225D01*
X96492845Y-168894389D01*
X96427419Y-168914236D01*
X96367123Y-168946465D01*
X96303957Y-168972629D01*
X96247110Y-169010613D01*
X96186812Y-169042843D01*
X96133960Y-169086217D01*
X96077114Y-169124201D01*
X96028769Y-169172546D01*
X95975919Y-169215919D01*
X95932548Y-169268767D01*
X95884201Y-169317114D01*
X95846217Y-169373960D01*
X95802843Y-169426812D01*
X95770613Y-169487110D01*
X95732629Y-169543957D01*
X95706465Y-169607123D01*
X95674236Y-169667419D01*
X95654389Y-169732845D01*
X95628225Y-169796011D01*
X95614886Y-169863068D01*
X95595040Y-169928493D01*
X95588339Y-169996530D01*
X95575000Y-170063589D01*
X95575000Y-170131963D01*
X95568299Y-170200000D01*
X95575000Y-170268037D01*
X95575000Y-170336411D01*
X95588339Y-170403470D01*
X95595040Y-170471507D01*
X95614886Y-170536932D01*
X95628225Y-170603989D01*
X95654389Y-170667155D01*
X95674236Y-170732581D01*
X95706465Y-170792877D01*
X95732629Y-170856043D01*
X95770613Y-170912890D01*
X95802843Y-170973188D01*
X95846217Y-171026040D01*
X95884201Y-171082886D01*
X95932546Y-171131231D01*
X95975919Y-171184081D01*
X96028767Y-171227452D01*
X96077114Y-171275799D01*
X96133960Y-171313783D01*
X96186812Y-171357157D01*
X96247110Y-171389387D01*
X96303957Y-171427371D01*
X96367123Y-171453535D01*
X96427419Y-171485764D01*
X96492845Y-171505611D01*
X96556011Y-171531775D01*
X96623068Y-171545114D01*
X96688493Y-171564960D01*
X96756530Y-171571661D01*
X96823589Y-171585000D01*
X102841971Y-171585000D01*
X102910000Y-171591700D01*
X102978029Y-171585000D01*
X102978037Y-171585000D01*
X103181507Y-171564960D01*
X103442581Y-171485764D01*
X103683188Y-171357157D01*
X103894081Y-171184081D01*
X103937454Y-171131231D01*
X106287883Y-168780803D01*
X106373002Y-183060757D01*
X106375590Y-183085518D01*
X106382959Y-183109299D01*
X106394826Y-183131186D01*
X106410734Y-183150336D01*
X106430073Y-183166015D01*
X106452099Y-183177620D01*
X106475966Y-183184705D01*
X106498410Y-183186990D01*
X141525091Y-183625446D01*
X141995855Y-211628463D01*
X61541451Y-211917545D01*
X61464366Y-194061984D01*
X62475000Y-194061984D01*
X62475000Y-194778016D01*
X62614691Y-195480290D01*
X62888705Y-196141818D01*
X63286511Y-196737177D01*
X63792823Y-197243489D01*
X64281481Y-197570000D01*
X63792823Y-197896511D01*
X63286511Y-198402823D01*
X62888705Y-198998182D01*
X62614691Y-199659710D01*
X62475000Y-200361984D01*
X62475000Y-201078016D01*
X62614691Y-201780290D01*
X62888705Y-202441818D01*
X63286511Y-203037177D01*
X63792823Y-203543489D01*
X64281481Y-203870000D01*
X63792823Y-204196511D01*
X63286511Y-204702823D01*
X62888705Y-205298182D01*
X62614691Y-205959710D01*
X62475000Y-206661984D01*
X62475000Y-207378016D01*
X62614691Y-208080290D01*
X62888705Y-208741818D01*
X63286511Y-209337177D01*
X63792823Y-209843489D01*
X64388182Y-210241295D01*
X65049710Y-210515309D01*
X65751984Y-210655000D01*
X66468016Y-210655000D01*
X67170290Y-210515309D01*
X67831818Y-210241295D01*
X68427177Y-209843489D01*
X68933489Y-209337177D01*
X69331295Y-208741818D01*
X69369327Y-208650000D01*
X107211928Y-208650000D01*
X107224188Y-208774482D01*
X107260498Y-208894180D01*
X107319463Y-209004494D01*
X107398815Y-209101185D01*
X107495506Y-209180537D01*
X107605820Y-209239502D01*
X107725518Y-209275812D01*
X107850000Y-209288072D01*
X111064250Y-209285000D01*
X111223000Y-209126250D01*
X111223000Y-207777000D01*
X111477000Y-207777000D01*
X111477000Y-209126250D01*
X111635750Y-209285000D01*
X114850000Y-209288072D01*
X114974482Y-209275812D01*
X115094180Y-209239502D01*
X115204494Y-209180537D01*
X115301185Y-209101185D01*
X115380537Y-209004494D01*
X115439502Y-208894180D01*
X115475812Y-208774482D01*
X115488072Y-208650000D01*
X115488029Y-208640000D01*
X130681928Y-208640000D01*
X130694188Y-208764482D01*
X130730498Y-208884180D01*
X130789463Y-208994494D01*
X130868815Y-209091185D01*
X130965506Y-209170537D01*
X131075820Y-209229502D01*
X131195518Y-209265812D01*
X131320000Y-209278072D01*
X134534250Y-209275000D01*
X134693000Y-209116250D01*
X134693000Y-207767000D01*
X134947000Y-207767000D01*
X134947000Y-209116250D01*
X135105750Y-209275000D01*
X138320000Y-209278072D01*
X138444482Y-209265812D01*
X138564180Y-209229502D01*
X138674494Y-209170537D01*
X138771185Y-209091185D01*
X138850537Y-208994494D01*
X138909502Y-208884180D01*
X138945812Y-208764482D01*
X138958072Y-208640000D01*
X138955000Y-207925750D01*
X138796250Y-207767000D01*
X134947000Y-207767000D01*
X134693000Y-207767000D01*
X130843750Y-207767000D01*
X130685000Y-207925750D01*
X130681928Y-208640000D01*
X115488029Y-208640000D01*
X115485000Y-207935750D01*
X115326250Y-207777000D01*
X111477000Y-207777000D01*
X111223000Y-207777000D01*
X107373750Y-207777000D01*
X107215000Y-207935750D01*
X107211928Y-208650000D01*
X69369327Y-208650000D01*
X69605309Y-208080290D01*
X69745000Y-207378016D01*
X69745000Y-206661984D01*
X69742617Y-206650000D01*
X107211928Y-206650000D01*
X107215000Y-207364250D01*
X107373750Y-207523000D01*
X111223000Y-207523000D01*
X111223000Y-207503000D01*
X111477000Y-207503000D01*
X111477000Y-207523000D01*
X115326250Y-207523000D01*
X115485000Y-207364250D01*
X115488072Y-206650000D01*
X115487088Y-206640000D01*
X130681928Y-206640000D01*
X130685000Y-207354250D01*
X130843750Y-207513000D01*
X134693000Y-207513000D01*
X134693000Y-207493000D01*
X134947000Y-207493000D01*
X134947000Y-207513000D01*
X138796250Y-207513000D01*
X138955000Y-207354250D01*
X138958072Y-206640000D01*
X138945812Y-206515518D01*
X138909502Y-206395820D01*
X138850537Y-206285506D01*
X138771185Y-206188815D01*
X138674494Y-206109463D01*
X138564180Y-206050498D01*
X138444482Y-206014188D01*
X138320000Y-206001928D01*
X138084523Y-206002153D01*
X137793927Y-205711557D01*
X137996301Y-205408684D01*
X138055266Y-205298369D01*
X138280323Y-204755033D01*
X138316633Y-204635335D01*
X138431366Y-204058532D01*
X138443626Y-203934051D01*
X138443626Y-203345949D01*
X138431366Y-203221468D01*
X138316633Y-202644665D01*
X138280323Y-202524967D01*
X138055266Y-201981631D01*
X137996301Y-201871316D01*
X137669568Y-201382326D01*
X137590216Y-201285635D01*
X137174365Y-200869784D01*
X137077674Y-200790432D01*
X136588684Y-200463699D01*
X136478369Y-200404734D01*
X135935033Y-200179677D01*
X135815335Y-200143367D01*
X135238532Y-200028634D01*
X135114051Y-200016374D01*
X134525949Y-200016374D01*
X134401468Y-200028634D01*
X133824665Y-200143367D01*
X133704967Y-200179677D01*
X133161631Y-200404734D01*
X133051316Y-200463699D01*
X132562326Y-200790432D01*
X132465635Y-200869784D01*
X132049784Y-201285635D01*
X131970432Y-201382326D01*
X131643699Y-201871316D01*
X131584734Y-201981631D01*
X131359677Y-202524967D01*
X131323367Y-202644665D01*
X131208634Y-203221468D01*
X131196374Y-203345949D01*
X131196374Y-203934051D01*
X131208634Y-204058532D01*
X131323367Y-204635335D01*
X131359677Y-204755033D01*
X131584734Y-205298369D01*
X131643699Y-205408684D01*
X131846073Y-205711557D01*
X131555477Y-206002153D01*
X131320000Y-206001928D01*
X131195518Y-206014188D01*
X131075820Y-206050498D01*
X130965506Y-206109463D01*
X130868815Y-206188815D01*
X130789463Y-206285506D01*
X130730498Y-206395820D01*
X130694188Y-206515518D01*
X130681928Y-206640000D01*
X115487088Y-206640000D01*
X115475812Y-206525518D01*
X115439502Y-206405820D01*
X115380537Y-206295506D01*
X115301185Y-206198815D01*
X115204494Y-206119463D01*
X115094180Y-206060498D01*
X114974482Y-206024188D01*
X114850000Y-206011928D01*
X114614523Y-206012153D01*
X114323927Y-205721557D01*
X114526301Y-205418684D01*
X114585266Y-205308369D01*
X114810323Y-204765033D01*
X114846633Y-204645335D01*
X114961366Y-204068532D01*
X114973626Y-203944051D01*
X114973626Y-203355949D01*
X114961366Y-203231468D01*
X114846633Y-202654665D01*
X114810323Y-202534967D01*
X114585266Y-201991631D01*
X114526301Y-201881316D01*
X114199568Y-201392326D01*
X114120216Y-201295635D01*
X113704365Y-200879784D01*
X113607674Y-200800432D01*
X113118684Y-200473699D01*
X113008369Y-200414734D01*
X112465033Y-200189677D01*
X112345335Y-200153367D01*
X111768532Y-200038634D01*
X111644051Y-200026374D01*
X111055949Y-200026374D01*
X110931468Y-200038634D01*
X110354665Y-200153367D01*
X110234967Y-200189677D01*
X109691631Y-200414734D01*
X109581316Y-200473699D01*
X109092326Y-200800432D01*
X108995635Y-200879784D01*
X108579784Y-201295635D01*
X108500432Y-201392326D01*
X108173699Y-201881316D01*
X108114734Y-201991631D01*
X107889677Y-202534967D01*
X107853367Y-202654665D01*
X107738634Y-203231468D01*
X107726374Y-203355949D01*
X107726374Y-203944051D01*
X107738634Y-204068532D01*
X107853367Y-204645335D01*
X107889677Y-204765033D01*
X108114734Y-205308369D01*
X108173699Y-205418684D01*
X108376073Y-205721557D01*
X108085477Y-206012153D01*
X107850000Y-206011928D01*
X107725518Y-206024188D01*
X107605820Y-206060498D01*
X107495506Y-206119463D01*
X107398815Y-206198815D01*
X107319463Y-206295506D01*
X107260498Y-206405820D01*
X107224188Y-206525518D01*
X107211928Y-206650000D01*
X69742617Y-206650000D01*
X69605309Y-205959710D01*
X69331295Y-205298182D01*
X68933489Y-204702823D01*
X68427177Y-204196511D01*
X67938519Y-203870000D01*
X68427177Y-203543489D01*
X68933489Y-203037177D01*
X69331295Y-202441818D01*
X69472629Y-202100608D01*
X69631507Y-202084960D01*
X69892581Y-202005764D01*
X70133188Y-201877157D01*
X70344081Y-201704081D01*
X70387454Y-201651231D01*
X72091241Y-199947445D01*
X72144080Y-199904081D01*
X72187445Y-199851241D01*
X72187452Y-199851234D01*
X72317156Y-199693189D01*
X72317157Y-199693188D01*
X72445764Y-199452581D01*
X72524960Y-199191507D01*
X72545000Y-198988037D01*
X72545000Y-198988028D01*
X72551700Y-198920001D01*
X72545000Y-198851974D01*
X72545000Y-187249430D01*
X72825000Y-187249430D01*
X72825000Y-189590570D01*
X73281734Y-191886726D01*
X74177650Y-194049658D01*
X75478318Y-195996246D01*
X77133754Y-197651682D01*
X79080342Y-198952350D01*
X81243274Y-199848266D01*
X83539430Y-200305000D01*
X85880570Y-200305000D01*
X88176726Y-199848266D01*
X90339658Y-198952350D01*
X92286246Y-197651682D01*
X93941682Y-195996246D01*
X95242350Y-194049658D01*
X96138266Y-191886726D01*
X96595000Y-189590570D01*
X96595000Y-187249430D01*
X96138266Y-184953274D01*
X95242350Y-182790342D01*
X93941682Y-180843754D01*
X92286246Y-179188318D01*
X90339658Y-177887650D01*
X88176726Y-176991734D01*
X85880570Y-176535000D01*
X83539430Y-176535000D01*
X81243274Y-176991734D01*
X79080342Y-177887650D01*
X77133754Y-179188318D01*
X75478318Y-180843754D01*
X74177650Y-182790342D01*
X73281734Y-184953274D01*
X72825000Y-187249430D01*
X72545000Y-187249430D01*
X72545000Y-174693685D01*
X73413686Y-173825000D01*
X86681971Y-173825000D01*
X86750000Y-173831700D01*
X86818029Y-173825000D01*
X86818037Y-173825000D01*
X87021507Y-173804960D01*
X87282581Y-173725764D01*
X87523188Y-173597157D01*
X87734081Y-173424081D01*
X87777454Y-173371231D01*
X87895799Y-173252886D01*
X87933788Y-173196031D01*
X87977156Y-173143187D01*
X88009380Y-173082900D01*
X88047371Y-173026043D01*
X88073538Y-172962870D01*
X88105764Y-172902580D01*
X88125610Y-172837158D01*
X88151775Y-172773989D01*
X88165114Y-172706931D01*
X88184960Y-172641507D01*
X88191661Y-172573472D01*
X88205000Y-172506411D01*
X88205000Y-172438029D01*
X88211700Y-172370000D01*
X88205000Y-172301971D01*
X88205000Y-172233589D01*
X88191661Y-172166528D01*
X88184960Y-172098493D01*
X88165114Y-172033069D01*
X88151775Y-171966011D01*
X88125610Y-171902842D01*
X88105764Y-171837420D01*
X88073537Y-171777129D01*
X88047371Y-171713957D01*
X88009382Y-171657103D01*
X87977156Y-171596812D01*
X87933786Y-171543965D01*
X87895799Y-171487114D01*
X87847453Y-171438768D01*
X87804081Y-171385919D01*
X87751232Y-171342547D01*
X87702886Y-171294201D01*
X87646035Y-171256214D01*
X87593188Y-171212844D01*
X87532897Y-171180618D01*
X87476043Y-171142629D01*
X87412871Y-171116463D01*
X87352580Y-171084236D01*
X87287158Y-171064390D01*
X87223989Y-171038225D01*
X87156931Y-171024886D01*
X87091507Y-171005040D01*
X87023472Y-170998339D01*
X86956411Y-170985000D01*
X86888029Y-170985000D01*
X86820000Y-170978300D01*
X86751971Y-170985000D01*
X86683589Y-170985000D01*
X86616528Y-170998339D01*
X86548493Y-171005040D01*
X86483069Y-171024886D01*
X86416011Y-171038225D01*
X86375512Y-171055000D01*
X72908029Y-171055000D01*
X72840000Y-171048300D01*
X72771971Y-171055000D01*
X72703589Y-171055000D01*
X72636530Y-171068339D01*
X72568493Y-171075040D01*
X72503068Y-171094886D01*
X72436011Y-171108225D01*
X72372845Y-171134389D01*
X72307419Y-171154236D01*
X72247123Y-171186465D01*
X72183957Y-171212629D01*
X72127110Y-171250613D01*
X72066812Y-171282843D01*
X72013959Y-171326218D01*
X71957114Y-171364201D01*
X71908772Y-171412543D01*
X71908766Y-171412548D01*
X71908764Y-171412550D01*
X71855919Y-171455919D01*
X71812550Y-171508764D01*
X70228764Y-173092551D01*
X70175920Y-173135919D01*
X70132551Y-173188764D01*
X70132548Y-173188767D01*
X70002844Y-173346812D01*
X69874236Y-173587420D01*
X69795040Y-173848493D01*
X69768300Y-174120000D01*
X69775001Y-174188039D01*
X69775000Y-198346314D01*
X69247917Y-198873398D01*
X68933489Y-198402823D01*
X68427177Y-197896511D01*
X67938519Y-197570000D01*
X68427177Y-197243489D01*
X68933489Y-196737177D01*
X69331295Y-196141818D01*
X69605309Y-195480290D01*
X69745000Y-194778016D01*
X69745000Y-194061984D01*
X69605309Y-193359710D01*
X69331295Y-192698182D01*
X68933489Y-192102823D01*
X68427177Y-191596511D01*
X67831818Y-191198705D01*
X67170290Y-190924691D01*
X66468016Y-190785000D01*
X65751984Y-190785000D01*
X65049710Y-190924691D01*
X64388182Y-191198705D01*
X63792823Y-191596511D01*
X63286511Y-192102823D01*
X62888705Y-192698182D01*
X62614691Y-193359710D01*
X62475000Y-194061984D01*
X61464366Y-194061984D01*
X61368452Y-171845000D01*
X66941971Y-171845000D01*
X67010000Y-171851700D01*
X67078029Y-171845000D01*
X67078037Y-171845000D01*
X67281507Y-171824960D01*
X67542581Y-171745764D01*
X67783188Y-171617157D01*
X67994081Y-171444081D01*
X68037454Y-171391231D01*
X69341241Y-170087445D01*
X69394080Y-170044081D01*
X69437445Y-169991241D01*
X69437452Y-169991234D01*
X69567156Y-169833189D01*
X69567158Y-169833187D01*
X69695764Y-169592581D01*
X69715122Y-169528766D01*
X69774960Y-169331508D01*
X69786356Y-169215799D01*
X69795000Y-169128037D01*
X69795000Y-169128029D01*
X69801700Y-169060000D01*
X69795000Y-168991971D01*
X69795000Y-165510000D01*
X95471928Y-165510000D01*
X95471928Y-166510000D01*
X95493796Y-166732027D01*
X95558559Y-166945521D01*
X95663728Y-167142279D01*
X95805262Y-167314738D01*
X95977721Y-167456272D01*
X96174479Y-167561441D01*
X96387973Y-167626204D01*
X96610000Y-167648072D01*
X102610000Y-167648072D01*
X102832027Y-167626204D01*
X103045521Y-167561441D01*
X103242279Y-167456272D01*
X103414738Y-167314738D01*
X103556272Y-167142279D01*
X103661441Y-166945521D01*
X103726204Y-166732027D01*
X103748072Y-166510000D01*
X103748072Y-165510000D01*
X103726204Y-165287973D01*
X103661441Y-165074479D01*
X103556272Y-164877721D01*
X103414738Y-164705262D01*
X103242279Y-164563728D01*
X103045521Y-164458559D01*
X102924095Y-164421725D01*
X102583927Y-164081557D01*
X102786301Y-163778684D01*
X102845266Y-163668369D01*
X103070323Y-163125033D01*
X103106633Y-163005335D01*
X103221366Y-162428532D01*
X103233626Y-162304051D01*
X103233626Y-161715949D01*
X103221366Y-161591468D01*
X103106633Y-161014665D01*
X103070323Y-160894967D01*
X102845266Y-160351631D01*
X102786301Y-160241316D01*
X102459568Y-159752326D01*
X102380216Y-159655635D01*
X101964365Y-159239784D01*
X101867674Y-159160432D01*
X101378684Y-158833699D01*
X101268369Y-158774734D01*
X100725033Y-158549677D01*
X100605335Y-158513367D01*
X100028532Y-158398634D01*
X99904051Y-158386374D01*
X99315949Y-158386374D01*
X99191468Y-158398634D01*
X98614665Y-158513367D01*
X98494967Y-158549677D01*
X97951631Y-158774734D01*
X97841316Y-158833699D01*
X97352326Y-159160432D01*
X97255635Y-159239784D01*
X96839784Y-159655635D01*
X96760432Y-159752326D01*
X96433699Y-160241316D01*
X96374734Y-160351631D01*
X96149677Y-160894967D01*
X96113367Y-161014665D01*
X95998634Y-161591468D01*
X95986374Y-161715949D01*
X95986374Y-162304051D01*
X95998634Y-162428532D01*
X96113367Y-163005335D01*
X96149677Y-163125033D01*
X96374734Y-163668369D01*
X96433699Y-163778684D01*
X96636073Y-164081557D01*
X96295905Y-164421725D01*
X96174479Y-164458559D01*
X95977721Y-164563728D01*
X95805262Y-164705262D01*
X95663728Y-164877721D01*
X95558559Y-165074479D01*
X95493796Y-165287973D01*
X95471928Y-165510000D01*
X69795000Y-165510000D01*
X69795000Y-155633685D01*
X70583686Y-154845000D01*
X106204816Y-154845000D01*
X106267752Y-165403446D01*
G37*
%TD.AperFunction*%
%TD*%
M02*
