%TF.GenerationSoftware,KiCad,Pcbnew,(5.1.9)-1*%
%TF.CreationDate,2021-09-09T23:53:41+02:00*%
%TF.ProjectId,SwitchBox,53776974-6368-4426-9f78-2e6b69636164,rev?*%
%TF.SameCoordinates,Original*%
%TF.FileFunction,Legend,Top*%
%TF.FilePolarity,Positive*%
%FSLAX46Y46*%
G04 Gerber Fmt 4.6, Leading zero omitted, Abs format (unit mm)*
G04 Created by KiCad (PCBNEW (5.1.9)-1) date 2021-09-09 23:53:41*
%MOMM*%
%LPD*%
G01*
G04 APERTURE LIST*
%ADD10C,0.120000*%
%ADD11C,0.150000*%
%ADD12C,0.200000*%
%ADD13C,0.400000*%
G04 APERTURE END LIST*
D10*
X111350000Y-183430000D02*
X111350000Y-168430000D01*
X134820000Y-193790000D02*
X134820000Y-208790000D01*
X131090000Y-181970000D02*
X134820000Y-193790000D01*
X111350000Y-193790000D02*
X111350000Y-208790000D01*
X111350000Y-183430000D02*
X106350000Y-183430000D01*
X134820000Y-183430000D02*
X134820000Y-168430000D01*
X134820000Y-183430000D02*
X129820000Y-183430000D01*
X123080000Y-152160000D02*
X119350000Y-140340000D01*
X99610000Y-142160000D02*
X99610000Y-127160000D01*
X123080000Y-152160000D02*
X123080000Y-167160000D01*
X123080000Y-142160000D02*
X123080000Y-127160000D01*
X123080000Y-142160000D02*
X118080000Y-142160000D01*
X99610000Y-152160000D02*
X99610000Y-167160000D01*
X99610000Y-142160000D02*
X94610000Y-142160000D01*
X131090000Y-99090000D02*
X134820000Y-110910000D01*
X111350000Y-100550000D02*
X111350000Y-85550000D01*
X134820000Y-110910000D02*
X134820000Y-125910000D01*
X134820000Y-100550000D02*
X134820000Y-85550000D01*
X134820000Y-100550000D02*
X129820000Y-100550000D01*
X111350000Y-110910000D02*
X111350000Y-125910000D01*
X111350000Y-100550000D02*
X106350000Y-100550000D01*
X123080000Y-69650000D02*
X119350000Y-57830000D01*
X123080000Y-59650000D02*
X123080000Y-44650000D01*
X123080000Y-69650000D02*
X123080000Y-84650000D01*
X123080000Y-59650000D02*
X118080000Y-59650000D01*
X99610000Y-59650000D02*
X94610000Y-59650000D01*
X99610000Y-59650000D02*
X99610000Y-44650000D01*
X99610000Y-69650000D02*
X99610000Y-84650000D01*
X130460000Y-188420000D02*
X131460000Y-188420000D01*
X138460000Y-188420000D02*
X139460000Y-188420000D01*
X106460000Y-188420000D02*
X107460000Y-188420000D01*
X134460000Y-188420000D02*
X135460000Y-188420000D01*
X99460000Y-188420000D02*
X98460000Y-188420000D01*
X103460000Y-188420000D02*
X102460000Y-188420000D01*
X108460000Y-188420000D02*
X109460000Y-188420000D01*
X136460000Y-188420000D02*
X137460000Y-188420000D01*
X110460000Y-188420000D02*
X111460000Y-188420000D01*
X122460000Y-188420000D02*
X123460000Y-188420000D01*
X126460000Y-188420000D02*
X127460000Y-188420000D01*
X134320000Y-188420000D02*
X135320000Y-188420000D01*
X142460000Y-188420000D02*
X143460000Y-188420000D01*
X120460000Y-188420000D02*
X121460000Y-188420000D01*
X112460000Y-188420000D02*
X113460000Y-188420000D01*
X114460000Y-188420000D02*
X115460000Y-188420000D01*
X101460000Y-188420000D02*
X100460000Y-188420000D01*
X118460000Y-188420000D02*
X119460000Y-188420000D01*
X116460000Y-188420000D02*
X117460000Y-188420000D01*
X128460000Y-188420000D02*
X129460000Y-188420000D01*
X104460000Y-188420000D02*
X105460000Y-188420000D01*
X97460000Y-188420000D02*
X96460000Y-188420000D01*
X124460000Y-188420000D02*
X125460000Y-188420000D01*
X144460000Y-188420000D02*
X145460000Y-188420000D01*
X132460000Y-188420000D02*
X133460000Y-188420000D01*
X72370000Y-147163332D02*
X71370000Y-147163332D01*
X70370000Y-147163332D02*
X69370000Y-147163332D01*
X137370000Y-147163332D02*
X138370000Y-147163332D01*
X149370000Y-147163332D02*
X150370000Y-147163332D01*
X139370000Y-147163332D02*
X140370000Y-147163332D01*
X117370000Y-147163332D02*
X118370000Y-147163332D01*
X121370000Y-147163332D02*
X122370000Y-147163332D01*
X119370000Y-147163332D02*
X120370000Y-147163332D01*
X103370000Y-147163332D02*
X104370000Y-147163332D01*
X133370000Y-147163332D02*
X134370000Y-147163332D01*
X129370000Y-147163332D02*
X130370000Y-147163332D01*
X147370000Y-147163332D02*
X148370000Y-147163332D01*
X143370000Y-147163332D02*
X144370000Y-147163332D01*
X105370000Y-147163332D02*
X106370000Y-147163332D01*
X125370000Y-147163332D02*
X126370000Y-147163332D01*
X111370000Y-147163332D02*
X112370000Y-147163332D01*
X141370000Y-147163332D02*
X142370000Y-147163332D01*
X115370000Y-147163332D02*
X116370000Y-147163332D01*
X131370000Y-147163332D02*
X132370000Y-147163332D01*
X68370000Y-147163332D02*
X67370000Y-147163332D01*
X145370000Y-147163332D02*
X146370000Y-147163332D01*
X123370000Y-147163332D02*
X124370000Y-147163332D01*
X109370000Y-147163332D02*
X110370000Y-147163332D01*
X135370000Y-147163332D02*
X136370000Y-147163332D01*
X127370000Y-147163332D02*
X128370000Y-147163332D01*
X97370000Y-147163332D02*
X98370000Y-147163332D01*
X66370000Y-147163332D02*
X65370000Y-147163332D01*
X113370000Y-147163332D02*
X114370000Y-147163332D01*
X107370000Y-147163332D02*
X108370000Y-147163332D01*
X81370000Y-147163332D02*
X82370000Y-147163332D01*
X87370000Y-147163332D02*
X88370000Y-147163332D01*
X73370000Y-147163332D02*
X74370000Y-147163332D01*
X85370000Y-147163332D02*
X86370000Y-147163332D01*
X91370000Y-147163332D02*
X92370000Y-147163332D01*
X89370000Y-147163332D02*
X90370000Y-147163332D01*
X93370000Y-147163332D02*
X94370000Y-147163332D01*
X79370000Y-147163332D02*
X80370000Y-147163332D01*
X75370000Y-147163332D02*
X76370000Y-147163332D01*
X101370000Y-147163332D02*
X102370000Y-147163332D01*
X95370000Y-147163332D02*
X96370000Y-147163332D01*
X77370000Y-147163332D02*
X78370000Y-147163332D01*
X83370000Y-147163332D02*
X84370000Y-147163332D01*
X99370000Y-147163332D02*
X100370000Y-147163332D01*
X104340000Y-105906666D02*
X103340000Y-105906666D01*
X102340000Y-105906666D02*
X101340000Y-105906666D01*
X135340000Y-105906666D02*
X136340000Y-105906666D01*
X137340000Y-105906666D02*
X138340000Y-105906666D01*
X143340000Y-105906666D02*
X144340000Y-105906666D01*
X100340000Y-105906666D02*
X99340000Y-105906666D01*
X141340000Y-105906666D02*
X142340000Y-105906666D01*
X129340000Y-105906666D02*
X130340000Y-105906666D01*
X98340000Y-105906666D02*
X97340000Y-105906666D01*
X145340000Y-105906666D02*
X146340000Y-105906666D01*
X139340000Y-105906666D02*
X140340000Y-105906666D01*
X113340000Y-105906666D02*
X114340000Y-105906666D01*
X119340000Y-105906666D02*
X120340000Y-105906666D01*
X105340000Y-105906666D02*
X106340000Y-105906666D01*
X117340000Y-105906666D02*
X118340000Y-105906666D01*
X123340000Y-105906666D02*
X124340000Y-105906666D01*
X121340000Y-105906666D02*
X122340000Y-105906666D01*
X125340000Y-105906666D02*
X126340000Y-105906666D01*
X111340000Y-105906666D02*
X112340000Y-105906666D01*
X107340000Y-105906666D02*
X108340000Y-105906666D01*
X133340000Y-105906666D02*
X134340000Y-105906666D01*
X127340000Y-105906666D02*
X128340000Y-105906666D01*
X109340000Y-105906666D02*
X110340000Y-105906666D01*
X115340000Y-105906666D02*
X116340000Y-105906666D01*
X131340000Y-105906666D02*
X132340000Y-105906666D01*
X72330000Y-64650000D02*
X71330000Y-64650000D01*
X66330000Y-64650000D02*
X65330000Y-64650000D01*
X70330000Y-64650000D02*
X69330000Y-64650000D01*
X68330000Y-64650000D02*
X67330000Y-64650000D01*
X137330000Y-64650000D02*
X138330000Y-64650000D01*
X149330000Y-64650000D02*
X150330000Y-64650000D01*
X145330000Y-64650000D02*
X146330000Y-64650000D01*
X141330000Y-64650000D02*
X142330000Y-64650000D01*
X147330000Y-64650000D02*
X148330000Y-64650000D01*
X139330000Y-64650000D02*
X140330000Y-64650000D01*
X143330000Y-64650000D02*
X144330000Y-64650000D01*
X129330000Y-64650000D02*
X130330000Y-64650000D01*
X113330000Y-64650000D02*
X114330000Y-64650000D01*
X119330000Y-64650000D02*
X120330000Y-64650000D01*
X105330000Y-64650000D02*
X106330000Y-64650000D01*
X103330000Y-64650000D02*
X104330000Y-64650000D01*
X117330000Y-64650000D02*
X118330000Y-64650000D01*
X135330000Y-64650000D02*
X136330000Y-64650000D01*
X123330000Y-64650000D02*
X124330000Y-64650000D01*
X121330000Y-64650000D02*
X122330000Y-64650000D01*
X125330000Y-64650000D02*
X126330000Y-64650000D01*
X111330000Y-64650000D02*
X112330000Y-64650000D01*
X107330000Y-64650000D02*
X108330000Y-64650000D01*
X133330000Y-64650000D02*
X134330000Y-64650000D01*
X127330000Y-64650000D02*
X128330000Y-64650000D01*
X109330000Y-64650000D02*
X110330000Y-64650000D01*
X115330000Y-64650000D02*
X116330000Y-64650000D01*
X131330000Y-64650000D02*
X132330000Y-64650000D01*
X87330000Y-64650000D02*
X88330000Y-64650000D01*
X97330000Y-64650000D02*
X98330000Y-64650000D01*
X89330000Y-64650000D02*
X90330000Y-64650000D01*
X101330000Y-64650000D02*
X102330000Y-64650000D01*
X95330000Y-64650000D02*
X96330000Y-64650000D01*
X91330000Y-64650000D02*
X92330000Y-64650000D01*
X93330000Y-64650000D02*
X94330000Y-64650000D01*
X99330000Y-64650000D02*
X100330000Y-64650000D01*
X81330000Y-64650000D02*
X82330000Y-64650000D01*
X79330000Y-64650000D02*
X80330000Y-64650000D01*
X83330000Y-64650000D02*
X84330000Y-64650000D01*
X85330000Y-64650000D02*
X86330000Y-64650000D01*
X77330000Y-64650000D02*
X78330000Y-64650000D01*
X75330000Y-64650000D02*
X76330000Y-64650000D01*
X73330000Y-64650000D02*
X74330000Y-64650000D01*
%TO.C,C1*%
X96635000Y-63938748D02*
X96635000Y-65361252D01*
X94815000Y-63938748D02*
X94815000Y-65361252D01*
%TO.C,C2*%
X108375000Y-105195414D02*
X108375000Y-106617918D01*
X106555000Y-105195414D02*
X106555000Y-106617918D01*
%TO.C,C3*%
X94815000Y-146452080D02*
X94815000Y-147874584D01*
X96635000Y-146452080D02*
X96635000Y-147874584D01*
%TO.C,C4*%
X108375000Y-187708748D02*
X108375000Y-189131252D01*
X106555000Y-187708748D02*
X106555000Y-189131252D01*
%TO.C,C5*%
X118285000Y-64018748D02*
X118285000Y-65441252D01*
X120105000Y-64018748D02*
X120105000Y-65441252D01*
%TO.C,C6*%
X131845000Y-105195414D02*
X131845000Y-106617918D01*
X130025000Y-105195414D02*
X130025000Y-106617918D01*
%TO.C,C7*%
X118285000Y-146452080D02*
X118285000Y-147874584D01*
X120105000Y-146452080D02*
X120105000Y-147874584D01*
%TO.C,C8*%
X130025000Y-187708748D02*
X130025000Y-189131252D01*
X131845000Y-187708748D02*
X131845000Y-189131252D01*
%TO.C,D1*%
X38250000Y-91660000D02*
X40800000Y-91660000D01*
X38250000Y-93360000D02*
X40800000Y-93360000D01*
X38250000Y-91660000D02*
X38250000Y-93360000D01*
%TO.C,D2*%
X69250000Y-132530000D02*
X69250000Y-134230000D01*
X69250000Y-134230000D02*
X71800000Y-134230000D01*
X69250000Y-132530000D02*
X71800000Y-132530000D01*
%TO.C,D3*%
X40240000Y-174210000D02*
X40240000Y-175910000D01*
X40240000Y-175910000D02*
X42790000Y-175910000D01*
X40240000Y-174210000D02*
X42790000Y-174210000D01*
%TO.C,D4*%
X94320000Y-170750000D02*
X91770000Y-170750000D01*
X94320000Y-169050000D02*
X91770000Y-169050000D01*
X94320000Y-170750000D02*
X94320000Y-169050000D01*
%TO.C,D5*%
X55573811Y-91920000D02*
X55573811Y-93620000D01*
X55573811Y-93620000D02*
X58123811Y-93620000D01*
X55573811Y-91920000D02*
X58123811Y-91920000D01*
%TO.C,D6*%
X83070000Y-132530000D02*
X83070000Y-134230000D01*
X83070000Y-134230000D02*
X85620000Y-134230000D01*
X83070000Y-132530000D02*
X85620000Y-132530000D01*
%TO.C,D7*%
X58060000Y-174210000D02*
X60610000Y-174210000D01*
X58060000Y-175910000D02*
X60610000Y-175910000D01*
X58060000Y-174210000D02*
X58060000Y-175910000D01*
%TO.C,D8*%
X80500000Y-170750000D02*
X77950000Y-170750000D01*
X80500000Y-169050000D02*
X77950000Y-169050000D01*
X80500000Y-170750000D02*
X80500000Y-169050000D01*
%TO.C,D9*%
X176190000Y-64650000D02*
G75*
G03*
X176190000Y-64650000I-15000000J0D01*
G01*
%TO.C,D10*%
X176190000Y-105906666D02*
G75*
G03*
X176190000Y-105906666I-15000000J0D01*
G01*
%TO.C,D11*%
X176230000Y-147163332D02*
G75*
G03*
X176230000Y-147163332I-15000000J0D01*
G01*
%TO.C,D12*%
X176250000Y-188420000D02*
G75*
G03*
X176250000Y-188420000I-15000000J0D01*
G01*
%TO.C,F1*%
X48510000Y-93543752D02*
X48510000Y-89136248D01*
X43170000Y-93543752D02*
X43170000Y-89136248D01*
%TO.C,F2*%
X74270000Y-134463752D02*
X74270000Y-130056248D01*
X79610000Y-134463752D02*
X79610000Y-130056248D01*
%TO.C,F3*%
X45260000Y-176023752D02*
X45260000Y-171616248D01*
X50600000Y-176023752D02*
X50600000Y-171616248D01*
%TO.C,F4*%
X89300000Y-168896248D02*
X89300000Y-173303752D01*
X83960000Y-168896248D02*
X83960000Y-173303752D01*
%TO.C,F5*%
X60570000Y-93863752D02*
X60570000Y-89456248D01*
X65910000Y-93863752D02*
X65910000Y-89456248D01*
%TO.C,F6*%
X93410000Y-134463752D02*
X93410000Y-130056248D01*
X88070000Y-134463752D02*
X88070000Y-130056248D01*
%TO.C,F7*%
X68400000Y-176023752D02*
X68400000Y-171616248D01*
X63060000Y-176023752D02*
X63060000Y-171616248D01*
%TO.C,F8*%
X70160000Y-168896248D02*
X70160000Y-173303752D01*
X75500000Y-168896248D02*
X75500000Y-173303752D01*
%TO.C,Q1*%
X45100000Y-100720000D02*
X45100000Y-99220000D01*
X45100000Y-99220000D02*
X44830000Y-99220000D01*
X44830000Y-99220000D02*
X44830000Y-96390000D01*
X38200000Y-100720000D02*
X38200000Y-99220000D01*
X38200000Y-99220000D02*
X38470000Y-99220000D01*
X38470000Y-99220000D02*
X38470000Y-98120000D01*
%TO.C,Q2*%
X69470000Y-140160000D02*
X69470000Y-139060000D01*
X69200000Y-140160000D02*
X69470000Y-140160000D01*
X69200000Y-141660000D02*
X69200000Y-140160000D01*
X75830000Y-140160000D02*
X75830000Y-137330000D01*
X76100000Y-140160000D02*
X75830000Y-140160000D01*
X76100000Y-141660000D02*
X76100000Y-140160000D01*
%TO.C,Q3*%
X47090000Y-183150000D02*
X47090000Y-181650000D01*
X47090000Y-181650000D02*
X46820000Y-181650000D01*
X46820000Y-181650000D02*
X46820000Y-178820000D01*
X40190000Y-183150000D02*
X40190000Y-181650000D01*
X40190000Y-181650000D02*
X40460000Y-181650000D01*
X40460000Y-181650000D02*
X40460000Y-180550000D01*
%TO.C,Q4*%
X87470000Y-161730000D02*
X87470000Y-163230000D01*
X87470000Y-163230000D02*
X87740000Y-163230000D01*
X87740000Y-163230000D02*
X87740000Y-166060000D01*
X94370000Y-161730000D02*
X94370000Y-163230000D01*
X94370000Y-163230000D02*
X94100000Y-163230000D01*
X94100000Y-163230000D02*
X94100000Y-164330000D01*
%TO.C,Q5*%
X55793811Y-99570000D02*
X55793811Y-98470000D01*
X55523811Y-99570000D02*
X55793811Y-99570000D01*
X55523811Y-101070000D02*
X55523811Y-99570000D01*
X62153811Y-99570000D02*
X62153811Y-96740000D01*
X62423811Y-99570000D02*
X62153811Y-99570000D01*
X62423811Y-101070000D02*
X62423811Y-99570000D01*
%TO.C,Q6*%
X83290000Y-140160000D02*
X83290000Y-139060000D01*
X83020000Y-140160000D02*
X83290000Y-140160000D01*
X83020000Y-141660000D02*
X83020000Y-140160000D01*
X89650000Y-140160000D02*
X89650000Y-137330000D01*
X89920000Y-140160000D02*
X89650000Y-140160000D01*
X89920000Y-141660000D02*
X89920000Y-140160000D01*
%TO.C,Q7*%
X64910000Y-183150000D02*
X64910000Y-181650000D01*
X64910000Y-181650000D02*
X64640000Y-181650000D01*
X64640000Y-181650000D02*
X64640000Y-178820000D01*
X58010000Y-183150000D02*
X58010000Y-181650000D01*
X58010000Y-181650000D02*
X58280000Y-181650000D01*
X58280000Y-181650000D02*
X58280000Y-180550000D01*
%TO.C,Q8*%
X80280000Y-163230000D02*
X80280000Y-164330000D01*
X80550000Y-163230000D02*
X80280000Y-163230000D01*
X80550000Y-161730000D02*
X80550000Y-163230000D01*
X73920000Y-163230000D02*
X73920000Y-166060000D01*
X73650000Y-163230000D02*
X73920000Y-163230000D01*
X73650000Y-161730000D02*
X73650000Y-163230000D01*
%TO.C,R1*%
X39702936Y-93910000D02*
X41157064Y-93910000D01*
X39702936Y-95730000D02*
X41157064Y-95730000D01*
%TO.C,R2*%
X70702936Y-134830000D02*
X72157064Y-134830000D01*
X70702936Y-136650000D02*
X72157064Y-136650000D01*
%TO.C,R3*%
X41692936Y-178200000D02*
X43147064Y-178200000D01*
X41692936Y-176380000D02*
X43147064Y-176380000D01*
%TO.C,R4*%
X92867064Y-166730000D02*
X91412936Y-166730000D01*
X92867064Y-168550000D02*
X91412936Y-168550000D01*
%TO.C,R5*%
X57026747Y-94220000D02*
X58480875Y-94220000D01*
X57026747Y-96040000D02*
X58480875Y-96040000D01*
%TO.C,R6*%
X84522936Y-136650000D02*
X85977064Y-136650000D01*
X84522936Y-134830000D02*
X85977064Y-134830000D01*
%TO.C,R7*%
X59512936Y-178200000D02*
X60967064Y-178200000D01*
X59512936Y-176380000D02*
X60967064Y-176380000D01*
%TO.C,R8*%
X79047064Y-166730000D02*
X77592936Y-166730000D01*
X79047064Y-168550000D02*
X77592936Y-168550000D01*
%TO.C,R9*%
X100520000Y-63922936D02*
X100520000Y-65377064D01*
X98700000Y-63922936D02*
X98700000Y-65377064D01*
%TO.C,R10*%
X110440000Y-105179602D02*
X110440000Y-106633730D01*
X112260000Y-105179602D02*
X112260000Y-106633730D01*
%TO.C,R11*%
X100520000Y-146436268D02*
X100520000Y-147890396D01*
X98700000Y-146436268D02*
X98700000Y-147890396D01*
%TO.C,R12*%
X110440000Y-187692936D02*
X110440000Y-189147064D01*
X112260000Y-187692936D02*
X112260000Y-189147064D01*
%TO.C,R13*%
X123990000Y-63922936D02*
X123990000Y-65377064D01*
X122170000Y-63922936D02*
X122170000Y-65377064D01*
%TO.C,R14*%
X135730000Y-105179602D02*
X135730000Y-106633730D01*
X133910000Y-105179602D02*
X133910000Y-106633730D01*
%TO.C,R15*%
X123990000Y-146436268D02*
X123990000Y-147890396D01*
X122170000Y-146436268D02*
X122170000Y-147890396D01*
%TO.C,R16*%
X133910000Y-187692936D02*
X133910000Y-189147064D01*
X135730000Y-187692936D02*
X135730000Y-189147064D01*
%TO.C,C1*%
D11*
X95558333Y-68497142D02*
X95510714Y-68544761D01*
X95367857Y-68592380D01*
X95272619Y-68592380D01*
X95129761Y-68544761D01*
X95034523Y-68449523D01*
X94986904Y-68354285D01*
X94939285Y-68163809D01*
X94939285Y-68020952D01*
X94986904Y-67830476D01*
X95034523Y-67735238D01*
X95129761Y-67640000D01*
X95272619Y-67592380D01*
X95367857Y-67592380D01*
X95510714Y-67640000D01*
X95558333Y-67687619D01*
X96510714Y-68592380D02*
X95939285Y-68592380D01*
X96225000Y-68592380D02*
X96225000Y-67592380D01*
X96129761Y-67735238D01*
X96034523Y-67830476D01*
X95939285Y-67878095D01*
%TO.C,C2*%
X107298333Y-109867142D02*
X107250714Y-109914761D01*
X107107857Y-109962380D01*
X107012619Y-109962380D01*
X106869761Y-109914761D01*
X106774523Y-109819523D01*
X106726904Y-109724285D01*
X106679285Y-109533809D01*
X106679285Y-109390952D01*
X106726904Y-109200476D01*
X106774523Y-109105238D01*
X106869761Y-109010000D01*
X107012619Y-108962380D01*
X107107857Y-108962380D01*
X107250714Y-109010000D01*
X107298333Y-109057619D01*
X107679285Y-109057619D02*
X107726904Y-109010000D01*
X107822142Y-108962380D01*
X108060238Y-108962380D01*
X108155476Y-109010000D01*
X108203095Y-109057619D01*
X108250714Y-109152857D01*
X108250714Y-109248095D01*
X108203095Y-109390952D01*
X107631666Y-109962380D01*
X108250714Y-109962380D01*
%TO.C,C3*%
X95558333Y-150887142D02*
X95510714Y-150934761D01*
X95367857Y-150982380D01*
X95272619Y-150982380D01*
X95129761Y-150934761D01*
X95034523Y-150839523D01*
X94986904Y-150744285D01*
X94939285Y-150553809D01*
X94939285Y-150410952D01*
X94986904Y-150220476D01*
X95034523Y-150125238D01*
X95129761Y-150030000D01*
X95272619Y-149982380D01*
X95367857Y-149982380D01*
X95510714Y-150030000D01*
X95558333Y-150077619D01*
X95891666Y-149982380D02*
X96510714Y-149982380D01*
X96177380Y-150363333D01*
X96320238Y-150363333D01*
X96415476Y-150410952D01*
X96463095Y-150458571D01*
X96510714Y-150553809D01*
X96510714Y-150791904D01*
X96463095Y-150887142D01*
X96415476Y-150934761D01*
X96320238Y-150982380D01*
X96034523Y-150982380D01*
X95939285Y-150934761D01*
X95891666Y-150887142D01*
%TO.C,C4*%
X107298333Y-192287142D02*
X107250714Y-192334761D01*
X107107857Y-192382380D01*
X107012619Y-192382380D01*
X106869761Y-192334761D01*
X106774523Y-192239523D01*
X106726904Y-192144285D01*
X106679285Y-191953809D01*
X106679285Y-191810952D01*
X106726904Y-191620476D01*
X106774523Y-191525238D01*
X106869761Y-191430000D01*
X107012619Y-191382380D01*
X107107857Y-191382380D01*
X107250714Y-191430000D01*
X107298333Y-191477619D01*
X108155476Y-191715714D02*
X108155476Y-192382380D01*
X107917380Y-191334761D02*
X107679285Y-192049047D01*
X108298333Y-192049047D01*
%TO.C,C5*%
X119028333Y-68497142D02*
X118980714Y-68544761D01*
X118837857Y-68592380D01*
X118742619Y-68592380D01*
X118599761Y-68544761D01*
X118504523Y-68449523D01*
X118456904Y-68354285D01*
X118409285Y-68163809D01*
X118409285Y-68020952D01*
X118456904Y-67830476D01*
X118504523Y-67735238D01*
X118599761Y-67640000D01*
X118742619Y-67592380D01*
X118837857Y-67592380D01*
X118980714Y-67640000D01*
X119028333Y-67687619D01*
X119933095Y-67592380D02*
X119456904Y-67592380D01*
X119409285Y-68068571D01*
X119456904Y-68020952D01*
X119552142Y-67973333D01*
X119790238Y-67973333D01*
X119885476Y-68020952D01*
X119933095Y-68068571D01*
X119980714Y-68163809D01*
X119980714Y-68401904D01*
X119933095Y-68497142D01*
X119885476Y-68544761D01*
X119790238Y-68592380D01*
X119552142Y-68592380D01*
X119456904Y-68544761D01*
X119409285Y-68497142D01*
%TO.C,C6*%
X130768333Y-110073808D02*
X130720714Y-110121427D01*
X130577857Y-110169046D01*
X130482619Y-110169046D01*
X130339761Y-110121427D01*
X130244523Y-110026189D01*
X130196904Y-109930951D01*
X130149285Y-109740475D01*
X130149285Y-109597618D01*
X130196904Y-109407142D01*
X130244523Y-109311904D01*
X130339761Y-109216666D01*
X130482619Y-109169046D01*
X130577857Y-109169046D01*
X130720714Y-109216666D01*
X130768333Y-109264285D01*
X131625476Y-109169046D02*
X131435000Y-109169046D01*
X131339761Y-109216666D01*
X131292142Y-109264285D01*
X131196904Y-109407142D01*
X131149285Y-109597618D01*
X131149285Y-109978570D01*
X131196904Y-110073808D01*
X131244523Y-110121427D01*
X131339761Y-110169046D01*
X131530238Y-110169046D01*
X131625476Y-110121427D01*
X131673095Y-110073808D01*
X131720714Y-109978570D01*
X131720714Y-109740475D01*
X131673095Y-109645237D01*
X131625476Y-109597618D01*
X131530238Y-109549999D01*
X131339761Y-109549999D01*
X131244523Y-109597618D01*
X131196904Y-109645237D01*
X131149285Y-109740475D01*
%TO.C,C7*%
X119028333Y-150957142D02*
X118980714Y-151004761D01*
X118837857Y-151052380D01*
X118742619Y-151052380D01*
X118599761Y-151004761D01*
X118504523Y-150909523D01*
X118456904Y-150814285D01*
X118409285Y-150623809D01*
X118409285Y-150480952D01*
X118456904Y-150290476D01*
X118504523Y-150195238D01*
X118599761Y-150100000D01*
X118742619Y-150052380D01*
X118837857Y-150052380D01*
X118980714Y-150100000D01*
X119028333Y-150147619D01*
X119361666Y-150052380D02*
X120028333Y-150052380D01*
X119599761Y-151052380D01*
%TO.C,C8*%
X130768333Y-192287142D02*
X130720714Y-192334761D01*
X130577857Y-192382380D01*
X130482619Y-192382380D01*
X130339761Y-192334761D01*
X130244523Y-192239523D01*
X130196904Y-192144285D01*
X130149285Y-191953809D01*
X130149285Y-191810952D01*
X130196904Y-191620476D01*
X130244523Y-191525238D01*
X130339761Y-191430000D01*
X130482619Y-191382380D01*
X130577857Y-191382380D01*
X130720714Y-191430000D01*
X130768333Y-191477619D01*
X131339761Y-191810952D02*
X131244523Y-191763333D01*
X131196904Y-191715714D01*
X131149285Y-191620476D01*
X131149285Y-191572857D01*
X131196904Y-191477619D01*
X131244523Y-191430000D01*
X131339761Y-191382380D01*
X131530238Y-191382380D01*
X131625476Y-191430000D01*
X131673095Y-191477619D01*
X131720714Y-191572857D01*
X131720714Y-191620476D01*
X131673095Y-191715714D01*
X131625476Y-191763333D01*
X131530238Y-191810952D01*
X131339761Y-191810952D01*
X131244523Y-191858571D01*
X131196904Y-191906190D01*
X131149285Y-192001428D01*
X131149285Y-192191904D01*
X131196904Y-192287142D01*
X131244523Y-192334761D01*
X131339761Y-192382380D01*
X131530238Y-192382380D01*
X131625476Y-192334761D01*
X131673095Y-192287142D01*
X131720714Y-192191904D01*
X131720714Y-192001428D01*
X131673095Y-191906190D01*
X131625476Y-191858571D01*
X131530238Y-191810952D01*
%TO.C,D1*%
X36211904Y-92852380D02*
X36211904Y-91852380D01*
X36450000Y-91852380D01*
X36592857Y-91900000D01*
X36688095Y-91995238D01*
X36735714Y-92090476D01*
X36783333Y-92280952D01*
X36783333Y-92423809D01*
X36735714Y-92614285D01*
X36688095Y-92709523D01*
X36592857Y-92804761D01*
X36450000Y-92852380D01*
X36211904Y-92852380D01*
X37735714Y-92852380D02*
X37164285Y-92852380D01*
X37450000Y-92852380D02*
X37450000Y-91852380D01*
X37354761Y-91995238D01*
X37259523Y-92090476D01*
X37164285Y-92138095D01*
%TO.C,D2*%
X66781904Y-133642380D02*
X66781904Y-132642380D01*
X67020000Y-132642380D01*
X67162857Y-132690000D01*
X67258095Y-132785238D01*
X67305714Y-132880476D01*
X67353333Y-133070952D01*
X67353333Y-133213809D01*
X67305714Y-133404285D01*
X67258095Y-133499523D01*
X67162857Y-133594761D01*
X67020000Y-133642380D01*
X66781904Y-133642380D01*
X67734285Y-132737619D02*
X67781904Y-132690000D01*
X67877142Y-132642380D01*
X68115238Y-132642380D01*
X68210476Y-132690000D01*
X68258095Y-132737619D01*
X68305714Y-132832857D01*
X68305714Y-132928095D01*
X68258095Y-133070952D01*
X67686666Y-133642380D01*
X68305714Y-133642380D01*
%TO.C,D3*%
X37771904Y-175612380D02*
X37771904Y-174612380D01*
X38010000Y-174612380D01*
X38152857Y-174660000D01*
X38248095Y-174755238D01*
X38295714Y-174850476D01*
X38343333Y-175040952D01*
X38343333Y-175183809D01*
X38295714Y-175374285D01*
X38248095Y-175469523D01*
X38152857Y-175564761D01*
X38010000Y-175612380D01*
X37771904Y-175612380D01*
X38676666Y-174612380D02*
X39295714Y-174612380D01*
X38962380Y-174993333D01*
X39105238Y-174993333D01*
X39200476Y-175040952D01*
X39248095Y-175088571D01*
X39295714Y-175183809D01*
X39295714Y-175421904D01*
X39248095Y-175517142D01*
X39200476Y-175564761D01*
X39105238Y-175612380D01*
X38819523Y-175612380D01*
X38724285Y-175564761D01*
X38676666Y-175517142D01*
%TO.C,D4*%
X95311904Y-170452380D02*
X95311904Y-169452380D01*
X95550000Y-169452380D01*
X95692857Y-169500000D01*
X95788095Y-169595238D01*
X95835714Y-169690476D01*
X95883333Y-169880952D01*
X95883333Y-170023809D01*
X95835714Y-170214285D01*
X95788095Y-170309523D01*
X95692857Y-170404761D01*
X95550000Y-170452380D01*
X95311904Y-170452380D01*
X96740476Y-169785714D02*
X96740476Y-170452380D01*
X96502380Y-169404761D02*
X96264285Y-170119047D01*
X96883333Y-170119047D01*
%TO.C,D5*%
X53421904Y-93242380D02*
X53421904Y-92242380D01*
X53660000Y-92242380D01*
X53802857Y-92290000D01*
X53898095Y-92385238D01*
X53945714Y-92480476D01*
X53993333Y-92670952D01*
X53993333Y-92813809D01*
X53945714Y-93004285D01*
X53898095Y-93099523D01*
X53802857Y-93194761D01*
X53660000Y-93242380D01*
X53421904Y-93242380D01*
X54898095Y-92242380D02*
X54421904Y-92242380D01*
X54374285Y-92718571D01*
X54421904Y-92670952D01*
X54517142Y-92623333D01*
X54755238Y-92623333D01*
X54850476Y-92670952D01*
X54898095Y-92718571D01*
X54945714Y-92813809D01*
X54945714Y-93051904D01*
X54898095Y-93147142D01*
X54850476Y-93194761D01*
X54755238Y-93242380D01*
X54517142Y-93242380D01*
X54421904Y-93194761D01*
X54374285Y-93147142D01*
%TO.C,D6*%
X80851904Y-133642380D02*
X80851904Y-132642380D01*
X81090000Y-132642380D01*
X81232857Y-132690000D01*
X81328095Y-132785238D01*
X81375714Y-132880476D01*
X81423333Y-133070952D01*
X81423333Y-133213809D01*
X81375714Y-133404285D01*
X81328095Y-133499523D01*
X81232857Y-133594761D01*
X81090000Y-133642380D01*
X80851904Y-133642380D01*
X82280476Y-132642380D02*
X82090000Y-132642380D01*
X81994761Y-132690000D01*
X81947142Y-132737619D01*
X81851904Y-132880476D01*
X81804285Y-133070952D01*
X81804285Y-133451904D01*
X81851904Y-133547142D01*
X81899523Y-133594761D01*
X81994761Y-133642380D01*
X82185238Y-133642380D01*
X82280476Y-133594761D01*
X82328095Y-133547142D01*
X82375714Y-133451904D01*
X82375714Y-133213809D01*
X82328095Y-133118571D01*
X82280476Y-133070952D01*
X82185238Y-133023333D01*
X81994761Y-133023333D01*
X81899523Y-133070952D01*
X81851904Y-133118571D01*
X81804285Y-133213809D01*
%TO.C,D7*%
X55841904Y-175612380D02*
X55841904Y-174612380D01*
X56080000Y-174612380D01*
X56222857Y-174660000D01*
X56318095Y-174755238D01*
X56365714Y-174850476D01*
X56413333Y-175040952D01*
X56413333Y-175183809D01*
X56365714Y-175374285D01*
X56318095Y-175469523D01*
X56222857Y-175564761D01*
X56080000Y-175612380D01*
X55841904Y-175612380D01*
X56746666Y-174612380D02*
X57413333Y-174612380D01*
X56984761Y-175612380D01*
%TO.C,D8*%
X81241904Y-170452380D02*
X81241904Y-169452380D01*
X81480000Y-169452380D01*
X81622857Y-169500000D01*
X81718095Y-169595238D01*
X81765714Y-169690476D01*
X81813333Y-169880952D01*
X81813333Y-170023809D01*
X81765714Y-170214285D01*
X81718095Y-170309523D01*
X81622857Y-170404761D01*
X81480000Y-170452380D01*
X81241904Y-170452380D01*
X82384761Y-169880952D02*
X82289523Y-169833333D01*
X82241904Y-169785714D01*
X82194285Y-169690476D01*
X82194285Y-169642857D01*
X82241904Y-169547619D01*
X82289523Y-169500000D01*
X82384761Y-169452380D01*
X82575238Y-169452380D01*
X82670476Y-169500000D01*
X82718095Y-169547619D01*
X82765714Y-169642857D01*
X82765714Y-169690476D01*
X82718095Y-169785714D01*
X82670476Y-169833333D01*
X82575238Y-169880952D01*
X82384761Y-169880952D01*
X82289523Y-169928571D01*
X82241904Y-169976190D01*
X82194285Y-170071428D01*
X82194285Y-170261904D01*
X82241904Y-170357142D01*
X82289523Y-170404761D01*
X82384761Y-170452380D01*
X82575238Y-170452380D01*
X82670476Y-170404761D01*
X82718095Y-170357142D01*
X82765714Y-170261904D01*
X82765714Y-170071428D01*
X82718095Y-169976190D01*
X82670476Y-169928571D01*
X82575238Y-169880952D01*
%TO.C,D9*%
X159951904Y-77702380D02*
X159951904Y-76702380D01*
X160190000Y-76702380D01*
X160332857Y-76750000D01*
X160428095Y-76845238D01*
X160475714Y-76940476D01*
X160523333Y-77130952D01*
X160523333Y-77273809D01*
X160475714Y-77464285D01*
X160428095Y-77559523D01*
X160332857Y-77654761D01*
X160190000Y-77702380D01*
X159951904Y-77702380D01*
X160999523Y-77702380D02*
X161190000Y-77702380D01*
X161285238Y-77654761D01*
X161332857Y-77607142D01*
X161428095Y-77464285D01*
X161475714Y-77273809D01*
X161475714Y-76892857D01*
X161428095Y-76797619D01*
X161380476Y-76750000D01*
X161285238Y-76702380D01*
X161094761Y-76702380D01*
X160999523Y-76750000D01*
X160951904Y-76797619D01*
X160904285Y-76892857D01*
X160904285Y-77130952D01*
X160951904Y-77226190D01*
X160999523Y-77273809D01*
X161094761Y-77321428D01*
X161285238Y-77321428D01*
X161380476Y-77273809D01*
X161428095Y-77226190D01*
X161475714Y-77130952D01*
D12*
X142210952Y-77004761D02*
X143544285Y-79004761D01*
X143544285Y-77004761D02*
X142210952Y-79004761D01*
X144210952Y-77195238D02*
X144306190Y-77100000D01*
X144496666Y-77004761D01*
X144972857Y-77004761D01*
X145163333Y-77100000D01*
X145258571Y-77195238D01*
X145353809Y-77385714D01*
X145353809Y-77576190D01*
X145258571Y-77861904D01*
X144115714Y-79004761D01*
X145353809Y-79004761D01*
X142170952Y-48944761D02*
X143504285Y-50944761D01*
X143504285Y-48944761D02*
X142170952Y-50944761D01*
X145313809Y-50944761D02*
X144170952Y-50944761D01*
X144742380Y-50944761D02*
X144742380Y-48944761D01*
X144551904Y-49230476D01*
X144361428Y-49420952D01*
X144170952Y-49516190D01*
%TO.C,D10*%
D11*
X159475714Y-118959046D02*
X159475714Y-117959046D01*
X159713809Y-117959046D01*
X159856666Y-118006666D01*
X159951904Y-118101904D01*
X159999523Y-118197142D01*
X160047142Y-118387618D01*
X160047142Y-118530475D01*
X159999523Y-118720951D01*
X159951904Y-118816189D01*
X159856666Y-118911427D01*
X159713809Y-118959046D01*
X159475714Y-118959046D01*
X160999523Y-118959046D02*
X160428095Y-118959046D01*
X160713809Y-118959046D02*
X160713809Y-117959046D01*
X160618571Y-118101904D01*
X160523333Y-118197142D01*
X160428095Y-118244761D01*
X161618571Y-117959046D02*
X161713809Y-117959046D01*
X161809047Y-118006666D01*
X161856666Y-118054285D01*
X161904285Y-118149523D01*
X161951904Y-118339999D01*
X161951904Y-118578094D01*
X161904285Y-118768570D01*
X161856666Y-118863808D01*
X161809047Y-118911427D01*
X161713809Y-118959046D01*
X161618571Y-118959046D01*
X161523333Y-118911427D01*
X161475714Y-118863808D01*
X161428095Y-118768570D01*
X161380476Y-118578094D01*
X161380476Y-118339999D01*
X161428095Y-118149523D01*
X161475714Y-118054285D01*
X161523333Y-118006666D01*
X161618571Y-117959046D01*
D12*
X141860952Y-90808093D02*
X143194285Y-92808093D01*
X143194285Y-90808093D02*
X141860952Y-92808093D01*
X145003809Y-92808093D02*
X143860952Y-92808093D01*
X144432380Y-92808093D02*
X144432380Y-90808093D01*
X144241904Y-91093808D01*
X144051428Y-91284284D01*
X143860952Y-91379522D01*
X142210952Y-118458093D02*
X143544285Y-120458093D01*
X143544285Y-118458093D02*
X142210952Y-120458093D01*
X144210952Y-118648570D02*
X144306190Y-118553332D01*
X144496666Y-118458093D01*
X144972857Y-118458093D01*
X145163333Y-118553332D01*
X145258571Y-118648570D01*
X145353809Y-118839046D01*
X145353809Y-119029522D01*
X145258571Y-119315236D01*
X144115714Y-120458093D01*
X145353809Y-120458093D01*
%TO.C,D11*%
D11*
X159515714Y-160215712D02*
X159515714Y-159215712D01*
X159753809Y-159215712D01*
X159896666Y-159263332D01*
X159991904Y-159358570D01*
X160039523Y-159453808D01*
X160087142Y-159644284D01*
X160087142Y-159787141D01*
X160039523Y-159977617D01*
X159991904Y-160072855D01*
X159896666Y-160168093D01*
X159753809Y-160215712D01*
X159515714Y-160215712D01*
X161039523Y-160215712D02*
X160468095Y-160215712D01*
X160753809Y-160215712D02*
X160753809Y-159215712D01*
X160658571Y-159358570D01*
X160563333Y-159453808D01*
X160468095Y-159501427D01*
X161991904Y-160215712D02*
X161420476Y-160215712D01*
X161706190Y-160215712D02*
X161706190Y-159215712D01*
X161610952Y-159358570D01*
X161515714Y-159453808D01*
X161420476Y-159501427D01*
D12*
X142330952Y-159651425D02*
X143664285Y-161651425D01*
X143664285Y-159651425D02*
X142330952Y-161651425D01*
X144330952Y-159841902D02*
X144426190Y-159746664D01*
X144616666Y-159651425D01*
X145092857Y-159651425D01*
X145283333Y-159746664D01*
X145378571Y-159841902D01*
X145473809Y-160032378D01*
X145473809Y-160222854D01*
X145378571Y-160508568D01*
X144235714Y-161651425D01*
X145473809Y-161651425D01*
X142230952Y-132191425D02*
X143564285Y-134191425D01*
X143564285Y-132191425D02*
X142230952Y-134191425D01*
X145373809Y-134191425D02*
X144230952Y-134191425D01*
X144802380Y-134191425D02*
X144802380Y-132191425D01*
X144611904Y-132477140D01*
X144421428Y-132667616D01*
X144230952Y-132762854D01*
%TO.C,D12*%
D11*
X159535714Y-201472380D02*
X159535714Y-200472380D01*
X159773809Y-200472380D01*
X159916666Y-200520000D01*
X160011904Y-200615238D01*
X160059523Y-200710476D01*
X160107142Y-200900952D01*
X160107142Y-201043809D01*
X160059523Y-201234285D01*
X160011904Y-201329523D01*
X159916666Y-201424761D01*
X159773809Y-201472380D01*
X159535714Y-201472380D01*
X161059523Y-201472380D02*
X160488095Y-201472380D01*
X160773809Y-201472380D02*
X160773809Y-200472380D01*
X160678571Y-200615238D01*
X160583333Y-200710476D01*
X160488095Y-200758095D01*
X161440476Y-200567619D02*
X161488095Y-200520000D01*
X161583333Y-200472380D01*
X161821428Y-200472380D01*
X161916666Y-200520000D01*
X161964285Y-200567619D01*
X162011904Y-200662857D01*
X162011904Y-200758095D01*
X161964285Y-200900952D01*
X161392857Y-201472380D01*
X162011904Y-201472380D01*
D12*
X142250952Y-173164761D02*
X143584285Y-175164761D01*
X143584285Y-173164761D02*
X142250952Y-175164761D01*
X145393809Y-175164761D02*
X144250952Y-175164761D01*
X144822380Y-175164761D02*
X144822380Y-173164761D01*
X144631904Y-173450476D01*
X144441428Y-173640952D01*
X144250952Y-173736190D01*
X142480952Y-200824761D02*
X143814285Y-202824761D01*
X143814285Y-200824761D02*
X142480952Y-202824761D01*
X144480952Y-201015238D02*
X144576190Y-200920000D01*
X144766666Y-200824761D01*
X145242857Y-200824761D01*
X145433333Y-200920000D01*
X145528571Y-201015238D01*
X145623809Y-201205714D01*
X145623809Y-201396190D01*
X145528571Y-201681904D01*
X144385714Y-202824761D01*
X145623809Y-202824761D01*
%TO.C,F1*%
D11*
X41636666Y-87328571D02*
X41303333Y-87328571D01*
X41303333Y-87852380D02*
X41303333Y-86852380D01*
X41779523Y-86852380D01*
X42684285Y-87852380D02*
X42112857Y-87852380D01*
X42398571Y-87852380D02*
X42398571Y-86852380D01*
X42303333Y-86995238D01*
X42208095Y-87090476D01*
X42112857Y-87138095D01*
%TO.C,F2*%
X72076666Y-128658571D02*
X71743333Y-128658571D01*
X71743333Y-129182380D02*
X71743333Y-128182380D01*
X72219523Y-128182380D01*
X72552857Y-128277619D02*
X72600476Y-128230000D01*
X72695714Y-128182380D01*
X72933809Y-128182380D01*
X73029047Y-128230000D01*
X73076666Y-128277619D01*
X73124285Y-128372857D01*
X73124285Y-128468095D01*
X73076666Y-128610952D01*
X72505238Y-129182380D01*
X73124285Y-129182380D01*
%TO.C,F3*%
X43066666Y-170248571D02*
X42733333Y-170248571D01*
X42733333Y-170772380D02*
X42733333Y-169772380D01*
X43209523Y-169772380D01*
X43495238Y-169772380D02*
X44114285Y-169772380D01*
X43780952Y-170153333D01*
X43923809Y-170153333D01*
X44019047Y-170200952D01*
X44066666Y-170248571D01*
X44114285Y-170343809D01*
X44114285Y-170581904D01*
X44066666Y-170677142D01*
X44019047Y-170724761D01*
X43923809Y-170772380D01*
X43638095Y-170772380D01*
X43542857Y-170724761D01*
X43495238Y-170677142D01*
%TO.C,F4*%
X90826666Y-174498571D02*
X90493333Y-174498571D01*
X90493333Y-175022380D02*
X90493333Y-174022380D01*
X90969523Y-174022380D01*
X91779047Y-174355714D02*
X91779047Y-175022380D01*
X91540952Y-173974761D02*
X91302857Y-174689047D01*
X91921904Y-174689047D01*
%TO.C,F5*%
X58466666Y-88068571D02*
X58133333Y-88068571D01*
X58133333Y-88592380D02*
X58133333Y-87592380D01*
X58609523Y-87592380D01*
X59466666Y-87592380D02*
X58990476Y-87592380D01*
X58942857Y-88068571D01*
X58990476Y-88020952D01*
X59085714Y-87973333D01*
X59323809Y-87973333D01*
X59419047Y-88020952D01*
X59466666Y-88068571D01*
X59514285Y-88163809D01*
X59514285Y-88401904D01*
X59466666Y-88497142D01*
X59419047Y-88544761D01*
X59323809Y-88592380D01*
X59085714Y-88592380D01*
X58990476Y-88544761D01*
X58942857Y-88497142D01*
%TO.C,F6*%
X85706666Y-128658571D02*
X85373333Y-128658571D01*
X85373333Y-129182380D02*
X85373333Y-128182380D01*
X85849523Y-128182380D01*
X86659047Y-128182380D02*
X86468571Y-128182380D01*
X86373333Y-128230000D01*
X86325714Y-128277619D01*
X86230476Y-128420476D01*
X86182857Y-128610952D01*
X86182857Y-128991904D01*
X86230476Y-129087142D01*
X86278095Y-129134761D01*
X86373333Y-129182380D01*
X86563809Y-129182380D01*
X86659047Y-129134761D01*
X86706666Y-129087142D01*
X86754285Y-128991904D01*
X86754285Y-128753809D01*
X86706666Y-128658571D01*
X86659047Y-128610952D01*
X86563809Y-128563333D01*
X86373333Y-128563333D01*
X86278095Y-128610952D01*
X86230476Y-128658571D01*
X86182857Y-128753809D01*
%TO.C,F7*%
X60696666Y-170278571D02*
X60363333Y-170278571D01*
X60363333Y-170802380D02*
X60363333Y-169802380D01*
X60839523Y-169802380D01*
X61125238Y-169802380D02*
X61791904Y-169802380D01*
X61363333Y-170802380D01*
%TO.C,F8*%
X77196666Y-174498571D02*
X76863333Y-174498571D01*
X76863333Y-175022380D02*
X76863333Y-174022380D01*
X77339523Y-174022380D01*
X77863333Y-174450952D02*
X77768095Y-174403333D01*
X77720476Y-174355714D01*
X77672857Y-174260476D01*
X77672857Y-174212857D01*
X77720476Y-174117619D01*
X77768095Y-174070000D01*
X77863333Y-174022380D01*
X78053809Y-174022380D01*
X78149047Y-174070000D01*
X78196666Y-174117619D01*
X78244285Y-174212857D01*
X78244285Y-174260476D01*
X78196666Y-174355714D01*
X78149047Y-174403333D01*
X78053809Y-174450952D01*
X77863333Y-174450952D01*
X77768095Y-174498571D01*
X77720476Y-174546190D01*
X77672857Y-174641428D01*
X77672857Y-174831904D01*
X77720476Y-174927142D01*
X77768095Y-174974761D01*
X77863333Y-175022380D01*
X78053809Y-175022380D01*
X78149047Y-174974761D01*
X78196666Y-174927142D01*
X78244285Y-174831904D01*
X78244285Y-174641428D01*
X78196666Y-174546190D01*
X78149047Y-174498571D01*
X78053809Y-174450952D01*
%TO.C,BLACK*%
X41628095Y-212395794D02*
X41770952Y-212443413D01*
X41818571Y-212491032D01*
X41866190Y-212586270D01*
X41866190Y-212729127D01*
X41818571Y-212824365D01*
X41770952Y-212871984D01*
X41675714Y-212919603D01*
X41294761Y-212919603D01*
X41294761Y-211919603D01*
X41628095Y-211919603D01*
X41723333Y-211967223D01*
X41770952Y-212014842D01*
X41818571Y-212110080D01*
X41818571Y-212205318D01*
X41770952Y-212300556D01*
X41723333Y-212348175D01*
X41628095Y-212395794D01*
X41294761Y-212395794D01*
X42770952Y-212919603D02*
X42294761Y-212919603D01*
X42294761Y-211919603D01*
X43056666Y-212633889D02*
X43532857Y-212633889D01*
X42961428Y-212919603D02*
X43294761Y-211919603D01*
X43628095Y-212919603D01*
X44532857Y-212824365D02*
X44485238Y-212871984D01*
X44342380Y-212919603D01*
X44247142Y-212919603D01*
X44104285Y-212871984D01*
X44009047Y-212776746D01*
X43961428Y-212681508D01*
X43913809Y-212491032D01*
X43913809Y-212348175D01*
X43961428Y-212157699D01*
X44009047Y-212062461D01*
X44104285Y-211967223D01*
X44247142Y-211919603D01*
X44342380Y-211919603D01*
X44485238Y-211967223D01*
X44532857Y-212014842D01*
X44961428Y-212919603D02*
X44961428Y-211919603D01*
X45532857Y-212919603D02*
X45104285Y-212348175D01*
X45532857Y-211919603D02*
X44961428Y-212491032D01*
%TO.C,RED*%
X42277142Y-42342380D02*
X41943809Y-41866190D01*
X41705714Y-42342380D02*
X41705714Y-41342380D01*
X42086666Y-41342380D01*
X42181904Y-41390000D01*
X42229523Y-41437619D01*
X42277142Y-41532857D01*
X42277142Y-41675714D01*
X42229523Y-41770952D01*
X42181904Y-41818571D01*
X42086666Y-41866190D01*
X41705714Y-41866190D01*
X42705714Y-41818571D02*
X43039047Y-41818571D01*
X43181904Y-42342380D02*
X42705714Y-42342380D01*
X42705714Y-41342380D01*
X43181904Y-41342380D01*
X43610476Y-42342380D02*
X43610476Y-41342380D01*
X43848571Y-41342380D01*
X43991428Y-41390000D01*
X44086666Y-41485238D01*
X44134285Y-41580476D01*
X44181904Y-41770952D01*
X44181904Y-41913809D01*
X44134285Y-42104285D01*
X44086666Y-42199523D01*
X43991428Y-42294761D01*
X43848571Y-42342380D01*
X43610476Y-42342380D01*
%TO.C,BLACK*%
X66716095Y-211738571D02*
X66858952Y-211786190D01*
X66906571Y-211833809D01*
X66954190Y-211929047D01*
X66954190Y-212071904D01*
X66906571Y-212167142D01*
X66858952Y-212214761D01*
X66763714Y-212262380D01*
X66382761Y-212262380D01*
X66382761Y-211262380D01*
X66716095Y-211262380D01*
X66811333Y-211310000D01*
X66858952Y-211357619D01*
X66906571Y-211452857D01*
X66906571Y-211548095D01*
X66858952Y-211643333D01*
X66811333Y-211690952D01*
X66716095Y-211738571D01*
X66382761Y-211738571D01*
X67858952Y-212262380D02*
X67382761Y-212262380D01*
X67382761Y-211262380D01*
X68144666Y-211976666D02*
X68620857Y-211976666D01*
X68049428Y-212262380D02*
X68382761Y-211262380D01*
X68716095Y-212262380D01*
X69620857Y-212167142D02*
X69573238Y-212214761D01*
X69430380Y-212262380D01*
X69335142Y-212262380D01*
X69192285Y-212214761D01*
X69097047Y-212119523D01*
X69049428Y-212024285D01*
X69001809Y-211833809D01*
X69001809Y-211690952D01*
X69049428Y-211500476D01*
X69097047Y-211405238D01*
X69192285Y-211310000D01*
X69335142Y-211262380D01*
X69430380Y-211262380D01*
X69573238Y-211310000D01*
X69620857Y-211357619D01*
X70049428Y-212262380D02*
X70049428Y-211262380D01*
X70620857Y-212262380D02*
X70192285Y-211690952D01*
X70620857Y-211262380D02*
X70049428Y-211833809D01*
%TO.C,RED*%
X67845142Y-42312380D02*
X67511809Y-41836190D01*
X67273714Y-42312380D02*
X67273714Y-41312380D01*
X67654666Y-41312380D01*
X67749904Y-41360000D01*
X67797523Y-41407619D01*
X67845142Y-41502857D01*
X67845142Y-41645714D01*
X67797523Y-41740952D01*
X67749904Y-41788571D01*
X67654666Y-41836190D01*
X67273714Y-41836190D01*
X68273714Y-41788571D02*
X68607047Y-41788571D01*
X68749904Y-42312380D02*
X68273714Y-42312380D01*
X68273714Y-41312380D01*
X68749904Y-41312380D01*
X69178476Y-42312380D02*
X69178476Y-41312380D01*
X69416571Y-41312380D01*
X69559428Y-41360000D01*
X69654666Y-41455238D01*
X69702285Y-41550476D01*
X69749904Y-41740952D01*
X69749904Y-41883809D01*
X69702285Y-42074285D01*
X69654666Y-42169523D01*
X69559428Y-42264761D01*
X69416571Y-42312380D01*
X69178476Y-42312380D01*
%TO.C,BLACK*%
X92024095Y-211738571D02*
X92166952Y-211786190D01*
X92214571Y-211833809D01*
X92262190Y-211929047D01*
X92262190Y-212071904D01*
X92214571Y-212167142D01*
X92166952Y-212214761D01*
X92071714Y-212262380D01*
X91690761Y-212262380D01*
X91690761Y-211262380D01*
X92024095Y-211262380D01*
X92119333Y-211310000D01*
X92166952Y-211357619D01*
X92214571Y-211452857D01*
X92214571Y-211548095D01*
X92166952Y-211643333D01*
X92119333Y-211690952D01*
X92024095Y-211738571D01*
X91690761Y-211738571D01*
X93166952Y-212262380D02*
X92690761Y-212262380D01*
X92690761Y-211262380D01*
X93452666Y-211976666D02*
X93928857Y-211976666D01*
X93357428Y-212262380D02*
X93690761Y-211262380D01*
X94024095Y-212262380D01*
X94928857Y-212167142D02*
X94881238Y-212214761D01*
X94738380Y-212262380D01*
X94643142Y-212262380D01*
X94500285Y-212214761D01*
X94405047Y-212119523D01*
X94357428Y-212024285D01*
X94309809Y-211833809D01*
X94309809Y-211690952D01*
X94357428Y-211500476D01*
X94405047Y-211405238D01*
X94500285Y-211310000D01*
X94643142Y-211262380D01*
X94738380Y-211262380D01*
X94881238Y-211310000D01*
X94928857Y-211357619D01*
X95357428Y-212262380D02*
X95357428Y-211262380D01*
X95928857Y-212262380D02*
X95500285Y-211690952D01*
X95928857Y-211262380D02*
X95357428Y-211833809D01*
%TO.C,RED*%
X93063142Y-42312380D02*
X92729809Y-41836190D01*
X92491714Y-42312380D02*
X92491714Y-41312380D01*
X92872666Y-41312380D01*
X92967904Y-41360000D01*
X93015523Y-41407619D01*
X93063142Y-41502857D01*
X93063142Y-41645714D01*
X93015523Y-41740952D01*
X92967904Y-41788571D01*
X92872666Y-41836190D01*
X92491714Y-41836190D01*
X93491714Y-41788571D02*
X93825047Y-41788571D01*
X93967904Y-42312380D02*
X93491714Y-42312380D01*
X93491714Y-41312380D01*
X93967904Y-41312380D01*
X94396476Y-42312380D02*
X94396476Y-41312380D01*
X94634571Y-41312380D01*
X94777428Y-41360000D01*
X94872666Y-41455238D01*
X94920285Y-41550476D01*
X94967904Y-41740952D01*
X94967904Y-41883809D01*
X94920285Y-42074285D01*
X94872666Y-42169523D01*
X94777428Y-42264761D01*
X94634571Y-42312380D01*
X94396476Y-42312380D01*
%TO.C,BLACK*%
X117222095Y-211738571D02*
X117364952Y-211786190D01*
X117412571Y-211833809D01*
X117460190Y-211929047D01*
X117460190Y-212071904D01*
X117412571Y-212167142D01*
X117364952Y-212214761D01*
X117269714Y-212262380D01*
X116888761Y-212262380D01*
X116888761Y-211262380D01*
X117222095Y-211262380D01*
X117317333Y-211310000D01*
X117364952Y-211357619D01*
X117412571Y-211452857D01*
X117412571Y-211548095D01*
X117364952Y-211643333D01*
X117317333Y-211690952D01*
X117222095Y-211738571D01*
X116888761Y-211738571D01*
X118364952Y-212262380D02*
X117888761Y-212262380D01*
X117888761Y-211262380D01*
X118650666Y-211976666D02*
X119126857Y-211976666D01*
X118555428Y-212262380D02*
X118888761Y-211262380D01*
X119222095Y-212262380D01*
X120126857Y-212167142D02*
X120079238Y-212214761D01*
X119936380Y-212262380D01*
X119841142Y-212262380D01*
X119698285Y-212214761D01*
X119603047Y-212119523D01*
X119555428Y-212024285D01*
X119507809Y-211833809D01*
X119507809Y-211690952D01*
X119555428Y-211500476D01*
X119603047Y-211405238D01*
X119698285Y-211310000D01*
X119841142Y-211262380D01*
X119936380Y-211262380D01*
X120079238Y-211310000D01*
X120126857Y-211357619D01*
X120555428Y-212262380D02*
X120555428Y-211262380D01*
X121126857Y-212262380D02*
X120698285Y-211690952D01*
X121126857Y-211262380D02*
X120555428Y-211833809D01*
%TO.C,RED*%
X118371142Y-42312380D02*
X118037809Y-41836190D01*
X117799714Y-42312380D02*
X117799714Y-41312380D01*
X118180666Y-41312380D01*
X118275904Y-41360000D01*
X118323523Y-41407619D01*
X118371142Y-41502857D01*
X118371142Y-41645714D01*
X118323523Y-41740952D01*
X118275904Y-41788571D01*
X118180666Y-41836190D01*
X117799714Y-41836190D01*
X118799714Y-41788571D02*
X119133047Y-41788571D01*
X119275904Y-42312380D02*
X118799714Y-42312380D01*
X118799714Y-41312380D01*
X119275904Y-41312380D01*
X119704476Y-42312380D02*
X119704476Y-41312380D01*
X119942571Y-41312380D01*
X120085428Y-41360000D01*
X120180666Y-41455238D01*
X120228285Y-41550476D01*
X120275904Y-41740952D01*
X120275904Y-41883809D01*
X120228285Y-42074285D01*
X120180666Y-42169523D01*
X120085428Y-42264761D01*
X119942571Y-42312380D01*
X119704476Y-42312380D01*
%TO.C,BLACK*%
X142180095Y-211738571D02*
X142322952Y-211786190D01*
X142370571Y-211833809D01*
X142418190Y-211929047D01*
X142418190Y-212071904D01*
X142370571Y-212167142D01*
X142322952Y-212214761D01*
X142227714Y-212262380D01*
X141846761Y-212262380D01*
X141846761Y-211262380D01*
X142180095Y-211262380D01*
X142275333Y-211310000D01*
X142322952Y-211357619D01*
X142370571Y-211452857D01*
X142370571Y-211548095D01*
X142322952Y-211643333D01*
X142275333Y-211690952D01*
X142180095Y-211738571D01*
X141846761Y-211738571D01*
X143322952Y-212262380D02*
X142846761Y-212262380D01*
X142846761Y-211262380D01*
X143608666Y-211976666D02*
X144084857Y-211976666D01*
X143513428Y-212262380D02*
X143846761Y-211262380D01*
X144180095Y-212262380D01*
X145084857Y-212167142D02*
X145037238Y-212214761D01*
X144894380Y-212262380D01*
X144799142Y-212262380D01*
X144656285Y-212214761D01*
X144561047Y-212119523D01*
X144513428Y-212024285D01*
X144465809Y-211833809D01*
X144465809Y-211690952D01*
X144513428Y-211500476D01*
X144561047Y-211405238D01*
X144656285Y-211310000D01*
X144799142Y-211262380D01*
X144894380Y-211262380D01*
X145037238Y-211310000D01*
X145084857Y-211357619D01*
X145513428Y-212262380D02*
X145513428Y-211262380D01*
X146084857Y-212262380D02*
X145656285Y-211690952D01*
X146084857Y-211262380D02*
X145513428Y-211833809D01*
%TO.C,RED*%
X143609142Y-42312380D02*
X143275809Y-41836190D01*
X143037714Y-42312380D02*
X143037714Y-41312380D01*
X143418666Y-41312380D01*
X143513904Y-41360000D01*
X143561523Y-41407619D01*
X143609142Y-41502857D01*
X143609142Y-41645714D01*
X143561523Y-41740952D01*
X143513904Y-41788571D01*
X143418666Y-41836190D01*
X143037714Y-41836190D01*
X144037714Y-41788571D02*
X144371047Y-41788571D01*
X144513904Y-42312380D02*
X144037714Y-42312380D01*
X144037714Y-41312380D01*
X144513904Y-41312380D01*
X144942476Y-42312380D02*
X144942476Y-41312380D01*
X145180571Y-41312380D01*
X145323428Y-41360000D01*
X145418666Y-41455238D01*
X145466285Y-41550476D01*
X145513904Y-41740952D01*
X145513904Y-41883809D01*
X145466285Y-42074285D01*
X145418666Y-42169523D01*
X145323428Y-42264761D01*
X145180571Y-42312380D01*
X144942476Y-42312380D01*
%TO.C,BLACK*%
X167458095Y-211685794D02*
X167600952Y-211733413D01*
X167648571Y-211781032D01*
X167696190Y-211876270D01*
X167696190Y-212019127D01*
X167648571Y-212114365D01*
X167600952Y-212161984D01*
X167505714Y-212209603D01*
X167124761Y-212209603D01*
X167124761Y-211209603D01*
X167458095Y-211209603D01*
X167553333Y-211257223D01*
X167600952Y-211304842D01*
X167648571Y-211400080D01*
X167648571Y-211495318D01*
X167600952Y-211590556D01*
X167553333Y-211638175D01*
X167458095Y-211685794D01*
X167124761Y-211685794D01*
X168600952Y-212209603D02*
X168124761Y-212209603D01*
X168124761Y-211209603D01*
X168886666Y-211923889D02*
X169362857Y-211923889D01*
X168791428Y-212209603D02*
X169124761Y-211209603D01*
X169458095Y-212209603D01*
X170362857Y-212114365D02*
X170315238Y-212161984D01*
X170172380Y-212209603D01*
X170077142Y-212209603D01*
X169934285Y-212161984D01*
X169839047Y-212066746D01*
X169791428Y-211971508D01*
X169743809Y-211781032D01*
X169743809Y-211638175D01*
X169791428Y-211447699D01*
X169839047Y-211352461D01*
X169934285Y-211257223D01*
X170077142Y-211209603D01*
X170172380Y-211209603D01*
X170315238Y-211257223D01*
X170362857Y-211304842D01*
X170791428Y-212209603D02*
X170791428Y-211209603D01*
X171362857Y-212209603D02*
X170934285Y-211638175D01*
X171362857Y-211209603D02*
X170791428Y-211781032D01*
%TO.C,RED*%
X168577142Y-42472380D02*
X168243809Y-41996190D01*
X168005714Y-42472380D02*
X168005714Y-41472380D01*
X168386666Y-41472380D01*
X168481904Y-41520000D01*
X168529523Y-41567619D01*
X168577142Y-41662857D01*
X168577142Y-41805714D01*
X168529523Y-41900952D01*
X168481904Y-41948571D01*
X168386666Y-41996190D01*
X168005714Y-41996190D01*
X169005714Y-41948571D02*
X169339047Y-41948571D01*
X169481904Y-42472380D02*
X169005714Y-42472380D01*
X169005714Y-41472380D01*
X169481904Y-41472380D01*
X169910476Y-42472380D02*
X169910476Y-41472380D01*
X170148571Y-41472380D01*
X170291428Y-41520000D01*
X170386666Y-41615238D01*
X170434285Y-41710476D01*
X170481904Y-41900952D01*
X170481904Y-42043809D01*
X170434285Y-42234285D01*
X170386666Y-42329523D01*
X170291428Y-42424761D01*
X170148571Y-42472380D01*
X169910476Y-42472380D01*
%TO.C,BLACK*%
X103638095Y-47758571D02*
X103780952Y-47806190D01*
X103828571Y-47853809D01*
X103876190Y-47949047D01*
X103876190Y-48091904D01*
X103828571Y-48187142D01*
X103780952Y-48234761D01*
X103685714Y-48282380D01*
X103304761Y-48282380D01*
X103304761Y-47282380D01*
X103638095Y-47282380D01*
X103733333Y-47330000D01*
X103780952Y-47377619D01*
X103828571Y-47472857D01*
X103828571Y-47568095D01*
X103780952Y-47663333D01*
X103733333Y-47710952D01*
X103638095Y-47758571D01*
X103304761Y-47758571D01*
X104780952Y-48282380D02*
X104304761Y-48282380D01*
X104304761Y-47282380D01*
X105066666Y-47996666D02*
X105542857Y-47996666D01*
X104971428Y-48282380D02*
X105304761Y-47282380D01*
X105638095Y-48282380D01*
X106542857Y-48187142D02*
X106495238Y-48234761D01*
X106352380Y-48282380D01*
X106257142Y-48282380D01*
X106114285Y-48234761D01*
X106019047Y-48139523D01*
X105971428Y-48044285D01*
X105923809Y-47853809D01*
X105923809Y-47710952D01*
X105971428Y-47520476D01*
X106019047Y-47425238D01*
X106114285Y-47330000D01*
X106257142Y-47282380D01*
X106352380Y-47282380D01*
X106495238Y-47330000D01*
X106542857Y-47377619D01*
X106971428Y-48282380D02*
X106971428Y-47282380D01*
X107542857Y-48282380D02*
X107114285Y-47710952D01*
X107542857Y-47282380D02*
X106971428Y-47853809D01*
X103638095Y-88478571D02*
X103780952Y-88526190D01*
X103828571Y-88573809D01*
X103876190Y-88669047D01*
X103876190Y-88811904D01*
X103828571Y-88907142D01*
X103780952Y-88954761D01*
X103685714Y-89002380D01*
X103304761Y-89002380D01*
X103304761Y-88002380D01*
X103638095Y-88002380D01*
X103733333Y-88050000D01*
X103780952Y-88097619D01*
X103828571Y-88192857D01*
X103828571Y-88288095D01*
X103780952Y-88383333D01*
X103733333Y-88430952D01*
X103638095Y-88478571D01*
X103304761Y-88478571D01*
X104780952Y-89002380D02*
X104304761Y-89002380D01*
X104304761Y-88002380D01*
X105066666Y-88716666D02*
X105542857Y-88716666D01*
X104971428Y-89002380D02*
X105304761Y-88002380D01*
X105638095Y-89002380D01*
X106542857Y-88907142D02*
X106495238Y-88954761D01*
X106352380Y-89002380D01*
X106257142Y-89002380D01*
X106114285Y-88954761D01*
X106019047Y-88859523D01*
X105971428Y-88764285D01*
X105923809Y-88573809D01*
X105923809Y-88430952D01*
X105971428Y-88240476D01*
X106019047Y-88145238D01*
X106114285Y-88050000D01*
X106257142Y-88002380D01*
X106352380Y-88002380D01*
X106495238Y-88050000D01*
X106542857Y-88097619D01*
X106971428Y-89002380D02*
X106971428Y-88002380D01*
X107542857Y-89002380D02*
X107114285Y-88430952D01*
X107542857Y-88002380D02*
X106971428Y-88573809D01*
X103638095Y-81378571D02*
X103780952Y-81426190D01*
X103828571Y-81473809D01*
X103876190Y-81569047D01*
X103876190Y-81711904D01*
X103828571Y-81807142D01*
X103780952Y-81854761D01*
X103685714Y-81902380D01*
X103304761Y-81902380D01*
X103304761Y-80902380D01*
X103638095Y-80902380D01*
X103733333Y-80950000D01*
X103780952Y-80997619D01*
X103828571Y-81092857D01*
X103828571Y-81188095D01*
X103780952Y-81283333D01*
X103733333Y-81330952D01*
X103638095Y-81378571D01*
X103304761Y-81378571D01*
X104780952Y-81902380D02*
X104304761Y-81902380D01*
X104304761Y-80902380D01*
X105066666Y-81616666D02*
X105542857Y-81616666D01*
X104971428Y-81902380D02*
X105304761Y-80902380D01*
X105638095Y-81902380D01*
X106542857Y-81807142D02*
X106495238Y-81854761D01*
X106352380Y-81902380D01*
X106257142Y-81902380D01*
X106114285Y-81854761D01*
X106019047Y-81759523D01*
X105971428Y-81664285D01*
X105923809Y-81473809D01*
X105923809Y-81330952D01*
X105971428Y-81140476D01*
X106019047Y-81045238D01*
X106114285Y-80950000D01*
X106257142Y-80902380D01*
X106352380Y-80902380D01*
X106495238Y-80950000D01*
X106542857Y-80997619D01*
X106971428Y-81902380D02*
X106971428Y-80902380D01*
X107542857Y-81902380D02*
X107114285Y-81330952D01*
X107542857Y-80902380D02*
X106971428Y-81473809D01*
X103638095Y-122378571D02*
X103780952Y-122426190D01*
X103828571Y-122473809D01*
X103876190Y-122569047D01*
X103876190Y-122711904D01*
X103828571Y-122807142D01*
X103780952Y-122854761D01*
X103685714Y-122902380D01*
X103304761Y-122902380D01*
X103304761Y-121902380D01*
X103638095Y-121902380D01*
X103733333Y-121950000D01*
X103780952Y-121997619D01*
X103828571Y-122092857D01*
X103828571Y-122188095D01*
X103780952Y-122283333D01*
X103733333Y-122330952D01*
X103638095Y-122378571D01*
X103304761Y-122378571D01*
X104780952Y-122902380D02*
X104304761Y-122902380D01*
X104304761Y-121902380D01*
X105066666Y-122616666D02*
X105542857Y-122616666D01*
X104971428Y-122902380D02*
X105304761Y-121902380D01*
X105638095Y-122902380D01*
X106542857Y-122807142D02*
X106495238Y-122854761D01*
X106352380Y-122902380D01*
X106257142Y-122902380D01*
X106114285Y-122854761D01*
X106019047Y-122759523D01*
X105971428Y-122664285D01*
X105923809Y-122473809D01*
X105923809Y-122330952D01*
X105971428Y-122140476D01*
X106019047Y-122045238D01*
X106114285Y-121950000D01*
X106257142Y-121902380D01*
X106352380Y-121902380D01*
X106495238Y-121950000D01*
X106542857Y-121997619D01*
X106971428Y-122902380D02*
X106971428Y-121902380D01*
X107542857Y-122902380D02*
X107114285Y-122330952D01*
X107542857Y-121902380D02*
X106971428Y-122473809D01*
X103638095Y-130118571D02*
X103780952Y-130166190D01*
X103828571Y-130213809D01*
X103876190Y-130309047D01*
X103876190Y-130451904D01*
X103828571Y-130547142D01*
X103780952Y-130594761D01*
X103685714Y-130642380D01*
X103304761Y-130642380D01*
X103304761Y-129642380D01*
X103638095Y-129642380D01*
X103733333Y-129690000D01*
X103780952Y-129737619D01*
X103828571Y-129832857D01*
X103828571Y-129928095D01*
X103780952Y-130023333D01*
X103733333Y-130070952D01*
X103638095Y-130118571D01*
X103304761Y-130118571D01*
X104780952Y-130642380D02*
X104304761Y-130642380D01*
X104304761Y-129642380D01*
X105066666Y-130356666D02*
X105542857Y-130356666D01*
X104971428Y-130642380D02*
X105304761Y-129642380D01*
X105638095Y-130642380D01*
X106542857Y-130547142D02*
X106495238Y-130594761D01*
X106352380Y-130642380D01*
X106257142Y-130642380D01*
X106114285Y-130594761D01*
X106019047Y-130499523D01*
X105971428Y-130404285D01*
X105923809Y-130213809D01*
X105923809Y-130070952D01*
X105971428Y-129880476D01*
X106019047Y-129785238D01*
X106114285Y-129690000D01*
X106257142Y-129642380D01*
X106352380Y-129642380D01*
X106495238Y-129690000D01*
X106542857Y-129737619D01*
X106971428Y-130642380D02*
X106971428Y-129642380D01*
X107542857Y-130642380D02*
X107114285Y-130070952D01*
X107542857Y-129642380D02*
X106971428Y-130213809D01*
X103638095Y-171478571D02*
X103780952Y-171526190D01*
X103828571Y-171573809D01*
X103876190Y-171669047D01*
X103876190Y-171811904D01*
X103828571Y-171907142D01*
X103780952Y-171954761D01*
X103685714Y-172002380D01*
X103304761Y-172002380D01*
X103304761Y-171002380D01*
X103638095Y-171002380D01*
X103733333Y-171050000D01*
X103780952Y-171097619D01*
X103828571Y-171192857D01*
X103828571Y-171288095D01*
X103780952Y-171383333D01*
X103733333Y-171430952D01*
X103638095Y-171478571D01*
X103304761Y-171478571D01*
X104780952Y-172002380D02*
X104304761Y-172002380D01*
X104304761Y-171002380D01*
X105066666Y-171716666D02*
X105542857Y-171716666D01*
X104971428Y-172002380D02*
X105304761Y-171002380D01*
X105638095Y-172002380D01*
X106542857Y-171907142D02*
X106495238Y-171954761D01*
X106352380Y-172002380D01*
X106257142Y-172002380D01*
X106114285Y-171954761D01*
X106019047Y-171859523D01*
X105971428Y-171764285D01*
X105923809Y-171573809D01*
X105923809Y-171430952D01*
X105971428Y-171240476D01*
X106019047Y-171145238D01*
X106114285Y-171050000D01*
X106257142Y-171002380D01*
X106352380Y-171002380D01*
X106495238Y-171050000D01*
X106542857Y-171097619D01*
X106971428Y-172002380D02*
X106971428Y-171002380D01*
X107542857Y-172002380D02*
X107114285Y-171430952D01*
X107542857Y-171002380D02*
X106971428Y-171573809D01*
X103638095Y-163838571D02*
X103780952Y-163886190D01*
X103828571Y-163933809D01*
X103876190Y-164029047D01*
X103876190Y-164171904D01*
X103828571Y-164267142D01*
X103780952Y-164314761D01*
X103685714Y-164362380D01*
X103304761Y-164362380D01*
X103304761Y-163362380D01*
X103638095Y-163362380D01*
X103733333Y-163410000D01*
X103780952Y-163457619D01*
X103828571Y-163552857D01*
X103828571Y-163648095D01*
X103780952Y-163743333D01*
X103733333Y-163790952D01*
X103638095Y-163838571D01*
X103304761Y-163838571D01*
X104780952Y-164362380D02*
X104304761Y-164362380D01*
X104304761Y-163362380D01*
X105066666Y-164076666D02*
X105542857Y-164076666D01*
X104971428Y-164362380D02*
X105304761Y-163362380D01*
X105638095Y-164362380D01*
X106542857Y-164267142D02*
X106495238Y-164314761D01*
X106352380Y-164362380D01*
X106257142Y-164362380D01*
X106114285Y-164314761D01*
X106019047Y-164219523D01*
X105971428Y-164124285D01*
X105923809Y-163933809D01*
X105923809Y-163790952D01*
X105971428Y-163600476D01*
X106019047Y-163505238D01*
X106114285Y-163410000D01*
X106257142Y-163362380D01*
X106352380Y-163362380D01*
X106495238Y-163410000D01*
X106542857Y-163457619D01*
X106971428Y-164362380D02*
X106971428Y-163362380D01*
X107542857Y-164362380D02*
X107114285Y-163790952D01*
X107542857Y-163362380D02*
X106971428Y-163933809D01*
X103638095Y-205528571D02*
X103780952Y-205576190D01*
X103828571Y-205623809D01*
X103876190Y-205719047D01*
X103876190Y-205861904D01*
X103828571Y-205957142D01*
X103780952Y-206004761D01*
X103685714Y-206052380D01*
X103304761Y-206052380D01*
X103304761Y-205052380D01*
X103638095Y-205052380D01*
X103733333Y-205100000D01*
X103780952Y-205147619D01*
X103828571Y-205242857D01*
X103828571Y-205338095D01*
X103780952Y-205433333D01*
X103733333Y-205480952D01*
X103638095Y-205528571D01*
X103304761Y-205528571D01*
X104780952Y-206052380D02*
X104304761Y-206052380D01*
X104304761Y-205052380D01*
X105066666Y-205766666D02*
X105542857Y-205766666D01*
X104971428Y-206052380D02*
X105304761Y-205052380D01*
X105638095Y-206052380D01*
X106542857Y-205957142D02*
X106495238Y-206004761D01*
X106352380Y-206052380D01*
X106257142Y-206052380D01*
X106114285Y-206004761D01*
X106019047Y-205909523D01*
X105971428Y-205814285D01*
X105923809Y-205623809D01*
X105923809Y-205480952D01*
X105971428Y-205290476D01*
X106019047Y-205195238D01*
X106114285Y-205100000D01*
X106257142Y-205052380D01*
X106352380Y-205052380D01*
X106495238Y-205100000D01*
X106542857Y-205147619D01*
X106971428Y-206052380D02*
X106971428Y-205052380D01*
X107542857Y-206052380D02*
X107114285Y-205480952D01*
X107542857Y-205052380D02*
X106971428Y-205623809D01*
X127288095Y-47758571D02*
X127430952Y-47806190D01*
X127478571Y-47853809D01*
X127526190Y-47949047D01*
X127526190Y-48091904D01*
X127478571Y-48187142D01*
X127430952Y-48234761D01*
X127335714Y-48282380D01*
X126954761Y-48282380D01*
X126954761Y-47282380D01*
X127288095Y-47282380D01*
X127383333Y-47330000D01*
X127430952Y-47377619D01*
X127478571Y-47472857D01*
X127478571Y-47568095D01*
X127430952Y-47663333D01*
X127383333Y-47710952D01*
X127288095Y-47758571D01*
X126954761Y-47758571D01*
X128430952Y-48282380D02*
X127954761Y-48282380D01*
X127954761Y-47282380D01*
X128716666Y-47996666D02*
X129192857Y-47996666D01*
X128621428Y-48282380D02*
X128954761Y-47282380D01*
X129288095Y-48282380D01*
X130192857Y-48187142D02*
X130145238Y-48234761D01*
X130002380Y-48282380D01*
X129907142Y-48282380D01*
X129764285Y-48234761D01*
X129669047Y-48139523D01*
X129621428Y-48044285D01*
X129573809Y-47853809D01*
X129573809Y-47710952D01*
X129621428Y-47520476D01*
X129669047Y-47425238D01*
X129764285Y-47330000D01*
X129907142Y-47282380D01*
X130002380Y-47282380D01*
X130145238Y-47330000D01*
X130192857Y-47377619D01*
X130621428Y-48282380D02*
X130621428Y-47282380D01*
X131192857Y-48282380D02*
X130764285Y-47710952D01*
X131192857Y-47282380D02*
X130621428Y-47853809D01*
X127288095Y-88478571D02*
X127430952Y-88526190D01*
X127478571Y-88573809D01*
X127526190Y-88669047D01*
X127526190Y-88811904D01*
X127478571Y-88907142D01*
X127430952Y-88954761D01*
X127335714Y-89002380D01*
X126954761Y-89002380D01*
X126954761Y-88002380D01*
X127288095Y-88002380D01*
X127383333Y-88050000D01*
X127430952Y-88097619D01*
X127478571Y-88192857D01*
X127478571Y-88288095D01*
X127430952Y-88383333D01*
X127383333Y-88430952D01*
X127288095Y-88478571D01*
X126954761Y-88478571D01*
X128430952Y-89002380D02*
X127954761Y-89002380D01*
X127954761Y-88002380D01*
X128716666Y-88716666D02*
X129192857Y-88716666D01*
X128621428Y-89002380D02*
X128954761Y-88002380D01*
X129288095Y-89002380D01*
X130192857Y-88907142D02*
X130145238Y-88954761D01*
X130002380Y-89002380D01*
X129907142Y-89002380D01*
X129764285Y-88954761D01*
X129669047Y-88859523D01*
X129621428Y-88764285D01*
X129573809Y-88573809D01*
X129573809Y-88430952D01*
X129621428Y-88240476D01*
X129669047Y-88145238D01*
X129764285Y-88050000D01*
X129907142Y-88002380D01*
X130002380Y-88002380D01*
X130145238Y-88050000D01*
X130192857Y-88097619D01*
X130621428Y-89002380D02*
X130621428Y-88002380D01*
X131192857Y-89002380D02*
X130764285Y-88430952D01*
X131192857Y-88002380D02*
X130621428Y-88573809D01*
X127288095Y-81378571D02*
X127430952Y-81426190D01*
X127478571Y-81473809D01*
X127526190Y-81569047D01*
X127526190Y-81711904D01*
X127478571Y-81807142D01*
X127430952Y-81854761D01*
X127335714Y-81902380D01*
X126954761Y-81902380D01*
X126954761Y-80902380D01*
X127288095Y-80902380D01*
X127383333Y-80950000D01*
X127430952Y-80997619D01*
X127478571Y-81092857D01*
X127478571Y-81188095D01*
X127430952Y-81283333D01*
X127383333Y-81330952D01*
X127288095Y-81378571D01*
X126954761Y-81378571D01*
X128430952Y-81902380D02*
X127954761Y-81902380D01*
X127954761Y-80902380D01*
X128716666Y-81616666D02*
X129192857Y-81616666D01*
X128621428Y-81902380D02*
X128954761Y-80902380D01*
X129288095Y-81902380D01*
X130192857Y-81807142D02*
X130145238Y-81854761D01*
X130002380Y-81902380D01*
X129907142Y-81902380D01*
X129764285Y-81854761D01*
X129669047Y-81759523D01*
X129621428Y-81664285D01*
X129573809Y-81473809D01*
X129573809Y-81330952D01*
X129621428Y-81140476D01*
X129669047Y-81045238D01*
X129764285Y-80950000D01*
X129907142Y-80902380D01*
X130002380Y-80902380D01*
X130145238Y-80950000D01*
X130192857Y-80997619D01*
X130621428Y-81902380D02*
X130621428Y-80902380D01*
X131192857Y-81902380D02*
X130764285Y-81330952D01*
X131192857Y-80902380D02*
X130621428Y-81473809D01*
X127288095Y-122378571D02*
X127430952Y-122426190D01*
X127478571Y-122473809D01*
X127526190Y-122569047D01*
X127526190Y-122711904D01*
X127478571Y-122807142D01*
X127430952Y-122854761D01*
X127335714Y-122902380D01*
X126954761Y-122902380D01*
X126954761Y-121902380D01*
X127288095Y-121902380D01*
X127383333Y-121950000D01*
X127430952Y-121997619D01*
X127478571Y-122092857D01*
X127478571Y-122188095D01*
X127430952Y-122283333D01*
X127383333Y-122330952D01*
X127288095Y-122378571D01*
X126954761Y-122378571D01*
X128430952Y-122902380D02*
X127954761Y-122902380D01*
X127954761Y-121902380D01*
X128716666Y-122616666D02*
X129192857Y-122616666D01*
X128621428Y-122902380D02*
X128954761Y-121902380D01*
X129288095Y-122902380D01*
X130192857Y-122807142D02*
X130145238Y-122854761D01*
X130002380Y-122902380D01*
X129907142Y-122902380D01*
X129764285Y-122854761D01*
X129669047Y-122759523D01*
X129621428Y-122664285D01*
X129573809Y-122473809D01*
X129573809Y-122330952D01*
X129621428Y-122140476D01*
X129669047Y-122045238D01*
X129764285Y-121950000D01*
X129907142Y-121902380D01*
X130002380Y-121902380D01*
X130145238Y-121950000D01*
X130192857Y-121997619D01*
X130621428Y-122902380D02*
X130621428Y-121902380D01*
X131192857Y-122902380D02*
X130764285Y-122330952D01*
X131192857Y-121902380D02*
X130621428Y-122473809D01*
X127288095Y-130118571D02*
X127430952Y-130166190D01*
X127478571Y-130213809D01*
X127526190Y-130309047D01*
X127526190Y-130451904D01*
X127478571Y-130547142D01*
X127430952Y-130594761D01*
X127335714Y-130642380D01*
X126954761Y-130642380D01*
X126954761Y-129642380D01*
X127288095Y-129642380D01*
X127383333Y-129690000D01*
X127430952Y-129737619D01*
X127478571Y-129832857D01*
X127478571Y-129928095D01*
X127430952Y-130023333D01*
X127383333Y-130070952D01*
X127288095Y-130118571D01*
X126954761Y-130118571D01*
X128430952Y-130642380D02*
X127954761Y-130642380D01*
X127954761Y-129642380D01*
X128716666Y-130356666D02*
X129192857Y-130356666D01*
X128621428Y-130642380D02*
X128954761Y-129642380D01*
X129288095Y-130642380D01*
X130192857Y-130547142D02*
X130145238Y-130594761D01*
X130002380Y-130642380D01*
X129907142Y-130642380D01*
X129764285Y-130594761D01*
X129669047Y-130499523D01*
X129621428Y-130404285D01*
X129573809Y-130213809D01*
X129573809Y-130070952D01*
X129621428Y-129880476D01*
X129669047Y-129785238D01*
X129764285Y-129690000D01*
X129907142Y-129642380D01*
X130002380Y-129642380D01*
X130145238Y-129690000D01*
X130192857Y-129737619D01*
X130621428Y-130642380D02*
X130621428Y-129642380D01*
X131192857Y-130642380D02*
X130764285Y-130070952D01*
X131192857Y-129642380D02*
X130621428Y-130213809D01*
X127288095Y-171478571D02*
X127430952Y-171526190D01*
X127478571Y-171573809D01*
X127526190Y-171669047D01*
X127526190Y-171811904D01*
X127478571Y-171907142D01*
X127430952Y-171954761D01*
X127335714Y-172002380D01*
X126954761Y-172002380D01*
X126954761Y-171002380D01*
X127288095Y-171002380D01*
X127383333Y-171050000D01*
X127430952Y-171097619D01*
X127478571Y-171192857D01*
X127478571Y-171288095D01*
X127430952Y-171383333D01*
X127383333Y-171430952D01*
X127288095Y-171478571D01*
X126954761Y-171478571D01*
X128430952Y-172002380D02*
X127954761Y-172002380D01*
X127954761Y-171002380D01*
X128716666Y-171716666D02*
X129192857Y-171716666D01*
X128621428Y-172002380D02*
X128954761Y-171002380D01*
X129288095Y-172002380D01*
X130192857Y-171907142D02*
X130145238Y-171954761D01*
X130002380Y-172002380D01*
X129907142Y-172002380D01*
X129764285Y-171954761D01*
X129669047Y-171859523D01*
X129621428Y-171764285D01*
X129573809Y-171573809D01*
X129573809Y-171430952D01*
X129621428Y-171240476D01*
X129669047Y-171145238D01*
X129764285Y-171050000D01*
X129907142Y-171002380D01*
X130002380Y-171002380D01*
X130145238Y-171050000D01*
X130192857Y-171097619D01*
X130621428Y-172002380D02*
X130621428Y-171002380D01*
X131192857Y-172002380D02*
X130764285Y-171430952D01*
X131192857Y-171002380D02*
X130621428Y-171573809D01*
X127288095Y-163838571D02*
X127430952Y-163886190D01*
X127478571Y-163933809D01*
X127526190Y-164029047D01*
X127526190Y-164171904D01*
X127478571Y-164267142D01*
X127430952Y-164314761D01*
X127335714Y-164362380D01*
X126954761Y-164362380D01*
X126954761Y-163362380D01*
X127288095Y-163362380D01*
X127383333Y-163410000D01*
X127430952Y-163457619D01*
X127478571Y-163552857D01*
X127478571Y-163648095D01*
X127430952Y-163743333D01*
X127383333Y-163790952D01*
X127288095Y-163838571D01*
X126954761Y-163838571D01*
X128430952Y-164362380D02*
X127954761Y-164362380D01*
X127954761Y-163362380D01*
X128716666Y-164076666D02*
X129192857Y-164076666D01*
X128621428Y-164362380D02*
X128954761Y-163362380D01*
X129288095Y-164362380D01*
X130192857Y-164267142D02*
X130145238Y-164314761D01*
X130002380Y-164362380D01*
X129907142Y-164362380D01*
X129764285Y-164314761D01*
X129669047Y-164219523D01*
X129621428Y-164124285D01*
X129573809Y-163933809D01*
X129573809Y-163790952D01*
X129621428Y-163600476D01*
X129669047Y-163505238D01*
X129764285Y-163410000D01*
X129907142Y-163362380D01*
X130002380Y-163362380D01*
X130145238Y-163410000D01*
X130192857Y-163457619D01*
X130621428Y-164362380D02*
X130621428Y-163362380D01*
X131192857Y-164362380D02*
X130764285Y-163790952D01*
X131192857Y-163362380D02*
X130621428Y-163933809D01*
X127288095Y-205528571D02*
X127430952Y-205576190D01*
X127478571Y-205623809D01*
X127526190Y-205719047D01*
X127526190Y-205861904D01*
X127478571Y-205957142D01*
X127430952Y-206004761D01*
X127335714Y-206052380D01*
X126954761Y-206052380D01*
X126954761Y-205052380D01*
X127288095Y-205052380D01*
X127383333Y-205100000D01*
X127430952Y-205147619D01*
X127478571Y-205242857D01*
X127478571Y-205338095D01*
X127430952Y-205433333D01*
X127383333Y-205480952D01*
X127288095Y-205528571D01*
X126954761Y-205528571D01*
X128430952Y-206052380D02*
X127954761Y-206052380D01*
X127954761Y-205052380D01*
X128716666Y-205766666D02*
X129192857Y-205766666D01*
X128621428Y-206052380D02*
X128954761Y-205052380D01*
X129288095Y-206052380D01*
X130192857Y-205957142D02*
X130145238Y-206004761D01*
X130002380Y-206052380D01*
X129907142Y-206052380D01*
X129764285Y-206004761D01*
X129669047Y-205909523D01*
X129621428Y-205814285D01*
X129573809Y-205623809D01*
X129573809Y-205480952D01*
X129621428Y-205290476D01*
X129669047Y-205195238D01*
X129764285Y-205100000D01*
X129907142Y-205052380D01*
X130002380Y-205052380D01*
X130145238Y-205100000D01*
X130192857Y-205147619D01*
X130621428Y-206052380D02*
X130621428Y-205052380D01*
X131192857Y-206052380D02*
X130764285Y-205480952D01*
X131192857Y-205052380D02*
X130621428Y-205623809D01*
X167458095Y-45808571D02*
X167600952Y-45856190D01*
X167648571Y-45903809D01*
X167696190Y-45999047D01*
X167696190Y-46141904D01*
X167648571Y-46237142D01*
X167600952Y-46284761D01*
X167505714Y-46332380D01*
X167124761Y-46332380D01*
X167124761Y-45332380D01*
X167458095Y-45332380D01*
X167553333Y-45380000D01*
X167600952Y-45427619D01*
X167648571Y-45522857D01*
X167648571Y-45618095D01*
X167600952Y-45713333D01*
X167553333Y-45760952D01*
X167458095Y-45808571D01*
X167124761Y-45808571D01*
X168600952Y-46332380D02*
X168124761Y-46332380D01*
X168124761Y-45332380D01*
X168886666Y-46046666D02*
X169362857Y-46046666D01*
X168791428Y-46332380D02*
X169124761Y-45332380D01*
X169458095Y-46332380D01*
X170362857Y-46237142D02*
X170315238Y-46284761D01*
X170172380Y-46332380D01*
X170077142Y-46332380D01*
X169934285Y-46284761D01*
X169839047Y-46189523D01*
X169791428Y-46094285D01*
X169743809Y-45903809D01*
X169743809Y-45760952D01*
X169791428Y-45570476D01*
X169839047Y-45475238D01*
X169934285Y-45380000D01*
X170077142Y-45332380D01*
X170172380Y-45332380D01*
X170315238Y-45380000D01*
X170362857Y-45427619D01*
X170791428Y-46332380D02*
X170791428Y-45332380D01*
X171362857Y-46332380D02*
X170934285Y-45760952D01*
X171362857Y-45332380D02*
X170791428Y-45903809D01*
X167458095Y-83268571D02*
X167600952Y-83316190D01*
X167648571Y-83363809D01*
X167696190Y-83459047D01*
X167696190Y-83601904D01*
X167648571Y-83697142D01*
X167600952Y-83744761D01*
X167505714Y-83792380D01*
X167124761Y-83792380D01*
X167124761Y-82792380D01*
X167458095Y-82792380D01*
X167553333Y-82840000D01*
X167600952Y-82887619D01*
X167648571Y-82982857D01*
X167648571Y-83078095D01*
X167600952Y-83173333D01*
X167553333Y-83220952D01*
X167458095Y-83268571D01*
X167124761Y-83268571D01*
X168600952Y-83792380D02*
X168124761Y-83792380D01*
X168124761Y-82792380D01*
X168886666Y-83506666D02*
X169362857Y-83506666D01*
X168791428Y-83792380D02*
X169124761Y-82792380D01*
X169458095Y-83792380D01*
X170362857Y-83697142D02*
X170315238Y-83744761D01*
X170172380Y-83792380D01*
X170077142Y-83792380D01*
X169934285Y-83744761D01*
X169839047Y-83649523D01*
X169791428Y-83554285D01*
X169743809Y-83363809D01*
X169743809Y-83220952D01*
X169791428Y-83030476D01*
X169839047Y-82935238D01*
X169934285Y-82840000D01*
X170077142Y-82792380D01*
X170172380Y-82792380D01*
X170315238Y-82840000D01*
X170362857Y-82887619D01*
X170791428Y-83792380D02*
X170791428Y-82792380D01*
X171362857Y-83792380D02*
X170934285Y-83220952D01*
X171362857Y-82792380D02*
X170791428Y-83363809D01*
X167458095Y-87288571D02*
X167600952Y-87336190D01*
X167648571Y-87383809D01*
X167696190Y-87479047D01*
X167696190Y-87621904D01*
X167648571Y-87717142D01*
X167600952Y-87764761D01*
X167505714Y-87812380D01*
X167124761Y-87812380D01*
X167124761Y-86812380D01*
X167458095Y-86812380D01*
X167553333Y-86860000D01*
X167600952Y-86907619D01*
X167648571Y-87002857D01*
X167648571Y-87098095D01*
X167600952Y-87193333D01*
X167553333Y-87240952D01*
X167458095Y-87288571D01*
X167124761Y-87288571D01*
X168600952Y-87812380D02*
X168124761Y-87812380D01*
X168124761Y-86812380D01*
X168886666Y-87526666D02*
X169362857Y-87526666D01*
X168791428Y-87812380D02*
X169124761Y-86812380D01*
X169458095Y-87812380D01*
X170362857Y-87717142D02*
X170315238Y-87764761D01*
X170172380Y-87812380D01*
X170077142Y-87812380D01*
X169934285Y-87764761D01*
X169839047Y-87669523D01*
X169791428Y-87574285D01*
X169743809Y-87383809D01*
X169743809Y-87240952D01*
X169791428Y-87050476D01*
X169839047Y-86955238D01*
X169934285Y-86860000D01*
X170077142Y-86812380D01*
X170172380Y-86812380D01*
X170315238Y-86860000D01*
X170362857Y-86907619D01*
X170791428Y-87812380D02*
X170791428Y-86812380D01*
X171362857Y-87812380D02*
X170934285Y-87240952D01*
X171362857Y-86812380D02*
X170791428Y-87383809D01*
X167458095Y-124528571D02*
X167600952Y-124576190D01*
X167648571Y-124623809D01*
X167696190Y-124719047D01*
X167696190Y-124861904D01*
X167648571Y-124957142D01*
X167600952Y-125004761D01*
X167505714Y-125052380D01*
X167124761Y-125052380D01*
X167124761Y-124052380D01*
X167458095Y-124052380D01*
X167553333Y-124100000D01*
X167600952Y-124147619D01*
X167648571Y-124242857D01*
X167648571Y-124338095D01*
X167600952Y-124433333D01*
X167553333Y-124480952D01*
X167458095Y-124528571D01*
X167124761Y-124528571D01*
X168600952Y-125052380D02*
X168124761Y-125052380D01*
X168124761Y-124052380D01*
X168886666Y-124766666D02*
X169362857Y-124766666D01*
X168791428Y-125052380D02*
X169124761Y-124052380D01*
X169458095Y-125052380D01*
X170362857Y-124957142D02*
X170315238Y-125004761D01*
X170172380Y-125052380D01*
X170077142Y-125052380D01*
X169934285Y-125004761D01*
X169839047Y-124909523D01*
X169791428Y-124814285D01*
X169743809Y-124623809D01*
X169743809Y-124480952D01*
X169791428Y-124290476D01*
X169839047Y-124195238D01*
X169934285Y-124100000D01*
X170077142Y-124052380D01*
X170172380Y-124052380D01*
X170315238Y-124100000D01*
X170362857Y-124147619D01*
X170791428Y-125052380D02*
X170791428Y-124052380D01*
X171362857Y-125052380D02*
X170934285Y-124480952D01*
X171362857Y-124052380D02*
X170791428Y-124623809D01*
X167458095Y-128598571D02*
X167600952Y-128646190D01*
X167648571Y-128693809D01*
X167696190Y-128789047D01*
X167696190Y-128931904D01*
X167648571Y-129027142D01*
X167600952Y-129074761D01*
X167505714Y-129122380D01*
X167124761Y-129122380D01*
X167124761Y-128122380D01*
X167458095Y-128122380D01*
X167553333Y-128170000D01*
X167600952Y-128217619D01*
X167648571Y-128312857D01*
X167648571Y-128408095D01*
X167600952Y-128503333D01*
X167553333Y-128550952D01*
X167458095Y-128598571D01*
X167124761Y-128598571D01*
X168600952Y-129122380D02*
X168124761Y-129122380D01*
X168124761Y-128122380D01*
X168886666Y-128836666D02*
X169362857Y-128836666D01*
X168791428Y-129122380D02*
X169124761Y-128122380D01*
X169458095Y-129122380D01*
X170362857Y-129027142D02*
X170315238Y-129074761D01*
X170172380Y-129122380D01*
X170077142Y-129122380D01*
X169934285Y-129074761D01*
X169839047Y-128979523D01*
X169791428Y-128884285D01*
X169743809Y-128693809D01*
X169743809Y-128550952D01*
X169791428Y-128360476D01*
X169839047Y-128265238D01*
X169934285Y-128170000D01*
X170077142Y-128122380D01*
X170172380Y-128122380D01*
X170315238Y-128170000D01*
X170362857Y-128217619D01*
X170791428Y-129122380D02*
X170791428Y-128122380D01*
X171362857Y-129122380D02*
X170934285Y-128550952D01*
X171362857Y-128122380D02*
X170791428Y-128693809D01*
X167458095Y-165758571D02*
X167600952Y-165806190D01*
X167648571Y-165853809D01*
X167696190Y-165949047D01*
X167696190Y-166091904D01*
X167648571Y-166187142D01*
X167600952Y-166234761D01*
X167505714Y-166282380D01*
X167124761Y-166282380D01*
X167124761Y-165282380D01*
X167458095Y-165282380D01*
X167553333Y-165330000D01*
X167600952Y-165377619D01*
X167648571Y-165472857D01*
X167648571Y-165568095D01*
X167600952Y-165663333D01*
X167553333Y-165710952D01*
X167458095Y-165758571D01*
X167124761Y-165758571D01*
X168600952Y-166282380D02*
X168124761Y-166282380D01*
X168124761Y-165282380D01*
X168886666Y-165996666D02*
X169362857Y-165996666D01*
X168791428Y-166282380D02*
X169124761Y-165282380D01*
X169458095Y-166282380D01*
X170362857Y-166187142D02*
X170315238Y-166234761D01*
X170172380Y-166282380D01*
X170077142Y-166282380D01*
X169934285Y-166234761D01*
X169839047Y-166139523D01*
X169791428Y-166044285D01*
X169743809Y-165853809D01*
X169743809Y-165710952D01*
X169791428Y-165520476D01*
X169839047Y-165425238D01*
X169934285Y-165330000D01*
X170077142Y-165282380D01*
X170172380Y-165282380D01*
X170315238Y-165330000D01*
X170362857Y-165377619D01*
X170791428Y-166282380D02*
X170791428Y-165282380D01*
X171362857Y-166282380D02*
X170934285Y-165710952D01*
X171362857Y-165282380D02*
X170791428Y-165853809D01*
X167458095Y-169608571D02*
X167600952Y-169656190D01*
X167648571Y-169703809D01*
X167696190Y-169799047D01*
X167696190Y-169941904D01*
X167648571Y-170037142D01*
X167600952Y-170084761D01*
X167505714Y-170132380D01*
X167124761Y-170132380D01*
X167124761Y-169132380D01*
X167458095Y-169132380D01*
X167553333Y-169180000D01*
X167600952Y-169227619D01*
X167648571Y-169322857D01*
X167648571Y-169418095D01*
X167600952Y-169513333D01*
X167553333Y-169560952D01*
X167458095Y-169608571D01*
X167124761Y-169608571D01*
X168600952Y-170132380D02*
X168124761Y-170132380D01*
X168124761Y-169132380D01*
X168886666Y-169846666D02*
X169362857Y-169846666D01*
X168791428Y-170132380D02*
X169124761Y-169132380D01*
X169458095Y-170132380D01*
X170362857Y-170037142D02*
X170315238Y-170084761D01*
X170172380Y-170132380D01*
X170077142Y-170132380D01*
X169934285Y-170084761D01*
X169839047Y-169989523D01*
X169791428Y-169894285D01*
X169743809Y-169703809D01*
X169743809Y-169560952D01*
X169791428Y-169370476D01*
X169839047Y-169275238D01*
X169934285Y-169180000D01*
X170077142Y-169132380D01*
X170172380Y-169132380D01*
X170315238Y-169180000D01*
X170362857Y-169227619D01*
X170791428Y-170132380D02*
X170791428Y-169132380D01*
X171362857Y-170132380D02*
X170934285Y-169560952D01*
X171362857Y-169132380D02*
X170791428Y-169703809D01*
X167458095Y-206868571D02*
X167600952Y-206916190D01*
X167648571Y-206963809D01*
X167696190Y-207059047D01*
X167696190Y-207201904D01*
X167648571Y-207297142D01*
X167600952Y-207344761D01*
X167505714Y-207392380D01*
X167124761Y-207392380D01*
X167124761Y-206392380D01*
X167458095Y-206392380D01*
X167553333Y-206440000D01*
X167600952Y-206487619D01*
X167648571Y-206582857D01*
X167648571Y-206678095D01*
X167600952Y-206773333D01*
X167553333Y-206820952D01*
X167458095Y-206868571D01*
X167124761Y-206868571D01*
X168600952Y-207392380D02*
X168124761Y-207392380D01*
X168124761Y-206392380D01*
X168886666Y-207106666D02*
X169362857Y-207106666D01*
X168791428Y-207392380D02*
X169124761Y-206392380D01*
X169458095Y-207392380D01*
X170362857Y-207297142D02*
X170315238Y-207344761D01*
X170172380Y-207392380D01*
X170077142Y-207392380D01*
X169934285Y-207344761D01*
X169839047Y-207249523D01*
X169791428Y-207154285D01*
X169743809Y-206963809D01*
X169743809Y-206820952D01*
X169791428Y-206630476D01*
X169839047Y-206535238D01*
X169934285Y-206440000D01*
X170077142Y-206392380D01*
X170172380Y-206392380D01*
X170315238Y-206440000D01*
X170362857Y-206487619D01*
X170791428Y-207392380D02*
X170791428Y-206392380D01*
X171362857Y-207392380D02*
X170934285Y-206820952D01*
X171362857Y-206392380D02*
X170791428Y-206963809D01*
%TO.C,Q1*%
X46294761Y-97437619D02*
X46199523Y-97390000D01*
X46104285Y-97294761D01*
X45961428Y-97151904D01*
X45866190Y-97104285D01*
X45770952Y-97104285D01*
X45818571Y-97342380D02*
X45723333Y-97294761D01*
X45628095Y-97199523D01*
X45580476Y-97009047D01*
X45580476Y-96675714D01*
X45628095Y-96485238D01*
X45723333Y-96390000D01*
X45818571Y-96342380D01*
X46009047Y-96342380D01*
X46104285Y-96390000D01*
X46199523Y-96485238D01*
X46247142Y-96675714D01*
X46247142Y-97009047D01*
X46199523Y-97199523D01*
X46104285Y-97294761D01*
X46009047Y-97342380D01*
X45818571Y-97342380D01*
X47199523Y-97342380D02*
X46628095Y-97342380D01*
X46913809Y-97342380D02*
X46913809Y-96342380D01*
X46818571Y-96485238D01*
X46723333Y-96580476D01*
X46628095Y-96628095D01*
%TO.C,Q2*%
X77344761Y-138447619D02*
X77249523Y-138400000D01*
X77154285Y-138304761D01*
X77011428Y-138161904D01*
X76916190Y-138114285D01*
X76820952Y-138114285D01*
X76868571Y-138352380D02*
X76773333Y-138304761D01*
X76678095Y-138209523D01*
X76630476Y-138019047D01*
X76630476Y-137685714D01*
X76678095Y-137495238D01*
X76773333Y-137400000D01*
X76868571Y-137352380D01*
X77059047Y-137352380D01*
X77154285Y-137400000D01*
X77249523Y-137495238D01*
X77297142Y-137685714D01*
X77297142Y-138019047D01*
X77249523Y-138209523D01*
X77154285Y-138304761D01*
X77059047Y-138352380D01*
X76868571Y-138352380D01*
X77678095Y-137447619D02*
X77725714Y-137400000D01*
X77820952Y-137352380D01*
X78059047Y-137352380D01*
X78154285Y-137400000D01*
X78201904Y-137447619D01*
X78249523Y-137542857D01*
X78249523Y-137638095D01*
X78201904Y-137780952D01*
X77630476Y-138352380D01*
X78249523Y-138352380D01*
%TO.C,Q3*%
X48334761Y-180317619D02*
X48239523Y-180270000D01*
X48144285Y-180174761D01*
X48001428Y-180031904D01*
X47906190Y-179984285D01*
X47810952Y-179984285D01*
X47858571Y-180222380D02*
X47763333Y-180174761D01*
X47668095Y-180079523D01*
X47620476Y-179889047D01*
X47620476Y-179555714D01*
X47668095Y-179365238D01*
X47763333Y-179270000D01*
X47858571Y-179222380D01*
X48049047Y-179222380D01*
X48144285Y-179270000D01*
X48239523Y-179365238D01*
X48287142Y-179555714D01*
X48287142Y-179889047D01*
X48239523Y-180079523D01*
X48144285Y-180174761D01*
X48049047Y-180222380D01*
X47858571Y-180222380D01*
X48620476Y-179222380D02*
X49239523Y-179222380D01*
X48906190Y-179603333D01*
X49049047Y-179603333D01*
X49144285Y-179650952D01*
X49191904Y-179698571D01*
X49239523Y-179793809D01*
X49239523Y-180031904D01*
X49191904Y-180127142D01*
X49144285Y-180174761D01*
X49049047Y-180222380D01*
X48763333Y-180222380D01*
X48668095Y-180174761D01*
X48620476Y-180127142D01*
%TO.C,Q4*%
X86034761Y-165787619D02*
X85939523Y-165740000D01*
X85844285Y-165644761D01*
X85701428Y-165501904D01*
X85606190Y-165454285D01*
X85510952Y-165454285D01*
X85558571Y-165692380D02*
X85463333Y-165644761D01*
X85368095Y-165549523D01*
X85320476Y-165359047D01*
X85320476Y-165025714D01*
X85368095Y-164835238D01*
X85463333Y-164740000D01*
X85558571Y-164692380D01*
X85749047Y-164692380D01*
X85844285Y-164740000D01*
X85939523Y-164835238D01*
X85987142Y-165025714D01*
X85987142Y-165359047D01*
X85939523Y-165549523D01*
X85844285Y-165644761D01*
X85749047Y-165692380D01*
X85558571Y-165692380D01*
X86844285Y-165025714D02*
X86844285Y-165692380D01*
X86606190Y-164644761D02*
X86368095Y-165359047D01*
X86987142Y-165359047D01*
%TO.C,Q5*%
X63554761Y-98037619D02*
X63459523Y-97990000D01*
X63364285Y-97894761D01*
X63221428Y-97751904D01*
X63126190Y-97704285D01*
X63030952Y-97704285D01*
X63078571Y-97942380D02*
X62983333Y-97894761D01*
X62888095Y-97799523D01*
X62840476Y-97609047D01*
X62840476Y-97275714D01*
X62888095Y-97085238D01*
X62983333Y-96990000D01*
X63078571Y-96942380D01*
X63269047Y-96942380D01*
X63364285Y-96990000D01*
X63459523Y-97085238D01*
X63507142Y-97275714D01*
X63507142Y-97609047D01*
X63459523Y-97799523D01*
X63364285Y-97894761D01*
X63269047Y-97942380D01*
X63078571Y-97942380D01*
X64411904Y-96942380D02*
X63935714Y-96942380D01*
X63888095Y-97418571D01*
X63935714Y-97370952D01*
X64030952Y-97323333D01*
X64269047Y-97323333D01*
X64364285Y-97370952D01*
X64411904Y-97418571D01*
X64459523Y-97513809D01*
X64459523Y-97751904D01*
X64411904Y-97847142D01*
X64364285Y-97894761D01*
X64269047Y-97942380D01*
X64030952Y-97942380D01*
X63935714Y-97894761D01*
X63888095Y-97847142D01*
%TO.C,Q6*%
X90944761Y-138447619D02*
X90849523Y-138400000D01*
X90754285Y-138304761D01*
X90611428Y-138161904D01*
X90516190Y-138114285D01*
X90420952Y-138114285D01*
X90468571Y-138352380D02*
X90373333Y-138304761D01*
X90278095Y-138209523D01*
X90230476Y-138019047D01*
X90230476Y-137685714D01*
X90278095Y-137495238D01*
X90373333Y-137400000D01*
X90468571Y-137352380D01*
X90659047Y-137352380D01*
X90754285Y-137400000D01*
X90849523Y-137495238D01*
X90897142Y-137685714D01*
X90897142Y-138019047D01*
X90849523Y-138209523D01*
X90754285Y-138304761D01*
X90659047Y-138352380D01*
X90468571Y-138352380D01*
X91754285Y-137352380D02*
X91563809Y-137352380D01*
X91468571Y-137400000D01*
X91420952Y-137447619D01*
X91325714Y-137590476D01*
X91278095Y-137780952D01*
X91278095Y-138161904D01*
X91325714Y-138257142D01*
X91373333Y-138304761D01*
X91468571Y-138352380D01*
X91659047Y-138352380D01*
X91754285Y-138304761D01*
X91801904Y-138257142D01*
X91849523Y-138161904D01*
X91849523Y-137923809D01*
X91801904Y-137828571D01*
X91754285Y-137780952D01*
X91659047Y-137733333D01*
X91468571Y-137733333D01*
X91373333Y-137780952D01*
X91325714Y-137828571D01*
X91278095Y-137923809D01*
%TO.C,Q7*%
X65934761Y-180317619D02*
X65839523Y-180270000D01*
X65744285Y-180174761D01*
X65601428Y-180031904D01*
X65506190Y-179984285D01*
X65410952Y-179984285D01*
X65458571Y-180222380D02*
X65363333Y-180174761D01*
X65268095Y-180079523D01*
X65220476Y-179889047D01*
X65220476Y-179555714D01*
X65268095Y-179365238D01*
X65363333Y-179270000D01*
X65458571Y-179222380D01*
X65649047Y-179222380D01*
X65744285Y-179270000D01*
X65839523Y-179365238D01*
X65887142Y-179555714D01*
X65887142Y-179889047D01*
X65839523Y-180079523D01*
X65744285Y-180174761D01*
X65649047Y-180222380D01*
X65458571Y-180222380D01*
X66220476Y-179222380D02*
X66887142Y-179222380D01*
X66458571Y-180222380D01*
%TO.C,Q8*%
X72434761Y-165767619D02*
X72339523Y-165720000D01*
X72244285Y-165624761D01*
X72101428Y-165481904D01*
X72006190Y-165434285D01*
X71910952Y-165434285D01*
X71958571Y-165672380D02*
X71863333Y-165624761D01*
X71768095Y-165529523D01*
X71720476Y-165339047D01*
X71720476Y-165005714D01*
X71768095Y-164815238D01*
X71863333Y-164720000D01*
X71958571Y-164672380D01*
X72149047Y-164672380D01*
X72244285Y-164720000D01*
X72339523Y-164815238D01*
X72387142Y-165005714D01*
X72387142Y-165339047D01*
X72339523Y-165529523D01*
X72244285Y-165624761D01*
X72149047Y-165672380D01*
X71958571Y-165672380D01*
X72958571Y-165100952D02*
X72863333Y-165053333D01*
X72815714Y-165005714D01*
X72768095Y-164910476D01*
X72768095Y-164862857D01*
X72815714Y-164767619D01*
X72863333Y-164720000D01*
X72958571Y-164672380D01*
X73149047Y-164672380D01*
X73244285Y-164720000D01*
X73291904Y-164767619D01*
X73339523Y-164862857D01*
X73339523Y-164910476D01*
X73291904Y-165005714D01*
X73244285Y-165053333D01*
X73149047Y-165100952D01*
X72958571Y-165100952D01*
X72863333Y-165148571D01*
X72815714Y-165196190D01*
X72768095Y-165291428D01*
X72768095Y-165481904D01*
X72815714Y-165577142D01*
X72863333Y-165624761D01*
X72958571Y-165672380D01*
X73149047Y-165672380D01*
X73244285Y-165624761D01*
X73291904Y-165577142D01*
X73339523Y-165481904D01*
X73339523Y-165291428D01*
X73291904Y-165196190D01*
X73244285Y-165148571D01*
X73149047Y-165100952D01*
%TO.C,R1*%
X36733333Y-95312380D02*
X36400000Y-94836190D01*
X36161904Y-95312380D02*
X36161904Y-94312380D01*
X36542857Y-94312380D01*
X36638095Y-94360000D01*
X36685714Y-94407619D01*
X36733333Y-94502857D01*
X36733333Y-94645714D01*
X36685714Y-94740952D01*
X36638095Y-94788571D01*
X36542857Y-94836190D01*
X36161904Y-94836190D01*
X37685714Y-95312380D02*
X37114285Y-95312380D01*
X37400000Y-95312380D02*
X37400000Y-94312380D01*
X37304761Y-94455238D01*
X37209523Y-94550476D01*
X37114285Y-94598095D01*
%TO.C,R2*%
X67353333Y-135932380D02*
X67020000Y-135456190D01*
X66781904Y-135932380D02*
X66781904Y-134932380D01*
X67162857Y-134932380D01*
X67258095Y-134980000D01*
X67305714Y-135027619D01*
X67353333Y-135122857D01*
X67353333Y-135265714D01*
X67305714Y-135360952D01*
X67258095Y-135408571D01*
X67162857Y-135456190D01*
X66781904Y-135456190D01*
X67734285Y-135027619D02*
X67781904Y-134980000D01*
X67877142Y-134932380D01*
X68115238Y-134932380D01*
X68210476Y-134980000D01*
X68258095Y-135027619D01*
X68305714Y-135122857D01*
X68305714Y-135218095D01*
X68258095Y-135360952D01*
X67686666Y-135932380D01*
X68305714Y-135932380D01*
%TO.C,R3*%
X38343333Y-177832380D02*
X38010000Y-177356190D01*
X37771904Y-177832380D02*
X37771904Y-176832380D01*
X38152857Y-176832380D01*
X38248095Y-176880000D01*
X38295714Y-176927619D01*
X38343333Y-177022857D01*
X38343333Y-177165714D01*
X38295714Y-177260952D01*
X38248095Y-177308571D01*
X38152857Y-177356190D01*
X37771904Y-177356190D01*
X38676666Y-176832380D02*
X39295714Y-176832380D01*
X38962380Y-177213333D01*
X39105238Y-177213333D01*
X39200476Y-177260952D01*
X39248095Y-177308571D01*
X39295714Y-177403809D01*
X39295714Y-177641904D01*
X39248095Y-177737142D01*
X39200476Y-177784761D01*
X39105238Y-177832380D01*
X38819523Y-177832380D01*
X38724285Y-177784761D01*
X38676666Y-177737142D01*
%TO.C,R4*%
X95883333Y-168102380D02*
X95550000Y-167626190D01*
X95311904Y-168102380D02*
X95311904Y-167102380D01*
X95692857Y-167102380D01*
X95788095Y-167150000D01*
X95835714Y-167197619D01*
X95883333Y-167292857D01*
X95883333Y-167435714D01*
X95835714Y-167530952D01*
X95788095Y-167578571D01*
X95692857Y-167626190D01*
X95311904Y-167626190D01*
X96740476Y-167435714D02*
X96740476Y-168102380D01*
X96502380Y-167054761D02*
X96264285Y-167769047D01*
X96883333Y-167769047D01*
%TO.C,R5*%
X54083333Y-95672380D02*
X53750000Y-95196190D01*
X53511904Y-95672380D02*
X53511904Y-94672380D01*
X53892857Y-94672380D01*
X53988095Y-94720000D01*
X54035714Y-94767619D01*
X54083333Y-94862857D01*
X54083333Y-95005714D01*
X54035714Y-95100952D01*
X53988095Y-95148571D01*
X53892857Y-95196190D01*
X53511904Y-95196190D01*
X54988095Y-94672380D02*
X54511904Y-94672380D01*
X54464285Y-95148571D01*
X54511904Y-95100952D01*
X54607142Y-95053333D01*
X54845238Y-95053333D01*
X54940476Y-95100952D01*
X54988095Y-95148571D01*
X55035714Y-95243809D01*
X55035714Y-95481904D01*
X54988095Y-95577142D01*
X54940476Y-95624761D01*
X54845238Y-95672380D01*
X54607142Y-95672380D01*
X54511904Y-95624761D01*
X54464285Y-95577142D01*
%TO.C,R6*%
X81423333Y-135932380D02*
X81090000Y-135456190D01*
X80851904Y-135932380D02*
X80851904Y-134932380D01*
X81232857Y-134932380D01*
X81328095Y-134980000D01*
X81375714Y-135027619D01*
X81423333Y-135122857D01*
X81423333Y-135265714D01*
X81375714Y-135360952D01*
X81328095Y-135408571D01*
X81232857Y-135456190D01*
X80851904Y-135456190D01*
X82280476Y-134932380D02*
X82090000Y-134932380D01*
X81994761Y-134980000D01*
X81947142Y-135027619D01*
X81851904Y-135170476D01*
X81804285Y-135360952D01*
X81804285Y-135741904D01*
X81851904Y-135837142D01*
X81899523Y-135884761D01*
X81994761Y-135932380D01*
X82185238Y-135932380D01*
X82280476Y-135884761D01*
X82328095Y-135837142D01*
X82375714Y-135741904D01*
X82375714Y-135503809D01*
X82328095Y-135408571D01*
X82280476Y-135360952D01*
X82185238Y-135313333D01*
X81994761Y-135313333D01*
X81899523Y-135360952D01*
X81851904Y-135408571D01*
X81804285Y-135503809D01*
%TO.C,R7*%
X56413333Y-177832380D02*
X56080000Y-177356190D01*
X55841904Y-177832380D02*
X55841904Y-176832380D01*
X56222857Y-176832380D01*
X56318095Y-176880000D01*
X56365714Y-176927619D01*
X56413333Y-177022857D01*
X56413333Y-177165714D01*
X56365714Y-177260952D01*
X56318095Y-177308571D01*
X56222857Y-177356190D01*
X55841904Y-177356190D01*
X56746666Y-176832380D02*
X57413333Y-176832380D01*
X56984761Y-177832380D01*
%TO.C,R8*%
X81813333Y-168102380D02*
X81480000Y-167626190D01*
X81241904Y-168102380D02*
X81241904Y-167102380D01*
X81622857Y-167102380D01*
X81718095Y-167150000D01*
X81765714Y-167197619D01*
X81813333Y-167292857D01*
X81813333Y-167435714D01*
X81765714Y-167530952D01*
X81718095Y-167578571D01*
X81622857Y-167626190D01*
X81241904Y-167626190D01*
X82384761Y-167530952D02*
X82289523Y-167483333D01*
X82241904Y-167435714D01*
X82194285Y-167340476D01*
X82194285Y-167292857D01*
X82241904Y-167197619D01*
X82289523Y-167150000D01*
X82384761Y-167102380D01*
X82575238Y-167102380D01*
X82670476Y-167150000D01*
X82718095Y-167197619D01*
X82765714Y-167292857D01*
X82765714Y-167340476D01*
X82718095Y-167435714D01*
X82670476Y-167483333D01*
X82575238Y-167530952D01*
X82384761Y-167530952D01*
X82289523Y-167578571D01*
X82241904Y-167626190D01*
X82194285Y-167721428D01*
X82194285Y-167911904D01*
X82241904Y-168007142D01*
X82289523Y-168054761D01*
X82384761Y-168102380D01*
X82575238Y-168102380D01*
X82670476Y-168054761D01*
X82718095Y-168007142D01*
X82765714Y-167911904D01*
X82765714Y-167721428D01*
X82718095Y-167626190D01*
X82670476Y-167578571D01*
X82575238Y-167530952D01*
%TO.C,R9*%
X99443333Y-61882380D02*
X99110000Y-61406190D01*
X98871904Y-61882380D02*
X98871904Y-60882380D01*
X99252857Y-60882380D01*
X99348095Y-60930000D01*
X99395714Y-60977619D01*
X99443333Y-61072857D01*
X99443333Y-61215714D01*
X99395714Y-61310952D01*
X99348095Y-61358571D01*
X99252857Y-61406190D01*
X98871904Y-61406190D01*
X99919523Y-61882380D02*
X100110000Y-61882380D01*
X100205238Y-61834761D01*
X100252857Y-61787142D01*
X100348095Y-61644285D01*
X100395714Y-61453809D01*
X100395714Y-61072857D01*
X100348095Y-60977619D01*
X100300476Y-60930000D01*
X100205238Y-60882380D01*
X100014761Y-60882380D01*
X99919523Y-60930000D01*
X99871904Y-60977619D01*
X99824285Y-61072857D01*
X99824285Y-61310952D01*
X99871904Y-61406190D01*
X99919523Y-61453809D01*
X100014761Y-61501428D01*
X100205238Y-61501428D01*
X100300476Y-61453809D01*
X100348095Y-61406190D01*
X100395714Y-61310952D01*
%TO.C,R10*%
X110707142Y-103092380D02*
X110373809Y-102616190D01*
X110135714Y-103092380D02*
X110135714Y-102092380D01*
X110516666Y-102092380D01*
X110611904Y-102140000D01*
X110659523Y-102187619D01*
X110707142Y-102282857D01*
X110707142Y-102425714D01*
X110659523Y-102520952D01*
X110611904Y-102568571D01*
X110516666Y-102616190D01*
X110135714Y-102616190D01*
X111659523Y-103092380D02*
X111088095Y-103092380D01*
X111373809Y-103092380D02*
X111373809Y-102092380D01*
X111278571Y-102235238D01*
X111183333Y-102330476D01*
X111088095Y-102378095D01*
X112278571Y-102092380D02*
X112373809Y-102092380D01*
X112469047Y-102140000D01*
X112516666Y-102187619D01*
X112564285Y-102282857D01*
X112611904Y-102473333D01*
X112611904Y-102711428D01*
X112564285Y-102901904D01*
X112516666Y-102997142D01*
X112469047Y-103044761D01*
X112373809Y-103092380D01*
X112278571Y-103092380D01*
X112183333Y-103044761D01*
X112135714Y-102997142D01*
X112088095Y-102901904D01*
X112040476Y-102711428D01*
X112040476Y-102473333D01*
X112088095Y-102282857D01*
X112135714Y-102187619D01*
X112183333Y-102140000D01*
X112278571Y-102092380D01*
%TO.C,R11*%
X98967142Y-144502380D02*
X98633809Y-144026190D01*
X98395714Y-144502380D02*
X98395714Y-143502380D01*
X98776666Y-143502380D01*
X98871904Y-143550000D01*
X98919523Y-143597619D01*
X98967142Y-143692857D01*
X98967142Y-143835714D01*
X98919523Y-143930952D01*
X98871904Y-143978571D01*
X98776666Y-144026190D01*
X98395714Y-144026190D01*
X99919523Y-144502380D02*
X99348095Y-144502380D01*
X99633809Y-144502380D02*
X99633809Y-143502380D01*
X99538571Y-143645238D01*
X99443333Y-143740476D01*
X99348095Y-143788095D01*
X100871904Y-144502380D02*
X100300476Y-144502380D01*
X100586190Y-144502380D02*
X100586190Y-143502380D01*
X100490952Y-143645238D01*
X100395714Y-143740476D01*
X100300476Y-143788095D01*
%TO.C,R12*%
X110707142Y-185502380D02*
X110373809Y-185026190D01*
X110135714Y-185502380D02*
X110135714Y-184502380D01*
X110516666Y-184502380D01*
X110611904Y-184550000D01*
X110659523Y-184597619D01*
X110707142Y-184692857D01*
X110707142Y-184835714D01*
X110659523Y-184930952D01*
X110611904Y-184978571D01*
X110516666Y-185026190D01*
X110135714Y-185026190D01*
X111659523Y-185502380D02*
X111088095Y-185502380D01*
X111373809Y-185502380D02*
X111373809Y-184502380D01*
X111278571Y-184645238D01*
X111183333Y-184740476D01*
X111088095Y-184788095D01*
X112040476Y-184597619D02*
X112088095Y-184550000D01*
X112183333Y-184502380D01*
X112421428Y-184502380D01*
X112516666Y-184550000D01*
X112564285Y-184597619D01*
X112611904Y-184692857D01*
X112611904Y-184788095D01*
X112564285Y-184930952D01*
X111992857Y-185502380D01*
X112611904Y-185502380D01*
%TO.C,R13*%
X122437142Y-61882380D02*
X122103809Y-61406190D01*
X121865714Y-61882380D02*
X121865714Y-60882380D01*
X122246666Y-60882380D01*
X122341904Y-60930000D01*
X122389523Y-60977619D01*
X122437142Y-61072857D01*
X122437142Y-61215714D01*
X122389523Y-61310952D01*
X122341904Y-61358571D01*
X122246666Y-61406190D01*
X121865714Y-61406190D01*
X123389523Y-61882380D02*
X122818095Y-61882380D01*
X123103809Y-61882380D02*
X123103809Y-60882380D01*
X123008571Y-61025238D01*
X122913333Y-61120476D01*
X122818095Y-61168095D01*
X123722857Y-60882380D02*
X124341904Y-60882380D01*
X124008571Y-61263333D01*
X124151428Y-61263333D01*
X124246666Y-61310952D01*
X124294285Y-61358571D01*
X124341904Y-61453809D01*
X124341904Y-61691904D01*
X124294285Y-61787142D01*
X124246666Y-61834761D01*
X124151428Y-61882380D01*
X123865714Y-61882380D01*
X123770476Y-61834761D01*
X123722857Y-61787142D01*
%TO.C,R14*%
X134177142Y-103002380D02*
X133843809Y-102526190D01*
X133605714Y-103002380D02*
X133605714Y-102002380D01*
X133986666Y-102002380D01*
X134081904Y-102050000D01*
X134129523Y-102097619D01*
X134177142Y-102192857D01*
X134177142Y-102335714D01*
X134129523Y-102430952D01*
X134081904Y-102478571D01*
X133986666Y-102526190D01*
X133605714Y-102526190D01*
X135129523Y-103002380D02*
X134558095Y-103002380D01*
X134843809Y-103002380D02*
X134843809Y-102002380D01*
X134748571Y-102145238D01*
X134653333Y-102240476D01*
X134558095Y-102288095D01*
X135986666Y-102335714D02*
X135986666Y-103002380D01*
X135748571Y-101954761D02*
X135510476Y-102669047D01*
X136129523Y-102669047D01*
%TO.C,R15*%
X122437142Y-144502380D02*
X122103809Y-144026190D01*
X121865714Y-144502380D02*
X121865714Y-143502380D01*
X122246666Y-143502380D01*
X122341904Y-143550000D01*
X122389523Y-143597619D01*
X122437142Y-143692857D01*
X122437142Y-143835714D01*
X122389523Y-143930952D01*
X122341904Y-143978571D01*
X122246666Y-144026190D01*
X121865714Y-144026190D01*
X123389523Y-144502380D02*
X122818095Y-144502380D01*
X123103809Y-144502380D02*
X123103809Y-143502380D01*
X123008571Y-143645238D01*
X122913333Y-143740476D01*
X122818095Y-143788095D01*
X124294285Y-143502380D02*
X123818095Y-143502380D01*
X123770476Y-143978571D01*
X123818095Y-143930952D01*
X123913333Y-143883333D01*
X124151428Y-143883333D01*
X124246666Y-143930952D01*
X124294285Y-143978571D01*
X124341904Y-144073809D01*
X124341904Y-144311904D01*
X124294285Y-144407142D01*
X124246666Y-144454761D01*
X124151428Y-144502380D01*
X123913333Y-144502380D01*
X123818095Y-144454761D01*
X123770476Y-144407142D01*
%TO.C,R16*%
X134177142Y-185502380D02*
X133843809Y-185026190D01*
X133605714Y-185502380D02*
X133605714Y-184502380D01*
X133986666Y-184502380D01*
X134081904Y-184550000D01*
X134129523Y-184597619D01*
X134177142Y-184692857D01*
X134177142Y-184835714D01*
X134129523Y-184930952D01*
X134081904Y-184978571D01*
X133986666Y-185026190D01*
X133605714Y-185026190D01*
X135129523Y-185502380D02*
X134558095Y-185502380D01*
X134843809Y-185502380D02*
X134843809Y-184502380D01*
X134748571Y-184645238D01*
X134653333Y-184740476D01*
X134558095Y-184788095D01*
X135986666Y-184502380D02*
X135796190Y-184502380D01*
X135700952Y-184550000D01*
X135653333Y-184597619D01*
X135558095Y-184740476D01*
X135510476Y-184930952D01*
X135510476Y-185311904D01*
X135558095Y-185407142D01*
X135605714Y-185454761D01*
X135700952Y-185502380D01*
X135891428Y-185502380D01*
X135986666Y-185454761D01*
X136034285Y-185407142D01*
X136081904Y-185311904D01*
X136081904Y-185073809D01*
X136034285Y-184978571D01*
X135986666Y-184930952D01*
X135891428Y-184883333D01*
X135700952Y-184883333D01*
X135605714Y-184930952D01*
X135558095Y-184978571D01*
X135510476Y-185073809D01*
%TO.C,BUTTON*%
D13*
X46434285Y-79915714D02*
X46862857Y-80058571D01*
X47005714Y-80201428D01*
X47148571Y-80487142D01*
X47148571Y-80915714D01*
X47005714Y-81201428D01*
X46862857Y-81344285D01*
X46577142Y-81487142D01*
X45434285Y-81487142D01*
X45434285Y-78487142D01*
X46434285Y-78487142D01*
X46720000Y-78630000D01*
X46862857Y-78772857D01*
X47005714Y-79058571D01*
X47005714Y-79344285D01*
X46862857Y-79630000D01*
X46720000Y-79772857D01*
X46434285Y-79915714D01*
X45434285Y-79915714D01*
X48434285Y-78487142D02*
X48434285Y-80915714D01*
X48577142Y-81201428D01*
X48720000Y-81344285D01*
X49005714Y-81487142D01*
X49577142Y-81487142D01*
X49862857Y-81344285D01*
X50005714Y-81201428D01*
X50148571Y-80915714D01*
X50148571Y-78487142D01*
X51148571Y-78487142D02*
X52862857Y-78487142D01*
X52005714Y-81487142D02*
X52005714Y-78487142D01*
X53434285Y-78487142D02*
X55148571Y-78487142D01*
X54291428Y-81487142D02*
X54291428Y-78487142D01*
X56720000Y-78487142D02*
X57291428Y-78487142D01*
X57577142Y-78630000D01*
X57862857Y-78915714D01*
X58005714Y-79487142D01*
X58005714Y-80487142D01*
X57862857Y-81058571D01*
X57577142Y-81344285D01*
X57291428Y-81487142D01*
X56720000Y-81487142D01*
X56434285Y-81344285D01*
X56148571Y-81058571D01*
X56005714Y-80487142D01*
X56005714Y-79487142D01*
X56148571Y-78915714D01*
X56434285Y-78630000D01*
X56720000Y-78487142D01*
X59291428Y-81487142D02*
X59291428Y-78487142D01*
X61005714Y-81487142D01*
X61005714Y-78487142D01*
D12*
X40598571Y-77554285D02*
X40503333Y-77649523D01*
X40217619Y-77744761D01*
X40027142Y-77744761D01*
X39741428Y-77649523D01*
X39550952Y-77459047D01*
X39455714Y-77268571D01*
X39360476Y-76887619D01*
X39360476Y-76601904D01*
X39455714Y-76220952D01*
X39550952Y-76030476D01*
X39741428Y-75840000D01*
X40027142Y-75744761D01*
X40217619Y-75744761D01*
X40503333Y-75840000D01*
X40598571Y-75935238D01*
X41836666Y-75744761D02*
X42217619Y-75744761D01*
X42408095Y-75840000D01*
X42598571Y-76030476D01*
X42693809Y-76411428D01*
X42693809Y-77078095D01*
X42598571Y-77459047D01*
X42408095Y-77649523D01*
X42217619Y-77744761D01*
X41836666Y-77744761D01*
X41646190Y-77649523D01*
X41455714Y-77459047D01*
X41360476Y-77078095D01*
X41360476Y-76411428D01*
X41455714Y-76030476D01*
X41646190Y-75840000D01*
X41836666Y-75744761D01*
X43550952Y-77744761D02*
X43550952Y-75744761D01*
X44217619Y-77173333D01*
X44884285Y-75744761D01*
X44884285Y-77744761D01*
X39498571Y-84044761D02*
X39498571Y-82044761D01*
X40641428Y-84044761D01*
X40641428Y-82044761D01*
X42736666Y-83854285D02*
X42641428Y-83949523D01*
X42355714Y-84044761D01*
X42165238Y-84044761D01*
X41879523Y-83949523D01*
X41689047Y-83759047D01*
X41593809Y-83568571D01*
X41498571Y-83187619D01*
X41498571Y-82901904D01*
X41593809Y-82520952D01*
X41689047Y-82330476D01*
X41879523Y-82140000D01*
X42165238Y-82044761D01*
X42355714Y-82044761D01*
X42641428Y-82140000D01*
X42736666Y-82235238D01*
X39450952Y-71444761D02*
X39450952Y-69444761D01*
X40593809Y-71444761D01*
X40593809Y-69444761D01*
X41927142Y-69444761D02*
X42308095Y-69444761D01*
X42498571Y-69540000D01*
X42689047Y-69730476D01*
X42784285Y-70111428D01*
X42784285Y-70778095D01*
X42689047Y-71159047D01*
X42498571Y-71349523D01*
X42308095Y-71444761D01*
X41927142Y-71444761D01*
X41736666Y-71349523D01*
X41546190Y-71159047D01*
X41450952Y-70778095D01*
X41450952Y-70111428D01*
X41546190Y-69730476D01*
X41736666Y-69540000D01*
X41927142Y-69444761D01*
D13*
X77944285Y-120745714D02*
X78372857Y-120888571D01*
X78515714Y-121031428D01*
X78658571Y-121317142D01*
X78658571Y-121745714D01*
X78515714Y-122031428D01*
X78372857Y-122174285D01*
X78087142Y-122317142D01*
X76944285Y-122317142D01*
X76944285Y-119317142D01*
X77944285Y-119317142D01*
X78230000Y-119460000D01*
X78372857Y-119602857D01*
X78515714Y-119888571D01*
X78515714Y-120174285D01*
X78372857Y-120460000D01*
X78230000Y-120602857D01*
X77944285Y-120745714D01*
X76944285Y-120745714D01*
X79944285Y-119317142D02*
X79944285Y-121745714D01*
X80087142Y-122031428D01*
X80230000Y-122174285D01*
X80515714Y-122317142D01*
X81087142Y-122317142D01*
X81372857Y-122174285D01*
X81515714Y-122031428D01*
X81658571Y-121745714D01*
X81658571Y-119317142D01*
X82658571Y-119317142D02*
X84372857Y-119317142D01*
X83515714Y-122317142D02*
X83515714Y-119317142D01*
X84944285Y-119317142D02*
X86658571Y-119317142D01*
X85801428Y-122317142D02*
X85801428Y-119317142D01*
X88230000Y-119317142D02*
X88801428Y-119317142D01*
X89087142Y-119460000D01*
X89372857Y-119745714D01*
X89515714Y-120317142D01*
X89515714Y-121317142D01*
X89372857Y-121888571D01*
X89087142Y-122174285D01*
X88801428Y-122317142D01*
X88230000Y-122317142D01*
X87944285Y-122174285D01*
X87658571Y-121888571D01*
X87515714Y-121317142D01*
X87515714Y-120317142D01*
X87658571Y-119745714D01*
X87944285Y-119460000D01*
X88230000Y-119317142D01*
X90801428Y-122317142D02*
X90801428Y-119317142D01*
X92515714Y-122317142D01*
X92515714Y-119317142D01*
D12*
X70390952Y-112701427D02*
X70390952Y-110701427D01*
X71533809Y-112701427D01*
X71533809Y-110701427D01*
X72867142Y-110701427D02*
X73248095Y-110701427D01*
X73438571Y-110796666D01*
X73629047Y-110987142D01*
X73724285Y-111368094D01*
X73724285Y-112034761D01*
X73629047Y-112415713D01*
X73438571Y-112606189D01*
X73248095Y-112701427D01*
X72867142Y-112701427D01*
X72676666Y-112606189D01*
X72486190Y-112415713D01*
X72390952Y-112034761D01*
X72390952Y-111368094D01*
X72486190Y-110987142D01*
X72676666Y-110796666D01*
X72867142Y-110701427D01*
X70438571Y-125301427D02*
X70438571Y-123301427D01*
X71581428Y-125301427D01*
X71581428Y-123301427D01*
X73676666Y-125110951D02*
X73581428Y-125206189D01*
X73295714Y-125301427D01*
X73105238Y-125301427D01*
X72819523Y-125206189D01*
X72629047Y-125015713D01*
X72533809Y-124825237D01*
X72438571Y-124444285D01*
X72438571Y-124158570D01*
X72533809Y-123777618D01*
X72629047Y-123587142D01*
X72819523Y-123396666D01*
X73105238Y-123301427D01*
X73295714Y-123301427D01*
X73581428Y-123396666D01*
X73676666Y-123491904D01*
X71538571Y-118810951D02*
X71443333Y-118906189D01*
X71157619Y-119001427D01*
X70967142Y-119001427D01*
X70681428Y-118906189D01*
X70490952Y-118715713D01*
X70395714Y-118525237D01*
X70300476Y-118144285D01*
X70300476Y-117858570D01*
X70395714Y-117477618D01*
X70490952Y-117287142D01*
X70681428Y-117096666D01*
X70967142Y-117001427D01*
X71157619Y-117001427D01*
X71443333Y-117096666D01*
X71538571Y-117191904D01*
X72776666Y-117001427D02*
X73157619Y-117001427D01*
X73348095Y-117096666D01*
X73538571Y-117287142D01*
X73633809Y-117668094D01*
X73633809Y-118334761D01*
X73538571Y-118715713D01*
X73348095Y-118906189D01*
X73157619Y-119001427D01*
X72776666Y-119001427D01*
X72586190Y-118906189D01*
X72395714Y-118715713D01*
X72300476Y-118334761D01*
X72300476Y-117668094D01*
X72395714Y-117287142D01*
X72586190Y-117096666D01*
X72776666Y-117001427D01*
X74490952Y-119001427D02*
X74490952Y-117001427D01*
X75157619Y-118429999D01*
X75824285Y-117001427D01*
X75824285Y-119001427D01*
%TO.C,SWITCH*%
D13*
X46240000Y-163534285D02*
X46668571Y-163677142D01*
X47382857Y-163677142D01*
X47668571Y-163534285D01*
X47811428Y-163391428D01*
X47954285Y-163105714D01*
X47954285Y-162820000D01*
X47811428Y-162534285D01*
X47668571Y-162391428D01*
X47382857Y-162248571D01*
X46811428Y-162105714D01*
X46525714Y-161962857D01*
X46382857Y-161820000D01*
X46240000Y-161534285D01*
X46240000Y-161248571D01*
X46382857Y-160962857D01*
X46525714Y-160820000D01*
X46811428Y-160677142D01*
X47525714Y-160677142D01*
X47954285Y-160820000D01*
X48954285Y-160677142D02*
X49668571Y-163677142D01*
X50240000Y-161534285D01*
X50811428Y-163677142D01*
X51525714Y-160677142D01*
X52668571Y-163677142D02*
X52668571Y-160677142D01*
X53668571Y-160677142D02*
X55382857Y-160677142D01*
X54525714Y-163677142D02*
X54525714Y-160677142D01*
X58097142Y-163391428D02*
X57954285Y-163534285D01*
X57525714Y-163677142D01*
X57240000Y-163677142D01*
X56811428Y-163534285D01*
X56525714Y-163248571D01*
X56382857Y-162962857D01*
X56240000Y-162391428D01*
X56240000Y-161962857D01*
X56382857Y-161391428D01*
X56525714Y-161105714D01*
X56811428Y-160820000D01*
X57240000Y-160677142D01*
X57525714Y-160677142D01*
X57954285Y-160820000D01*
X58097142Y-160962857D01*
X59382857Y-163677142D02*
X59382857Y-160677142D01*
X59382857Y-162105714D02*
X61097142Y-162105714D01*
X61097142Y-163677142D02*
X61097142Y-160677142D01*
D12*
X39450952Y-153958093D02*
X39450952Y-151958093D01*
X40593809Y-153958093D01*
X40593809Y-151958093D01*
X41927142Y-151958093D02*
X42308095Y-151958093D01*
X42498571Y-152053332D01*
X42689047Y-152243808D01*
X42784285Y-152624760D01*
X42784285Y-153291427D01*
X42689047Y-153672379D01*
X42498571Y-153862855D01*
X42308095Y-153958093D01*
X41927142Y-153958093D01*
X41736666Y-153862855D01*
X41546190Y-153672379D01*
X41450952Y-153291427D01*
X41450952Y-152624760D01*
X41546190Y-152243808D01*
X41736666Y-152053332D01*
X41927142Y-151958093D01*
X39498571Y-166558093D02*
X39498571Y-164558093D01*
X40641428Y-166558093D01*
X40641428Y-164558093D01*
X42736666Y-166367617D02*
X42641428Y-166462855D01*
X42355714Y-166558093D01*
X42165238Y-166558093D01*
X41879523Y-166462855D01*
X41689047Y-166272379D01*
X41593809Y-166081903D01*
X41498571Y-165700951D01*
X41498571Y-165415236D01*
X41593809Y-165034284D01*
X41689047Y-164843808D01*
X41879523Y-164653332D01*
X42165238Y-164558093D01*
X42355714Y-164558093D01*
X42641428Y-164653332D01*
X42736666Y-164748570D01*
X40598571Y-160067617D02*
X40503333Y-160162855D01*
X40217619Y-160258093D01*
X40027142Y-160258093D01*
X39741428Y-160162855D01*
X39550952Y-159972379D01*
X39455714Y-159781903D01*
X39360476Y-159400951D01*
X39360476Y-159115236D01*
X39455714Y-158734284D01*
X39550952Y-158543808D01*
X39741428Y-158353332D01*
X40027142Y-158258093D01*
X40217619Y-158258093D01*
X40503333Y-158353332D01*
X40598571Y-158448570D01*
X41836666Y-158258093D02*
X42217619Y-158258093D01*
X42408095Y-158353332D01*
X42598571Y-158543808D01*
X42693809Y-158924760D01*
X42693809Y-159591427D01*
X42598571Y-159972379D01*
X42408095Y-160162855D01*
X42217619Y-160258093D01*
X41836666Y-160258093D01*
X41646190Y-160162855D01*
X41455714Y-159972379D01*
X41360476Y-159591427D01*
X41360476Y-158924760D01*
X41455714Y-158543808D01*
X41646190Y-158353332D01*
X41836666Y-158258093D01*
X43550952Y-160258093D02*
X43550952Y-158258093D01*
X44217619Y-159686665D01*
X44884285Y-158258093D01*
X44884285Y-160258093D01*
D13*
X77330000Y-204664285D02*
X77758571Y-204807142D01*
X78472857Y-204807142D01*
X78758571Y-204664285D01*
X78901428Y-204521428D01*
X79044285Y-204235714D01*
X79044285Y-203950000D01*
X78901428Y-203664285D01*
X78758571Y-203521428D01*
X78472857Y-203378571D01*
X77901428Y-203235714D01*
X77615714Y-203092857D01*
X77472857Y-202950000D01*
X77330000Y-202664285D01*
X77330000Y-202378571D01*
X77472857Y-202092857D01*
X77615714Y-201950000D01*
X77901428Y-201807142D01*
X78615714Y-201807142D01*
X79044285Y-201950000D01*
X80044285Y-201807142D02*
X80758571Y-204807142D01*
X81330000Y-202664285D01*
X81901428Y-204807142D01*
X82615714Y-201807142D01*
X83758571Y-204807142D02*
X83758571Y-201807142D01*
X84758571Y-201807142D02*
X86472857Y-201807142D01*
X85615714Y-204807142D02*
X85615714Y-201807142D01*
X89187142Y-204521428D02*
X89044285Y-204664285D01*
X88615714Y-204807142D01*
X88330000Y-204807142D01*
X87901428Y-204664285D01*
X87615714Y-204378571D01*
X87472857Y-204092857D01*
X87330000Y-203521428D01*
X87330000Y-203092857D01*
X87472857Y-202521428D01*
X87615714Y-202235714D01*
X87901428Y-201950000D01*
X88330000Y-201807142D01*
X88615714Y-201807142D01*
X89044285Y-201950000D01*
X89187142Y-202092857D01*
X90472857Y-204807142D02*
X90472857Y-201807142D01*
X90472857Y-203235714D02*
X92187142Y-203235714D01*
X92187142Y-204807142D02*
X92187142Y-201807142D01*
D12*
X71538571Y-201324285D02*
X71443333Y-201419523D01*
X71157619Y-201514761D01*
X70967142Y-201514761D01*
X70681428Y-201419523D01*
X70490952Y-201229047D01*
X70395714Y-201038571D01*
X70300476Y-200657619D01*
X70300476Y-200371904D01*
X70395714Y-199990952D01*
X70490952Y-199800476D01*
X70681428Y-199610000D01*
X70967142Y-199514761D01*
X71157619Y-199514761D01*
X71443333Y-199610000D01*
X71538571Y-199705238D01*
X72776666Y-199514761D02*
X73157619Y-199514761D01*
X73348095Y-199610000D01*
X73538571Y-199800476D01*
X73633809Y-200181428D01*
X73633809Y-200848095D01*
X73538571Y-201229047D01*
X73348095Y-201419523D01*
X73157619Y-201514761D01*
X72776666Y-201514761D01*
X72586190Y-201419523D01*
X72395714Y-201229047D01*
X72300476Y-200848095D01*
X72300476Y-200181428D01*
X72395714Y-199800476D01*
X72586190Y-199610000D01*
X72776666Y-199514761D01*
X74490952Y-201514761D02*
X74490952Y-199514761D01*
X75157619Y-200943333D01*
X75824285Y-199514761D01*
X75824285Y-201514761D01*
X70438571Y-207814761D02*
X70438571Y-205814761D01*
X71581428Y-207814761D01*
X71581428Y-205814761D01*
X73676666Y-207624285D02*
X73581428Y-207719523D01*
X73295714Y-207814761D01*
X73105238Y-207814761D01*
X72819523Y-207719523D01*
X72629047Y-207529047D01*
X72533809Y-207338571D01*
X72438571Y-206957619D01*
X72438571Y-206671904D01*
X72533809Y-206290952D01*
X72629047Y-206100476D01*
X72819523Y-205910000D01*
X73105238Y-205814761D01*
X73295714Y-205814761D01*
X73581428Y-205910000D01*
X73676666Y-206005238D01*
X70390952Y-195214761D02*
X70390952Y-193214761D01*
X71533809Y-195214761D01*
X71533809Y-193214761D01*
X72867142Y-193214761D02*
X73248095Y-193214761D01*
X73438571Y-193310000D01*
X73629047Y-193500476D01*
X73724285Y-193881428D01*
X73724285Y-194548095D01*
X73629047Y-194929047D01*
X73438571Y-195119523D01*
X73248095Y-195214761D01*
X72867142Y-195214761D01*
X72676666Y-195119523D01*
X72486190Y-194929047D01*
X72390952Y-194548095D01*
X72390952Y-193881428D01*
X72486190Y-193500476D01*
X72676666Y-193310000D01*
X72867142Y-193214761D01*
%TD*%
M02*
