%TF.GenerationSoftware,KiCad,Pcbnew,(5.1.9)-1*%
%TF.CreationDate,2021-09-09T23:53:41+02:00*%
%TF.ProjectId,SwitchBox,53776974-6368-4426-9f78-2e6b69636164,rev?*%
%TF.SameCoordinates,Original*%
%TF.FileFunction,Legend,Bot*%
%TF.FilePolarity,Positive*%
%FSLAX46Y46*%
G04 Gerber Fmt 4.6, Leading zero omitted, Abs format (unit mm)*
G04 Created by KiCad (PCBNEW (5.1.9)-1) date 2021-09-09 23:53:41*
%MOMM*%
%LPD*%
G01*
G04 APERTURE LIST*
%ADD10C,0.010000*%
G04 APERTURE END LIST*
D10*
%TO.C,G\u002A\u002A\u002A*%
G36*
X90839352Y-153168361D02*
G01*
X87090034Y-153168361D01*
X87090034Y-156180819D01*
X87826895Y-156180819D01*
X87826895Y-153905222D01*
X90102492Y-153905222D01*
X90102492Y-156180819D01*
X87826895Y-156180819D01*
X87090034Y-156180819D01*
X87090034Y-156917679D01*
X90839352Y-156917679D01*
X90839352Y-153168361D01*
G37*
X90839352Y-153168361D02*
X87090034Y-153168361D01*
X87090034Y-156180819D01*
X87826895Y-156180819D01*
X87826895Y-153905222D01*
X90102492Y-153905222D01*
X90102492Y-156180819D01*
X87826895Y-156180819D01*
X87090034Y-156180819D01*
X87090034Y-156917679D01*
X90839352Y-156917679D01*
X90839352Y-153168361D01*
G36*
X74151639Y-153168361D02*
G01*
X70402321Y-153168361D01*
X70402321Y-156180819D01*
X71139181Y-156180819D01*
X71139181Y-153905222D01*
X73414778Y-153905222D01*
X73414778Y-156180819D01*
X71139181Y-156180819D01*
X70402321Y-156180819D01*
X70402321Y-156917679D01*
X74151639Y-156917679D01*
X74151639Y-153168361D01*
G37*
X74151639Y-153168361D02*
X70402321Y-153168361D01*
X70402321Y-156180819D01*
X71139181Y-156180819D01*
X71139181Y-153905222D01*
X73414778Y-153905222D01*
X73414778Y-156180819D01*
X71139181Y-156180819D01*
X70402321Y-156180819D01*
X70402321Y-156917679D01*
X74151639Y-156917679D01*
X74151639Y-153168361D01*
G36*
X84792765Y-155422286D02*
G01*
X84034232Y-155422286D01*
X84034232Y-154663754D01*
X83275700Y-154663754D01*
X83275700Y-155422286D01*
X82517168Y-155422286D01*
X82517168Y-156180819D01*
X84792765Y-156180819D01*
X84792765Y-155422286D01*
G37*
X84792765Y-155422286D02*
X84034232Y-155422286D01*
X84034232Y-154663754D01*
X83275700Y-154663754D01*
X83275700Y-155422286D01*
X82517168Y-155422286D01*
X82517168Y-156180819D01*
X84792765Y-156180819D01*
X84792765Y-155422286D01*
G36*
X81758635Y-149354027D02*
G01*
X81000103Y-149354027D01*
X81000103Y-150112559D01*
X81758635Y-150112559D01*
X81758635Y-149354027D01*
G37*
X81758635Y-149354027D02*
X81000103Y-149354027D01*
X81000103Y-150112559D01*
X81758635Y-150112559D01*
X81758635Y-149354027D01*
G36*
X81758635Y-153146689D02*
G01*
X81758635Y-152388157D01*
X82517168Y-152388157D01*
X82517168Y-151629624D01*
X81758635Y-151629624D01*
X81758635Y-150871092D01*
X80241570Y-150871092D01*
X80241570Y-149354027D01*
X79483038Y-149354027D01*
X79483038Y-150112559D01*
X77965973Y-150112559D01*
X77965973Y-151629624D01*
X78724505Y-151629624D01*
X78724505Y-150871092D01*
X79483038Y-150871092D01*
X79483038Y-151629624D01*
X78724505Y-151629624D01*
X78724505Y-152388157D01*
X77965973Y-152388157D01*
X77965973Y-153146689D01*
X78724505Y-153146689D01*
X78724505Y-152388157D01*
X79483038Y-152388157D01*
X79483038Y-151629624D01*
X80241570Y-151629624D01*
X80241570Y-152388157D01*
X79483038Y-152388157D01*
X79483038Y-153146689D01*
X80241570Y-153146689D01*
X80241570Y-152388157D01*
X81000103Y-152388157D01*
X81000103Y-153146689D01*
X80241570Y-153146689D01*
X79483038Y-153146689D01*
X78724505Y-153146689D01*
X78724505Y-153905222D01*
X80241570Y-153905222D01*
X80241570Y-154663754D01*
X81000103Y-154663754D01*
X81000103Y-153146689D01*
X81758635Y-153146689D01*
G37*
X81758635Y-153146689D02*
X81758635Y-152388157D01*
X82517168Y-152388157D01*
X82517168Y-151629624D01*
X81758635Y-151629624D01*
X81758635Y-150871092D01*
X80241570Y-150871092D01*
X80241570Y-149354027D01*
X79483038Y-149354027D01*
X79483038Y-150112559D01*
X77965973Y-150112559D01*
X77965973Y-151629624D01*
X78724505Y-151629624D01*
X78724505Y-150871092D01*
X79483038Y-150871092D01*
X79483038Y-151629624D01*
X78724505Y-151629624D01*
X78724505Y-152388157D01*
X77965973Y-152388157D01*
X77965973Y-153146689D01*
X78724505Y-153146689D01*
X78724505Y-152388157D01*
X79483038Y-152388157D01*
X79483038Y-151629624D01*
X80241570Y-151629624D01*
X80241570Y-152388157D01*
X79483038Y-152388157D01*
X79483038Y-153146689D01*
X80241570Y-153146689D01*
X80241570Y-152388157D01*
X81000103Y-152388157D01*
X81000103Y-153146689D01*
X80241570Y-153146689D01*
X79483038Y-153146689D01*
X78724505Y-153146689D01*
X78724505Y-153905222D01*
X80241570Y-153905222D01*
X80241570Y-154663754D01*
X81000103Y-154663754D01*
X81000103Y-153146689D01*
X81758635Y-153146689D01*
G36*
X77965973Y-155422286D02*
G01*
X77207441Y-155422286D01*
X77207441Y-156180819D01*
X77965973Y-156180819D01*
X77965973Y-155422286D01*
G37*
X77965973Y-155422286D02*
X77207441Y-155422286D01*
X77207441Y-156180819D01*
X77965973Y-156180819D01*
X77965973Y-155422286D01*
G36*
X77207441Y-154663754D02*
G01*
X76448908Y-154663754D01*
X76448908Y-155422286D01*
X77207441Y-155422286D01*
X77207441Y-154663754D01*
G37*
X77207441Y-154663754D02*
X76448908Y-154663754D01*
X76448908Y-155422286D01*
X77207441Y-155422286D01*
X77207441Y-154663754D01*
G36*
X80241570Y-154663754D02*
G01*
X79483038Y-154663754D01*
X79483038Y-155422286D01*
X80241570Y-155422286D01*
X80241570Y-154663754D01*
G37*
X80241570Y-154663754D02*
X79483038Y-154663754D01*
X79483038Y-155422286D01*
X80241570Y-155422286D01*
X80241570Y-154663754D01*
G36*
X78724505Y-153905222D02*
G01*
X77965973Y-153905222D01*
X77965973Y-155422286D01*
X78724505Y-155422286D01*
X78724505Y-153905222D01*
G37*
X78724505Y-153905222D02*
X77965973Y-153905222D01*
X77965973Y-155422286D01*
X78724505Y-155422286D01*
X78724505Y-153905222D01*
G36*
X74931843Y-148595495D02*
G01*
X74173311Y-148595495D01*
X74173311Y-149354027D01*
X74931843Y-149354027D01*
X74931843Y-148595495D01*
G37*
X74931843Y-148595495D02*
X74173311Y-148595495D01*
X74173311Y-149354027D01*
X74931843Y-149354027D01*
X74931843Y-148595495D01*
G36*
X73414778Y-147836962D02*
G01*
X72656246Y-147836962D01*
X72656246Y-148595495D01*
X73414778Y-148595495D01*
X73414778Y-147836962D01*
G37*
X73414778Y-147836962D02*
X72656246Y-147836962D01*
X72656246Y-148595495D01*
X73414778Y-148595495D01*
X73414778Y-147836962D01*
G36*
X73414778Y-144044300D02*
G01*
X72656246Y-144044300D01*
X72656246Y-144802832D01*
X73414778Y-144802832D01*
X73414778Y-144044300D01*
G37*
X73414778Y-144044300D02*
X72656246Y-144044300D01*
X72656246Y-144802832D01*
X73414778Y-144802832D01*
X73414778Y-144044300D01*
G36*
X72656246Y-147078430D02*
G01*
X74173311Y-147078430D01*
X74173311Y-146319897D01*
X73414778Y-146319897D01*
X73414778Y-145561365D01*
X72656246Y-145561365D01*
X72656246Y-144802832D01*
X71897714Y-144802832D01*
X71897714Y-144044300D01*
X70380649Y-144044300D01*
X70380649Y-144802832D01*
X71139181Y-144802832D01*
X71139181Y-145561365D01*
X71897714Y-145561365D01*
X71897714Y-147836962D01*
X72656246Y-147836962D01*
X72656246Y-147078430D01*
G37*
X72656246Y-147078430D02*
X74173311Y-147078430D01*
X74173311Y-146319897D01*
X73414778Y-146319897D01*
X73414778Y-145561365D01*
X72656246Y-145561365D01*
X72656246Y-144802832D01*
X71897714Y-144802832D01*
X71897714Y-144044300D01*
X70380649Y-144044300D01*
X70380649Y-144802832D01*
X71139181Y-144802832D01*
X71139181Y-145561365D01*
X71897714Y-145561365D01*
X71897714Y-147836962D01*
X72656246Y-147836962D01*
X72656246Y-147078430D01*
G36*
X74173311Y-143285768D02*
G01*
X74931843Y-143285768D01*
X74931843Y-142527235D01*
X73414778Y-142527235D01*
X73414778Y-144044300D01*
X74173311Y-144044300D01*
X74173311Y-143285768D01*
G37*
X74173311Y-143285768D02*
X74931843Y-143285768D01*
X74931843Y-142527235D01*
X73414778Y-142527235D01*
X73414778Y-144044300D01*
X74173311Y-144044300D01*
X74173311Y-143285768D01*
G36*
X87068362Y-148595495D02*
G01*
X86309830Y-148595495D01*
X86309830Y-149354027D01*
X87068362Y-149354027D01*
X87068362Y-148595495D01*
G37*
X87068362Y-148595495D02*
X86309830Y-148595495D01*
X86309830Y-149354027D01*
X87068362Y-149354027D01*
X87068362Y-148595495D01*
G36*
X90861024Y-146319897D02*
G01*
X89343959Y-146319897D01*
X89343959Y-147078430D01*
X90102492Y-147078430D01*
X90102492Y-147836962D01*
X90861024Y-147836962D01*
X90861024Y-146319897D01*
G37*
X90861024Y-146319897D02*
X89343959Y-146319897D01*
X89343959Y-147078430D01*
X90102492Y-147078430D01*
X90102492Y-147836962D01*
X90861024Y-147836962D01*
X90861024Y-146319897D01*
G36*
X89343959Y-142527235D02*
G01*
X88585427Y-142527235D01*
X88585427Y-143285768D01*
X89343959Y-143285768D01*
X89343959Y-142527235D01*
G37*
X89343959Y-142527235D02*
X88585427Y-142527235D01*
X88585427Y-143285768D01*
X89343959Y-143285768D01*
X89343959Y-142527235D01*
G36*
X80241570Y-141768703D02*
G01*
X79483038Y-141768703D01*
X79483038Y-142527235D01*
X80241570Y-142527235D01*
X80241570Y-141768703D01*
G37*
X80241570Y-141768703D02*
X79483038Y-141768703D01*
X79483038Y-142527235D01*
X80241570Y-142527235D01*
X80241570Y-141768703D01*
G36*
X87826895Y-139493105D02*
G01*
X85551297Y-139493105D01*
X85551297Y-141010170D01*
X86309830Y-141010170D01*
X86309830Y-140251638D01*
X87068362Y-140251638D01*
X87068362Y-141010170D01*
X86309830Y-141010170D01*
X85551297Y-141010170D01*
X85551297Y-141768703D01*
X87826895Y-141768703D01*
X87826895Y-139493105D01*
G37*
X87826895Y-139493105D02*
X85551297Y-139493105D01*
X85551297Y-141010170D01*
X86309830Y-141010170D01*
X86309830Y-140251638D01*
X87068362Y-140251638D01*
X87068362Y-141010170D01*
X86309830Y-141010170D01*
X85551297Y-141010170D01*
X85551297Y-141768703D01*
X87826895Y-141768703D01*
X87826895Y-139493105D01*
G36*
X77965973Y-139493105D02*
G01*
X77207441Y-139493105D01*
X77207441Y-140251638D01*
X77965973Y-140251638D01*
X77965973Y-139493105D01*
G37*
X77965973Y-139493105D02*
X77207441Y-139493105D01*
X77207441Y-140251638D01*
X77965973Y-140251638D01*
X77965973Y-139493105D01*
G36*
X89343959Y-140251638D02*
G01*
X88585427Y-140251638D01*
X88585427Y-141010170D01*
X89343959Y-141010170D01*
X89343959Y-140251638D01*
G37*
X89343959Y-140251638D02*
X88585427Y-140251638D01*
X88585427Y-141010170D01*
X89343959Y-141010170D01*
X89343959Y-140251638D01*
G36*
X82517168Y-137976041D02*
G01*
X80241570Y-137976041D01*
X80241570Y-138734573D01*
X82517168Y-138734573D01*
X82517168Y-137976041D01*
G37*
X82517168Y-137976041D02*
X80241570Y-137976041D01*
X80241570Y-138734573D01*
X82517168Y-138734573D01*
X82517168Y-137976041D01*
G36*
X90102492Y-137976041D02*
G01*
X89343959Y-137976041D01*
X89343959Y-137217508D01*
X88585427Y-137217508D01*
X88585427Y-137976041D01*
X87826895Y-137976041D01*
X87826895Y-138734573D01*
X88585427Y-138734573D01*
X88585427Y-139493105D01*
X89343959Y-139493105D01*
X89343959Y-140251638D01*
X90102492Y-140251638D01*
X90102492Y-137976041D01*
G37*
X90102492Y-137976041D02*
X89343959Y-137976041D01*
X89343959Y-137217508D01*
X88585427Y-137217508D01*
X88585427Y-137976041D01*
X87826895Y-137976041D01*
X87826895Y-138734573D01*
X88585427Y-138734573D01*
X88585427Y-139493105D01*
X89343959Y-139493105D01*
X89343959Y-140251638D01*
X90102492Y-140251638D01*
X90102492Y-137976041D01*
G36*
X84034232Y-138734573D02*
G01*
X85551297Y-138734573D01*
X85551297Y-137976041D01*
X86309830Y-137976041D01*
X86309830Y-138734573D01*
X87068362Y-138734573D01*
X87068362Y-137976041D01*
X87826895Y-137976041D01*
X87826895Y-136458976D01*
X86309830Y-136458976D01*
X86309830Y-137217508D01*
X85551297Y-137217508D01*
X85551297Y-136458976D01*
X84034232Y-136458976D01*
X84034232Y-137217508D01*
X82517168Y-137217508D01*
X82517168Y-137976041D01*
X83275700Y-137976041D01*
X84034232Y-137976041D01*
X84034232Y-137217508D01*
X84792765Y-137217508D01*
X84792765Y-137976041D01*
X84034232Y-137976041D01*
X83275700Y-137976041D01*
X83275700Y-139493105D01*
X84034232Y-139493105D01*
X84034232Y-138734573D01*
G37*
X84034232Y-138734573D02*
X85551297Y-138734573D01*
X85551297Y-137976041D01*
X86309830Y-137976041D01*
X86309830Y-138734573D01*
X87068362Y-138734573D01*
X87068362Y-137976041D01*
X87826895Y-137976041D01*
X87826895Y-136458976D01*
X86309830Y-136458976D01*
X86309830Y-137217508D01*
X85551297Y-137217508D01*
X85551297Y-136458976D01*
X84034232Y-136458976D01*
X84034232Y-137217508D01*
X82517168Y-137217508D01*
X82517168Y-137976041D01*
X83275700Y-137976041D01*
X84034232Y-137976041D01*
X84034232Y-137217508D01*
X84792765Y-137217508D01*
X84792765Y-137976041D01*
X84034232Y-137976041D01*
X83275700Y-137976041D01*
X83275700Y-139493105D01*
X84034232Y-139493105D01*
X84034232Y-138734573D01*
G36*
X74151639Y-136480648D02*
G01*
X70402321Y-136480648D01*
X70402321Y-139493105D01*
X71139181Y-139493105D01*
X71139181Y-137217508D01*
X73414778Y-137217508D01*
X73414778Y-139493105D01*
X71139181Y-139493105D01*
X70402321Y-139493105D01*
X70402321Y-140229966D01*
X74151639Y-140229966D01*
X74151639Y-136480648D01*
G37*
X74151639Y-136480648D02*
X70402321Y-136480648D01*
X70402321Y-139493105D01*
X71139181Y-139493105D01*
X71139181Y-137217508D01*
X73414778Y-137217508D01*
X73414778Y-139493105D01*
X71139181Y-139493105D01*
X70402321Y-139493105D01*
X70402321Y-140229966D01*
X74151639Y-140229966D01*
X74151639Y-136480648D01*
G36*
X93136621Y-134183379D02*
G01*
X68105052Y-134183379D01*
X68105052Y-141010170D01*
X69622116Y-141010170D01*
X69622116Y-135700443D01*
X74931843Y-135700443D01*
X74931843Y-136458976D01*
X76448908Y-136458976D01*
X76448908Y-135700443D01*
X77207441Y-135700443D01*
X77207441Y-136458976D01*
X76448908Y-136458976D01*
X74931843Y-136458976D01*
X74931843Y-139493105D01*
X75690376Y-139493105D01*
X75690376Y-137976041D01*
X76448908Y-137976041D01*
X76448908Y-137217508D01*
X77207441Y-137217508D01*
X77207441Y-136458976D01*
X77965973Y-136458976D01*
X77965973Y-135700443D01*
X79483038Y-135700443D01*
X79483038Y-136458976D01*
X80241570Y-136458976D01*
X80241570Y-135700443D01*
X81000103Y-135700443D01*
X81000103Y-136458976D01*
X80241570Y-136458976D01*
X79483038Y-136458976D01*
X79483038Y-137217508D01*
X78724505Y-137217508D01*
X78724505Y-136458976D01*
X77965973Y-136458976D01*
X77965973Y-137217508D01*
X77207441Y-137217508D01*
X77207441Y-137976041D01*
X76448908Y-137976041D01*
X76448908Y-139493105D01*
X75690376Y-139493105D01*
X74931843Y-139493105D01*
X74931843Y-141010170D01*
X69622116Y-141010170D01*
X68105052Y-141010170D01*
X68105052Y-147078430D01*
X69622116Y-147078430D01*
X69622116Y-146319897D01*
X71139181Y-146319897D01*
X71139181Y-145561365D01*
X69622116Y-145561365D01*
X69622116Y-141768703D01*
X71139181Y-141768703D01*
X71139181Y-143285768D01*
X71897714Y-143285768D01*
X71897714Y-144044300D01*
X72656246Y-144044300D01*
X72656246Y-142527235D01*
X73414778Y-142527235D01*
X73414778Y-141768703D01*
X74931843Y-141768703D01*
X75690376Y-141768703D01*
X75690376Y-140251638D01*
X76448908Y-140251638D01*
X76448908Y-139493105D01*
X77207441Y-139493105D01*
X77207441Y-138734573D01*
X77965973Y-138734573D01*
X79483038Y-138734573D01*
X79483038Y-137976041D01*
X80241570Y-137976041D01*
X80241570Y-137217508D01*
X81758635Y-137217508D01*
X81758635Y-135700443D01*
X82517168Y-135700443D01*
X82517168Y-136458976D01*
X83275700Y-136458976D01*
X83275700Y-135700443D01*
X89343959Y-135700443D01*
X89343959Y-136458976D01*
X90102492Y-136458976D01*
X90102492Y-137217508D01*
X90861024Y-137217508D01*
X90861024Y-136458976D01*
X91619557Y-136458976D01*
X91619557Y-137976041D01*
X90861024Y-137976041D01*
X90861024Y-138734573D01*
X91619557Y-138734573D01*
X91619557Y-140251638D01*
X90861024Y-140251638D01*
X90861024Y-141010170D01*
X90102492Y-141010170D01*
X90102492Y-142527235D01*
X90861024Y-142527235D01*
X90861024Y-141768703D01*
X91619557Y-141768703D01*
X91619557Y-144044300D01*
X90861024Y-144044300D01*
X90861024Y-143285768D01*
X89343959Y-143285768D01*
X89343959Y-144044300D01*
X88585427Y-144044300D01*
X88585427Y-144802832D01*
X87826895Y-144802832D01*
X87826895Y-143285768D01*
X85551297Y-143285768D01*
X85551297Y-142527235D01*
X84792765Y-142527235D01*
X84792765Y-144044300D01*
X85551297Y-144044300D01*
X85551297Y-144802832D01*
X84034232Y-144802832D01*
X84034232Y-143285768D01*
X83275700Y-143285768D01*
X83275700Y-141768703D01*
X84792765Y-141768703D01*
X84792765Y-141010170D01*
X84034232Y-141010170D01*
X84034232Y-140251638D01*
X83275700Y-140251638D01*
X83275700Y-139493105D01*
X81000103Y-139493105D01*
X81000103Y-140251638D01*
X80241570Y-140251638D01*
X80241570Y-138734573D01*
X79483038Y-138734573D01*
X77965973Y-138734573D01*
X77965973Y-139493105D01*
X79483038Y-139493105D01*
X79483038Y-140251638D01*
X77965973Y-140251638D01*
X77965973Y-141010170D01*
X78724505Y-141010170D01*
X78724505Y-141768703D01*
X79483038Y-141768703D01*
X79483038Y-141010170D01*
X80241570Y-141010170D01*
X80241570Y-141768703D01*
X81000103Y-141768703D01*
X81000103Y-141010170D01*
X81758635Y-141010170D01*
X81758635Y-140251638D01*
X82517168Y-140251638D01*
X82517168Y-141010170D01*
X81758635Y-141010170D01*
X81758635Y-142527235D01*
X82517168Y-142527235D01*
X82517168Y-143285768D01*
X80241570Y-143285768D01*
X80241570Y-144802832D01*
X81758635Y-144802832D01*
X81758635Y-144044300D01*
X82517168Y-144044300D01*
X82517168Y-143285768D01*
X83275700Y-143285768D01*
X83275700Y-144044300D01*
X82517168Y-144044300D01*
X82517168Y-144802832D01*
X81758635Y-144802832D01*
X80241570Y-144802832D01*
X79483038Y-144802832D01*
X79483038Y-143285768D01*
X77965973Y-143285768D01*
X77965973Y-142527235D01*
X77207441Y-142527235D01*
X77207441Y-140251638D01*
X76448908Y-140251638D01*
X76448908Y-141768703D01*
X75690376Y-141768703D01*
X74931843Y-141768703D01*
X74931843Y-142527235D01*
X75690376Y-142527235D01*
X75690376Y-144044300D01*
X76448908Y-144044300D01*
X76448908Y-143285768D01*
X77965973Y-143285768D01*
X77965973Y-144044300D01*
X76448908Y-144044300D01*
X75690376Y-144044300D01*
X74173311Y-144044300D01*
X74173311Y-144802832D01*
X74931843Y-144802832D01*
X74931843Y-145561365D01*
X74173311Y-145561365D01*
X74173311Y-146319897D01*
X75690376Y-146319897D01*
X75690376Y-147078430D01*
X74173311Y-147078430D01*
X74173311Y-147836962D01*
X74931843Y-147836962D01*
X75690376Y-147836962D01*
X75690376Y-147078430D01*
X76448908Y-147078430D01*
X84792765Y-147078430D01*
X84792765Y-146319897D01*
X85551297Y-146319897D01*
X85551297Y-147078430D01*
X84792765Y-147078430D01*
X76448908Y-147078430D01*
X76448908Y-147836962D01*
X75690376Y-147836962D01*
X74931843Y-147836962D01*
X74931843Y-148595495D01*
X75690376Y-148595495D01*
X75690376Y-149354027D01*
X76448908Y-149354027D01*
X76448908Y-148595495D01*
X77207441Y-148595495D01*
X77207441Y-149354027D01*
X76448908Y-149354027D01*
X76448908Y-150871092D01*
X75690376Y-150871092D01*
X75690376Y-151629624D01*
X74173311Y-151629624D01*
X74173311Y-150871092D01*
X74931843Y-150871092D01*
X74931843Y-150112559D01*
X74173311Y-150112559D01*
X74173311Y-149354027D01*
X73414778Y-149354027D01*
X73414778Y-150112559D01*
X72656246Y-150112559D01*
X72656246Y-148595495D01*
X71897714Y-148595495D01*
X71897714Y-147836962D01*
X71139181Y-147836962D01*
X71139181Y-147078430D01*
X69622116Y-147078430D01*
X68105052Y-147078430D01*
X68105052Y-149354027D01*
X69622116Y-149354027D01*
X69622116Y-147836962D01*
X71139181Y-147836962D01*
X71139181Y-148595495D01*
X70380649Y-148595495D01*
X70380649Y-149354027D01*
X69622116Y-149354027D01*
X68105052Y-149354027D01*
X68105052Y-150871092D01*
X70380649Y-150871092D01*
X70380649Y-149354027D01*
X71897714Y-149354027D01*
X71897714Y-150112559D01*
X71139181Y-150112559D01*
X71139181Y-150871092D01*
X70380649Y-150871092D01*
X68105052Y-150871092D01*
X68105052Y-151629624D01*
X71897714Y-151629624D01*
X71897714Y-150871092D01*
X73414778Y-150871092D01*
X73414778Y-151629624D01*
X71897714Y-151629624D01*
X68105052Y-151629624D01*
X68105052Y-157697884D01*
X69622116Y-157697884D01*
X69622116Y-152388157D01*
X74931843Y-152388157D01*
X74931843Y-153146689D01*
X75690376Y-153146689D01*
X75690376Y-152388157D01*
X76448908Y-152388157D01*
X76448908Y-153146689D01*
X75690376Y-153146689D01*
X74931843Y-153146689D01*
X74931843Y-156180819D01*
X75690376Y-156180819D01*
X75690376Y-154663754D01*
X76448908Y-154663754D01*
X76448908Y-153146689D01*
X77207441Y-153146689D01*
X77207441Y-150112559D01*
X77965973Y-150112559D01*
X77965973Y-149354027D01*
X79483038Y-149354027D01*
X79483038Y-148595495D01*
X81758635Y-148595495D01*
X81758635Y-149354027D01*
X82517168Y-149354027D01*
X82517168Y-148595495D01*
X84034232Y-148595495D01*
X84034232Y-149354027D01*
X82517168Y-149354027D01*
X82517168Y-150112559D01*
X81758635Y-150112559D01*
X81758635Y-150871092D01*
X82517168Y-150871092D01*
X83275700Y-150871092D01*
X83275700Y-150112559D01*
X84792765Y-150112559D01*
X84792765Y-147836962D01*
X86309830Y-147836962D01*
X86309830Y-147078430D01*
X87068362Y-147078430D01*
X87068362Y-147836962D01*
X87826895Y-147836962D01*
X87826895Y-147078430D01*
X88585427Y-147078430D01*
X88585427Y-144802832D01*
X89343959Y-144802832D01*
X89343959Y-145561365D01*
X90861024Y-145561365D01*
X90861024Y-144802832D01*
X91619557Y-144802832D01*
X91619557Y-147836962D01*
X90861024Y-147836962D01*
X90861024Y-148595495D01*
X90102492Y-148595495D01*
X90102492Y-147836962D01*
X89343959Y-147836962D01*
X89343959Y-147078430D01*
X88585427Y-147078430D01*
X88585427Y-147836962D01*
X87826895Y-147836962D01*
X87826895Y-148595495D01*
X89343959Y-148595495D01*
X89343959Y-149354027D01*
X90861024Y-149354027D01*
X90861024Y-148595495D01*
X91619557Y-148595495D01*
X91619557Y-149354027D01*
X90861024Y-149354027D01*
X89343959Y-149354027D01*
X89343959Y-150112559D01*
X90861024Y-150112559D01*
X90861024Y-150871092D01*
X90102492Y-150871092D01*
X90102492Y-151629624D01*
X88585427Y-151629624D01*
X88585427Y-150871092D01*
X87826895Y-150871092D01*
X87826895Y-150112559D01*
X86309830Y-150112559D01*
X86309830Y-149354027D01*
X85551297Y-149354027D01*
X85551297Y-150871092D01*
X83275700Y-150871092D01*
X82517168Y-150871092D01*
X82517168Y-151629624D01*
X84034232Y-151629624D01*
X84034232Y-153146689D01*
X84792765Y-153146689D01*
X84792765Y-152388157D01*
X85551297Y-152388157D01*
X85551297Y-153146689D01*
X84792765Y-153146689D01*
X84034232Y-153146689D01*
X83275700Y-153146689D01*
X83275700Y-152388157D01*
X82517168Y-152388157D01*
X82517168Y-153146689D01*
X81758635Y-153146689D01*
X81758635Y-153905222D01*
X82517168Y-153905222D01*
X82517168Y-154663754D01*
X81000103Y-154663754D01*
X81000103Y-155422286D01*
X80241570Y-155422286D01*
X80241570Y-156180819D01*
X79483038Y-156180819D01*
X79483038Y-157697884D01*
X80241570Y-157697884D01*
X80241570Y-156180819D01*
X81000103Y-156180819D01*
X81758635Y-156180819D01*
X81758635Y-155422286D01*
X82517168Y-155422286D01*
X82517168Y-154663754D01*
X83275700Y-154663754D01*
X83275700Y-153905222D01*
X84792765Y-153905222D01*
X84792765Y-155422286D01*
X85551297Y-155422286D01*
X85551297Y-156180819D01*
X84792765Y-156180819D01*
X84792765Y-156939351D01*
X85551297Y-156939351D01*
X85551297Y-157697884D01*
X86309830Y-157697884D01*
X86309830Y-152388157D01*
X91619557Y-152388157D01*
X91619557Y-157697884D01*
X86309830Y-157697884D01*
X85551297Y-157697884D01*
X82517168Y-157697884D01*
X82517168Y-156180819D01*
X81758635Y-156180819D01*
X81000103Y-156180819D01*
X81000103Y-157697884D01*
X80241570Y-157697884D01*
X79483038Y-157697884D01*
X77965973Y-157697884D01*
X77965973Y-156939351D01*
X76448908Y-156939351D01*
X76448908Y-156180819D01*
X75690376Y-156180819D01*
X74931843Y-156180819D01*
X74931843Y-157697884D01*
X69622116Y-157697884D01*
X68105052Y-157697884D01*
X68105052Y-159214948D01*
X93136621Y-159214948D01*
X93136621Y-134183379D01*
G37*
X93136621Y-134183379D02*
X68105052Y-134183379D01*
X68105052Y-141010170D01*
X69622116Y-141010170D01*
X69622116Y-135700443D01*
X74931843Y-135700443D01*
X74931843Y-136458976D01*
X76448908Y-136458976D01*
X76448908Y-135700443D01*
X77207441Y-135700443D01*
X77207441Y-136458976D01*
X76448908Y-136458976D01*
X74931843Y-136458976D01*
X74931843Y-139493105D01*
X75690376Y-139493105D01*
X75690376Y-137976041D01*
X76448908Y-137976041D01*
X76448908Y-137217508D01*
X77207441Y-137217508D01*
X77207441Y-136458976D01*
X77965973Y-136458976D01*
X77965973Y-135700443D01*
X79483038Y-135700443D01*
X79483038Y-136458976D01*
X80241570Y-136458976D01*
X80241570Y-135700443D01*
X81000103Y-135700443D01*
X81000103Y-136458976D01*
X80241570Y-136458976D01*
X79483038Y-136458976D01*
X79483038Y-137217508D01*
X78724505Y-137217508D01*
X78724505Y-136458976D01*
X77965973Y-136458976D01*
X77965973Y-137217508D01*
X77207441Y-137217508D01*
X77207441Y-137976041D01*
X76448908Y-137976041D01*
X76448908Y-139493105D01*
X75690376Y-139493105D01*
X74931843Y-139493105D01*
X74931843Y-141010170D01*
X69622116Y-141010170D01*
X68105052Y-141010170D01*
X68105052Y-147078430D01*
X69622116Y-147078430D01*
X69622116Y-146319897D01*
X71139181Y-146319897D01*
X71139181Y-145561365D01*
X69622116Y-145561365D01*
X69622116Y-141768703D01*
X71139181Y-141768703D01*
X71139181Y-143285768D01*
X71897714Y-143285768D01*
X71897714Y-144044300D01*
X72656246Y-144044300D01*
X72656246Y-142527235D01*
X73414778Y-142527235D01*
X73414778Y-141768703D01*
X74931843Y-141768703D01*
X75690376Y-141768703D01*
X75690376Y-140251638D01*
X76448908Y-140251638D01*
X76448908Y-139493105D01*
X77207441Y-139493105D01*
X77207441Y-138734573D01*
X77965973Y-138734573D01*
X79483038Y-138734573D01*
X79483038Y-137976041D01*
X80241570Y-137976041D01*
X80241570Y-137217508D01*
X81758635Y-137217508D01*
X81758635Y-135700443D01*
X82517168Y-135700443D01*
X82517168Y-136458976D01*
X83275700Y-136458976D01*
X83275700Y-135700443D01*
X89343959Y-135700443D01*
X89343959Y-136458976D01*
X90102492Y-136458976D01*
X90102492Y-137217508D01*
X90861024Y-137217508D01*
X90861024Y-136458976D01*
X91619557Y-136458976D01*
X91619557Y-137976041D01*
X90861024Y-137976041D01*
X90861024Y-138734573D01*
X91619557Y-138734573D01*
X91619557Y-140251638D01*
X90861024Y-140251638D01*
X90861024Y-141010170D01*
X90102492Y-141010170D01*
X90102492Y-142527235D01*
X90861024Y-142527235D01*
X90861024Y-141768703D01*
X91619557Y-141768703D01*
X91619557Y-144044300D01*
X90861024Y-144044300D01*
X90861024Y-143285768D01*
X89343959Y-143285768D01*
X89343959Y-144044300D01*
X88585427Y-144044300D01*
X88585427Y-144802832D01*
X87826895Y-144802832D01*
X87826895Y-143285768D01*
X85551297Y-143285768D01*
X85551297Y-142527235D01*
X84792765Y-142527235D01*
X84792765Y-144044300D01*
X85551297Y-144044300D01*
X85551297Y-144802832D01*
X84034232Y-144802832D01*
X84034232Y-143285768D01*
X83275700Y-143285768D01*
X83275700Y-141768703D01*
X84792765Y-141768703D01*
X84792765Y-141010170D01*
X84034232Y-141010170D01*
X84034232Y-140251638D01*
X83275700Y-140251638D01*
X83275700Y-139493105D01*
X81000103Y-139493105D01*
X81000103Y-140251638D01*
X80241570Y-140251638D01*
X80241570Y-138734573D01*
X79483038Y-138734573D01*
X77965973Y-138734573D01*
X77965973Y-139493105D01*
X79483038Y-139493105D01*
X79483038Y-140251638D01*
X77965973Y-140251638D01*
X77965973Y-141010170D01*
X78724505Y-141010170D01*
X78724505Y-141768703D01*
X79483038Y-141768703D01*
X79483038Y-141010170D01*
X80241570Y-141010170D01*
X80241570Y-141768703D01*
X81000103Y-141768703D01*
X81000103Y-141010170D01*
X81758635Y-141010170D01*
X81758635Y-140251638D01*
X82517168Y-140251638D01*
X82517168Y-141010170D01*
X81758635Y-141010170D01*
X81758635Y-142527235D01*
X82517168Y-142527235D01*
X82517168Y-143285768D01*
X80241570Y-143285768D01*
X80241570Y-144802832D01*
X81758635Y-144802832D01*
X81758635Y-144044300D01*
X82517168Y-144044300D01*
X82517168Y-143285768D01*
X83275700Y-143285768D01*
X83275700Y-144044300D01*
X82517168Y-144044300D01*
X82517168Y-144802832D01*
X81758635Y-144802832D01*
X80241570Y-144802832D01*
X79483038Y-144802832D01*
X79483038Y-143285768D01*
X77965973Y-143285768D01*
X77965973Y-142527235D01*
X77207441Y-142527235D01*
X77207441Y-140251638D01*
X76448908Y-140251638D01*
X76448908Y-141768703D01*
X75690376Y-141768703D01*
X74931843Y-141768703D01*
X74931843Y-142527235D01*
X75690376Y-142527235D01*
X75690376Y-144044300D01*
X76448908Y-144044300D01*
X76448908Y-143285768D01*
X77965973Y-143285768D01*
X77965973Y-144044300D01*
X76448908Y-144044300D01*
X75690376Y-144044300D01*
X74173311Y-144044300D01*
X74173311Y-144802832D01*
X74931843Y-144802832D01*
X74931843Y-145561365D01*
X74173311Y-145561365D01*
X74173311Y-146319897D01*
X75690376Y-146319897D01*
X75690376Y-147078430D01*
X74173311Y-147078430D01*
X74173311Y-147836962D01*
X74931843Y-147836962D01*
X75690376Y-147836962D01*
X75690376Y-147078430D01*
X76448908Y-147078430D01*
X84792765Y-147078430D01*
X84792765Y-146319897D01*
X85551297Y-146319897D01*
X85551297Y-147078430D01*
X84792765Y-147078430D01*
X76448908Y-147078430D01*
X76448908Y-147836962D01*
X75690376Y-147836962D01*
X74931843Y-147836962D01*
X74931843Y-148595495D01*
X75690376Y-148595495D01*
X75690376Y-149354027D01*
X76448908Y-149354027D01*
X76448908Y-148595495D01*
X77207441Y-148595495D01*
X77207441Y-149354027D01*
X76448908Y-149354027D01*
X76448908Y-150871092D01*
X75690376Y-150871092D01*
X75690376Y-151629624D01*
X74173311Y-151629624D01*
X74173311Y-150871092D01*
X74931843Y-150871092D01*
X74931843Y-150112559D01*
X74173311Y-150112559D01*
X74173311Y-149354027D01*
X73414778Y-149354027D01*
X73414778Y-150112559D01*
X72656246Y-150112559D01*
X72656246Y-148595495D01*
X71897714Y-148595495D01*
X71897714Y-147836962D01*
X71139181Y-147836962D01*
X71139181Y-147078430D01*
X69622116Y-147078430D01*
X68105052Y-147078430D01*
X68105052Y-149354027D01*
X69622116Y-149354027D01*
X69622116Y-147836962D01*
X71139181Y-147836962D01*
X71139181Y-148595495D01*
X70380649Y-148595495D01*
X70380649Y-149354027D01*
X69622116Y-149354027D01*
X68105052Y-149354027D01*
X68105052Y-150871092D01*
X70380649Y-150871092D01*
X70380649Y-149354027D01*
X71897714Y-149354027D01*
X71897714Y-150112559D01*
X71139181Y-150112559D01*
X71139181Y-150871092D01*
X70380649Y-150871092D01*
X68105052Y-150871092D01*
X68105052Y-151629624D01*
X71897714Y-151629624D01*
X71897714Y-150871092D01*
X73414778Y-150871092D01*
X73414778Y-151629624D01*
X71897714Y-151629624D01*
X68105052Y-151629624D01*
X68105052Y-157697884D01*
X69622116Y-157697884D01*
X69622116Y-152388157D01*
X74931843Y-152388157D01*
X74931843Y-153146689D01*
X75690376Y-153146689D01*
X75690376Y-152388157D01*
X76448908Y-152388157D01*
X76448908Y-153146689D01*
X75690376Y-153146689D01*
X74931843Y-153146689D01*
X74931843Y-156180819D01*
X75690376Y-156180819D01*
X75690376Y-154663754D01*
X76448908Y-154663754D01*
X76448908Y-153146689D01*
X77207441Y-153146689D01*
X77207441Y-150112559D01*
X77965973Y-150112559D01*
X77965973Y-149354027D01*
X79483038Y-149354027D01*
X79483038Y-148595495D01*
X81758635Y-148595495D01*
X81758635Y-149354027D01*
X82517168Y-149354027D01*
X82517168Y-148595495D01*
X84034232Y-148595495D01*
X84034232Y-149354027D01*
X82517168Y-149354027D01*
X82517168Y-150112559D01*
X81758635Y-150112559D01*
X81758635Y-150871092D01*
X82517168Y-150871092D01*
X83275700Y-150871092D01*
X83275700Y-150112559D01*
X84792765Y-150112559D01*
X84792765Y-147836962D01*
X86309830Y-147836962D01*
X86309830Y-147078430D01*
X87068362Y-147078430D01*
X87068362Y-147836962D01*
X87826895Y-147836962D01*
X87826895Y-147078430D01*
X88585427Y-147078430D01*
X88585427Y-144802832D01*
X89343959Y-144802832D01*
X89343959Y-145561365D01*
X90861024Y-145561365D01*
X90861024Y-144802832D01*
X91619557Y-144802832D01*
X91619557Y-147836962D01*
X90861024Y-147836962D01*
X90861024Y-148595495D01*
X90102492Y-148595495D01*
X90102492Y-147836962D01*
X89343959Y-147836962D01*
X89343959Y-147078430D01*
X88585427Y-147078430D01*
X88585427Y-147836962D01*
X87826895Y-147836962D01*
X87826895Y-148595495D01*
X89343959Y-148595495D01*
X89343959Y-149354027D01*
X90861024Y-149354027D01*
X90861024Y-148595495D01*
X91619557Y-148595495D01*
X91619557Y-149354027D01*
X90861024Y-149354027D01*
X89343959Y-149354027D01*
X89343959Y-150112559D01*
X90861024Y-150112559D01*
X90861024Y-150871092D01*
X90102492Y-150871092D01*
X90102492Y-151629624D01*
X88585427Y-151629624D01*
X88585427Y-150871092D01*
X87826895Y-150871092D01*
X87826895Y-150112559D01*
X86309830Y-150112559D01*
X86309830Y-149354027D01*
X85551297Y-149354027D01*
X85551297Y-150871092D01*
X83275700Y-150871092D01*
X82517168Y-150871092D01*
X82517168Y-151629624D01*
X84034232Y-151629624D01*
X84034232Y-153146689D01*
X84792765Y-153146689D01*
X84792765Y-152388157D01*
X85551297Y-152388157D01*
X85551297Y-153146689D01*
X84792765Y-153146689D01*
X84034232Y-153146689D01*
X83275700Y-153146689D01*
X83275700Y-152388157D01*
X82517168Y-152388157D01*
X82517168Y-153146689D01*
X81758635Y-153146689D01*
X81758635Y-153905222D01*
X82517168Y-153905222D01*
X82517168Y-154663754D01*
X81000103Y-154663754D01*
X81000103Y-155422286D01*
X80241570Y-155422286D01*
X80241570Y-156180819D01*
X79483038Y-156180819D01*
X79483038Y-157697884D01*
X80241570Y-157697884D01*
X80241570Y-156180819D01*
X81000103Y-156180819D01*
X81758635Y-156180819D01*
X81758635Y-155422286D01*
X82517168Y-155422286D01*
X82517168Y-154663754D01*
X83275700Y-154663754D01*
X83275700Y-153905222D01*
X84792765Y-153905222D01*
X84792765Y-155422286D01*
X85551297Y-155422286D01*
X85551297Y-156180819D01*
X84792765Y-156180819D01*
X84792765Y-156939351D01*
X85551297Y-156939351D01*
X85551297Y-157697884D01*
X86309830Y-157697884D01*
X86309830Y-152388157D01*
X91619557Y-152388157D01*
X91619557Y-157697884D01*
X86309830Y-157697884D01*
X85551297Y-157697884D01*
X82517168Y-157697884D01*
X82517168Y-156180819D01*
X81758635Y-156180819D01*
X81000103Y-156180819D01*
X81000103Y-157697884D01*
X80241570Y-157697884D01*
X79483038Y-157697884D01*
X77965973Y-157697884D01*
X77965973Y-156939351D01*
X76448908Y-156939351D01*
X76448908Y-156180819D01*
X75690376Y-156180819D01*
X74931843Y-156180819D01*
X74931843Y-157697884D01*
X69622116Y-157697884D01*
X68105052Y-157697884D01*
X68105052Y-159214948D01*
X93136621Y-159214948D01*
X93136621Y-134183379D01*
G36*
X132704370Y-100950036D02*
G01*
X132405622Y-100950164D01*
X132134049Y-100950417D01*
X131888310Y-100950829D01*
X131667067Y-100951435D01*
X131468982Y-100952271D01*
X131292717Y-100953370D01*
X131136931Y-100954769D01*
X131000288Y-100956501D01*
X130881447Y-100958603D01*
X130779071Y-100961108D01*
X130691822Y-100964053D01*
X130618359Y-100967471D01*
X130557345Y-100971397D01*
X130507442Y-100975868D01*
X130467310Y-100980917D01*
X130435610Y-100986579D01*
X130411005Y-100992890D01*
X130392156Y-100999885D01*
X130377724Y-101007598D01*
X130366370Y-101016064D01*
X130356755Y-101025319D01*
X130347542Y-101035396D01*
X130337392Y-101046332D01*
X130332757Y-101050967D01*
X130303197Y-101082257D01*
X130279850Y-101115097D01*
X130261887Y-101153917D01*
X130248481Y-101203146D01*
X130238804Y-101267215D01*
X130232030Y-101350552D01*
X130227331Y-101457588D01*
X130223879Y-101592752D01*
X130222977Y-101638692D01*
X130220964Y-101816205D01*
X130222744Y-101963431D01*
X130229122Y-102083818D01*
X130240904Y-102180816D01*
X130258895Y-102257871D01*
X130283900Y-102318431D01*
X130316723Y-102365946D01*
X130358171Y-102403863D01*
X130409047Y-102435629D01*
X130409052Y-102435632D01*
X130481000Y-102474066D01*
X134155533Y-102476662D01*
X134506578Y-102476850D01*
X134849013Y-102476914D01*
X135181268Y-102476861D01*
X135501773Y-102476693D01*
X135808959Y-102476415D01*
X136101254Y-102476032D01*
X136377089Y-102475549D01*
X136634895Y-102474970D01*
X136873100Y-102474298D01*
X137090136Y-102473540D01*
X137284432Y-102472698D01*
X137454418Y-102471779D01*
X137598524Y-102470785D01*
X137715180Y-102469722D01*
X137802817Y-102468594D01*
X137859863Y-102467406D01*
X137884750Y-102466162D01*
X137885344Y-102466051D01*
X137965255Y-102434107D01*
X138038403Y-102382194D01*
X138092823Y-102319347D01*
X138102587Y-102302011D01*
X138112056Y-102280271D01*
X138119587Y-102254722D01*
X138125458Y-102221239D01*
X138129948Y-102175697D01*
X138133336Y-102113970D01*
X138135901Y-102031933D01*
X138137921Y-101925461D01*
X138139675Y-101790429D01*
X138140168Y-101745933D01*
X138141304Y-101570052D01*
X138140575Y-101426464D01*
X138137989Y-101315543D01*
X138133557Y-101237661D01*
X138127286Y-101193194D01*
X138126704Y-101191085D01*
X138085639Y-101107228D01*
X138019142Y-101035426D01*
X137935481Y-100984369D01*
X137926644Y-100980799D01*
X137916535Y-100977307D01*
X137904126Y-100974091D01*
X137888060Y-100971137D01*
X137866977Y-100968435D01*
X137839521Y-100965974D01*
X137804331Y-100963743D01*
X137760051Y-100961730D01*
X137705321Y-100959924D01*
X137638784Y-100958314D01*
X137559080Y-100956888D01*
X137464852Y-100955637D01*
X137354741Y-100954548D01*
X137227388Y-100953609D01*
X137081436Y-100952811D01*
X136915526Y-100952142D01*
X136728300Y-100951590D01*
X136518399Y-100951145D01*
X136284465Y-100950795D01*
X136025140Y-100950529D01*
X135739064Y-100950336D01*
X135424881Y-100950204D01*
X135081231Y-100950123D01*
X134706756Y-100950081D01*
X134300098Y-100950067D01*
X134197867Y-100950066D01*
X133777039Y-100950047D01*
X133388739Y-100950012D01*
X133031629Y-100949997D01*
X132704370Y-100950036D01*
G37*
X132704370Y-100950036D02*
X132405622Y-100950164D01*
X132134049Y-100950417D01*
X131888310Y-100950829D01*
X131667067Y-100951435D01*
X131468982Y-100952271D01*
X131292717Y-100953370D01*
X131136931Y-100954769D01*
X131000288Y-100956501D01*
X130881447Y-100958603D01*
X130779071Y-100961108D01*
X130691822Y-100964053D01*
X130618359Y-100967471D01*
X130557345Y-100971397D01*
X130507442Y-100975868D01*
X130467310Y-100980917D01*
X130435610Y-100986579D01*
X130411005Y-100992890D01*
X130392156Y-100999885D01*
X130377724Y-101007598D01*
X130366370Y-101016064D01*
X130356755Y-101025319D01*
X130347542Y-101035396D01*
X130337392Y-101046332D01*
X130332757Y-101050967D01*
X130303197Y-101082257D01*
X130279850Y-101115097D01*
X130261887Y-101153917D01*
X130248481Y-101203146D01*
X130238804Y-101267215D01*
X130232030Y-101350552D01*
X130227331Y-101457588D01*
X130223879Y-101592752D01*
X130222977Y-101638692D01*
X130220964Y-101816205D01*
X130222744Y-101963431D01*
X130229122Y-102083818D01*
X130240904Y-102180816D01*
X130258895Y-102257871D01*
X130283900Y-102318431D01*
X130316723Y-102365946D01*
X130358171Y-102403863D01*
X130409047Y-102435629D01*
X130409052Y-102435632D01*
X130481000Y-102474066D01*
X134155533Y-102476662D01*
X134506578Y-102476850D01*
X134849013Y-102476914D01*
X135181268Y-102476861D01*
X135501773Y-102476693D01*
X135808959Y-102476415D01*
X136101254Y-102476032D01*
X136377089Y-102475549D01*
X136634895Y-102474970D01*
X136873100Y-102474298D01*
X137090136Y-102473540D01*
X137284432Y-102472698D01*
X137454418Y-102471779D01*
X137598524Y-102470785D01*
X137715180Y-102469722D01*
X137802817Y-102468594D01*
X137859863Y-102467406D01*
X137884750Y-102466162D01*
X137885344Y-102466051D01*
X137965255Y-102434107D01*
X138038403Y-102382194D01*
X138092823Y-102319347D01*
X138102587Y-102302011D01*
X138112056Y-102280271D01*
X138119587Y-102254722D01*
X138125458Y-102221239D01*
X138129948Y-102175697D01*
X138133336Y-102113970D01*
X138135901Y-102031933D01*
X138137921Y-101925461D01*
X138139675Y-101790429D01*
X138140168Y-101745933D01*
X138141304Y-101570052D01*
X138140575Y-101426464D01*
X138137989Y-101315543D01*
X138133557Y-101237661D01*
X138127286Y-101193194D01*
X138126704Y-101191085D01*
X138085639Y-101107228D01*
X138019142Y-101035426D01*
X137935481Y-100984369D01*
X137926644Y-100980799D01*
X137916535Y-100977307D01*
X137904126Y-100974091D01*
X137888060Y-100971137D01*
X137866977Y-100968435D01*
X137839521Y-100965974D01*
X137804331Y-100963743D01*
X137760051Y-100961730D01*
X137705321Y-100959924D01*
X137638784Y-100958314D01*
X137559080Y-100956888D01*
X137464852Y-100955637D01*
X137354741Y-100954548D01*
X137227388Y-100953609D01*
X137081436Y-100952811D01*
X136915526Y-100952142D01*
X136728300Y-100951590D01*
X136518399Y-100951145D01*
X136284465Y-100950795D01*
X136025140Y-100950529D01*
X135739064Y-100950336D01*
X135424881Y-100950204D01*
X135081231Y-100950123D01*
X134706756Y-100950081D01*
X134300098Y-100950067D01*
X134197867Y-100950066D01*
X133777039Y-100950047D01*
X133388739Y-100950012D01*
X133031629Y-100949997D01*
X132704370Y-100950036D01*
G36*
X130712679Y-106370370D02*
G01*
X130643172Y-106413869D01*
X130593164Y-106469338D01*
X130578121Y-106493137D01*
X130531800Y-106571933D01*
X130531800Y-107079933D01*
X130531868Y-107224557D01*
X130532261Y-107339472D01*
X130533263Y-107428835D01*
X130535156Y-107496802D01*
X130538223Y-107547531D01*
X130542748Y-107585179D01*
X130549014Y-107613902D01*
X130557304Y-107637859D01*
X130567900Y-107661206D01*
X130571951Y-107669483D01*
X130629832Y-107752701D01*
X130710320Y-107811760D01*
X130814983Y-107847777D01*
X130826607Y-107850110D01*
X130852858Y-107851887D01*
X130910987Y-107853556D01*
X130999030Y-107855116D01*
X131115021Y-107856568D01*
X131256995Y-107857912D01*
X131422985Y-107859148D01*
X131611027Y-107860277D01*
X131819156Y-107861297D01*
X132045406Y-107862211D01*
X132287811Y-107863016D01*
X132544407Y-107863715D01*
X132813228Y-107864306D01*
X133092309Y-107864790D01*
X133379683Y-107865168D01*
X133673387Y-107865438D01*
X133971454Y-107865602D01*
X134271920Y-107865660D01*
X134572818Y-107865611D01*
X134872184Y-107865455D01*
X135168052Y-107865194D01*
X135458456Y-107864827D01*
X135741432Y-107864354D01*
X136015014Y-107863775D01*
X136277237Y-107863090D01*
X136526135Y-107862300D01*
X136759743Y-107861405D01*
X136976096Y-107860405D01*
X137173228Y-107859299D01*
X137349173Y-107858088D01*
X137501967Y-107856773D01*
X137629645Y-107855353D01*
X137730240Y-107853828D01*
X137801788Y-107852199D01*
X137842322Y-107850466D01*
X137849939Y-107849648D01*
X137957473Y-107815269D01*
X138040278Y-107758683D01*
X138100608Y-107678148D01*
X138117125Y-107643279D01*
X138125889Y-107604436D01*
X138133080Y-107537332D01*
X138138700Y-107447537D01*
X138142747Y-107340621D01*
X138145222Y-107222153D01*
X138146124Y-107097703D01*
X138145455Y-106972841D01*
X138143213Y-106853135D01*
X138139399Y-106744156D01*
X138134012Y-106651473D01*
X138127054Y-106580656D01*
X138118523Y-106537275D01*
X138117125Y-106533520D01*
X138065503Y-106445644D01*
X137991997Y-106381693D01*
X137948600Y-106358404D01*
X137939874Y-106354803D01*
X137929026Y-106351488D01*
X137914680Y-106348448D01*
X137895459Y-106345672D01*
X137869987Y-106343146D01*
X137836887Y-106340859D01*
X137794783Y-106338799D01*
X137742298Y-106336954D01*
X137678056Y-106335311D01*
X137600681Y-106333858D01*
X137508796Y-106332584D01*
X137401025Y-106331477D01*
X137275991Y-106330524D01*
X137132318Y-106329713D01*
X136968629Y-106329032D01*
X136783548Y-106328470D01*
X136575699Y-106328013D01*
X136343706Y-106327651D01*
X136086191Y-106327370D01*
X135801778Y-106327160D01*
X135489091Y-106327007D01*
X135146754Y-106326900D01*
X134773390Y-106326826D01*
X134367622Y-106326774D01*
X134340891Y-106326771D01*
X130800916Y-106326400D01*
X130712679Y-106370370D01*
G37*
X130712679Y-106370370D02*
X130643172Y-106413869D01*
X130593164Y-106469338D01*
X130578121Y-106493137D01*
X130531800Y-106571933D01*
X130531800Y-107079933D01*
X130531868Y-107224557D01*
X130532261Y-107339472D01*
X130533263Y-107428835D01*
X130535156Y-107496802D01*
X130538223Y-107547531D01*
X130542748Y-107585179D01*
X130549014Y-107613902D01*
X130557304Y-107637859D01*
X130567900Y-107661206D01*
X130571951Y-107669483D01*
X130629832Y-107752701D01*
X130710320Y-107811760D01*
X130814983Y-107847777D01*
X130826607Y-107850110D01*
X130852858Y-107851887D01*
X130910987Y-107853556D01*
X130999030Y-107855116D01*
X131115021Y-107856568D01*
X131256995Y-107857912D01*
X131422985Y-107859148D01*
X131611027Y-107860277D01*
X131819156Y-107861297D01*
X132045406Y-107862211D01*
X132287811Y-107863016D01*
X132544407Y-107863715D01*
X132813228Y-107864306D01*
X133092309Y-107864790D01*
X133379683Y-107865168D01*
X133673387Y-107865438D01*
X133971454Y-107865602D01*
X134271920Y-107865660D01*
X134572818Y-107865611D01*
X134872184Y-107865455D01*
X135168052Y-107865194D01*
X135458456Y-107864827D01*
X135741432Y-107864354D01*
X136015014Y-107863775D01*
X136277237Y-107863090D01*
X136526135Y-107862300D01*
X136759743Y-107861405D01*
X136976096Y-107860405D01*
X137173228Y-107859299D01*
X137349173Y-107858088D01*
X137501967Y-107856773D01*
X137629645Y-107855353D01*
X137730240Y-107853828D01*
X137801788Y-107852199D01*
X137842322Y-107850466D01*
X137849939Y-107849648D01*
X137957473Y-107815269D01*
X138040278Y-107758683D01*
X138100608Y-107678148D01*
X138117125Y-107643279D01*
X138125889Y-107604436D01*
X138133080Y-107537332D01*
X138138700Y-107447537D01*
X138142747Y-107340621D01*
X138145222Y-107222153D01*
X138146124Y-107097703D01*
X138145455Y-106972841D01*
X138143213Y-106853135D01*
X138139399Y-106744156D01*
X138134012Y-106651473D01*
X138127054Y-106580656D01*
X138118523Y-106537275D01*
X138117125Y-106533520D01*
X138065503Y-106445644D01*
X137991997Y-106381693D01*
X137948600Y-106358404D01*
X137939874Y-106354803D01*
X137929026Y-106351488D01*
X137914680Y-106348448D01*
X137895459Y-106345672D01*
X137869987Y-106343146D01*
X137836887Y-106340859D01*
X137794783Y-106338799D01*
X137742298Y-106336954D01*
X137678056Y-106335311D01*
X137600681Y-106333858D01*
X137508796Y-106332584D01*
X137401025Y-106331477D01*
X137275991Y-106330524D01*
X137132318Y-106329713D01*
X136968629Y-106329032D01*
X136783548Y-106328470D01*
X136575699Y-106328013D01*
X136343706Y-106327651D01*
X136086191Y-106327370D01*
X135801778Y-106327160D01*
X135489091Y-106327007D01*
X135146754Y-106326900D01*
X134773390Y-106326826D01*
X134367622Y-106326774D01*
X134340891Y-106326771D01*
X130800916Y-106326400D01*
X130712679Y-106370370D01*
G36*
X102688294Y-100518603D02*
G01*
X102612977Y-100547341D01*
X102553848Y-100599967D01*
X102513087Y-100662899D01*
X102501761Y-100687245D01*
X102477900Y-100741122D01*
X102442207Y-100822890D01*
X102395385Y-100930910D01*
X102338138Y-101063539D01*
X102271169Y-101219139D01*
X102195181Y-101396068D01*
X102110877Y-101592686D01*
X102018961Y-101807353D01*
X101920135Y-102038428D01*
X101815103Y-102284271D01*
X101704568Y-102543241D01*
X101589233Y-102813698D01*
X101469802Y-103094001D01*
X101346977Y-103382510D01*
X101304816Y-103481599D01*
X101175837Y-103784733D01*
X101035005Y-104115642D01*
X100883759Y-104470952D01*
X100723536Y-104847290D01*
X100555773Y-105241282D01*
X100381906Y-105649551D01*
X100203375Y-106068726D01*
X100021615Y-106495430D01*
X99838065Y-106926290D01*
X99654162Y-107357932D01*
X99471343Y-107786981D01*
X99291046Y-108210062D01*
X99114707Y-108623803D01*
X98943765Y-109024827D01*
X98779657Y-109409762D01*
X98675602Y-109653799D01*
X98508161Y-110046413D01*
X98353472Y-110409084D01*
X98211053Y-110743045D01*
X98080426Y-111049530D01*
X97961109Y-111329770D01*
X97852623Y-111584998D01*
X97754488Y-111816448D01*
X97666224Y-112025351D01*
X97587351Y-112212942D01*
X97517390Y-112380451D01*
X97455859Y-112529113D01*
X97402280Y-112660160D01*
X97356172Y-112774825D01*
X97317056Y-112874340D01*
X97284450Y-112959939D01*
X97257877Y-113032853D01*
X97236854Y-113094317D01*
X97220903Y-113145561D01*
X97209544Y-113187820D01*
X97202296Y-113222326D01*
X97198680Y-113250312D01*
X97198216Y-113273010D01*
X97200423Y-113291654D01*
X97204822Y-113307475D01*
X97210933Y-113321708D01*
X97218276Y-113335583D01*
X97226370Y-113350335D01*
X97232059Y-113361496D01*
X97278815Y-113431293D01*
X97347331Y-113484619D01*
X97348326Y-113485206D01*
X97427133Y-113531533D01*
X98838326Y-113531533D01*
X98883678Y-113489200D01*
X98922681Y-113444331D01*
X98957501Y-113391177D01*
X98960431Y-113385642D01*
X98970582Y-113362983D01*
X98993001Y-113310890D01*
X99026920Y-113231191D01*
X99071572Y-113125710D01*
X99126190Y-112996272D01*
X99190008Y-112844704D01*
X99262258Y-112672831D01*
X99342174Y-112482477D01*
X99428988Y-112275469D01*
X99521934Y-112053633D01*
X99620245Y-111818792D01*
X99723153Y-111572774D01*
X99829892Y-111317402D01*
X99914447Y-111114971D01*
X100073068Y-110735155D01*
X100232155Y-110354309D01*
X100391144Y-109973780D01*
X100549471Y-109594916D01*
X100706573Y-109219064D01*
X100861884Y-108847569D01*
X101014841Y-108481779D01*
X101164881Y-108123042D01*
X101311438Y-107772703D01*
X101453950Y-107432109D01*
X101591852Y-107102608D01*
X101724580Y-106785547D01*
X101851571Y-106482272D01*
X101972259Y-106194130D01*
X102086082Y-105922467D01*
X102192476Y-105668632D01*
X102290875Y-105433971D01*
X102380717Y-105219830D01*
X102461438Y-105027557D01*
X102532473Y-104858498D01*
X102593258Y-104714000D01*
X102643230Y-104595410D01*
X102681824Y-104504076D01*
X102708477Y-104441343D01*
X102722362Y-104409151D01*
X102780224Y-104278370D01*
X102815140Y-104350237D01*
X102826555Y-104375782D01*
X102850629Y-104431378D01*
X102886873Y-104515869D01*
X102934796Y-104628097D01*
X102993909Y-104766904D01*
X103063723Y-104931133D01*
X103143747Y-105119626D01*
X103233492Y-105331224D01*
X103332468Y-105564771D01*
X103440186Y-105819109D01*
X103556155Y-106093080D01*
X103679887Y-106385526D01*
X103810892Y-106695290D01*
X103948679Y-107021214D01*
X104092759Y-107362140D01*
X104242643Y-107716910D01*
X104397841Y-108084368D01*
X104557862Y-108463354D01*
X104722218Y-108852712D01*
X104890419Y-109251284D01*
X105061975Y-109657912D01*
X105236397Y-110071438D01*
X105413194Y-110490705D01*
X105591877Y-110914555D01*
X105642167Y-111033866D01*
X105755540Y-111302646D01*
X105865646Y-111563278D01*
X105971740Y-111814018D01*
X106073076Y-112053117D01*
X106168908Y-112278831D01*
X106258490Y-112489412D01*
X106341076Y-112683115D01*
X106415921Y-112858191D01*
X106482278Y-113012896D01*
X106539403Y-113145483D01*
X106586550Y-113254205D01*
X106622971Y-113337316D01*
X106647923Y-113393069D01*
X106660659Y-113419718D01*
X106661721Y-113421466D01*
X106697254Y-113459905D01*
X106743082Y-113497931D01*
X106748761Y-113501900D01*
X106763389Y-113511455D01*
X106778696Y-113519260D01*
X106798051Y-113525489D01*
X106824823Y-113530319D01*
X106862378Y-113533924D01*
X106914086Y-113536478D01*
X106983314Y-113538156D01*
X107073430Y-113539134D01*
X107187803Y-113539586D01*
X107329801Y-113539687D01*
X107475337Y-113539628D01*
X107645303Y-113539429D01*
X107784830Y-113538942D01*
X107897346Y-113538021D01*
X107986278Y-113536521D01*
X108055053Y-113534294D01*
X108107100Y-113531196D01*
X108145845Y-113527081D01*
X108174716Y-113521802D01*
X108197141Y-113515214D01*
X108214367Y-113508171D01*
X108298455Y-113452691D01*
X108360946Y-113375863D01*
X108397853Y-113284611D01*
X108405187Y-113185860D01*
X108404413Y-113178158D01*
X108397371Y-113158837D01*
X108377512Y-113109674D01*
X108345380Y-113031945D01*
X108301523Y-112926926D01*
X108246486Y-112795893D01*
X108180814Y-112640124D01*
X108105055Y-112460893D01*
X108019754Y-112259478D01*
X107925457Y-112037154D01*
X107822710Y-111795197D01*
X107712059Y-111534885D01*
X107594050Y-111257493D01*
X107469228Y-110964298D01*
X107338141Y-110656575D01*
X107201333Y-110335601D01*
X107059351Y-110002652D01*
X106912741Y-109659005D01*
X106762048Y-109305936D01*
X106607819Y-108944720D01*
X106450600Y-108576635D01*
X106290937Y-108202956D01*
X106129375Y-107824960D01*
X105966461Y-107443923D01*
X105802740Y-107061121D01*
X105638759Y-106677831D01*
X105475063Y-106295328D01*
X105312199Y-105914890D01*
X105150712Y-105537791D01*
X104991148Y-105165309D01*
X104834054Y-104798720D01*
X104679975Y-104439300D01*
X104529458Y-104088324D01*
X104383047Y-103747071D01*
X104241291Y-103416815D01*
X104104733Y-103098833D01*
X103973920Y-102794401D01*
X103849399Y-102504795D01*
X103731714Y-102231293D01*
X103621413Y-101975169D01*
X103519041Y-101737700D01*
X103425144Y-101520163D01*
X103340268Y-101323834D01*
X103264959Y-101149988D01*
X103199762Y-100999903D01*
X103145225Y-100874854D01*
X103101893Y-100776118D01*
X103070311Y-100704970D01*
X103051026Y-100662688D01*
X103046042Y-100652537D01*
X102997753Y-100582088D01*
X102938855Y-100537512D01*
X102862224Y-100514897D01*
X102786533Y-100509987D01*
X102688294Y-100518603D01*
G37*
X102688294Y-100518603D02*
X102612977Y-100547341D01*
X102553848Y-100599967D01*
X102513087Y-100662899D01*
X102501761Y-100687245D01*
X102477900Y-100741122D01*
X102442207Y-100822890D01*
X102395385Y-100930910D01*
X102338138Y-101063539D01*
X102271169Y-101219139D01*
X102195181Y-101396068D01*
X102110877Y-101592686D01*
X102018961Y-101807353D01*
X101920135Y-102038428D01*
X101815103Y-102284271D01*
X101704568Y-102543241D01*
X101589233Y-102813698D01*
X101469802Y-103094001D01*
X101346977Y-103382510D01*
X101304816Y-103481599D01*
X101175837Y-103784733D01*
X101035005Y-104115642D01*
X100883759Y-104470952D01*
X100723536Y-104847290D01*
X100555773Y-105241282D01*
X100381906Y-105649551D01*
X100203375Y-106068726D01*
X100021615Y-106495430D01*
X99838065Y-106926290D01*
X99654162Y-107357932D01*
X99471343Y-107786981D01*
X99291046Y-108210062D01*
X99114707Y-108623803D01*
X98943765Y-109024827D01*
X98779657Y-109409762D01*
X98675602Y-109653799D01*
X98508161Y-110046413D01*
X98353472Y-110409084D01*
X98211053Y-110743045D01*
X98080426Y-111049530D01*
X97961109Y-111329770D01*
X97852623Y-111584998D01*
X97754488Y-111816448D01*
X97666224Y-112025351D01*
X97587351Y-112212942D01*
X97517390Y-112380451D01*
X97455859Y-112529113D01*
X97402280Y-112660160D01*
X97356172Y-112774825D01*
X97317056Y-112874340D01*
X97284450Y-112959939D01*
X97257877Y-113032853D01*
X97236854Y-113094317D01*
X97220903Y-113145561D01*
X97209544Y-113187820D01*
X97202296Y-113222326D01*
X97198680Y-113250312D01*
X97198216Y-113273010D01*
X97200423Y-113291654D01*
X97204822Y-113307475D01*
X97210933Y-113321708D01*
X97218276Y-113335583D01*
X97226370Y-113350335D01*
X97232059Y-113361496D01*
X97278815Y-113431293D01*
X97347331Y-113484619D01*
X97348326Y-113485206D01*
X97427133Y-113531533D01*
X98838326Y-113531533D01*
X98883678Y-113489200D01*
X98922681Y-113444331D01*
X98957501Y-113391177D01*
X98960431Y-113385642D01*
X98970582Y-113362983D01*
X98993001Y-113310890D01*
X99026920Y-113231191D01*
X99071572Y-113125710D01*
X99126190Y-112996272D01*
X99190008Y-112844704D01*
X99262258Y-112672831D01*
X99342174Y-112482477D01*
X99428988Y-112275469D01*
X99521934Y-112053633D01*
X99620245Y-111818792D01*
X99723153Y-111572774D01*
X99829892Y-111317402D01*
X99914447Y-111114971D01*
X100073068Y-110735155D01*
X100232155Y-110354309D01*
X100391144Y-109973780D01*
X100549471Y-109594916D01*
X100706573Y-109219064D01*
X100861884Y-108847569D01*
X101014841Y-108481779D01*
X101164881Y-108123042D01*
X101311438Y-107772703D01*
X101453950Y-107432109D01*
X101591852Y-107102608D01*
X101724580Y-106785547D01*
X101851571Y-106482272D01*
X101972259Y-106194130D01*
X102086082Y-105922467D01*
X102192476Y-105668632D01*
X102290875Y-105433971D01*
X102380717Y-105219830D01*
X102461438Y-105027557D01*
X102532473Y-104858498D01*
X102593258Y-104714000D01*
X102643230Y-104595410D01*
X102681824Y-104504076D01*
X102708477Y-104441343D01*
X102722362Y-104409151D01*
X102780224Y-104278370D01*
X102815140Y-104350237D01*
X102826555Y-104375782D01*
X102850629Y-104431378D01*
X102886873Y-104515869D01*
X102934796Y-104628097D01*
X102993909Y-104766904D01*
X103063723Y-104931133D01*
X103143747Y-105119626D01*
X103233492Y-105331224D01*
X103332468Y-105564771D01*
X103440186Y-105819109D01*
X103556155Y-106093080D01*
X103679887Y-106385526D01*
X103810892Y-106695290D01*
X103948679Y-107021214D01*
X104092759Y-107362140D01*
X104242643Y-107716910D01*
X104397841Y-108084368D01*
X104557862Y-108463354D01*
X104722218Y-108852712D01*
X104890419Y-109251284D01*
X105061975Y-109657912D01*
X105236397Y-110071438D01*
X105413194Y-110490705D01*
X105591877Y-110914555D01*
X105642167Y-111033866D01*
X105755540Y-111302646D01*
X105865646Y-111563278D01*
X105971740Y-111814018D01*
X106073076Y-112053117D01*
X106168908Y-112278831D01*
X106258490Y-112489412D01*
X106341076Y-112683115D01*
X106415921Y-112858191D01*
X106482278Y-113012896D01*
X106539403Y-113145483D01*
X106586550Y-113254205D01*
X106622971Y-113337316D01*
X106647923Y-113393069D01*
X106660659Y-113419718D01*
X106661721Y-113421466D01*
X106697254Y-113459905D01*
X106743082Y-113497931D01*
X106748761Y-113501900D01*
X106763389Y-113511455D01*
X106778696Y-113519260D01*
X106798051Y-113525489D01*
X106824823Y-113530319D01*
X106862378Y-113533924D01*
X106914086Y-113536478D01*
X106983314Y-113538156D01*
X107073430Y-113539134D01*
X107187803Y-113539586D01*
X107329801Y-113539687D01*
X107475337Y-113539628D01*
X107645303Y-113539429D01*
X107784830Y-113538942D01*
X107897346Y-113538021D01*
X107986278Y-113536521D01*
X108055053Y-113534294D01*
X108107100Y-113531196D01*
X108145845Y-113527081D01*
X108174716Y-113521802D01*
X108197141Y-113515214D01*
X108214367Y-113508171D01*
X108298455Y-113452691D01*
X108360946Y-113375863D01*
X108397853Y-113284611D01*
X108405187Y-113185860D01*
X108404413Y-113178158D01*
X108397371Y-113158837D01*
X108377512Y-113109674D01*
X108345380Y-113031945D01*
X108301523Y-112926926D01*
X108246486Y-112795893D01*
X108180814Y-112640124D01*
X108105055Y-112460893D01*
X108019754Y-112259478D01*
X107925457Y-112037154D01*
X107822710Y-111795197D01*
X107712059Y-111534885D01*
X107594050Y-111257493D01*
X107469228Y-110964298D01*
X107338141Y-110656575D01*
X107201333Y-110335601D01*
X107059351Y-110002652D01*
X106912741Y-109659005D01*
X106762048Y-109305936D01*
X106607819Y-108944720D01*
X106450600Y-108576635D01*
X106290937Y-108202956D01*
X106129375Y-107824960D01*
X105966461Y-107443923D01*
X105802740Y-107061121D01*
X105638759Y-106677831D01*
X105475063Y-106295328D01*
X105312199Y-105914890D01*
X105150712Y-105537791D01*
X104991148Y-105165309D01*
X104834054Y-104798720D01*
X104679975Y-104439300D01*
X104529458Y-104088324D01*
X104383047Y-103747071D01*
X104241291Y-103416815D01*
X104104733Y-103098833D01*
X103973920Y-102794401D01*
X103849399Y-102504795D01*
X103731714Y-102231293D01*
X103621413Y-101975169D01*
X103519041Y-101737700D01*
X103425144Y-101520163D01*
X103340268Y-101323834D01*
X103264959Y-101149988D01*
X103199762Y-100999903D01*
X103145225Y-100874854D01*
X103101893Y-100776118D01*
X103070311Y-100704970D01*
X103051026Y-100662688D01*
X103046042Y-100652537D01*
X102997753Y-100582088D01*
X102938855Y-100537512D01*
X102862224Y-100514897D01*
X102786533Y-100509987D01*
X102688294Y-100518603D01*
G36*
X134284241Y-111999195D02*
G01*
X133881822Y-111999287D01*
X133497133Y-111999531D01*
X133131279Y-111999923D01*
X132785362Y-112000456D01*
X132460485Y-112001126D01*
X132157750Y-112001929D01*
X131878261Y-112002860D01*
X131623119Y-112003913D01*
X131393429Y-112005084D01*
X131190292Y-112006367D01*
X131014811Y-112007759D01*
X130868090Y-112009254D01*
X130751231Y-112010847D01*
X130665336Y-112012534D01*
X130611509Y-112014309D01*
X130594536Y-112015474D01*
X130486515Y-112033132D01*
X130405351Y-112060199D01*
X130344505Y-112100459D01*
X130297437Y-112157697D01*
X130273284Y-112201368D01*
X130259108Y-112231029D01*
X130248121Y-112258171D01*
X130239843Y-112287567D01*
X130233794Y-112323986D01*
X130229494Y-112372201D01*
X130226464Y-112436981D01*
X130224224Y-112523098D01*
X130222294Y-112635323D01*
X130221030Y-112720929D01*
X130219603Y-112889165D01*
X130220614Y-113027310D01*
X130224038Y-113134332D01*
X130229847Y-113209199D01*
X130234281Y-113237396D01*
X130269764Y-113345192D01*
X130325775Y-113427523D01*
X130404556Y-113487427D01*
X130427056Y-113498785D01*
X130514866Y-113539669D01*
X134307933Y-113537870D01*
X134664255Y-113537667D01*
X135011773Y-113537402D01*
X135348955Y-113537079D01*
X135674272Y-113536702D01*
X135986193Y-113536274D01*
X136283187Y-113535800D01*
X136563724Y-113535283D01*
X136826272Y-113534727D01*
X137069303Y-113534136D01*
X137291284Y-113533514D01*
X137490686Y-113532864D01*
X137665978Y-113532191D01*
X137815629Y-113531497D01*
X137938109Y-113530788D01*
X138031888Y-113530067D01*
X138095434Y-113529337D01*
X138127217Y-113528602D01*
X138130633Y-113528327D01*
X138138656Y-113524242D01*
X138145087Y-113514367D01*
X138150096Y-113495318D01*
X138153855Y-113463707D01*
X138156535Y-113416149D01*
X138158307Y-113349257D01*
X138159343Y-113259645D01*
X138159813Y-113143926D01*
X138159890Y-112998715D01*
X138159863Y-112950325D01*
X138159323Y-112811602D01*
X138157978Y-112681157D01*
X138155939Y-112563511D01*
X138153316Y-112463190D01*
X138150219Y-112384718D01*
X138146759Y-112332617D01*
X138144343Y-112314929D01*
X138129145Y-112268934D01*
X138103214Y-112225998D01*
X138061653Y-112180478D01*
X137999565Y-112126734D01*
X137941841Y-112081636D01*
X137833483Y-111999066D01*
X134284241Y-111999195D01*
G37*
X134284241Y-111999195D02*
X133881822Y-111999287D01*
X133497133Y-111999531D01*
X133131279Y-111999923D01*
X132785362Y-112000456D01*
X132460485Y-112001126D01*
X132157750Y-112001929D01*
X131878261Y-112002860D01*
X131623119Y-112003913D01*
X131393429Y-112005084D01*
X131190292Y-112006367D01*
X131014811Y-112007759D01*
X130868090Y-112009254D01*
X130751231Y-112010847D01*
X130665336Y-112012534D01*
X130611509Y-112014309D01*
X130594536Y-112015474D01*
X130486515Y-112033132D01*
X130405351Y-112060199D01*
X130344505Y-112100459D01*
X130297437Y-112157697D01*
X130273284Y-112201368D01*
X130259108Y-112231029D01*
X130248121Y-112258171D01*
X130239843Y-112287567D01*
X130233794Y-112323986D01*
X130229494Y-112372201D01*
X130226464Y-112436981D01*
X130224224Y-112523098D01*
X130222294Y-112635323D01*
X130221030Y-112720929D01*
X130219603Y-112889165D01*
X130220614Y-113027310D01*
X130224038Y-113134332D01*
X130229847Y-113209199D01*
X130234281Y-113237396D01*
X130269764Y-113345192D01*
X130325775Y-113427523D01*
X130404556Y-113487427D01*
X130427056Y-113498785D01*
X130514866Y-113539669D01*
X134307933Y-113537870D01*
X134664255Y-113537667D01*
X135011773Y-113537402D01*
X135348955Y-113537079D01*
X135674272Y-113536702D01*
X135986193Y-113536274D01*
X136283187Y-113535800D01*
X136563724Y-113535283D01*
X136826272Y-113534727D01*
X137069303Y-113534136D01*
X137291284Y-113533514D01*
X137490686Y-113532864D01*
X137665978Y-113532191D01*
X137815629Y-113531497D01*
X137938109Y-113530788D01*
X138031888Y-113530067D01*
X138095434Y-113529337D01*
X138127217Y-113528602D01*
X138130633Y-113528327D01*
X138138656Y-113524242D01*
X138145087Y-113514367D01*
X138150096Y-113495318D01*
X138153855Y-113463707D01*
X138156535Y-113416149D01*
X138158307Y-113349257D01*
X138159343Y-113259645D01*
X138159813Y-113143926D01*
X138159890Y-112998715D01*
X138159863Y-112950325D01*
X138159323Y-112811602D01*
X138157978Y-112681157D01*
X138155939Y-112563511D01*
X138153316Y-112463190D01*
X138150219Y-112384718D01*
X138146759Y-112332617D01*
X138144343Y-112314929D01*
X138129145Y-112268934D01*
X138103214Y-112225998D01*
X138061653Y-112180478D01*
X137999565Y-112126734D01*
X137941841Y-112081636D01*
X137833483Y-111999066D01*
X134284241Y-111999195D01*
G36*
X112552045Y-100782811D02*
G01*
X112228364Y-100802074D01*
X111972866Y-100831174D01*
X111619986Y-100895829D01*
X111275770Y-100989864D01*
X110938539Y-101114050D01*
X110606617Y-101269153D01*
X110278323Y-101455944D01*
X109951981Y-101675190D01*
X109686866Y-101877948D01*
X109609034Y-101941443D01*
X109536886Y-102001685D01*
X109476194Y-102053748D01*
X109432733Y-102092711D01*
X109417108Y-102107986D01*
X109367482Y-102160571D01*
X109401631Y-102198785D01*
X109420428Y-102220143D01*
X109458695Y-102263881D01*
X109513666Y-102326832D01*
X109582580Y-102405829D01*
X109662673Y-102497704D01*
X109751182Y-102599290D01*
X109837674Y-102698610D01*
X109931718Y-102805838D01*
X110020462Y-102905521D01*
X110101077Y-102994593D01*
X110170736Y-103069993D01*
X110226610Y-103128656D01*
X110265873Y-103167518D01*
X110284951Y-103183181D01*
X110373880Y-103215782D01*
X110462914Y-103221858D01*
X110555586Y-103200489D01*
X110655426Y-103150759D01*
X110765967Y-103071750D01*
X110790261Y-103051860D01*
X111049956Y-102854610D01*
X111318045Y-102689705D01*
X111596592Y-102556221D01*
X111887666Y-102453233D01*
X112193332Y-102379816D01*
X112348771Y-102354398D01*
X112434612Y-102343884D01*
X112520447Y-102336911D01*
X112614104Y-102333214D01*
X112723415Y-102332532D01*
X112856208Y-102334602D01*
X112904200Y-102335783D01*
X113086584Y-102342966D01*
X113242294Y-102355158D01*
X113378346Y-102373925D01*
X113501757Y-102400827D01*
X113619543Y-102437429D01*
X113738721Y-102485291D01*
X113866308Y-102545979D01*
X113880697Y-102553270D01*
X114099518Y-102682791D01*
X114294283Y-102835768D01*
X114464010Y-103010996D01*
X114607714Y-103207270D01*
X114724413Y-103423386D01*
X114813122Y-103658138D01*
X114829751Y-103715695D01*
X114844806Y-103778391D01*
X114855264Y-103842881D01*
X114861913Y-103917530D01*
X114865546Y-104010701D01*
X114866835Y-104108133D01*
X114865751Y-104242393D01*
X114859380Y-104351989D01*
X114845835Y-104445954D01*
X114823226Y-104533320D01*
X114789667Y-104623120D01*
X114743269Y-104724385D01*
X114734095Y-104743133D01*
X114659205Y-104877123D01*
X114570054Y-105001686D01*
X114463734Y-105119298D01*
X114337337Y-105232435D01*
X114187955Y-105343573D01*
X114012680Y-105455187D01*
X113808603Y-105569754D01*
X113692018Y-105630361D01*
X113607328Y-105673046D01*
X113525319Y-105713507D01*
X113442624Y-105753233D01*
X113355877Y-105793712D01*
X113261711Y-105836431D01*
X113156761Y-105882878D01*
X113037659Y-105934543D01*
X112901040Y-105992912D01*
X112743537Y-106059474D01*
X112561784Y-106135716D01*
X112352414Y-106223128D01*
X112327962Y-106233318D01*
X112017203Y-106363536D01*
X111736023Y-106483074D01*
X111482279Y-106593118D01*
X111253829Y-106694852D01*
X111048531Y-106789462D01*
X110864243Y-106878132D01*
X110698822Y-106962047D01*
X110550126Y-107042391D01*
X110416014Y-107120351D01*
X110294343Y-107197109D01*
X110182970Y-107273852D01*
X110079754Y-107351764D01*
X109982553Y-107432030D01*
X109889223Y-107515835D01*
X109797624Y-107604363D01*
X109736333Y-107666724D01*
X109526119Y-107908298D01*
X109344622Y-108167668D01*
X109191990Y-108444437D01*
X109068373Y-108738212D01*
X108973920Y-109048597D01*
X108908780Y-109375197D01*
X108873102Y-109717618D01*
X108865739Y-109970632D01*
X108874907Y-110251927D01*
X108903313Y-110515857D01*
X108952818Y-110774123D01*
X109025281Y-111038428D01*
X109045488Y-111101599D01*
X109168557Y-111423702D01*
X109320728Y-111729519D01*
X109500810Y-112017911D01*
X109707613Y-112287734D01*
X109939946Y-112537848D01*
X110196619Y-112767110D01*
X110476440Y-112974379D01*
X110778219Y-113158513D01*
X111100765Y-113318370D01*
X111442888Y-113452808D01*
X111526564Y-113480772D01*
X111748515Y-113547990D01*
X111957778Y-113601089D01*
X112162874Y-113641394D01*
X112372322Y-113670232D01*
X112594640Y-113688929D01*
X112838349Y-113698812D01*
X112938066Y-113700529D01*
X113059080Y-113701652D01*
X113172917Y-113702140D01*
X113273891Y-113702014D01*
X113356315Y-113701292D01*
X113414501Y-113699996D01*
X113437600Y-113698772D01*
X113855916Y-113645637D01*
X114266882Y-113561527D01*
X114668311Y-113447440D01*
X115058018Y-113304372D01*
X115433815Y-113133319D01*
X115793518Y-112935277D01*
X116134938Y-112711243D01*
X116455891Y-112462213D01*
X116754190Y-112189184D01*
X116757654Y-112185735D01*
X116839671Y-112101760D01*
X116922066Y-112013381D01*
X117001611Y-111924478D01*
X117075075Y-111838936D01*
X117139231Y-111760634D01*
X117190849Y-111693457D01*
X117226699Y-111641286D01*
X117243552Y-111608003D01*
X117244231Y-111600763D01*
X117230076Y-111584147D01*
X117192140Y-111548170D01*
X117132857Y-111494917D01*
X117054657Y-111426476D01*
X116959972Y-111344931D01*
X116851233Y-111252368D01*
X116730871Y-111150872D01*
X116601317Y-111042531D01*
X116465004Y-110929428D01*
X116378496Y-110858103D01*
X116289125Y-110787083D01*
X116217448Y-110737716D01*
X116157018Y-110707903D01*
X116101390Y-110695547D01*
X116044117Y-110698546D01*
X115978753Y-110714803D01*
X115958471Y-110721329D01*
X115925762Y-110733851D01*
X115893674Y-110750834D01*
X115858191Y-110775642D01*
X115815295Y-110811638D01*
X115760970Y-110862184D01*
X115691199Y-110930645D01*
X115605213Y-111017097D01*
X115518547Y-111103326D01*
X115430141Y-111188737D01*
X115346037Y-111267673D01*
X115272278Y-111334478D01*
X115214906Y-111383495D01*
X115207133Y-111389719D01*
X114931912Y-111588347D01*
X114645767Y-111757560D01*
X114345832Y-111898598D01*
X114029242Y-112012704D01*
X113693131Y-112101119D01*
X113463000Y-112145373D01*
X113351509Y-112159693D01*
X113218549Y-112169923D01*
X113072015Y-112176063D01*
X112919799Y-112178108D01*
X112769796Y-112176058D01*
X112629899Y-112169910D01*
X112508003Y-112159661D01*
X112413748Y-112145664D01*
X112135907Y-112074886D01*
X111875315Y-111978263D01*
X111633866Y-111856982D01*
X111413456Y-111712232D01*
X111215981Y-111545200D01*
X111043335Y-111357073D01*
X110947173Y-111226782D01*
X110807518Y-110992166D01*
X110700943Y-110750903D01*
X110627137Y-110501992D01*
X110585789Y-110244431D01*
X110575866Y-110034799D01*
X110590625Y-109780431D01*
X110634948Y-109542574D01*
X110708907Y-109321093D01*
X110812574Y-109115854D01*
X110946020Y-108926722D01*
X111109317Y-108753560D01*
X111302536Y-108596235D01*
X111358655Y-108557254D01*
X111465585Y-108490956D01*
X111604263Y-108414422D01*
X111774225Y-108327865D01*
X111975005Y-108231499D01*
X112206139Y-108125537D01*
X112467162Y-108010192D01*
X112757607Y-107885677D01*
X113077009Y-107752205D01*
X113424904Y-107609990D01*
X113429133Y-107608278D01*
X113701701Y-107497422D01*
X113945057Y-107397132D01*
X114161732Y-107306174D01*
X114354259Y-107223316D01*
X114525170Y-107147322D01*
X114676996Y-107076961D01*
X114812271Y-107010998D01*
X114933525Y-106948199D01*
X115043292Y-106887331D01*
X115144102Y-106827161D01*
X115238489Y-106766455D01*
X115328984Y-106703978D01*
X115415236Y-106640673D01*
X115526391Y-106550064D01*
X115647058Y-106439984D01*
X115769462Y-106318411D01*
X115885828Y-106193321D01*
X115988381Y-106072692D01*
X116057186Y-105982033D01*
X116210443Y-105736958D01*
X116340355Y-105470811D01*
X116446079Y-105187835D01*
X116526770Y-104892270D01*
X116581584Y-104588358D01*
X116609678Y-104280338D01*
X116610206Y-103972452D01*
X116582325Y-103668941D01*
X116552338Y-103494279D01*
X116473270Y-103188415D01*
X116363441Y-102894269D01*
X116224354Y-102613264D01*
X116057512Y-102346821D01*
X115864419Y-102096363D01*
X115646577Y-101863309D01*
X115405489Y-101649084D01*
X115142658Y-101455107D01*
X114859586Y-101282802D01*
X114557777Y-101133589D01*
X114238734Y-101008890D01*
X113903959Y-100910127D01*
X113793200Y-100884111D01*
X113506847Y-100832496D01*
X113199237Y-100798253D01*
X112878319Y-100781615D01*
X112552045Y-100782811D01*
G37*
X112552045Y-100782811D02*
X112228364Y-100802074D01*
X111972866Y-100831174D01*
X111619986Y-100895829D01*
X111275770Y-100989864D01*
X110938539Y-101114050D01*
X110606617Y-101269153D01*
X110278323Y-101455944D01*
X109951981Y-101675190D01*
X109686866Y-101877948D01*
X109609034Y-101941443D01*
X109536886Y-102001685D01*
X109476194Y-102053748D01*
X109432733Y-102092711D01*
X109417108Y-102107986D01*
X109367482Y-102160571D01*
X109401631Y-102198785D01*
X109420428Y-102220143D01*
X109458695Y-102263881D01*
X109513666Y-102326832D01*
X109582580Y-102405829D01*
X109662673Y-102497704D01*
X109751182Y-102599290D01*
X109837674Y-102698610D01*
X109931718Y-102805838D01*
X110020462Y-102905521D01*
X110101077Y-102994593D01*
X110170736Y-103069993D01*
X110226610Y-103128656D01*
X110265873Y-103167518D01*
X110284951Y-103183181D01*
X110373880Y-103215782D01*
X110462914Y-103221858D01*
X110555586Y-103200489D01*
X110655426Y-103150759D01*
X110765967Y-103071750D01*
X110790261Y-103051860D01*
X111049956Y-102854610D01*
X111318045Y-102689705D01*
X111596592Y-102556221D01*
X111887666Y-102453233D01*
X112193332Y-102379816D01*
X112348771Y-102354398D01*
X112434612Y-102343884D01*
X112520447Y-102336911D01*
X112614104Y-102333214D01*
X112723415Y-102332532D01*
X112856208Y-102334602D01*
X112904200Y-102335783D01*
X113086584Y-102342966D01*
X113242294Y-102355158D01*
X113378346Y-102373925D01*
X113501757Y-102400827D01*
X113619543Y-102437429D01*
X113738721Y-102485291D01*
X113866308Y-102545979D01*
X113880697Y-102553270D01*
X114099518Y-102682791D01*
X114294283Y-102835768D01*
X114464010Y-103010996D01*
X114607714Y-103207270D01*
X114724413Y-103423386D01*
X114813122Y-103658138D01*
X114829751Y-103715695D01*
X114844806Y-103778391D01*
X114855264Y-103842881D01*
X114861913Y-103917530D01*
X114865546Y-104010701D01*
X114866835Y-104108133D01*
X114865751Y-104242393D01*
X114859380Y-104351989D01*
X114845835Y-104445954D01*
X114823226Y-104533320D01*
X114789667Y-104623120D01*
X114743269Y-104724385D01*
X114734095Y-104743133D01*
X114659205Y-104877123D01*
X114570054Y-105001686D01*
X114463734Y-105119298D01*
X114337337Y-105232435D01*
X114187955Y-105343573D01*
X114012680Y-105455187D01*
X113808603Y-105569754D01*
X113692018Y-105630361D01*
X113607328Y-105673046D01*
X113525319Y-105713507D01*
X113442624Y-105753233D01*
X113355877Y-105793712D01*
X113261711Y-105836431D01*
X113156761Y-105882878D01*
X113037659Y-105934543D01*
X112901040Y-105992912D01*
X112743537Y-106059474D01*
X112561784Y-106135716D01*
X112352414Y-106223128D01*
X112327962Y-106233318D01*
X112017203Y-106363536D01*
X111736023Y-106483074D01*
X111482279Y-106593118D01*
X111253829Y-106694852D01*
X111048531Y-106789462D01*
X110864243Y-106878132D01*
X110698822Y-106962047D01*
X110550126Y-107042391D01*
X110416014Y-107120351D01*
X110294343Y-107197109D01*
X110182970Y-107273852D01*
X110079754Y-107351764D01*
X109982553Y-107432030D01*
X109889223Y-107515835D01*
X109797624Y-107604363D01*
X109736333Y-107666724D01*
X109526119Y-107908298D01*
X109344622Y-108167668D01*
X109191990Y-108444437D01*
X109068373Y-108738212D01*
X108973920Y-109048597D01*
X108908780Y-109375197D01*
X108873102Y-109717618D01*
X108865739Y-109970632D01*
X108874907Y-110251927D01*
X108903313Y-110515857D01*
X108952818Y-110774123D01*
X109025281Y-111038428D01*
X109045488Y-111101599D01*
X109168557Y-111423702D01*
X109320728Y-111729519D01*
X109500810Y-112017911D01*
X109707613Y-112287734D01*
X109939946Y-112537848D01*
X110196619Y-112767110D01*
X110476440Y-112974379D01*
X110778219Y-113158513D01*
X111100765Y-113318370D01*
X111442888Y-113452808D01*
X111526564Y-113480772D01*
X111748515Y-113547990D01*
X111957778Y-113601089D01*
X112162874Y-113641394D01*
X112372322Y-113670232D01*
X112594640Y-113688929D01*
X112838349Y-113698812D01*
X112938066Y-113700529D01*
X113059080Y-113701652D01*
X113172917Y-113702140D01*
X113273891Y-113702014D01*
X113356315Y-113701292D01*
X113414501Y-113699996D01*
X113437600Y-113698772D01*
X113855916Y-113645637D01*
X114266882Y-113561527D01*
X114668311Y-113447440D01*
X115058018Y-113304372D01*
X115433815Y-113133319D01*
X115793518Y-112935277D01*
X116134938Y-112711243D01*
X116455891Y-112462213D01*
X116754190Y-112189184D01*
X116757654Y-112185735D01*
X116839671Y-112101760D01*
X116922066Y-112013381D01*
X117001611Y-111924478D01*
X117075075Y-111838936D01*
X117139231Y-111760634D01*
X117190849Y-111693457D01*
X117226699Y-111641286D01*
X117243552Y-111608003D01*
X117244231Y-111600763D01*
X117230076Y-111584147D01*
X117192140Y-111548170D01*
X117132857Y-111494917D01*
X117054657Y-111426476D01*
X116959972Y-111344931D01*
X116851233Y-111252368D01*
X116730871Y-111150872D01*
X116601317Y-111042531D01*
X116465004Y-110929428D01*
X116378496Y-110858103D01*
X116289125Y-110787083D01*
X116217448Y-110737716D01*
X116157018Y-110707903D01*
X116101390Y-110695547D01*
X116044117Y-110698546D01*
X115978753Y-110714803D01*
X115958471Y-110721329D01*
X115925762Y-110733851D01*
X115893674Y-110750834D01*
X115858191Y-110775642D01*
X115815295Y-110811638D01*
X115760970Y-110862184D01*
X115691199Y-110930645D01*
X115605213Y-111017097D01*
X115518547Y-111103326D01*
X115430141Y-111188737D01*
X115346037Y-111267673D01*
X115272278Y-111334478D01*
X115214906Y-111383495D01*
X115207133Y-111389719D01*
X114931912Y-111588347D01*
X114645767Y-111757560D01*
X114345832Y-111898598D01*
X114029242Y-112012704D01*
X113693131Y-112101119D01*
X113463000Y-112145373D01*
X113351509Y-112159693D01*
X113218549Y-112169923D01*
X113072015Y-112176063D01*
X112919799Y-112178108D01*
X112769796Y-112176058D01*
X112629899Y-112169910D01*
X112508003Y-112159661D01*
X112413748Y-112145664D01*
X112135907Y-112074886D01*
X111875315Y-111978263D01*
X111633866Y-111856982D01*
X111413456Y-111712232D01*
X111215981Y-111545200D01*
X111043335Y-111357073D01*
X110947173Y-111226782D01*
X110807518Y-110992166D01*
X110700943Y-110750903D01*
X110627137Y-110501992D01*
X110585789Y-110244431D01*
X110575866Y-110034799D01*
X110590625Y-109780431D01*
X110634948Y-109542574D01*
X110708907Y-109321093D01*
X110812574Y-109115854D01*
X110946020Y-108926722D01*
X111109317Y-108753560D01*
X111302536Y-108596235D01*
X111358655Y-108557254D01*
X111465585Y-108490956D01*
X111604263Y-108414422D01*
X111774225Y-108327865D01*
X111975005Y-108231499D01*
X112206139Y-108125537D01*
X112467162Y-108010192D01*
X112757607Y-107885677D01*
X113077009Y-107752205D01*
X113424904Y-107609990D01*
X113429133Y-107608278D01*
X113701701Y-107497422D01*
X113945057Y-107397132D01*
X114161732Y-107306174D01*
X114354259Y-107223316D01*
X114525170Y-107147322D01*
X114676996Y-107076961D01*
X114812271Y-107010998D01*
X114933525Y-106948199D01*
X115043292Y-106887331D01*
X115144102Y-106827161D01*
X115238489Y-106766455D01*
X115328984Y-106703978D01*
X115415236Y-106640673D01*
X115526391Y-106550064D01*
X115647058Y-106439984D01*
X115769462Y-106318411D01*
X115885828Y-106193321D01*
X115988381Y-106072692D01*
X116057186Y-105982033D01*
X116210443Y-105736958D01*
X116340355Y-105470811D01*
X116446079Y-105187835D01*
X116526770Y-104892270D01*
X116581584Y-104588358D01*
X116609678Y-104280338D01*
X116610206Y-103972452D01*
X116582325Y-103668941D01*
X116552338Y-103494279D01*
X116473270Y-103188415D01*
X116363441Y-102894269D01*
X116224354Y-102613264D01*
X116057512Y-102346821D01*
X115864419Y-102096363D01*
X115646577Y-101863309D01*
X115405489Y-101649084D01*
X115142658Y-101455107D01*
X114859586Y-101282802D01*
X114557777Y-101133589D01*
X114238734Y-101008890D01*
X113903959Y-100910127D01*
X113793200Y-100884111D01*
X113506847Y-100832496D01*
X113199237Y-100798253D01*
X112878319Y-100781615D01*
X112552045Y-100782811D01*
G36*
X143116091Y-100782988D02*
G01*
X142947812Y-100787698D01*
X142794800Y-100795917D01*
X142665025Y-100807645D01*
X142630666Y-100812006D01*
X142238683Y-100880094D01*
X141866491Y-100973822D01*
X141511356Y-101094448D01*
X141170543Y-101243235D01*
X140841317Y-101421441D01*
X140520944Y-101630329D01*
X140206687Y-101871158D01*
X140058200Y-101997605D01*
X139995428Y-102053544D01*
X139943050Y-102101675D01*
X139905760Y-102137573D01*
X139888254Y-102156814D01*
X139887518Y-102158472D01*
X139898309Y-102173174D01*
X139929066Y-102210524D01*
X139977398Y-102267727D01*
X140040913Y-102341992D01*
X140117220Y-102430526D01*
X140203929Y-102530538D01*
X140298647Y-102639234D01*
X140325606Y-102670076D01*
X140454058Y-102816057D01*
X140562019Y-102936797D01*
X140650421Y-103033287D01*
X140720196Y-103106513D01*
X140772277Y-103157465D01*
X140807597Y-103187131D01*
X140820854Y-103195009D01*
X140893352Y-103212721D01*
X140979960Y-103215393D01*
X141064600Y-103203329D01*
X141106667Y-103189609D01*
X141143877Y-103168677D01*
X141198910Y-103131471D01*
X141263761Y-103083622D01*
X141318333Y-103040653D01*
X141586193Y-102841602D01*
X141858401Y-102675930D01*
X142135530Y-102543363D01*
X142418154Y-102443625D01*
X142696442Y-102378277D01*
X142823550Y-102359973D01*
X142970907Y-102346026D01*
X143130204Y-102336618D01*
X143293136Y-102331933D01*
X143451394Y-102332152D01*
X143596670Y-102337459D01*
X143720658Y-102348037D01*
X143768180Y-102354710D01*
X144025660Y-102412062D01*
X144266542Y-102495951D01*
X144489074Y-102604893D01*
X144691506Y-102737404D01*
X144872087Y-102891999D01*
X145029066Y-103067195D01*
X145160693Y-103261507D01*
X145265217Y-103473451D01*
X145336262Y-103683947D01*
X145354027Y-103754620D01*
X145366220Y-103817359D01*
X145373822Y-103881647D01*
X145377810Y-103956967D01*
X145379165Y-104052803D01*
X145379188Y-104099666D01*
X145377979Y-104211481D01*
X145374259Y-104298356D01*
X145367180Y-104369177D01*
X145355895Y-104432830D01*
X145342038Y-104489133D01*
X145293092Y-104642271D01*
X145231449Y-104782573D01*
X145154618Y-104912529D01*
X145060107Y-105034631D01*
X144945424Y-105151371D01*
X144808078Y-105265242D01*
X144645579Y-105378735D01*
X144455433Y-105494342D01*
X144235150Y-105614554D01*
X144197000Y-105634352D01*
X144123053Y-105672174D01*
X144051553Y-105707950D01*
X143979293Y-105743100D01*
X143903063Y-105779045D01*
X143819656Y-105817208D01*
X143725862Y-105859009D01*
X143618473Y-105905870D01*
X143494281Y-105959213D01*
X143350076Y-106020458D01*
X143182651Y-106091027D01*
X142988796Y-106172341D01*
X142876200Y-106219461D01*
X142577691Y-106344839D01*
X142308590Y-106459105D01*
X142066715Y-106563364D01*
X141849888Y-106658721D01*
X141655929Y-106746281D01*
X141482658Y-106827149D01*
X141327895Y-106902429D01*
X141189462Y-106973227D01*
X141065178Y-107040648D01*
X140952864Y-107105796D01*
X140850340Y-107169777D01*
X140755427Y-107233695D01*
X140665944Y-107298655D01*
X140579713Y-107365762D01*
X140522467Y-107412647D01*
X140280985Y-107635447D01*
X140067031Y-107877922D01*
X139880843Y-108139690D01*
X139722659Y-108420370D01*
X139592719Y-108719579D01*
X139491261Y-109036936D01*
X139479926Y-109080489D01*
X139411362Y-109418788D01*
X139375572Y-109761233D01*
X139372455Y-110104896D01*
X139401909Y-110446853D01*
X139463830Y-110784176D01*
X139550204Y-111090379D01*
X139607755Y-111246394D01*
X139680119Y-111415514D01*
X139762112Y-111587075D01*
X139848556Y-111750414D01*
X139934268Y-111894868D01*
X139961035Y-111935871D01*
X140176431Y-112227144D01*
X140414809Y-112493764D01*
X140675542Y-112735355D01*
X140958002Y-112951544D01*
X141261561Y-113141955D01*
X141585590Y-113306215D01*
X141929461Y-113443949D01*
X142292547Y-113554782D01*
X142674220Y-113638339D01*
X142867733Y-113669198D01*
X142953880Y-113678495D01*
X143066514Y-113686461D01*
X143198278Y-113692948D01*
X143341815Y-113697805D01*
X143489765Y-113700885D01*
X143634772Y-113702039D01*
X143769476Y-113701116D01*
X143886520Y-113697969D01*
X143978547Y-113692448D01*
X143985333Y-113691831D01*
X144401652Y-113636542D01*
X144812721Y-113550208D01*
X145215635Y-113433977D01*
X145607489Y-113288997D01*
X145985378Y-113116417D01*
X146346398Y-112917383D01*
X146687644Y-112693046D01*
X146880933Y-112547376D01*
X146960944Y-112480635D01*
X147049703Y-112400945D01*
X147144210Y-112311541D01*
X147241463Y-112215663D01*
X147338462Y-112116546D01*
X147432208Y-112017428D01*
X147519699Y-111921546D01*
X147597935Y-111832138D01*
X147663915Y-111752440D01*
X147714640Y-111685690D01*
X147747108Y-111635125D01*
X147758319Y-111603982D01*
X147757971Y-111601141D01*
X147743592Y-111583743D01*
X147706324Y-111547947D01*
X147649616Y-111496644D01*
X147576918Y-111432724D01*
X147491680Y-111359079D01*
X147397351Y-111278599D01*
X147297380Y-111194175D01*
X147195217Y-111108698D01*
X147094312Y-111025059D01*
X146998115Y-110946148D01*
X146910074Y-110874857D01*
X146833640Y-110814075D01*
X146772261Y-110766694D01*
X146729389Y-110735606D01*
X146713093Y-110725511D01*
X146657061Y-110703189D01*
X146600791Y-110696905D01*
X146533173Y-110706501D01*
X146474699Y-110722119D01*
X146442822Y-110732963D01*
X146412479Y-110747525D01*
X146379668Y-110769122D01*
X146340387Y-110801071D01*
X146290634Y-110846690D01*
X146226407Y-110909295D01*
X146143704Y-110992203D01*
X146120259Y-111015898D01*
X146033455Y-111102276D01*
X145944949Y-111187809D01*
X145860754Y-111266864D01*
X145786888Y-111333810D01*
X145729365Y-111383014D01*
X145721000Y-111389719D01*
X145450419Y-111585657D01*
X145170958Y-111752333D01*
X144878922Y-111891374D01*
X144570617Y-112004409D01*
X144242347Y-112093066D01*
X144024841Y-112136919D01*
X143899608Y-112154563D01*
X143754390Y-112167445D01*
X143597100Y-112175501D01*
X143435647Y-112178666D01*
X143277944Y-112176877D01*
X143131901Y-112170070D01*
X143005431Y-112158181D01*
X142927614Y-112145776D01*
X142643404Y-112073315D01*
X142379392Y-111975002D01*
X142136472Y-111851477D01*
X141915539Y-111703381D01*
X141717485Y-111531356D01*
X141543205Y-111336041D01*
X141393592Y-111118079D01*
X141326930Y-110998122D01*
X141227204Y-110780170D01*
X141156378Y-110566390D01*
X141112680Y-110348756D01*
X141094337Y-110119240D01*
X141095523Y-109950133D01*
X141112208Y-109734819D01*
X141146407Y-109542619D01*
X141200248Y-109366479D01*
X141275858Y-109199345D01*
X141368792Y-109043982D01*
X141433253Y-108954947D01*
X141506077Y-108870521D01*
X141590016Y-108788793D01*
X141687825Y-108707851D01*
X141802258Y-108625784D01*
X141936069Y-108540680D01*
X142092012Y-108450629D01*
X142272842Y-108353719D01*
X142481312Y-108248038D01*
X142599044Y-108190206D01*
X142706870Y-108138057D01*
X142808903Y-108089570D01*
X142909037Y-108043064D01*
X143011161Y-107996858D01*
X143119169Y-107949270D01*
X143236950Y-107898619D01*
X143368398Y-107843222D01*
X143517402Y-107781399D01*
X143687856Y-107711468D01*
X143883649Y-107631747D01*
X144010733Y-107580207D01*
X144283132Y-107468911D01*
X144533391Y-107364733D01*
X144759700Y-107268457D01*
X144960252Y-107180867D01*
X145133238Y-107102744D01*
X145276849Y-107034873D01*
X145325752Y-107010726D01*
X145633084Y-106840612D01*
X145911502Y-106652893D01*
X146161098Y-106447448D01*
X146381965Y-106224150D01*
X146574196Y-105982877D01*
X146737883Y-105723504D01*
X146873121Y-105445907D01*
X146980000Y-105149961D01*
X147058615Y-104835543D01*
X147090525Y-104649999D01*
X147123979Y-104317005D01*
X147127218Y-103988583D01*
X147100333Y-103668899D01*
X147064392Y-103456199D01*
X146985763Y-103157490D01*
X146875168Y-102868368D01*
X146733515Y-102590276D01*
X146561711Y-102324657D01*
X146360663Y-102072952D01*
X146131278Y-101836605D01*
X145941133Y-101670244D01*
X145655440Y-101456951D01*
X145357030Y-101273596D01*
X145044261Y-101119485D01*
X144715493Y-100993927D01*
X144369084Y-100896229D01*
X144003396Y-100825699D01*
X143907526Y-100812065D01*
X143782467Y-100799235D01*
X143632824Y-100789911D01*
X143466567Y-100784095D01*
X143291666Y-100781788D01*
X143116091Y-100782988D01*
G37*
X143116091Y-100782988D02*
X142947812Y-100787698D01*
X142794800Y-100795917D01*
X142665025Y-100807645D01*
X142630666Y-100812006D01*
X142238683Y-100880094D01*
X141866491Y-100973822D01*
X141511356Y-101094448D01*
X141170543Y-101243235D01*
X140841317Y-101421441D01*
X140520944Y-101630329D01*
X140206687Y-101871158D01*
X140058200Y-101997605D01*
X139995428Y-102053544D01*
X139943050Y-102101675D01*
X139905760Y-102137573D01*
X139888254Y-102156814D01*
X139887518Y-102158472D01*
X139898309Y-102173174D01*
X139929066Y-102210524D01*
X139977398Y-102267727D01*
X140040913Y-102341992D01*
X140117220Y-102430526D01*
X140203929Y-102530538D01*
X140298647Y-102639234D01*
X140325606Y-102670076D01*
X140454058Y-102816057D01*
X140562019Y-102936797D01*
X140650421Y-103033287D01*
X140720196Y-103106513D01*
X140772277Y-103157465D01*
X140807597Y-103187131D01*
X140820854Y-103195009D01*
X140893352Y-103212721D01*
X140979960Y-103215393D01*
X141064600Y-103203329D01*
X141106667Y-103189609D01*
X141143877Y-103168677D01*
X141198910Y-103131471D01*
X141263761Y-103083622D01*
X141318333Y-103040653D01*
X141586193Y-102841602D01*
X141858401Y-102675930D01*
X142135530Y-102543363D01*
X142418154Y-102443625D01*
X142696442Y-102378277D01*
X142823550Y-102359973D01*
X142970907Y-102346026D01*
X143130204Y-102336618D01*
X143293136Y-102331933D01*
X143451394Y-102332152D01*
X143596670Y-102337459D01*
X143720658Y-102348037D01*
X143768180Y-102354710D01*
X144025660Y-102412062D01*
X144266542Y-102495951D01*
X144489074Y-102604893D01*
X144691506Y-102737404D01*
X144872087Y-102891999D01*
X145029066Y-103067195D01*
X145160693Y-103261507D01*
X145265217Y-103473451D01*
X145336262Y-103683947D01*
X145354027Y-103754620D01*
X145366220Y-103817359D01*
X145373822Y-103881647D01*
X145377810Y-103956967D01*
X145379165Y-104052803D01*
X145379188Y-104099666D01*
X145377979Y-104211481D01*
X145374259Y-104298356D01*
X145367180Y-104369177D01*
X145355895Y-104432830D01*
X145342038Y-104489133D01*
X145293092Y-104642271D01*
X145231449Y-104782573D01*
X145154618Y-104912529D01*
X145060107Y-105034631D01*
X144945424Y-105151371D01*
X144808078Y-105265242D01*
X144645579Y-105378735D01*
X144455433Y-105494342D01*
X144235150Y-105614554D01*
X144197000Y-105634352D01*
X144123053Y-105672174D01*
X144051553Y-105707950D01*
X143979293Y-105743100D01*
X143903063Y-105779045D01*
X143819656Y-105817208D01*
X143725862Y-105859009D01*
X143618473Y-105905870D01*
X143494281Y-105959213D01*
X143350076Y-106020458D01*
X143182651Y-106091027D01*
X142988796Y-106172341D01*
X142876200Y-106219461D01*
X142577691Y-106344839D01*
X142308590Y-106459105D01*
X142066715Y-106563364D01*
X141849888Y-106658721D01*
X141655929Y-106746281D01*
X141482658Y-106827149D01*
X141327895Y-106902429D01*
X141189462Y-106973227D01*
X141065178Y-107040648D01*
X140952864Y-107105796D01*
X140850340Y-107169777D01*
X140755427Y-107233695D01*
X140665944Y-107298655D01*
X140579713Y-107365762D01*
X140522467Y-107412647D01*
X140280985Y-107635447D01*
X140067031Y-107877922D01*
X139880843Y-108139690D01*
X139722659Y-108420370D01*
X139592719Y-108719579D01*
X139491261Y-109036936D01*
X139479926Y-109080489D01*
X139411362Y-109418788D01*
X139375572Y-109761233D01*
X139372455Y-110104896D01*
X139401909Y-110446853D01*
X139463830Y-110784176D01*
X139550204Y-111090379D01*
X139607755Y-111246394D01*
X139680119Y-111415514D01*
X139762112Y-111587075D01*
X139848556Y-111750414D01*
X139934268Y-111894868D01*
X139961035Y-111935871D01*
X140176431Y-112227144D01*
X140414809Y-112493764D01*
X140675542Y-112735355D01*
X140958002Y-112951544D01*
X141261561Y-113141955D01*
X141585590Y-113306215D01*
X141929461Y-113443949D01*
X142292547Y-113554782D01*
X142674220Y-113638339D01*
X142867733Y-113669198D01*
X142953880Y-113678495D01*
X143066514Y-113686461D01*
X143198278Y-113692948D01*
X143341815Y-113697805D01*
X143489765Y-113700885D01*
X143634772Y-113702039D01*
X143769476Y-113701116D01*
X143886520Y-113697969D01*
X143978547Y-113692448D01*
X143985333Y-113691831D01*
X144401652Y-113636542D01*
X144812721Y-113550208D01*
X145215635Y-113433977D01*
X145607489Y-113288997D01*
X145985378Y-113116417D01*
X146346398Y-112917383D01*
X146687644Y-112693046D01*
X146880933Y-112547376D01*
X146960944Y-112480635D01*
X147049703Y-112400945D01*
X147144210Y-112311541D01*
X147241463Y-112215663D01*
X147338462Y-112116546D01*
X147432208Y-112017428D01*
X147519699Y-111921546D01*
X147597935Y-111832138D01*
X147663915Y-111752440D01*
X147714640Y-111685690D01*
X147747108Y-111635125D01*
X147758319Y-111603982D01*
X147757971Y-111601141D01*
X147743592Y-111583743D01*
X147706324Y-111547947D01*
X147649616Y-111496644D01*
X147576918Y-111432724D01*
X147491680Y-111359079D01*
X147397351Y-111278599D01*
X147297380Y-111194175D01*
X147195217Y-111108698D01*
X147094312Y-111025059D01*
X146998115Y-110946148D01*
X146910074Y-110874857D01*
X146833640Y-110814075D01*
X146772261Y-110766694D01*
X146729389Y-110735606D01*
X146713093Y-110725511D01*
X146657061Y-110703189D01*
X146600791Y-110696905D01*
X146533173Y-110706501D01*
X146474699Y-110722119D01*
X146442822Y-110732963D01*
X146412479Y-110747525D01*
X146379668Y-110769122D01*
X146340387Y-110801071D01*
X146290634Y-110846690D01*
X146226407Y-110909295D01*
X146143704Y-110992203D01*
X146120259Y-111015898D01*
X146033455Y-111102276D01*
X145944949Y-111187809D01*
X145860754Y-111266864D01*
X145786888Y-111333810D01*
X145729365Y-111383014D01*
X145721000Y-111389719D01*
X145450419Y-111585657D01*
X145170958Y-111752333D01*
X144878922Y-111891374D01*
X144570617Y-112004409D01*
X144242347Y-112093066D01*
X144024841Y-112136919D01*
X143899608Y-112154563D01*
X143754390Y-112167445D01*
X143597100Y-112175501D01*
X143435647Y-112178666D01*
X143277944Y-112176877D01*
X143131901Y-112170070D01*
X143005431Y-112158181D01*
X142927614Y-112145776D01*
X142643404Y-112073315D01*
X142379392Y-111975002D01*
X142136472Y-111851477D01*
X141915539Y-111703381D01*
X141717485Y-111531356D01*
X141543205Y-111336041D01*
X141393592Y-111118079D01*
X141326930Y-110998122D01*
X141227204Y-110780170D01*
X141156378Y-110566390D01*
X141112680Y-110348756D01*
X141094337Y-110119240D01*
X141095523Y-109950133D01*
X141112208Y-109734819D01*
X141146407Y-109542619D01*
X141200248Y-109366479D01*
X141275858Y-109199345D01*
X141368792Y-109043982D01*
X141433253Y-108954947D01*
X141506077Y-108870521D01*
X141590016Y-108788793D01*
X141687825Y-108707851D01*
X141802258Y-108625784D01*
X141936069Y-108540680D01*
X142092012Y-108450629D01*
X142272842Y-108353719D01*
X142481312Y-108248038D01*
X142599044Y-108190206D01*
X142706870Y-108138057D01*
X142808903Y-108089570D01*
X142909037Y-108043064D01*
X143011161Y-107996858D01*
X143119169Y-107949270D01*
X143236950Y-107898619D01*
X143368398Y-107843222D01*
X143517402Y-107781399D01*
X143687856Y-107711468D01*
X143883649Y-107631747D01*
X144010733Y-107580207D01*
X144283132Y-107468911D01*
X144533391Y-107364733D01*
X144759700Y-107268457D01*
X144960252Y-107180867D01*
X145133238Y-107102744D01*
X145276849Y-107034873D01*
X145325752Y-107010726D01*
X145633084Y-106840612D01*
X145911502Y-106652893D01*
X146161098Y-106447448D01*
X146381965Y-106224150D01*
X146574196Y-105982877D01*
X146737883Y-105723504D01*
X146873121Y-105445907D01*
X146980000Y-105149961D01*
X147058615Y-104835543D01*
X147090525Y-104649999D01*
X147123979Y-104317005D01*
X147127218Y-103988583D01*
X147100333Y-103668899D01*
X147064392Y-103456199D01*
X146985763Y-103157490D01*
X146875168Y-102868368D01*
X146733515Y-102590276D01*
X146561711Y-102324657D01*
X146360663Y-102072952D01*
X146131278Y-101836605D01*
X145941133Y-101670244D01*
X145655440Y-101456951D01*
X145357030Y-101273596D01*
X145044261Y-101119485D01*
X144715493Y-100993927D01*
X144369084Y-100896229D01*
X144003396Y-100825699D01*
X143907526Y-100812065D01*
X143782467Y-100799235D01*
X143632824Y-100789911D01*
X143466567Y-100784095D01*
X143291666Y-100781788D01*
X143116091Y-100782988D01*
G36*
X132025306Y-97056798D02*
G01*
X131927562Y-97059813D01*
X131900512Y-97061437D01*
X131823256Y-97068020D01*
X131771171Y-97076286D01*
X131735565Y-97088533D01*
X131707748Y-97107055D01*
X131699091Y-97114666D01*
X131691131Y-97122460D01*
X131677571Y-97136456D01*
X131657675Y-97157459D01*
X131630709Y-97186274D01*
X131595936Y-97223705D01*
X131552620Y-97270558D01*
X131500026Y-97327637D01*
X131437417Y-97395747D01*
X131364059Y-97475692D01*
X131279215Y-97568277D01*
X131182149Y-97674307D01*
X131072126Y-97794588D01*
X130948409Y-97929922D01*
X130810264Y-98081116D01*
X130656954Y-98248974D01*
X130487744Y-98434301D01*
X130301897Y-98637901D01*
X130098679Y-98860579D01*
X129877352Y-99103140D01*
X129637182Y-99366389D01*
X129377433Y-99651131D01*
X129097368Y-99958169D01*
X128796252Y-100288310D01*
X128473350Y-100642357D01*
X128339429Y-100789199D01*
X128138281Y-101009695D01*
X127915689Y-101253579D01*
X127673094Y-101519277D01*
X127411939Y-101805213D01*
X127133663Y-102109812D01*
X126839708Y-102431497D01*
X126531514Y-102768693D01*
X126210524Y-103119824D01*
X125878178Y-103483316D01*
X125535916Y-103857591D01*
X125185181Y-104241075D01*
X124827413Y-104632192D01*
X124464054Y-105029366D01*
X124096544Y-105431021D01*
X123726324Y-105835582D01*
X123354836Y-106241474D01*
X122983520Y-106647120D01*
X122613818Y-107050945D01*
X122247171Y-107451374D01*
X121885020Y-107846830D01*
X121571557Y-108189066D01*
X121385984Y-108391533D01*
X121206353Y-108587276D01*
X121034026Y-108774821D01*
X120870366Y-108952695D01*
X120716737Y-109119425D01*
X120574501Y-109273536D01*
X120445022Y-109413556D01*
X120329663Y-109538011D01*
X120229786Y-109645428D01*
X120146756Y-109734332D01*
X120081935Y-109803252D01*
X120036686Y-109850713D01*
X120012372Y-109875242D01*
X120008802Y-109878310D01*
X119973867Y-109899620D01*
X119973867Y-105607710D01*
X119973811Y-105102869D01*
X119973642Y-104631409D01*
X119973358Y-104192841D01*
X119972957Y-103786679D01*
X119972438Y-103412437D01*
X119971797Y-103069627D01*
X119971033Y-102757763D01*
X119970144Y-102476357D01*
X119969127Y-102224924D01*
X119967982Y-102002976D01*
X119966705Y-101810027D01*
X119965296Y-101645589D01*
X119963751Y-101509177D01*
X119962068Y-101400302D01*
X119960247Y-101318479D01*
X119958284Y-101263220D01*
X119956178Y-101234039D01*
X119955663Y-101230919D01*
X119922202Y-101130733D01*
X119868163Y-101054787D01*
X119789687Y-100997867D01*
X119779109Y-100992400D01*
X119694467Y-100950066D01*
X119135667Y-100950066D01*
X118964771Y-100950380D01*
X118824135Y-100951643D01*
X118710155Y-100954334D01*
X118619227Y-100958936D01*
X118547748Y-100965929D01*
X118492113Y-100975794D01*
X118448718Y-100989011D01*
X118413960Y-101006063D01*
X118384236Y-101027428D01*
X118355940Y-101053589D01*
X118355345Y-101054183D01*
X118314846Y-101104163D01*
X118282986Y-101159639D01*
X118277184Y-101174113D01*
X118275174Y-101185133D01*
X118273280Y-101206837D01*
X118271496Y-101240152D01*
X118269820Y-101286006D01*
X118268248Y-101345323D01*
X118266777Y-101419033D01*
X118265402Y-101508060D01*
X118264120Y-101613333D01*
X118262928Y-101735777D01*
X118261821Y-101876319D01*
X118260796Y-102035887D01*
X118259850Y-102215407D01*
X118258978Y-102415805D01*
X118258177Y-102638009D01*
X118257443Y-102882945D01*
X118256774Y-103151540D01*
X118256164Y-103444721D01*
X118255611Y-103763414D01*
X118255110Y-104108547D01*
X118254658Y-104481046D01*
X118254252Y-104881837D01*
X118253888Y-105311848D01*
X118253561Y-105772005D01*
X118253269Y-106263236D01*
X118253008Y-106786466D01*
X118252773Y-107342623D01*
X118252770Y-107350866D01*
X118252509Y-107940224D01*
X118252194Y-108496302D01*
X118251822Y-109019689D01*
X118251391Y-109510971D01*
X118250900Y-109970737D01*
X118250346Y-110399574D01*
X118249727Y-110798070D01*
X118249042Y-111166811D01*
X118248289Y-111506386D01*
X118247465Y-111817382D01*
X118246568Y-112100386D01*
X118245596Y-112355986D01*
X118244548Y-112584770D01*
X118243421Y-112787325D01*
X118242214Y-112964239D01*
X118240924Y-113116098D01*
X118239549Y-113243491D01*
X118238088Y-113347005D01*
X118236538Y-113427228D01*
X118234897Y-113484747D01*
X118233164Y-113520149D01*
X118231653Y-113533156D01*
X118209076Y-113591608D01*
X118175674Y-113652651D01*
X118164810Y-113668623D01*
X118145125Y-113692515D01*
X118104625Y-113739046D01*
X118045394Y-113805901D01*
X117969514Y-113890766D01*
X117879070Y-113991326D01*
X117776142Y-114105267D01*
X117662816Y-114230274D01*
X117541172Y-114364033D01*
X117413295Y-114504229D01*
X117381461Y-114539066D01*
X117287317Y-114642119D01*
X117178509Y-114761334D01*
X117056972Y-114894586D01*
X116924636Y-115039752D01*
X116783436Y-115194706D01*
X116635303Y-115357325D01*
X116482170Y-115525485D01*
X116325969Y-115697060D01*
X116168634Y-115869927D01*
X116012097Y-116041962D01*
X115858290Y-116211040D01*
X115709147Y-116375036D01*
X115566599Y-116531827D01*
X115432579Y-116679288D01*
X115309020Y-116815295D01*
X115197854Y-116937723D01*
X115101015Y-117044449D01*
X115020434Y-117133348D01*
X114958045Y-117202295D01*
X114915779Y-117249166D01*
X114905142Y-117261033D01*
X114883405Y-117288884D01*
X114878145Y-117303275D01*
X114878278Y-117303366D01*
X114896779Y-117304242D01*
X114943157Y-117303840D01*
X115011451Y-117302283D01*
X115095700Y-117299694D01*
X115147866Y-117297829D01*
X115277151Y-117291062D01*
X115379839Y-117280476D01*
X115463135Y-117264348D01*
X115534243Y-117240952D01*
X115600368Y-117208564D01*
X115650974Y-117177368D01*
X115669565Y-117160184D01*
X115709515Y-117119464D01*
X115769406Y-117056737D01*
X115847822Y-116973533D01*
X115943347Y-116871380D01*
X116054565Y-116751808D01*
X116180058Y-116616347D01*
X116318411Y-116466525D01*
X116468207Y-116303872D01*
X116628029Y-116129917D01*
X116796462Y-115946190D01*
X116972089Y-115754219D01*
X117153492Y-115555535D01*
X117177084Y-115529666D01*
X117458290Y-115221320D01*
X117739291Y-114913269D01*
X118021282Y-114604204D01*
X118305463Y-114292813D01*
X118593031Y-113977788D01*
X118885183Y-113657817D01*
X119183117Y-113331590D01*
X119488031Y-112997798D01*
X119801122Y-112655129D01*
X120123588Y-112302273D01*
X120456626Y-111937920D01*
X120801434Y-111560760D01*
X121159209Y-111169483D01*
X121531150Y-110762777D01*
X121918454Y-110339334D01*
X122322318Y-109897842D01*
X122743939Y-109436992D01*
X123184517Y-108955472D01*
X123645247Y-108451973D01*
X124127329Y-107925185D01*
X124266091Y-107773562D01*
X124515848Y-107500650D01*
X124760039Y-107233803D01*
X124997644Y-106974138D01*
X125227640Y-106722771D01*
X125449009Y-106480817D01*
X125660729Y-106249393D01*
X125861779Y-106029614D01*
X126051140Y-105822597D01*
X126227789Y-105629458D01*
X126390706Y-105451313D01*
X126538872Y-105289277D01*
X126671264Y-105144467D01*
X126786863Y-105017998D01*
X126884648Y-104910988D01*
X126963597Y-104824551D01*
X127022691Y-104759804D01*
X127060909Y-104717863D01*
X127076947Y-104700162D01*
X127089343Y-104685028D01*
X127100849Y-104669274D01*
X127111502Y-104654068D01*
X127121335Y-104640579D01*
X127130383Y-104629976D01*
X127138682Y-104623427D01*
X127146267Y-104622100D01*
X127153172Y-104627164D01*
X127159432Y-104639788D01*
X127165083Y-104661140D01*
X127170160Y-104692389D01*
X127174697Y-104734704D01*
X127178729Y-104789252D01*
X127182291Y-104857202D01*
X127185419Y-104939724D01*
X127188147Y-105037985D01*
X127190510Y-105153154D01*
X127192543Y-105286400D01*
X127194281Y-105438891D01*
X127195760Y-105611796D01*
X127197013Y-105806283D01*
X127198077Y-106023521D01*
X127198986Y-106264678D01*
X127199774Y-106530923D01*
X127200478Y-106823425D01*
X127201131Y-107143352D01*
X127201769Y-107491873D01*
X127202427Y-107870155D01*
X127203140Y-108279369D01*
X127203943Y-108720681D01*
X127204400Y-108959533D01*
X127212866Y-113294466D01*
X127255200Y-113369754D01*
X127304017Y-113434664D01*
X127372397Y-113483387D01*
X127381691Y-113488287D01*
X127465849Y-113531533D01*
X128021439Y-113536818D01*
X128180298Y-113538085D01*
X128309168Y-113538471D01*
X128411918Y-113537849D01*
X128492420Y-113536096D01*
X128554541Y-113533086D01*
X128602151Y-113528695D01*
X128639120Y-113522796D01*
X128666979Y-113515954D01*
X128756924Y-113481343D01*
X128821418Y-113434744D01*
X128868340Y-113370171D01*
X128874419Y-113358427D01*
X128877226Y-113352089D01*
X128879865Y-113344027D01*
X128882345Y-113333206D01*
X128884670Y-113318588D01*
X128886849Y-113299137D01*
X128888887Y-113273816D01*
X128890792Y-113241588D01*
X128892569Y-113201417D01*
X128894227Y-113152265D01*
X128895771Y-113093096D01*
X128897208Y-113022873D01*
X128898546Y-112940560D01*
X128899790Y-112845120D01*
X128900948Y-112735516D01*
X128902026Y-112610711D01*
X128903031Y-112469669D01*
X128903969Y-112311353D01*
X128904848Y-112134726D01*
X128905674Y-111938751D01*
X128906454Y-111722392D01*
X128907195Y-111484612D01*
X128907902Y-111224374D01*
X128908584Y-110940642D01*
X128909247Y-110632379D01*
X128909897Y-110298547D01*
X128910541Y-109938111D01*
X128911187Y-109550033D01*
X128911840Y-109133278D01*
X128912507Y-108686807D01*
X128913196Y-108209585D01*
X128913912Y-107700574D01*
X128914663Y-107158739D01*
X128914666Y-107156133D01*
X128923133Y-101017800D01*
X128961204Y-100923762D01*
X128989915Y-100860873D01*
X129022176Y-100801761D01*
X129040191Y-100774266D01*
X129059359Y-100751260D01*
X129099133Y-100705895D01*
X129157194Y-100640740D01*
X129231225Y-100558365D01*
X129318906Y-100461338D01*
X129417919Y-100352230D01*
X129525947Y-100233610D01*
X129640671Y-100108047D01*
X129681029Y-100063970D01*
X129796967Y-99937329D01*
X129925007Y-99797307D01*
X130063392Y-99645833D01*
X130210366Y-99484840D01*
X130364173Y-99316256D01*
X130523057Y-99142013D01*
X130685261Y-98964040D01*
X130849028Y-98784270D01*
X131012603Y-98604631D01*
X131174230Y-98427054D01*
X131332151Y-98253470D01*
X131484611Y-98085810D01*
X131629853Y-97926003D01*
X131766121Y-97775981D01*
X131891658Y-97637673D01*
X132004709Y-97513010D01*
X132103516Y-97403923D01*
X132186325Y-97312342D01*
X132251377Y-97240198D01*
X132296918Y-97189420D01*
X132319606Y-97163774D01*
X132401881Y-97068948D01*
X132228841Y-97059744D01*
X132131961Y-97056743D01*
X132025306Y-97056798D01*
G37*
X132025306Y-97056798D02*
X131927562Y-97059813D01*
X131900512Y-97061437D01*
X131823256Y-97068020D01*
X131771171Y-97076286D01*
X131735565Y-97088533D01*
X131707748Y-97107055D01*
X131699091Y-97114666D01*
X131691131Y-97122460D01*
X131677571Y-97136456D01*
X131657675Y-97157459D01*
X131630709Y-97186274D01*
X131595936Y-97223705D01*
X131552620Y-97270558D01*
X131500026Y-97327637D01*
X131437417Y-97395747D01*
X131364059Y-97475692D01*
X131279215Y-97568277D01*
X131182149Y-97674307D01*
X131072126Y-97794588D01*
X130948409Y-97929922D01*
X130810264Y-98081116D01*
X130656954Y-98248974D01*
X130487744Y-98434301D01*
X130301897Y-98637901D01*
X130098679Y-98860579D01*
X129877352Y-99103140D01*
X129637182Y-99366389D01*
X129377433Y-99651131D01*
X129097368Y-99958169D01*
X128796252Y-100288310D01*
X128473350Y-100642357D01*
X128339429Y-100789199D01*
X128138281Y-101009695D01*
X127915689Y-101253579D01*
X127673094Y-101519277D01*
X127411939Y-101805213D01*
X127133663Y-102109812D01*
X126839708Y-102431497D01*
X126531514Y-102768693D01*
X126210524Y-103119824D01*
X125878178Y-103483316D01*
X125535916Y-103857591D01*
X125185181Y-104241075D01*
X124827413Y-104632192D01*
X124464054Y-105029366D01*
X124096544Y-105431021D01*
X123726324Y-105835582D01*
X123354836Y-106241474D01*
X122983520Y-106647120D01*
X122613818Y-107050945D01*
X122247171Y-107451374D01*
X121885020Y-107846830D01*
X121571557Y-108189066D01*
X121385984Y-108391533D01*
X121206353Y-108587276D01*
X121034026Y-108774821D01*
X120870366Y-108952695D01*
X120716737Y-109119425D01*
X120574501Y-109273536D01*
X120445022Y-109413556D01*
X120329663Y-109538011D01*
X120229786Y-109645428D01*
X120146756Y-109734332D01*
X120081935Y-109803252D01*
X120036686Y-109850713D01*
X120012372Y-109875242D01*
X120008802Y-109878310D01*
X119973867Y-109899620D01*
X119973867Y-105607710D01*
X119973811Y-105102869D01*
X119973642Y-104631409D01*
X119973358Y-104192841D01*
X119972957Y-103786679D01*
X119972438Y-103412437D01*
X119971797Y-103069627D01*
X119971033Y-102757763D01*
X119970144Y-102476357D01*
X119969127Y-102224924D01*
X119967982Y-102002976D01*
X119966705Y-101810027D01*
X119965296Y-101645589D01*
X119963751Y-101509177D01*
X119962068Y-101400302D01*
X119960247Y-101318479D01*
X119958284Y-101263220D01*
X119956178Y-101234039D01*
X119955663Y-101230919D01*
X119922202Y-101130733D01*
X119868163Y-101054787D01*
X119789687Y-100997867D01*
X119779109Y-100992400D01*
X119694467Y-100950066D01*
X119135667Y-100950066D01*
X118964771Y-100950380D01*
X118824135Y-100951643D01*
X118710155Y-100954334D01*
X118619227Y-100958936D01*
X118547748Y-100965929D01*
X118492113Y-100975794D01*
X118448718Y-100989011D01*
X118413960Y-101006063D01*
X118384236Y-101027428D01*
X118355940Y-101053589D01*
X118355345Y-101054183D01*
X118314846Y-101104163D01*
X118282986Y-101159639D01*
X118277184Y-101174113D01*
X118275174Y-101185133D01*
X118273280Y-101206837D01*
X118271496Y-101240152D01*
X118269820Y-101286006D01*
X118268248Y-101345323D01*
X118266777Y-101419033D01*
X118265402Y-101508060D01*
X118264120Y-101613333D01*
X118262928Y-101735777D01*
X118261821Y-101876319D01*
X118260796Y-102035887D01*
X118259850Y-102215407D01*
X118258978Y-102415805D01*
X118258177Y-102638009D01*
X118257443Y-102882945D01*
X118256774Y-103151540D01*
X118256164Y-103444721D01*
X118255611Y-103763414D01*
X118255110Y-104108547D01*
X118254658Y-104481046D01*
X118254252Y-104881837D01*
X118253888Y-105311848D01*
X118253561Y-105772005D01*
X118253269Y-106263236D01*
X118253008Y-106786466D01*
X118252773Y-107342623D01*
X118252770Y-107350866D01*
X118252509Y-107940224D01*
X118252194Y-108496302D01*
X118251822Y-109019689D01*
X118251391Y-109510971D01*
X118250900Y-109970737D01*
X118250346Y-110399574D01*
X118249727Y-110798070D01*
X118249042Y-111166811D01*
X118248289Y-111506386D01*
X118247465Y-111817382D01*
X118246568Y-112100386D01*
X118245596Y-112355986D01*
X118244548Y-112584770D01*
X118243421Y-112787325D01*
X118242214Y-112964239D01*
X118240924Y-113116098D01*
X118239549Y-113243491D01*
X118238088Y-113347005D01*
X118236538Y-113427228D01*
X118234897Y-113484747D01*
X118233164Y-113520149D01*
X118231653Y-113533156D01*
X118209076Y-113591608D01*
X118175674Y-113652651D01*
X118164810Y-113668623D01*
X118145125Y-113692515D01*
X118104625Y-113739046D01*
X118045394Y-113805901D01*
X117969514Y-113890766D01*
X117879070Y-113991326D01*
X117776142Y-114105267D01*
X117662816Y-114230274D01*
X117541172Y-114364033D01*
X117413295Y-114504229D01*
X117381461Y-114539066D01*
X117287317Y-114642119D01*
X117178509Y-114761334D01*
X117056972Y-114894586D01*
X116924636Y-115039752D01*
X116783436Y-115194706D01*
X116635303Y-115357325D01*
X116482170Y-115525485D01*
X116325969Y-115697060D01*
X116168634Y-115869927D01*
X116012097Y-116041962D01*
X115858290Y-116211040D01*
X115709147Y-116375036D01*
X115566599Y-116531827D01*
X115432579Y-116679288D01*
X115309020Y-116815295D01*
X115197854Y-116937723D01*
X115101015Y-117044449D01*
X115020434Y-117133348D01*
X114958045Y-117202295D01*
X114915779Y-117249166D01*
X114905142Y-117261033D01*
X114883405Y-117288884D01*
X114878145Y-117303275D01*
X114878278Y-117303366D01*
X114896779Y-117304242D01*
X114943157Y-117303840D01*
X115011451Y-117302283D01*
X115095700Y-117299694D01*
X115147866Y-117297829D01*
X115277151Y-117291062D01*
X115379839Y-117280476D01*
X115463135Y-117264348D01*
X115534243Y-117240952D01*
X115600368Y-117208564D01*
X115650974Y-117177368D01*
X115669565Y-117160184D01*
X115709515Y-117119464D01*
X115769406Y-117056737D01*
X115847822Y-116973533D01*
X115943347Y-116871380D01*
X116054565Y-116751808D01*
X116180058Y-116616347D01*
X116318411Y-116466525D01*
X116468207Y-116303872D01*
X116628029Y-116129917D01*
X116796462Y-115946190D01*
X116972089Y-115754219D01*
X117153492Y-115555535D01*
X117177084Y-115529666D01*
X117458290Y-115221320D01*
X117739291Y-114913269D01*
X118021282Y-114604204D01*
X118305463Y-114292813D01*
X118593031Y-113977788D01*
X118885183Y-113657817D01*
X119183117Y-113331590D01*
X119488031Y-112997798D01*
X119801122Y-112655129D01*
X120123588Y-112302273D01*
X120456626Y-111937920D01*
X120801434Y-111560760D01*
X121159209Y-111169483D01*
X121531150Y-110762777D01*
X121918454Y-110339334D01*
X122322318Y-109897842D01*
X122743939Y-109436992D01*
X123184517Y-108955472D01*
X123645247Y-108451973D01*
X124127329Y-107925185D01*
X124266091Y-107773562D01*
X124515848Y-107500650D01*
X124760039Y-107233803D01*
X124997644Y-106974138D01*
X125227640Y-106722771D01*
X125449009Y-106480817D01*
X125660729Y-106249393D01*
X125861779Y-106029614D01*
X126051140Y-105822597D01*
X126227789Y-105629458D01*
X126390706Y-105451313D01*
X126538872Y-105289277D01*
X126671264Y-105144467D01*
X126786863Y-105017998D01*
X126884648Y-104910988D01*
X126963597Y-104824551D01*
X127022691Y-104759804D01*
X127060909Y-104717863D01*
X127076947Y-104700162D01*
X127089343Y-104685028D01*
X127100849Y-104669274D01*
X127111502Y-104654068D01*
X127121335Y-104640579D01*
X127130383Y-104629976D01*
X127138682Y-104623427D01*
X127146267Y-104622100D01*
X127153172Y-104627164D01*
X127159432Y-104639788D01*
X127165083Y-104661140D01*
X127170160Y-104692389D01*
X127174697Y-104734704D01*
X127178729Y-104789252D01*
X127182291Y-104857202D01*
X127185419Y-104939724D01*
X127188147Y-105037985D01*
X127190510Y-105153154D01*
X127192543Y-105286400D01*
X127194281Y-105438891D01*
X127195760Y-105611796D01*
X127197013Y-105806283D01*
X127198077Y-106023521D01*
X127198986Y-106264678D01*
X127199774Y-106530923D01*
X127200478Y-106823425D01*
X127201131Y-107143352D01*
X127201769Y-107491873D01*
X127202427Y-107870155D01*
X127203140Y-108279369D01*
X127203943Y-108720681D01*
X127204400Y-108959533D01*
X127212866Y-113294466D01*
X127255200Y-113369754D01*
X127304017Y-113434664D01*
X127372397Y-113483387D01*
X127381691Y-113488287D01*
X127465849Y-113531533D01*
X128021439Y-113536818D01*
X128180298Y-113538085D01*
X128309168Y-113538471D01*
X128411918Y-113537849D01*
X128492420Y-113536096D01*
X128554541Y-113533086D01*
X128602151Y-113528695D01*
X128639120Y-113522796D01*
X128666979Y-113515954D01*
X128756924Y-113481343D01*
X128821418Y-113434744D01*
X128868340Y-113370171D01*
X128874419Y-113358427D01*
X128877226Y-113352089D01*
X128879865Y-113344027D01*
X128882345Y-113333206D01*
X128884670Y-113318588D01*
X128886849Y-113299137D01*
X128888887Y-113273816D01*
X128890792Y-113241588D01*
X128892569Y-113201417D01*
X128894227Y-113152265D01*
X128895771Y-113093096D01*
X128897208Y-113022873D01*
X128898546Y-112940560D01*
X128899790Y-112845120D01*
X128900948Y-112735516D01*
X128902026Y-112610711D01*
X128903031Y-112469669D01*
X128903969Y-112311353D01*
X128904848Y-112134726D01*
X128905674Y-111938751D01*
X128906454Y-111722392D01*
X128907195Y-111484612D01*
X128907902Y-111224374D01*
X128908584Y-110940642D01*
X128909247Y-110632379D01*
X128909897Y-110298547D01*
X128910541Y-109938111D01*
X128911187Y-109550033D01*
X128911840Y-109133278D01*
X128912507Y-108686807D01*
X128913196Y-108209585D01*
X128913912Y-107700574D01*
X128914663Y-107158739D01*
X128914666Y-107156133D01*
X128923133Y-101017800D01*
X128961204Y-100923762D01*
X128989915Y-100860873D01*
X129022176Y-100801761D01*
X129040191Y-100774266D01*
X129059359Y-100751260D01*
X129099133Y-100705895D01*
X129157194Y-100640740D01*
X129231225Y-100558365D01*
X129318906Y-100461338D01*
X129417919Y-100352230D01*
X129525947Y-100233610D01*
X129640671Y-100108047D01*
X129681029Y-100063970D01*
X129796967Y-99937329D01*
X129925007Y-99797307D01*
X130063392Y-99645833D01*
X130210366Y-99484840D01*
X130364173Y-99316256D01*
X130523057Y-99142013D01*
X130685261Y-98964040D01*
X130849028Y-98784270D01*
X131012603Y-98604631D01*
X131174230Y-98427054D01*
X131332151Y-98253470D01*
X131484611Y-98085810D01*
X131629853Y-97926003D01*
X131766121Y-97775981D01*
X131891658Y-97637673D01*
X132004709Y-97513010D01*
X132103516Y-97403923D01*
X132186325Y-97312342D01*
X132251377Y-97240198D01*
X132296918Y-97189420D01*
X132319606Y-97163774D01*
X132401881Y-97068948D01*
X132228841Y-97059744D01*
X132131961Y-97056743D01*
X132025306Y-97056798D01*
%TD*%
M02*
