%TF.GenerationSoftware,KiCad,Pcbnew,(5.1.9)-1*%
%TF.CreationDate,2021-11-07T02:37:45+01:00*%
%TF.ProjectId,SwitchBox,53776974-6368-4426-9f78-2e6b69636164,rev?*%
%TF.SameCoordinates,Original*%
%TF.FileFunction,Legend,Bot*%
%TF.FilePolarity,Positive*%
%FSLAX46Y46*%
G04 Gerber Fmt 4.6, Leading zero omitted, Abs format (unit mm)*
G04 Created by KiCad (PCBNEW (5.1.9)-1) date 2021-11-07 02:37:45*
%MOMM*%
%LPD*%
G01*
G04 APERTURE LIST*
%ADD10C,0.010000*%
G04 APERTURE END LIST*
D10*
%TO.C,G\u002A\u002A\u002A*%
G36*
X103133379Y-159266621D02*
G01*
X128164948Y-159266621D01*
X128164948Y-152439830D01*
X126647884Y-152439830D01*
X126647884Y-157749557D01*
X121338157Y-157749557D01*
X121338157Y-156991024D01*
X119821092Y-156991024D01*
X119821092Y-157749557D01*
X119062559Y-157749557D01*
X119062559Y-156991024D01*
X119821092Y-156991024D01*
X121338157Y-156991024D01*
X121338157Y-153956895D01*
X120579624Y-153956895D01*
X120579624Y-155473959D01*
X119821092Y-155473959D01*
X119821092Y-156232492D01*
X119062559Y-156232492D01*
X119062559Y-156991024D01*
X118304027Y-156991024D01*
X118304027Y-157749557D01*
X116786962Y-157749557D01*
X116786962Y-156991024D01*
X116028430Y-156991024D01*
X116028430Y-157749557D01*
X115269897Y-157749557D01*
X115269897Y-156991024D01*
X116028430Y-156991024D01*
X116786962Y-156991024D01*
X116786962Y-156232492D01*
X117545495Y-156232492D01*
X117545495Y-156991024D01*
X118304027Y-156991024D01*
X118304027Y-156232492D01*
X119062559Y-156232492D01*
X119062559Y-155473959D01*
X119821092Y-155473959D01*
X119821092Y-153956895D01*
X120579624Y-153956895D01*
X121338157Y-153956895D01*
X121338157Y-152439830D01*
X126647884Y-152439830D01*
X128164948Y-152439830D01*
X128164948Y-146371570D01*
X126647884Y-146371570D01*
X126647884Y-147130103D01*
X125130819Y-147130103D01*
X125130819Y-147888635D01*
X126647884Y-147888635D01*
X126647884Y-151681297D01*
X125130819Y-151681297D01*
X125130819Y-150164232D01*
X124372286Y-150164232D01*
X124372286Y-149405700D01*
X123613754Y-149405700D01*
X123613754Y-150922765D01*
X122855222Y-150922765D01*
X122855222Y-151681297D01*
X121338157Y-151681297D01*
X120579624Y-151681297D01*
X120579624Y-153198362D01*
X119821092Y-153198362D01*
X119821092Y-153956895D01*
X119062559Y-153956895D01*
X119062559Y-154715427D01*
X118304027Y-154715427D01*
X116786962Y-154715427D01*
X116786962Y-155473959D01*
X116028430Y-155473959D01*
X116028430Y-156232492D01*
X114511365Y-156232492D01*
X114511365Y-157749557D01*
X113752832Y-157749557D01*
X113752832Y-156991024D01*
X112994300Y-156991024D01*
X112994300Y-157749557D01*
X106926041Y-157749557D01*
X106926041Y-156991024D01*
X106167508Y-156991024D01*
X106167508Y-156232492D01*
X105408976Y-156232492D01*
X105408976Y-156991024D01*
X104650443Y-156991024D01*
X104650443Y-155473959D01*
X105408976Y-155473959D01*
X105408976Y-154715427D01*
X104650443Y-154715427D01*
X104650443Y-153198362D01*
X105408976Y-153198362D01*
X105408976Y-152439830D01*
X106167508Y-152439830D01*
X106167508Y-150922765D01*
X105408976Y-150922765D01*
X105408976Y-151681297D01*
X104650443Y-151681297D01*
X104650443Y-149405700D01*
X105408976Y-149405700D01*
X105408976Y-150164232D01*
X106926041Y-150164232D01*
X106926041Y-149405700D01*
X107684573Y-149405700D01*
X107684573Y-148647168D01*
X108443105Y-148647168D01*
X108443105Y-150164232D01*
X110718703Y-150164232D01*
X110718703Y-150922765D01*
X111477235Y-150922765D01*
X111477235Y-149405700D01*
X110718703Y-149405700D01*
X110718703Y-148647168D01*
X112235768Y-148647168D01*
X112235768Y-150164232D01*
X112994300Y-150164232D01*
X112994300Y-151681297D01*
X111477235Y-151681297D01*
X111477235Y-152439830D01*
X112235768Y-152439830D01*
X112235768Y-153198362D01*
X112994300Y-153198362D01*
X112994300Y-153956895D01*
X115269897Y-153956895D01*
X115269897Y-153198362D01*
X116028430Y-153198362D01*
X116028430Y-154715427D01*
X116786962Y-154715427D01*
X118304027Y-154715427D01*
X118304027Y-153956895D01*
X116786962Y-153956895D01*
X116786962Y-153198362D01*
X118304027Y-153198362D01*
X118304027Y-152439830D01*
X117545495Y-152439830D01*
X117545495Y-151681297D01*
X116786962Y-151681297D01*
X116786962Y-152439830D01*
X116028430Y-152439830D01*
X116028430Y-151681297D01*
X115269897Y-151681297D01*
X115269897Y-152439830D01*
X114511365Y-152439830D01*
X114511365Y-153198362D01*
X113752832Y-153198362D01*
X113752832Y-152439830D01*
X114511365Y-152439830D01*
X114511365Y-150922765D01*
X113752832Y-150922765D01*
X113752832Y-150164232D01*
X116028430Y-150164232D01*
X116028430Y-148647168D01*
X114511365Y-148647168D01*
X114511365Y-149405700D01*
X113752832Y-149405700D01*
X113752832Y-150164232D01*
X112994300Y-150164232D01*
X112994300Y-149405700D01*
X113752832Y-149405700D01*
X113752832Y-148647168D01*
X114511365Y-148647168D01*
X116028430Y-148647168D01*
X116786962Y-148647168D01*
X116786962Y-150164232D01*
X118304027Y-150164232D01*
X118304027Y-150922765D01*
X119062559Y-150922765D01*
X119062559Y-153198362D01*
X119821092Y-153198362D01*
X119821092Y-151681297D01*
X120579624Y-151681297D01*
X121338157Y-151681297D01*
X121338157Y-150922765D01*
X120579624Y-150922765D01*
X120579624Y-149405700D01*
X119821092Y-149405700D01*
X119821092Y-150164232D01*
X118304027Y-150164232D01*
X118304027Y-149405700D01*
X119821092Y-149405700D01*
X120579624Y-149405700D01*
X122096689Y-149405700D01*
X122096689Y-148647168D01*
X121338157Y-148647168D01*
X121338157Y-147888635D01*
X122096689Y-147888635D01*
X122096689Y-147130103D01*
X120579624Y-147130103D01*
X120579624Y-146371570D01*
X122096689Y-146371570D01*
X122096689Y-145613038D01*
X121338157Y-145613038D01*
X120579624Y-145613038D01*
X120579624Y-146371570D01*
X119821092Y-146371570D01*
X111477235Y-146371570D01*
X111477235Y-147130103D01*
X110718703Y-147130103D01*
X110718703Y-146371570D01*
X111477235Y-146371570D01*
X119821092Y-146371570D01*
X119821092Y-145613038D01*
X120579624Y-145613038D01*
X121338157Y-145613038D01*
X121338157Y-144854505D01*
X120579624Y-144854505D01*
X120579624Y-144095973D01*
X119821092Y-144095973D01*
X119821092Y-144854505D01*
X119062559Y-144854505D01*
X119062559Y-144095973D01*
X119821092Y-144095973D01*
X119821092Y-142578908D01*
X120579624Y-142578908D01*
X120579624Y-141820376D01*
X122096689Y-141820376D01*
X122096689Y-142578908D01*
X121338157Y-142578908D01*
X121338157Y-143337441D01*
X122096689Y-143337441D01*
X122096689Y-144095973D01*
X122855222Y-144095973D01*
X122855222Y-143337441D01*
X123613754Y-143337441D01*
X123613754Y-144854505D01*
X124372286Y-144854505D01*
X124372286Y-145613038D01*
X125130819Y-145613038D01*
X125130819Y-146371570D01*
X126647884Y-146371570D01*
X128164948Y-146371570D01*
X128164948Y-144095973D01*
X126647884Y-144095973D01*
X126647884Y-145613038D01*
X125130819Y-145613038D01*
X125130819Y-144854505D01*
X125889351Y-144854505D01*
X125889351Y-144095973D01*
X126647884Y-144095973D01*
X128164948Y-144095973D01*
X128164948Y-142578908D01*
X125889351Y-142578908D01*
X125889351Y-144095973D01*
X124372286Y-144095973D01*
X124372286Y-143337441D01*
X125130819Y-143337441D01*
X125130819Y-142578908D01*
X125889351Y-142578908D01*
X128164948Y-142578908D01*
X128164948Y-141820376D01*
X124372286Y-141820376D01*
X124372286Y-142578908D01*
X122855222Y-142578908D01*
X122855222Y-141820376D01*
X124372286Y-141820376D01*
X128164948Y-141820376D01*
X128164948Y-135752116D01*
X126647884Y-135752116D01*
X126647884Y-141061843D01*
X121338157Y-141061843D01*
X121338157Y-140303311D01*
X120579624Y-140303311D01*
X120579624Y-141061843D01*
X119821092Y-141061843D01*
X119821092Y-140303311D01*
X120579624Y-140303311D01*
X121338157Y-140303311D01*
X121338157Y-137269181D01*
X120579624Y-137269181D01*
X120579624Y-138786246D01*
X119821092Y-138786246D01*
X119821092Y-140303311D01*
X119062559Y-140303311D01*
X119062559Y-143337441D01*
X118304027Y-143337441D01*
X118304027Y-144095973D01*
X116786962Y-144095973D01*
X116786962Y-144854505D01*
X114511365Y-144854505D01*
X114511365Y-144095973D01*
X113752832Y-144095973D01*
X113752832Y-144854505D01*
X112235768Y-144854505D01*
X112235768Y-144095973D01*
X113752832Y-144095973D01*
X113752832Y-143337441D01*
X114511365Y-143337441D01*
X114511365Y-142578908D01*
X113752832Y-142578908D01*
X112994300Y-142578908D01*
X112994300Y-143337441D01*
X111477235Y-143337441D01*
X111477235Y-145613038D01*
X109960170Y-145613038D01*
X109960170Y-146371570D01*
X109201638Y-146371570D01*
X109201638Y-145613038D01*
X108443105Y-145613038D01*
X108443105Y-146371570D01*
X107684573Y-146371570D01*
X107684573Y-148647168D01*
X106926041Y-148647168D01*
X106926041Y-147888635D01*
X105408976Y-147888635D01*
X105408976Y-148647168D01*
X104650443Y-148647168D01*
X104650443Y-145613038D01*
X105408976Y-145613038D01*
X105408976Y-144854505D01*
X106167508Y-144854505D01*
X106167508Y-145613038D01*
X106926041Y-145613038D01*
X106926041Y-146371570D01*
X107684573Y-146371570D01*
X107684573Y-145613038D01*
X108443105Y-145613038D01*
X108443105Y-144854505D01*
X106926041Y-144854505D01*
X106926041Y-144095973D01*
X105408976Y-144095973D01*
X105408976Y-144854505D01*
X104650443Y-144854505D01*
X104650443Y-144095973D01*
X105408976Y-144095973D01*
X106926041Y-144095973D01*
X106926041Y-143337441D01*
X105408976Y-143337441D01*
X105408976Y-142578908D01*
X106167508Y-142578908D01*
X106167508Y-141820376D01*
X107684573Y-141820376D01*
X107684573Y-142578908D01*
X108443105Y-142578908D01*
X108443105Y-143337441D01*
X109960170Y-143337441D01*
X109960170Y-144095973D01*
X110718703Y-144095973D01*
X110718703Y-142578908D01*
X112994300Y-142578908D01*
X113752832Y-142578908D01*
X113752832Y-141820376D01*
X112235768Y-141820376D01*
X112235768Y-140303311D01*
X111477235Y-140303311D01*
X111477235Y-141061843D01*
X110718703Y-141061843D01*
X110718703Y-140303311D01*
X111477235Y-140303311D01*
X112235768Y-140303311D01*
X112994300Y-140303311D01*
X112994300Y-141061843D01*
X113752832Y-141061843D01*
X113752832Y-140303311D01*
X114511365Y-140303311D01*
X114511365Y-139544778D01*
X113752832Y-139544778D01*
X113752832Y-138786246D01*
X115269897Y-138786246D01*
X115269897Y-138027714D01*
X116028430Y-138027714D01*
X116028430Y-137269181D01*
X116786962Y-137269181D01*
X116786962Y-135752116D01*
X116028430Y-135752116D01*
X116028430Y-137269181D01*
X115269897Y-137269181D01*
X114511365Y-137269181D01*
X114511365Y-138027714D01*
X113752832Y-138027714D01*
X113752832Y-138786246D01*
X112994300Y-138786246D01*
X112994300Y-139544778D01*
X111477235Y-139544778D01*
X111477235Y-138027714D01*
X110718703Y-138027714D01*
X110718703Y-137269181D01*
X111477235Y-137269181D01*
X111477235Y-136510649D01*
X110718703Y-136510649D01*
X110718703Y-135752116D01*
X109960170Y-135752116D01*
X109960170Y-141061843D01*
X104650443Y-141061843D01*
X104650443Y-135752116D01*
X109960170Y-135752116D01*
X110718703Y-135752116D01*
X113752832Y-135752116D01*
X113752832Y-137269181D01*
X114511365Y-137269181D01*
X115269897Y-137269181D01*
X115269897Y-135752116D01*
X116028430Y-135752116D01*
X116786962Y-135752116D01*
X118304027Y-135752116D01*
X118304027Y-136510649D01*
X119821092Y-136510649D01*
X119821092Y-137269181D01*
X120579624Y-137269181D01*
X121338157Y-137269181D01*
X121338157Y-135752116D01*
X126647884Y-135752116D01*
X128164948Y-135752116D01*
X128164948Y-134235052D01*
X103133379Y-134235052D01*
X103133379Y-159266621D01*
G37*
X103133379Y-159266621D02*
X128164948Y-159266621D01*
X128164948Y-152439830D01*
X126647884Y-152439830D01*
X126647884Y-157749557D01*
X121338157Y-157749557D01*
X121338157Y-156991024D01*
X119821092Y-156991024D01*
X119821092Y-157749557D01*
X119062559Y-157749557D01*
X119062559Y-156991024D01*
X119821092Y-156991024D01*
X121338157Y-156991024D01*
X121338157Y-153956895D01*
X120579624Y-153956895D01*
X120579624Y-155473959D01*
X119821092Y-155473959D01*
X119821092Y-156232492D01*
X119062559Y-156232492D01*
X119062559Y-156991024D01*
X118304027Y-156991024D01*
X118304027Y-157749557D01*
X116786962Y-157749557D01*
X116786962Y-156991024D01*
X116028430Y-156991024D01*
X116028430Y-157749557D01*
X115269897Y-157749557D01*
X115269897Y-156991024D01*
X116028430Y-156991024D01*
X116786962Y-156991024D01*
X116786962Y-156232492D01*
X117545495Y-156232492D01*
X117545495Y-156991024D01*
X118304027Y-156991024D01*
X118304027Y-156232492D01*
X119062559Y-156232492D01*
X119062559Y-155473959D01*
X119821092Y-155473959D01*
X119821092Y-153956895D01*
X120579624Y-153956895D01*
X121338157Y-153956895D01*
X121338157Y-152439830D01*
X126647884Y-152439830D01*
X128164948Y-152439830D01*
X128164948Y-146371570D01*
X126647884Y-146371570D01*
X126647884Y-147130103D01*
X125130819Y-147130103D01*
X125130819Y-147888635D01*
X126647884Y-147888635D01*
X126647884Y-151681297D01*
X125130819Y-151681297D01*
X125130819Y-150164232D01*
X124372286Y-150164232D01*
X124372286Y-149405700D01*
X123613754Y-149405700D01*
X123613754Y-150922765D01*
X122855222Y-150922765D01*
X122855222Y-151681297D01*
X121338157Y-151681297D01*
X120579624Y-151681297D01*
X120579624Y-153198362D01*
X119821092Y-153198362D01*
X119821092Y-153956895D01*
X119062559Y-153956895D01*
X119062559Y-154715427D01*
X118304027Y-154715427D01*
X116786962Y-154715427D01*
X116786962Y-155473959D01*
X116028430Y-155473959D01*
X116028430Y-156232492D01*
X114511365Y-156232492D01*
X114511365Y-157749557D01*
X113752832Y-157749557D01*
X113752832Y-156991024D01*
X112994300Y-156991024D01*
X112994300Y-157749557D01*
X106926041Y-157749557D01*
X106926041Y-156991024D01*
X106167508Y-156991024D01*
X106167508Y-156232492D01*
X105408976Y-156232492D01*
X105408976Y-156991024D01*
X104650443Y-156991024D01*
X104650443Y-155473959D01*
X105408976Y-155473959D01*
X105408976Y-154715427D01*
X104650443Y-154715427D01*
X104650443Y-153198362D01*
X105408976Y-153198362D01*
X105408976Y-152439830D01*
X106167508Y-152439830D01*
X106167508Y-150922765D01*
X105408976Y-150922765D01*
X105408976Y-151681297D01*
X104650443Y-151681297D01*
X104650443Y-149405700D01*
X105408976Y-149405700D01*
X105408976Y-150164232D01*
X106926041Y-150164232D01*
X106926041Y-149405700D01*
X107684573Y-149405700D01*
X107684573Y-148647168D01*
X108443105Y-148647168D01*
X108443105Y-150164232D01*
X110718703Y-150164232D01*
X110718703Y-150922765D01*
X111477235Y-150922765D01*
X111477235Y-149405700D01*
X110718703Y-149405700D01*
X110718703Y-148647168D01*
X112235768Y-148647168D01*
X112235768Y-150164232D01*
X112994300Y-150164232D01*
X112994300Y-151681297D01*
X111477235Y-151681297D01*
X111477235Y-152439830D01*
X112235768Y-152439830D01*
X112235768Y-153198362D01*
X112994300Y-153198362D01*
X112994300Y-153956895D01*
X115269897Y-153956895D01*
X115269897Y-153198362D01*
X116028430Y-153198362D01*
X116028430Y-154715427D01*
X116786962Y-154715427D01*
X118304027Y-154715427D01*
X118304027Y-153956895D01*
X116786962Y-153956895D01*
X116786962Y-153198362D01*
X118304027Y-153198362D01*
X118304027Y-152439830D01*
X117545495Y-152439830D01*
X117545495Y-151681297D01*
X116786962Y-151681297D01*
X116786962Y-152439830D01*
X116028430Y-152439830D01*
X116028430Y-151681297D01*
X115269897Y-151681297D01*
X115269897Y-152439830D01*
X114511365Y-152439830D01*
X114511365Y-153198362D01*
X113752832Y-153198362D01*
X113752832Y-152439830D01*
X114511365Y-152439830D01*
X114511365Y-150922765D01*
X113752832Y-150922765D01*
X113752832Y-150164232D01*
X116028430Y-150164232D01*
X116028430Y-148647168D01*
X114511365Y-148647168D01*
X114511365Y-149405700D01*
X113752832Y-149405700D01*
X113752832Y-150164232D01*
X112994300Y-150164232D01*
X112994300Y-149405700D01*
X113752832Y-149405700D01*
X113752832Y-148647168D01*
X114511365Y-148647168D01*
X116028430Y-148647168D01*
X116786962Y-148647168D01*
X116786962Y-150164232D01*
X118304027Y-150164232D01*
X118304027Y-150922765D01*
X119062559Y-150922765D01*
X119062559Y-153198362D01*
X119821092Y-153198362D01*
X119821092Y-151681297D01*
X120579624Y-151681297D01*
X121338157Y-151681297D01*
X121338157Y-150922765D01*
X120579624Y-150922765D01*
X120579624Y-149405700D01*
X119821092Y-149405700D01*
X119821092Y-150164232D01*
X118304027Y-150164232D01*
X118304027Y-149405700D01*
X119821092Y-149405700D01*
X120579624Y-149405700D01*
X122096689Y-149405700D01*
X122096689Y-148647168D01*
X121338157Y-148647168D01*
X121338157Y-147888635D01*
X122096689Y-147888635D01*
X122096689Y-147130103D01*
X120579624Y-147130103D01*
X120579624Y-146371570D01*
X122096689Y-146371570D01*
X122096689Y-145613038D01*
X121338157Y-145613038D01*
X120579624Y-145613038D01*
X120579624Y-146371570D01*
X119821092Y-146371570D01*
X111477235Y-146371570D01*
X111477235Y-147130103D01*
X110718703Y-147130103D01*
X110718703Y-146371570D01*
X111477235Y-146371570D01*
X119821092Y-146371570D01*
X119821092Y-145613038D01*
X120579624Y-145613038D01*
X121338157Y-145613038D01*
X121338157Y-144854505D01*
X120579624Y-144854505D01*
X120579624Y-144095973D01*
X119821092Y-144095973D01*
X119821092Y-144854505D01*
X119062559Y-144854505D01*
X119062559Y-144095973D01*
X119821092Y-144095973D01*
X119821092Y-142578908D01*
X120579624Y-142578908D01*
X120579624Y-141820376D01*
X122096689Y-141820376D01*
X122096689Y-142578908D01*
X121338157Y-142578908D01*
X121338157Y-143337441D01*
X122096689Y-143337441D01*
X122096689Y-144095973D01*
X122855222Y-144095973D01*
X122855222Y-143337441D01*
X123613754Y-143337441D01*
X123613754Y-144854505D01*
X124372286Y-144854505D01*
X124372286Y-145613038D01*
X125130819Y-145613038D01*
X125130819Y-146371570D01*
X126647884Y-146371570D01*
X128164948Y-146371570D01*
X128164948Y-144095973D01*
X126647884Y-144095973D01*
X126647884Y-145613038D01*
X125130819Y-145613038D01*
X125130819Y-144854505D01*
X125889351Y-144854505D01*
X125889351Y-144095973D01*
X126647884Y-144095973D01*
X128164948Y-144095973D01*
X128164948Y-142578908D01*
X125889351Y-142578908D01*
X125889351Y-144095973D01*
X124372286Y-144095973D01*
X124372286Y-143337441D01*
X125130819Y-143337441D01*
X125130819Y-142578908D01*
X125889351Y-142578908D01*
X128164948Y-142578908D01*
X128164948Y-141820376D01*
X124372286Y-141820376D01*
X124372286Y-142578908D01*
X122855222Y-142578908D01*
X122855222Y-141820376D01*
X124372286Y-141820376D01*
X128164948Y-141820376D01*
X128164948Y-135752116D01*
X126647884Y-135752116D01*
X126647884Y-141061843D01*
X121338157Y-141061843D01*
X121338157Y-140303311D01*
X120579624Y-140303311D01*
X120579624Y-141061843D01*
X119821092Y-141061843D01*
X119821092Y-140303311D01*
X120579624Y-140303311D01*
X121338157Y-140303311D01*
X121338157Y-137269181D01*
X120579624Y-137269181D01*
X120579624Y-138786246D01*
X119821092Y-138786246D01*
X119821092Y-140303311D01*
X119062559Y-140303311D01*
X119062559Y-143337441D01*
X118304027Y-143337441D01*
X118304027Y-144095973D01*
X116786962Y-144095973D01*
X116786962Y-144854505D01*
X114511365Y-144854505D01*
X114511365Y-144095973D01*
X113752832Y-144095973D01*
X113752832Y-144854505D01*
X112235768Y-144854505D01*
X112235768Y-144095973D01*
X113752832Y-144095973D01*
X113752832Y-143337441D01*
X114511365Y-143337441D01*
X114511365Y-142578908D01*
X113752832Y-142578908D01*
X112994300Y-142578908D01*
X112994300Y-143337441D01*
X111477235Y-143337441D01*
X111477235Y-145613038D01*
X109960170Y-145613038D01*
X109960170Y-146371570D01*
X109201638Y-146371570D01*
X109201638Y-145613038D01*
X108443105Y-145613038D01*
X108443105Y-146371570D01*
X107684573Y-146371570D01*
X107684573Y-148647168D01*
X106926041Y-148647168D01*
X106926041Y-147888635D01*
X105408976Y-147888635D01*
X105408976Y-148647168D01*
X104650443Y-148647168D01*
X104650443Y-145613038D01*
X105408976Y-145613038D01*
X105408976Y-144854505D01*
X106167508Y-144854505D01*
X106167508Y-145613038D01*
X106926041Y-145613038D01*
X106926041Y-146371570D01*
X107684573Y-146371570D01*
X107684573Y-145613038D01*
X108443105Y-145613038D01*
X108443105Y-144854505D01*
X106926041Y-144854505D01*
X106926041Y-144095973D01*
X105408976Y-144095973D01*
X105408976Y-144854505D01*
X104650443Y-144854505D01*
X104650443Y-144095973D01*
X105408976Y-144095973D01*
X106926041Y-144095973D01*
X106926041Y-143337441D01*
X105408976Y-143337441D01*
X105408976Y-142578908D01*
X106167508Y-142578908D01*
X106167508Y-141820376D01*
X107684573Y-141820376D01*
X107684573Y-142578908D01*
X108443105Y-142578908D01*
X108443105Y-143337441D01*
X109960170Y-143337441D01*
X109960170Y-144095973D01*
X110718703Y-144095973D01*
X110718703Y-142578908D01*
X112994300Y-142578908D01*
X113752832Y-142578908D01*
X113752832Y-141820376D01*
X112235768Y-141820376D01*
X112235768Y-140303311D01*
X111477235Y-140303311D01*
X111477235Y-141061843D01*
X110718703Y-141061843D01*
X110718703Y-140303311D01*
X111477235Y-140303311D01*
X112235768Y-140303311D01*
X112994300Y-140303311D01*
X112994300Y-141061843D01*
X113752832Y-141061843D01*
X113752832Y-140303311D01*
X114511365Y-140303311D01*
X114511365Y-139544778D01*
X113752832Y-139544778D01*
X113752832Y-138786246D01*
X115269897Y-138786246D01*
X115269897Y-138027714D01*
X116028430Y-138027714D01*
X116028430Y-137269181D01*
X116786962Y-137269181D01*
X116786962Y-135752116D01*
X116028430Y-135752116D01*
X116028430Y-137269181D01*
X115269897Y-137269181D01*
X114511365Y-137269181D01*
X114511365Y-138027714D01*
X113752832Y-138027714D01*
X113752832Y-138786246D01*
X112994300Y-138786246D01*
X112994300Y-139544778D01*
X111477235Y-139544778D01*
X111477235Y-138027714D01*
X110718703Y-138027714D01*
X110718703Y-137269181D01*
X111477235Y-137269181D01*
X111477235Y-136510649D01*
X110718703Y-136510649D01*
X110718703Y-135752116D01*
X109960170Y-135752116D01*
X109960170Y-141061843D01*
X104650443Y-141061843D01*
X104650443Y-135752116D01*
X109960170Y-135752116D01*
X110718703Y-135752116D01*
X113752832Y-135752116D01*
X113752832Y-137269181D01*
X114511365Y-137269181D01*
X115269897Y-137269181D01*
X115269897Y-135752116D01*
X116028430Y-135752116D01*
X116786962Y-135752116D01*
X118304027Y-135752116D01*
X118304027Y-136510649D01*
X119821092Y-136510649D01*
X119821092Y-137269181D01*
X120579624Y-137269181D01*
X121338157Y-137269181D01*
X121338157Y-135752116D01*
X126647884Y-135752116D01*
X128164948Y-135752116D01*
X128164948Y-134235052D01*
X103133379Y-134235052D01*
X103133379Y-159266621D01*
G36*
X122118361Y-156969352D02*
G01*
X125867679Y-156969352D01*
X125867679Y-153956895D01*
X125130819Y-153956895D01*
X125130819Y-156232492D01*
X122855222Y-156232492D01*
X122855222Y-153956895D01*
X125130819Y-153956895D01*
X125867679Y-153956895D01*
X125867679Y-153220034D01*
X122118361Y-153220034D01*
X122118361Y-156969352D01*
G37*
X122118361Y-156969352D02*
X125867679Y-156969352D01*
X125867679Y-153956895D01*
X125130819Y-153956895D01*
X125130819Y-156232492D01*
X122855222Y-156232492D01*
X122855222Y-153956895D01*
X125130819Y-153956895D01*
X125867679Y-153956895D01*
X125867679Y-153220034D01*
X122118361Y-153220034D01*
X122118361Y-156969352D01*
G36*
X112235768Y-154715427D02*
G01*
X110718703Y-154715427D01*
X110718703Y-155473959D01*
X109960170Y-155473959D01*
X109960170Y-154715427D01*
X109201638Y-154715427D01*
X109201638Y-155473959D01*
X108443105Y-155473959D01*
X108443105Y-156991024D01*
X109960170Y-156991024D01*
X109960170Y-156232492D01*
X110718703Y-156232492D01*
X110718703Y-156991024D01*
X112235768Y-156991024D01*
X112235768Y-156232492D01*
X113752832Y-156232492D01*
X113752832Y-155473959D01*
X112994300Y-155473959D01*
X112235768Y-155473959D01*
X112235768Y-156232492D01*
X111477235Y-156232492D01*
X111477235Y-155473959D01*
X112235768Y-155473959D01*
X112994300Y-155473959D01*
X112994300Y-153956895D01*
X112235768Y-153956895D01*
X112235768Y-154715427D01*
G37*
X112235768Y-154715427D02*
X110718703Y-154715427D01*
X110718703Y-155473959D01*
X109960170Y-155473959D01*
X109960170Y-154715427D01*
X109201638Y-154715427D01*
X109201638Y-155473959D01*
X108443105Y-155473959D01*
X108443105Y-156991024D01*
X109960170Y-156991024D01*
X109960170Y-156232492D01*
X110718703Y-156232492D01*
X110718703Y-156991024D01*
X112235768Y-156991024D01*
X112235768Y-156232492D01*
X113752832Y-156232492D01*
X113752832Y-155473959D01*
X112994300Y-155473959D01*
X112235768Y-155473959D01*
X112235768Y-156232492D01*
X111477235Y-156232492D01*
X111477235Y-155473959D01*
X112235768Y-155473959D01*
X112994300Y-155473959D01*
X112994300Y-153956895D01*
X112235768Y-153956895D01*
X112235768Y-154715427D01*
G36*
X106167508Y-155473959D02*
G01*
X106926041Y-155473959D01*
X106926041Y-156232492D01*
X107684573Y-156232492D01*
X107684573Y-155473959D01*
X108443105Y-155473959D01*
X108443105Y-154715427D01*
X107684573Y-154715427D01*
X107684573Y-153956895D01*
X106926041Y-153956895D01*
X106926041Y-153198362D01*
X106167508Y-153198362D01*
X106167508Y-155473959D01*
G37*
X106167508Y-155473959D02*
X106926041Y-155473959D01*
X106926041Y-156232492D01*
X107684573Y-156232492D01*
X107684573Y-155473959D01*
X108443105Y-155473959D01*
X108443105Y-154715427D01*
X107684573Y-154715427D01*
X107684573Y-153956895D01*
X106926041Y-153956895D01*
X106926041Y-153198362D01*
X106167508Y-153198362D01*
X106167508Y-155473959D01*
G36*
X113752832Y-155473959D02*
G01*
X116028430Y-155473959D01*
X116028430Y-154715427D01*
X113752832Y-154715427D01*
X113752832Y-155473959D01*
G37*
X113752832Y-155473959D02*
X116028430Y-155473959D01*
X116028430Y-154715427D01*
X113752832Y-154715427D01*
X113752832Y-155473959D01*
G36*
X106926041Y-153198362D02*
G01*
X107684573Y-153198362D01*
X107684573Y-152439830D01*
X106926041Y-152439830D01*
X106926041Y-153198362D01*
G37*
X106926041Y-153198362D02*
X107684573Y-153198362D01*
X107684573Y-152439830D01*
X106926041Y-152439830D01*
X106926041Y-153198362D01*
G36*
X118304027Y-153956895D02*
G01*
X119062559Y-153956895D01*
X119062559Y-153198362D01*
X118304027Y-153198362D01*
X118304027Y-153956895D01*
G37*
X118304027Y-153956895D02*
X119062559Y-153956895D01*
X119062559Y-153198362D01*
X118304027Y-153198362D01*
X118304027Y-153956895D01*
G36*
X108443105Y-153956895D02*
G01*
X110718703Y-153956895D01*
X110718703Y-152439830D01*
X109960170Y-152439830D01*
X109960170Y-153198362D01*
X109201638Y-153198362D01*
X109201638Y-152439830D01*
X109960170Y-152439830D01*
X110718703Y-152439830D01*
X110718703Y-151681297D01*
X108443105Y-151681297D01*
X108443105Y-153956895D01*
G37*
X108443105Y-153956895D02*
X110718703Y-153956895D01*
X110718703Y-152439830D01*
X109960170Y-152439830D01*
X109960170Y-153198362D01*
X109201638Y-153198362D01*
X109201638Y-152439830D01*
X109960170Y-152439830D01*
X110718703Y-152439830D01*
X110718703Y-151681297D01*
X108443105Y-151681297D01*
X108443105Y-153956895D01*
G36*
X116028430Y-151681297D02*
G01*
X116786962Y-151681297D01*
X116786962Y-150922765D01*
X116028430Y-150922765D01*
X116028430Y-151681297D01*
G37*
X116028430Y-151681297D02*
X116786962Y-151681297D01*
X116786962Y-150922765D01*
X116028430Y-150922765D01*
X116028430Y-151681297D01*
G36*
X106926041Y-150922765D02*
G01*
X107684573Y-150922765D01*
X107684573Y-150164232D01*
X106926041Y-150164232D01*
X106926041Y-150922765D01*
G37*
X106926041Y-150922765D02*
X107684573Y-150922765D01*
X107684573Y-150164232D01*
X106926041Y-150164232D01*
X106926041Y-150922765D01*
G36*
X105408976Y-147130103D02*
G01*
X106926041Y-147130103D01*
X106926041Y-146371570D01*
X106167508Y-146371570D01*
X106167508Y-145613038D01*
X105408976Y-145613038D01*
X105408976Y-147130103D01*
G37*
X105408976Y-147130103D02*
X106926041Y-147130103D01*
X106926041Y-146371570D01*
X106167508Y-146371570D01*
X106167508Y-145613038D01*
X105408976Y-145613038D01*
X105408976Y-147130103D01*
G36*
X109201638Y-144854505D02*
G01*
X109960170Y-144854505D01*
X109960170Y-144095973D01*
X109201638Y-144095973D01*
X109201638Y-144854505D01*
G37*
X109201638Y-144854505D02*
X109960170Y-144854505D01*
X109960170Y-144095973D01*
X109201638Y-144095973D01*
X109201638Y-144854505D01*
G36*
X122096689Y-150164232D02*
G01*
X121338157Y-150164232D01*
X121338157Y-150922765D01*
X122855222Y-150922765D01*
X122855222Y-149405700D01*
X122096689Y-149405700D01*
X122096689Y-150164232D01*
G37*
X122096689Y-150164232D02*
X121338157Y-150164232D01*
X121338157Y-150922765D01*
X122855222Y-150922765D01*
X122855222Y-149405700D01*
X122096689Y-149405700D01*
X122096689Y-150164232D01*
G36*
X123613754Y-146371570D02*
G01*
X122096689Y-146371570D01*
X122096689Y-147130103D01*
X122855222Y-147130103D01*
X122855222Y-147888635D01*
X123613754Y-147888635D01*
X123613754Y-148647168D01*
X124372286Y-148647168D01*
X124372286Y-149405700D01*
X125889351Y-149405700D01*
X125889351Y-148647168D01*
X125130819Y-148647168D01*
X125130819Y-147888635D01*
X124372286Y-147888635D01*
X124372286Y-145613038D01*
X123613754Y-145613038D01*
X123613754Y-146371570D01*
G37*
X123613754Y-146371570D02*
X122096689Y-146371570D01*
X122096689Y-147130103D01*
X122855222Y-147130103D01*
X122855222Y-147888635D01*
X123613754Y-147888635D01*
X123613754Y-148647168D01*
X124372286Y-148647168D01*
X124372286Y-149405700D01*
X125889351Y-149405700D01*
X125889351Y-148647168D01*
X125130819Y-148647168D01*
X125130819Y-147888635D01*
X124372286Y-147888635D01*
X124372286Y-145613038D01*
X123613754Y-145613038D01*
X123613754Y-146371570D01*
G36*
X122855222Y-149405700D02*
G01*
X123613754Y-149405700D01*
X123613754Y-148647168D01*
X122855222Y-148647168D01*
X122855222Y-149405700D01*
G37*
X122855222Y-149405700D02*
X123613754Y-149405700D01*
X123613754Y-148647168D01*
X122855222Y-148647168D01*
X122855222Y-149405700D01*
G36*
X122855222Y-145613038D02*
G01*
X123613754Y-145613038D01*
X123613754Y-144854505D01*
X122855222Y-144854505D01*
X122855222Y-145613038D01*
G37*
X122855222Y-145613038D02*
X123613754Y-145613038D01*
X123613754Y-144854505D01*
X122855222Y-144854505D01*
X122855222Y-145613038D01*
G36*
X121338157Y-144854505D02*
G01*
X122096689Y-144854505D01*
X122096689Y-144095973D01*
X121338157Y-144095973D01*
X121338157Y-144854505D01*
G37*
X121338157Y-144854505D02*
X122096689Y-144854505D01*
X122096689Y-144095973D01*
X121338157Y-144095973D01*
X121338157Y-144854505D01*
G36*
X117545495Y-139544778D02*
G01*
X118304027Y-139544778D01*
X118304027Y-138027714D01*
X117545495Y-138027714D01*
X117545495Y-139544778D01*
G37*
X117545495Y-139544778D02*
X118304027Y-139544778D01*
X118304027Y-138027714D01*
X117545495Y-138027714D01*
X117545495Y-139544778D01*
G36*
X116028430Y-138786246D02*
G01*
X116786962Y-138786246D01*
X116786962Y-138027714D01*
X116028430Y-138027714D01*
X116028430Y-138786246D01*
G37*
X116028430Y-138786246D02*
X116786962Y-138786246D01*
X116786962Y-138027714D01*
X116028430Y-138027714D01*
X116028430Y-138786246D01*
G36*
X119062559Y-138786246D02*
G01*
X119821092Y-138786246D01*
X119821092Y-138027714D01*
X119062559Y-138027714D01*
X119062559Y-138786246D01*
G37*
X119062559Y-138786246D02*
X119821092Y-138786246D01*
X119821092Y-138027714D01*
X119062559Y-138027714D01*
X119062559Y-138786246D01*
G36*
X118304027Y-138027714D02*
G01*
X119062559Y-138027714D01*
X119062559Y-137269181D01*
X118304027Y-137269181D01*
X118304027Y-138027714D01*
G37*
X118304027Y-138027714D02*
X119062559Y-138027714D01*
X119062559Y-137269181D01*
X118304027Y-137269181D01*
X118304027Y-138027714D01*
G36*
X114511365Y-140303311D02*
G01*
X114511365Y-141061843D01*
X113752832Y-141061843D01*
X113752832Y-141820376D01*
X114511365Y-141820376D01*
X114511365Y-142578908D01*
X116028430Y-142578908D01*
X116028430Y-144095973D01*
X116786962Y-144095973D01*
X116786962Y-143337441D01*
X118304027Y-143337441D01*
X118304027Y-141820376D01*
X117545495Y-141820376D01*
X117545495Y-142578908D01*
X116786962Y-142578908D01*
X116786962Y-141820376D01*
X117545495Y-141820376D01*
X117545495Y-141061843D01*
X118304027Y-141061843D01*
X118304027Y-140303311D01*
X117545495Y-140303311D01*
X117545495Y-141061843D01*
X116786962Y-141061843D01*
X116786962Y-141820376D01*
X116028430Y-141820376D01*
X116028430Y-141061843D01*
X116786962Y-141061843D01*
X116786962Y-140303311D01*
X116028430Y-140303311D01*
X116028430Y-141061843D01*
X115269897Y-141061843D01*
X115269897Y-140303311D01*
X116028430Y-140303311D01*
X116786962Y-140303311D01*
X117545495Y-140303311D01*
X117545495Y-139544778D01*
X116028430Y-139544778D01*
X116028430Y-138786246D01*
X115269897Y-138786246D01*
X115269897Y-140303311D01*
X114511365Y-140303311D01*
G37*
X114511365Y-140303311D02*
X114511365Y-141061843D01*
X113752832Y-141061843D01*
X113752832Y-141820376D01*
X114511365Y-141820376D01*
X114511365Y-142578908D01*
X116028430Y-142578908D01*
X116028430Y-144095973D01*
X116786962Y-144095973D01*
X116786962Y-143337441D01*
X118304027Y-143337441D01*
X118304027Y-141820376D01*
X117545495Y-141820376D01*
X117545495Y-142578908D01*
X116786962Y-142578908D01*
X116786962Y-141820376D01*
X117545495Y-141820376D01*
X117545495Y-141061843D01*
X118304027Y-141061843D01*
X118304027Y-140303311D01*
X117545495Y-140303311D01*
X117545495Y-141061843D01*
X116786962Y-141061843D01*
X116786962Y-141820376D01*
X116028430Y-141820376D01*
X116028430Y-141061843D01*
X116786962Y-141061843D01*
X116786962Y-140303311D01*
X116028430Y-140303311D01*
X116028430Y-141061843D01*
X115269897Y-141061843D01*
X115269897Y-140303311D01*
X116028430Y-140303311D01*
X116786962Y-140303311D01*
X117545495Y-140303311D01*
X117545495Y-139544778D01*
X116028430Y-139544778D01*
X116028430Y-138786246D01*
X115269897Y-138786246D01*
X115269897Y-140303311D01*
X114511365Y-140303311D01*
G36*
X114511365Y-144095973D02*
G01*
X115269897Y-144095973D01*
X115269897Y-143337441D01*
X114511365Y-143337441D01*
X114511365Y-144095973D01*
G37*
X114511365Y-144095973D02*
X115269897Y-144095973D01*
X115269897Y-143337441D01*
X114511365Y-143337441D01*
X114511365Y-144095973D01*
G36*
X111477235Y-138027714D02*
G01*
X112235768Y-138027714D01*
X112235768Y-138786246D01*
X112994300Y-138786246D01*
X112994300Y-138027714D01*
X113752832Y-138027714D01*
X113752832Y-137269181D01*
X111477235Y-137269181D01*
X111477235Y-138027714D01*
G37*
X111477235Y-138027714D02*
X112235768Y-138027714D01*
X112235768Y-138786246D01*
X112994300Y-138786246D01*
X112994300Y-138027714D01*
X113752832Y-138027714D01*
X113752832Y-137269181D01*
X111477235Y-137269181D01*
X111477235Y-138027714D01*
G36*
X122118361Y-140281639D02*
G01*
X125867679Y-140281639D01*
X125867679Y-137269181D01*
X125130819Y-137269181D01*
X125130819Y-139544778D01*
X122855222Y-139544778D01*
X122855222Y-137269181D01*
X125130819Y-137269181D01*
X125867679Y-137269181D01*
X125867679Y-136532321D01*
X122118361Y-136532321D01*
X122118361Y-140281639D01*
G37*
X122118361Y-140281639D02*
X125867679Y-140281639D01*
X125867679Y-137269181D01*
X125130819Y-137269181D01*
X125130819Y-139544778D01*
X122855222Y-139544778D01*
X122855222Y-137269181D01*
X125130819Y-137269181D01*
X125867679Y-137269181D01*
X125867679Y-136532321D01*
X122118361Y-136532321D01*
X122118361Y-140281639D01*
G36*
X105430648Y-140281639D02*
G01*
X109179966Y-140281639D01*
X109179966Y-137269181D01*
X108443105Y-137269181D01*
X108443105Y-139544778D01*
X106167508Y-139544778D01*
X106167508Y-137269181D01*
X108443105Y-137269181D01*
X109179966Y-137269181D01*
X109179966Y-136532321D01*
X105430648Y-136532321D01*
X105430648Y-140281639D01*
G37*
X105430648Y-140281639D02*
X109179966Y-140281639D01*
X109179966Y-137269181D01*
X108443105Y-137269181D01*
X108443105Y-139544778D01*
X106167508Y-139544778D01*
X106167508Y-137269181D01*
X108443105Y-137269181D01*
X109179966Y-137269181D01*
X109179966Y-136532321D01*
X105430648Y-136532321D01*
X105430648Y-140281639D01*
G36*
X128249388Y-54808989D02*
G01*
X127782840Y-55162555D01*
X127053780Y-55866435D01*
X126034256Y-56946745D01*
X125315683Y-57737369D01*
X124470867Y-58671404D01*
X123398183Y-59850981D01*
X122232171Y-61128450D01*
X121107375Y-62356160D01*
X121052127Y-62416316D01*
X120015117Y-63547894D01*
X119008951Y-64650396D01*
X118137849Y-65609329D01*
X117506030Y-66310204D01*
X117425415Y-66400504D01*
X116377369Y-67577323D01*
X116243685Y-63192083D01*
X116110000Y-58806842D01*
X114505790Y-58806842D01*
X114372106Y-65280896D01*
X114238421Y-71754950D01*
X112901579Y-73162636D01*
X112220361Y-73864911D01*
X111675424Y-74399101D01*
X111375808Y-74658642D01*
X111364211Y-74665074D01*
X111162843Y-74945562D01*
X111349690Y-75208487D01*
X111549576Y-75250000D01*
X111987781Y-75049434D01*
X112319726Y-74701395D01*
X112695334Y-74230242D01*
X113307152Y-73527230D01*
X114005940Y-72762684D01*
X114662763Y-72056129D01*
X115574348Y-71068376D01*
X116635539Y-69913702D01*
X117741180Y-68706387D01*
X118114091Y-68298132D01*
X119206328Y-67104985D01*
X120286651Y-65931003D01*
X121251353Y-64888477D01*
X121996728Y-64089698D01*
X122188164Y-63886842D01*
X123456041Y-62550000D01*
X123459336Y-67045361D01*
X123462632Y-71540723D01*
X124331579Y-71456940D01*
X125200527Y-71373158D01*
X125272275Y-64994883D01*
X125344022Y-58616608D01*
X126984905Y-56770321D01*
X127684841Y-55951960D01*
X128203027Y-55286251D01*
X128468017Y-54868239D01*
X128481376Y-54779622D01*
X128249388Y-54808989D01*
G37*
X128249388Y-54808989D02*
X127782840Y-55162555D01*
X127053780Y-55866435D01*
X126034256Y-56946745D01*
X125315683Y-57737369D01*
X124470867Y-58671404D01*
X123398183Y-59850981D01*
X122232171Y-61128450D01*
X121107375Y-62356160D01*
X121052127Y-62416316D01*
X120015117Y-63547894D01*
X119008951Y-64650396D01*
X118137849Y-65609329D01*
X117506030Y-66310204D01*
X117425415Y-66400504D01*
X116377369Y-67577323D01*
X116243685Y-63192083D01*
X116110000Y-58806842D01*
X114505790Y-58806842D01*
X114372106Y-65280896D01*
X114238421Y-71754950D01*
X112901579Y-73162636D01*
X112220361Y-73864911D01*
X111675424Y-74399101D01*
X111375808Y-74658642D01*
X111364211Y-74665074D01*
X111162843Y-74945562D01*
X111349690Y-75208487D01*
X111549576Y-75250000D01*
X111987781Y-75049434D01*
X112319726Y-74701395D01*
X112695334Y-74230242D01*
X113307152Y-73527230D01*
X114005940Y-72762684D01*
X114662763Y-72056129D01*
X115574348Y-71068376D01*
X116635539Y-69913702D01*
X117741180Y-68706387D01*
X118114091Y-68298132D01*
X119206328Y-67104985D01*
X120286651Y-65931003D01*
X121251353Y-64888477D01*
X121996728Y-64089698D01*
X122188164Y-63886842D01*
X123456041Y-62550000D01*
X123459336Y-67045361D01*
X123462632Y-71540723D01*
X124331579Y-71456940D01*
X125200527Y-71373158D01*
X125272275Y-64994883D01*
X125344022Y-58616608D01*
X126984905Y-56770321D01*
X127684841Y-55951960D01*
X128203027Y-55286251D01*
X128468017Y-54868239D01*
X128481376Y-54779622D01*
X128249388Y-54808989D01*
G36*
X138712952Y-58775207D02*
G01*
X137672448Y-59042617D01*
X136833796Y-59417286D01*
X136393240Y-59802112D01*
X136442491Y-60158376D01*
X136763969Y-60596483D01*
X137156925Y-60932645D01*
X137514000Y-60970918D01*
X138073570Y-60727055D01*
X138149337Y-60688018D01*
X139247453Y-60341525D01*
X140305567Y-60393829D01*
X141173740Y-60825541D01*
X141444813Y-61114186D01*
X141797478Y-61727494D01*
X141827071Y-62260484D01*
X141490088Y-62769450D01*
X140743026Y-63310682D01*
X139542380Y-63940473D01*
X139098881Y-64149691D01*
X137699976Y-64854786D01*
X136741454Y-65500685D01*
X136148754Y-66172340D01*
X135847316Y-66954702D01*
X135762580Y-67932721D01*
X135762579Y-67950933D01*
X136006164Y-69221964D01*
X136673287Y-70291429D01*
X137672491Y-71101718D01*
X138912316Y-71595219D01*
X140301306Y-71714324D01*
X141418390Y-71513608D01*
X142441448Y-71092158D01*
X143358157Y-70521912D01*
X143969752Y-69928690D01*
X144004012Y-69876915D01*
X144152933Y-69472870D01*
X143923476Y-69138836D01*
X143637881Y-68935005D01*
X143126820Y-68653231D01*
X142763726Y-68713754D01*
X142369005Y-69045452D01*
X141348626Y-69751798D01*
X140293777Y-70070409D01*
X139301413Y-70028791D01*
X138468492Y-69654446D01*
X137891972Y-68974880D01*
X137668808Y-68017596D01*
X137681649Y-67715765D01*
X137752196Y-67298738D01*
X137931374Y-66965510D01*
X138309696Y-66642047D01*
X138977678Y-66254313D01*
X140025835Y-65728275D01*
X140238133Y-65624737D01*
X141613513Y-64912519D01*
X142558579Y-64299088D01*
X143148740Y-63709485D01*
X143459403Y-63068751D01*
X143565423Y-62317312D01*
X143394327Y-60935881D01*
X142793833Y-59848980D01*
X141804091Y-59095271D01*
X140465248Y-58713414D01*
X139780954Y-58673158D01*
X138712952Y-58775207D01*
G37*
X138712952Y-58775207D02*
X137672448Y-59042617D01*
X136833796Y-59417286D01*
X136393240Y-59802112D01*
X136442491Y-60158376D01*
X136763969Y-60596483D01*
X137156925Y-60932645D01*
X137514000Y-60970918D01*
X138073570Y-60727055D01*
X138149337Y-60688018D01*
X139247453Y-60341525D01*
X140305567Y-60393829D01*
X141173740Y-60825541D01*
X141444813Y-61114186D01*
X141797478Y-61727494D01*
X141827071Y-62260484D01*
X141490088Y-62769450D01*
X140743026Y-63310682D01*
X139542380Y-63940473D01*
X139098881Y-64149691D01*
X137699976Y-64854786D01*
X136741454Y-65500685D01*
X136148754Y-66172340D01*
X135847316Y-66954702D01*
X135762580Y-67932721D01*
X135762579Y-67950933D01*
X136006164Y-69221964D01*
X136673287Y-70291429D01*
X137672491Y-71101718D01*
X138912316Y-71595219D01*
X140301306Y-71714324D01*
X141418390Y-71513608D01*
X142441448Y-71092158D01*
X143358157Y-70521912D01*
X143969752Y-69928690D01*
X144004012Y-69876915D01*
X144152933Y-69472870D01*
X143923476Y-69138836D01*
X143637881Y-68935005D01*
X143126820Y-68653231D01*
X142763726Y-68713754D01*
X142369005Y-69045452D01*
X141348626Y-69751798D01*
X140293777Y-70070409D01*
X139301413Y-70028791D01*
X138468492Y-69654446D01*
X137891972Y-68974880D01*
X137668808Y-68017596D01*
X137681649Y-67715765D01*
X137752196Y-67298738D01*
X137931374Y-66965510D01*
X138309696Y-66642047D01*
X138977678Y-66254313D01*
X140025835Y-65728275D01*
X140238133Y-65624737D01*
X141613513Y-64912519D01*
X142558579Y-64299088D01*
X143148740Y-63709485D01*
X143459403Y-63068751D01*
X143565423Y-62317312D01*
X143394327Y-60935881D01*
X142793833Y-59848980D01*
X141804091Y-59095271D01*
X140465248Y-58713414D01*
X139780954Y-58673158D01*
X138712952Y-58775207D01*
G36*
X107921635Y-58681436D02*
G01*
X106680237Y-59060201D01*
X106417895Y-59204965D01*
X105786303Y-59643788D01*
X105586610Y-60010365D01*
X105767484Y-60461427D01*
X105930149Y-60694161D01*
X106219988Y-61024290D01*
X106519018Y-61051625D01*
X107039294Y-60785369D01*
X107107717Y-60745264D01*
X108131333Y-60352538D01*
X109141215Y-60312740D01*
X110018072Y-60587188D01*
X110642616Y-61137197D01*
X110895556Y-61924085D01*
X110896316Y-61973825D01*
X110776597Y-62534928D01*
X110367694Y-63031249D01*
X109594987Y-63523333D01*
X108383857Y-64071726D01*
X108237186Y-64131416D01*
X106847145Y-64778853D01*
X105892732Y-65450258D01*
X105277913Y-66226842D01*
X105000930Y-66868137D01*
X104828678Y-68128764D01*
X105115540Y-69286907D01*
X105787640Y-70283281D01*
X106771102Y-71058601D01*
X107992051Y-71553581D01*
X109376610Y-71708936D01*
X110762632Y-71491924D01*
X111477034Y-71167124D01*
X112278790Y-70642925D01*
X112500527Y-70465827D01*
X113436316Y-69673789D01*
X112860724Y-69086361D01*
X112285133Y-68498934D01*
X111381238Y-69188367D01*
X110495833Y-69692337D01*
X109501958Y-70029850D01*
X109361718Y-70056197D01*
X108598398Y-70126498D01*
X108068827Y-69967580D01*
X107502208Y-69490262D01*
X107432256Y-69420758D01*
X106805084Y-68549875D01*
X106638944Y-67704131D01*
X106944191Y-66971172D01*
X107121747Y-66792753D01*
X107603591Y-66482474D01*
X108419577Y-66054372D01*
X109408490Y-65592033D01*
X109593968Y-65510957D01*
X111152177Y-64668826D01*
X112192906Y-63714843D01*
X112713909Y-62653068D01*
X112712940Y-61487565D01*
X112353862Y-60519636D01*
X111608327Y-59619668D01*
X110526938Y-58992455D01*
X109250954Y-58669282D01*
X107921635Y-58681436D01*
G37*
X107921635Y-58681436D02*
X106680237Y-59060201D01*
X106417895Y-59204965D01*
X105786303Y-59643788D01*
X105586610Y-60010365D01*
X105767484Y-60461427D01*
X105930149Y-60694161D01*
X106219988Y-61024290D01*
X106519018Y-61051625D01*
X107039294Y-60785369D01*
X107107717Y-60745264D01*
X108131333Y-60352538D01*
X109141215Y-60312740D01*
X110018072Y-60587188D01*
X110642616Y-61137197D01*
X110895556Y-61924085D01*
X110896316Y-61973825D01*
X110776597Y-62534928D01*
X110367694Y-63031249D01*
X109594987Y-63523333D01*
X108383857Y-64071726D01*
X108237186Y-64131416D01*
X106847145Y-64778853D01*
X105892732Y-65450258D01*
X105277913Y-66226842D01*
X105000930Y-66868137D01*
X104828678Y-68128764D01*
X105115540Y-69286907D01*
X105787640Y-70283281D01*
X106771102Y-71058601D01*
X107992051Y-71553581D01*
X109376610Y-71708936D01*
X110762632Y-71491924D01*
X111477034Y-71167124D01*
X112278790Y-70642925D01*
X112500527Y-70465827D01*
X113436316Y-69673789D01*
X112860724Y-69086361D01*
X112285133Y-68498934D01*
X111381238Y-69188367D01*
X110495833Y-69692337D01*
X109501958Y-70029850D01*
X109361718Y-70056197D01*
X108598398Y-70126498D01*
X108068827Y-69967580D01*
X107502208Y-69490262D01*
X107432256Y-69420758D01*
X106805084Y-68549875D01*
X106638944Y-67704131D01*
X106944191Y-66971172D01*
X107121747Y-66792753D01*
X107603591Y-66482474D01*
X108419577Y-66054372D01*
X109408490Y-65592033D01*
X109593968Y-65510957D01*
X111152177Y-64668826D01*
X112192906Y-63714843D01*
X112713909Y-62653068D01*
X112712940Y-61487565D01*
X112353862Y-60519636D01*
X111608327Y-59619668D01*
X110526938Y-58992455D01*
X109250954Y-58669282D01*
X107921635Y-58681436D01*
G36*
X131230850Y-69947305D02*
G01*
X130393720Y-69961850D01*
X126537369Y-70036316D01*
X126537369Y-71373158D01*
X130614737Y-71446964D01*
X132175076Y-71470790D01*
X133278848Y-71471459D01*
X134003996Y-71441296D01*
X134428467Y-71372627D01*
X134630204Y-71257776D01*
X134687154Y-71089071D01*
X134688012Y-71045912D01*
X134652230Y-70609974D01*
X134502501Y-70300975D01*
X134162161Y-70099561D01*
X133554548Y-69986380D01*
X132602998Y-69942079D01*
X131230850Y-69947305D01*
G37*
X131230850Y-69947305D02*
X130393720Y-69961850D01*
X126537369Y-70036316D01*
X126537369Y-71373158D01*
X130614737Y-71446964D01*
X132175076Y-71470790D01*
X133278848Y-71471459D01*
X134003996Y-71441296D01*
X134428467Y-71372627D01*
X134630204Y-71257776D01*
X134687154Y-71089071D01*
X134688012Y-71045912D01*
X134652230Y-70609974D01*
X134502501Y-70300975D01*
X134162161Y-70099561D01*
X133554548Y-69986380D01*
X132602998Y-69942079D01*
X131230850Y-69947305D01*
G36*
X98554082Y-58638869D02*
G01*
X98220408Y-59285797D01*
X97747720Y-60268107D01*
X97170878Y-61507333D01*
X96524743Y-62925010D01*
X95844175Y-64442673D01*
X95164035Y-65981854D01*
X94519184Y-67464089D01*
X93944482Y-68810912D01*
X93474789Y-69943857D01*
X93144966Y-70784457D01*
X92989875Y-71254248D01*
X92982473Y-71306316D01*
X93217277Y-71440644D01*
X93791992Y-71505708D01*
X93888328Y-71506842D01*
X94794025Y-71506842D01*
X96459929Y-67563158D01*
X97046671Y-66170333D01*
X97574860Y-64909368D01*
X98002386Y-63881340D01*
X98287136Y-63187324D01*
X98369082Y-62980814D01*
X98589374Y-62548410D01*
X98734614Y-62464439D01*
X98873125Y-62738853D01*
X99182430Y-63425421D01*
X99627017Y-64442960D01*
X100171372Y-65710288D01*
X100709897Y-66979940D01*
X102562896Y-71373158D01*
X103556798Y-71458263D01*
X104195736Y-71480357D01*
X104424930Y-71356812D01*
X104372371Y-71057211D01*
X104014175Y-70131866D01*
X103521254Y-68930278D01*
X102928092Y-67529543D01*
X102269170Y-66006759D01*
X101578972Y-64439022D01*
X100891979Y-62903431D01*
X100242675Y-61477082D01*
X99665542Y-60237072D01*
X99195062Y-59260499D01*
X98865718Y-58624460D01*
X98713882Y-58405790D01*
X98554082Y-58638869D01*
G37*
X98554082Y-58638869D02*
X98220408Y-59285797D01*
X97747720Y-60268107D01*
X97170878Y-61507333D01*
X96524743Y-62925010D01*
X95844175Y-64442673D01*
X95164035Y-65981854D01*
X94519184Y-67464089D01*
X93944482Y-68810912D01*
X93474789Y-69943857D01*
X93144966Y-70784457D01*
X92989875Y-71254248D01*
X92982473Y-71306316D01*
X93217277Y-71440644D01*
X93791992Y-71505708D01*
X93888328Y-71506842D01*
X94794025Y-71506842D01*
X96459929Y-67563158D01*
X97046671Y-66170333D01*
X97574860Y-64909368D01*
X98002386Y-63881340D01*
X98287136Y-63187324D01*
X98369082Y-62980814D01*
X98589374Y-62548410D01*
X98734614Y-62464439D01*
X98873125Y-62738853D01*
X99182430Y-63425421D01*
X99627017Y-64442960D01*
X100171372Y-65710288D01*
X100709897Y-66979940D01*
X102562896Y-71373158D01*
X103556798Y-71458263D01*
X104195736Y-71480357D01*
X104424930Y-71356812D01*
X104372371Y-71057211D01*
X104014175Y-70131866D01*
X103521254Y-68930278D01*
X102928092Y-67529543D01*
X102269170Y-66006759D01*
X101578972Y-64439022D01*
X100891979Y-62903431D01*
X100242675Y-61477082D01*
X99665542Y-60237072D01*
X99195062Y-59260499D01*
X98865718Y-58624460D01*
X98713882Y-58405790D01*
X98554082Y-58638869D01*
G36*
X130526685Y-64346895D02*
G01*
X126804737Y-64421579D01*
X126804737Y-65758421D01*
X130467655Y-65832721D01*
X131934363Y-65858280D01*
X132957097Y-65857669D01*
X133626415Y-65819557D01*
X134032874Y-65732611D01*
X134267031Y-65585499D01*
X134419444Y-65366889D01*
X134436108Y-65336122D01*
X134592721Y-64765282D01*
X134495138Y-64518717D01*
X134150859Y-64434411D01*
X133376674Y-64373496D01*
X132277078Y-64340496D01*
X130956568Y-64339936D01*
X130526685Y-64346895D01*
G37*
X130526685Y-64346895D02*
X126804737Y-64421579D01*
X126804737Y-65758421D01*
X130467655Y-65832721D01*
X131934363Y-65858280D01*
X132957097Y-65857669D01*
X133626415Y-65819557D01*
X134032874Y-65732611D01*
X134267031Y-65585499D01*
X134419444Y-65366889D01*
X134436108Y-65336122D01*
X134592721Y-64765282D01*
X134495138Y-64518717D01*
X134150859Y-64434411D01*
X133376674Y-64373496D01*
X132277078Y-64340496D01*
X130956568Y-64339936D01*
X130526685Y-64346895D01*
G36*
X131262981Y-58719322D02*
G01*
X130449774Y-58733032D01*
X126537369Y-58806842D01*
X126452767Y-59542106D01*
X126368166Y-60277369D01*
X130367846Y-60277369D01*
X131953905Y-60268989D01*
X133081955Y-60238924D01*
X133828535Y-60179782D01*
X134270183Y-60084174D01*
X134483436Y-59944709D01*
X134521425Y-59876316D01*
X134569910Y-59273953D01*
X134518751Y-59067242D01*
X134383481Y-58906719D01*
X134069597Y-58798181D01*
X133497772Y-58735113D01*
X132588676Y-58710999D01*
X131262981Y-58719322D01*
G37*
X131262981Y-58719322D02*
X130449774Y-58733032D01*
X126537369Y-58806842D01*
X126452767Y-59542106D01*
X126368166Y-60277369D01*
X130367846Y-60277369D01*
X131953905Y-60268989D01*
X133081955Y-60238924D01*
X133828535Y-60179782D01*
X134270183Y-60084174D01*
X134483436Y-59944709D01*
X134521425Y-59876316D01*
X134569910Y-59273953D01*
X134518751Y-59067242D01*
X134383481Y-58906719D01*
X134069597Y-58798181D01*
X133497772Y-58735113D01*
X132588676Y-58710999D01*
X131262981Y-58719322D01*
%TD*%
M02*
