%TF.GenerationSoftware,KiCad,Pcbnew,(5.1.9)-1*%
%TF.CreationDate,2021-11-07T02:37:45+01:00*%
%TF.ProjectId,SwitchBox,53776974-6368-4426-9f78-2e6b69636164,rev?*%
%TF.SameCoordinates,Original*%
%TF.FileFunction,Legend,Top*%
%TF.FilePolarity,Positive*%
%FSLAX46Y46*%
G04 Gerber Fmt 4.6, Leading zero omitted, Abs format (unit mm)*
G04 Created by KiCad (PCBNEW (5.1.9)-1) date 2021-11-07 02:37:45*
%MOMM*%
%LPD*%
G01*
G04 APERTURE LIST*
%ADD10C,0.120000*%
%ADD11C,0.150000*%
%ADD12C,0.200000*%
G04 APERTURE END LIST*
D10*
X99610000Y-59650000D02*
X99610000Y-44650000D01*
X111350000Y-183430000D02*
X111350000Y-168430000D01*
X140820000Y-193790000D02*
X140820000Y-208790000D01*
X137090000Y-181970000D02*
X140820000Y-193790000D01*
X111350000Y-193790000D02*
X111350000Y-208790000D01*
X111350000Y-183430000D02*
X106350000Y-183430000D01*
X140820000Y-183430000D02*
X140820000Y-168430000D01*
X140820000Y-183430000D02*
X135820000Y-183430000D01*
X132080000Y-152160000D02*
X128350000Y-140340000D01*
X99610000Y-142160000D02*
X99610000Y-127160000D01*
X132080000Y-152160000D02*
X132080000Y-167160000D01*
X132080000Y-142160000D02*
X132080000Y-127160000D01*
X132080000Y-142160000D02*
X127080000Y-142160000D01*
X99610000Y-152160000D02*
X99610000Y-167160000D01*
X99610000Y-142160000D02*
X94610000Y-142160000D01*
X137090000Y-99090000D02*
X140820000Y-110910000D01*
X111350000Y-100550000D02*
X111350000Y-85550000D01*
X140820000Y-110910000D02*
X140820000Y-125910000D01*
X140820000Y-100550000D02*
X140820000Y-85550000D01*
X140820000Y-100550000D02*
X135820000Y-100550000D01*
X111350000Y-110910000D02*
X111350000Y-125910000D01*
X111350000Y-100550000D02*
X106350000Y-100550000D01*
X132080000Y-69650000D02*
X128350000Y-57830000D01*
X132080000Y-59650000D02*
X132080000Y-44650000D01*
X132080000Y-69650000D02*
X132080000Y-84650000D01*
X132080000Y-59650000D02*
X127080000Y-59650000D01*
X99610000Y-59650000D02*
X94610000Y-59650000D01*
X99610000Y-69650000D02*
X99610000Y-84650000D01*
X130460000Y-188420000D02*
X131460000Y-188420000D01*
X138460000Y-188420000D02*
X139460000Y-188420000D01*
X106460000Y-188420000D02*
X107460000Y-188420000D01*
X134460000Y-188420000D02*
X135460000Y-188420000D01*
X99460000Y-188420000D02*
X98460000Y-188420000D01*
X103460000Y-188420000D02*
X102460000Y-188420000D01*
X108460000Y-188420000D02*
X109460000Y-188420000D01*
X136460000Y-188420000D02*
X137460000Y-188420000D01*
X110460000Y-188420000D02*
X111460000Y-188420000D01*
X122460000Y-188420000D02*
X123460000Y-188420000D01*
X126460000Y-188420000D02*
X127460000Y-188420000D01*
X134320000Y-188420000D02*
X135320000Y-188420000D01*
X142460000Y-188420000D02*
X143460000Y-188420000D01*
X120460000Y-188420000D02*
X121460000Y-188420000D01*
X112460000Y-188420000D02*
X113460000Y-188420000D01*
X114460000Y-188420000D02*
X115460000Y-188420000D01*
X101460000Y-188420000D02*
X100460000Y-188420000D01*
X118460000Y-188420000D02*
X119460000Y-188420000D01*
X116460000Y-188420000D02*
X117460000Y-188420000D01*
X128460000Y-188420000D02*
X129460000Y-188420000D01*
X104460000Y-188420000D02*
X105460000Y-188420000D01*
X97460000Y-188420000D02*
X96460000Y-188420000D01*
X124460000Y-188420000D02*
X125460000Y-188420000D01*
X144460000Y-188420000D02*
X145460000Y-188420000D01*
X132460000Y-188420000D02*
X133460000Y-188420000D01*
X72370000Y-147163332D02*
X71370000Y-147163332D01*
X70370000Y-147163332D02*
X69370000Y-147163332D01*
X137370000Y-147163332D02*
X138370000Y-147163332D01*
X149370000Y-147163332D02*
X150370000Y-147163332D01*
X139370000Y-147163332D02*
X140370000Y-147163332D01*
X117370000Y-147163332D02*
X118370000Y-147163332D01*
X121370000Y-147163332D02*
X122370000Y-147163332D01*
X119370000Y-147163332D02*
X120370000Y-147163332D01*
X103370000Y-147163332D02*
X104370000Y-147163332D01*
X133370000Y-147163332D02*
X134370000Y-147163332D01*
X129370000Y-147163332D02*
X130370000Y-147163332D01*
X147370000Y-147163332D02*
X148370000Y-147163332D01*
X143370000Y-147163332D02*
X144370000Y-147163332D01*
X105370000Y-147163332D02*
X106370000Y-147163332D01*
X125370000Y-147163332D02*
X126370000Y-147163332D01*
X111370000Y-147163332D02*
X112370000Y-147163332D01*
X141370000Y-147163332D02*
X142370000Y-147163332D01*
X115370000Y-147163332D02*
X116370000Y-147163332D01*
X131370000Y-147163332D02*
X132370000Y-147163332D01*
X68370000Y-147163332D02*
X67370000Y-147163332D01*
X145370000Y-147163332D02*
X146370000Y-147163332D01*
X123370000Y-147163332D02*
X124370000Y-147163332D01*
X109370000Y-147163332D02*
X110370000Y-147163332D01*
X135370000Y-147163332D02*
X136370000Y-147163332D01*
X127370000Y-147163332D02*
X128370000Y-147163332D01*
X97370000Y-147163332D02*
X98370000Y-147163332D01*
X66370000Y-147163332D02*
X65370000Y-147163332D01*
X113370000Y-147163332D02*
X114370000Y-147163332D01*
X107370000Y-147163332D02*
X108370000Y-147163332D01*
X81370000Y-147163332D02*
X82370000Y-147163332D01*
X87370000Y-147163332D02*
X88370000Y-147163332D01*
X73370000Y-147163332D02*
X74370000Y-147163332D01*
X85370000Y-147163332D02*
X86370000Y-147163332D01*
X91370000Y-147163332D02*
X92370000Y-147163332D01*
X89370000Y-147163332D02*
X90370000Y-147163332D01*
X93370000Y-147163332D02*
X94370000Y-147163332D01*
X79370000Y-147163332D02*
X80370000Y-147163332D01*
X75370000Y-147163332D02*
X76370000Y-147163332D01*
X101370000Y-147163332D02*
X102370000Y-147163332D01*
X95370000Y-147163332D02*
X96370000Y-147163332D01*
X77370000Y-147163332D02*
X78370000Y-147163332D01*
X83370000Y-147163332D02*
X84370000Y-147163332D01*
X99370000Y-147163332D02*
X100370000Y-147163332D01*
X104340000Y-105906666D02*
X103340000Y-105906666D01*
X102340000Y-105906666D02*
X101340000Y-105906666D01*
X135340000Y-105906666D02*
X136340000Y-105906666D01*
X137340000Y-105906666D02*
X138340000Y-105906666D01*
X143340000Y-105906666D02*
X144340000Y-105906666D01*
X100340000Y-105906666D02*
X99340000Y-105906666D01*
X141340000Y-105906666D02*
X142340000Y-105906666D01*
X129340000Y-105906666D02*
X130340000Y-105906666D01*
X98340000Y-105906666D02*
X97340000Y-105906666D01*
X145340000Y-105906666D02*
X146340000Y-105906666D01*
X139340000Y-105906666D02*
X140340000Y-105906666D01*
X113340000Y-105906666D02*
X114340000Y-105906666D01*
X119340000Y-105906666D02*
X120340000Y-105906666D01*
X105340000Y-105906666D02*
X106340000Y-105906666D01*
X117340000Y-105906666D02*
X118340000Y-105906666D01*
X123340000Y-105906666D02*
X124340000Y-105906666D01*
X121340000Y-105906666D02*
X122340000Y-105906666D01*
X125340000Y-105906666D02*
X126340000Y-105906666D01*
X111340000Y-105906666D02*
X112340000Y-105906666D01*
X107340000Y-105906666D02*
X108340000Y-105906666D01*
X133340000Y-105906666D02*
X134340000Y-105906666D01*
X127340000Y-105906666D02*
X128340000Y-105906666D01*
X109340000Y-105906666D02*
X110340000Y-105906666D01*
X115340000Y-105906666D02*
X116340000Y-105906666D01*
X131340000Y-105906666D02*
X132340000Y-105906666D01*
X72330000Y-64650000D02*
X71330000Y-64650000D01*
X66330000Y-64650000D02*
X65330000Y-64650000D01*
X70330000Y-64650000D02*
X69330000Y-64650000D01*
X68330000Y-64650000D02*
X67330000Y-64650000D01*
X137330000Y-64650000D02*
X138330000Y-64650000D01*
X149330000Y-64650000D02*
X150330000Y-64650000D01*
X145330000Y-64650000D02*
X146330000Y-64650000D01*
X141330000Y-64650000D02*
X142330000Y-64650000D01*
X147330000Y-64650000D02*
X148330000Y-64650000D01*
X139330000Y-64650000D02*
X140330000Y-64650000D01*
X143330000Y-64650000D02*
X144330000Y-64650000D01*
X129330000Y-64650000D02*
X130330000Y-64650000D01*
X113330000Y-64650000D02*
X114330000Y-64650000D01*
X119330000Y-64650000D02*
X120330000Y-64650000D01*
X105330000Y-64650000D02*
X106330000Y-64650000D01*
X103330000Y-64650000D02*
X104330000Y-64650000D01*
X117330000Y-64650000D02*
X118330000Y-64650000D01*
X135330000Y-64650000D02*
X136330000Y-64650000D01*
X123330000Y-64650000D02*
X124330000Y-64650000D01*
X121330000Y-64650000D02*
X122330000Y-64650000D01*
X125330000Y-64650000D02*
X126330000Y-64650000D01*
X111330000Y-64650000D02*
X112330000Y-64650000D01*
X107330000Y-64650000D02*
X108330000Y-64650000D01*
X133330000Y-64650000D02*
X134330000Y-64650000D01*
X127330000Y-64650000D02*
X128330000Y-64650000D01*
X109330000Y-64650000D02*
X110330000Y-64650000D01*
X115330000Y-64650000D02*
X116330000Y-64650000D01*
X131330000Y-64650000D02*
X132330000Y-64650000D01*
X87330000Y-64650000D02*
X88330000Y-64650000D01*
X97330000Y-64650000D02*
X98330000Y-64650000D01*
X89330000Y-64650000D02*
X90330000Y-64650000D01*
X101330000Y-64650000D02*
X102330000Y-64650000D01*
X95330000Y-64650000D02*
X96330000Y-64650000D01*
X91330000Y-64650000D02*
X92330000Y-64650000D01*
X93330000Y-64650000D02*
X94330000Y-64650000D01*
X99330000Y-64650000D02*
X100330000Y-64650000D01*
X81330000Y-64650000D02*
X82330000Y-64650000D01*
X79330000Y-64650000D02*
X80330000Y-64650000D01*
X83330000Y-64650000D02*
X84330000Y-64650000D01*
X85330000Y-64650000D02*
X86330000Y-64650000D01*
X77330000Y-64650000D02*
X78330000Y-64650000D01*
X75330000Y-64650000D02*
X76330000Y-64650000D01*
X73330000Y-64650000D02*
X74330000Y-64650000D01*
%TO.C,D4*%
X174250000Y-188420000D02*
G75*
G03*
X174250000Y-188420000I-15000000J0D01*
G01*
%TO.C,D3*%
X174230000Y-147163332D02*
G75*
G03*
X174230000Y-147163332I-15000000J0D01*
G01*
%TO.C,D2*%
X174190000Y-105906666D02*
G75*
G03*
X174190000Y-105906666I-15000000J0D01*
G01*
%TO.C,D1*%
X174190000Y-64650000D02*
G75*
G03*
X174190000Y-64650000I-15000000J0D01*
G01*
%TO.C,C1*%
X140820000Y-53528748D02*
X140820000Y-54951252D01*
X142640000Y-53528748D02*
X142640000Y-54951252D01*
%TO.C,C2*%
X125020000Y-98788748D02*
X125020000Y-100211252D01*
X123200000Y-98788748D02*
X123200000Y-100211252D01*
%TO.C,C3*%
X140820000Y-135998748D02*
X140820000Y-137421252D01*
X142640000Y-135998748D02*
X142640000Y-137421252D01*
%TO.C,C4*%
X128580000Y-178148748D02*
X128580000Y-179571252D01*
X126760000Y-178148748D02*
X126760000Y-179571252D01*
%TO.C,C5*%
X140820000Y-46298748D02*
X140820000Y-47721252D01*
X142640000Y-46298748D02*
X142640000Y-47721252D01*
%TO.C,C6*%
X123200000Y-91558748D02*
X123200000Y-92981252D01*
X125020000Y-91558748D02*
X125020000Y-92981252D01*
%TO.C,C7*%
X142640000Y-128768748D02*
X142640000Y-130191252D01*
X140820000Y-128768748D02*
X140820000Y-130191252D01*
%TO.C,C8*%
X128580000Y-170578748D02*
X128580000Y-172001252D01*
X126760000Y-170578748D02*
X126760000Y-172001252D01*
%TO.C,F1*%
X65920000Y-45416248D02*
X65920000Y-49823752D01*
X71260000Y-45416248D02*
X71260000Y-49823752D01*
%TO.C,F2*%
X101670000Y-199303752D02*
X101670000Y-194896248D01*
X96330000Y-199303752D02*
X96330000Y-194896248D01*
%TO.C,F3*%
X81530000Y-132473748D02*
X81530000Y-136881252D01*
X86870000Y-132473748D02*
X86870000Y-136881252D01*
%TO.C,F4*%
X40150000Y-121283752D02*
X40150000Y-116876248D01*
X45490000Y-121283752D02*
X45490000Y-116876248D01*
%TO.C,F5*%
X71260000Y-56046248D02*
X71260000Y-60453752D01*
X65920000Y-56046248D02*
X65920000Y-60453752D01*
%TO.C,F6*%
X62670000Y-199303752D02*
X62670000Y-194896248D01*
X57330000Y-199303752D02*
X57330000Y-194896248D01*
%TO.C,F7*%
X77280000Y-132473748D02*
X77280000Y-136881252D01*
X71940000Y-132473748D02*
X71940000Y-136881252D01*
%TO.C,F8*%
X50930000Y-121403752D02*
X50930000Y-116996248D01*
X56270000Y-121403752D02*
X56270000Y-116996248D01*
%TO.C,R9*%
X137790000Y-53482936D02*
X137790000Y-54937064D01*
X139610000Y-53482936D02*
X139610000Y-54937064D01*
%TO.C,R10*%
X119940000Y-98772936D02*
X119940000Y-100227064D01*
X121760000Y-98772936D02*
X121760000Y-100227064D01*
%TO.C,R11*%
X139610000Y-135982936D02*
X139610000Y-137437064D01*
X137790000Y-135982936D02*
X137790000Y-137437064D01*
%TO.C,R12*%
X125310000Y-178172936D02*
X125310000Y-179627064D01*
X123490000Y-178172936D02*
X123490000Y-179627064D01*
%TO.C,R13*%
X137790000Y-46322936D02*
X137790000Y-47777064D01*
X139610000Y-46322936D02*
X139610000Y-47777064D01*
%TO.C,R14*%
X121760000Y-91542936D02*
X121760000Y-92997064D01*
X119940000Y-91542936D02*
X119940000Y-92997064D01*
%TO.C,R15*%
X137790000Y-128752936D02*
X137790000Y-130207064D01*
X139610000Y-128752936D02*
X139610000Y-130207064D01*
%TO.C,R16*%
X125310000Y-170562936D02*
X125310000Y-172017064D01*
X123490000Y-170562936D02*
X123490000Y-172017064D01*
%TO.C,SW1*%
D11*
X34666666Y-92324761D02*
X34809523Y-92372380D01*
X35047619Y-92372380D01*
X35142857Y-92324761D01*
X35190476Y-92277142D01*
X35238095Y-92181904D01*
X35238095Y-92086666D01*
X35190476Y-91991428D01*
X35142857Y-91943809D01*
X35047619Y-91896190D01*
X34857142Y-91848571D01*
X34761904Y-91800952D01*
X34714285Y-91753333D01*
X34666666Y-91658095D01*
X34666666Y-91562857D01*
X34714285Y-91467619D01*
X34761904Y-91420000D01*
X34857142Y-91372380D01*
X35095238Y-91372380D01*
X35238095Y-91420000D01*
X35571428Y-91372380D02*
X35809523Y-92372380D01*
X36000000Y-91658095D01*
X36190476Y-92372380D01*
X36428571Y-91372380D01*
X37333333Y-92372380D02*
X36761904Y-92372380D01*
X37047619Y-92372380D02*
X37047619Y-91372380D01*
X36952380Y-91515238D01*
X36857142Y-91610476D01*
X36761904Y-91658095D01*
D12*
X58570952Y-101434761D02*
X58570952Y-99434761D01*
X59713809Y-101434761D01*
X59713809Y-99434761D01*
X61047142Y-99434761D02*
X61428095Y-99434761D01*
X61618571Y-99530000D01*
X61809047Y-99720476D01*
X61904285Y-100101428D01*
X61904285Y-100768095D01*
X61809047Y-101149047D01*
X61618571Y-101339523D01*
X61428095Y-101434761D01*
X61047142Y-101434761D01*
X60856666Y-101339523D01*
X60666190Y-101149047D01*
X60570952Y-100768095D01*
X60570952Y-100101428D01*
X60666190Y-99720476D01*
X60856666Y-99530000D01*
X61047142Y-99434761D01*
X35149047Y-45974285D02*
X35053809Y-46069523D01*
X34768095Y-46164761D01*
X34577619Y-46164761D01*
X34291904Y-46069523D01*
X34101428Y-45879047D01*
X34006190Y-45688571D01*
X33910952Y-45307619D01*
X33910952Y-45021904D01*
X34006190Y-44640952D01*
X34101428Y-44450476D01*
X34291904Y-44260000D01*
X34577619Y-44164761D01*
X34768095Y-44164761D01*
X35053809Y-44260000D01*
X35149047Y-44355238D01*
X36387142Y-44164761D02*
X36768095Y-44164761D01*
X36958571Y-44260000D01*
X37149047Y-44450476D01*
X37244285Y-44831428D01*
X37244285Y-45498095D01*
X37149047Y-45879047D01*
X36958571Y-46069523D01*
X36768095Y-46164761D01*
X36387142Y-46164761D01*
X36196666Y-46069523D01*
X36006190Y-45879047D01*
X35910952Y-45498095D01*
X35910952Y-44831428D01*
X36006190Y-44450476D01*
X36196666Y-44260000D01*
X36387142Y-44164761D01*
X38101428Y-46164761D02*
X38101428Y-44164761D01*
X38768095Y-45593333D01*
X39434761Y-44164761D01*
X39434761Y-46164761D01*
X39910952Y-46355238D02*
X41434761Y-46355238D01*
X41910952Y-46164761D02*
X41910952Y-44164761D01*
X43053809Y-46164761D01*
X43053809Y-44164761D01*
X45149047Y-45974285D02*
X45053809Y-46069523D01*
X44768095Y-46164761D01*
X44577619Y-46164761D01*
X44291904Y-46069523D01*
X44101428Y-45879047D01*
X44006190Y-45688571D01*
X43910952Y-45307619D01*
X43910952Y-45021904D01*
X44006190Y-44640952D01*
X44101428Y-44450476D01*
X44291904Y-44260000D01*
X44577619Y-44164761D01*
X44768095Y-44164761D01*
X45053809Y-44260000D01*
X45149047Y-44355238D01*
X52531428Y-45814285D02*
X52436190Y-45909523D01*
X52150476Y-46004761D01*
X51960000Y-46004761D01*
X51674285Y-45909523D01*
X51483809Y-45719047D01*
X51388571Y-45528571D01*
X51293333Y-45147619D01*
X51293333Y-44861904D01*
X51388571Y-44480952D01*
X51483809Y-44290476D01*
X51674285Y-44100000D01*
X51960000Y-44004761D01*
X52150476Y-44004761D01*
X52436190Y-44100000D01*
X52531428Y-44195238D01*
X53769523Y-44004761D02*
X54150476Y-44004761D01*
X54340952Y-44100000D01*
X54531428Y-44290476D01*
X54626666Y-44671428D01*
X54626666Y-45338095D01*
X54531428Y-45719047D01*
X54340952Y-45909523D01*
X54150476Y-46004761D01*
X53769523Y-46004761D01*
X53579047Y-45909523D01*
X53388571Y-45719047D01*
X53293333Y-45338095D01*
X53293333Y-44671428D01*
X53388571Y-44290476D01*
X53579047Y-44100000D01*
X53769523Y-44004761D01*
X55483809Y-46004761D02*
X55483809Y-44004761D01*
X56150476Y-45433333D01*
X56817142Y-44004761D01*
X56817142Y-46004761D01*
X57293333Y-46195238D02*
X58817142Y-46195238D01*
X59293333Y-46004761D02*
X59293333Y-44004761D01*
X60436190Y-46004761D01*
X60436190Y-44004761D01*
X61769523Y-44004761D02*
X62150476Y-44004761D01*
X62340952Y-44100000D01*
X62531428Y-44290476D01*
X62626666Y-44671428D01*
X62626666Y-45338095D01*
X62531428Y-45719047D01*
X62340952Y-45909523D01*
X62150476Y-46004761D01*
X61769523Y-46004761D01*
X61579047Y-45909523D01*
X61388571Y-45719047D01*
X61293333Y-45338095D01*
X61293333Y-44671428D01*
X61388571Y-44290476D01*
X61579047Y-44100000D01*
X61769523Y-44004761D01*
X34728571Y-101484761D02*
X34728571Y-99484761D01*
X35871428Y-101484761D01*
X35871428Y-99484761D01*
X37966666Y-101294285D02*
X37871428Y-101389523D01*
X37585714Y-101484761D01*
X37395238Y-101484761D01*
X37109523Y-101389523D01*
X36919047Y-101199047D01*
X36823809Y-101008571D01*
X36728571Y-100627619D01*
X36728571Y-100341904D01*
X36823809Y-99960952D01*
X36919047Y-99770476D01*
X37109523Y-99580000D01*
X37395238Y-99484761D01*
X37585714Y-99484761D01*
X37871428Y-99580000D01*
X37966666Y-99675238D01*
%TO.C,D4*%
D11*
X171441904Y-188952380D02*
X171441904Y-187952380D01*
X171680000Y-187952380D01*
X171822857Y-188000000D01*
X171918095Y-188095238D01*
X171965714Y-188190476D01*
X172013333Y-188380952D01*
X172013333Y-188523809D01*
X171965714Y-188714285D01*
X171918095Y-188809523D01*
X171822857Y-188904761D01*
X171680000Y-188952380D01*
X171441904Y-188952380D01*
X172870476Y-188285714D02*
X172870476Y-188952380D01*
X172632380Y-187904761D02*
X172394285Y-188619047D01*
X173013333Y-188619047D01*
%TO.C,D3*%
X171441904Y-147912380D02*
X171441904Y-146912380D01*
X171680000Y-146912380D01*
X171822857Y-146960000D01*
X171918095Y-147055238D01*
X171965714Y-147150476D01*
X172013333Y-147340952D01*
X172013333Y-147483809D01*
X171965714Y-147674285D01*
X171918095Y-147769523D01*
X171822857Y-147864761D01*
X171680000Y-147912380D01*
X171441904Y-147912380D01*
X172346666Y-146912380D02*
X172965714Y-146912380D01*
X172632380Y-147293333D01*
X172775238Y-147293333D01*
X172870476Y-147340952D01*
X172918095Y-147388571D01*
X172965714Y-147483809D01*
X172965714Y-147721904D01*
X172918095Y-147817142D01*
X172870476Y-147864761D01*
X172775238Y-147912380D01*
X172489523Y-147912380D01*
X172394285Y-147864761D01*
X172346666Y-147817142D01*
%TO.C,D2*%
X171441904Y-107002380D02*
X171441904Y-106002380D01*
X171680000Y-106002380D01*
X171822857Y-106050000D01*
X171918095Y-106145238D01*
X171965714Y-106240476D01*
X172013333Y-106430952D01*
X172013333Y-106573809D01*
X171965714Y-106764285D01*
X171918095Y-106859523D01*
X171822857Y-106954761D01*
X171680000Y-107002380D01*
X171441904Y-107002380D01*
X172394285Y-106097619D02*
X172441904Y-106050000D01*
X172537142Y-106002380D01*
X172775238Y-106002380D01*
X172870476Y-106050000D01*
X172918095Y-106097619D01*
X172965714Y-106192857D01*
X172965714Y-106288095D01*
X172918095Y-106430952D01*
X172346666Y-107002380D01*
X172965714Y-107002380D01*
%TO.C,D1*%
X171441904Y-65072380D02*
X171441904Y-64072380D01*
X171680000Y-64072380D01*
X171822857Y-64120000D01*
X171918095Y-64215238D01*
X171965714Y-64310476D01*
X172013333Y-64500952D01*
X172013333Y-64643809D01*
X171965714Y-64834285D01*
X171918095Y-64929523D01*
X171822857Y-65024761D01*
X171680000Y-65072380D01*
X171441904Y-65072380D01*
X172965714Y-65072380D02*
X172394285Y-65072380D01*
X172680000Y-65072380D02*
X172680000Y-64072380D01*
X172584761Y-64215238D01*
X172489523Y-64310476D01*
X172394285Y-64358095D01*
%TO.C,BLACK*%
X116078095Y-122338571D02*
X116220952Y-122386190D01*
X116268571Y-122433809D01*
X116316190Y-122529047D01*
X116316190Y-122671904D01*
X116268571Y-122767142D01*
X116220952Y-122814761D01*
X116125714Y-122862380D01*
X115744761Y-122862380D01*
X115744761Y-121862380D01*
X116078095Y-121862380D01*
X116173333Y-121910000D01*
X116220952Y-121957619D01*
X116268571Y-122052857D01*
X116268571Y-122148095D01*
X116220952Y-122243333D01*
X116173333Y-122290952D01*
X116078095Y-122338571D01*
X115744761Y-122338571D01*
X117220952Y-122862380D02*
X116744761Y-122862380D01*
X116744761Y-121862380D01*
X117506666Y-122576666D02*
X117982857Y-122576666D01*
X117411428Y-122862380D02*
X117744761Y-121862380D01*
X118078095Y-122862380D01*
X118982857Y-122767142D02*
X118935238Y-122814761D01*
X118792380Y-122862380D01*
X118697142Y-122862380D01*
X118554285Y-122814761D01*
X118459047Y-122719523D01*
X118411428Y-122624285D01*
X118363809Y-122433809D01*
X118363809Y-122290952D01*
X118411428Y-122100476D01*
X118459047Y-122005238D01*
X118554285Y-121910000D01*
X118697142Y-121862380D01*
X118792380Y-121862380D01*
X118935238Y-121910000D01*
X118982857Y-121957619D01*
X119411428Y-122862380D02*
X119411428Y-121862380D01*
X119982857Y-122862380D02*
X119554285Y-122290952D01*
X119982857Y-121862380D02*
X119411428Y-122433809D01*
X103638095Y-130118571D02*
X103780952Y-130166190D01*
X103828571Y-130213809D01*
X103876190Y-130309047D01*
X103876190Y-130451904D01*
X103828571Y-130547142D01*
X103780952Y-130594761D01*
X103685714Y-130642380D01*
X103304761Y-130642380D01*
X103304761Y-129642380D01*
X103638095Y-129642380D01*
X103733333Y-129690000D01*
X103780952Y-129737619D01*
X103828571Y-129832857D01*
X103828571Y-129928095D01*
X103780952Y-130023333D01*
X103733333Y-130070952D01*
X103638095Y-130118571D01*
X103304761Y-130118571D01*
X104780952Y-130642380D02*
X104304761Y-130642380D01*
X104304761Y-129642380D01*
X105066666Y-130356666D02*
X105542857Y-130356666D01*
X104971428Y-130642380D02*
X105304761Y-129642380D01*
X105638095Y-130642380D01*
X106542857Y-130547142D02*
X106495238Y-130594761D01*
X106352380Y-130642380D01*
X106257142Y-130642380D01*
X106114285Y-130594761D01*
X106019047Y-130499523D01*
X105971428Y-130404285D01*
X105923809Y-130213809D01*
X105923809Y-130070952D01*
X105971428Y-129880476D01*
X106019047Y-129785238D01*
X106114285Y-129690000D01*
X106257142Y-129642380D01*
X106352380Y-129642380D01*
X106495238Y-129690000D01*
X106542857Y-129737619D01*
X106971428Y-130642380D02*
X106971428Y-129642380D01*
X107542857Y-130642380D02*
X107114285Y-130070952D01*
X107542857Y-129642380D02*
X106971428Y-130213809D01*
X103638095Y-163838571D02*
X103780952Y-163886190D01*
X103828571Y-163933809D01*
X103876190Y-164029047D01*
X103876190Y-164171904D01*
X103828571Y-164267142D01*
X103780952Y-164314761D01*
X103685714Y-164362380D01*
X103304761Y-164362380D01*
X103304761Y-163362380D01*
X103638095Y-163362380D01*
X103733333Y-163410000D01*
X103780952Y-163457619D01*
X103828571Y-163552857D01*
X103828571Y-163648095D01*
X103780952Y-163743333D01*
X103733333Y-163790952D01*
X103638095Y-163838571D01*
X103304761Y-163838571D01*
X104780952Y-164362380D02*
X104304761Y-164362380D01*
X104304761Y-163362380D01*
X105066666Y-164076666D02*
X105542857Y-164076666D01*
X104971428Y-164362380D02*
X105304761Y-163362380D01*
X105638095Y-164362380D01*
X106542857Y-164267142D02*
X106495238Y-164314761D01*
X106352380Y-164362380D01*
X106257142Y-164362380D01*
X106114285Y-164314761D01*
X106019047Y-164219523D01*
X105971428Y-164124285D01*
X105923809Y-163933809D01*
X105923809Y-163790952D01*
X105971428Y-163600476D01*
X106019047Y-163505238D01*
X106114285Y-163410000D01*
X106257142Y-163362380D01*
X106352380Y-163362380D01*
X106495238Y-163410000D01*
X106542857Y-163457619D01*
X106971428Y-164362380D02*
X106971428Y-163362380D01*
X107542857Y-164362380D02*
X107114285Y-163790952D01*
X107542857Y-163362380D02*
X106971428Y-163933809D01*
X116248095Y-205238571D02*
X116390952Y-205286190D01*
X116438571Y-205333809D01*
X116486190Y-205429047D01*
X116486190Y-205571904D01*
X116438571Y-205667142D01*
X116390952Y-205714761D01*
X116295714Y-205762380D01*
X115914761Y-205762380D01*
X115914761Y-204762380D01*
X116248095Y-204762380D01*
X116343333Y-204810000D01*
X116390952Y-204857619D01*
X116438571Y-204952857D01*
X116438571Y-205048095D01*
X116390952Y-205143333D01*
X116343333Y-205190952D01*
X116248095Y-205238571D01*
X115914761Y-205238571D01*
X117390952Y-205762380D02*
X116914761Y-205762380D01*
X116914761Y-204762380D01*
X117676666Y-205476666D02*
X118152857Y-205476666D01*
X117581428Y-205762380D02*
X117914761Y-204762380D01*
X118248095Y-205762380D01*
X119152857Y-205667142D02*
X119105238Y-205714761D01*
X118962380Y-205762380D01*
X118867142Y-205762380D01*
X118724285Y-205714761D01*
X118629047Y-205619523D01*
X118581428Y-205524285D01*
X118533809Y-205333809D01*
X118533809Y-205190952D01*
X118581428Y-205000476D01*
X118629047Y-204905238D01*
X118724285Y-204810000D01*
X118867142Y-204762380D01*
X118962380Y-204762380D01*
X119105238Y-204810000D01*
X119152857Y-204857619D01*
X119581428Y-205762380D02*
X119581428Y-204762380D01*
X120152857Y-205762380D02*
X119724285Y-205190952D01*
X120152857Y-204762380D02*
X119581428Y-205333809D01*
X116248095Y-171588571D02*
X116390952Y-171636190D01*
X116438571Y-171683809D01*
X116486190Y-171779047D01*
X116486190Y-171921904D01*
X116438571Y-172017142D01*
X116390952Y-172064761D01*
X116295714Y-172112380D01*
X115914761Y-172112380D01*
X115914761Y-171112380D01*
X116248095Y-171112380D01*
X116343333Y-171160000D01*
X116390952Y-171207619D01*
X116438571Y-171302857D01*
X116438571Y-171398095D01*
X116390952Y-171493333D01*
X116343333Y-171540952D01*
X116248095Y-171588571D01*
X115914761Y-171588571D01*
X117390952Y-172112380D02*
X116914761Y-172112380D01*
X116914761Y-171112380D01*
X117676666Y-171826666D02*
X118152857Y-171826666D01*
X117581428Y-172112380D02*
X117914761Y-171112380D01*
X118248095Y-172112380D01*
X119152857Y-172017142D02*
X119105238Y-172064761D01*
X118962380Y-172112380D01*
X118867142Y-172112380D01*
X118724285Y-172064761D01*
X118629047Y-171969523D01*
X118581428Y-171874285D01*
X118533809Y-171683809D01*
X118533809Y-171540952D01*
X118581428Y-171350476D01*
X118629047Y-171255238D01*
X118724285Y-171160000D01*
X118867142Y-171112380D01*
X118962380Y-171112380D01*
X119105238Y-171160000D01*
X119152857Y-171207619D01*
X119581428Y-172112380D02*
X119581428Y-171112380D01*
X120152857Y-172112380D02*
X119724285Y-171540952D01*
X120152857Y-171112380D02*
X119581428Y-171683809D01*
X116078095Y-89248571D02*
X116220952Y-89296190D01*
X116268571Y-89343809D01*
X116316190Y-89439047D01*
X116316190Y-89581904D01*
X116268571Y-89677142D01*
X116220952Y-89724761D01*
X116125714Y-89772380D01*
X115744761Y-89772380D01*
X115744761Y-88772380D01*
X116078095Y-88772380D01*
X116173333Y-88820000D01*
X116220952Y-88867619D01*
X116268571Y-88962857D01*
X116268571Y-89058095D01*
X116220952Y-89153333D01*
X116173333Y-89200952D01*
X116078095Y-89248571D01*
X115744761Y-89248571D01*
X117220952Y-89772380D02*
X116744761Y-89772380D01*
X116744761Y-88772380D01*
X117506666Y-89486666D02*
X117982857Y-89486666D01*
X117411428Y-89772380D02*
X117744761Y-88772380D01*
X118078095Y-89772380D01*
X118982857Y-89677142D02*
X118935238Y-89724761D01*
X118792380Y-89772380D01*
X118697142Y-89772380D01*
X118554285Y-89724761D01*
X118459047Y-89629523D01*
X118411428Y-89534285D01*
X118363809Y-89343809D01*
X118363809Y-89200952D01*
X118411428Y-89010476D01*
X118459047Y-88915238D01*
X118554285Y-88820000D01*
X118697142Y-88772380D01*
X118792380Y-88772380D01*
X118935238Y-88820000D01*
X118982857Y-88867619D01*
X119411428Y-89772380D02*
X119411428Y-88772380D01*
X119982857Y-89772380D02*
X119554285Y-89200952D01*
X119982857Y-88772380D02*
X119411428Y-89343809D01*
X105098095Y-81018571D02*
X105240952Y-81066190D01*
X105288571Y-81113809D01*
X105336190Y-81209047D01*
X105336190Y-81351904D01*
X105288571Y-81447142D01*
X105240952Y-81494761D01*
X105145714Y-81542380D01*
X104764761Y-81542380D01*
X104764761Y-80542380D01*
X105098095Y-80542380D01*
X105193333Y-80590000D01*
X105240952Y-80637619D01*
X105288571Y-80732857D01*
X105288571Y-80828095D01*
X105240952Y-80923333D01*
X105193333Y-80970952D01*
X105098095Y-81018571D01*
X104764761Y-81018571D01*
X106240952Y-81542380D02*
X105764761Y-81542380D01*
X105764761Y-80542380D01*
X106526666Y-81256666D02*
X107002857Y-81256666D01*
X106431428Y-81542380D02*
X106764761Y-80542380D01*
X107098095Y-81542380D01*
X108002857Y-81447142D02*
X107955238Y-81494761D01*
X107812380Y-81542380D01*
X107717142Y-81542380D01*
X107574285Y-81494761D01*
X107479047Y-81399523D01*
X107431428Y-81304285D01*
X107383809Y-81113809D01*
X107383809Y-80970952D01*
X107431428Y-80780476D01*
X107479047Y-80685238D01*
X107574285Y-80590000D01*
X107717142Y-80542380D01*
X107812380Y-80542380D01*
X107955238Y-80590000D01*
X108002857Y-80637619D01*
X108431428Y-81542380D02*
X108431428Y-80542380D01*
X109002857Y-81542380D02*
X108574285Y-80970952D01*
X109002857Y-80542380D02*
X108431428Y-81113809D01*
X132908095Y-89248571D02*
X133050952Y-89296190D01*
X133098571Y-89343809D01*
X133146190Y-89439047D01*
X133146190Y-89581904D01*
X133098571Y-89677142D01*
X133050952Y-89724761D01*
X132955714Y-89772380D01*
X132574761Y-89772380D01*
X132574761Y-88772380D01*
X132908095Y-88772380D01*
X133003333Y-88820000D01*
X133050952Y-88867619D01*
X133098571Y-88962857D01*
X133098571Y-89058095D01*
X133050952Y-89153333D01*
X133003333Y-89200952D01*
X132908095Y-89248571D01*
X132574761Y-89248571D01*
X134050952Y-89772380D02*
X133574761Y-89772380D01*
X133574761Y-88772380D01*
X134336666Y-89486666D02*
X134812857Y-89486666D01*
X134241428Y-89772380D02*
X134574761Y-88772380D01*
X134908095Y-89772380D01*
X135812857Y-89677142D02*
X135765238Y-89724761D01*
X135622380Y-89772380D01*
X135527142Y-89772380D01*
X135384285Y-89724761D01*
X135289047Y-89629523D01*
X135241428Y-89534285D01*
X135193809Y-89343809D01*
X135193809Y-89200952D01*
X135241428Y-89010476D01*
X135289047Y-88915238D01*
X135384285Y-88820000D01*
X135527142Y-88772380D01*
X135622380Y-88772380D01*
X135765238Y-88820000D01*
X135812857Y-88867619D01*
X136241428Y-89772380D02*
X136241428Y-88772380D01*
X136812857Y-89772380D02*
X136384285Y-89200952D01*
X136812857Y-88772380D02*
X136241428Y-89343809D01*
X133288095Y-171578571D02*
X133430952Y-171626190D01*
X133478571Y-171673809D01*
X133526190Y-171769047D01*
X133526190Y-171911904D01*
X133478571Y-172007142D01*
X133430952Y-172054761D01*
X133335714Y-172102380D01*
X132954761Y-172102380D01*
X132954761Y-171102380D01*
X133288095Y-171102380D01*
X133383333Y-171150000D01*
X133430952Y-171197619D01*
X133478571Y-171292857D01*
X133478571Y-171388095D01*
X133430952Y-171483333D01*
X133383333Y-171530952D01*
X133288095Y-171578571D01*
X132954761Y-171578571D01*
X134430952Y-172102380D02*
X133954761Y-172102380D01*
X133954761Y-171102380D01*
X134716666Y-171816666D02*
X135192857Y-171816666D01*
X134621428Y-172102380D02*
X134954761Y-171102380D01*
X135288095Y-172102380D01*
X136192857Y-172007142D02*
X136145238Y-172054761D01*
X136002380Y-172102380D01*
X135907142Y-172102380D01*
X135764285Y-172054761D01*
X135669047Y-171959523D01*
X135621428Y-171864285D01*
X135573809Y-171673809D01*
X135573809Y-171530952D01*
X135621428Y-171340476D01*
X135669047Y-171245238D01*
X135764285Y-171150000D01*
X135907142Y-171102380D01*
X136002380Y-171102380D01*
X136145238Y-171150000D01*
X136192857Y-171197619D01*
X136621428Y-172102380D02*
X136621428Y-171102380D01*
X137192857Y-172102380D02*
X136764285Y-171530952D01*
X137192857Y-171102380D02*
X136621428Y-171673809D01*
X124198095Y-163638571D02*
X124340952Y-163686190D01*
X124388571Y-163733809D01*
X124436190Y-163829047D01*
X124436190Y-163971904D01*
X124388571Y-164067142D01*
X124340952Y-164114761D01*
X124245714Y-164162380D01*
X123864761Y-164162380D01*
X123864761Y-163162380D01*
X124198095Y-163162380D01*
X124293333Y-163210000D01*
X124340952Y-163257619D01*
X124388571Y-163352857D01*
X124388571Y-163448095D01*
X124340952Y-163543333D01*
X124293333Y-163590952D01*
X124198095Y-163638571D01*
X123864761Y-163638571D01*
X125340952Y-164162380D02*
X124864761Y-164162380D01*
X124864761Y-163162380D01*
X125626666Y-163876666D02*
X126102857Y-163876666D01*
X125531428Y-164162380D02*
X125864761Y-163162380D01*
X126198095Y-164162380D01*
X127102857Y-164067142D02*
X127055238Y-164114761D01*
X126912380Y-164162380D01*
X126817142Y-164162380D01*
X126674285Y-164114761D01*
X126579047Y-164019523D01*
X126531428Y-163924285D01*
X126483809Y-163733809D01*
X126483809Y-163590952D01*
X126531428Y-163400476D01*
X126579047Y-163305238D01*
X126674285Y-163210000D01*
X126817142Y-163162380D01*
X126912380Y-163162380D01*
X127055238Y-163210000D01*
X127102857Y-163257619D01*
X127531428Y-164162380D02*
X127531428Y-163162380D01*
X128102857Y-164162380D02*
X127674285Y-163590952D01*
X128102857Y-163162380D02*
X127531428Y-163733809D01*
X133288095Y-205238571D02*
X133430952Y-205286190D01*
X133478571Y-205333809D01*
X133526190Y-205429047D01*
X133526190Y-205571904D01*
X133478571Y-205667142D01*
X133430952Y-205714761D01*
X133335714Y-205762380D01*
X132954761Y-205762380D01*
X132954761Y-204762380D01*
X133288095Y-204762380D01*
X133383333Y-204810000D01*
X133430952Y-204857619D01*
X133478571Y-204952857D01*
X133478571Y-205048095D01*
X133430952Y-205143333D01*
X133383333Y-205190952D01*
X133288095Y-205238571D01*
X132954761Y-205238571D01*
X134430952Y-205762380D02*
X133954761Y-205762380D01*
X133954761Y-204762380D01*
X134716666Y-205476666D02*
X135192857Y-205476666D01*
X134621428Y-205762380D02*
X134954761Y-204762380D01*
X135288095Y-205762380D01*
X136192857Y-205667142D02*
X136145238Y-205714761D01*
X136002380Y-205762380D01*
X135907142Y-205762380D01*
X135764285Y-205714761D01*
X135669047Y-205619523D01*
X135621428Y-205524285D01*
X135573809Y-205333809D01*
X135573809Y-205190952D01*
X135621428Y-205000476D01*
X135669047Y-204905238D01*
X135764285Y-204810000D01*
X135907142Y-204762380D01*
X136002380Y-204762380D01*
X136145238Y-204810000D01*
X136192857Y-204857619D01*
X136621428Y-205762380D02*
X136621428Y-204762380D01*
X137192857Y-205762380D02*
X136764285Y-205190952D01*
X137192857Y-204762380D02*
X136621428Y-205333809D01*
X123578095Y-81018571D02*
X123720952Y-81066190D01*
X123768571Y-81113809D01*
X123816190Y-81209047D01*
X123816190Y-81351904D01*
X123768571Y-81447142D01*
X123720952Y-81494761D01*
X123625714Y-81542380D01*
X123244761Y-81542380D01*
X123244761Y-80542380D01*
X123578095Y-80542380D01*
X123673333Y-80590000D01*
X123720952Y-80637619D01*
X123768571Y-80732857D01*
X123768571Y-80828095D01*
X123720952Y-80923333D01*
X123673333Y-80970952D01*
X123578095Y-81018571D01*
X123244761Y-81018571D01*
X124720952Y-81542380D02*
X124244761Y-81542380D01*
X124244761Y-80542380D01*
X125006666Y-81256666D02*
X125482857Y-81256666D01*
X124911428Y-81542380D02*
X125244761Y-80542380D01*
X125578095Y-81542380D01*
X126482857Y-81447142D02*
X126435238Y-81494761D01*
X126292380Y-81542380D01*
X126197142Y-81542380D01*
X126054285Y-81494761D01*
X125959047Y-81399523D01*
X125911428Y-81304285D01*
X125863809Y-81113809D01*
X125863809Y-80970952D01*
X125911428Y-80780476D01*
X125959047Y-80685238D01*
X126054285Y-80590000D01*
X126197142Y-80542380D01*
X126292380Y-80542380D01*
X126435238Y-80590000D01*
X126482857Y-80637619D01*
X126911428Y-81542380D02*
X126911428Y-80542380D01*
X127482857Y-81542380D02*
X127054285Y-80970952D01*
X127482857Y-80542380D02*
X126911428Y-81113809D01*
X132908095Y-122338571D02*
X133050952Y-122386190D01*
X133098571Y-122433809D01*
X133146190Y-122529047D01*
X133146190Y-122671904D01*
X133098571Y-122767142D01*
X133050952Y-122814761D01*
X132955714Y-122862380D01*
X132574761Y-122862380D01*
X132574761Y-121862380D01*
X132908095Y-121862380D01*
X133003333Y-121910000D01*
X133050952Y-121957619D01*
X133098571Y-122052857D01*
X133098571Y-122148095D01*
X133050952Y-122243333D01*
X133003333Y-122290952D01*
X132908095Y-122338571D01*
X132574761Y-122338571D01*
X134050952Y-122862380D02*
X133574761Y-122862380D01*
X133574761Y-121862380D01*
X134336666Y-122576666D02*
X134812857Y-122576666D01*
X134241428Y-122862380D02*
X134574761Y-121862380D01*
X134908095Y-122862380D01*
X135812857Y-122767142D02*
X135765238Y-122814761D01*
X135622380Y-122862380D01*
X135527142Y-122862380D01*
X135384285Y-122814761D01*
X135289047Y-122719523D01*
X135241428Y-122624285D01*
X135193809Y-122433809D01*
X135193809Y-122290952D01*
X135241428Y-122100476D01*
X135289047Y-122005238D01*
X135384285Y-121910000D01*
X135527142Y-121862380D01*
X135622380Y-121862380D01*
X135765238Y-121910000D01*
X135812857Y-121957619D01*
X136241428Y-122862380D02*
X136241428Y-121862380D01*
X136812857Y-122862380D02*
X136384285Y-122290952D01*
X136812857Y-121862380D02*
X136241428Y-122433809D01*
X124198095Y-130118571D02*
X124340952Y-130166190D01*
X124388571Y-130213809D01*
X124436190Y-130309047D01*
X124436190Y-130451904D01*
X124388571Y-130547142D01*
X124340952Y-130594761D01*
X124245714Y-130642380D01*
X123864761Y-130642380D01*
X123864761Y-129642380D01*
X124198095Y-129642380D01*
X124293333Y-129690000D01*
X124340952Y-129737619D01*
X124388571Y-129832857D01*
X124388571Y-129928095D01*
X124340952Y-130023333D01*
X124293333Y-130070952D01*
X124198095Y-130118571D01*
X123864761Y-130118571D01*
X125340952Y-130642380D02*
X124864761Y-130642380D01*
X124864761Y-129642380D01*
X125626666Y-130356666D02*
X126102857Y-130356666D01*
X125531428Y-130642380D02*
X125864761Y-129642380D01*
X126198095Y-130642380D01*
X127102857Y-130547142D02*
X127055238Y-130594761D01*
X126912380Y-130642380D01*
X126817142Y-130642380D01*
X126674285Y-130594761D01*
X126579047Y-130499523D01*
X126531428Y-130404285D01*
X126483809Y-130213809D01*
X126483809Y-130070952D01*
X126531428Y-129880476D01*
X126579047Y-129785238D01*
X126674285Y-129690000D01*
X126817142Y-129642380D01*
X126912380Y-129642380D01*
X127055238Y-129690000D01*
X127102857Y-129737619D01*
X127531428Y-130642380D02*
X127531428Y-129642380D01*
X128102857Y-130642380D02*
X127674285Y-130070952D01*
X128102857Y-129642380D02*
X127531428Y-130213809D01*
X41628095Y-210685794D02*
X41770952Y-210733413D01*
X41818571Y-210781032D01*
X41866190Y-210876270D01*
X41866190Y-211019127D01*
X41818571Y-211114365D01*
X41770952Y-211161984D01*
X41675714Y-211209603D01*
X41294761Y-211209603D01*
X41294761Y-210209603D01*
X41628095Y-210209603D01*
X41723333Y-210257223D01*
X41770952Y-210304842D01*
X41818571Y-210400080D01*
X41818571Y-210495318D01*
X41770952Y-210590556D01*
X41723333Y-210638175D01*
X41628095Y-210685794D01*
X41294761Y-210685794D01*
X42770952Y-211209603D02*
X42294761Y-211209603D01*
X42294761Y-210209603D01*
X43056666Y-210923889D02*
X43532857Y-210923889D01*
X42961428Y-211209603D02*
X43294761Y-210209603D01*
X43628095Y-211209603D01*
X44532857Y-211114365D02*
X44485238Y-211161984D01*
X44342380Y-211209603D01*
X44247142Y-211209603D01*
X44104285Y-211161984D01*
X44009047Y-211066746D01*
X43961428Y-210971508D01*
X43913809Y-210781032D01*
X43913809Y-210638175D01*
X43961428Y-210447699D01*
X44009047Y-210352461D01*
X44104285Y-210257223D01*
X44247142Y-210209603D01*
X44342380Y-210209603D01*
X44485238Y-210257223D01*
X44532857Y-210304842D01*
X44961428Y-211209603D02*
X44961428Y-210209603D01*
X45532857Y-211209603D02*
X45104285Y-210638175D01*
X45532857Y-210209603D02*
X44961428Y-210781032D01*
%TO.C,RED*%
X42277142Y-42312380D02*
X41943809Y-41836190D01*
X41705714Y-42312380D02*
X41705714Y-41312380D01*
X42086666Y-41312380D01*
X42181904Y-41360000D01*
X42229523Y-41407619D01*
X42277142Y-41502857D01*
X42277142Y-41645714D01*
X42229523Y-41740952D01*
X42181904Y-41788571D01*
X42086666Y-41836190D01*
X41705714Y-41836190D01*
X42705714Y-41788571D02*
X43039047Y-41788571D01*
X43181904Y-42312380D02*
X42705714Y-42312380D01*
X42705714Y-41312380D01*
X43181904Y-41312380D01*
X43610476Y-42312380D02*
X43610476Y-41312380D01*
X43848571Y-41312380D01*
X43991428Y-41360000D01*
X44086666Y-41455238D01*
X44134285Y-41550476D01*
X44181904Y-41740952D01*
X44181904Y-41883809D01*
X44134285Y-42074285D01*
X44086666Y-42169523D01*
X43991428Y-42264761D01*
X43848571Y-42312380D01*
X43610476Y-42312380D01*
%TO.C,BLACK*%
X66716095Y-210685794D02*
X66858952Y-210733413D01*
X66906571Y-210781032D01*
X66954190Y-210876270D01*
X66954190Y-211019127D01*
X66906571Y-211114365D01*
X66858952Y-211161984D01*
X66763714Y-211209603D01*
X66382761Y-211209603D01*
X66382761Y-210209603D01*
X66716095Y-210209603D01*
X66811333Y-210257223D01*
X66858952Y-210304842D01*
X66906571Y-210400080D01*
X66906571Y-210495318D01*
X66858952Y-210590556D01*
X66811333Y-210638175D01*
X66716095Y-210685794D01*
X66382761Y-210685794D01*
X67858952Y-211209603D02*
X67382761Y-211209603D01*
X67382761Y-210209603D01*
X68144666Y-210923889D02*
X68620857Y-210923889D01*
X68049428Y-211209603D02*
X68382761Y-210209603D01*
X68716095Y-211209603D01*
X69620857Y-211114365D02*
X69573238Y-211161984D01*
X69430380Y-211209603D01*
X69335142Y-211209603D01*
X69192285Y-211161984D01*
X69097047Y-211066746D01*
X69049428Y-210971508D01*
X69001809Y-210781032D01*
X69001809Y-210638175D01*
X69049428Y-210447699D01*
X69097047Y-210352461D01*
X69192285Y-210257223D01*
X69335142Y-210209603D01*
X69430380Y-210209603D01*
X69573238Y-210257223D01*
X69620857Y-210304842D01*
X70049428Y-211209603D02*
X70049428Y-210209603D01*
X70620857Y-211209603D02*
X70192285Y-210638175D01*
X70620857Y-210209603D02*
X70049428Y-210781032D01*
%TO.C,RED*%
X67845142Y-42312380D02*
X67511809Y-41836190D01*
X67273714Y-42312380D02*
X67273714Y-41312380D01*
X67654666Y-41312380D01*
X67749904Y-41360000D01*
X67797523Y-41407619D01*
X67845142Y-41502857D01*
X67845142Y-41645714D01*
X67797523Y-41740952D01*
X67749904Y-41788571D01*
X67654666Y-41836190D01*
X67273714Y-41836190D01*
X68273714Y-41788571D02*
X68607047Y-41788571D01*
X68749904Y-42312380D02*
X68273714Y-42312380D01*
X68273714Y-41312380D01*
X68749904Y-41312380D01*
X69178476Y-42312380D02*
X69178476Y-41312380D01*
X69416571Y-41312380D01*
X69559428Y-41360000D01*
X69654666Y-41455238D01*
X69702285Y-41550476D01*
X69749904Y-41740952D01*
X69749904Y-41883809D01*
X69702285Y-42074285D01*
X69654666Y-42169523D01*
X69559428Y-42264761D01*
X69416571Y-42312380D01*
X69178476Y-42312380D01*
%TO.C,BLACK*%
X92024095Y-210685794D02*
X92166952Y-210733413D01*
X92214571Y-210781032D01*
X92262190Y-210876270D01*
X92262190Y-211019127D01*
X92214571Y-211114365D01*
X92166952Y-211161984D01*
X92071714Y-211209603D01*
X91690761Y-211209603D01*
X91690761Y-210209603D01*
X92024095Y-210209603D01*
X92119333Y-210257223D01*
X92166952Y-210304842D01*
X92214571Y-210400080D01*
X92214571Y-210495318D01*
X92166952Y-210590556D01*
X92119333Y-210638175D01*
X92024095Y-210685794D01*
X91690761Y-210685794D01*
X93166952Y-211209603D02*
X92690761Y-211209603D01*
X92690761Y-210209603D01*
X93452666Y-210923889D02*
X93928857Y-210923889D01*
X93357428Y-211209603D02*
X93690761Y-210209603D01*
X94024095Y-211209603D01*
X94928857Y-211114365D02*
X94881238Y-211161984D01*
X94738380Y-211209603D01*
X94643142Y-211209603D01*
X94500285Y-211161984D01*
X94405047Y-211066746D01*
X94357428Y-210971508D01*
X94309809Y-210781032D01*
X94309809Y-210638175D01*
X94357428Y-210447699D01*
X94405047Y-210352461D01*
X94500285Y-210257223D01*
X94643142Y-210209603D01*
X94738380Y-210209603D01*
X94881238Y-210257223D01*
X94928857Y-210304842D01*
X95357428Y-211209603D02*
X95357428Y-210209603D01*
X95928857Y-211209603D02*
X95500285Y-210638175D01*
X95928857Y-210209603D02*
X95357428Y-210781032D01*
%TO.C,RED*%
X93063142Y-42312380D02*
X92729809Y-41836190D01*
X92491714Y-42312380D02*
X92491714Y-41312380D01*
X92872666Y-41312380D01*
X92967904Y-41360000D01*
X93015523Y-41407619D01*
X93063142Y-41502857D01*
X93063142Y-41645714D01*
X93015523Y-41740952D01*
X92967904Y-41788571D01*
X92872666Y-41836190D01*
X92491714Y-41836190D01*
X93491714Y-41788571D02*
X93825047Y-41788571D01*
X93967904Y-42312380D02*
X93491714Y-42312380D01*
X93491714Y-41312380D01*
X93967904Y-41312380D01*
X94396476Y-42312380D02*
X94396476Y-41312380D01*
X94634571Y-41312380D01*
X94777428Y-41360000D01*
X94872666Y-41455238D01*
X94920285Y-41550476D01*
X94967904Y-41740952D01*
X94967904Y-41883809D01*
X94920285Y-42074285D01*
X94872666Y-42169523D01*
X94777428Y-42264761D01*
X94634571Y-42312380D01*
X94396476Y-42312380D01*
%TO.C,BLACK*%
X117222095Y-210685794D02*
X117364952Y-210733413D01*
X117412571Y-210781032D01*
X117460190Y-210876270D01*
X117460190Y-211019127D01*
X117412571Y-211114365D01*
X117364952Y-211161984D01*
X117269714Y-211209603D01*
X116888761Y-211209603D01*
X116888761Y-210209603D01*
X117222095Y-210209603D01*
X117317333Y-210257223D01*
X117364952Y-210304842D01*
X117412571Y-210400080D01*
X117412571Y-210495318D01*
X117364952Y-210590556D01*
X117317333Y-210638175D01*
X117222095Y-210685794D01*
X116888761Y-210685794D01*
X118364952Y-211209603D02*
X117888761Y-211209603D01*
X117888761Y-210209603D01*
X118650666Y-210923889D02*
X119126857Y-210923889D01*
X118555428Y-211209603D02*
X118888761Y-210209603D01*
X119222095Y-211209603D01*
X120126857Y-211114365D02*
X120079238Y-211161984D01*
X119936380Y-211209603D01*
X119841142Y-211209603D01*
X119698285Y-211161984D01*
X119603047Y-211066746D01*
X119555428Y-210971508D01*
X119507809Y-210781032D01*
X119507809Y-210638175D01*
X119555428Y-210447699D01*
X119603047Y-210352461D01*
X119698285Y-210257223D01*
X119841142Y-210209603D01*
X119936380Y-210209603D01*
X120079238Y-210257223D01*
X120126857Y-210304842D01*
X120555428Y-211209603D02*
X120555428Y-210209603D01*
X121126857Y-211209603D02*
X120698285Y-210638175D01*
X121126857Y-210209603D02*
X120555428Y-210781032D01*
%TO.C,RED*%
X118371142Y-42312380D02*
X118037809Y-41836190D01*
X117799714Y-42312380D02*
X117799714Y-41312380D01*
X118180666Y-41312380D01*
X118275904Y-41360000D01*
X118323523Y-41407619D01*
X118371142Y-41502857D01*
X118371142Y-41645714D01*
X118323523Y-41740952D01*
X118275904Y-41788571D01*
X118180666Y-41836190D01*
X117799714Y-41836190D01*
X118799714Y-41788571D02*
X119133047Y-41788571D01*
X119275904Y-42312380D02*
X118799714Y-42312380D01*
X118799714Y-41312380D01*
X119275904Y-41312380D01*
X119704476Y-42312380D02*
X119704476Y-41312380D01*
X119942571Y-41312380D01*
X120085428Y-41360000D01*
X120180666Y-41455238D01*
X120228285Y-41550476D01*
X120275904Y-41740952D01*
X120275904Y-41883809D01*
X120228285Y-42074285D01*
X120180666Y-42169523D01*
X120085428Y-42264761D01*
X119942571Y-42312380D01*
X119704476Y-42312380D01*
%TO.C,BLACK*%
X142180095Y-210685794D02*
X142322952Y-210733413D01*
X142370571Y-210781032D01*
X142418190Y-210876270D01*
X142418190Y-211019127D01*
X142370571Y-211114365D01*
X142322952Y-211161984D01*
X142227714Y-211209603D01*
X141846761Y-211209603D01*
X141846761Y-210209603D01*
X142180095Y-210209603D01*
X142275333Y-210257223D01*
X142322952Y-210304842D01*
X142370571Y-210400080D01*
X142370571Y-210495318D01*
X142322952Y-210590556D01*
X142275333Y-210638175D01*
X142180095Y-210685794D01*
X141846761Y-210685794D01*
X143322952Y-211209603D02*
X142846761Y-211209603D01*
X142846761Y-210209603D01*
X143608666Y-210923889D02*
X144084857Y-210923889D01*
X143513428Y-211209603D02*
X143846761Y-210209603D01*
X144180095Y-211209603D01*
X145084857Y-211114365D02*
X145037238Y-211161984D01*
X144894380Y-211209603D01*
X144799142Y-211209603D01*
X144656285Y-211161984D01*
X144561047Y-211066746D01*
X144513428Y-210971508D01*
X144465809Y-210781032D01*
X144465809Y-210638175D01*
X144513428Y-210447699D01*
X144561047Y-210352461D01*
X144656285Y-210257223D01*
X144799142Y-210209603D01*
X144894380Y-210209603D01*
X145037238Y-210257223D01*
X145084857Y-210304842D01*
X145513428Y-211209603D02*
X145513428Y-210209603D01*
X146084857Y-211209603D02*
X145656285Y-210638175D01*
X146084857Y-210209603D02*
X145513428Y-210781032D01*
%TO.C,RED*%
X143609142Y-42312380D02*
X143275809Y-41836190D01*
X143037714Y-42312380D02*
X143037714Y-41312380D01*
X143418666Y-41312380D01*
X143513904Y-41360000D01*
X143561523Y-41407619D01*
X143609142Y-41502857D01*
X143609142Y-41645714D01*
X143561523Y-41740952D01*
X143513904Y-41788571D01*
X143418666Y-41836190D01*
X143037714Y-41836190D01*
X144037714Y-41788571D02*
X144371047Y-41788571D01*
X144513904Y-42312380D02*
X144037714Y-42312380D01*
X144037714Y-41312380D01*
X144513904Y-41312380D01*
X144942476Y-42312380D02*
X144942476Y-41312380D01*
X145180571Y-41312380D01*
X145323428Y-41360000D01*
X145418666Y-41455238D01*
X145466285Y-41550476D01*
X145513904Y-41740952D01*
X145513904Y-41883809D01*
X145466285Y-42074285D01*
X145418666Y-42169523D01*
X145323428Y-42264761D01*
X145180571Y-42312380D01*
X144942476Y-42312380D01*
%TO.C,BLACK*%
X167458095Y-210685794D02*
X167600952Y-210733413D01*
X167648571Y-210781032D01*
X167696190Y-210876270D01*
X167696190Y-211019127D01*
X167648571Y-211114365D01*
X167600952Y-211161984D01*
X167505714Y-211209603D01*
X167124761Y-211209603D01*
X167124761Y-210209603D01*
X167458095Y-210209603D01*
X167553333Y-210257223D01*
X167600952Y-210304842D01*
X167648571Y-210400080D01*
X167648571Y-210495318D01*
X167600952Y-210590556D01*
X167553333Y-210638175D01*
X167458095Y-210685794D01*
X167124761Y-210685794D01*
X168600952Y-211209603D02*
X168124761Y-211209603D01*
X168124761Y-210209603D01*
X168886666Y-210923889D02*
X169362857Y-210923889D01*
X168791428Y-211209603D02*
X169124761Y-210209603D01*
X169458095Y-211209603D01*
X170362857Y-211114365D02*
X170315238Y-211161984D01*
X170172380Y-211209603D01*
X170077142Y-211209603D01*
X169934285Y-211161984D01*
X169839047Y-211066746D01*
X169791428Y-210971508D01*
X169743809Y-210781032D01*
X169743809Y-210638175D01*
X169791428Y-210447699D01*
X169839047Y-210352461D01*
X169934285Y-210257223D01*
X170077142Y-210209603D01*
X170172380Y-210209603D01*
X170315238Y-210257223D01*
X170362857Y-210304842D01*
X170791428Y-211209603D02*
X170791428Y-210209603D01*
X171362857Y-211209603D02*
X170934285Y-210638175D01*
X171362857Y-210209603D02*
X170791428Y-210781032D01*
%TO.C,RED*%
X168577142Y-42312380D02*
X168243809Y-41836190D01*
X168005714Y-42312380D02*
X168005714Y-41312380D01*
X168386666Y-41312380D01*
X168481904Y-41360000D01*
X168529523Y-41407619D01*
X168577142Y-41502857D01*
X168577142Y-41645714D01*
X168529523Y-41740952D01*
X168481904Y-41788571D01*
X168386666Y-41836190D01*
X168005714Y-41836190D01*
X169005714Y-41788571D02*
X169339047Y-41788571D01*
X169481904Y-42312380D02*
X169005714Y-42312380D01*
X169005714Y-41312380D01*
X169481904Y-41312380D01*
X169910476Y-42312380D02*
X169910476Y-41312380D01*
X170148571Y-41312380D01*
X170291428Y-41360000D01*
X170386666Y-41455238D01*
X170434285Y-41550476D01*
X170481904Y-41740952D01*
X170481904Y-41883809D01*
X170434285Y-42074285D01*
X170386666Y-42169523D01*
X170291428Y-42264761D01*
X170148571Y-42312380D01*
X169910476Y-42312380D01*
%TO.C,BLACK*%
X105098095Y-47418571D02*
X105240952Y-47466190D01*
X105288571Y-47513809D01*
X105336190Y-47609047D01*
X105336190Y-47751904D01*
X105288571Y-47847142D01*
X105240952Y-47894761D01*
X105145714Y-47942380D01*
X104764761Y-47942380D01*
X104764761Y-46942380D01*
X105098095Y-46942380D01*
X105193333Y-46990000D01*
X105240952Y-47037619D01*
X105288571Y-47132857D01*
X105288571Y-47228095D01*
X105240952Y-47323333D01*
X105193333Y-47370952D01*
X105098095Y-47418571D01*
X104764761Y-47418571D01*
X106240952Y-47942380D02*
X105764761Y-47942380D01*
X105764761Y-46942380D01*
X106526666Y-47656666D02*
X107002857Y-47656666D01*
X106431428Y-47942380D02*
X106764761Y-46942380D01*
X107098095Y-47942380D01*
X108002857Y-47847142D02*
X107955238Y-47894761D01*
X107812380Y-47942380D01*
X107717142Y-47942380D01*
X107574285Y-47894761D01*
X107479047Y-47799523D01*
X107431428Y-47704285D01*
X107383809Y-47513809D01*
X107383809Y-47370952D01*
X107431428Y-47180476D01*
X107479047Y-47085238D01*
X107574285Y-46990000D01*
X107717142Y-46942380D01*
X107812380Y-46942380D01*
X107955238Y-46990000D01*
X108002857Y-47037619D01*
X108431428Y-47942380D02*
X108431428Y-46942380D01*
X109002857Y-47942380D02*
X108574285Y-47370952D01*
X109002857Y-46942380D02*
X108431428Y-47513809D01*
X123578095Y-47418571D02*
X123720952Y-47466190D01*
X123768571Y-47513809D01*
X123816190Y-47609047D01*
X123816190Y-47751904D01*
X123768571Y-47847142D01*
X123720952Y-47894761D01*
X123625714Y-47942380D01*
X123244761Y-47942380D01*
X123244761Y-46942380D01*
X123578095Y-46942380D01*
X123673333Y-46990000D01*
X123720952Y-47037619D01*
X123768571Y-47132857D01*
X123768571Y-47228095D01*
X123720952Y-47323333D01*
X123673333Y-47370952D01*
X123578095Y-47418571D01*
X123244761Y-47418571D01*
X124720952Y-47942380D02*
X124244761Y-47942380D01*
X124244761Y-46942380D01*
X125006666Y-47656666D02*
X125482857Y-47656666D01*
X124911428Y-47942380D02*
X125244761Y-46942380D01*
X125578095Y-47942380D01*
X126482857Y-47847142D02*
X126435238Y-47894761D01*
X126292380Y-47942380D01*
X126197142Y-47942380D01*
X126054285Y-47894761D01*
X125959047Y-47799523D01*
X125911428Y-47704285D01*
X125863809Y-47513809D01*
X125863809Y-47370952D01*
X125911428Y-47180476D01*
X125959047Y-47085238D01*
X126054285Y-46990000D01*
X126197142Y-46942380D01*
X126292380Y-46942380D01*
X126435238Y-46990000D01*
X126482857Y-47037619D01*
X126911428Y-47942380D02*
X126911428Y-46942380D01*
X127482857Y-47942380D02*
X127054285Y-47370952D01*
X127482857Y-46942380D02*
X126911428Y-47513809D01*
%TO.C,X1*%
X167780476Y-47582380D02*
X168447142Y-48582380D01*
X168447142Y-47582380D02*
X167780476Y-48582380D01*
X169351904Y-48582380D02*
X168780476Y-48582380D01*
X169066190Y-48582380D02*
X169066190Y-47582380D01*
X168970952Y-47725238D01*
X168875714Y-47820476D01*
X168780476Y-47868095D01*
%TO.C,X2*%
X167780476Y-80502380D02*
X168447142Y-81502380D01*
X168447142Y-80502380D02*
X167780476Y-81502380D01*
X168780476Y-80597619D02*
X168828095Y-80550000D01*
X168923333Y-80502380D01*
X169161428Y-80502380D01*
X169256666Y-80550000D01*
X169304285Y-80597619D01*
X169351904Y-80692857D01*
X169351904Y-80788095D01*
X169304285Y-80930952D01*
X168732857Y-81502380D01*
X169351904Y-81502380D01*
%TO.C,X1*%
X167780476Y-88172380D02*
X168447142Y-89172380D01*
X168447142Y-88172380D02*
X167780476Y-89172380D01*
X169351904Y-89172380D02*
X168780476Y-89172380D01*
X169066190Y-89172380D02*
X169066190Y-88172380D01*
X168970952Y-88315238D01*
X168875714Y-88410476D01*
X168780476Y-88458095D01*
%TO.C,X2*%
X167780476Y-121772380D02*
X168447142Y-122772380D01*
X168447142Y-121772380D02*
X167780476Y-122772380D01*
X168780476Y-121867619D02*
X168828095Y-121820000D01*
X168923333Y-121772380D01*
X169161428Y-121772380D01*
X169256666Y-121820000D01*
X169304285Y-121867619D01*
X169351904Y-121962857D01*
X169351904Y-122058095D01*
X169304285Y-122200952D01*
X168732857Y-122772380D01*
X169351904Y-122772380D01*
%TO.C,X1*%
X167780476Y-129662380D02*
X168447142Y-130662380D01*
X168447142Y-129662380D02*
X167780476Y-130662380D01*
X169351904Y-130662380D02*
X168780476Y-130662380D01*
X169066190Y-130662380D02*
X169066190Y-129662380D01*
X168970952Y-129805238D01*
X168875714Y-129900476D01*
X168780476Y-129948095D01*
%TO.C,X2*%
X167780476Y-162492380D02*
X168447142Y-163492380D01*
X168447142Y-162492380D02*
X167780476Y-163492380D01*
X168780476Y-162587619D02*
X168828095Y-162540000D01*
X168923333Y-162492380D01*
X169161428Y-162492380D01*
X169256666Y-162540000D01*
X169304285Y-162587619D01*
X169351904Y-162682857D01*
X169351904Y-162778095D01*
X169304285Y-162920952D01*
X168732857Y-163492380D01*
X169351904Y-163492380D01*
%TO.C,X1*%
X167780476Y-171172380D02*
X168447142Y-172172380D01*
X168447142Y-171172380D02*
X167780476Y-172172380D01*
X169351904Y-172172380D02*
X168780476Y-172172380D01*
X169066190Y-172172380D02*
X169066190Y-171172380D01*
X168970952Y-171315238D01*
X168875714Y-171410476D01*
X168780476Y-171458095D01*
%TO.C,X2*%
X167780476Y-203912380D02*
X168447142Y-204912380D01*
X168447142Y-203912380D02*
X167780476Y-204912380D01*
X168780476Y-204007619D02*
X168828095Y-203960000D01*
X168923333Y-203912380D01*
X169161428Y-203912380D01*
X169256666Y-203960000D01*
X169304285Y-204007619D01*
X169351904Y-204102857D01*
X169351904Y-204198095D01*
X169304285Y-204340952D01*
X168732857Y-204912380D01*
X169351904Y-204912380D01*
%TO.C,C1*%
X141533333Y-58047142D02*
X141485714Y-58094761D01*
X141342857Y-58142380D01*
X141247619Y-58142380D01*
X141104761Y-58094761D01*
X141009523Y-57999523D01*
X140961904Y-57904285D01*
X140914285Y-57713809D01*
X140914285Y-57570952D01*
X140961904Y-57380476D01*
X141009523Y-57285238D01*
X141104761Y-57190000D01*
X141247619Y-57142380D01*
X141342857Y-57142380D01*
X141485714Y-57190000D01*
X141533333Y-57237619D01*
X142485714Y-58142380D02*
X141914285Y-58142380D01*
X142200000Y-58142380D02*
X142200000Y-57142380D01*
X142104761Y-57285238D01*
X142009523Y-57380476D01*
X141914285Y-57428095D01*
%TO.C,C2*%
X123993333Y-103277142D02*
X123945714Y-103324761D01*
X123802857Y-103372380D01*
X123707619Y-103372380D01*
X123564761Y-103324761D01*
X123469523Y-103229523D01*
X123421904Y-103134285D01*
X123374285Y-102943809D01*
X123374285Y-102800952D01*
X123421904Y-102610476D01*
X123469523Y-102515238D01*
X123564761Y-102420000D01*
X123707619Y-102372380D01*
X123802857Y-102372380D01*
X123945714Y-102420000D01*
X123993333Y-102467619D01*
X124374285Y-102467619D02*
X124421904Y-102420000D01*
X124517142Y-102372380D01*
X124755238Y-102372380D01*
X124850476Y-102420000D01*
X124898095Y-102467619D01*
X124945714Y-102562857D01*
X124945714Y-102658095D01*
X124898095Y-102800952D01*
X124326666Y-103372380D01*
X124945714Y-103372380D01*
%TO.C,C3*%
X141533333Y-140497142D02*
X141485714Y-140544761D01*
X141342857Y-140592380D01*
X141247619Y-140592380D01*
X141104761Y-140544761D01*
X141009523Y-140449523D01*
X140961904Y-140354285D01*
X140914285Y-140163809D01*
X140914285Y-140020952D01*
X140961904Y-139830476D01*
X141009523Y-139735238D01*
X141104761Y-139640000D01*
X141247619Y-139592380D01*
X141342857Y-139592380D01*
X141485714Y-139640000D01*
X141533333Y-139687619D01*
X141866666Y-139592380D02*
X142485714Y-139592380D01*
X142152380Y-139973333D01*
X142295238Y-139973333D01*
X142390476Y-140020952D01*
X142438095Y-140068571D01*
X142485714Y-140163809D01*
X142485714Y-140401904D01*
X142438095Y-140497142D01*
X142390476Y-140544761D01*
X142295238Y-140592380D01*
X142009523Y-140592380D01*
X141914285Y-140544761D01*
X141866666Y-140497142D01*
%TO.C,C4*%
X127533333Y-182707142D02*
X127485714Y-182754761D01*
X127342857Y-182802380D01*
X127247619Y-182802380D01*
X127104761Y-182754761D01*
X127009523Y-182659523D01*
X126961904Y-182564285D01*
X126914285Y-182373809D01*
X126914285Y-182230952D01*
X126961904Y-182040476D01*
X127009523Y-181945238D01*
X127104761Y-181850000D01*
X127247619Y-181802380D01*
X127342857Y-181802380D01*
X127485714Y-181850000D01*
X127533333Y-181897619D01*
X128390476Y-182135714D02*
X128390476Y-182802380D01*
X128152380Y-181754761D02*
X127914285Y-182469047D01*
X128533333Y-182469047D01*
%TO.C,C5*%
X141533333Y-50767142D02*
X141485714Y-50814761D01*
X141342857Y-50862380D01*
X141247619Y-50862380D01*
X141104761Y-50814761D01*
X141009523Y-50719523D01*
X140961904Y-50624285D01*
X140914285Y-50433809D01*
X140914285Y-50290952D01*
X140961904Y-50100476D01*
X141009523Y-50005238D01*
X141104761Y-49910000D01*
X141247619Y-49862380D01*
X141342857Y-49862380D01*
X141485714Y-49910000D01*
X141533333Y-49957619D01*
X142438095Y-49862380D02*
X141961904Y-49862380D01*
X141914285Y-50338571D01*
X141961904Y-50290952D01*
X142057142Y-50243333D01*
X142295238Y-50243333D01*
X142390476Y-50290952D01*
X142438095Y-50338571D01*
X142485714Y-50433809D01*
X142485714Y-50671904D01*
X142438095Y-50767142D01*
X142390476Y-50814761D01*
X142295238Y-50862380D01*
X142057142Y-50862380D01*
X141961904Y-50814761D01*
X141914285Y-50767142D01*
%TO.C,C6*%
X123903333Y-95997142D02*
X123855714Y-96044761D01*
X123712857Y-96092380D01*
X123617619Y-96092380D01*
X123474761Y-96044761D01*
X123379523Y-95949523D01*
X123331904Y-95854285D01*
X123284285Y-95663809D01*
X123284285Y-95520952D01*
X123331904Y-95330476D01*
X123379523Y-95235238D01*
X123474761Y-95140000D01*
X123617619Y-95092380D01*
X123712857Y-95092380D01*
X123855714Y-95140000D01*
X123903333Y-95187619D01*
X124760476Y-95092380D02*
X124570000Y-95092380D01*
X124474761Y-95140000D01*
X124427142Y-95187619D01*
X124331904Y-95330476D01*
X124284285Y-95520952D01*
X124284285Y-95901904D01*
X124331904Y-95997142D01*
X124379523Y-96044761D01*
X124474761Y-96092380D01*
X124665238Y-96092380D01*
X124760476Y-96044761D01*
X124808095Y-95997142D01*
X124855714Y-95901904D01*
X124855714Y-95663809D01*
X124808095Y-95568571D01*
X124760476Y-95520952D01*
X124665238Y-95473333D01*
X124474761Y-95473333D01*
X124379523Y-95520952D01*
X124331904Y-95568571D01*
X124284285Y-95663809D01*
%TO.C,C7*%
X141563333Y-133317142D02*
X141515714Y-133364761D01*
X141372857Y-133412380D01*
X141277619Y-133412380D01*
X141134761Y-133364761D01*
X141039523Y-133269523D01*
X140991904Y-133174285D01*
X140944285Y-132983809D01*
X140944285Y-132840952D01*
X140991904Y-132650476D01*
X141039523Y-132555238D01*
X141134761Y-132460000D01*
X141277619Y-132412380D01*
X141372857Y-132412380D01*
X141515714Y-132460000D01*
X141563333Y-132507619D01*
X141896666Y-132412380D02*
X142563333Y-132412380D01*
X142134761Y-133412380D01*
%TO.C,C8*%
X127533333Y-175117142D02*
X127485714Y-175164761D01*
X127342857Y-175212380D01*
X127247619Y-175212380D01*
X127104761Y-175164761D01*
X127009523Y-175069523D01*
X126961904Y-174974285D01*
X126914285Y-174783809D01*
X126914285Y-174640952D01*
X126961904Y-174450476D01*
X127009523Y-174355238D01*
X127104761Y-174260000D01*
X127247619Y-174212380D01*
X127342857Y-174212380D01*
X127485714Y-174260000D01*
X127533333Y-174307619D01*
X128104761Y-174640952D02*
X128009523Y-174593333D01*
X127961904Y-174545714D01*
X127914285Y-174450476D01*
X127914285Y-174402857D01*
X127961904Y-174307619D01*
X128009523Y-174260000D01*
X128104761Y-174212380D01*
X128295238Y-174212380D01*
X128390476Y-174260000D01*
X128438095Y-174307619D01*
X128485714Y-174402857D01*
X128485714Y-174450476D01*
X128438095Y-174545714D01*
X128390476Y-174593333D01*
X128295238Y-174640952D01*
X128104761Y-174640952D01*
X128009523Y-174688571D01*
X127961904Y-174736190D01*
X127914285Y-174831428D01*
X127914285Y-175021904D01*
X127961904Y-175117142D01*
X128009523Y-175164761D01*
X128104761Y-175212380D01*
X128295238Y-175212380D01*
X128390476Y-175164761D01*
X128438095Y-175117142D01*
X128485714Y-175021904D01*
X128485714Y-174831428D01*
X128438095Y-174736190D01*
X128390476Y-174688571D01*
X128295238Y-174640952D01*
%TO.C,F1*%
X72476666Y-51068571D02*
X72143333Y-51068571D01*
X72143333Y-51592380D02*
X72143333Y-50592380D01*
X72619523Y-50592380D01*
X73524285Y-51592380D02*
X72952857Y-51592380D01*
X73238571Y-51592380D02*
X73238571Y-50592380D01*
X73143333Y-50735238D01*
X73048095Y-50830476D01*
X72952857Y-50878095D01*
%TO.C,F2*%
X98726666Y-191028571D02*
X98393333Y-191028571D01*
X98393333Y-191552380D02*
X98393333Y-190552380D01*
X98869523Y-190552380D01*
X99202857Y-190647619D02*
X99250476Y-190600000D01*
X99345714Y-190552380D01*
X99583809Y-190552380D01*
X99679047Y-190600000D01*
X99726666Y-190647619D01*
X99774285Y-190742857D01*
X99774285Y-190838095D01*
X99726666Y-190980952D01*
X99155238Y-191552380D01*
X99774285Y-191552380D01*
%TO.C,F3*%
X83956666Y-140426071D02*
X83623333Y-140426071D01*
X83623333Y-140949880D02*
X83623333Y-139949880D01*
X84099523Y-139949880D01*
X84385238Y-139949880D02*
X85004285Y-139949880D01*
X84670952Y-140330833D01*
X84813809Y-140330833D01*
X84909047Y-140378452D01*
X84956666Y-140426071D01*
X85004285Y-140521309D01*
X85004285Y-140759404D01*
X84956666Y-140854642D01*
X84909047Y-140902261D01*
X84813809Y-140949880D01*
X84528095Y-140949880D01*
X84432857Y-140902261D01*
X84385238Y-140854642D01*
%TO.C,F4*%
X42446666Y-113282739D02*
X42113333Y-113282739D01*
X42113333Y-113806548D02*
X42113333Y-112806548D01*
X42589523Y-112806548D01*
X43399047Y-113139882D02*
X43399047Y-113806548D01*
X43160952Y-112758929D02*
X42922857Y-113473215D01*
X43541904Y-113473215D01*
%TO.C,F5*%
X72536666Y-61578571D02*
X72203333Y-61578571D01*
X72203333Y-62102380D02*
X72203333Y-61102380D01*
X72679523Y-61102380D01*
X73536666Y-61102380D02*
X73060476Y-61102380D01*
X73012857Y-61578571D01*
X73060476Y-61530952D01*
X73155714Y-61483333D01*
X73393809Y-61483333D01*
X73489047Y-61530952D01*
X73536666Y-61578571D01*
X73584285Y-61673809D01*
X73584285Y-61911904D01*
X73536666Y-62007142D01*
X73489047Y-62054761D01*
X73393809Y-62102380D01*
X73155714Y-62102380D01*
X73060476Y-62054761D01*
X73012857Y-62007142D01*
%TO.C,F6*%
X59446666Y-191088571D02*
X59113333Y-191088571D01*
X59113333Y-191612380D02*
X59113333Y-190612380D01*
X59589523Y-190612380D01*
X60399047Y-190612380D02*
X60208571Y-190612380D01*
X60113333Y-190660000D01*
X60065714Y-190707619D01*
X59970476Y-190850476D01*
X59922857Y-191040952D01*
X59922857Y-191421904D01*
X59970476Y-191517142D01*
X60018095Y-191564761D01*
X60113333Y-191612380D01*
X60303809Y-191612380D01*
X60399047Y-191564761D01*
X60446666Y-191517142D01*
X60494285Y-191421904D01*
X60494285Y-191183809D01*
X60446666Y-191088571D01*
X60399047Y-191040952D01*
X60303809Y-190993333D01*
X60113333Y-190993333D01*
X60018095Y-191040952D01*
X59970476Y-191088571D01*
X59922857Y-191183809D01*
%TO.C,F7*%
X74156666Y-140536071D02*
X73823333Y-140536071D01*
X73823333Y-141059880D02*
X73823333Y-140059880D01*
X74299523Y-140059880D01*
X74585238Y-140059880D02*
X75251904Y-140059880D01*
X74823333Y-141059880D01*
%TO.C,F8*%
X53066666Y-113338571D02*
X52733333Y-113338571D01*
X52733333Y-113862380D02*
X52733333Y-112862380D01*
X53209523Y-112862380D01*
X53733333Y-113290952D02*
X53638095Y-113243333D01*
X53590476Y-113195714D01*
X53542857Y-113100476D01*
X53542857Y-113052857D01*
X53590476Y-112957619D01*
X53638095Y-112910000D01*
X53733333Y-112862380D01*
X53923809Y-112862380D01*
X54019047Y-112910000D01*
X54066666Y-112957619D01*
X54114285Y-113052857D01*
X54114285Y-113100476D01*
X54066666Y-113195714D01*
X54019047Y-113243333D01*
X53923809Y-113290952D01*
X53733333Y-113290952D01*
X53638095Y-113338571D01*
X53590476Y-113386190D01*
X53542857Y-113481428D01*
X53542857Y-113671904D01*
X53590476Y-113767142D01*
X53638095Y-113814761D01*
X53733333Y-113862380D01*
X53923809Y-113862380D01*
X54019047Y-113814761D01*
X54066666Y-113767142D01*
X54114285Y-113671904D01*
X54114285Y-113481428D01*
X54066666Y-113386190D01*
X54019047Y-113338571D01*
X53923809Y-113290952D01*
%TO.C,R9*%
X138323333Y-57982380D02*
X137990000Y-57506190D01*
X137751904Y-57982380D02*
X137751904Y-56982380D01*
X138132857Y-56982380D01*
X138228095Y-57030000D01*
X138275714Y-57077619D01*
X138323333Y-57172857D01*
X138323333Y-57315714D01*
X138275714Y-57410952D01*
X138228095Y-57458571D01*
X138132857Y-57506190D01*
X137751904Y-57506190D01*
X138799523Y-57982380D02*
X138990000Y-57982380D01*
X139085238Y-57934761D01*
X139132857Y-57887142D01*
X139228095Y-57744285D01*
X139275714Y-57553809D01*
X139275714Y-57172857D01*
X139228095Y-57077619D01*
X139180476Y-57030000D01*
X139085238Y-56982380D01*
X138894761Y-56982380D01*
X138799523Y-57030000D01*
X138751904Y-57077619D01*
X138704285Y-57172857D01*
X138704285Y-57410952D01*
X138751904Y-57506190D01*
X138799523Y-57553809D01*
X138894761Y-57601428D01*
X139085238Y-57601428D01*
X139180476Y-57553809D01*
X139228095Y-57506190D01*
X139275714Y-57410952D01*
%TO.C,R10*%
X120187142Y-103262380D02*
X119853809Y-102786190D01*
X119615714Y-103262380D02*
X119615714Y-102262380D01*
X119996666Y-102262380D01*
X120091904Y-102310000D01*
X120139523Y-102357619D01*
X120187142Y-102452857D01*
X120187142Y-102595714D01*
X120139523Y-102690952D01*
X120091904Y-102738571D01*
X119996666Y-102786190D01*
X119615714Y-102786190D01*
X121139523Y-103262380D02*
X120568095Y-103262380D01*
X120853809Y-103262380D02*
X120853809Y-102262380D01*
X120758571Y-102405238D01*
X120663333Y-102500476D01*
X120568095Y-102548095D01*
X121758571Y-102262380D02*
X121853809Y-102262380D01*
X121949047Y-102310000D01*
X121996666Y-102357619D01*
X122044285Y-102452857D01*
X122091904Y-102643333D01*
X122091904Y-102881428D01*
X122044285Y-103071904D01*
X121996666Y-103167142D01*
X121949047Y-103214761D01*
X121853809Y-103262380D01*
X121758571Y-103262380D01*
X121663333Y-103214761D01*
X121615714Y-103167142D01*
X121568095Y-103071904D01*
X121520476Y-102881428D01*
X121520476Y-102643333D01*
X121568095Y-102452857D01*
X121615714Y-102357619D01*
X121663333Y-102310000D01*
X121758571Y-102262380D01*
%TO.C,R11*%
X138057142Y-140462380D02*
X137723809Y-139986190D01*
X137485714Y-140462380D02*
X137485714Y-139462380D01*
X137866666Y-139462380D01*
X137961904Y-139510000D01*
X138009523Y-139557619D01*
X138057142Y-139652857D01*
X138057142Y-139795714D01*
X138009523Y-139890952D01*
X137961904Y-139938571D01*
X137866666Y-139986190D01*
X137485714Y-139986190D01*
X139009523Y-140462380D02*
X138438095Y-140462380D01*
X138723809Y-140462380D02*
X138723809Y-139462380D01*
X138628571Y-139605238D01*
X138533333Y-139700476D01*
X138438095Y-139748095D01*
X139961904Y-140462380D02*
X139390476Y-140462380D01*
X139676190Y-140462380D02*
X139676190Y-139462380D01*
X139580952Y-139605238D01*
X139485714Y-139700476D01*
X139390476Y-139748095D01*
%TO.C,R12*%
X123647142Y-182712380D02*
X123313809Y-182236190D01*
X123075714Y-182712380D02*
X123075714Y-181712380D01*
X123456666Y-181712380D01*
X123551904Y-181760000D01*
X123599523Y-181807619D01*
X123647142Y-181902857D01*
X123647142Y-182045714D01*
X123599523Y-182140952D01*
X123551904Y-182188571D01*
X123456666Y-182236190D01*
X123075714Y-182236190D01*
X124599523Y-182712380D02*
X124028095Y-182712380D01*
X124313809Y-182712380D02*
X124313809Y-181712380D01*
X124218571Y-181855238D01*
X124123333Y-181950476D01*
X124028095Y-181998095D01*
X124980476Y-181807619D02*
X125028095Y-181760000D01*
X125123333Y-181712380D01*
X125361428Y-181712380D01*
X125456666Y-181760000D01*
X125504285Y-181807619D01*
X125551904Y-181902857D01*
X125551904Y-181998095D01*
X125504285Y-182140952D01*
X124932857Y-182712380D01*
X125551904Y-182712380D01*
%TO.C,R13*%
X137847142Y-50842380D02*
X137513809Y-50366190D01*
X137275714Y-50842380D02*
X137275714Y-49842380D01*
X137656666Y-49842380D01*
X137751904Y-49890000D01*
X137799523Y-49937619D01*
X137847142Y-50032857D01*
X137847142Y-50175714D01*
X137799523Y-50270952D01*
X137751904Y-50318571D01*
X137656666Y-50366190D01*
X137275714Y-50366190D01*
X138799523Y-50842380D02*
X138228095Y-50842380D01*
X138513809Y-50842380D02*
X138513809Y-49842380D01*
X138418571Y-49985238D01*
X138323333Y-50080476D01*
X138228095Y-50128095D01*
X139132857Y-49842380D02*
X139751904Y-49842380D01*
X139418571Y-50223333D01*
X139561428Y-50223333D01*
X139656666Y-50270952D01*
X139704285Y-50318571D01*
X139751904Y-50413809D01*
X139751904Y-50651904D01*
X139704285Y-50747142D01*
X139656666Y-50794761D01*
X139561428Y-50842380D01*
X139275714Y-50842380D01*
X139180476Y-50794761D01*
X139132857Y-50747142D01*
%TO.C,R14*%
X120197142Y-96072380D02*
X119863809Y-95596190D01*
X119625714Y-96072380D02*
X119625714Y-95072380D01*
X120006666Y-95072380D01*
X120101904Y-95120000D01*
X120149523Y-95167619D01*
X120197142Y-95262857D01*
X120197142Y-95405714D01*
X120149523Y-95500952D01*
X120101904Y-95548571D01*
X120006666Y-95596190D01*
X119625714Y-95596190D01*
X121149523Y-96072380D02*
X120578095Y-96072380D01*
X120863809Y-96072380D02*
X120863809Y-95072380D01*
X120768571Y-95215238D01*
X120673333Y-95310476D01*
X120578095Y-95358095D01*
X122006666Y-95405714D02*
X122006666Y-96072380D01*
X121768571Y-95024761D02*
X121530476Y-95739047D01*
X122149523Y-95739047D01*
%TO.C,R15*%
X137947142Y-133372380D02*
X137613809Y-132896190D01*
X137375714Y-133372380D02*
X137375714Y-132372380D01*
X137756666Y-132372380D01*
X137851904Y-132420000D01*
X137899523Y-132467619D01*
X137947142Y-132562857D01*
X137947142Y-132705714D01*
X137899523Y-132800952D01*
X137851904Y-132848571D01*
X137756666Y-132896190D01*
X137375714Y-132896190D01*
X138899523Y-133372380D02*
X138328095Y-133372380D01*
X138613809Y-133372380D02*
X138613809Y-132372380D01*
X138518571Y-132515238D01*
X138423333Y-132610476D01*
X138328095Y-132658095D01*
X139804285Y-132372380D02*
X139328095Y-132372380D01*
X139280476Y-132848571D01*
X139328095Y-132800952D01*
X139423333Y-132753333D01*
X139661428Y-132753333D01*
X139756666Y-132800952D01*
X139804285Y-132848571D01*
X139851904Y-132943809D01*
X139851904Y-133181904D01*
X139804285Y-133277142D01*
X139756666Y-133324761D01*
X139661428Y-133372380D01*
X139423333Y-133372380D01*
X139328095Y-133324761D01*
X139280476Y-133277142D01*
%TO.C,R16*%
X123667142Y-175232380D02*
X123333809Y-174756190D01*
X123095714Y-175232380D02*
X123095714Y-174232380D01*
X123476666Y-174232380D01*
X123571904Y-174280000D01*
X123619523Y-174327619D01*
X123667142Y-174422857D01*
X123667142Y-174565714D01*
X123619523Y-174660952D01*
X123571904Y-174708571D01*
X123476666Y-174756190D01*
X123095714Y-174756190D01*
X124619523Y-175232380D02*
X124048095Y-175232380D01*
X124333809Y-175232380D02*
X124333809Y-174232380D01*
X124238571Y-174375238D01*
X124143333Y-174470476D01*
X124048095Y-174518095D01*
X125476666Y-174232380D02*
X125286190Y-174232380D01*
X125190952Y-174280000D01*
X125143333Y-174327619D01*
X125048095Y-174470476D01*
X125000476Y-174660952D01*
X125000476Y-175041904D01*
X125048095Y-175137142D01*
X125095714Y-175184761D01*
X125190952Y-175232380D01*
X125381428Y-175232380D01*
X125476666Y-175184761D01*
X125524285Y-175137142D01*
X125571904Y-175041904D01*
X125571904Y-174803809D01*
X125524285Y-174708571D01*
X125476666Y-174660952D01*
X125381428Y-174613333D01*
X125190952Y-174613333D01*
X125095714Y-174660952D01*
X125048095Y-174708571D01*
X125000476Y-174803809D01*
%TO.C,SW4*%
X90236666Y-161554761D02*
X90379523Y-161602380D01*
X90617619Y-161602380D01*
X90712857Y-161554761D01*
X90760476Y-161507142D01*
X90808095Y-161411904D01*
X90808095Y-161316666D01*
X90760476Y-161221428D01*
X90712857Y-161173809D01*
X90617619Y-161126190D01*
X90427142Y-161078571D01*
X90331904Y-161030952D01*
X90284285Y-160983333D01*
X90236666Y-160888095D01*
X90236666Y-160792857D01*
X90284285Y-160697619D01*
X90331904Y-160650000D01*
X90427142Y-160602380D01*
X90665238Y-160602380D01*
X90808095Y-160650000D01*
X91141428Y-160602380D02*
X91379523Y-161602380D01*
X91570000Y-160888095D01*
X91760476Y-161602380D01*
X91998571Y-160602380D01*
X92808095Y-160935714D02*
X92808095Y-161602380D01*
X92570000Y-160554761D02*
X92331904Y-161269047D01*
X92950952Y-161269047D01*
D12*
X89698571Y-153394761D02*
X89698571Y-151394761D01*
X90841428Y-153394761D01*
X90841428Y-151394761D01*
X92936666Y-153204285D02*
X92841428Y-153299523D01*
X92555714Y-153394761D01*
X92365238Y-153394761D01*
X92079523Y-153299523D01*
X91889047Y-153109047D01*
X91793809Y-152918571D01*
X91698571Y-152537619D01*
X91698571Y-152251904D01*
X91793809Y-151870952D01*
X91889047Y-151680476D01*
X92079523Y-151490000D01*
X92365238Y-151394761D01*
X92555714Y-151394761D01*
X92841428Y-151490000D01*
X92936666Y-151585238D01*
X66251428Y-208554285D02*
X66156190Y-208649523D01*
X65870476Y-208744761D01*
X65680000Y-208744761D01*
X65394285Y-208649523D01*
X65203809Y-208459047D01*
X65108571Y-208268571D01*
X65013333Y-207887619D01*
X65013333Y-207601904D01*
X65108571Y-207220952D01*
X65203809Y-207030476D01*
X65394285Y-206840000D01*
X65680000Y-206744761D01*
X65870476Y-206744761D01*
X66156190Y-206840000D01*
X66251428Y-206935238D01*
X67489523Y-206744761D02*
X67870476Y-206744761D01*
X68060952Y-206840000D01*
X68251428Y-207030476D01*
X68346666Y-207411428D01*
X68346666Y-208078095D01*
X68251428Y-208459047D01*
X68060952Y-208649523D01*
X67870476Y-208744761D01*
X67489523Y-208744761D01*
X67299047Y-208649523D01*
X67108571Y-208459047D01*
X67013333Y-208078095D01*
X67013333Y-207411428D01*
X67108571Y-207030476D01*
X67299047Y-206840000D01*
X67489523Y-206744761D01*
X69203809Y-208744761D02*
X69203809Y-206744761D01*
X69870476Y-208173333D01*
X70537142Y-206744761D01*
X70537142Y-208744761D01*
X71013333Y-208935238D02*
X72537142Y-208935238D01*
X73013333Y-208744761D02*
X73013333Y-206744761D01*
X74156190Y-208744761D01*
X74156190Y-206744761D01*
X75489523Y-206744761D02*
X75870476Y-206744761D01*
X76060952Y-206840000D01*
X76251428Y-207030476D01*
X76346666Y-207411428D01*
X76346666Y-208078095D01*
X76251428Y-208459047D01*
X76060952Y-208649523D01*
X75870476Y-208744761D01*
X75489523Y-208744761D01*
X75299047Y-208649523D01*
X75108571Y-208459047D01*
X75013333Y-208078095D01*
X75013333Y-207411428D01*
X75108571Y-207030476D01*
X75299047Y-206840000D01*
X75489523Y-206744761D01*
X83029047Y-208444285D02*
X82933809Y-208539523D01*
X82648095Y-208634761D01*
X82457619Y-208634761D01*
X82171904Y-208539523D01*
X81981428Y-208349047D01*
X81886190Y-208158571D01*
X81790952Y-207777619D01*
X81790952Y-207491904D01*
X81886190Y-207110952D01*
X81981428Y-206920476D01*
X82171904Y-206730000D01*
X82457619Y-206634761D01*
X82648095Y-206634761D01*
X82933809Y-206730000D01*
X83029047Y-206825238D01*
X84267142Y-206634761D02*
X84648095Y-206634761D01*
X84838571Y-206730000D01*
X85029047Y-206920476D01*
X85124285Y-207301428D01*
X85124285Y-207968095D01*
X85029047Y-208349047D01*
X84838571Y-208539523D01*
X84648095Y-208634761D01*
X84267142Y-208634761D01*
X84076666Y-208539523D01*
X83886190Y-208349047D01*
X83790952Y-207968095D01*
X83790952Y-207301428D01*
X83886190Y-206920476D01*
X84076666Y-206730000D01*
X84267142Y-206634761D01*
X85981428Y-208634761D02*
X85981428Y-206634761D01*
X86648095Y-208063333D01*
X87314761Y-206634761D01*
X87314761Y-208634761D01*
X87790952Y-208825238D02*
X89314761Y-208825238D01*
X89790952Y-208634761D02*
X89790952Y-206634761D01*
X90933809Y-208634761D01*
X90933809Y-206634761D01*
X93029047Y-208444285D02*
X92933809Y-208539523D01*
X92648095Y-208634761D01*
X92457619Y-208634761D01*
X92171904Y-208539523D01*
X91981428Y-208349047D01*
X91886190Y-208158571D01*
X91790952Y-207777619D01*
X91790952Y-207491904D01*
X91886190Y-207110952D01*
X91981428Y-206920476D01*
X92171904Y-206730000D01*
X92457619Y-206634761D01*
X92648095Y-206634761D01*
X92933809Y-206730000D01*
X93029047Y-206825238D01*
X65760952Y-153444761D02*
X65760952Y-151444761D01*
X66903809Y-153444761D01*
X66903809Y-151444761D01*
X68237142Y-151444761D02*
X68618095Y-151444761D01*
X68808571Y-151540000D01*
X68999047Y-151730476D01*
X69094285Y-152111428D01*
X69094285Y-152778095D01*
X68999047Y-153159047D01*
X68808571Y-153349523D01*
X68618095Y-153444761D01*
X68237142Y-153444761D01*
X68046666Y-153349523D01*
X67856190Y-153159047D01*
X67760952Y-152778095D01*
X67760952Y-152111428D01*
X67856190Y-151730476D01*
X68046666Y-151540000D01*
X68237142Y-151444761D01*
%TO.C,SW2*%
D11*
X90236666Y-79814761D02*
X90379523Y-79862380D01*
X90617619Y-79862380D01*
X90712857Y-79814761D01*
X90760476Y-79767142D01*
X90808095Y-79671904D01*
X90808095Y-79576666D01*
X90760476Y-79481428D01*
X90712857Y-79433809D01*
X90617619Y-79386190D01*
X90427142Y-79338571D01*
X90331904Y-79290952D01*
X90284285Y-79243333D01*
X90236666Y-79148095D01*
X90236666Y-79052857D01*
X90284285Y-78957619D01*
X90331904Y-78910000D01*
X90427142Y-78862380D01*
X90665238Y-78862380D01*
X90808095Y-78910000D01*
X91141428Y-78862380D02*
X91379523Y-79862380D01*
X91570000Y-79148095D01*
X91760476Y-79862380D01*
X91998571Y-78862380D01*
X92331904Y-78957619D02*
X92379523Y-78910000D01*
X92474761Y-78862380D01*
X92712857Y-78862380D01*
X92808095Y-78910000D01*
X92855714Y-78957619D01*
X92903333Y-79052857D01*
X92903333Y-79148095D01*
X92855714Y-79290952D01*
X92284285Y-79862380D01*
X92903333Y-79862380D01*
D12*
X89698571Y-71654761D02*
X89698571Y-69654761D01*
X90841428Y-71654761D01*
X90841428Y-69654761D01*
X92936666Y-71464285D02*
X92841428Y-71559523D01*
X92555714Y-71654761D01*
X92365238Y-71654761D01*
X92079523Y-71559523D01*
X91889047Y-71369047D01*
X91793809Y-71178571D01*
X91698571Y-70797619D01*
X91698571Y-70511904D01*
X91793809Y-70130952D01*
X91889047Y-69940476D01*
X92079523Y-69750000D01*
X92365238Y-69654761D01*
X92555714Y-69654761D01*
X92841428Y-69750000D01*
X92936666Y-69845238D01*
X64951428Y-144464285D02*
X64856190Y-144559523D01*
X64570476Y-144654761D01*
X64380000Y-144654761D01*
X64094285Y-144559523D01*
X63903809Y-144369047D01*
X63808571Y-144178571D01*
X63713333Y-143797619D01*
X63713333Y-143511904D01*
X63808571Y-143130952D01*
X63903809Y-142940476D01*
X64094285Y-142750000D01*
X64380000Y-142654761D01*
X64570476Y-142654761D01*
X64856190Y-142750000D01*
X64951428Y-142845238D01*
X66189523Y-142654761D02*
X66570476Y-142654761D01*
X66760952Y-142750000D01*
X66951428Y-142940476D01*
X67046666Y-143321428D01*
X67046666Y-143988095D01*
X66951428Y-144369047D01*
X66760952Y-144559523D01*
X66570476Y-144654761D01*
X66189523Y-144654761D01*
X65999047Y-144559523D01*
X65808571Y-144369047D01*
X65713333Y-143988095D01*
X65713333Y-143321428D01*
X65808571Y-142940476D01*
X65999047Y-142750000D01*
X66189523Y-142654761D01*
X67903809Y-144654761D02*
X67903809Y-142654761D01*
X68570476Y-144083333D01*
X69237142Y-142654761D01*
X69237142Y-144654761D01*
X69713333Y-144845238D02*
X71237142Y-144845238D01*
X71713333Y-144654761D02*
X71713333Y-142654761D01*
X72856190Y-144654761D01*
X72856190Y-142654761D01*
X74189523Y-142654761D02*
X74570476Y-142654761D01*
X74760952Y-142750000D01*
X74951428Y-142940476D01*
X75046666Y-143321428D01*
X75046666Y-143988095D01*
X74951428Y-144369047D01*
X74760952Y-144559523D01*
X74570476Y-144654761D01*
X74189523Y-144654761D01*
X73999047Y-144559523D01*
X73808571Y-144369047D01*
X73713333Y-143988095D01*
X73713333Y-143321428D01*
X73808571Y-142940476D01*
X73999047Y-142750000D01*
X74189523Y-142654761D01*
X87009047Y-144744285D02*
X86913809Y-144839523D01*
X86628095Y-144934761D01*
X86437619Y-144934761D01*
X86151904Y-144839523D01*
X85961428Y-144649047D01*
X85866190Y-144458571D01*
X85770952Y-144077619D01*
X85770952Y-143791904D01*
X85866190Y-143410952D01*
X85961428Y-143220476D01*
X86151904Y-143030000D01*
X86437619Y-142934761D01*
X86628095Y-142934761D01*
X86913809Y-143030000D01*
X87009047Y-143125238D01*
X88247142Y-142934761D02*
X88628095Y-142934761D01*
X88818571Y-143030000D01*
X89009047Y-143220476D01*
X89104285Y-143601428D01*
X89104285Y-144268095D01*
X89009047Y-144649047D01*
X88818571Y-144839523D01*
X88628095Y-144934761D01*
X88247142Y-144934761D01*
X88056666Y-144839523D01*
X87866190Y-144649047D01*
X87770952Y-144268095D01*
X87770952Y-143601428D01*
X87866190Y-143220476D01*
X88056666Y-143030000D01*
X88247142Y-142934761D01*
X89961428Y-144934761D02*
X89961428Y-142934761D01*
X90628095Y-144363333D01*
X91294761Y-142934761D01*
X91294761Y-144934761D01*
X91770952Y-145125238D02*
X93294761Y-145125238D01*
X93770952Y-144934761D02*
X93770952Y-142934761D01*
X94913809Y-144934761D01*
X94913809Y-142934761D01*
X97009047Y-144744285D02*
X96913809Y-144839523D01*
X96628095Y-144934761D01*
X96437619Y-144934761D01*
X96151904Y-144839523D01*
X95961428Y-144649047D01*
X95866190Y-144458571D01*
X95770952Y-144077619D01*
X95770952Y-143791904D01*
X95866190Y-143410952D01*
X95961428Y-143220476D01*
X96151904Y-143030000D01*
X96437619Y-142934761D01*
X96628095Y-142934761D01*
X96913809Y-143030000D01*
X97009047Y-143125238D01*
X65760952Y-71704761D02*
X65760952Y-69704761D01*
X66903809Y-71704761D01*
X66903809Y-69704761D01*
X68237142Y-69704761D02*
X68618095Y-69704761D01*
X68808571Y-69800000D01*
X68999047Y-69990476D01*
X69094285Y-70371428D01*
X69094285Y-71038095D01*
X68999047Y-71419047D01*
X68808571Y-71609523D01*
X68618095Y-71704761D01*
X68237142Y-71704761D01*
X68046666Y-71609523D01*
X67856190Y-71419047D01*
X67760952Y-71038095D01*
X67760952Y-70371428D01*
X67856190Y-69990476D01*
X68046666Y-69800000D01*
X68237142Y-69704761D01*
%TO.C,SW3*%
D11*
X34666666Y-174868093D02*
X34809523Y-174915712D01*
X35047619Y-174915712D01*
X35142857Y-174868093D01*
X35190476Y-174820474D01*
X35238095Y-174725236D01*
X35238095Y-174629998D01*
X35190476Y-174534760D01*
X35142857Y-174487141D01*
X35047619Y-174439522D01*
X34857142Y-174391903D01*
X34761904Y-174344284D01*
X34714285Y-174296665D01*
X34666666Y-174201427D01*
X34666666Y-174106189D01*
X34714285Y-174010951D01*
X34761904Y-173963332D01*
X34857142Y-173915712D01*
X35095238Y-173915712D01*
X35238095Y-173963332D01*
X35571428Y-173915712D02*
X35809523Y-174915712D01*
X36000000Y-174201427D01*
X36190476Y-174915712D01*
X36428571Y-173915712D01*
X36714285Y-173915712D02*
X37333333Y-173915712D01*
X37000000Y-174296665D01*
X37142857Y-174296665D01*
X37238095Y-174344284D01*
X37285714Y-174391903D01*
X37333333Y-174487141D01*
X37333333Y-174725236D01*
X37285714Y-174820474D01*
X37238095Y-174868093D01*
X37142857Y-174915712D01*
X36857142Y-174915712D01*
X36761904Y-174868093D01*
X36714285Y-174820474D01*
D12*
X58570952Y-183978093D02*
X58570952Y-181978093D01*
X59713809Y-183978093D01*
X59713809Y-181978093D01*
X61047142Y-181978093D02*
X61428095Y-181978093D01*
X61618571Y-182073332D01*
X61809047Y-182263808D01*
X61904285Y-182644760D01*
X61904285Y-183311427D01*
X61809047Y-183692379D01*
X61618571Y-183882855D01*
X61428095Y-183978093D01*
X61047142Y-183978093D01*
X60856666Y-183882855D01*
X60666190Y-183692379D01*
X60570952Y-183311427D01*
X60570952Y-182644760D01*
X60666190Y-182263808D01*
X60856666Y-182073332D01*
X61047142Y-181978093D01*
X33969047Y-110984285D02*
X33873809Y-111079523D01*
X33588095Y-111174761D01*
X33397619Y-111174761D01*
X33111904Y-111079523D01*
X32921428Y-110889047D01*
X32826190Y-110698571D01*
X32730952Y-110317619D01*
X32730952Y-110031904D01*
X32826190Y-109650952D01*
X32921428Y-109460476D01*
X33111904Y-109270000D01*
X33397619Y-109174761D01*
X33588095Y-109174761D01*
X33873809Y-109270000D01*
X33969047Y-109365238D01*
X35207142Y-109174761D02*
X35588095Y-109174761D01*
X35778571Y-109270000D01*
X35969047Y-109460476D01*
X36064285Y-109841428D01*
X36064285Y-110508095D01*
X35969047Y-110889047D01*
X35778571Y-111079523D01*
X35588095Y-111174761D01*
X35207142Y-111174761D01*
X35016666Y-111079523D01*
X34826190Y-110889047D01*
X34730952Y-110508095D01*
X34730952Y-109841428D01*
X34826190Y-109460476D01*
X35016666Y-109270000D01*
X35207142Y-109174761D01*
X36921428Y-111174761D02*
X36921428Y-109174761D01*
X37588095Y-110603333D01*
X38254761Y-109174761D01*
X38254761Y-111174761D01*
X38730952Y-111365238D02*
X40254761Y-111365238D01*
X40730952Y-111174761D02*
X40730952Y-109174761D01*
X41873809Y-111174761D01*
X41873809Y-109174761D01*
X43969047Y-110984285D02*
X43873809Y-111079523D01*
X43588095Y-111174761D01*
X43397619Y-111174761D01*
X43111904Y-111079523D01*
X42921428Y-110889047D01*
X42826190Y-110698571D01*
X42730952Y-110317619D01*
X42730952Y-110031904D01*
X42826190Y-109650952D01*
X42921428Y-109460476D01*
X43111904Y-109270000D01*
X43397619Y-109174761D01*
X43588095Y-109174761D01*
X43873809Y-109270000D01*
X43969047Y-109365238D01*
X53471428Y-111134285D02*
X53376190Y-111229523D01*
X53090476Y-111324761D01*
X52900000Y-111324761D01*
X52614285Y-111229523D01*
X52423809Y-111039047D01*
X52328571Y-110848571D01*
X52233333Y-110467619D01*
X52233333Y-110181904D01*
X52328571Y-109800952D01*
X52423809Y-109610476D01*
X52614285Y-109420000D01*
X52900000Y-109324761D01*
X53090476Y-109324761D01*
X53376190Y-109420000D01*
X53471428Y-109515238D01*
X54709523Y-109324761D02*
X55090476Y-109324761D01*
X55280952Y-109420000D01*
X55471428Y-109610476D01*
X55566666Y-109991428D01*
X55566666Y-110658095D01*
X55471428Y-111039047D01*
X55280952Y-111229523D01*
X55090476Y-111324761D01*
X54709523Y-111324761D01*
X54519047Y-111229523D01*
X54328571Y-111039047D01*
X54233333Y-110658095D01*
X54233333Y-109991428D01*
X54328571Y-109610476D01*
X54519047Y-109420000D01*
X54709523Y-109324761D01*
X56423809Y-111324761D02*
X56423809Y-109324761D01*
X57090476Y-110753333D01*
X57757142Y-109324761D01*
X57757142Y-111324761D01*
X58233333Y-111515238D02*
X59757142Y-111515238D01*
X60233333Y-111324761D02*
X60233333Y-109324761D01*
X61376190Y-111324761D01*
X61376190Y-109324761D01*
X62709523Y-109324761D02*
X63090476Y-109324761D01*
X63280952Y-109420000D01*
X63471428Y-109610476D01*
X63566666Y-109991428D01*
X63566666Y-110658095D01*
X63471428Y-111039047D01*
X63280952Y-111229523D01*
X63090476Y-111324761D01*
X62709523Y-111324761D01*
X62519047Y-111229523D01*
X62328571Y-111039047D01*
X62233333Y-110658095D01*
X62233333Y-109991428D01*
X62328571Y-109610476D01*
X62519047Y-109420000D01*
X62709523Y-109324761D01*
X34728571Y-184028093D02*
X34728571Y-182028093D01*
X35871428Y-184028093D01*
X35871428Y-182028093D01*
X37966666Y-183837617D02*
X37871428Y-183932855D01*
X37585714Y-184028093D01*
X37395238Y-184028093D01*
X37109523Y-183932855D01*
X36919047Y-183742379D01*
X36823809Y-183551903D01*
X36728571Y-183170951D01*
X36728571Y-182885236D01*
X36823809Y-182504284D01*
X36919047Y-182313808D01*
X37109523Y-182123332D01*
X37395238Y-182028093D01*
X37585714Y-182028093D01*
X37871428Y-182123332D01*
X37966666Y-182218570D01*
%TD*%
M02*
