M48
; DRILL file {KiCad (5.1.9)-1} date 11/07/21 02:37:47
; FORMAT={-:-/ absolute / metric / decimal}
; #@! TF.CreationDate,2021-11-07T02:37:47+01:00
; #@! TF.GenerationSoftware,Kicad,Pcbnew,(5.1.9)-1
; #@! TF.FileFunction,Plated,1,2,PTH
FMAT,2
METRIC
T1C1.000
T2C1.400
T3C4.000
T4C22.000
%
G90
G05
T2
X64.772Y-193.712
T3
X36.4Y-40.04
X36.4Y-122.583
X36.42Y-96.26
X36.42Y-178.803
X43.31Y-37.57
X43.31Y-215.57
X60.0Y-206.0
X60.1Y-40.01
X60.1Y-122.553
X60.12Y-96.28
X60.12Y-178.823
X67.45Y-75.05
X67.45Y-156.79
X67.47Y-131.32
X68.508Y-37.57
X68.508Y-215.57
X91.15Y-75.07
X91.15Y-156.81
X91.17Y-131.29
X93.706Y-37.57
X93.706Y-215.17
X99.0Y-206.0
X99.61Y-49.79
X99.61Y-79.5
X99.61Y-132.27
X99.61Y-162.01
X111.35Y-90.68
X111.35Y-120.77
X111.35Y-173.57
X111.35Y-203.65
X118.904Y-37.57
X118.904Y-215.17
X132.08Y-49.79
X132.08Y-79.5
X132.08Y-132.27
X132.08Y-162.0
X140.82Y-90.68
X140.82Y-120.74
X140.82Y-173.57
X140.82Y-203.64
X144.102Y-37.57
X144.102Y-215.17
X169.3Y-37.57
X169.3Y-215.17
X174.22Y-50.157
X174.22Y-79.143
X174.22Y-91.414
X174.22Y-120.399
X174.22Y-132.671
X174.22Y-161.656
X174.22Y-173.927
X174.22Y-202.913
T4
X48.26Y-64.65
X48.26Y-147.193
X79.31Y-106.68
X79.31Y-188.42
X159.19Y-64.65
X159.19Y-105.907
X159.23Y-147.163
X159.25Y-188.42
T1
G00X40.81Y-33.57
M15
G01X45.81Y-33.57
M16
G05
G00X45.81Y-219.57
M15
G01X40.81Y-219.57
M16
G05
G00X66.008Y-33.57
M15
G01X71.008Y-33.57
M16
G05
G00X71.008Y-219.57
M15
G01X66.008Y-219.57
M16
G05
G00X91.206Y-33.57
M15
G01X96.206Y-33.57
M16
G05
G00X96.206Y-219.17
M15
G01X91.206Y-219.17
M16
G05
G00X97.11Y-45.79
M15
G01X102.11Y-45.79
M16
G05
G00X102.11Y-83.5
M15
G01X97.11Y-83.5
M16
G05
G00X97.11Y-128.27
M15
G01X102.11Y-128.27
M16
G05
G00X102.11Y-166.01
M15
G01X97.11Y-166.01
M16
G05
G00X108.85Y-86.68
M15
G01X113.85Y-86.68
M16
G05
G00X113.85Y-124.77
M15
G01X108.85Y-124.77
M16
G05
G00X108.85Y-169.57
M15
G01X113.85Y-169.57
M16
G05
G00X113.85Y-207.65
M15
G01X108.85Y-207.65
M16
G05
G00X116.404Y-33.57
M15
G01X121.404Y-33.57
M16
G05
G00X121.404Y-219.17
M15
G01X116.404Y-219.17
M16
G05
G00X129.58Y-45.79
M15
G01X134.58Y-45.79
M16
G05
G00X134.58Y-83.5
M15
G01X129.58Y-83.5
M16
G05
G00X129.58Y-128.27
M15
G01X134.58Y-128.27
M16
G05
G00X134.58Y-166.0
M15
G01X129.58Y-166.0
M16
G05
G00X138.32Y-86.68
M15
G01X143.32Y-86.68
M16
G05
G00X143.32Y-124.74
M15
G01X138.32Y-124.74
M16
G05
G00X138.32Y-169.57
M15
G01X143.32Y-169.57
M16
G05
G00X143.32Y-207.64
M15
G01X138.32Y-207.64
M16
G05
G00X141.602Y-33.57
M15
G01X146.602Y-33.57
M16
G05
G00X146.602Y-219.17
M15
G01X141.602Y-219.17
M16
G05
G00X166.8Y-33.57
M15
G01X171.8Y-33.57
M16
G05
G00X171.8Y-219.17
M15
G01X166.8Y-219.17
M16
G05
G00X171.72Y-46.157
M15
G01X176.72Y-46.157
M16
G05
G00X176.72Y-83.143
M15
G01X171.72Y-83.143
M16
G05
G00X171.72Y-87.414
M15
G01X176.72Y-87.414
M16
G05
G00X176.72Y-124.399
M15
G01X171.72Y-124.399
M16
G05
G00X171.72Y-128.671
M15
G01X176.72Y-128.671
M16
G05
G00X176.72Y-165.656
M15
G01X171.72Y-165.656
M16
G05
G00X171.72Y-169.927
M15
G01X176.72Y-169.927
M16
G05
G00X176.72Y-206.913
M15
G01X171.72Y-206.913
M16
G05
T0
M30
