%TF.GenerationSoftware,KiCad,Pcbnew,(5.1.9)-1*%
%TF.CreationDate,2021-09-09T23:53:41+02:00*%
%TF.ProjectId,SwitchBox,53776974-6368-4426-9f78-2e6b69636164,rev?*%
%TF.SameCoordinates,Original*%
%TF.FileFunction,Copper,L2,Bot*%
%TF.FilePolarity,Positive*%
%FSLAX46Y46*%
G04 Gerber Fmt 4.6, Leading zero omitted, Abs format (unit mm)*
G04 Created by KiCad (PCBNEW (5.1.9)-1) date 2021-09-09 23:53:41*
%MOMM*%
%LPD*%
G01*
G04 APERTURE LIST*
%TA.AperFunction,ComponentPad*%
%ADD10C,22.500000*%
%TD*%
%TA.AperFunction,ComponentPad*%
%ADD11C,6.000000*%
%TD*%
%TA.AperFunction,ComponentPad*%
%ADD12C,0.100000*%
%TD*%
%TA.AperFunction,ViaPad*%
%ADD13C,1.500000*%
%TD*%
%TA.AperFunction,ViaPad*%
%ADD14C,0.800000*%
%TD*%
%TA.AperFunction,ViaPad*%
%ADD15C,1.000000*%
%TD*%
%TA.AperFunction,Conductor*%
%ADD16C,1.500000*%
%TD*%
%TA.AperFunction,Conductor*%
%ADD17C,0.254000*%
%TD*%
%TA.AperFunction,Conductor*%
%ADD18C,0.100000*%
%TD*%
G04 APERTURE END LIST*
D10*
%TO.P,D9,*%
%TO.N,*%
X161190000Y-64650000D03*
D11*
%TO.P,D9,2*%
%TO.N,Net-(D9-Pad2)*%
X149090000Y-78150000D03*
%TO.P,D9,1*%
%TO.N,Net-(D9-Pad1)*%
X149090000Y-51150000D03*
%TD*%
%TO.P,D10,1*%
%TO.N,Net-(D10-Pad1)*%
X149090000Y-92406666D03*
%TO.P,D10,2*%
%TO.N,Net-(D10-Pad2)*%
X149090000Y-119406666D03*
D10*
%TO.P,D10,*%
%TO.N,*%
X161190000Y-105906666D03*
%TD*%
%TO.P,D11,*%
%TO.N,*%
X161230000Y-147163332D03*
D11*
%TO.P,D11,2*%
%TO.N,Net-(D11-Pad2)*%
X149130000Y-160663332D03*
%TO.P,D11,1*%
%TO.N,Net-(D11-Pad1)*%
X149130000Y-133663332D03*
%TD*%
%TO.P,D12,1*%
%TO.N,Net-(D12-Pad1)*%
X149150000Y-174920000D03*
%TO.P,D12,2*%
%TO.N,Net-(D12-Pad2)*%
X149150000Y-201920000D03*
D10*
%TO.P,D12,*%
%TO.N,*%
X161250000Y-188420000D03*
%TD*%
%TO.P,BLACK,1*%
%TO.N,Net-(J1-Pad1)*%
%TA.AperFunction,ComponentPad*%
G36*
G01*
X40310000Y-219570000D02*
X46310000Y-219570000D01*
G75*
G02*
X46810000Y-220070000I0J-500000D01*
G01*
X46810000Y-221070000D01*
G75*
G02*
X46310000Y-221570000I-500000J0D01*
G01*
X40310000Y-221570000D01*
G75*
G02*
X39810000Y-221070000I0J500000D01*
G01*
X39810000Y-220070000D01*
G75*
G02*
X40310000Y-219570000I500000J0D01*
G01*
G37*
%TD.AperFunction*%
%TA.AperFunction,ComponentPad*%
D12*
G36*
X43750191Y-213602470D02*
G01*
X44038941Y-213659906D01*
X44320670Y-213745368D01*
X44592665Y-213858032D01*
X44852308Y-213996814D01*
X45097098Y-214160377D01*
X45324677Y-214347147D01*
X45532853Y-214555323D01*
X45719623Y-214782902D01*
X45883186Y-215027692D01*
X46021968Y-215287335D01*
X46134632Y-215559330D01*
X46220094Y-215841059D01*
X46277530Y-216129809D01*
X46306386Y-216422797D01*
X46306386Y-216717203D01*
X46277530Y-217010191D01*
X46220094Y-217298941D01*
X46134632Y-217580670D01*
X46021968Y-217852665D01*
X45883186Y-218112308D01*
X45719623Y-218357098D01*
X45532853Y-218584677D01*
X45428765Y-218688765D01*
X46310000Y-219570000D01*
X40310000Y-219570000D01*
X41191235Y-218688765D01*
X41087147Y-218584677D01*
X40900377Y-218357098D01*
X40736814Y-218112308D01*
X40598032Y-217852665D01*
X40485368Y-217580670D01*
X40399906Y-217298941D01*
X40342470Y-217010191D01*
X40313614Y-216717203D01*
X40313614Y-216422797D01*
X40342470Y-216129809D01*
X40399906Y-215841059D01*
X40485368Y-215559330D01*
X40598032Y-215287335D01*
X40736814Y-215027692D01*
X40900377Y-214782902D01*
X41087147Y-214555323D01*
X41295323Y-214347147D01*
X41522902Y-214160377D01*
X41767692Y-213996814D01*
X42027335Y-213858032D01*
X42299330Y-213745368D01*
X42581059Y-213659906D01*
X42869809Y-213602470D01*
X43162797Y-213573614D01*
X43457203Y-213573614D01*
X43750191Y-213602470D01*
G37*
%TD.AperFunction*%
%TD*%
%TA.AperFunction,ComponentPad*%
%TO.P,RED,1*%
%TO.N,Net-(J10-Pad1)*%
G36*
X42869809Y-40537530D02*
G01*
X42581059Y-40480094D01*
X42299330Y-40394632D01*
X42027335Y-40281968D01*
X41767692Y-40143186D01*
X41522902Y-39979623D01*
X41295323Y-39792853D01*
X41087147Y-39584677D01*
X40900377Y-39357098D01*
X40736814Y-39112308D01*
X40598032Y-38852665D01*
X40485368Y-38580670D01*
X40399906Y-38298941D01*
X40342470Y-38010191D01*
X40313614Y-37717203D01*
X40313614Y-37422797D01*
X40342470Y-37129809D01*
X40399906Y-36841059D01*
X40485368Y-36559330D01*
X40598032Y-36287335D01*
X40736814Y-36027692D01*
X40900377Y-35782902D01*
X41087147Y-35555323D01*
X41191235Y-35451235D01*
X40310000Y-34570000D01*
X46310000Y-34570000D01*
X45428765Y-35451235D01*
X45532853Y-35555323D01*
X45719623Y-35782902D01*
X45883186Y-36027692D01*
X46021968Y-36287335D01*
X46134632Y-36559330D01*
X46220094Y-36841059D01*
X46277530Y-37129809D01*
X46306386Y-37422797D01*
X46306386Y-37717203D01*
X46277530Y-38010191D01*
X46220094Y-38298941D01*
X46134632Y-38580670D01*
X46021968Y-38852665D01*
X45883186Y-39112308D01*
X45719623Y-39357098D01*
X45532853Y-39584677D01*
X45324677Y-39792853D01*
X45097098Y-39979623D01*
X44852308Y-40143186D01*
X44592665Y-40281968D01*
X44320670Y-40394632D01*
X44038941Y-40480094D01*
X43750191Y-40537530D01*
X43457203Y-40566386D01*
X43162797Y-40566386D01*
X42869809Y-40537530D01*
G37*
%TD.AperFunction*%
%TA.AperFunction,ComponentPad*%
G36*
G01*
X46310000Y-34570000D02*
X40310000Y-34570000D01*
G75*
G02*
X39810000Y-34070000I0J500000D01*
G01*
X39810000Y-33070000D01*
G75*
G02*
X40310000Y-32570000I500000J0D01*
G01*
X46310000Y-32570000D01*
G75*
G02*
X46810000Y-33070000I0J-500000D01*
G01*
X46810000Y-34070000D01*
G75*
G02*
X46310000Y-34570000I-500000J0D01*
G01*
G37*
%TD.AperFunction*%
%TD*%
%TA.AperFunction,ComponentPad*%
%TO.P,BLACK,1*%
%TO.N,Net-(J1-Pad1)*%
G36*
X68948191Y-213602470D02*
G01*
X69236941Y-213659906D01*
X69518670Y-213745368D01*
X69790665Y-213858032D01*
X70050308Y-213996814D01*
X70295098Y-214160377D01*
X70522677Y-214347147D01*
X70730853Y-214555323D01*
X70917623Y-214782902D01*
X71081186Y-215027692D01*
X71219968Y-215287335D01*
X71332632Y-215559330D01*
X71418094Y-215841059D01*
X71475530Y-216129809D01*
X71504386Y-216422797D01*
X71504386Y-216717203D01*
X71475530Y-217010191D01*
X71418094Y-217298941D01*
X71332632Y-217580670D01*
X71219968Y-217852665D01*
X71081186Y-218112308D01*
X70917623Y-218357098D01*
X70730853Y-218584677D01*
X70626765Y-218688765D01*
X71508000Y-219570000D01*
X65508000Y-219570000D01*
X66389235Y-218688765D01*
X66285147Y-218584677D01*
X66098377Y-218357098D01*
X65934814Y-218112308D01*
X65796032Y-217852665D01*
X65683368Y-217580670D01*
X65597906Y-217298941D01*
X65540470Y-217010191D01*
X65511614Y-216717203D01*
X65511614Y-216422797D01*
X65540470Y-216129809D01*
X65597906Y-215841059D01*
X65683368Y-215559330D01*
X65796032Y-215287335D01*
X65934814Y-215027692D01*
X66098377Y-214782902D01*
X66285147Y-214555323D01*
X66493323Y-214347147D01*
X66720902Y-214160377D01*
X66965692Y-213996814D01*
X67225335Y-213858032D01*
X67497330Y-213745368D01*
X67779059Y-213659906D01*
X68067809Y-213602470D01*
X68360797Y-213573614D01*
X68655203Y-213573614D01*
X68948191Y-213602470D01*
G37*
%TD.AperFunction*%
%TA.AperFunction,ComponentPad*%
G36*
G01*
X65508000Y-219570000D02*
X71508000Y-219570000D01*
G75*
G02*
X72008000Y-220070000I0J-500000D01*
G01*
X72008000Y-221070000D01*
G75*
G02*
X71508000Y-221570000I-500000J0D01*
G01*
X65508000Y-221570000D01*
G75*
G02*
X65008000Y-221070000I0J500000D01*
G01*
X65008000Y-220070000D01*
G75*
G02*
X65508000Y-219570000I500000J0D01*
G01*
G37*
%TD.AperFunction*%
%TD*%
%TO.P,RED,1*%
%TO.N,Net-(J10-Pad1)*%
%TA.AperFunction,ComponentPad*%
G36*
G01*
X71508000Y-34570000D02*
X65508000Y-34570000D01*
G75*
G02*
X65008000Y-34070000I0J500000D01*
G01*
X65008000Y-33070000D01*
G75*
G02*
X65508000Y-32570000I500000J0D01*
G01*
X71508000Y-32570000D01*
G75*
G02*
X72008000Y-33070000I0J-500000D01*
G01*
X72008000Y-34070000D01*
G75*
G02*
X71508000Y-34570000I-500000J0D01*
G01*
G37*
%TD.AperFunction*%
%TA.AperFunction,ComponentPad*%
G36*
X68067809Y-40537530D02*
G01*
X67779059Y-40480094D01*
X67497330Y-40394632D01*
X67225335Y-40281968D01*
X66965692Y-40143186D01*
X66720902Y-39979623D01*
X66493323Y-39792853D01*
X66285147Y-39584677D01*
X66098377Y-39357098D01*
X65934814Y-39112308D01*
X65796032Y-38852665D01*
X65683368Y-38580670D01*
X65597906Y-38298941D01*
X65540470Y-38010191D01*
X65511614Y-37717203D01*
X65511614Y-37422797D01*
X65540470Y-37129809D01*
X65597906Y-36841059D01*
X65683368Y-36559330D01*
X65796032Y-36287335D01*
X65934814Y-36027692D01*
X66098377Y-35782902D01*
X66285147Y-35555323D01*
X66389235Y-35451235D01*
X65508000Y-34570000D01*
X71508000Y-34570000D01*
X70626765Y-35451235D01*
X70730853Y-35555323D01*
X70917623Y-35782902D01*
X71081186Y-36027692D01*
X71219968Y-36287335D01*
X71332632Y-36559330D01*
X71418094Y-36841059D01*
X71475530Y-37129809D01*
X71504386Y-37422797D01*
X71504386Y-37717203D01*
X71475530Y-38010191D01*
X71418094Y-38298941D01*
X71332632Y-38580670D01*
X71219968Y-38852665D01*
X71081186Y-39112308D01*
X70917623Y-39357098D01*
X70730853Y-39584677D01*
X70522677Y-39792853D01*
X70295098Y-39979623D01*
X70050308Y-40143186D01*
X69790665Y-40281968D01*
X69518670Y-40394632D01*
X69236941Y-40480094D01*
X68948191Y-40537530D01*
X68655203Y-40566386D01*
X68360797Y-40566386D01*
X68067809Y-40537530D01*
G37*
%TD.AperFunction*%
%TD*%
%TO.P,BLACK,1*%
%TO.N,Net-(J1-Pad1)*%
%TA.AperFunction,ComponentPad*%
G36*
G01*
X90706000Y-219170000D02*
X96706000Y-219170000D01*
G75*
G02*
X97206000Y-219670000I0J-500000D01*
G01*
X97206000Y-220670000D01*
G75*
G02*
X96706000Y-221170000I-500000J0D01*
G01*
X90706000Y-221170000D01*
G75*
G02*
X90206000Y-220670000I0J500000D01*
G01*
X90206000Y-219670000D01*
G75*
G02*
X90706000Y-219170000I500000J0D01*
G01*
G37*
%TD.AperFunction*%
%TA.AperFunction,ComponentPad*%
G36*
X94146191Y-213202470D02*
G01*
X94434941Y-213259906D01*
X94716670Y-213345368D01*
X94988665Y-213458032D01*
X95248308Y-213596814D01*
X95493098Y-213760377D01*
X95720677Y-213947147D01*
X95928853Y-214155323D01*
X96115623Y-214382902D01*
X96279186Y-214627692D01*
X96417968Y-214887335D01*
X96530632Y-215159330D01*
X96616094Y-215441059D01*
X96673530Y-215729809D01*
X96702386Y-216022797D01*
X96702386Y-216317203D01*
X96673530Y-216610191D01*
X96616094Y-216898941D01*
X96530632Y-217180670D01*
X96417968Y-217452665D01*
X96279186Y-217712308D01*
X96115623Y-217957098D01*
X95928853Y-218184677D01*
X95824765Y-218288765D01*
X96706000Y-219170000D01*
X90706000Y-219170000D01*
X91587235Y-218288765D01*
X91483147Y-218184677D01*
X91296377Y-217957098D01*
X91132814Y-217712308D01*
X90994032Y-217452665D01*
X90881368Y-217180670D01*
X90795906Y-216898941D01*
X90738470Y-216610191D01*
X90709614Y-216317203D01*
X90709614Y-216022797D01*
X90738470Y-215729809D01*
X90795906Y-215441059D01*
X90881368Y-215159330D01*
X90994032Y-214887335D01*
X91132814Y-214627692D01*
X91296377Y-214382902D01*
X91483147Y-214155323D01*
X91691323Y-213947147D01*
X91918902Y-213760377D01*
X92163692Y-213596814D01*
X92423335Y-213458032D01*
X92695330Y-213345368D01*
X92977059Y-213259906D01*
X93265809Y-213202470D01*
X93558797Y-213173614D01*
X93853203Y-213173614D01*
X94146191Y-213202470D01*
G37*
%TD.AperFunction*%
%TD*%
%TA.AperFunction,ComponentPad*%
%TO.P,RED,1*%
%TO.N,Net-(J10-Pad1)*%
G36*
X93265809Y-40537530D02*
G01*
X92977059Y-40480094D01*
X92695330Y-40394632D01*
X92423335Y-40281968D01*
X92163692Y-40143186D01*
X91918902Y-39979623D01*
X91691323Y-39792853D01*
X91483147Y-39584677D01*
X91296377Y-39357098D01*
X91132814Y-39112308D01*
X90994032Y-38852665D01*
X90881368Y-38580670D01*
X90795906Y-38298941D01*
X90738470Y-38010191D01*
X90709614Y-37717203D01*
X90709614Y-37422797D01*
X90738470Y-37129809D01*
X90795906Y-36841059D01*
X90881368Y-36559330D01*
X90994032Y-36287335D01*
X91132814Y-36027692D01*
X91296377Y-35782902D01*
X91483147Y-35555323D01*
X91587235Y-35451235D01*
X90706000Y-34570000D01*
X96706000Y-34570000D01*
X95824765Y-35451235D01*
X95928853Y-35555323D01*
X96115623Y-35782902D01*
X96279186Y-36027692D01*
X96417968Y-36287335D01*
X96530632Y-36559330D01*
X96616094Y-36841059D01*
X96673530Y-37129809D01*
X96702386Y-37422797D01*
X96702386Y-37717203D01*
X96673530Y-38010191D01*
X96616094Y-38298941D01*
X96530632Y-38580670D01*
X96417968Y-38852665D01*
X96279186Y-39112308D01*
X96115623Y-39357098D01*
X95928853Y-39584677D01*
X95720677Y-39792853D01*
X95493098Y-39979623D01*
X95248308Y-40143186D01*
X94988665Y-40281968D01*
X94716670Y-40394632D01*
X94434941Y-40480094D01*
X94146191Y-40537530D01*
X93853203Y-40566386D01*
X93558797Y-40566386D01*
X93265809Y-40537530D01*
G37*
%TD.AperFunction*%
%TA.AperFunction,ComponentPad*%
G36*
G01*
X96706000Y-34570000D02*
X90706000Y-34570000D01*
G75*
G02*
X90206000Y-34070000I0J500000D01*
G01*
X90206000Y-33070000D01*
G75*
G02*
X90706000Y-32570000I500000J0D01*
G01*
X96706000Y-32570000D01*
G75*
G02*
X97206000Y-33070000I0J-500000D01*
G01*
X97206000Y-34070000D01*
G75*
G02*
X96706000Y-34570000I-500000J0D01*
G01*
G37*
%TD.AperFunction*%
%TD*%
%TA.AperFunction,ComponentPad*%
%TO.P,BLACK,1*%
%TO.N,Net-(J1-Pad1)*%
G36*
X119344191Y-213202470D02*
G01*
X119632941Y-213259906D01*
X119914670Y-213345368D01*
X120186665Y-213458032D01*
X120446308Y-213596814D01*
X120691098Y-213760377D01*
X120918677Y-213947147D01*
X121126853Y-214155323D01*
X121313623Y-214382902D01*
X121477186Y-214627692D01*
X121615968Y-214887335D01*
X121728632Y-215159330D01*
X121814094Y-215441059D01*
X121871530Y-215729809D01*
X121900386Y-216022797D01*
X121900386Y-216317203D01*
X121871530Y-216610191D01*
X121814094Y-216898941D01*
X121728632Y-217180670D01*
X121615968Y-217452665D01*
X121477186Y-217712308D01*
X121313623Y-217957098D01*
X121126853Y-218184677D01*
X121022765Y-218288765D01*
X121904000Y-219170000D01*
X115904000Y-219170000D01*
X116785235Y-218288765D01*
X116681147Y-218184677D01*
X116494377Y-217957098D01*
X116330814Y-217712308D01*
X116192032Y-217452665D01*
X116079368Y-217180670D01*
X115993906Y-216898941D01*
X115936470Y-216610191D01*
X115907614Y-216317203D01*
X115907614Y-216022797D01*
X115936470Y-215729809D01*
X115993906Y-215441059D01*
X116079368Y-215159330D01*
X116192032Y-214887335D01*
X116330814Y-214627692D01*
X116494377Y-214382902D01*
X116681147Y-214155323D01*
X116889323Y-213947147D01*
X117116902Y-213760377D01*
X117361692Y-213596814D01*
X117621335Y-213458032D01*
X117893330Y-213345368D01*
X118175059Y-213259906D01*
X118463809Y-213202470D01*
X118756797Y-213173614D01*
X119051203Y-213173614D01*
X119344191Y-213202470D01*
G37*
%TD.AperFunction*%
%TA.AperFunction,ComponentPad*%
G36*
G01*
X115904000Y-219170000D02*
X121904000Y-219170000D01*
G75*
G02*
X122404000Y-219670000I0J-500000D01*
G01*
X122404000Y-220670000D01*
G75*
G02*
X121904000Y-221170000I-500000J0D01*
G01*
X115904000Y-221170000D01*
G75*
G02*
X115404000Y-220670000I0J500000D01*
G01*
X115404000Y-219670000D01*
G75*
G02*
X115904000Y-219170000I500000J0D01*
G01*
G37*
%TD.AperFunction*%
%TD*%
%TO.P,RED,1*%
%TO.N,Net-(J10-Pad1)*%
%TA.AperFunction,ComponentPad*%
G36*
G01*
X121904000Y-34570000D02*
X115904000Y-34570000D01*
G75*
G02*
X115404000Y-34070000I0J500000D01*
G01*
X115404000Y-33070000D01*
G75*
G02*
X115904000Y-32570000I500000J0D01*
G01*
X121904000Y-32570000D01*
G75*
G02*
X122404000Y-33070000I0J-500000D01*
G01*
X122404000Y-34070000D01*
G75*
G02*
X121904000Y-34570000I-500000J0D01*
G01*
G37*
%TD.AperFunction*%
%TA.AperFunction,ComponentPad*%
G36*
X118463809Y-40537530D02*
G01*
X118175059Y-40480094D01*
X117893330Y-40394632D01*
X117621335Y-40281968D01*
X117361692Y-40143186D01*
X117116902Y-39979623D01*
X116889323Y-39792853D01*
X116681147Y-39584677D01*
X116494377Y-39357098D01*
X116330814Y-39112308D01*
X116192032Y-38852665D01*
X116079368Y-38580670D01*
X115993906Y-38298941D01*
X115936470Y-38010191D01*
X115907614Y-37717203D01*
X115907614Y-37422797D01*
X115936470Y-37129809D01*
X115993906Y-36841059D01*
X116079368Y-36559330D01*
X116192032Y-36287335D01*
X116330814Y-36027692D01*
X116494377Y-35782902D01*
X116681147Y-35555323D01*
X116785235Y-35451235D01*
X115904000Y-34570000D01*
X121904000Y-34570000D01*
X121022765Y-35451235D01*
X121126853Y-35555323D01*
X121313623Y-35782902D01*
X121477186Y-36027692D01*
X121615968Y-36287335D01*
X121728632Y-36559330D01*
X121814094Y-36841059D01*
X121871530Y-37129809D01*
X121900386Y-37422797D01*
X121900386Y-37717203D01*
X121871530Y-38010191D01*
X121814094Y-38298941D01*
X121728632Y-38580670D01*
X121615968Y-38852665D01*
X121477186Y-39112308D01*
X121313623Y-39357098D01*
X121126853Y-39584677D01*
X120918677Y-39792853D01*
X120691098Y-39979623D01*
X120446308Y-40143186D01*
X120186665Y-40281968D01*
X119914670Y-40394632D01*
X119632941Y-40480094D01*
X119344191Y-40537530D01*
X119051203Y-40566386D01*
X118756797Y-40566386D01*
X118463809Y-40537530D01*
G37*
%TD.AperFunction*%
%TD*%
%TO.P,BLACK,1*%
%TO.N,Net-(J1-Pad1)*%
%TA.AperFunction,ComponentPad*%
G36*
G01*
X141102000Y-219170000D02*
X147102000Y-219170000D01*
G75*
G02*
X147602000Y-219670000I0J-500000D01*
G01*
X147602000Y-220670000D01*
G75*
G02*
X147102000Y-221170000I-500000J0D01*
G01*
X141102000Y-221170000D01*
G75*
G02*
X140602000Y-220670000I0J500000D01*
G01*
X140602000Y-219670000D01*
G75*
G02*
X141102000Y-219170000I500000J0D01*
G01*
G37*
%TD.AperFunction*%
%TA.AperFunction,ComponentPad*%
G36*
X144542191Y-213202470D02*
G01*
X144830941Y-213259906D01*
X145112670Y-213345368D01*
X145384665Y-213458032D01*
X145644308Y-213596814D01*
X145889098Y-213760377D01*
X146116677Y-213947147D01*
X146324853Y-214155323D01*
X146511623Y-214382902D01*
X146675186Y-214627692D01*
X146813968Y-214887335D01*
X146926632Y-215159330D01*
X147012094Y-215441059D01*
X147069530Y-215729809D01*
X147098386Y-216022797D01*
X147098386Y-216317203D01*
X147069530Y-216610191D01*
X147012094Y-216898941D01*
X146926632Y-217180670D01*
X146813968Y-217452665D01*
X146675186Y-217712308D01*
X146511623Y-217957098D01*
X146324853Y-218184677D01*
X146220765Y-218288765D01*
X147102000Y-219170000D01*
X141102000Y-219170000D01*
X141983235Y-218288765D01*
X141879147Y-218184677D01*
X141692377Y-217957098D01*
X141528814Y-217712308D01*
X141390032Y-217452665D01*
X141277368Y-217180670D01*
X141191906Y-216898941D01*
X141134470Y-216610191D01*
X141105614Y-216317203D01*
X141105614Y-216022797D01*
X141134470Y-215729809D01*
X141191906Y-215441059D01*
X141277368Y-215159330D01*
X141390032Y-214887335D01*
X141528814Y-214627692D01*
X141692377Y-214382902D01*
X141879147Y-214155323D01*
X142087323Y-213947147D01*
X142314902Y-213760377D01*
X142559692Y-213596814D01*
X142819335Y-213458032D01*
X143091330Y-213345368D01*
X143373059Y-213259906D01*
X143661809Y-213202470D01*
X143954797Y-213173614D01*
X144249203Y-213173614D01*
X144542191Y-213202470D01*
G37*
%TD.AperFunction*%
%TD*%
%TA.AperFunction,ComponentPad*%
%TO.P,RED,1*%
%TO.N,Net-(J10-Pad1)*%
G36*
X143661809Y-40537530D02*
G01*
X143373059Y-40480094D01*
X143091330Y-40394632D01*
X142819335Y-40281968D01*
X142559692Y-40143186D01*
X142314902Y-39979623D01*
X142087323Y-39792853D01*
X141879147Y-39584677D01*
X141692377Y-39357098D01*
X141528814Y-39112308D01*
X141390032Y-38852665D01*
X141277368Y-38580670D01*
X141191906Y-38298941D01*
X141134470Y-38010191D01*
X141105614Y-37717203D01*
X141105614Y-37422797D01*
X141134470Y-37129809D01*
X141191906Y-36841059D01*
X141277368Y-36559330D01*
X141390032Y-36287335D01*
X141528814Y-36027692D01*
X141692377Y-35782902D01*
X141879147Y-35555323D01*
X141983235Y-35451235D01*
X141102000Y-34570000D01*
X147102000Y-34570000D01*
X146220765Y-35451235D01*
X146324853Y-35555323D01*
X146511623Y-35782902D01*
X146675186Y-36027692D01*
X146813968Y-36287335D01*
X146926632Y-36559330D01*
X147012094Y-36841059D01*
X147069530Y-37129809D01*
X147098386Y-37422797D01*
X147098386Y-37717203D01*
X147069530Y-38010191D01*
X147012094Y-38298941D01*
X146926632Y-38580670D01*
X146813968Y-38852665D01*
X146675186Y-39112308D01*
X146511623Y-39357098D01*
X146324853Y-39584677D01*
X146116677Y-39792853D01*
X145889098Y-39979623D01*
X145644308Y-40143186D01*
X145384665Y-40281968D01*
X145112670Y-40394632D01*
X144830941Y-40480094D01*
X144542191Y-40537530D01*
X144249203Y-40566386D01*
X143954797Y-40566386D01*
X143661809Y-40537530D01*
G37*
%TD.AperFunction*%
%TA.AperFunction,ComponentPad*%
G36*
G01*
X147102000Y-34570000D02*
X141102000Y-34570000D01*
G75*
G02*
X140602000Y-34070000I0J500000D01*
G01*
X140602000Y-33070000D01*
G75*
G02*
X141102000Y-32570000I500000J0D01*
G01*
X147102000Y-32570000D01*
G75*
G02*
X147602000Y-33070000I0J-500000D01*
G01*
X147602000Y-34070000D01*
G75*
G02*
X147102000Y-34570000I-500000J0D01*
G01*
G37*
%TD.AperFunction*%
%TD*%
%TA.AperFunction,ComponentPad*%
%TO.P,BLACK,1*%
%TO.N,Net-(J1-Pad1)*%
G36*
X169740191Y-213202470D02*
G01*
X170028941Y-213259906D01*
X170310670Y-213345368D01*
X170582665Y-213458032D01*
X170842308Y-213596814D01*
X171087098Y-213760377D01*
X171314677Y-213947147D01*
X171522853Y-214155323D01*
X171709623Y-214382902D01*
X171873186Y-214627692D01*
X172011968Y-214887335D01*
X172124632Y-215159330D01*
X172210094Y-215441059D01*
X172267530Y-215729809D01*
X172296386Y-216022797D01*
X172296386Y-216317203D01*
X172267530Y-216610191D01*
X172210094Y-216898941D01*
X172124632Y-217180670D01*
X172011968Y-217452665D01*
X171873186Y-217712308D01*
X171709623Y-217957098D01*
X171522853Y-218184677D01*
X171418765Y-218288765D01*
X172300000Y-219170000D01*
X166300000Y-219170000D01*
X167181235Y-218288765D01*
X167077147Y-218184677D01*
X166890377Y-217957098D01*
X166726814Y-217712308D01*
X166588032Y-217452665D01*
X166475368Y-217180670D01*
X166389906Y-216898941D01*
X166332470Y-216610191D01*
X166303614Y-216317203D01*
X166303614Y-216022797D01*
X166332470Y-215729809D01*
X166389906Y-215441059D01*
X166475368Y-215159330D01*
X166588032Y-214887335D01*
X166726814Y-214627692D01*
X166890377Y-214382902D01*
X167077147Y-214155323D01*
X167285323Y-213947147D01*
X167512902Y-213760377D01*
X167757692Y-213596814D01*
X168017335Y-213458032D01*
X168289330Y-213345368D01*
X168571059Y-213259906D01*
X168859809Y-213202470D01*
X169152797Y-213173614D01*
X169447203Y-213173614D01*
X169740191Y-213202470D01*
G37*
%TD.AperFunction*%
%TA.AperFunction,ComponentPad*%
G36*
G01*
X166300000Y-219170000D02*
X172300000Y-219170000D01*
G75*
G02*
X172800000Y-219670000I0J-500000D01*
G01*
X172800000Y-220670000D01*
G75*
G02*
X172300000Y-221170000I-500000J0D01*
G01*
X166300000Y-221170000D01*
G75*
G02*
X165800000Y-220670000I0J500000D01*
G01*
X165800000Y-219670000D01*
G75*
G02*
X166300000Y-219170000I500000J0D01*
G01*
G37*
%TD.AperFunction*%
%TD*%
%TO.P,RED,1*%
%TO.N,Net-(J10-Pad1)*%
%TA.AperFunction,ComponentPad*%
G36*
G01*
X172300000Y-34570000D02*
X166300000Y-34570000D01*
G75*
G02*
X165800000Y-34070000I0J500000D01*
G01*
X165800000Y-33070000D01*
G75*
G02*
X166300000Y-32570000I500000J0D01*
G01*
X172300000Y-32570000D01*
G75*
G02*
X172800000Y-33070000I0J-500000D01*
G01*
X172800000Y-34070000D01*
G75*
G02*
X172300000Y-34570000I-500000J0D01*
G01*
G37*
%TD.AperFunction*%
%TA.AperFunction,ComponentPad*%
G36*
X168859809Y-40537530D02*
G01*
X168571059Y-40480094D01*
X168289330Y-40394632D01*
X168017335Y-40281968D01*
X167757692Y-40143186D01*
X167512902Y-39979623D01*
X167285323Y-39792853D01*
X167077147Y-39584677D01*
X166890377Y-39357098D01*
X166726814Y-39112308D01*
X166588032Y-38852665D01*
X166475368Y-38580670D01*
X166389906Y-38298941D01*
X166332470Y-38010191D01*
X166303614Y-37717203D01*
X166303614Y-37422797D01*
X166332470Y-37129809D01*
X166389906Y-36841059D01*
X166475368Y-36559330D01*
X166588032Y-36287335D01*
X166726814Y-36027692D01*
X166890377Y-35782902D01*
X167077147Y-35555323D01*
X167181235Y-35451235D01*
X166300000Y-34570000D01*
X172300000Y-34570000D01*
X171418765Y-35451235D01*
X171522853Y-35555323D01*
X171709623Y-35782902D01*
X171873186Y-36027692D01*
X172011968Y-36287335D01*
X172124632Y-36559330D01*
X172210094Y-36841059D01*
X172267530Y-37129809D01*
X172296386Y-37422797D01*
X172296386Y-37717203D01*
X172267530Y-38010191D01*
X172210094Y-38298941D01*
X172124632Y-38580670D01*
X172011968Y-38852665D01*
X171873186Y-39112308D01*
X171709623Y-39357098D01*
X171522853Y-39584677D01*
X171314677Y-39792853D01*
X171087098Y-39979623D01*
X170842308Y-40143186D01*
X170582665Y-40281968D01*
X170310670Y-40394632D01*
X170028941Y-40480094D01*
X169740191Y-40537530D01*
X169447203Y-40566386D01*
X169152797Y-40566386D01*
X168859809Y-40537530D01*
G37*
%TD.AperFunction*%
%TD*%
%TO.P,BLACK,1*%
%TO.N,/PASS1_NO*%
%TA.AperFunction,ComponentPad*%
G36*
G01*
X102610000Y-46790000D02*
X96610000Y-46790000D01*
G75*
G02*
X96110000Y-46290000I0J500000D01*
G01*
X96110000Y-45290000D01*
G75*
G02*
X96610000Y-44790000I500000J0D01*
G01*
X102610000Y-44790000D01*
G75*
G02*
X103110000Y-45290000I0J-500000D01*
G01*
X103110000Y-46290000D01*
G75*
G02*
X102610000Y-46790000I-500000J0D01*
G01*
G37*
%TD.AperFunction*%
%TA.AperFunction,ComponentPad*%
G36*
X99169809Y-52757530D02*
G01*
X98881059Y-52700094D01*
X98599330Y-52614632D01*
X98327335Y-52501968D01*
X98067692Y-52363186D01*
X97822902Y-52199623D01*
X97595323Y-52012853D01*
X97387147Y-51804677D01*
X97200377Y-51577098D01*
X97036814Y-51332308D01*
X96898032Y-51072665D01*
X96785368Y-50800670D01*
X96699906Y-50518941D01*
X96642470Y-50230191D01*
X96613614Y-49937203D01*
X96613614Y-49642797D01*
X96642470Y-49349809D01*
X96699906Y-49061059D01*
X96785368Y-48779330D01*
X96898032Y-48507335D01*
X97036814Y-48247692D01*
X97200377Y-48002902D01*
X97387147Y-47775323D01*
X97491235Y-47671235D01*
X96610000Y-46790000D01*
X102610000Y-46790000D01*
X101728765Y-47671235D01*
X101832853Y-47775323D01*
X102019623Y-48002902D01*
X102183186Y-48247692D01*
X102321968Y-48507335D01*
X102434632Y-48779330D01*
X102520094Y-49061059D01*
X102577530Y-49349809D01*
X102606386Y-49642797D01*
X102606386Y-49937203D01*
X102577530Y-50230191D01*
X102520094Y-50518941D01*
X102434632Y-50800670D01*
X102321968Y-51072665D01*
X102183186Y-51332308D01*
X102019623Y-51577098D01*
X101832853Y-51804677D01*
X101624677Y-52012853D01*
X101397098Y-52199623D01*
X101152308Y-52363186D01*
X100892665Y-52501968D01*
X100620670Y-52614632D01*
X100338941Y-52700094D01*
X100050191Y-52757530D01*
X99757203Y-52786386D01*
X99462797Y-52786386D01*
X99169809Y-52757530D01*
G37*
%TD.AperFunction*%
%TD*%
%TA.AperFunction,ComponentPad*%
%TO.P,BLACK,1*%
%TO.N,/PASS2_NO*%
G36*
X110909809Y-93647530D02*
G01*
X110621059Y-93590094D01*
X110339330Y-93504632D01*
X110067335Y-93391968D01*
X109807692Y-93253186D01*
X109562902Y-93089623D01*
X109335323Y-92902853D01*
X109127147Y-92694677D01*
X108940377Y-92467098D01*
X108776814Y-92222308D01*
X108638032Y-91962665D01*
X108525368Y-91690670D01*
X108439906Y-91408941D01*
X108382470Y-91120191D01*
X108353614Y-90827203D01*
X108353614Y-90532797D01*
X108382470Y-90239809D01*
X108439906Y-89951059D01*
X108525368Y-89669330D01*
X108638032Y-89397335D01*
X108776814Y-89137692D01*
X108940377Y-88892902D01*
X109127147Y-88665323D01*
X109231235Y-88561235D01*
X108350000Y-87680000D01*
X114350000Y-87680000D01*
X113468765Y-88561235D01*
X113572853Y-88665323D01*
X113759623Y-88892902D01*
X113923186Y-89137692D01*
X114061968Y-89397335D01*
X114174632Y-89669330D01*
X114260094Y-89951059D01*
X114317530Y-90239809D01*
X114346386Y-90532797D01*
X114346386Y-90827203D01*
X114317530Y-91120191D01*
X114260094Y-91408941D01*
X114174632Y-91690670D01*
X114061968Y-91962665D01*
X113923186Y-92222308D01*
X113759623Y-92467098D01*
X113572853Y-92694677D01*
X113364677Y-92902853D01*
X113137098Y-93089623D01*
X112892308Y-93253186D01*
X112632665Y-93391968D01*
X112360670Y-93504632D01*
X112078941Y-93590094D01*
X111790191Y-93647530D01*
X111497203Y-93676386D01*
X111202797Y-93676386D01*
X110909809Y-93647530D01*
G37*
%TD.AperFunction*%
%TA.AperFunction,ComponentPad*%
G36*
G01*
X114350000Y-87680000D02*
X108350000Y-87680000D01*
G75*
G02*
X107850000Y-87180000I0J500000D01*
G01*
X107850000Y-86180000D01*
G75*
G02*
X108350000Y-85680000I500000J0D01*
G01*
X114350000Y-85680000D01*
G75*
G02*
X114850000Y-86180000I0J-500000D01*
G01*
X114850000Y-87180000D01*
G75*
G02*
X114350000Y-87680000I-500000J0D01*
G01*
G37*
%TD.AperFunction*%
%TD*%
%TA.AperFunction,ComponentPad*%
%TO.P,BLACK,1*%
%TO.N,/IN1\u002A*%
G36*
X100050191Y-76532470D02*
G01*
X100338941Y-76589906D01*
X100620670Y-76675368D01*
X100892665Y-76788032D01*
X101152308Y-76926814D01*
X101397098Y-77090377D01*
X101624677Y-77277147D01*
X101832853Y-77485323D01*
X102019623Y-77712902D01*
X102183186Y-77957692D01*
X102321968Y-78217335D01*
X102434632Y-78489330D01*
X102520094Y-78771059D01*
X102577530Y-79059809D01*
X102606386Y-79352797D01*
X102606386Y-79647203D01*
X102577530Y-79940191D01*
X102520094Y-80228941D01*
X102434632Y-80510670D01*
X102321968Y-80782665D01*
X102183186Y-81042308D01*
X102019623Y-81287098D01*
X101832853Y-81514677D01*
X101728765Y-81618765D01*
X102610000Y-82500000D01*
X96610000Y-82500000D01*
X97491235Y-81618765D01*
X97387147Y-81514677D01*
X97200377Y-81287098D01*
X97036814Y-81042308D01*
X96898032Y-80782665D01*
X96785368Y-80510670D01*
X96699906Y-80228941D01*
X96642470Y-79940191D01*
X96613614Y-79647203D01*
X96613614Y-79352797D01*
X96642470Y-79059809D01*
X96699906Y-78771059D01*
X96785368Y-78489330D01*
X96898032Y-78217335D01*
X97036814Y-77957692D01*
X97200377Y-77712902D01*
X97387147Y-77485323D01*
X97595323Y-77277147D01*
X97822902Y-77090377D01*
X98067692Y-76926814D01*
X98327335Y-76788032D01*
X98599330Y-76675368D01*
X98881059Y-76589906D01*
X99169809Y-76532470D01*
X99462797Y-76503614D01*
X99757203Y-76503614D01*
X100050191Y-76532470D01*
G37*
%TD.AperFunction*%
%TA.AperFunction,ComponentPad*%
G36*
G01*
X96610000Y-82500000D02*
X102610000Y-82500000D01*
G75*
G02*
X103110000Y-83000000I0J-500000D01*
G01*
X103110000Y-84000000D01*
G75*
G02*
X102610000Y-84500000I-500000J0D01*
G01*
X96610000Y-84500000D01*
G75*
G02*
X96110000Y-84000000I0J500000D01*
G01*
X96110000Y-83000000D01*
G75*
G02*
X96610000Y-82500000I500000J0D01*
G01*
G37*
%TD.AperFunction*%
%TD*%
%TA.AperFunction,ComponentPad*%
%TO.P,BLACK,1*%
%TO.N,/IN2\u002A*%
G36*
X111790191Y-117802470D02*
G01*
X112078941Y-117859906D01*
X112360670Y-117945368D01*
X112632665Y-118058032D01*
X112892308Y-118196814D01*
X113137098Y-118360377D01*
X113364677Y-118547147D01*
X113572853Y-118755323D01*
X113759623Y-118982902D01*
X113923186Y-119227692D01*
X114061968Y-119487335D01*
X114174632Y-119759330D01*
X114260094Y-120041059D01*
X114317530Y-120329809D01*
X114346386Y-120622797D01*
X114346386Y-120917203D01*
X114317530Y-121210191D01*
X114260094Y-121498941D01*
X114174632Y-121780670D01*
X114061968Y-122052665D01*
X113923186Y-122312308D01*
X113759623Y-122557098D01*
X113572853Y-122784677D01*
X113468765Y-122888765D01*
X114350000Y-123770000D01*
X108350000Y-123770000D01*
X109231235Y-122888765D01*
X109127147Y-122784677D01*
X108940377Y-122557098D01*
X108776814Y-122312308D01*
X108638032Y-122052665D01*
X108525368Y-121780670D01*
X108439906Y-121498941D01*
X108382470Y-121210191D01*
X108353614Y-120917203D01*
X108353614Y-120622797D01*
X108382470Y-120329809D01*
X108439906Y-120041059D01*
X108525368Y-119759330D01*
X108638032Y-119487335D01*
X108776814Y-119227692D01*
X108940377Y-118982902D01*
X109127147Y-118755323D01*
X109335323Y-118547147D01*
X109562902Y-118360377D01*
X109807692Y-118196814D01*
X110067335Y-118058032D01*
X110339330Y-117945368D01*
X110621059Y-117859906D01*
X110909809Y-117802470D01*
X111202797Y-117773614D01*
X111497203Y-117773614D01*
X111790191Y-117802470D01*
G37*
%TD.AperFunction*%
%TA.AperFunction,ComponentPad*%
G36*
G01*
X108350000Y-123770000D02*
X114350000Y-123770000D01*
G75*
G02*
X114850000Y-124270000I0J-500000D01*
G01*
X114850000Y-125270000D01*
G75*
G02*
X114350000Y-125770000I-500000J0D01*
G01*
X108350000Y-125770000D01*
G75*
G02*
X107850000Y-125270000I0J500000D01*
G01*
X107850000Y-124270000D01*
G75*
G02*
X108350000Y-123770000I500000J0D01*
G01*
G37*
%TD.AperFunction*%
%TD*%
%TA.AperFunction,ComponentPad*%
%TO.P,BLACK,1*%
%TO.N,/PASS3_NO*%
G36*
X99169809Y-135237530D02*
G01*
X98881059Y-135180094D01*
X98599330Y-135094632D01*
X98327335Y-134981968D01*
X98067692Y-134843186D01*
X97822902Y-134679623D01*
X97595323Y-134492853D01*
X97387147Y-134284677D01*
X97200377Y-134057098D01*
X97036814Y-133812308D01*
X96898032Y-133552665D01*
X96785368Y-133280670D01*
X96699906Y-132998941D01*
X96642470Y-132710191D01*
X96613614Y-132417203D01*
X96613614Y-132122797D01*
X96642470Y-131829809D01*
X96699906Y-131541059D01*
X96785368Y-131259330D01*
X96898032Y-130987335D01*
X97036814Y-130727692D01*
X97200377Y-130482902D01*
X97387147Y-130255323D01*
X97491235Y-130151235D01*
X96610000Y-129270000D01*
X102610000Y-129270000D01*
X101728765Y-130151235D01*
X101832853Y-130255323D01*
X102019623Y-130482902D01*
X102183186Y-130727692D01*
X102321968Y-130987335D01*
X102434632Y-131259330D01*
X102520094Y-131541059D01*
X102577530Y-131829809D01*
X102606386Y-132122797D01*
X102606386Y-132417203D01*
X102577530Y-132710191D01*
X102520094Y-132998941D01*
X102434632Y-133280670D01*
X102321968Y-133552665D01*
X102183186Y-133812308D01*
X102019623Y-134057098D01*
X101832853Y-134284677D01*
X101624677Y-134492853D01*
X101397098Y-134679623D01*
X101152308Y-134843186D01*
X100892665Y-134981968D01*
X100620670Y-135094632D01*
X100338941Y-135180094D01*
X100050191Y-135237530D01*
X99757203Y-135266386D01*
X99462797Y-135266386D01*
X99169809Y-135237530D01*
G37*
%TD.AperFunction*%
%TA.AperFunction,ComponentPad*%
G36*
G01*
X102610000Y-129270000D02*
X96610000Y-129270000D01*
G75*
G02*
X96110000Y-128770000I0J500000D01*
G01*
X96110000Y-127770000D01*
G75*
G02*
X96610000Y-127270000I500000J0D01*
G01*
X102610000Y-127270000D01*
G75*
G02*
X103110000Y-127770000I0J-500000D01*
G01*
X103110000Y-128770000D01*
G75*
G02*
X102610000Y-129270000I-500000J0D01*
G01*
G37*
%TD.AperFunction*%
%TD*%
%TO.P,BLACK,1*%
%TO.N,/PASS4_NO*%
%TA.AperFunction,ComponentPad*%
G36*
G01*
X114350000Y-170570000D02*
X108350000Y-170570000D01*
G75*
G02*
X107850000Y-170070000I0J500000D01*
G01*
X107850000Y-169070000D01*
G75*
G02*
X108350000Y-168570000I500000J0D01*
G01*
X114350000Y-168570000D01*
G75*
G02*
X114850000Y-169070000I0J-500000D01*
G01*
X114850000Y-170070000D01*
G75*
G02*
X114350000Y-170570000I-500000J0D01*
G01*
G37*
%TD.AperFunction*%
%TA.AperFunction,ComponentPad*%
G36*
X110909809Y-176537530D02*
G01*
X110621059Y-176480094D01*
X110339330Y-176394632D01*
X110067335Y-176281968D01*
X109807692Y-176143186D01*
X109562902Y-175979623D01*
X109335323Y-175792853D01*
X109127147Y-175584677D01*
X108940377Y-175357098D01*
X108776814Y-175112308D01*
X108638032Y-174852665D01*
X108525368Y-174580670D01*
X108439906Y-174298941D01*
X108382470Y-174010191D01*
X108353614Y-173717203D01*
X108353614Y-173422797D01*
X108382470Y-173129809D01*
X108439906Y-172841059D01*
X108525368Y-172559330D01*
X108638032Y-172287335D01*
X108776814Y-172027692D01*
X108940377Y-171782902D01*
X109127147Y-171555323D01*
X109231235Y-171451235D01*
X108350000Y-170570000D01*
X114350000Y-170570000D01*
X113468765Y-171451235D01*
X113572853Y-171555323D01*
X113759623Y-171782902D01*
X113923186Y-172027692D01*
X114061968Y-172287335D01*
X114174632Y-172559330D01*
X114260094Y-172841059D01*
X114317530Y-173129809D01*
X114346386Y-173422797D01*
X114346386Y-173717203D01*
X114317530Y-174010191D01*
X114260094Y-174298941D01*
X114174632Y-174580670D01*
X114061968Y-174852665D01*
X113923186Y-175112308D01*
X113759623Y-175357098D01*
X113572853Y-175584677D01*
X113364677Y-175792853D01*
X113137098Y-175979623D01*
X112892308Y-176143186D01*
X112632665Y-176281968D01*
X112360670Y-176394632D01*
X112078941Y-176480094D01*
X111790191Y-176537530D01*
X111497203Y-176566386D01*
X111202797Y-176566386D01*
X110909809Y-176537530D01*
G37*
%TD.AperFunction*%
%TD*%
%TO.P,BLACK,1*%
%TO.N,/IN3\u002A*%
%TA.AperFunction,ComponentPad*%
G36*
G01*
X96610000Y-165010000D02*
X102610000Y-165010000D01*
G75*
G02*
X103110000Y-165510000I0J-500000D01*
G01*
X103110000Y-166510000D01*
G75*
G02*
X102610000Y-167010000I-500000J0D01*
G01*
X96610000Y-167010000D01*
G75*
G02*
X96110000Y-166510000I0J500000D01*
G01*
X96110000Y-165510000D01*
G75*
G02*
X96610000Y-165010000I500000J0D01*
G01*
G37*
%TD.AperFunction*%
%TA.AperFunction,ComponentPad*%
G36*
X100050191Y-159042470D02*
G01*
X100338941Y-159099906D01*
X100620670Y-159185368D01*
X100892665Y-159298032D01*
X101152308Y-159436814D01*
X101397098Y-159600377D01*
X101624677Y-159787147D01*
X101832853Y-159995323D01*
X102019623Y-160222902D01*
X102183186Y-160467692D01*
X102321968Y-160727335D01*
X102434632Y-160999330D01*
X102520094Y-161281059D01*
X102577530Y-161569809D01*
X102606386Y-161862797D01*
X102606386Y-162157203D01*
X102577530Y-162450191D01*
X102520094Y-162738941D01*
X102434632Y-163020670D01*
X102321968Y-163292665D01*
X102183186Y-163552308D01*
X102019623Y-163797098D01*
X101832853Y-164024677D01*
X101728765Y-164128765D01*
X102610000Y-165010000D01*
X96610000Y-165010000D01*
X97491235Y-164128765D01*
X97387147Y-164024677D01*
X97200377Y-163797098D01*
X97036814Y-163552308D01*
X96898032Y-163292665D01*
X96785368Y-163020670D01*
X96699906Y-162738941D01*
X96642470Y-162450191D01*
X96613614Y-162157203D01*
X96613614Y-161862797D01*
X96642470Y-161569809D01*
X96699906Y-161281059D01*
X96785368Y-160999330D01*
X96898032Y-160727335D01*
X97036814Y-160467692D01*
X97200377Y-160222902D01*
X97387147Y-159995323D01*
X97595323Y-159787147D01*
X97822902Y-159600377D01*
X98067692Y-159436814D01*
X98327335Y-159298032D01*
X98599330Y-159185368D01*
X98881059Y-159099906D01*
X99169809Y-159042470D01*
X99462797Y-159013614D01*
X99757203Y-159013614D01*
X100050191Y-159042470D01*
G37*
%TD.AperFunction*%
%TD*%
%TO.P,BLACK,1*%
%TO.N,/IN4\u002A*%
%TA.AperFunction,ComponentPad*%
G36*
G01*
X108350000Y-206650000D02*
X114350000Y-206650000D01*
G75*
G02*
X114850000Y-207150000I0J-500000D01*
G01*
X114850000Y-208150000D01*
G75*
G02*
X114350000Y-208650000I-500000J0D01*
G01*
X108350000Y-208650000D01*
G75*
G02*
X107850000Y-208150000I0J500000D01*
G01*
X107850000Y-207150000D01*
G75*
G02*
X108350000Y-206650000I500000J0D01*
G01*
G37*
%TD.AperFunction*%
%TA.AperFunction,ComponentPad*%
G36*
X111790191Y-200682470D02*
G01*
X112078941Y-200739906D01*
X112360670Y-200825368D01*
X112632665Y-200938032D01*
X112892308Y-201076814D01*
X113137098Y-201240377D01*
X113364677Y-201427147D01*
X113572853Y-201635323D01*
X113759623Y-201862902D01*
X113923186Y-202107692D01*
X114061968Y-202367335D01*
X114174632Y-202639330D01*
X114260094Y-202921059D01*
X114317530Y-203209809D01*
X114346386Y-203502797D01*
X114346386Y-203797203D01*
X114317530Y-204090191D01*
X114260094Y-204378941D01*
X114174632Y-204660670D01*
X114061968Y-204932665D01*
X113923186Y-205192308D01*
X113759623Y-205437098D01*
X113572853Y-205664677D01*
X113468765Y-205768765D01*
X114350000Y-206650000D01*
X108350000Y-206650000D01*
X109231235Y-205768765D01*
X109127147Y-205664677D01*
X108940377Y-205437098D01*
X108776814Y-205192308D01*
X108638032Y-204932665D01*
X108525368Y-204660670D01*
X108439906Y-204378941D01*
X108382470Y-204090191D01*
X108353614Y-203797203D01*
X108353614Y-203502797D01*
X108382470Y-203209809D01*
X108439906Y-202921059D01*
X108525368Y-202639330D01*
X108638032Y-202367335D01*
X108776814Y-202107692D01*
X108940377Y-201862902D01*
X109127147Y-201635323D01*
X109335323Y-201427147D01*
X109562902Y-201240377D01*
X109807692Y-201076814D01*
X110067335Y-200938032D01*
X110339330Y-200825368D01*
X110621059Y-200739906D01*
X110909809Y-200682470D01*
X111202797Y-200653614D01*
X111497203Y-200653614D01*
X111790191Y-200682470D01*
G37*
%TD.AperFunction*%
%TD*%
%TA.AperFunction,ComponentPad*%
%TO.P,BLACK,1*%
%TO.N,/PASS1_NC*%
G36*
X122639809Y-52757530D02*
G01*
X122351059Y-52700094D01*
X122069330Y-52614632D01*
X121797335Y-52501968D01*
X121537692Y-52363186D01*
X121292902Y-52199623D01*
X121065323Y-52012853D01*
X120857147Y-51804677D01*
X120670377Y-51577098D01*
X120506814Y-51332308D01*
X120368032Y-51072665D01*
X120255368Y-50800670D01*
X120169906Y-50518941D01*
X120112470Y-50230191D01*
X120083614Y-49937203D01*
X120083614Y-49642797D01*
X120112470Y-49349809D01*
X120169906Y-49061059D01*
X120255368Y-48779330D01*
X120368032Y-48507335D01*
X120506814Y-48247692D01*
X120670377Y-48002902D01*
X120857147Y-47775323D01*
X120961235Y-47671235D01*
X120080000Y-46790000D01*
X126080000Y-46790000D01*
X125198765Y-47671235D01*
X125302853Y-47775323D01*
X125489623Y-48002902D01*
X125653186Y-48247692D01*
X125791968Y-48507335D01*
X125904632Y-48779330D01*
X125990094Y-49061059D01*
X126047530Y-49349809D01*
X126076386Y-49642797D01*
X126076386Y-49937203D01*
X126047530Y-50230191D01*
X125990094Y-50518941D01*
X125904632Y-50800670D01*
X125791968Y-51072665D01*
X125653186Y-51332308D01*
X125489623Y-51577098D01*
X125302853Y-51804677D01*
X125094677Y-52012853D01*
X124867098Y-52199623D01*
X124622308Y-52363186D01*
X124362665Y-52501968D01*
X124090670Y-52614632D01*
X123808941Y-52700094D01*
X123520191Y-52757530D01*
X123227203Y-52786386D01*
X122932797Y-52786386D01*
X122639809Y-52757530D01*
G37*
%TD.AperFunction*%
%TA.AperFunction,ComponentPad*%
G36*
G01*
X126080000Y-46790000D02*
X120080000Y-46790000D01*
G75*
G02*
X119580000Y-46290000I0J500000D01*
G01*
X119580000Y-45290000D01*
G75*
G02*
X120080000Y-44790000I500000J0D01*
G01*
X126080000Y-44790000D01*
G75*
G02*
X126580000Y-45290000I0J-500000D01*
G01*
X126580000Y-46290000D01*
G75*
G02*
X126080000Y-46790000I-500000J0D01*
G01*
G37*
%TD.AperFunction*%
%TD*%
%TA.AperFunction,ComponentPad*%
%TO.P,BLACK,1*%
%TO.N,/PASS2_NC*%
G36*
X134379809Y-93647530D02*
G01*
X134091059Y-93590094D01*
X133809330Y-93504632D01*
X133537335Y-93391968D01*
X133277692Y-93253186D01*
X133032902Y-93089623D01*
X132805323Y-92902853D01*
X132597147Y-92694677D01*
X132410377Y-92467098D01*
X132246814Y-92222308D01*
X132108032Y-91962665D01*
X131995368Y-91690670D01*
X131909906Y-91408941D01*
X131852470Y-91120191D01*
X131823614Y-90827203D01*
X131823614Y-90532797D01*
X131852470Y-90239809D01*
X131909906Y-89951059D01*
X131995368Y-89669330D01*
X132108032Y-89397335D01*
X132246814Y-89137692D01*
X132410377Y-88892902D01*
X132597147Y-88665323D01*
X132701235Y-88561235D01*
X131820000Y-87680000D01*
X137820000Y-87680000D01*
X136938765Y-88561235D01*
X137042853Y-88665323D01*
X137229623Y-88892902D01*
X137393186Y-89137692D01*
X137531968Y-89397335D01*
X137644632Y-89669330D01*
X137730094Y-89951059D01*
X137787530Y-90239809D01*
X137816386Y-90532797D01*
X137816386Y-90827203D01*
X137787530Y-91120191D01*
X137730094Y-91408941D01*
X137644632Y-91690670D01*
X137531968Y-91962665D01*
X137393186Y-92222308D01*
X137229623Y-92467098D01*
X137042853Y-92694677D01*
X136834677Y-92902853D01*
X136607098Y-93089623D01*
X136362308Y-93253186D01*
X136102665Y-93391968D01*
X135830670Y-93504632D01*
X135548941Y-93590094D01*
X135260191Y-93647530D01*
X134967203Y-93676386D01*
X134672797Y-93676386D01*
X134379809Y-93647530D01*
G37*
%TD.AperFunction*%
%TA.AperFunction,ComponentPad*%
G36*
G01*
X137820000Y-87680000D02*
X131820000Y-87680000D01*
G75*
G02*
X131320000Y-87180000I0J500000D01*
G01*
X131320000Y-86180000D01*
G75*
G02*
X131820000Y-85680000I500000J0D01*
G01*
X137820000Y-85680000D01*
G75*
G02*
X138320000Y-86180000I0J-500000D01*
G01*
X138320000Y-87180000D01*
G75*
G02*
X137820000Y-87680000I-500000J0D01*
G01*
G37*
%TD.AperFunction*%
%TD*%
%TO.P,BLACK,1*%
%TO.N,/IN1\u002A*%
%TA.AperFunction,ComponentPad*%
G36*
G01*
X120080000Y-82500000D02*
X126080000Y-82500000D01*
G75*
G02*
X126580000Y-83000000I0J-500000D01*
G01*
X126580000Y-84000000D01*
G75*
G02*
X126080000Y-84500000I-500000J0D01*
G01*
X120080000Y-84500000D01*
G75*
G02*
X119580000Y-84000000I0J500000D01*
G01*
X119580000Y-83000000D01*
G75*
G02*
X120080000Y-82500000I500000J0D01*
G01*
G37*
%TD.AperFunction*%
%TA.AperFunction,ComponentPad*%
G36*
X123520191Y-76532470D02*
G01*
X123808941Y-76589906D01*
X124090670Y-76675368D01*
X124362665Y-76788032D01*
X124622308Y-76926814D01*
X124867098Y-77090377D01*
X125094677Y-77277147D01*
X125302853Y-77485323D01*
X125489623Y-77712902D01*
X125653186Y-77957692D01*
X125791968Y-78217335D01*
X125904632Y-78489330D01*
X125990094Y-78771059D01*
X126047530Y-79059809D01*
X126076386Y-79352797D01*
X126076386Y-79647203D01*
X126047530Y-79940191D01*
X125990094Y-80228941D01*
X125904632Y-80510670D01*
X125791968Y-80782665D01*
X125653186Y-81042308D01*
X125489623Y-81287098D01*
X125302853Y-81514677D01*
X125198765Y-81618765D01*
X126080000Y-82500000D01*
X120080000Y-82500000D01*
X120961235Y-81618765D01*
X120857147Y-81514677D01*
X120670377Y-81287098D01*
X120506814Y-81042308D01*
X120368032Y-80782665D01*
X120255368Y-80510670D01*
X120169906Y-80228941D01*
X120112470Y-79940191D01*
X120083614Y-79647203D01*
X120083614Y-79352797D01*
X120112470Y-79059809D01*
X120169906Y-78771059D01*
X120255368Y-78489330D01*
X120368032Y-78217335D01*
X120506814Y-77957692D01*
X120670377Y-77712902D01*
X120857147Y-77485323D01*
X121065323Y-77277147D01*
X121292902Y-77090377D01*
X121537692Y-76926814D01*
X121797335Y-76788032D01*
X122069330Y-76675368D01*
X122351059Y-76589906D01*
X122639809Y-76532470D01*
X122932797Y-76503614D01*
X123227203Y-76503614D01*
X123520191Y-76532470D01*
G37*
%TD.AperFunction*%
%TD*%
%TO.P,BLACK,1*%
%TO.N,/IN2\u002A*%
%TA.AperFunction,ComponentPad*%
G36*
G01*
X131820000Y-123740000D02*
X137820000Y-123740000D01*
G75*
G02*
X138320000Y-124240000I0J-500000D01*
G01*
X138320000Y-125240000D01*
G75*
G02*
X137820000Y-125740000I-500000J0D01*
G01*
X131820000Y-125740000D01*
G75*
G02*
X131320000Y-125240000I0J500000D01*
G01*
X131320000Y-124240000D01*
G75*
G02*
X131820000Y-123740000I500000J0D01*
G01*
G37*
%TD.AperFunction*%
%TA.AperFunction,ComponentPad*%
G36*
X135260191Y-117772470D02*
G01*
X135548941Y-117829906D01*
X135830670Y-117915368D01*
X136102665Y-118028032D01*
X136362308Y-118166814D01*
X136607098Y-118330377D01*
X136834677Y-118517147D01*
X137042853Y-118725323D01*
X137229623Y-118952902D01*
X137393186Y-119197692D01*
X137531968Y-119457335D01*
X137644632Y-119729330D01*
X137730094Y-120011059D01*
X137787530Y-120299809D01*
X137816386Y-120592797D01*
X137816386Y-120887203D01*
X137787530Y-121180191D01*
X137730094Y-121468941D01*
X137644632Y-121750670D01*
X137531968Y-122022665D01*
X137393186Y-122282308D01*
X137229623Y-122527098D01*
X137042853Y-122754677D01*
X136938765Y-122858765D01*
X137820000Y-123740000D01*
X131820000Y-123740000D01*
X132701235Y-122858765D01*
X132597147Y-122754677D01*
X132410377Y-122527098D01*
X132246814Y-122282308D01*
X132108032Y-122022665D01*
X131995368Y-121750670D01*
X131909906Y-121468941D01*
X131852470Y-121180191D01*
X131823614Y-120887203D01*
X131823614Y-120592797D01*
X131852470Y-120299809D01*
X131909906Y-120011059D01*
X131995368Y-119729330D01*
X132108032Y-119457335D01*
X132246814Y-119197692D01*
X132410377Y-118952902D01*
X132597147Y-118725323D01*
X132805323Y-118517147D01*
X133032902Y-118330377D01*
X133277692Y-118166814D01*
X133537335Y-118028032D01*
X133809330Y-117915368D01*
X134091059Y-117829906D01*
X134379809Y-117772470D01*
X134672797Y-117743614D01*
X134967203Y-117743614D01*
X135260191Y-117772470D01*
G37*
%TD.AperFunction*%
%TD*%
%TO.P,BLACK,1*%
%TO.N,/PASS3_NC*%
%TA.AperFunction,ComponentPad*%
G36*
G01*
X126080000Y-129270000D02*
X120080000Y-129270000D01*
G75*
G02*
X119580000Y-128770000I0J500000D01*
G01*
X119580000Y-127770000D01*
G75*
G02*
X120080000Y-127270000I500000J0D01*
G01*
X126080000Y-127270000D01*
G75*
G02*
X126580000Y-127770000I0J-500000D01*
G01*
X126580000Y-128770000D01*
G75*
G02*
X126080000Y-129270000I-500000J0D01*
G01*
G37*
%TD.AperFunction*%
%TA.AperFunction,ComponentPad*%
G36*
X122639809Y-135237530D02*
G01*
X122351059Y-135180094D01*
X122069330Y-135094632D01*
X121797335Y-134981968D01*
X121537692Y-134843186D01*
X121292902Y-134679623D01*
X121065323Y-134492853D01*
X120857147Y-134284677D01*
X120670377Y-134057098D01*
X120506814Y-133812308D01*
X120368032Y-133552665D01*
X120255368Y-133280670D01*
X120169906Y-132998941D01*
X120112470Y-132710191D01*
X120083614Y-132417203D01*
X120083614Y-132122797D01*
X120112470Y-131829809D01*
X120169906Y-131541059D01*
X120255368Y-131259330D01*
X120368032Y-130987335D01*
X120506814Y-130727692D01*
X120670377Y-130482902D01*
X120857147Y-130255323D01*
X120961235Y-130151235D01*
X120080000Y-129270000D01*
X126080000Y-129270000D01*
X125198765Y-130151235D01*
X125302853Y-130255323D01*
X125489623Y-130482902D01*
X125653186Y-130727692D01*
X125791968Y-130987335D01*
X125904632Y-131259330D01*
X125990094Y-131541059D01*
X126047530Y-131829809D01*
X126076386Y-132122797D01*
X126076386Y-132417203D01*
X126047530Y-132710191D01*
X125990094Y-132998941D01*
X125904632Y-133280670D01*
X125791968Y-133552665D01*
X125653186Y-133812308D01*
X125489623Y-134057098D01*
X125302853Y-134284677D01*
X125094677Y-134492853D01*
X124867098Y-134679623D01*
X124622308Y-134843186D01*
X124362665Y-134981968D01*
X124090670Y-135094632D01*
X123808941Y-135180094D01*
X123520191Y-135237530D01*
X123227203Y-135266386D01*
X122932797Y-135266386D01*
X122639809Y-135237530D01*
G37*
%TD.AperFunction*%
%TD*%
%TA.AperFunction,ComponentPad*%
%TO.P,BLACK,1*%
%TO.N,/PASS4_NC*%
G36*
X134379809Y-176547530D02*
G01*
X134091059Y-176490094D01*
X133809330Y-176404632D01*
X133537335Y-176291968D01*
X133277692Y-176153186D01*
X133032902Y-175989623D01*
X132805323Y-175802853D01*
X132597147Y-175594677D01*
X132410377Y-175367098D01*
X132246814Y-175122308D01*
X132108032Y-174862665D01*
X131995368Y-174590670D01*
X131909906Y-174308941D01*
X131852470Y-174020191D01*
X131823614Y-173727203D01*
X131823614Y-173432797D01*
X131852470Y-173139809D01*
X131909906Y-172851059D01*
X131995368Y-172569330D01*
X132108032Y-172297335D01*
X132246814Y-172037692D01*
X132410377Y-171792902D01*
X132597147Y-171565323D01*
X132701235Y-171461235D01*
X131820000Y-170580000D01*
X137820000Y-170580000D01*
X136938765Y-171461235D01*
X137042853Y-171565323D01*
X137229623Y-171792902D01*
X137393186Y-172037692D01*
X137531968Y-172297335D01*
X137644632Y-172569330D01*
X137730094Y-172851059D01*
X137787530Y-173139809D01*
X137816386Y-173432797D01*
X137816386Y-173727203D01*
X137787530Y-174020191D01*
X137730094Y-174308941D01*
X137644632Y-174590670D01*
X137531968Y-174862665D01*
X137393186Y-175122308D01*
X137229623Y-175367098D01*
X137042853Y-175594677D01*
X136834677Y-175802853D01*
X136607098Y-175989623D01*
X136362308Y-176153186D01*
X136102665Y-176291968D01*
X135830670Y-176404632D01*
X135548941Y-176490094D01*
X135260191Y-176547530D01*
X134967203Y-176576386D01*
X134672797Y-176576386D01*
X134379809Y-176547530D01*
G37*
%TD.AperFunction*%
%TA.AperFunction,ComponentPad*%
G36*
G01*
X137820000Y-170580000D02*
X131820000Y-170580000D01*
G75*
G02*
X131320000Y-170080000I0J500000D01*
G01*
X131320000Y-169080000D01*
G75*
G02*
X131820000Y-168580000I500000J0D01*
G01*
X137820000Y-168580000D01*
G75*
G02*
X138320000Y-169080000I0J-500000D01*
G01*
X138320000Y-170080000D01*
G75*
G02*
X137820000Y-170580000I-500000J0D01*
G01*
G37*
%TD.AperFunction*%
%TD*%
%TA.AperFunction,ComponentPad*%
%TO.P,BLACK,1*%
%TO.N,/IN3\u002A*%
G36*
X123520191Y-159032470D02*
G01*
X123808941Y-159089906D01*
X124090670Y-159175368D01*
X124362665Y-159288032D01*
X124622308Y-159426814D01*
X124867098Y-159590377D01*
X125094677Y-159777147D01*
X125302853Y-159985323D01*
X125489623Y-160212902D01*
X125653186Y-160457692D01*
X125791968Y-160717335D01*
X125904632Y-160989330D01*
X125990094Y-161271059D01*
X126047530Y-161559809D01*
X126076386Y-161852797D01*
X126076386Y-162147203D01*
X126047530Y-162440191D01*
X125990094Y-162728941D01*
X125904632Y-163010670D01*
X125791968Y-163282665D01*
X125653186Y-163542308D01*
X125489623Y-163787098D01*
X125302853Y-164014677D01*
X125198765Y-164118765D01*
X126080000Y-165000000D01*
X120080000Y-165000000D01*
X120961235Y-164118765D01*
X120857147Y-164014677D01*
X120670377Y-163787098D01*
X120506814Y-163542308D01*
X120368032Y-163282665D01*
X120255368Y-163010670D01*
X120169906Y-162728941D01*
X120112470Y-162440191D01*
X120083614Y-162147203D01*
X120083614Y-161852797D01*
X120112470Y-161559809D01*
X120169906Y-161271059D01*
X120255368Y-160989330D01*
X120368032Y-160717335D01*
X120506814Y-160457692D01*
X120670377Y-160212902D01*
X120857147Y-159985323D01*
X121065323Y-159777147D01*
X121292902Y-159590377D01*
X121537692Y-159426814D01*
X121797335Y-159288032D01*
X122069330Y-159175368D01*
X122351059Y-159089906D01*
X122639809Y-159032470D01*
X122932797Y-159003614D01*
X123227203Y-159003614D01*
X123520191Y-159032470D01*
G37*
%TD.AperFunction*%
%TA.AperFunction,ComponentPad*%
G36*
G01*
X120080000Y-165000000D02*
X126080000Y-165000000D01*
G75*
G02*
X126580000Y-165500000I0J-500000D01*
G01*
X126580000Y-166500000D01*
G75*
G02*
X126080000Y-167000000I-500000J0D01*
G01*
X120080000Y-167000000D01*
G75*
G02*
X119580000Y-166500000I0J500000D01*
G01*
X119580000Y-165500000D01*
G75*
G02*
X120080000Y-165000000I500000J0D01*
G01*
G37*
%TD.AperFunction*%
%TD*%
%TO.P,BLACK,1*%
%TO.N,/IN4\u002A*%
%TA.AperFunction,ComponentPad*%
G36*
G01*
X131820000Y-206640000D02*
X137820000Y-206640000D01*
G75*
G02*
X138320000Y-207140000I0J-500000D01*
G01*
X138320000Y-208140000D01*
G75*
G02*
X137820000Y-208640000I-500000J0D01*
G01*
X131820000Y-208640000D01*
G75*
G02*
X131320000Y-208140000I0J500000D01*
G01*
X131320000Y-207140000D01*
G75*
G02*
X131820000Y-206640000I500000J0D01*
G01*
G37*
%TD.AperFunction*%
%TA.AperFunction,ComponentPad*%
G36*
X135260191Y-200672470D02*
G01*
X135548941Y-200729906D01*
X135830670Y-200815368D01*
X136102665Y-200928032D01*
X136362308Y-201066814D01*
X136607098Y-201230377D01*
X136834677Y-201417147D01*
X137042853Y-201625323D01*
X137229623Y-201852902D01*
X137393186Y-202097692D01*
X137531968Y-202357335D01*
X137644632Y-202629330D01*
X137730094Y-202911059D01*
X137787530Y-203199809D01*
X137816386Y-203492797D01*
X137816386Y-203787203D01*
X137787530Y-204080191D01*
X137730094Y-204368941D01*
X137644632Y-204650670D01*
X137531968Y-204922665D01*
X137393186Y-205182308D01*
X137229623Y-205427098D01*
X137042853Y-205654677D01*
X136938765Y-205758765D01*
X137820000Y-206640000D01*
X131820000Y-206640000D01*
X132701235Y-205758765D01*
X132597147Y-205654677D01*
X132410377Y-205427098D01*
X132246814Y-205182308D01*
X132108032Y-204922665D01*
X131995368Y-204650670D01*
X131909906Y-204368941D01*
X131852470Y-204080191D01*
X131823614Y-203787203D01*
X131823614Y-203492797D01*
X131852470Y-203199809D01*
X131909906Y-202911059D01*
X131995368Y-202629330D01*
X132108032Y-202357335D01*
X132246814Y-202097692D01*
X132410377Y-201852902D01*
X132597147Y-201625323D01*
X132805323Y-201417147D01*
X133032902Y-201230377D01*
X133277692Y-201066814D01*
X133537335Y-200928032D01*
X133809330Y-200815368D01*
X134091059Y-200729906D01*
X134379809Y-200672470D01*
X134672797Y-200643614D01*
X134967203Y-200643614D01*
X135260191Y-200672470D01*
G37*
%TD.AperFunction*%
%TD*%
%TO.P,BLACK,1*%
%TO.N,Net-(D9-Pad1)*%
%TA.AperFunction,ComponentPad*%
G36*
G01*
X179220000Y-47157223D02*
X173220000Y-47157223D01*
G75*
G02*
X172720000Y-46657223I0J500000D01*
G01*
X172720000Y-45657223D01*
G75*
G02*
X173220000Y-45157223I500000J0D01*
G01*
X179220000Y-45157223D01*
G75*
G02*
X179720000Y-45657223I0J-500000D01*
G01*
X179720000Y-46657223D01*
G75*
G02*
X179220000Y-47157223I-500000J0D01*
G01*
G37*
%TD.AperFunction*%
%TA.AperFunction,ComponentPad*%
G36*
X175779809Y-53124753D02*
G01*
X175491059Y-53067317D01*
X175209330Y-52981855D01*
X174937335Y-52869191D01*
X174677692Y-52730409D01*
X174432902Y-52566846D01*
X174205323Y-52380076D01*
X173997147Y-52171900D01*
X173810377Y-51944321D01*
X173646814Y-51699531D01*
X173508032Y-51439888D01*
X173395368Y-51167893D01*
X173309906Y-50886164D01*
X173252470Y-50597414D01*
X173223614Y-50304426D01*
X173223614Y-50010020D01*
X173252470Y-49717032D01*
X173309906Y-49428282D01*
X173395368Y-49146553D01*
X173508032Y-48874558D01*
X173646814Y-48614915D01*
X173810377Y-48370125D01*
X173997147Y-48142546D01*
X174101235Y-48038458D01*
X173220000Y-47157223D01*
X179220000Y-47157223D01*
X178338765Y-48038458D01*
X178442853Y-48142546D01*
X178629623Y-48370125D01*
X178793186Y-48614915D01*
X178931968Y-48874558D01*
X179044632Y-49146553D01*
X179130094Y-49428282D01*
X179187530Y-49717032D01*
X179216386Y-50010020D01*
X179216386Y-50304426D01*
X179187530Y-50597414D01*
X179130094Y-50886164D01*
X179044632Y-51167893D01*
X178931968Y-51439888D01*
X178793186Y-51699531D01*
X178629623Y-51944321D01*
X178442853Y-52171900D01*
X178234677Y-52380076D01*
X178007098Y-52566846D01*
X177762308Y-52730409D01*
X177502665Y-52869191D01*
X177230670Y-52981855D01*
X176948941Y-53067317D01*
X176660191Y-53124753D01*
X176367203Y-53153609D01*
X176072797Y-53153609D01*
X175779809Y-53124753D01*
G37*
%TD.AperFunction*%
%TD*%
%TA.AperFunction,ComponentPad*%
%TO.P,BLACK,1*%
%TO.N,Net-(D9-Pad2)*%
G36*
X176660191Y-76175247D02*
G01*
X176948941Y-76232683D01*
X177230670Y-76318145D01*
X177502665Y-76430809D01*
X177762308Y-76569591D01*
X178007098Y-76733154D01*
X178234677Y-76919924D01*
X178442853Y-77128100D01*
X178629623Y-77355679D01*
X178793186Y-77600469D01*
X178931968Y-77860112D01*
X179044632Y-78132107D01*
X179130094Y-78413836D01*
X179187530Y-78702586D01*
X179216386Y-78995574D01*
X179216386Y-79289980D01*
X179187530Y-79582968D01*
X179130094Y-79871718D01*
X179044632Y-80153447D01*
X178931968Y-80425442D01*
X178793186Y-80685085D01*
X178629623Y-80929875D01*
X178442853Y-81157454D01*
X178338765Y-81261542D01*
X179220000Y-82142777D01*
X173220000Y-82142777D01*
X174101235Y-81261542D01*
X173997147Y-81157454D01*
X173810377Y-80929875D01*
X173646814Y-80685085D01*
X173508032Y-80425442D01*
X173395368Y-80153447D01*
X173309906Y-79871718D01*
X173252470Y-79582968D01*
X173223614Y-79289980D01*
X173223614Y-78995574D01*
X173252470Y-78702586D01*
X173309906Y-78413836D01*
X173395368Y-78132107D01*
X173508032Y-77860112D01*
X173646814Y-77600469D01*
X173810377Y-77355679D01*
X173997147Y-77128100D01*
X174205323Y-76919924D01*
X174432902Y-76733154D01*
X174677692Y-76569591D01*
X174937335Y-76430809D01*
X175209330Y-76318145D01*
X175491059Y-76232683D01*
X175779809Y-76175247D01*
X176072797Y-76146391D01*
X176367203Y-76146391D01*
X176660191Y-76175247D01*
G37*
%TD.AperFunction*%
%TA.AperFunction,ComponentPad*%
G36*
G01*
X173220000Y-82142777D02*
X179220000Y-82142777D01*
G75*
G02*
X179720000Y-82642777I0J-500000D01*
G01*
X179720000Y-83642777D01*
G75*
G02*
X179220000Y-84142777I-500000J0D01*
G01*
X173220000Y-84142777D01*
G75*
G02*
X172720000Y-83642777I0J500000D01*
G01*
X172720000Y-82642777D01*
G75*
G02*
X173220000Y-82142777I500000J0D01*
G01*
G37*
%TD.AperFunction*%
%TD*%
%TA.AperFunction,ComponentPad*%
%TO.P,BLACK,1*%
%TO.N,Net-(D10-Pad1)*%
G36*
X175779809Y-94381419D02*
G01*
X175491059Y-94323983D01*
X175209330Y-94238521D01*
X174937335Y-94125857D01*
X174677692Y-93987075D01*
X174432902Y-93823512D01*
X174205323Y-93636742D01*
X173997147Y-93428566D01*
X173810377Y-93200987D01*
X173646814Y-92956197D01*
X173508032Y-92696554D01*
X173395368Y-92424559D01*
X173309906Y-92142830D01*
X173252470Y-91854080D01*
X173223614Y-91561092D01*
X173223614Y-91266686D01*
X173252470Y-90973698D01*
X173309906Y-90684948D01*
X173395368Y-90403219D01*
X173508032Y-90131224D01*
X173646814Y-89871581D01*
X173810377Y-89626791D01*
X173997147Y-89399212D01*
X174101235Y-89295124D01*
X173220000Y-88413889D01*
X179220000Y-88413889D01*
X178338765Y-89295124D01*
X178442853Y-89399212D01*
X178629623Y-89626791D01*
X178793186Y-89871581D01*
X178931968Y-90131224D01*
X179044632Y-90403219D01*
X179130094Y-90684948D01*
X179187530Y-90973698D01*
X179216386Y-91266686D01*
X179216386Y-91561092D01*
X179187530Y-91854080D01*
X179130094Y-92142830D01*
X179044632Y-92424559D01*
X178931968Y-92696554D01*
X178793186Y-92956197D01*
X178629623Y-93200987D01*
X178442853Y-93428566D01*
X178234677Y-93636742D01*
X178007098Y-93823512D01*
X177762308Y-93987075D01*
X177502665Y-94125857D01*
X177230670Y-94238521D01*
X176948941Y-94323983D01*
X176660191Y-94381419D01*
X176367203Y-94410275D01*
X176072797Y-94410275D01*
X175779809Y-94381419D01*
G37*
%TD.AperFunction*%
%TA.AperFunction,ComponentPad*%
G36*
G01*
X179220000Y-88413889D02*
X173220000Y-88413889D01*
G75*
G02*
X172720000Y-87913889I0J500000D01*
G01*
X172720000Y-86913889D01*
G75*
G02*
X173220000Y-86413889I500000J0D01*
G01*
X179220000Y-86413889D01*
G75*
G02*
X179720000Y-86913889I0J-500000D01*
G01*
X179720000Y-87913889D01*
G75*
G02*
X179220000Y-88413889I-500000J0D01*
G01*
G37*
%TD.AperFunction*%
%TD*%
%TO.P,BLACK,1*%
%TO.N,Net-(D10-Pad2)*%
%TA.AperFunction,ComponentPad*%
G36*
G01*
X173220000Y-123399443D02*
X179220000Y-123399443D01*
G75*
G02*
X179720000Y-123899443I0J-500000D01*
G01*
X179720000Y-124899443D01*
G75*
G02*
X179220000Y-125399443I-500000J0D01*
G01*
X173220000Y-125399443D01*
G75*
G02*
X172720000Y-124899443I0J500000D01*
G01*
X172720000Y-123899443D01*
G75*
G02*
X173220000Y-123399443I500000J0D01*
G01*
G37*
%TD.AperFunction*%
%TA.AperFunction,ComponentPad*%
G36*
X176660191Y-117431913D02*
G01*
X176948941Y-117489349D01*
X177230670Y-117574811D01*
X177502665Y-117687475D01*
X177762308Y-117826257D01*
X178007098Y-117989820D01*
X178234677Y-118176590D01*
X178442853Y-118384766D01*
X178629623Y-118612345D01*
X178793186Y-118857135D01*
X178931968Y-119116778D01*
X179044632Y-119388773D01*
X179130094Y-119670502D01*
X179187530Y-119959252D01*
X179216386Y-120252240D01*
X179216386Y-120546646D01*
X179187530Y-120839634D01*
X179130094Y-121128384D01*
X179044632Y-121410113D01*
X178931968Y-121682108D01*
X178793186Y-121941751D01*
X178629623Y-122186541D01*
X178442853Y-122414120D01*
X178338765Y-122518208D01*
X179220000Y-123399443D01*
X173220000Y-123399443D01*
X174101235Y-122518208D01*
X173997147Y-122414120D01*
X173810377Y-122186541D01*
X173646814Y-121941751D01*
X173508032Y-121682108D01*
X173395368Y-121410113D01*
X173309906Y-121128384D01*
X173252470Y-120839634D01*
X173223614Y-120546646D01*
X173223614Y-120252240D01*
X173252470Y-119959252D01*
X173309906Y-119670502D01*
X173395368Y-119388773D01*
X173508032Y-119116778D01*
X173646814Y-118857135D01*
X173810377Y-118612345D01*
X173997147Y-118384766D01*
X174205323Y-118176590D01*
X174432902Y-117989820D01*
X174677692Y-117826257D01*
X174937335Y-117687475D01*
X175209330Y-117574811D01*
X175491059Y-117489349D01*
X175779809Y-117431913D01*
X176072797Y-117403057D01*
X176367203Y-117403057D01*
X176660191Y-117431913D01*
G37*
%TD.AperFunction*%
%TD*%
%TO.P,BLACK,1*%
%TO.N,Net-(D11-Pad1)*%
%TA.AperFunction,ComponentPad*%
G36*
G01*
X179220000Y-129670555D02*
X173220000Y-129670555D01*
G75*
G02*
X172720000Y-129170555I0J500000D01*
G01*
X172720000Y-128170555D01*
G75*
G02*
X173220000Y-127670555I500000J0D01*
G01*
X179220000Y-127670555D01*
G75*
G02*
X179720000Y-128170555I0J-500000D01*
G01*
X179720000Y-129170555D01*
G75*
G02*
X179220000Y-129670555I-500000J0D01*
G01*
G37*
%TD.AperFunction*%
%TA.AperFunction,ComponentPad*%
G36*
X175779809Y-135638085D02*
G01*
X175491059Y-135580649D01*
X175209330Y-135495187D01*
X174937335Y-135382523D01*
X174677692Y-135243741D01*
X174432902Y-135080178D01*
X174205323Y-134893408D01*
X173997147Y-134685232D01*
X173810377Y-134457653D01*
X173646814Y-134212863D01*
X173508032Y-133953220D01*
X173395368Y-133681225D01*
X173309906Y-133399496D01*
X173252470Y-133110746D01*
X173223614Y-132817758D01*
X173223614Y-132523352D01*
X173252470Y-132230364D01*
X173309906Y-131941614D01*
X173395368Y-131659885D01*
X173508032Y-131387890D01*
X173646814Y-131128247D01*
X173810377Y-130883457D01*
X173997147Y-130655878D01*
X174101235Y-130551790D01*
X173220000Y-129670555D01*
X179220000Y-129670555D01*
X178338765Y-130551790D01*
X178442853Y-130655878D01*
X178629623Y-130883457D01*
X178793186Y-131128247D01*
X178931968Y-131387890D01*
X179044632Y-131659885D01*
X179130094Y-131941614D01*
X179187530Y-132230364D01*
X179216386Y-132523352D01*
X179216386Y-132817758D01*
X179187530Y-133110746D01*
X179130094Y-133399496D01*
X179044632Y-133681225D01*
X178931968Y-133953220D01*
X178793186Y-134212863D01*
X178629623Y-134457653D01*
X178442853Y-134685232D01*
X178234677Y-134893408D01*
X178007098Y-135080178D01*
X177762308Y-135243741D01*
X177502665Y-135382523D01*
X177230670Y-135495187D01*
X176948941Y-135580649D01*
X176660191Y-135638085D01*
X176367203Y-135666941D01*
X176072797Y-135666941D01*
X175779809Y-135638085D01*
G37*
%TD.AperFunction*%
%TD*%
%TA.AperFunction,ComponentPad*%
%TO.P,BLACK,1*%
%TO.N,Net-(D11-Pad2)*%
G36*
X176660191Y-158688579D02*
G01*
X176948941Y-158746015D01*
X177230670Y-158831477D01*
X177502665Y-158944141D01*
X177762308Y-159082923D01*
X178007098Y-159246486D01*
X178234677Y-159433256D01*
X178442853Y-159641432D01*
X178629623Y-159869011D01*
X178793186Y-160113801D01*
X178931968Y-160373444D01*
X179044632Y-160645439D01*
X179130094Y-160927168D01*
X179187530Y-161215918D01*
X179216386Y-161508906D01*
X179216386Y-161803312D01*
X179187530Y-162096300D01*
X179130094Y-162385050D01*
X179044632Y-162666779D01*
X178931968Y-162938774D01*
X178793186Y-163198417D01*
X178629623Y-163443207D01*
X178442853Y-163670786D01*
X178338765Y-163774874D01*
X179220000Y-164656109D01*
X173220000Y-164656109D01*
X174101235Y-163774874D01*
X173997147Y-163670786D01*
X173810377Y-163443207D01*
X173646814Y-163198417D01*
X173508032Y-162938774D01*
X173395368Y-162666779D01*
X173309906Y-162385050D01*
X173252470Y-162096300D01*
X173223614Y-161803312D01*
X173223614Y-161508906D01*
X173252470Y-161215918D01*
X173309906Y-160927168D01*
X173395368Y-160645439D01*
X173508032Y-160373444D01*
X173646814Y-160113801D01*
X173810377Y-159869011D01*
X173997147Y-159641432D01*
X174205323Y-159433256D01*
X174432902Y-159246486D01*
X174677692Y-159082923D01*
X174937335Y-158944141D01*
X175209330Y-158831477D01*
X175491059Y-158746015D01*
X175779809Y-158688579D01*
X176072797Y-158659723D01*
X176367203Y-158659723D01*
X176660191Y-158688579D01*
G37*
%TD.AperFunction*%
%TA.AperFunction,ComponentPad*%
G36*
G01*
X173220000Y-164656109D02*
X179220000Y-164656109D01*
G75*
G02*
X179720000Y-165156109I0J-500000D01*
G01*
X179720000Y-166156109D01*
G75*
G02*
X179220000Y-166656109I-500000J0D01*
G01*
X173220000Y-166656109D01*
G75*
G02*
X172720000Y-166156109I0J500000D01*
G01*
X172720000Y-165156109D01*
G75*
G02*
X173220000Y-164656109I500000J0D01*
G01*
G37*
%TD.AperFunction*%
%TD*%
%TA.AperFunction,ComponentPad*%
%TO.P,BLACK,1*%
%TO.N,Net-(D12-Pad1)*%
G36*
X175779809Y-176894753D02*
G01*
X175491059Y-176837317D01*
X175209330Y-176751855D01*
X174937335Y-176639191D01*
X174677692Y-176500409D01*
X174432902Y-176336846D01*
X174205323Y-176150076D01*
X173997147Y-175941900D01*
X173810377Y-175714321D01*
X173646814Y-175469531D01*
X173508032Y-175209888D01*
X173395368Y-174937893D01*
X173309906Y-174656164D01*
X173252470Y-174367414D01*
X173223614Y-174074426D01*
X173223614Y-173780020D01*
X173252470Y-173487032D01*
X173309906Y-173198282D01*
X173395368Y-172916553D01*
X173508032Y-172644558D01*
X173646814Y-172384915D01*
X173810377Y-172140125D01*
X173997147Y-171912546D01*
X174101235Y-171808458D01*
X173220000Y-170927223D01*
X179220000Y-170927223D01*
X178338765Y-171808458D01*
X178442853Y-171912546D01*
X178629623Y-172140125D01*
X178793186Y-172384915D01*
X178931968Y-172644558D01*
X179044632Y-172916553D01*
X179130094Y-173198282D01*
X179187530Y-173487032D01*
X179216386Y-173780020D01*
X179216386Y-174074426D01*
X179187530Y-174367414D01*
X179130094Y-174656164D01*
X179044632Y-174937893D01*
X178931968Y-175209888D01*
X178793186Y-175469531D01*
X178629623Y-175714321D01*
X178442853Y-175941900D01*
X178234677Y-176150076D01*
X178007098Y-176336846D01*
X177762308Y-176500409D01*
X177502665Y-176639191D01*
X177230670Y-176751855D01*
X176948941Y-176837317D01*
X176660191Y-176894753D01*
X176367203Y-176923609D01*
X176072797Y-176923609D01*
X175779809Y-176894753D01*
G37*
%TD.AperFunction*%
%TA.AperFunction,ComponentPad*%
G36*
G01*
X179220000Y-170927223D02*
X173220000Y-170927223D01*
G75*
G02*
X172720000Y-170427223I0J500000D01*
G01*
X172720000Y-169427223D01*
G75*
G02*
X173220000Y-168927223I500000J0D01*
G01*
X179220000Y-168927223D01*
G75*
G02*
X179720000Y-169427223I0J-500000D01*
G01*
X179720000Y-170427223D01*
G75*
G02*
X179220000Y-170927223I-500000J0D01*
G01*
G37*
%TD.AperFunction*%
%TD*%
%TO.P,BLACK,1*%
%TO.N,Net-(D12-Pad2)*%
%TA.AperFunction,ComponentPad*%
G36*
G01*
X173220000Y-205912777D02*
X179220000Y-205912777D01*
G75*
G02*
X179720000Y-206412777I0J-500000D01*
G01*
X179720000Y-207412777D01*
G75*
G02*
X179220000Y-207912777I-500000J0D01*
G01*
X173220000Y-207912777D01*
G75*
G02*
X172720000Y-207412777I0J500000D01*
G01*
X172720000Y-206412777D01*
G75*
G02*
X173220000Y-205912777I500000J0D01*
G01*
G37*
%TD.AperFunction*%
%TA.AperFunction,ComponentPad*%
G36*
X176660191Y-199945247D02*
G01*
X176948941Y-200002683D01*
X177230670Y-200088145D01*
X177502665Y-200200809D01*
X177762308Y-200339591D01*
X178007098Y-200503154D01*
X178234677Y-200689924D01*
X178442853Y-200898100D01*
X178629623Y-201125679D01*
X178793186Y-201370469D01*
X178931968Y-201630112D01*
X179044632Y-201902107D01*
X179130094Y-202183836D01*
X179187530Y-202472586D01*
X179216386Y-202765574D01*
X179216386Y-203059980D01*
X179187530Y-203352968D01*
X179130094Y-203641718D01*
X179044632Y-203923447D01*
X178931968Y-204195442D01*
X178793186Y-204455085D01*
X178629623Y-204699875D01*
X178442853Y-204927454D01*
X178338765Y-205031542D01*
X179220000Y-205912777D01*
X173220000Y-205912777D01*
X174101235Y-205031542D01*
X173997147Y-204927454D01*
X173810377Y-204699875D01*
X173646814Y-204455085D01*
X173508032Y-204195442D01*
X173395368Y-203923447D01*
X173309906Y-203641718D01*
X173252470Y-203352968D01*
X173223614Y-203059980D01*
X173223614Y-202765574D01*
X173252470Y-202472586D01*
X173309906Y-202183836D01*
X173395368Y-201902107D01*
X173508032Y-201630112D01*
X173646814Y-201370469D01*
X173810377Y-201125679D01*
X173997147Y-200898100D01*
X174205323Y-200689924D01*
X174432902Y-200503154D01*
X174677692Y-200339591D01*
X174937335Y-200200809D01*
X175209330Y-200088145D01*
X175491059Y-200002683D01*
X175779809Y-199945247D01*
X176072797Y-199916391D01*
X176367203Y-199916391D01*
X176660191Y-199945247D01*
G37*
%TD.AperFunction*%
%TD*%
D10*
%TO.P,BUTTON,*%
%TO.N,*%
X53770000Y-64650000D03*
D11*
%TO.P,BUTTON,2*%
%TO.N,/IN1*%
X35170000Y-76950000D03*
%TO.P,BUTTON,1*%
%TO.N,/PASS1_NC*%
X35170000Y-83250000D03*
%TO.P,BUTTON,3*%
%TO.N,/PASS1_NO*%
X35170000Y-70650000D03*
%TD*%
%TO.P,BUTTON,3*%
%TO.N,/PASS2_NO*%
X66110000Y-111906666D03*
%TO.P,BUTTON,1*%
%TO.N,/PASS2_NC*%
X66110000Y-124506666D03*
%TO.P,BUTTON,2*%
%TO.N,/IN2*%
X66110000Y-118206666D03*
D10*
%TO.P,BUTTON,*%
%TO.N,*%
X84710000Y-105906666D03*
%TD*%
D11*
%TO.P,SWITCH,3*%
%TO.N,/PASS3_NO*%
X35170000Y-153163332D03*
%TO.P,SWITCH,1*%
%TO.N,/PASS3_NC*%
X35170000Y-165763332D03*
%TO.P,SWITCH,2*%
%TO.N,/IN3*%
X35170000Y-159463332D03*
D10*
%TO.P,SWITCH,*%
%TO.N,*%
X53770000Y-147163332D03*
%TD*%
%TO.P,SWITCH,*%
%TO.N,*%
X84710000Y-188420000D03*
D11*
%TO.P,SWITCH,2*%
%TO.N,/IN4*%
X66110000Y-200720000D03*
%TO.P,SWITCH,1*%
%TO.N,/PASS4_NC*%
X66110000Y-207020000D03*
%TO.P,SWITCH,3*%
%TO.N,/PASS4_NO*%
X66110000Y-194420000D03*
%TD*%
D13*
%TO.N,/IN2\u002A*%
X68370000Y-138430000D03*
X82190000Y-138430000D03*
D14*
X83520000Y-132380000D03*
X69700000Y-132380000D03*
D15*
X129030000Y-107469166D03*
X105660000Y-107470000D03*
D13*
%TO.N,/PASS3_NO*%
X56850000Y-177290000D03*
X54470000Y-168030000D03*
D15*
%TO.N,/IN4\u002A*%
X105630000Y-189960000D03*
X129140000Y-189982500D03*
D13*
X95350000Y-164310000D03*
X81710000Y-164980000D03*
D14*
X94990000Y-169900000D03*
X81300000Y-169940000D03*
D13*
%TO.N,/PASS3_NC*%
X39230000Y-177290000D03*
%TO.N,/PASS4_NC*%
X96960000Y-170200000D03*
%TO.N,/IN1*%
X63390000Y-85520000D03*
%TO.N,/IN2*%
X90740000Y-126450000D03*
%TO.N,/IN3*%
X65800000Y-168140000D03*
%TO.N,/IN4*%
X86820000Y-172370000D03*
X72840000Y-172440000D03*
%TD*%
D16*
%TO.N,/PASS3_NO*%
X56170000Y-177290000D02*
X56850000Y-177290000D01*
X54470000Y-175590000D02*
X56170000Y-177290000D01*
X54470000Y-168030000D02*
X54470000Y-175590000D01*
%TO.N,/PASS1_NC*%
X35170000Y-83250000D02*
X47490000Y-83250000D01*
X47490000Y-83250000D02*
X56190000Y-91950000D01*
X56190000Y-91950000D02*
X67880000Y-91950000D01*
X110040000Y-49790000D02*
X123080000Y-49790000D01*
X67880000Y-91950000D02*
X110040000Y-49790000D01*
%TO.N,/PASS2_NC*%
X105120000Y-104310000D02*
X121380000Y-104310000D01*
X103140000Y-107930000D02*
X103140000Y-106290000D01*
X103140000Y-106290000D02*
X105120000Y-104310000D01*
X93760000Y-117310000D02*
X103140000Y-107930000D01*
X92680000Y-128630000D02*
X93760000Y-127550000D01*
X81768002Y-128630000D02*
X92680000Y-128630000D01*
X121380000Y-104310000D02*
X134820000Y-90870000D01*
X93760000Y-127550000D02*
X93760000Y-117310000D01*
X77644668Y-124506666D02*
X81768002Y-128630000D01*
X134820000Y-90870000D02*
X134820000Y-90680000D01*
X66110000Y-124506666D02*
X77644668Y-124506666D01*
%TO.N,/PASS3_NC*%
X35170000Y-165763332D02*
X35170000Y-175570000D01*
X36890000Y-177290000D02*
X39230000Y-177290000D01*
X35170000Y-175570000D02*
X36890000Y-177290000D01*
X112950000Y-135980000D02*
X116660000Y-132270000D01*
X112950000Y-148540000D02*
X112950000Y-135980000D01*
X108030000Y-153460000D02*
X112950000Y-148540000D01*
X70010000Y-153460000D02*
X108030000Y-153460000D01*
X68410000Y-155060000D02*
X70010000Y-153460000D01*
X68410000Y-169060000D02*
X68410000Y-155060000D01*
X67010000Y-170460000D02*
X68410000Y-169060000D01*
X116660000Y-132270000D02*
X123080000Y-132270000D01*
X61280000Y-170460000D02*
X67010000Y-170460000D01*
X56583332Y-165763332D02*
X61280000Y-170460000D01*
X35170000Y-165763332D02*
X56583332Y-165763332D01*
%TO.N,/PASS4_NC*%
X96960000Y-170200000D02*
X102910000Y-170200000D01*
X102910000Y-170200000D02*
X106320000Y-166790000D01*
X106320000Y-166790000D02*
X115430000Y-166790000D01*
X115430000Y-166790000D02*
X118740000Y-170100000D01*
X131340000Y-170100000D02*
X134820000Y-173580000D01*
X118740000Y-170100000D02*
X131340000Y-170100000D01*
%TO.N,/IN1*%
X35170000Y-76950000D02*
X55730000Y-76950000D01*
X55730000Y-76950000D02*
X63390000Y-84610000D01*
X63390000Y-84610000D02*
X63390000Y-85520000D01*
X63390000Y-85520000D02*
X63390000Y-85520000D01*
%TO.N,/IN2*%
X66110000Y-118206666D02*
X84046666Y-118206666D01*
X84046666Y-118206666D02*
X90740000Y-124900000D01*
X90740000Y-124900000D02*
X90740000Y-126450000D01*
X90740000Y-126450000D02*
X90740000Y-126450000D01*
%TO.N,/IN3*%
X35170000Y-159463332D02*
X60043332Y-159463332D01*
X60043332Y-159463332D02*
X65800000Y-165220000D01*
X65800000Y-165220000D02*
X65800000Y-168140000D01*
X65800000Y-168140000D02*
X65800000Y-168140000D01*
%TO.N,/IN4*%
X66110000Y-200720000D02*
X69360000Y-200720000D01*
X69360000Y-200720000D02*
X71160000Y-198920000D01*
X71160000Y-174120000D02*
X72840000Y-172440000D01*
X71160000Y-198920000D02*
X71160000Y-174120000D01*
X86750000Y-172440000D02*
X86820000Y-172370000D01*
X72840000Y-172440000D02*
X86750000Y-172440000D01*
%TD*%
D17*
%TO.N,/IN2\u002A*%
X73174468Y-102979200D02*
X72825000Y-104736096D01*
X72825000Y-107077236D01*
X73281734Y-109373392D01*
X74177650Y-111536324D01*
X75478318Y-113482912D01*
X77133754Y-115138348D01*
X79080342Y-116439016D01*
X80004141Y-116821666D01*
X69470810Y-116821666D01*
X69331295Y-116484848D01*
X68933489Y-115889489D01*
X68427177Y-115383177D01*
X67938519Y-115056666D01*
X68427177Y-114730155D01*
X68933489Y-114223843D01*
X69331295Y-113628484D01*
X69605309Y-112966956D01*
X69745000Y-112264682D01*
X69745000Y-111548650D01*
X69605309Y-110846376D01*
X69331295Y-110184848D01*
X68933489Y-109589489D01*
X68427177Y-109083177D01*
X67831818Y-108685371D01*
X67170290Y-108411357D01*
X66468016Y-108271666D01*
X65751984Y-108271666D01*
X65049710Y-108411357D01*
X64388182Y-108685371D01*
X63792823Y-109083177D01*
X63286511Y-109589489D01*
X62888705Y-110184848D01*
X62614691Y-110846376D01*
X62475000Y-111548650D01*
X62475000Y-112264682D01*
X62614691Y-112966956D01*
X62888705Y-113628484D01*
X63286511Y-114223843D01*
X63792823Y-114730155D01*
X64281481Y-115056666D01*
X63792823Y-115383177D01*
X63286511Y-115889489D01*
X62888705Y-116484848D01*
X62614691Y-117146376D01*
X62475000Y-117848650D01*
X62475000Y-118564682D01*
X62614691Y-119266956D01*
X62888705Y-119928484D01*
X63286511Y-120523843D01*
X63792823Y-121030155D01*
X64281481Y-121356666D01*
X63792823Y-121683177D01*
X63286511Y-122189489D01*
X62888705Y-122784848D01*
X62614691Y-123446376D01*
X62475000Y-124148650D01*
X62475000Y-124864682D01*
X62614691Y-125566956D01*
X62888705Y-126228484D01*
X63286511Y-126823843D01*
X63792823Y-127330155D01*
X64388182Y-127727961D01*
X65049710Y-128001975D01*
X65751984Y-128141666D01*
X66468016Y-128141666D01*
X67170290Y-128001975D01*
X67831818Y-127727961D01*
X68427177Y-127330155D01*
X68933489Y-126823843D01*
X69331295Y-126228484D01*
X69470810Y-125891666D01*
X77070983Y-125891666D01*
X80740552Y-129561236D01*
X80783921Y-129614081D01*
X80836766Y-129657450D01*
X80836768Y-129657452D01*
X80914427Y-129721185D01*
X80994814Y-129787157D01*
X81235421Y-129915764D01*
X81496495Y-129994960D01*
X81699965Y-130015000D01*
X81699973Y-130015000D01*
X81768002Y-130021700D01*
X81836031Y-130015000D01*
X92611971Y-130015000D01*
X92680000Y-130021700D01*
X92748029Y-130015000D01*
X92748037Y-130015000D01*
X92951507Y-129994960D01*
X93212581Y-129915764D01*
X93453188Y-129787157D01*
X93664081Y-129614081D01*
X93707454Y-129561231D01*
X94691241Y-128577445D01*
X94744080Y-128534081D01*
X94787445Y-128481241D01*
X94787452Y-128481234D01*
X94917157Y-128323188D01*
X95045764Y-128082581D01*
X95124960Y-127821507D01*
X95130032Y-127770000D01*
X95471928Y-127770000D01*
X95471928Y-128770000D01*
X95493796Y-128992027D01*
X95558559Y-129205521D01*
X95663728Y-129402279D01*
X95805262Y-129574738D01*
X95977721Y-129716272D01*
X96174479Y-129821441D01*
X96295905Y-129858275D01*
X96636073Y-130198443D01*
X96433699Y-130501316D01*
X96374734Y-130611631D01*
X96149677Y-131154967D01*
X96113367Y-131274665D01*
X95998634Y-131851468D01*
X95986374Y-131975949D01*
X95986374Y-132564051D01*
X95998634Y-132688532D01*
X96113367Y-133265335D01*
X96149677Y-133385033D01*
X96374734Y-133928369D01*
X96433699Y-134038684D01*
X96760432Y-134527674D01*
X96839784Y-134624365D01*
X97255635Y-135040216D01*
X97352326Y-135119568D01*
X97841316Y-135446301D01*
X97951631Y-135505266D01*
X98494967Y-135730323D01*
X98614665Y-135766633D01*
X99191468Y-135881366D01*
X99315949Y-135893626D01*
X99904051Y-135893626D01*
X100028532Y-135881366D01*
X100605335Y-135766633D01*
X100725033Y-135730323D01*
X101268369Y-135505266D01*
X101378684Y-135446301D01*
X101867674Y-135119568D01*
X101964365Y-135040216D01*
X102380216Y-134624365D01*
X102459568Y-134527674D01*
X102786301Y-134038684D01*
X102845266Y-133928369D01*
X103070323Y-133385033D01*
X103106633Y-133265335D01*
X103221366Y-132688532D01*
X103233626Y-132564051D01*
X103233626Y-131975949D01*
X103221366Y-131851468D01*
X103106633Y-131274665D01*
X103070323Y-131154967D01*
X102845266Y-130611631D01*
X102786301Y-130501316D01*
X102583927Y-130198443D01*
X102924095Y-129858275D01*
X103045521Y-129821441D01*
X103242279Y-129716272D01*
X103414738Y-129574738D01*
X103556272Y-129402279D01*
X103661441Y-129205521D01*
X103726204Y-128992027D01*
X103748072Y-128770000D01*
X103748072Y-127770000D01*
X103726204Y-127547973D01*
X103661441Y-127334479D01*
X103556272Y-127137721D01*
X103414738Y-126965262D01*
X103242279Y-126823728D01*
X103045521Y-126718559D01*
X102832027Y-126653796D01*
X102610000Y-126631928D01*
X96610000Y-126631928D01*
X96387973Y-126653796D01*
X96174479Y-126718559D01*
X95977721Y-126823728D01*
X95805262Y-126965262D01*
X95663728Y-127137721D01*
X95558559Y-127334479D01*
X95493796Y-127547973D01*
X95471928Y-127770000D01*
X95130032Y-127770000D01*
X95134173Y-127727961D01*
X95145000Y-127618037D01*
X95145000Y-127618029D01*
X95151700Y-127550000D01*
X95145000Y-127481971D01*
X95145000Y-125770000D01*
X107211928Y-125770000D01*
X107224188Y-125894482D01*
X107260498Y-126014180D01*
X107319463Y-126124494D01*
X107398815Y-126221185D01*
X107495506Y-126300537D01*
X107605820Y-126359502D01*
X107725518Y-126395812D01*
X107850000Y-126408072D01*
X111064250Y-126405000D01*
X111223000Y-126246250D01*
X111223000Y-124897000D01*
X111477000Y-124897000D01*
X111477000Y-126246250D01*
X111635750Y-126405000D01*
X114850000Y-126408072D01*
X114974482Y-126395812D01*
X115094180Y-126359502D01*
X115204494Y-126300537D01*
X115301185Y-126221185D01*
X115380537Y-126124494D01*
X115439502Y-126014180D01*
X115475812Y-125894482D01*
X115488072Y-125770000D01*
X115487943Y-125740000D01*
X130681928Y-125740000D01*
X130694188Y-125864482D01*
X130730498Y-125984180D01*
X130789463Y-126094494D01*
X130868815Y-126191185D01*
X130965506Y-126270537D01*
X131075820Y-126329502D01*
X131195518Y-126365812D01*
X131320000Y-126378072D01*
X134534250Y-126375000D01*
X134693000Y-126216250D01*
X134693000Y-124867000D01*
X134947000Y-124867000D01*
X134947000Y-126216250D01*
X135105750Y-126375000D01*
X138320000Y-126378072D01*
X138444482Y-126365812D01*
X138564180Y-126329502D01*
X138674494Y-126270537D01*
X138771185Y-126191185D01*
X138850537Y-126094494D01*
X138909502Y-125984180D01*
X138945812Y-125864482D01*
X138958072Y-125740000D01*
X138955000Y-125025750D01*
X138796250Y-124867000D01*
X134947000Y-124867000D01*
X134693000Y-124867000D01*
X130843750Y-124867000D01*
X130685000Y-125025750D01*
X130681928Y-125740000D01*
X115487943Y-125740000D01*
X115485000Y-125055750D01*
X115326250Y-124897000D01*
X111477000Y-124897000D01*
X111223000Y-124897000D01*
X107373750Y-124897000D01*
X107215000Y-125055750D01*
X107211928Y-125770000D01*
X95145000Y-125770000D01*
X95145000Y-123770000D01*
X107211928Y-123770000D01*
X107215000Y-124484250D01*
X107373750Y-124643000D01*
X111223000Y-124643000D01*
X111223000Y-124623000D01*
X111477000Y-124623000D01*
X111477000Y-124643000D01*
X115326250Y-124643000D01*
X115485000Y-124484250D01*
X115488072Y-123770000D01*
X115485118Y-123740000D01*
X130681928Y-123740000D01*
X130685000Y-124454250D01*
X130843750Y-124613000D01*
X134693000Y-124613000D01*
X134693000Y-124593000D01*
X134947000Y-124593000D01*
X134947000Y-124613000D01*
X138796250Y-124613000D01*
X138955000Y-124454250D01*
X138958072Y-123740000D01*
X138945812Y-123615518D01*
X138909502Y-123495820D01*
X138850537Y-123385506D01*
X138771185Y-123288815D01*
X138674494Y-123209463D01*
X138564180Y-123150498D01*
X138444482Y-123114188D01*
X138320000Y-123101928D01*
X138084523Y-123102153D01*
X137793927Y-122811557D01*
X137996301Y-122508684D01*
X138055266Y-122398369D01*
X138280323Y-121855033D01*
X138316633Y-121735335D01*
X138431366Y-121158532D01*
X138443626Y-121034051D01*
X138443626Y-120445949D01*
X138431366Y-120321468D01*
X138316633Y-119744665D01*
X138280323Y-119624967D01*
X138055266Y-119081631D01*
X137996301Y-118971316D01*
X137669568Y-118482326D01*
X137590216Y-118385635D01*
X137174365Y-117969784D01*
X137077674Y-117890432D01*
X136588684Y-117563699D01*
X136478369Y-117504734D01*
X135935033Y-117279677D01*
X135815335Y-117243367D01*
X135238532Y-117128634D01*
X135114051Y-117116374D01*
X134525949Y-117116374D01*
X134401468Y-117128634D01*
X133824665Y-117243367D01*
X133704967Y-117279677D01*
X133161631Y-117504734D01*
X133051316Y-117563699D01*
X132562326Y-117890432D01*
X132465635Y-117969784D01*
X132049784Y-118385635D01*
X131970432Y-118482326D01*
X131643699Y-118971316D01*
X131584734Y-119081631D01*
X131359677Y-119624967D01*
X131323367Y-119744665D01*
X131208634Y-120321468D01*
X131196374Y-120445949D01*
X131196374Y-121034051D01*
X131208634Y-121158532D01*
X131323367Y-121735335D01*
X131359677Y-121855033D01*
X131584734Y-122398369D01*
X131643699Y-122508684D01*
X131846073Y-122811557D01*
X131555477Y-123102153D01*
X131320000Y-123101928D01*
X131195518Y-123114188D01*
X131075820Y-123150498D01*
X130965506Y-123209463D01*
X130868815Y-123288815D01*
X130789463Y-123385506D01*
X130730498Y-123495820D01*
X130694188Y-123615518D01*
X130681928Y-123740000D01*
X115485118Y-123740000D01*
X115475812Y-123645518D01*
X115439502Y-123525820D01*
X115380537Y-123415506D01*
X115301185Y-123318815D01*
X115204494Y-123239463D01*
X115094180Y-123180498D01*
X114974482Y-123144188D01*
X114850000Y-123131928D01*
X114614523Y-123132153D01*
X114323927Y-122841557D01*
X114526301Y-122538684D01*
X114585266Y-122428369D01*
X114810323Y-121885033D01*
X114846633Y-121765335D01*
X114961366Y-121188532D01*
X114973626Y-121064051D01*
X114973626Y-120475949D01*
X114961366Y-120351468D01*
X114846633Y-119774665D01*
X114810323Y-119654967D01*
X114585266Y-119111631D01*
X114526301Y-119001316D01*
X114199568Y-118512326D01*
X114120216Y-118415635D01*
X113704365Y-117999784D01*
X113607674Y-117920432D01*
X113118684Y-117593699D01*
X113008369Y-117534734D01*
X112465033Y-117309677D01*
X112345335Y-117273367D01*
X111768532Y-117158634D01*
X111644051Y-117146374D01*
X111055949Y-117146374D01*
X110931468Y-117158634D01*
X110354665Y-117273367D01*
X110234967Y-117309677D01*
X109691631Y-117534734D01*
X109581316Y-117593699D01*
X109092326Y-117920432D01*
X108995635Y-117999784D01*
X108579784Y-118415635D01*
X108500432Y-118512326D01*
X108173699Y-119001316D01*
X108114734Y-119111631D01*
X107889677Y-119654967D01*
X107853367Y-119774665D01*
X107738634Y-120351468D01*
X107726374Y-120475949D01*
X107726374Y-121064051D01*
X107738634Y-121188532D01*
X107853367Y-121765335D01*
X107889677Y-121885033D01*
X108114734Y-122428369D01*
X108173699Y-122538684D01*
X108376073Y-122841557D01*
X108085477Y-123132153D01*
X107850000Y-123131928D01*
X107725518Y-123144188D01*
X107605820Y-123180498D01*
X107495506Y-123239463D01*
X107398815Y-123318815D01*
X107319463Y-123415506D01*
X107260498Y-123525820D01*
X107224188Y-123645518D01*
X107211928Y-123770000D01*
X95145000Y-123770000D01*
X95145000Y-117883685D01*
X104071241Y-108957445D01*
X104124080Y-108914081D01*
X104167445Y-108861241D01*
X104167452Y-108861234D01*
X104297156Y-108703189D01*
X104297157Y-108703188D01*
X104425764Y-108462581D01*
X104504960Y-108201507D01*
X104525000Y-107998037D01*
X104525000Y-107998028D01*
X104531700Y-107930001D01*
X104525000Y-107861974D01*
X104525000Y-106863685D01*
X105693686Y-105695000D01*
X121311971Y-105695000D01*
X121380000Y-105701700D01*
X121448029Y-105695000D01*
X121448037Y-105695000D01*
X121651507Y-105674960D01*
X121912581Y-105595764D01*
X122153188Y-105467157D01*
X122364081Y-105294081D01*
X122407454Y-105241231D01*
X124485120Y-103163565D01*
X142012786Y-103226544D01*
X141973215Y-126712130D01*
X106255868Y-126468003D01*
X106231075Y-126470274D01*
X106207202Y-126477338D01*
X106185166Y-126488924D01*
X106165813Y-126504586D01*
X106149888Y-126523722D01*
X106138002Y-126545598D01*
X106130613Y-126569373D01*
X106128006Y-126596256D01*
X106380075Y-152075000D01*
X70078029Y-152075000D01*
X70010000Y-152068300D01*
X69941971Y-152075000D01*
X69941963Y-152075000D01*
X69738493Y-152095040D01*
X69480319Y-152173356D01*
X64562842Y-152164108D01*
X65198266Y-150630058D01*
X65655000Y-148333902D01*
X65655000Y-145992762D01*
X65198266Y-143696606D01*
X64302350Y-141533674D01*
X63001682Y-139587086D01*
X61405122Y-137990526D01*
X61556451Y-102937455D01*
X73174468Y-102979200D01*
%TA.AperFunction,Conductor*%
D18*
G36*
X73174468Y-102979200D02*
G01*
X72825000Y-104736096D01*
X72825000Y-107077236D01*
X73281734Y-109373392D01*
X74177650Y-111536324D01*
X75478318Y-113482912D01*
X77133754Y-115138348D01*
X79080342Y-116439016D01*
X80004141Y-116821666D01*
X69470810Y-116821666D01*
X69331295Y-116484848D01*
X68933489Y-115889489D01*
X68427177Y-115383177D01*
X67938519Y-115056666D01*
X68427177Y-114730155D01*
X68933489Y-114223843D01*
X69331295Y-113628484D01*
X69605309Y-112966956D01*
X69745000Y-112264682D01*
X69745000Y-111548650D01*
X69605309Y-110846376D01*
X69331295Y-110184848D01*
X68933489Y-109589489D01*
X68427177Y-109083177D01*
X67831818Y-108685371D01*
X67170290Y-108411357D01*
X66468016Y-108271666D01*
X65751984Y-108271666D01*
X65049710Y-108411357D01*
X64388182Y-108685371D01*
X63792823Y-109083177D01*
X63286511Y-109589489D01*
X62888705Y-110184848D01*
X62614691Y-110846376D01*
X62475000Y-111548650D01*
X62475000Y-112264682D01*
X62614691Y-112966956D01*
X62888705Y-113628484D01*
X63286511Y-114223843D01*
X63792823Y-114730155D01*
X64281481Y-115056666D01*
X63792823Y-115383177D01*
X63286511Y-115889489D01*
X62888705Y-116484848D01*
X62614691Y-117146376D01*
X62475000Y-117848650D01*
X62475000Y-118564682D01*
X62614691Y-119266956D01*
X62888705Y-119928484D01*
X63286511Y-120523843D01*
X63792823Y-121030155D01*
X64281481Y-121356666D01*
X63792823Y-121683177D01*
X63286511Y-122189489D01*
X62888705Y-122784848D01*
X62614691Y-123446376D01*
X62475000Y-124148650D01*
X62475000Y-124864682D01*
X62614691Y-125566956D01*
X62888705Y-126228484D01*
X63286511Y-126823843D01*
X63792823Y-127330155D01*
X64388182Y-127727961D01*
X65049710Y-128001975D01*
X65751984Y-128141666D01*
X66468016Y-128141666D01*
X67170290Y-128001975D01*
X67831818Y-127727961D01*
X68427177Y-127330155D01*
X68933489Y-126823843D01*
X69331295Y-126228484D01*
X69470810Y-125891666D01*
X77070983Y-125891666D01*
X80740552Y-129561236D01*
X80783921Y-129614081D01*
X80836766Y-129657450D01*
X80836768Y-129657452D01*
X80914427Y-129721185D01*
X80994814Y-129787157D01*
X81235421Y-129915764D01*
X81496495Y-129994960D01*
X81699965Y-130015000D01*
X81699973Y-130015000D01*
X81768002Y-130021700D01*
X81836031Y-130015000D01*
X92611971Y-130015000D01*
X92680000Y-130021700D01*
X92748029Y-130015000D01*
X92748037Y-130015000D01*
X92951507Y-129994960D01*
X93212581Y-129915764D01*
X93453188Y-129787157D01*
X93664081Y-129614081D01*
X93707454Y-129561231D01*
X94691241Y-128577445D01*
X94744080Y-128534081D01*
X94787445Y-128481241D01*
X94787452Y-128481234D01*
X94917157Y-128323188D01*
X95045764Y-128082581D01*
X95124960Y-127821507D01*
X95130032Y-127770000D01*
X95471928Y-127770000D01*
X95471928Y-128770000D01*
X95493796Y-128992027D01*
X95558559Y-129205521D01*
X95663728Y-129402279D01*
X95805262Y-129574738D01*
X95977721Y-129716272D01*
X96174479Y-129821441D01*
X96295905Y-129858275D01*
X96636073Y-130198443D01*
X96433699Y-130501316D01*
X96374734Y-130611631D01*
X96149677Y-131154967D01*
X96113367Y-131274665D01*
X95998634Y-131851468D01*
X95986374Y-131975949D01*
X95986374Y-132564051D01*
X95998634Y-132688532D01*
X96113367Y-133265335D01*
X96149677Y-133385033D01*
X96374734Y-133928369D01*
X96433699Y-134038684D01*
X96760432Y-134527674D01*
X96839784Y-134624365D01*
X97255635Y-135040216D01*
X97352326Y-135119568D01*
X97841316Y-135446301D01*
X97951631Y-135505266D01*
X98494967Y-135730323D01*
X98614665Y-135766633D01*
X99191468Y-135881366D01*
X99315949Y-135893626D01*
X99904051Y-135893626D01*
X100028532Y-135881366D01*
X100605335Y-135766633D01*
X100725033Y-135730323D01*
X101268369Y-135505266D01*
X101378684Y-135446301D01*
X101867674Y-135119568D01*
X101964365Y-135040216D01*
X102380216Y-134624365D01*
X102459568Y-134527674D01*
X102786301Y-134038684D01*
X102845266Y-133928369D01*
X103070323Y-133385033D01*
X103106633Y-133265335D01*
X103221366Y-132688532D01*
X103233626Y-132564051D01*
X103233626Y-131975949D01*
X103221366Y-131851468D01*
X103106633Y-131274665D01*
X103070323Y-131154967D01*
X102845266Y-130611631D01*
X102786301Y-130501316D01*
X102583927Y-130198443D01*
X102924095Y-129858275D01*
X103045521Y-129821441D01*
X103242279Y-129716272D01*
X103414738Y-129574738D01*
X103556272Y-129402279D01*
X103661441Y-129205521D01*
X103726204Y-128992027D01*
X103748072Y-128770000D01*
X103748072Y-127770000D01*
X103726204Y-127547973D01*
X103661441Y-127334479D01*
X103556272Y-127137721D01*
X103414738Y-126965262D01*
X103242279Y-126823728D01*
X103045521Y-126718559D01*
X102832027Y-126653796D01*
X102610000Y-126631928D01*
X96610000Y-126631928D01*
X96387973Y-126653796D01*
X96174479Y-126718559D01*
X95977721Y-126823728D01*
X95805262Y-126965262D01*
X95663728Y-127137721D01*
X95558559Y-127334479D01*
X95493796Y-127547973D01*
X95471928Y-127770000D01*
X95130032Y-127770000D01*
X95134173Y-127727961D01*
X95145000Y-127618037D01*
X95145000Y-127618029D01*
X95151700Y-127550000D01*
X95145000Y-127481971D01*
X95145000Y-125770000D01*
X107211928Y-125770000D01*
X107224188Y-125894482D01*
X107260498Y-126014180D01*
X107319463Y-126124494D01*
X107398815Y-126221185D01*
X107495506Y-126300537D01*
X107605820Y-126359502D01*
X107725518Y-126395812D01*
X107850000Y-126408072D01*
X111064250Y-126405000D01*
X111223000Y-126246250D01*
X111223000Y-124897000D01*
X111477000Y-124897000D01*
X111477000Y-126246250D01*
X111635750Y-126405000D01*
X114850000Y-126408072D01*
X114974482Y-126395812D01*
X115094180Y-126359502D01*
X115204494Y-126300537D01*
X115301185Y-126221185D01*
X115380537Y-126124494D01*
X115439502Y-126014180D01*
X115475812Y-125894482D01*
X115488072Y-125770000D01*
X115487943Y-125740000D01*
X130681928Y-125740000D01*
X130694188Y-125864482D01*
X130730498Y-125984180D01*
X130789463Y-126094494D01*
X130868815Y-126191185D01*
X130965506Y-126270537D01*
X131075820Y-126329502D01*
X131195518Y-126365812D01*
X131320000Y-126378072D01*
X134534250Y-126375000D01*
X134693000Y-126216250D01*
X134693000Y-124867000D01*
X134947000Y-124867000D01*
X134947000Y-126216250D01*
X135105750Y-126375000D01*
X138320000Y-126378072D01*
X138444482Y-126365812D01*
X138564180Y-126329502D01*
X138674494Y-126270537D01*
X138771185Y-126191185D01*
X138850537Y-126094494D01*
X138909502Y-125984180D01*
X138945812Y-125864482D01*
X138958072Y-125740000D01*
X138955000Y-125025750D01*
X138796250Y-124867000D01*
X134947000Y-124867000D01*
X134693000Y-124867000D01*
X130843750Y-124867000D01*
X130685000Y-125025750D01*
X130681928Y-125740000D01*
X115487943Y-125740000D01*
X115485000Y-125055750D01*
X115326250Y-124897000D01*
X111477000Y-124897000D01*
X111223000Y-124897000D01*
X107373750Y-124897000D01*
X107215000Y-125055750D01*
X107211928Y-125770000D01*
X95145000Y-125770000D01*
X95145000Y-123770000D01*
X107211928Y-123770000D01*
X107215000Y-124484250D01*
X107373750Y-124643000D01*
X111223000Y-124643000D01*
X111223000Y-124623000D01*
X111477000Y-124623000D01*
X111477000Y-124643000D01*
X115326250Y-124643000D01*
X115485000Y-124484250D01*
X115488072Y-123770000D01*
X115485118Y-123740000D01*
X130681928Y-123740000D01*
X130685000Y-124454250D01*
X130843750Y-124613000D01*
X134693000Y-124613000D01*
X134693000Y-124593000D01*
X134947000Y-124593000D01*
X134947000Y-124613000D01*
X138796250Y-124613000D01*
X138955000Y-124454250D01*
X138958072Y-123740000D01*
X138945812Y-123615518D01*
X138909502Y-123495820D01*
X138850537Y-123385506D01*
X138771185Y-123288815D01*
X138674494Y-123209463D01*
X138564180Y-123150498D01*
X138444482Y-123114188D01*
X138320000Y-123101928D01*
X138084523Y-123102153D01*
X137793927Y-122811557D01*
X137996301Y-122508684D01*
X138055266Y-122398369D01*
X138280323Y-121855033D01*
X138316633Y-121735335D01*
X138431366Y-121158532D01*
X138443626Y-121034051D01*
X138443626Y-120445949D01*
X138431366Y-120321468D01*
X138316633Y-119744665D01*
X138280323Y-119624967D01*
X138055266Y-119081631D01*
X137996301Y-118971316D01*
X137669568Y-118482326D01*
X137590216Y-118385635D01*
X137174365Y-117969784D01*
X137077674Y-117890432D01*
X136588684Y-117563699D01*
X136478369Y-117504734D01*
X135935033Y-117279677D01*
X135815335Y-117243367D01*
X135238532Y-117128634D01*
X135114051Y-117116374D01*
X134525949Y-117116374D01*
X134401468Y-117128634D01*
X133824665Y-117243367D01*
X133704967Y-117279677D01*
X133161631Y-117504734D01*
X133051316Y-117563699D01*
X132562326Y-117890432D01*
X132465635Y-117969784D01*
X132049784Y-118385635D01*
X131970432Y-118482326D01*
X131643699Y-118971316D01*
X131584734Y-119081631D01*
X131359677Y-119624967D01*
X131323367Y-119744665D01*
X131208634Y-120321468D01*
X131196374Y-120445949D01*
X131196374Y-121034051D01*
X131208634Y-121158532D01*
X131323367Y-121735335D01*
X131359677Y-121855033D01*
X131584734Y-122398369D01*
X131643699Y-122508684D01*
X131846073Y-122811557D01*
X131555477Y-123102153D01*
X131320000Y-123101928D01*
X131195518Y-123114188D01*
X131075820Y-123150498D01*
X130965506Y-123209463D01*
X130868815Y-123288815D01*
X130789463Y-123385506D01*
X130730498Y-123495820D01*
X130694188Y-123615518D01*
X130681928Y-123740000D01*
X115485118Y-123740000D01*
X115475812Y-123645518D01*
X115439502Y-123525820D01*
X115380537Y-123415506D01*
X115301185Y-123318815D01*
X115204494Y-123239463D01*
X115094180Y-123180498D01*
X114974482Y-123144188D01*
X114850000Y-123131928D01*
X114614523Y-123132153D01*
X114323927Y-122841557D01*
X114526301Y-122538684D01*
X114585266Y-122428369D01*
X114810323Y-121885033D01*
X114846633Y-121765335D01*
X114961366Y-121188532D01*
X114973626Y-121064051D01*
X114973626Y-120475949D01*
X114961366Y-120351468D01*
X114846633Y-119774665D01*
X114810323Y-119654967D01*
X114585266Y-119111631D01*
X114526301Y-119001316D01*
X114199568Y-118512326D01*
X114120216Y-118415635D01*
X113704365Y-117999784D01*
X113607674Y-117920432D01*
X113118684Y-117593699D01*
X113008369Y-117534734D01*
X112465033Y-117309677D01*
X112345335Y-117273367D01*
X111768532Y-117158634D01*
X111644051Y-117146374D01*
X111055949Y-117146374D01*
X110931468Y-117158634D01*
X110354665Y-117273367D01*
X110234967Y-117309677D01*
X109691631Y-117534734D01*
X109581316Y-117593699D01*
X109092326Y-117920432D01*
X108995635Y-117999784D01*
X108579784Y-118415635D01*
X108500432Y-118512326D01*
X108173699Y-119001316D01*
X108114734Y-119111631D01*
X107889677Y-119654967D01*
X107853367Y-119774665D01*
X107738634Y-120351468D01*
X107726374Y-120475949D01*
X107726374Y-121064051D01*
X107738634Y-121188532D01*
X107853367Y-121765335D01*
X107889677Y-121885033D01*
X108114734Y-122428369D01*
X108173699Y-122538684D01*
X108376073Y-122841557D01*
X108085477Y-123132153D01*
X107850000Y-123131928D01*
X107725518Y-123144188D01*
X107605820Y-123180498D01*
X107495506Y-123239463D01*
X107398815Y-123318815D01*
X107319463Y-123415506D01*
X107260498Y-123525820D01*
X107224188Y-123645518D01*
X107211928Y-123770000D01*
X95145000Y-123770000D01*
X95145000Y-117883685D01*
X104071241Y-108957445D01*
X104124080Y-108914081D01*
X104167445Y-108861241D01*
X104167452Y-108861234D01*
X104297156Y-108703189D01*
X104297157Y-108703188D01*
X104425764Y-108462581D01*
X104504960Y-108201507D01*
X104525000Y-107998037D01*
X104525000Y-107998028D01*
X104531700Y-107930001D01*
X104525000Y-107861974D01*
X104525000Y-106863685D01*
X105693686Y-105695000D01*
X121311971Y-105695000D01*
X121380000Y-105701700D01*
X121448029Y-105695000D01*
X121448037Y-105695000D01*
X121651507Y-105674960D01*
X121912581Y-105595764D01*
X122153188Y-105467157D01*
X122364081Y-105294081D01*
X122407454Y-105241231D01*
X124485120Y-103163565D01*
X142012786Y-103226544D01*
X141973215Y-126712130D01*
X106255868Y-126468003D01*
X106231075Y-126470274D01*
X106207202Y-126477338D01*
X106185166Y-126488924D01*
X106165813Y-126504586D01*
X106149888Y-126523722D01*
X106138002Y-126545598D01*
X106130613Y-126569373D01*
X106128006Y-126596256D01*
X106380075Y-152075000D01*
X70078029Y-152075000D01*
X70010000Y-152068300D01*
X69941971Y-152075000D01*
X69941963Y-152075000D01*
X69738493Y-152095040D01*
X69480319Y-152173356D01*
X64562842Y-152164108D01*
X65198266Y-150630058D01*
X65655000Y-148333902D01*
X65655000Y-145992762D01*
X65198266Y-143696606D01*
X64302350Y-141533674D01*
X63001682Y-139587086D01*
X61405122Y-137990526D01*
X61556451Y-102937455D01*
X73174468Y-102979200D01*
G37*
%TD.AperFunction*%
%TD*%
D17*
%TO.N,/IN4\u002A*%
X106267752Y-165403446D02*
X106251972Y-165405000D01*
X106251963Y-165405000D01*
X106048493Y-165425040D01*
X105787419Y-165504236D01*
X105546812Y-165632843D01*
X105501099Y-165670359D01*
X105388766Y-165762548D01*
X105388764Y-165762550D01*
X105335919Y-165805919D01*
X105292550Y-165858764D01*
X102336315Y-168815000D01*
X96823589Y-168815000D01*
X96756530Y-168828339D01*
X96688493Y-168835040D01*
X96623068Y-168854886D01*
X96556011Y-168868225D01*
X96492845Y-168894389D01*
X96427419Y-168914236D01*
X96367123Y-168946465D01*
X96303957Y-168972629D01*
X96247110Y-169010613D01*
X96186812Y-169042843D01*
X96133960Y-169086217D01*
X96077114Y-169124201D01*
X96028769Y-169172546D01*
X95975919Y-169215919D01*
X95932548Y-169268767D01*
X95884201Y-169317114D01*
X95846217Y-169373960D01*
X95802843Y-169426812D01*
X95770613Y-169487110D01*
X95732629Y-169543957D01*
X95706465Y-169607123D01*
X95674236Y-169667419D01*
X95654389Y-169732845D01*
X95628225Y-169796011D01*
X95614886Y-169863068D01*
X95595040Y-169928493D01*
X95588339Y-169996530D01*
X95575000Y-170063589D01*
X95575000Y-170131963D01*
X95568299Y-170200000D01*
X95575000Y-170268037D01*
X95575000Y-170336411D01*
X95588339Y-170403470D01*
X95595040Y-170471507D01*
X95614886Y-170536932D01*
X95628225Y-170603989D01*
X95654389Y-170667155D01*
X95674236Y-170732581D01*
X95706465Y-170792877D01*
X95732629Y-170856043D01*
X95770613Y-170912890D01*
X95802843Y-170973188D01*
X95846217Y-171026040D01*
X95884201Y-171082886D01*
X95932546Y-171131231D01*
X95975919Y-171184081D01*
X96028767Y-171227452D01*
X96077114Y-171275799D01*
X96133960Y-171313783D01*
X96186812Y-171357157D01*
X96247110Y-171389387D01*
X96303957Y-171427371D01*
X96367123Y-171453535D01*
X96427419Y-171485764D01*
X96492845Y-171505611D01*
X96556011Y-171531775D01*
X96623068Y-171545114D01*
X96688493Y-171564960D01*
X96756530Y-171571661D01*
X96823589Y-171585000D01*
X102841971Y-171585000D01*
X102910000Y-171591700D01*
X102978029Y-171585000D01*
X102978037Y-171585000D01*
X103181507Y-171564960D01*
X103442581Y-171485764D01*
X103683188Y-171357157D01*
X103894081Y-171184081D01*
X103937454Y-171131231D01*
X106287883Y-168780803D01*
X106373002Y-183060757D01*
X106375590Y-183085518D01*
X106382959Y-183109299D01*
X106394826Y-183131186D01*
X106410734Y-183150336D01*
X106430073Y-183166015D01*
X106452099Y-183177620D01*
X106475966Y-183184705D01*
X106498410Y-183186990D01*
X141525091Y-183625446D01*
X141995855Y-211628463D01*
X61541451Y-211917545D01*
X61464366Y-194061984D01*
X62475000Y-194061984D01*
X62475000Y-194778016D01*
X62614691Y-195480290D01*
X62888705Y-196141818D01*
X63286511Y-196737177D01*
X63792823Y-197243489D01*
X64281481Y-197570000D01*
X63792823Y-197896511D01*
X63286511Y-198402823D01*
X62888705Y-198998182D01*
X62614691Y-199659710D01*
X62475000Y-200361984D01*
X62475000Y-201078016D01*
X62614691Y-201780290D01*
X62888705Y-202441818D01*
X63286511Y-203037177D01*
X63792823Y-203543489D01*
X64281481Y-203870000D01*
X63792823Y-204196511D01*
X63286511Y-204702823D01*
X62888705Y-205298182D01*
X62614691Y-205959710D01*
X62475000Y-206661984D01*
X62475000Y-207378016D01*
X62614691Y-208080290D01*
X62888705Y-208741818D01*
X63286511Y-209337177D01*
X63792823Y-209843489D01*
X64388182Y-210241295D01*
X65049710Y-210515309D01*
X65751984Y-210655000D01*
X66468016Y-210655000D01*
X67170290Y-210515309D01*
X67831818Y-210241295D01*
X68427177Y-209843489D01*
X68933489Y-209337177D01*
X69331295Y-208741818D01*
X69369327Y-208650000D01*
X107211928Y-208650000D01*
X107224188Y-208774482D01*
X107260498Y-208894180D01*
X107319463Y-209004494D01*
X107398815Y-209101185D01*
X107495506Y-209180537D01*
X107605820Y-209239502D01*
X107725518Y-209275812D01*
X107850000Y-209288072D01*
X111064250Y-209285000D01*
X111223000Y-209126250D01*
X111223000Y-207777000D01*
X111477000Y-207777000D01*
X111477000Y-209126250D01*
X111635750Y-209285000D01*
X114850000Y-209288072D01*
X114974482Y-209275812D01*
X115094180Y-209239502D01*
X115204494Y-209180537D01*
X115301185Y-209101185D01*
X115380537Y-209004494D01*
X115439502Y-208894180D01*
X115475812Y-208774482D01*
X115488072Y-208650000D01*
X115488029Y-208640000D01*
X130681928Y-208640000D01*
X130694188Y-208764482D01*
X130730498Y-208884180D01*
X130789463Y-208994494D01*
X130868815Y-209091185D01*
X130965506Y-209170537D01*
X131075820Y-209229502D01*
X131195518Y-209265812D01*
X131320000Y-209278072D01*
X134534250Y-209275000D01*
X134693000Y-209116250D01*
X134693000Y-207767000D01*
X134947000Y-207767000D01*
X134947000Y-209116250D01*
X135105750Y-209275000D01*
X138320000Y-209278072D01*
X138444482Y-209265812D01*
X138564180Y-209229502D01*
X138674494Y-209170537D01*
X138771185Y-209091185D01*
X138850537Y-208994494D01*
X138909502Y-208884180D01*
X138945812Y-208764482D01*
X138958072Y-208640000D01*
X138955000Y-207925750D01*
X138796250Y-207767000D01*
X134947000Y-207767000D01*
X134693000Y-207767000D01*
X130843750Y-207767000D01*
X130685000Y-207925750D01*
X130681928Y-208640000D01*
X115488029Y-208640000D01*
X115485000Y-207935750D01*
X115326250Y-207777000D01*
X111477000Y-207777000D01*
X111223000Y-207777000D01*
X107373750Y-207777000D01*
X107215000Y-207935750D01*
X107211928Y-208650000D01*
X69369327Y-208650000D01*
X69605309Y-208080290D01*
X69745000Y-207378016D01*
X69745000Y-206661984D01*
X69742617Y-206650000D01*
X107211928Y-206650000D01*
X107215000Y-207364250D01*
X107373750Y-207523000D01*
X111223000Y-207523000D01*
X111223000Y-207503000D01*
X111477000Y-207503000D01*
X111477000Y-207523000D01*
X115326250Y-207523000D01*
X115485000Y-207364250D01*
X115488072Y-206650000D01*
X115487088Y-206640000D01*
X130681928Y-206640000D01*
X130685000Y-207354250D01*
X130843750Y-207513000D01*
X134693000Y-207513000D01*
X134693000Y-207493000D01*
X134947000Y-207493000D01*
X134947000Y-207513000D01*
X138796250Y-207513000D01*
X138955000Y-207354250D01*
X138958072Y-206640000D01*
X138945812Y-206515518D01*
X138909502Y-206395820D01*
X138850537Y-206285506D01*
X138771185Y-206188815D01*
X138674494Y-206109463D01*
X138564180Y-206050498D01*
X138444482Y-206014188D01*
X138320000Y-206001928D01*
X138084523Y-206002153D01*
X137793927Y-205711557D01*
X137996301Y-205408684D01*
X138055266Y-205298369D01*
X138280323Y-204755033D01*
X138316633Y-204635335D01*
X138431366Y-204058532D01*
X138443626Y-203934051D01*
X138443626Y-203345949D01*
X138431366Y-203221468D01*
X138316633Y-202644665D01*
X138280323Y-202524967D01*
X138055266Y-201981631D01*
X137996301Y-201871316D01*
X137669568Y-201382326D01*
X137590216Y-201285635D01*
X137174365Y-200869784D01*
X137077674Y-200790432D01*
X136588684Y-200463699D01*
X136478369Y-200404734D01*
X135935033Y-200179677D01*
X135815335Y-200143367D01*
X135238532Y-200028634D01*
X135114051Y-200016374D01*
X134525949Y-200016374D01*
X134401468Y-200028634D01*
X133824665Y-200143367D01*
X133704967Y-200179677D01*
X133161631Y-200404734D01*
X133051316Y-200463699D01*
X132562326Y-200790432D01*
X132465635Y-200869784D01*
X132049784Y-201285635D01*
X131970432Y-201382326D01*
X131643699Y-201871316D01*
X131584734Y-201981631D01*
X131359677Y-202524967D01*
X131323367Y-202644665D01*
X131208634Y-203221468D01*
X131196374Y-203345949D01*
X131196374Y-203934051D01*
X131208634Y-204058532D01*
X131323367Y-204635335D01*
X131359677Y-204755033D01*
X131584734Y-205298369D01*
X131643699Y-205408684D01*
X131846073Y-205711557D01*
X131555477Y-206002153D01*
X131320000Y-206001928D01*
X131195518Y-206014188D01*
X131075820Y-206050498D01*
X130965506Y-206109463D01*
X130868815Y-206188815D01*
X130789463Y-206285506D01*
X130730498Y-206395820D01*
X130694188Y-206515518D01*
X130681928Y-206640000D01*
X115487088Y-206640000D01*
X115475812Y-206525518D01*
X115439502Y-206405820D01*
X115380537Y-206295506D01*
X115301185Y-206198815D01*
X115204494Y-206119463D01*
X115094180Y-206060498D01*
X114974482Y-206024188D01*
X114850000Y-206011928D01*
X114614523Y-206012153D01*
X114323927Y-205721557D01*
X114526301Y-205418684D01*
X114585266Y-205308369D01*
X114810323Y-204765033D01*
X114846633Y-204645335D01*
X114961366Y-204068532D01*
X114973626Y-203944051D01*
X114973626Y-203355949D01*
X114961366Y-203231468D01*
X114846633Y-202654665D01*
X114810323Y-202534967D01*
X114585266Y-201991631D01*
X114526301Y-201881316D01*
X114199568Y-201392326D01*
X114120216Y-201295635D01*
X113704365Y-200879784D01*
X113607674Y-200800432D01*
X113118684Y-200473699D01*
X113008369Y-200414734D01*
X112465033Y-200189677D01*
X112345335Y-200153367D01*
X111768532Y-200038634D01*
X111644051Y-200026374D01*
X111055949Y-200026374D01*
X110931468Y-200038634D01*
X110354665Y-200153367D01*
X110234967Y-200189677D01*
X109691631Y-200414734D01*
X109581316Y-200473699D01*
X109092326Y-200800432D01*
X108995635Y-200879784D01*
X108579784Y-201295635D01*
X108500432Y-201392326D01*
X108173699Y-201881316D01*
X108114734Y-201991631D01*
X107889677Y-202534967D01*
X107853367Y-202654665D01*
X107738634Y-203231468D01*
X107726374Y-203355949D01*
X107726374Y-203944051D01*
X107738634Y-204068532D01*
X107853367Y-204645335D01*
X107889677Y-204765033D01*
X108114734Y-205308369D01*
X108173699Y-205418684D01*
X108376073Y-205721557D01*
X108085477Y-206012153D01*
X107850000Y-206011928D01*
X107725518Y-206024188D01*
X107605820Y-206060498D01*
X107495506Y-206119463D01*
X107398815Y-206198815D01*
X107319463Y-206295506D01*
X107260498Y-206405820D01*
X107224188Y-206525518D01*
X107211928Y-206650000D01*
X69742617Y-206650000D01*
X69605309Y-205959710D01*
X69331295Y-205298182D01*
X68933489Y-204702823D01*
X68427177Y-204196511D01*
X67938519Y-203870000D01*
X68427177Y-203543489D01*
X68933489Y-203037177D01*
X69331295Y-202441818D01*
X69472629Y-202100608D01*
X69631507Y-202084960D01*
X69892581Y-202005764D01*
X70133188Y-201877157D01*
X70344081Y-201704081D01*
X70387454Y-201651231D01*
X72091241Y-199947445D01*
X72144080Y-199904081D01*
X72187445Y-199851241D01*
X72187452Y-199851234D01*
X72317156Y-199693189D01*
X72317157Y-199693188D01*
X72445764Y-199452581D01*
X72524960Y-199191507D01*
X72545000Y-198988037D01*
X72545000Y-198988028D01*
X72551700Y-198920001D01*
X72545000Y-198851974D01*
X72545000Y-187249430D01*
X72825000Y-187249430D01*
X72825000Y-189590570D01*
X73281734Y-191886726D01*
X74177650Y-194049658D01*
X75478318Y-195996246D01*
X77133754Y-197651682D01*
X79080342Y-198952350D01*
X81243274Y-199848266D01*
X83539430Y-200305000D01*
X85880570Y-200305000D01*
X88176726Y-199848266D01*
X90339658Y-198952350D01*
X92286246Y-197651682D01*
X93941682Y-195996246D01*
X95242350Y-194049658D01*
X96138266Y-191886726D01*
X96595000Y-189590570D01*
X96595000Y-187249430D01*
X96138266Y-184953274D01*
X95242350Y-182790342D01*
X93941682Y-180843754D01*
X92286246Y-179188318D01*
X90339658Y-177887650D01*
X88176726Y-176991734D01*
X85880570Y-176535000D01*
X83539430Y-176535000D01*
X81243274Y-176991734D01*
X79080342Y-177887650D01*
X77133754Y-179188318D01*
X75478318Y-180843754D01*
X74177650Y-182790342D01*
X73281734Y-184953274D01*
X72825000Y-187249430D01*
X72545000Y-187249430D01*
X72545000Y-174693685D01*
X73413686Y-173825000D01*
X86681971Y-173825000D01*
X86750000Y-173831700D01*
X86818029Y-173825000D01*
X86818037Y-173825000D01*
X87021507Y-173804960D01*
X87282581Y-173725764D01*
X87523188Y-173597157D01*
X87734081Y-173424081D01*
X87777454Y-173371231D01*
X87895799Y-173252886D01*
X87933788Y-173196031D01*
X87977156Y-173143187D01*
X88009380Y-173082900D01*
X88047371Y-173026043D01*
X88073538Y-172962870D01*
X88105764Y-172902580D01*
X88125610Y-172837158D01*
X88151775Y-172773989D01*
X88165114Y-172706931D01*
X88184960Y-172641507D01*
X88191661Y-172573472D01*
X88205000Y-172506411D01*
X88205000Y-172438029D01*
X88211700Y-172370000D01*
X88205000Y-172301971D01*
X88205000Y-172233589D01*
X88191661Y-172166528D01*
X88184960Y-172098493D01*
X88165114Y-172033069D01*
X88151775Y-171966011D01*
X88125610Y-171902842D01*
X88105764Y-171837420D01*
X88073537Y-171777129D01*
X88047371Y-171713957D01*
X88009382Y-171657103D01*
X87977156Y-171596812D01*
X87933786Y-171543965D01*
X87895799Y-171487114D01*
X87847453Y-171438768D01*
X87804081Y-171385919D01*
X87751232Y-171342547D01*
X87702886Y-171294201D01*
X87646035Y-171256214D01*
X87593188Y-171212844D01*
X87532897Y-171180618D01*
X87476043Y-171142629D01*
X87412871Y-171116463D01*
X87352580Y-171084236D01*
X87287158Y-171064390D01*
X87223989Y-171038225D01*
X87156931Y-171024886D01*
X87091507Y-171005040D01*
X87023472Y-170998339D01*
X86956411Y-170985000D01*
X86888029Y-170985000D01*
X86820000Y-170978300D01*
X86751971Y-170985000D01*
X86683589Y-170985000D01*
X86616528Y-170998339D01*
X86548493Y-171005040D01*
X86483069Y-171024886D01*
X86416011Y-171038225D01*
X86375512Y-171055000D01*
X72908029Y-171055000D01*
X72840000Y-171048300D01*
X72771971Y-171055000D01*
X72703589Y-171055000D01*
X72636530Y-171068339D01*
X72568493Y-171075040D01*
X72503068Y-171094886D01*
X72436011Y-171108225D01*
X72372845Y-171134389D01*
X72307419Y-171154236D01*
X72247123Y-171186465D01*
X72183957Y-171212629D01*
X72127110Y-171250613D01*
X72066812Y-171282843D01*
X72013959Y-171326218D01*
X71957114Y-171364201D01*
X71908772Y-171412543D01*
X71908766Y-171412548D01*
X71908764Y-171412550D01*
X71855919Y-171455919D01*
X71812550Y-171508764D01*
X70228764Y-173092551D01*
X70175920Y-173135919D01*
X70132551Y-173188764D01*
X70132548Y-173188767D01*
X70002844Y-173346812D01*
X69874236Y-173587420D01*
X69795040Y-173848493D01*
X69768300Y-174120000D01*
X69775001Y-174188039D01*
X69775000Y-198346314D01*
X69247917Y-198873398D01*
X68933489Y-198402823D01*
X68427177Y-197896511D01*
X67938519Y-197570000D01*
X68427177Y-197243489D01*
X68933489Y-196737177D01*
X69331295Y-196141818D01*
X69605309Y-195480290D01*
X69745000Y-194778016D01*
X69745000Y-194061984D01*
X69605309Y-193359710D01*
X69331295Y-192698182D01*
X68933489Y-192102823D01*
X68427177Y-191596511D01*
X67831818Y-191198705D01*
X67170290Y-190924691D01*
X66468016Y-190785000D01*
X65751984Y-190785000D01*
X65049710Y-190924691D01*
X64388182Y-191198705D01*
X63792823Y-191596511D01*
X63286511Y-192102823D01*
X62888705Y-192698182D01*
X62614691Y-193359710D01*
X62475000Y-194061984D01*
X61464366Y-194061984D01*
X61368452Y-171845000D01*
X66941971Y-171845000D01*
X67010000Y-171851700D01*
X67078029Y-171845000D01*
X67078037Y-171845000D01*
X67281507Y-171824960D01*
X67542581Y-171745764D01*
X67783188Y-171617157D01*
X67994081Y-171444081D01*
X68037454Y-171391231D01*
X69341241Y-170087445D01*
X69394080Y-170044081D01*
X69437445Y-169991241D01*
X69437452Y-169991234D01*
X69567156Y-169833189D01*
X69567158Y-169833187D01*
X69695764Y-169592581D01*
X69715122Y-169528766D01*
X69774960Y-169331508D01*
X69786356Y-169215799D01*
X69795000Y-169128037D01*
X69795000Y-169128029D01*
X69801700Y-169060000D01*
X69795000Y-168991971D01*
X69795000Y-165510000D01*
X95471928Y-165510000D01*
X95471928Y-166510000D01*
X95493796Y-166732027D01*
X95558559Y-166945521D01*
X95663728Y-167142279D01*
X95805262Y-167314738D01*
X95977721Y-167456272D01*
X96174479Y-167561441D01*
X96387973Y-167626204D01*
X96610000Y-167648072D01*
X102610000Y-167648072D01*
X102832027Y-167626204D01*
X103045521Y-167561441D01*
X103242279Y-167456272D01*
X103414738Y-167314738D01*
X103556272Y-167142279D01*
X103661441Y-166945521D01*
X103726204Y-166732027D01*
X103748072Y-166510000D01*
X103748072Y-165510000D01*
X103726204Y-165287973D01*
X103661441Y-165074479D01*
X103556272Y-164877721D01*
X103414738Y-164705262D01*
X103242279Y-164563728D01*
X103045521Y-164458559D01*
X102924095Y-164421725D01*
X102583927Y-164081557D01*
X102786301Y-163778684D01*
X102845266Y-163668369D01*
X103070323Y-163125033D01*
X103106633Y-163005335D01*
X103221366Y-162428532D01*
X103233626Y-162304051D01*
X103233626Y-161715949D01*
X103221366Y-161591468D01*
X103106633Y-161014665D01*
X103070323Y-160894967D01*
X102845266Y-160351631D01*
X102786301Y-160241316D01*
X102459568Y-159752326D01*
X102380216Y-159655635D01*
X101964365Y-159239784D01*
X101867674Y-159160432D01*
X101378684Y-158833699D01*
X101268369Y-158774734D01*
X100725033Y-158549677D01*
X100605335Y-158513367D01*
X100028532Y-158398634D01*
X99904051Y-158386374D01*
X99315949Y-158386374D01*
X99191468Y-158398634D01*
X98614665Y-158513367D01*
X98494967Y-158549677D01*
X97951631Y-158774734D01*
X97841316Y-158833699D01*
X97352326Y-159160432D01*
X97255635Y-159239784D01*
X96839784Y-159655635D01*
X96760432Y-159752326D01*
X96433699Y-160241316D01*
X96374734Y-160351631D01*
X96149677Y-160894967D01*
X96113367Y-161014665D01*
X95998634Y-161591468D01*
X95986374Y-161715949D01*
X95986374Y-162304051D01*
X95998634Y-162428532D01*
X96113367Y-163005335D01*
X96149677Y-163125033D01*
X96374734Y-163668369D01*
X96433699Y-163778684D01*
X96636073Y-164081557D01*
X96295905Y-164421725D01*
X96174479Y-164458559D01*
X95977721Y-164563728D01*
X95805262Y-164705262D01*
X95663728Y-164877721D01*
X95558559Y-165074479D01*
X95493796Y-165287973D01*
X95471928Y-165510000D01*
X69795000Y-165510000D01*
X69795000Y-155633685D01*
X70583686Y-154845000D01*
X106204816Y-154845000D01*
X106267752Y-165403446D01*
%TA.AperFunction,Conductor*%
D18*
G36*
X106267752Y-165403446D02*
G01*
X106251972Y-165405000D01*
X106251963Y-165405000D01*
X106048493Y-165425040D01*
X105787419Y-165504236D01*
X105546812Y-165632843D01*
X105501099Y-165670359D01*
X105388766Y-165762548D01*
X105388764Y-165762550D01*
X105335919Y-165805919D01*
X105292550Y-165858764D01*
X102336315Y-168815000D01*
X96823589Y-168815000D01*
X96756530Y-168828339D01*
X96688493Y-168835040D01*
X96623068Y-168854886D01*
X96556011Y-168868225D01*
X96492845Y-168894389D01*
X96427419Y-168914236D01*
X96367123Y-168946465D01*
X96303957Y-168972629D01*
X96247110Y-169010613D01*
X96186812Y-169042843D01*
X96133960Y-169086217D01*
X96077114Y-169124201D01*
X96028769Y-169172546D01*
X95975919Y-169215919D01*
X95932548Y-169268767D01*
X95884201Y-169317114D01*
X95846217Y-169373960D01*
X95802843Y-169426812D01*
X95770613Y-169487110D01*
X95732629Y-169543957D01*
X95706465Y-169607123D01*
X95674236Y-169667419D01*
X95654389Y-169732845D01*
X95628225Y-169796011D01*
X95614886Y-169863068D01*
X95595040Y-169928493D01*
X95588339Y-169996530D01*
X95575000Y-170063589D01*
X95575000Y-170131963D01*
X95568299Y-170200000D01*
X95575000Y-170268037D01*
X95575000Y-170336411D01*
X95588339Y-170403470D01*
X95595040Y-170471507D01*
X95614886Y-170536932D01*
X95628225Y-170603989D01*
X95654389Y-170667155D01*
X95674236Y-170732581D01*
X95706465Y-170792877D01*
X95732629Y-170856043D01*
X95770613Y-170912890D01*
X95802843Y-170973188D01*
X95846217Y-171026040D01*
X95884201Y-171082886D01*
X95932546Y-171131231D01*
X95975919Y-171184081D01*
X96028767Y-171227452D01*
X96077114Y-171275799D01*
X96133960Y-171313783D01*
X96186812Y-171357157D01*
X96247110Y-171389387D01*
X96303957Y-171427371D01*
X96367123Y-171453535D01*
X96427419Y-171485764D01*
X96492845Y-171505611D01*
X96556011Y-171531775D01*
X96623068Y-171545114D01*
X96688493Y-171564960D01*
X96756530Y-171571661D01*
X96823589Y-171585000D01*
X102841971Y-171585000D01*
X102910000Y-171591700D01*
X102978029Y-171585000D01*
X102978037Y-171585000D01*
X103181507Y-171564960D01*
X103442581Y-171485764D01*
X103683188Y-171357157D01*
X103894081Y-171184081D01*
X103937454Y-171131231D01*
X106287883Y-168780803D01*
X106373002Y-183060757D01*
X106375590Y-183085518D01*
X106382959Y-183109299D01*
X106394826Y-183131186D01*
X106410734Y-183150336D01*
X106430073Y-183166015D01*
X106452099Y-183177620D01*
X106475966Y-183184705D01*
X106498410Y-183186990D01*
X141525091Y-183625446D01*
X141995855Y-211628463D01*
X61541451Y-211917545D01*
X61464366Y-194061984D01*
X62475000Y-194061984D01*
X62475000Y-194778016D01*
X62614691Y-195480290D01*
X62888705Y-196141818D01*
X63286511Y-196737177D01*
X63792823Y-197243489D01*
X64281481Y-197570000D01*
X63792823Y-197896511D01*
X63286511Y-198402823D01*
X62888705Y-198998182D01*
X62614691Y-199659710D01*
X62475000Y-200361984D01*
X62475000Y-201078016D01*
X62614691Y-201780290D01*
X62888705Y-202441818D01*
X63286511Y-203037177D01*
X63792823Y-203543489D01*
X64281481Y-203870000D01*
X63792823Y-204196511D01*
X63286511Y-204702823D01*
X62888705Y-205298182D01*
X62614691Y-205959710D01*
X62475000Y-206661984D01*
X62475000Y-207378016D01*
X62614691Y-208080290D01*
X62888705Y-208741818D01*
X63286511Y-209337177D01*
X63792823Y-209843489D01*
X64388182Y-210241295D01*
X65049710Y-210515309D01*
X65751984Y-210655000D01*
X66468016Y-210655000D01*
X67170290Y-210515309D01*
X67831818Y-210241295D01*
X68427177Y-209843489D01*
X68933489Y-209337177D01*
X69331295Y-208741818D01*
X69369327Y-208650000D01*
X107211928Y-208650000D01*
X107224188Y-208774482D01*
X107260498Y-208894180D01*
X107319463Y-209004494D01*
X107398815Y-209101185D01*
X107495506Y-209180537D01*
X107605820Y-209239502D01*
X107725518Y-209275812D01*
X107850000Y-209288072D01*
X111064250Y-209285000D01*
X111223000Y-209126250D01*
X111223000Y-207777000D01*
X111477000Y-207777000D01*
X111477000Y-209126250D01*
X111635750Y-209285000D01*
X114850000Y-209288072D01*
X114974482Y-209275812D01*
X115094180Y-209239502D01*
X115204494Y-209180537D01*
X115301185Y-209101185D01*
X115380537Y-209004494D01*
X115439502Y-208894180D01*
X115475812Y-208774482D01*
X115488072Y-208650000D01*
X115488029Y-208640000D01*
X130681928Y-208640000D01*
X130694188Y-208764482D01*
X130730498Y-208884180D01*
X130789463Y-208994494D01*
X130868815Y-209091185D01*
X130965506Y-209170537D01*
X131075820Y-209229502D01*
X131195518Y-209265812D01*
X131320000Y-209278072D01*
X134534250Y-209275000D01*
X134693000Y-209116250D01*
X134693000Y-207767000D01*
X134947000Y-207767000D01*
X134947000Y-209116250D01*
X135105750Y-209275000D01*
X138320000Y-209278072D01*
X138444482Y-209265812D01*
X138564180Y-209229502D01*
X138674494Y-209170537D01*
X138771185Y-209091185D01*
X138850537Y-208994494D01*
X138909502Y-208884180D01*
X138945812Y-208764482D01*
X138958072Y-208640000D01*
X138955000Y-207925750D01*
X138796250Y-207767000D01*
X134947000Y-207767000D01*
X134693000Y-207767000D01*
X130843750Y-207767000D01*
X130685000Y-207925750D01*
X130681928Y-208640000D01*
X115488029Y-208640000D01*
X115485000Y-207935750D01*
X115326250Y-207777000D01*
X111477000Y-207777000D01*
X111223000Y-207777000D01*
X107373750Y-207777000D01*
X107215000Y-207935750D01*
X107211928Y-208650000D01*
X69369327Y-208650000D01*
X69605309Y-208080290D01*
X69745000Y-207378016D01*
X69745000Y-206661984D01*
X69742617Y-206650000D01*
X107211928Y-206650000D01*
X107215000Y-207364250D01*
X107373750Y-207523000D01*
X111223000Y-207523000D01*
X111223000Y-207503000D01*
X111477000Y-207503000D01*
X111477000Y-207523000D01*
X115326250Y-207523000D01*
X115485000Y-207364250D01*
X115488072Y-206650000D01*
X115487088Y-206640000D01*
X130681928Y-206640000D01*
X130685000Y-207354250D01*
X130843750Y-207513000D01*
X134693000Y-207513000D01*
X134693000Y-207493000D01*
X134947000Y-207493000D01*
X134947000Y-207513000D01*
X138796250Y-207513000D01*
X138955000Y-207354250D01*
X138958072Y-206640000D01*
X138945812Y-206515518D01*
X138909502Y-206395820D01*
X138850537Y-206285506D01*
X138771185Y-206188815D01*
X138674494Y-206109463D01*
X138564180Y-206050498D01*
X138444482Y-206014188D01*
X138320000Y-206001928D01*
X138084523Y-206002153D01*
X137793927Y-205711557D01*
X137996301Y-205408684D01*
X138055266Y-205298369D01*
X138280323Y-204755033D01*
X138316633Y-204635335D01*
X138431366Y-204058532D01*
X138443626Y-203934051D01*
X138443626Y-203345949D01*
X138431366Y-203221468D01*
X138316633Y-202644665D01*
X138280323Y-202524967D01*
X138055266Y-201981631D01*
X137996301Y-201871316D01*
X137669568Y-201382326D01*
X137590216Y-201285635D01*
X137174365Y-200869784D01*
X137077674Y-200790432D01*
X136588684Y-200463699D01*
X136478369Y-200404734D01*
X135935033Y-200179677D01*
X135815335Y-200143367D01*
X135238532Y-200028634D01*
X135114051Y-200016374D01*
X134525949Y-200016374D01*
X134401468Y-200028634D01*
X133824665Y-200143367D01*
X133704967Y-200179677D01*
X133161631Y-200404734D01*
X133051316Y-200463699D01*
X132562326Y-200790432D01*
X132465635Y-200869784D01*
X132049784Y-201285635D01*
X131970432Y-201382326D01*
X131643699Y-201871316D01*
X131584734Y-201981631D01*
X131359677Y-202524967D01*
X131323367Y-202644665D01*
X131208634Y-203221468D01*
X131196374Y-203345949D01*
X131196374Y-203934051D01*
X131208634Y-204058532D01*
X131323367Y-204635335D01*
X131359677Y-204755033D01*
X131584734Y-205298369D01*
X131643699Y-205408684D01*
X131846073Y-205711557D01*
X131555477Y-206002153D01*
X131320000Y-206001928D01*
X131195518Y-206014188D01*
X131075820Y-206050498D01*
X130965506Y-206109463D01*
X130868815Y-206188815D01*
X130789463Y-206285506D01*
X130730498Y-206395820D01*
X130694188Y-206515518D01*
X130681928Y-206640000D01*
X115487088Y-206640000D01*
X115475812Y-206525518D01*
X115439502Y-206405820D01*
X115380537Y-206295506D01*
X115301185Y-206198815D01*
X115204494Y-206119463D01*
X115094180Y-206060498D01*
X114974482Y-206024188D01*
X114850000Y-206011928D01*
X114614523Y-206012153D01*
X114323927Y-205721557D01*
X114526301Y-205418684D01*
X114585266Y-205308369D01*
X114810323Y-204765033D01*
X114846633Y-204645335D01*
X114961366Y-204068532D01*
X114973626Y-203944051D01*
X114973626Y-203355949D01*
X114961366Y-203231468D01*
X114846633Y-202654665D01*
X114810323Y-202534967D01*
X114585266Y-201991631D01*
X114526301Y-201881316D01*
X114199568Y-201392326D01*
X114120216Y-201295635D01*
X113704365Y-200879784D01*
X113607674Y-200800432D01*
X113118684Y-200473699D01*
X113008369Y-200414734D01*
X112465033Y-200189677D01*
X112345335Y-200153367D01*
X111768532Y-200038634D01*
X111644051Y-200026374D01*
X111055949Y-200026374D01*
X110931468Y-200038634D01*
X110354665Y-200153367D01*
X110234967Y-200189677D01*
X109691631Y-200414734D01*
X109581316Y-200473699D01*
X109092326Y-200800432D01*
X108995635Y-200879784D01*
X108579784Y-201295635D01*
X108500432Y-201392326D01*
X108173699Y-201881316D01*
X108114734Y-201991631D01*
X107889677Y-202534967D01*
X107853367Y-202654665D01*
X107738634Y-203231468D01*
X107726374Y-203355949D01*
X107726374Y-203944051D01*
X107738634Y-204068532D01*
X107853367Y-204645335D01*
X107889677Y-204765033D01*
X108114734Y-205308369D01*
X108173699Y-205418684D01*
X108376073Y-205721557D01*
X108085477Y-206012153D01*
X107850000Y-206011928D01*
X107725518Y-206024188D01*
X107605820Y-206060498D01*
X107495506Y-206119463D01*
X107398815Y-206198815D01*
X107319463Y-206295506D01*
X107260498Y-206405820D01*
X107224188Y-206525518D01*
X107211928Y-206650000D01*
X69742617Y-206650000D01*
X69605309Y-205959710D01*
X69331295Y-205298182D01*
X68933489Y-204702823D01*
X68427177Y-204196511D01*
X67938519Y-203870000D01*
X68427177Y-203543489D01*
X68933489Y-203037177D01*
X69331295Y-202441818D01*
X69472629Y-202100608D01*
X69631507Y-202084960D01*
X69892581Y-202005764D01*
X70133188Y-201877157D01*
X70344081Y-201704081D01*
X70387454Y-201651231D01*
X72091241Y-199947445D01*
X72144080Y-199904081D01*
X72187445Y-199851241D01*
X72187452Y-199851234D01*
X72317156Y-199693189D01*
X72317157Y-199693188D01*
X72445764Y-199452581D01*
X72524960Y-199191507D01*
X72545000Y-198988037D01*
X72545000Y-198988028D01*
X72551700Y-198920001D01*
X72545000Y-198851974D01*
X72545000Y-187249430D01*
X72825000Y-187249430D01*
X72825000Y-189590570D01*
X73281734Y-191886726D01*
X74177650Y-194049658D01*
X75478318Y-195996246D01*
X77133754Y-197651682D01*
X79080342Y-198952350D01*
X81243274Y-199848266D01*
X83539430Y-200305000D01*
X85880570Y-200305000D01*
X88176726Y-199848266D01*
X90339658Y-198952350D01*
X92286246Y-197651682D01*
X93941682Y-195996246D01*
X95242350Y-194049658D01*
X96138266Y-191886726D01*
X96595000Y-189590570D01*
X96595000Y-187249430D01*
X96138266Y-184953274D01*
X95242350Y-182790342D01*
X93941682Y-180843754D01*
X92286246Y-179188318D01*
X90339658Y-177887650D01*
X88176726Y-176991734D01*
X85880570Y-176535000D01*
X83539430Y-176535000D01*
X81243274Y-176991734D01*
X79080342Y-177887650D01*
X77133754Y-179188318D01*
X75478318Y-180843754D01*
X74177650Y-182790342D01*
X73281734Y-184953274D01*
X72825000Y-187249430D01*
X72545000Y-187249430D01*
X72545000Y-174693685D01*
X73413686Y-173825000D01*
X86681971Y-173825000D01*
X86750000Y-173831700D01*
X86818029Y-173825000D01*
X86818037Y-173825000D01*
X87021507Y-173804960D01*
X87282581Y-173725764D01*
X87523188Y-173597157D01*
X87734081Y-173424081D01*
X87777454Y-173371231D01*
X87895799Y-173252886D01*
X87933788Y-173196031D01*
X87977156Y-173143187D01*
X88009380Y-173082900D01*
X88047371Y-173026043D01*
X88073538Y-172962870D01*
X88105764Y-172902580D01*
X88125610Y-172837158D01*
X88151775Y-172773989D01*
X88165114Y-172706931D01*
X88184960Y-172641507D01*
X88191661Y-172573472D01*
X88205000Y-172506411D01*
X88205000Y-172438029D01*
X88211700Y-172370000D01*
X88205000Y-172301971D01*
X88205000Y-172233589D01*
X88191661Y-172166528D01*
X88184960Y-172098493D01*
X88165114Y-172033069D01*
X88151775Y-171966011D01*
X88125610Y-171902842D01*
X88105764Y-171837420D01*
X88073537Y-171777129D01*
X88047371Y-171713957D01*
X88009382Y-171657103D01*
X87977156Y-171596812D01*
X87933786Y-171543965D01*
X87895799Y-171487114D01*
X87847453Y-171438768D01*
X87804081Y-171385919D01*
X87751232Y-171342547D01*
X87702886Y-171294201D01*
X87646035Y-171256214D01*
X87593188Y-171212844D01*
X87532897Y-171180618D01*
X87476043Y-171142629D01*
X87412871Y-171116463D01*
X87352580Y-171084236D01*
X87287158Y-171064390D01*
X87223989Y-171038225D01*
X87156931Y-171024886D01*
X87091507Y-171005040D01*
X87023472Y-170998339D01*
X86956411Y-170985000D01*
X86888029Y-170985000D01*
X86820000Y-170978300D01*
X86751971Y-170985000D01*
X86683589Y-170985000D01*
X86616528Y-170998339D01*
X86548493Y-171005040D01*
X86483069Y-171024886D01*
X86416011Y-171038225D01*
X86375512Y-171055000D01*
X72908029Y-171055000D01*
X72840000Y-171048300D01*
X72771971Y-171055000D01*
X72703589Y-171055000D01*
X72636530Y-171068339D01*
X72568493Y-171075040D01*
X72503068Y-171094886D01*
X72436011Y-171108225D01*
X72372845Y-171134389D01*
X72307419Y-171154236D01*
X72247123Y-171186465D01*
X72183957Y-171212629D01*
X72127110Y-171250613D01*
X72066812Y-171282843D01*
X72013959Y-171326218D01*
X71957114Y-171364201D01*
X71908772Y-171412543D01*
X71908766Y-171412548D01*
X71908764Y-171412550D01*
X71855919Y-171455919D01*
X71812550Y-171508764D01*
X70228764Y-173092551D01*
X70175920Y-173135919D01*
X70132551Y-173188764D01*
X70132548Y-173188767D01*
X70002844Y-173346812D01*
X69874236Y-173587420D01*
X69795040Y-173848493D01*
X69768300Y-174120000D01*
X69775001Y-174188039D01*
X69775000Y-198346314D01*
X69247917Y-198873398D01*
X68933489Y-198402823D01*
X68427177Y-197896511D01*
X67938519Y-197570000D01*
X68427177Y-197243489D01*
X68933489Y-196737177D01*
X69331295Y-196141818D01*
X69605309Y-195480290D01*
X69745000Y-194778016D01*
X69745000Y-194061984D01*
X69605309Y-193359710D01*
X69331295Y-192698182D01*
X68933489Y-192102823D01*
X68427177Y-191596511D01*
X67831818Y-191198705D01*
X67170290Y-190924691D01*
X66468016Y-190785000D01*
X65751984Y-190785000D01*
X65049710Y-190924691D01*
X64388182Y-191198705D01*
X63792823Y-191596511D01*
X63286511Y-192102823D01*
X62888705Y-192698182D01*
X62614691Y-193359710D01*
X62475000Y-194061984D01*
X61464366Y-194061984D01*
X61368452Y-171845000D01*
X66941971Y-171845000D01*
X67010000Y-171851700D01*
X67078029Y-171845000D01*
X67078037Y-171845000D01*
X67281507Y-171824960D01*
X67542581Y-171745764D01*
X67783188Y-171617157D01*
X67994081Y-171444081D01*
X68037454Y-171391231D01*
X69341241Y-170087445D01*
X69394080Y-170044081D01*
X69437445Y-169991241D01*
X69437452Y-169991234D01*
X69567156Y-169833189D01*
X69567158Y-169833187D01*
X69695764Y-169592581D01*
X69715122Y-169528766D01*
X69774960Y-169331508D01*
X69786356Y-169215799D01*
X69795000Y-169128037D01*
X69795000Y-169128029D01*
X69801700Y-169060000D01*
X69795000Y-168991971D01*
X69795000Y-165510000D01*
X95471928Y-165510000D01*
X95471928Y-166510000D01*
X95493796Y-166732027D01*
X95558559Y-166945521D01*
X95663728Y-167142279D01*
X95805262Y-167314738D01*
X95977721Y-167456272D01*
X96174479Y-167561441D01*
X96387973Y-167626204D01*
X96610000Y-167648072D01*
X102610000Y-167648072D01*
X102832027Y-167626204D01*
X103045521Y-167561441D01*
X103242279Y-167456272D01*
X103414738Y-167314738D01*
X103556272Y-167142279D01*
X103661441Y-166945521D01*
X103726204Y-166732027D01*
X103748072Y-166510000D01*
X103748072Y-165510000D01*
X103726204Y-165287973D01*
X103661441Y-165074479D01*
X103556272Y-164877721D01*
X103414738Y-164705262D01*
X103242279Y-164563728D01*
X103045521Y-164458559D01*
X102924095Y-164421725D01*
X102583927Y-164081557D01*
X102786301Y-163778684D01*
X102845266Y-163668369D01*
X103070323Y-163125033D01*
X103106633Y-163005335D01*
X103221366Y-162428532D01*
X103233626Y-162304051D01*
X103233626Y-161715949D01*
X103221366Y-161591468D01*
X103106633Y-161014665D01*
X103070323Y-160894967D01*
X102845266Y-160351631D01*
X102786301Y-160241316D01*
X102459568Y-159752326D01*
X102380216Y-159655635D01*
X101964365Y-159239784D01*
X101867674Y-159160432D01*
X101378684Y-158833699D01*
X101268369Y-158774734D01*
X100725033Y-158549677D01*
X100605335Y-158513367D01*
X100028532Y-158398634D01*
X99904051Y-158386374D01*
X99315949Y-158386374D01*
X99191468Y-158398634D01*
X98614665Y-158513367D01*
X98494967Y-158549677D01*
X97951631Y-158774734D01*
X97841316Y-158833699D01*
X97352326Y-159160432D01*
X97255635Y-159239784D01*
X96839784Y-159655635D01*
X96760432Y-159752326D01*
X96433699Y-160241316D01*
X96374734Y-160351631D01*
X96149677Y-160894967D01*
X96113367Y-161014665D01*
X95998634Y-161591468D01*
X95986374Y-161715949D01*
X95986374Y-162304051D01*
X95998634Y-162428532D01*
X96113367Y-163005335D01*
X96149677Y-163125033D01*
X96374734Y-163668369D01*
X96433699Y-163778684D01*
X96636073Y-164081557D01*
X96295905Y-164421725D01*
X96174479Y-164458559D01*
X95977721Y-164563728D01*
X95805262Y-164705262D01*
X95663728Y-164877721D01*
X95558559Y-165074479D01*
X95493796Y-165287973D01*
X95471928Y-165510000D01*
X69795000Y-165510000D01*
X69795000Y-155633685D01*
X70583686Y-154845000D01*
X106204816Y-154845000D01*
X106267752Y-165403446D01*
G37*
%TD.AperFunction*%
%TD*%
M02*
