%TF.GenerationSoftware,KiCad,Pcbnew,(5.1.9)-1*%
%TF.CreationDate,2021-09-09T23:53:41+02:00*%
%TF.ProjectId,SwitchBox,53776974-6368-4426-9f78-2e6b69636164,rev?*%
%TF.SameCoordinates,Original*%
%TF.FileFunction,Soldermask,Top*%
%TF.FilePolarity,Negative*%
%FSLAX46Y46*%
G04 Gerber Fmt 4.6, Leading zero omitted, Abs format (unit mm)*
G04 Created by KiCad (PCBNEW (5.1.9)-1) date 2021-09-09 23:53:41*
%MOMM*%
%LPD*%
G01*
G04 APERTURE LIST*
%ADD10R,0.600000X0.450000*%
%ADD11C,22.500000*%
%ADD12C,6.000000*%
%ADD13C,0.100000*%
%ADD14R,1.200000X2.200000*%
%ADD15R,5.800000X6.400000*%
G04 APERTURE END LIST*
%TO.C,C1*%
G36*
G01*
X95074997Y-62425000D02*
X96375003Y-62425000D01*
G75*
G02*
X96625000Y-62674997I0J-249997D01*
G01*
X96625000Y-63500003D01*
G75*
G02*
X96375003Y-63750000I-249997J0D01*
G01*
X95074997Y-63750000D01*
G75*
G02*
X94825000Y-63500003I0J249997D01*
G01*
X94825000Y-62674997D01*
G75*
G02*
X95074997Y-62425000I249997J0D01*
G01*
G37*
G36*
G01*
X95074997Y-65550000D02*
X96375003Y-65550000D01*
G75*
G02*
X96625000Y-65799997I0J-249997D01*
G01*
X96625000Y-66625003D01*
G75*
G02*
X96375003Y-66875000I-249997J0D01*
G01*
X95074997Y-66875000D01*
G75*
G02*
X94825000Y-66625003I0J249997D01*
G01*
X94825000Y-65799997D01*
G75*
G02*
X95074997Y-65550000I249997J0D01*
G01*
G37*
%TD*%
%TO.C,C2*%
G36*
G01*
X106814997Y-103681666D02*
X108115003Y-103681666D01*
G75*
G02*
X108365000Y-103931663I0J-249997D01*
G01*
X108365000Y-104756669D01*
G75*
G02*
X108115003Y-105006666I-249997J0D01*
G01*
X106814997Y-105006666D01*
G75*
G02*
X106565000Y-104756669I0J249997D01*
G01*
X106565000Y-103931663D01*
G75*
G02*
X106814997Y-103681666I249997J0D01*
G01*
G37*
G36*
G01*
X106814997Y-106806666D02*
X108115003Y-106806666D01*
G75*
G02*
X108365000Y-107056663I0J-249997D01*
G01*
X108365000Y-107881669D01*
G75*
G02*
X108115003Y-108131666I-249997J0D01*
G01*
X106814997Y-108131666D01*
G75*
G02*
X106565000Y-107881669I0J249997D01*
G01*
X106565000Y-107056663D01*
G75*
G02*
X106814997Y-106806666I249997J0D01*
G01*
G37*
%TD*%
%TO.C,C3*%
G36*
G01*
X95074997Y-148063332D02*
X96375003Y-148063332D01*
G75*
G02*
X96625000Y-148313329I0J-249997D01*
G01*
X96625000Y-149138335D01*
G75*
G02*
X96375003Y-149388332I-249997J0D01*
G01*
X95074997Y-149388332D01*
G75*
G02*
X94825000Y-149138335I0J249997D01*
G01*
X94825000Y-148313329D01*
G75*
G02*
X95074997Y-148063332I249997J0D01*
G01*
G37*
G36*
G01*
X95074997Y-144938332D02*
X96375003Y-144938332D01*
G75*
G02*
X96625000Y-145188329I0J-249997D01*
G01*
X96625000Y-146013335D01*
G75*
G02*
X96375003Y-146263332I-249997J0D01*
G01*
X95074997Y-146263332D01*
G75*
G02*
X94825000Y-146013335I0J249997D01*
G01*
X94825000Y-145188329D01*
G75*
G02*
X95074997Y-144938332I249997J0D01*
G01*
G37*
%TD*%
%TO.C,C4*%
G36*
G01*
X106814997Y-186195000D02*
X108115003Y-186195000D01*
G75*
G02*
X108365000Y-186444997I0J-249997D01*
G01*
X108365000Y-187270003D01*
G75*
G02*
X108115003Y-187520000I-249997J0D01*
G01*
X106814997Y-187520000D01*
G75*
G02*
X106565000Y-187270003I0J249997D01*
G01*
X106565000Y-186444997D01*
G75*
G02*
X106814997Y-186195000I249997J0D01*
G01*
G37*
G36*
G01*
X106814997Y-189320000D02*
X108115003Y-189320000D01*
G75*
G02*
X108365000Y-189569997I0J-249997D01*
G01*
X108365000Y-190395003D01*
G75*
G02*
X108115003Y-190645000I-249997J0D01*
G01*
X106814997Y-190645000D01*
G75*
G02*
X106565000Y-190395003I0J249997D01*
G01*
X106565000Y-189569997D01*
G75*
G02*
X106814997Y-189320000I249997J0D01*
G01*
G37*
%TD*%
%TO.C,C5*%
G36*
G01*
X118544997Y-65630000D02*
X119845003Y-65630000D01*
G75*
G02*
X120095000Y-65879997I0J-249997D01*
G01*
X120095000Y-66705003D01*
G75*
G02*
X119845003Y-66955000I-249997J0D01*
G01*
X118544997Y-66955000D01*
G75*
G02*
X118295000Y-66705003I0J249997D01*
G01*
X118295000Y-65879997D01*
G75*
G02*
X118544997Y-65630000I249997J0D01*
G01*
G37*
G36*
G01*
X118544997Y-62505000D02*
X119845003Y-62505000D01*
G75*
G02*
X120095000Y-62754997I0J-249997D01*
G01*
X120095000Y-63580003D01*
G75*
G02*
X119845003Y-63830000I-249997J0D01*
G01*
X118544997Y-63830000D01*
G75*
G02*
X118295000Y-63580003I0J249997D01*
G01*
X118295000Y-62754997D01*
G75*
G02*
X118544997Y-62505000I249997J0D01*
G01*
G37*
%TD*%
%TO.C,C6*%
G36*
G01*
X130284997Y-103681666D02*
X131585003Y-103681666D01*
G75*
G02*
X131835000Y-103931663I0J-249997D01*
G01*
X131835000Y-104756669D01*
G75*
G02*
X131585003Y-105006666I-249997J0D01*
G01*
X130284997Y-105006666D01*
G75*
G02*
X130035000Y-104756669I0J249997D01*
G01*
X130035000Y-103931663D01*
G75*
G02*
X130284997Y-103681666I249997J0D01*
G01*
G37*
G36*
G01*
X130284997Y-106806666D02*
X131585003Y-106806666D01*
G75*
G02*
X131835000Y-107056663I0J-249997D01*
G01*
X131835000Y-107881669D01*
G75*
G02*
X131585003Y-108131666I-249997J0D01*
G01*
X130284997Y-108131666D01*
G75*
G02*
X130035000Y-107881669I0J249997D01*
G01*
X130035000Y-107056663D01*
G75*
G02*
X130284997Y-106806666I249997J0D01*
G01*
G37*
%TD*%
%TO.C,C7*%
G36*
G01*
X118544997Y-148063332D02*
X119845003Y-148063332D01*
G75*
G02*
X120095000Y-148313329I0J-249997D01*
G01*
X120095000Y-149138335D01*
G75*
G02*
X119845003Y-149388332I-249997J0D01*
G01*
X118544997Y-149388332D01*
G75*
G02*
X118295000Y-149138335I0J249997D01*
G01*
X118295000Y-148313329D01*
G75*
G02*
X118544997Y-148063332I249997J0D01*
G01*
G37*
G36*
G01*
X118544997Y-144938332D02*
X119845003Y-144938332D01*
G75*
G02*
X120095000Y-145188329I0J-249997D01*
G01*
X120095000Y-146013335D01*
G75*
G02*
X119845003Y-146263332I-249997J0D01*
G01*
X118544997Y-146263332D01*
G75*
G02*
X118295000Y-146013335I0J249997D01*
G01*
X118295000Y-145188329D01*
G75*
G02*
X118544997Y-144938332I249997J0D01*
G01*
G37*
%TD*%
%TO.C,C8*%
G36*
G01*
X130284997Y-189320000D02*
X131585003Y-189320000D01*
G75*
G02*
X131835000Y-189569997I0J-249997D01*
G01*
X131835000Y-190395003D01*
G75*
G02*
X131585003Y-190645000I-249997J0D01*
G01*
X130284997Y-190645000D01*
G75*
G02*
X130035000Y-190395003I0J249997D01*
G01*
X130035000Y-189569997D01*
G75*
G02*
X130284997Y-189320000I249997J0D01*
G01*
G37*
G36*
G01*
X130284997Y-186195000D02*
X131585003Y-186195000D01*
G75*
G02*
X131835000Y-186444997I0J-249997D01*
G01*
X131835000Y-187270003D01*
G75*
G02*
X131585003Y-187520000I-249997J0D01*
G01*
X130284997Y-187520000D01*
G75*
G02*
X130035000Y-187270003I0J249997D01*
G01*
X130035000Y-186444997D01*
G75*
G02*
X130284997Y-186195000I249997J0D01*
G01*
G37*
%TD*%
D10*
%TO.C,D1*%
X40800000Y-92510000D03*
X38700000Y-92510000D03*
%TD*%
%TO.C,D2*%
X69700000Y-133380000D03*
X71800000Y-133380000D03*
%TD*%
%TO.C,D3*%
X40690000Y-175060000D03*
X42790000Y-175060000D03*
%TD*%
%TO.C,D4*%
X91770000Y-169900000D03*
X93870000Y-169900000D03*
%TD*%
%TO.C,D5*%
X56023811Y-92770000D03*
X58123811Y-92770000D03*
%TD*%
%TO.C,D6*%
X83520000Y-133380000D03*
X85620000Y-133380000D03*
%TD*%
%TO.C,D7*%
X60610000Y-175060000D03*
X58510000Y-175060000D03*
%TD*%
%TO.C,D8*%
X77950000Y-169900000D03*
X80050000Y-169900000D03*
%TD*%
D11*
%TO.C,D9*%
X161190000Y-64650000D03*
D12*
X149090000Y-78150000D03*
X149090000Y-51150000D03*
%TD*%
%TO.C,D10*%
X149090000Y-92406666D03*
X149090000Y-119406666D03*
D11*
X161190000Y-105906666D03*
%TD*%
%TO.C,D11*%
X161230000Y-147163332D03*
D12*
X149130000Y-160663332D03*
X149130000Y-133663332D03*
%TD*%
%TO.C,D12*%
X149150000Y-174920000D03*
X149150000Y-201920000D03*
D11*
X161250000Y-188420000D03*
%TD*%
%TO.C,F1*%
G36*
G01*
X48315001Y-88915000D02*
X43364999Y-88915000D01*
G75*
G02*
X43115000Y-88665001I0J249999D01*
G01*
X43115000Y-87239999D01*
G75*
G02*
X43364999Y-86990000I249999J0D01*
G01*
X48315001Y-86990000D01*
G75*
G02*
X48565000Y-87239999I0J-249999D01*
G01*
X48565000Y-88665001D01*
G75*
G02*
X48315001Y-88915000I-249999J0D01*
G01*
G37*
G36*
G01*
X48315001Y-95690000D02*
X43364999Y-95690000D01*
G75*
G02*
X43115000Y-95440001I0J249999D01*
G01*
X43115000Y-94014999D01*
G75*
G02*
X43364999Y-93765000I249999J0D01*
G01*
X48315001Y-93765000D01*
G75*
G02*
X48565000Y-94014999I0J-249999D01*
G01*
X48565000Y-95440001D01*
G75*
G02*
X48315001Y-95690000I-249999J0D01*
G01*
G37*
%TD*%
%TO.C,F2*%
G36*
G01*
X79415001Y-136610000D02*
X74464999Y-136610000D01*
G75*
G02*
X74215000Y-136360001I0J249999D01*
G01*
X74215000Y-134934999D01*
G75*
G02*
X74464999Y-134685000I249999J0D01*
G01*
X79415001Y-134685000D01*
G75*
G02*
X79665000Y-134934999I0J-249999D01*
G01*
X79665000Y-136360001D01*
G75*
G02*
X79415001Y-136610000I-249999J0D01*
G01*
G37*
G36*
G01*
X79415001Y-129835000D02*
X74464999Y-129835000D01*
G75*
G02*
X74215000Y-129585001I0J249999D01*
G01*
X74215000Y-128159999D01*
G75*
G02*
X74464999Y-127910000I249999J0D01*
G01*
X79415001Y-127910000D01*
G75*
G02*
X79665000Y-128159999I0J-249999D01*
G01*
X79665000Y-129585001D01*
G75*
G02*
X79415001Y-129835000I-249999J0D01*
G01*
G37*
%TD*%
%TO.C,F3*%
G36*
G01*
X50405001Y-178170000D02*
X45454999Y-178170000D01*
G75*
G02*
X45205000Y-177920001I0J249999D01*
G01*
X45205000Y-176494999D01*
G75*
G02*
X45454999Y-176245000I249999J0D01*
G01*
X50405001Y-176245000D01*
G75*
G02*
X50655000Y-176494999I0J-249999D01*
G01*
X50655000Y-177920001D01*
G75*
G02*
X50405001Y-178170000I-249999J0D01*
G01*
G37*
G36*
G01*
X50405001Y-171395000D02*
X45454999Y-171395000D01*
G75*
G02*
X45205000Y-171145001I0J249999D01*
G01*
X45205000Y-169719999D01*
G75*
G02*
X45454999Y-169470000I249999J0D01*
G01*
X50405001Y-169470000D01*
G75*
G02*
X50655000Y-169719999I0J-249999D01*
G01*
X50655000Y-171145001D01*
G75*
G02*
X50405001Y-171395000I-249999J0D01*
G01*
G37*
%TD*%
%TO.C,F4*%
G36*
G01*
X84154999Y-166750000D02*
X89105001Y-166750000D01*
G75*
G02*
X89355000Y-166999999I0J-249999D01*
G01*
X89355000Y-168425001D01*
G75*
G02*
X89105001Y-168675000I-249999J0D01*
G01*
X84154999Y-168675000D01*
G75*
G02*
X83905000Y-168425001I0J249999D01*
G01*
X83905000Y-166999999D01*
G75*
G02*
X84154999Y-166750000I249999J0D01*
G01*
G37*
G36*
G01*
X84154999Y-173525000D02*
X89105001Y-173525000D01*
G75*
G02*
X89355000Y-173774999I0J-249999D01*
G01*
X89355000Y-175200001D01*
G75*
G02*
X89105001Y-175450000I-249999J0D01*
G01*
X84154999Y-175450000D01*
G75*
G02*
X83905000Y-175200001I0J249999D01*
G01*
X83905000Y-173774999D01*
G75*
G02*
X84154999Y-173525000I249999J0D01*
G01*
G37*
%TD*%
%TO.C,F5*%
G36*
G01*
X65715001Y-96010000D02*
X60764999Y-96010000D01*
G75*
G02*
X60515000Y-95760001I0J249999D01*
G01*
X60515000Y-94334999D01*
G75*
G02*
X60764999Y-94085000I249999J0D01*
G01*
X65715001Y-94085000D01*
G75*
G02*
X65965000Y-94334999I0J-249999D01*
G01*
X65965000Y-95760001D01*
G75*
G02*
X65715001Y-96010000I-249999J0D01*
G01*
G37*
G36*
G01*
X65715001Y-89235000D02*
X60764999Y-89235000D01*
G75*
G02*
X60515000Y-88985001I0J249999D01*
G01*
X60515000Y-87559999D01*
G75*
G02*
X60764999Y-87310000I249999J0D01*
G01*
X65715001Y-87310000D01*
G75*
G02*
X65965000Y-87559999I0J-249999D01*
G01*
X65965000Y-88985001D01*
G75*
G02*
X65715001Y-89235000I-249999J0D01*
G01*
G37*
%TD*%
%TO.C,F6*%
G36*
G01*
X93215001Y-129835000D02*
X88264999Y-129835000D01*
G75*
G02*
X88015000Y-129585001I0J249999D01*
G01*
X88015000Y-128159999D01*
G75*
G02*
X88264999Y-127910000I249999J0D01*
G01*
X93215001Y-127910000D01*
G75*
G02*
X93465000Y-128159999I0J-249999D01*
G01*
X93465000Y-129585001D01*
G75*
G02*
X93215001Y-129835000I-249999J0D01*
G01*
G37*
G36*
G01*
X93215001Y-136610000D02*
X88264999Y-136610000D01*
G75*
G02*
X88015000Y-136360001I0J249999D01*
G01*
X88015000Y-134934999D01*
G75*
G02*
X88264999Y-134685000I249999J0D01*
G01*
X93215001Y-134685000D01*
G75*
G02*
X93465000Y-134934999I0J-249999D01*
G01*
X93465000Y-136360001D01*
G75*
G02*
X93215001Y-136610000I-249999J0D01*
G01*
G37*
%TD*%
%TO.C,F7*%
G36*
G01*
X68205001Y-171395000D02*
X63254999Y-171395000D01*
G75*
G02*
X63005000Y-171145001I0J249999D01*
G01*
X63005000Y-169719999D01*
G75*
G02*
X63254999Y-169470000I249999J0D01*
G01*
X68205001Y-169470000D01*
G75*
G02*
X68455000Y-169719999I0J-249999D01*
G01*
X68455000Y-171145001D01*
G75*
G02*
X68205001Y-171395000I-249999J0D01*
G01*
G37*
G36*
G01*
X68205001Y-178170000D02*
X63254999Y-178170000D01*
G75*
G02*
X63005000Y-177920001I0J249999D01*
G01*
X63005000Y-176494999D01*
G75*
G02*
X63254999Y-176245000I249999J0D01*
G01*
X68205001Y-176245000D01*
G75*
G02*
X68455000Y-176494999I0J-249999D01*
G01*
X68455000Y-177920001D01*
G75*
G02*
X68205001Y-178170000I-249999J0D01*
G01*
G37*
%TD*%
%TO.C,F8*%
G36*
G01*
X70354999Y-173525000D02*
X75305001Y-173525000D01*
G75*
G02*
X75555000Y-173774999I0J-249999D01*
G01*
X75555000Y-175200001D01*
G75*
G02*
X75305001Y-175450000I-249999J0D01*
G01*
X70354999Y-175450000D01*
G75*
G02*
X70105000Y-175200001I0J249999D01*
G01*
X70105000Y-173774999D01*
G75*
G02*
X70354999Y-173525000I249999J0D01*
G01*
G37*
G36*
G01*
X70354999Y-166750000D02*
X75305001Y-166750000D01*
G75*
G02*
X75555000Y-166999999I0J-249999D01*
G01*
X75555000Y-168425001D01*
G75*
G02*
X75305001Y-168675000I-249999J0D01*
G01*
X70354999Y-168675000D01*
G75*
G02*
X70105000Y-168425001I0J249999D01*
G01*
X70105000Y-166999999D01*
G75*
G02*
X70354999Y-166750000I249999J0D01*
G01*
G37*
%TD*%
%TO.C,BLACK*%
G36*
G01*
X40310000Y-219570000D02*
X46310000Y-219570000D01*
G75*
G02*
X46810000Y-220070000I0J-500000D01*
G01*
X46810000Y-221070000D01*
G75*
G02*
X46310000Y-221570000I-500000J0D01*
G01*
X40310000Y-221570000D01*
G75*
G02*
X39810000Y-221070000I0J500000D01*
G01*
X39810000Y-220070000D01*
G75*
G02*
X40310000Y-219570000I500000J0D01*
G01*
G37*
D13*
G36*
X43750191Y-213602470D02*
G01*
X44038941Y-213659906D01*
X44320670Y-213745368D01*
X44592665Y-213858032D01*
X44852308Y-213996814D01*
X45097098Y-214160377D01*
X45324677Y-214347147D01*
X45532853Y-214555323D01*
X45719623Y-214782902D01*
X45883186Y-215027692D01*
X46021968Y-215287335D01*
X46134632Y-215559330D01*
X46220094Y-215841059D01*
X46277530Y-216129809D01*
X46306386Y-216422797D01*
X46306386Y-216717203D01*
X46277530Y-217010191D01*
X46220094Y-217298941D01*
X46134632Y-217580670D01*
X46021968Y-217852665D01*
X45883186Y-218112308D01*
X45719623Y-218357098D01*
X45532853Y-218584677D01*
X45428765Y-218688765D01*
X46310000Y-219570000D01*
X40310000Y-219570000D01*
X41191235Y-218688765D01*
X41087147Y-218584677D01*
X40900377Y-218357098D01*
X40736814Y-218112308D01*
X40598032Y-217852665D01*
X40485368Y-217580670D01*
X40399906Y-217298941D01*
X40342470Y-217010191D01*
X40313614Y-216717203D01*
X40313614Y-216422797D01*
X40342470Y-216129809D01*
X40399906Y-215841059D01*
X40485368Y-215559330D01*
X40598032Y-215287335D01*
X40736814Y-215027692D01*
X40900377Y-214782902D01*
X41087147Y-214555323D01*
X41295323Y-214347147D01*
X41522902Y-214160377D01*
X41767692Y-213996814D01*
X42027335Y-213858032D01*
X42299330Y-213745368D01*
X42581059Y-213659906D01*
X42869809Y-213602470D01*
X43162797Y-213573614D01*
X43457203Y-213573614D01*
X43750191Y-213602470D01*
G37*
%TD*%
%TO.C,RED*%
G36*
X42869809Y-40537530D02*
G01*
X42581059Y-40480094D01*
X42299330Y-40394632D01*
X42027335Y-40281968D01*
X41767692Y-40143186D01*
X41522902Y-39979623D01*
X41295323Y-39792853D01*
X41087147Y-39584677D01*
X40900377Y-39357098D01*
X40736814Y-39112308D01*
X40598032Y-38852665D01*
X40485368Y-38580670D01*
X40399906Y-38298941D01*
X40342470Y-38010191D01*
X40313614Y-37717203D01*
X40313614Y-37422797D01*
X40342470Y-37129809D01*
X40399906Y-36841059D01*
X40485368Y-36559330D01*
X40598032Y-36287335D01*
X40736814Y-36027692D01*
X40900377Y-35782902D01*
X41087147Y-35555323D01*
X41191235Y-35451235D01*
X40310000Y-34570000D01*
X46310000Y-34570000D01*
X45428765Y-35451235D01*
X45532853Y-35555323D01*
X45719623Y-35782902D01*
X45883186Y-36027692D01*
X46021968Y-36287335D01*
X46134632Y-36559330D01*
X46220094Y-36841059D01*
X46277530Y-37129809D01*
X46306386Y-37422797D01*
X46306386Y-37717203D01*
X46277530Y-38010191D01*
X46220094Y-38298941D01*
X46134632Y-38580670D01*
X46021968Y-38852665D01*
X45883186Y-39112308D01*
X45719623Y-39357098D01*
X45532853Y-39584677D01*
X45324677Y-39792853D01*
X45097098Y-39979623D01*
X44852308Y-40143186D01*
X44592665Y-40281968D01*
X44320670Y-40394632D01*
X44038941Y-40480094D01*
X43750191Y-40537530D01*
X43457203Y-40566386D01*
X43162797Y-40566386D01*
X42869809Y-40537530D01*
G37*
G36*
G01*
X46310000Y-34570000D02*
X40310000Y-34570000D01*
G75*
G02*
X39810000Y-34070000I0J500000D01*
G01*
X39810000Y-33070000D01*
G75*
G02*
X40310000Y-32570000I500000J0D01*
G01*
X46310000Y-32570000D01*
G75*
G02*
X46810000Y-33070000I0J-500000D01*
G01*
X46810000Y-34070000D01*
G75*
G02*
X46310000Y-34570000I-500000J0D01*
G01*
G37*
%TD*%
%TO.C,BLACK*%
G36*
X68948191Y-213602470D02*
G01*
X69236941Y-213659906D01*
X69518670Y-213745368D01*
X69790665Y-213858032D01*
X70050308Y-213996814D01*
X70295098Y-214160377D01*
X70522677Y-214347147D01*
X70730853Y-214555323D01*
X70917623Y-214782902D01*
X71081186Y-215027692D01*
X71219968Y-215287335D01*
X71332632Y-215559330D01*
X71418094Y-215841059D01*
X71475530Y-216129809D01*
X71504386Y-216422797D01*
X71504386Y-216717203D01*
X71475530Y-217010191D01*
X71418094Y-217298941D01*
X71332632Y-217580670D01*
X71219968Y-217852665D01*
X71081186Y-218112308D01*
X70917623Y-218357098D01*
X70730853Y-218584677D01*
X70626765Y-218688765D01*
X71508000Y-219570000D01*
X65508000Y-219570000D01*
X66389235Y-218688765D01*
X66285147Y-218584677D01*
X66098377Y-218357098D01*
X65934814Y-218112308D01*
X65796032Y-217852665D01*
X65683368Y-217580670D01*
X65597906Y-217298941D01*
X65540470Y-217010191D01*
X65511614Y-216717203D01*
X65511614Y-216422797D01*
X65540470Y-216129809D01*
X65597906Y-215841059D01*
X65683368Y-215559330D01*
X65796032Y-215287335D01*
X65934814Y-215027692D01*
X66098377Y-214782902D01*
X66285147Y-214555323D01*
X66493323Y-214347147D01*
X66720902Y-214160377D01*
X66965692Y-213996814D01*
X67225335Y-213858032D01*
X67497330Y-213745368D01*
X67779059Y-213659906D01*
X68067809Y-213602470D01*
X68360797Y-213573614D01*
X68655203Y-213573614D01*
X68948191Y-213602470D01*
G37*
G36*
G01*
X65508000Y-219570000D02*
X71508000Y-219570000D01*
G75*
G02*
X72008000Y-220070000I0J-500000D01*
G01*
X72008000Y-221070000D01*
G75*
G02*
X71508000Y-221570000I-500000J0D01*
G01*
X65508000Y-221570000D01*
G75*
G02*
X65008000Y-221070000I0J500000D01*
G01*
X65008000Y-220070000D01*
G75*
G02*
X65508000Y-219570000I500000J0D01*
G01*
G37*
%TD*%
%TO.C,RED*%
G36*
G01*
X71508000Y-34570000D02*
X65508000Y-34570000D01*
G75*
G02*
X65008000Y-34070000I0J500000D01*
G01*
X65008000Y-33070000D01*
G75*
G02*
X65508000Y-32570000I500000J0D01*
G01*
X71508000Y-32570000D01*
G75*
G02*
X72008000Y-33070000I0J-500000D01*
G01*
X72008000Y-34070000D01*
G75*
G02*
X71508000Y-34570000I-500000J0D01*
G01*
G37*
G36*
X68067809Y-40537530D02*
G01*
X67779059Y-40480094D01*
X67497330Y-40394632D01*
X67225335Y-40281968D01*
X66965692Y-40143186D01*
X66720902Y-39979623D01*
X66493323Y-39792853D01*
X66285147Y-39584677D01*
X66098377Y-39357098D01*
X65934814Y-39112308D01*
X65796032Y-38852665D01*
X65683368Y-38580670D01*
X65597906Y-38298941D01*
X65540470Y-38010191D01*
X65511614Y-37717203D01*
X65511614Y-37422797D01*
X65540470Y-37129809D01*
X65597906Y-36841059D01*
X65683368Y-36559330D01*
X65796032Y-36287335D01*
X65934814Y-36027692D01*
X66098377Y-35782902D01*
X66285147Y-35555323D01*
X66389235Y-35451235D01*
X65508000Y-34570000D01*
X71508000Y-34570000D01*
X70626765Y-35451235D01*
X70730853Y-35555323D01*
X70917623Y-35782902D01*
X71081186Y-36027692D01*
X71219968Y-36287335D01*
X71332632Y-36559330D01*
X71418094Y-36841059D01*
X71475530Y-37129809D01*
X71504386Y-37422797D01*
X71504386Y-37717203D01*
X71475530Y-38010191D01*
X71418094Y-38298941D01*
X71332632Y-38580670D01*
X71219968Y-38852665D01*
X71081186Y-39112308D01*
X70917623Y-39357098D01*
X70730853Y-39584677D01*
X70522677Y-39792853D01*
X70295098Y-39979623D01*
X70050308Y-40143186D01*
X69790665Y-40281968D01*
X69518670Y-40394632D01*
X69236941Y-40480094D01*
X68948191Y-40537530D01*
X68655203Y-40566386D01*
X68360797Y-40566386D01*
X68067809Y-40537530D01*
G37*
%TD*%
%TO.C,BLACK*%
G36*
G01*
X90706000Y-219170000D02*
X96706000Y-219170000D01*
G75*
G02*
X97206000Y-219670000I0J-500000D01*
G01*
X97206000Y-220670000D01*
G75*
G02*
X96706000Y-221170000I-500000J0D01*
G01*
X90706000Y-221170000D01*
G75*
G02*
X90206000Y-220670000I0J500000D01*
G01*
X90206000Y-219670000D01*
G75*
G02*
X90706000Y-219170000I500000J0D01*
G01*
G37*
G36*
X94146191Y-213202470D02*
G01*
X94434941Y-213259906D01*
X94716670Y-213345368D01*
X94988665Y-213458032D01*
X95248308Y-213596814D01*
X95493098Y-213760377D01*
X95720677Y-213947147D01*
X95928853Y-214155323D01*
X96115623Y-214382902D01*
X96279186Y-214627692D01*
X96417968Y-214887335D01*
X96530632Y-215159330D01*
X96616094Y-215441059D01*
X96673530Y-215729809D01*
X96702386Y-216022797D01*
X96702386Y-216317203D01*
X96673530Y-216610191D01*
X96616094Y-216898941D01*
X96530632Y-217180670D01*
X96417968Y-217452665D01*
X96279186Y-217712308D01*
X96115623Y-217957098D01*
X95928853Y-218184677D01*
X95824765Y-218288765D01*
X96706000Y-219170000D01*
X90706000Y-219170000D01*
X91587235Y-218288765D01*
X91483147Y-218184677D01*
X91296377Y-217957098D01*
X91132814Y-217712308D01*
X90994032Y-217452665D01*
X90881368Y-217180670D01*
X90795906Y-216898941D01*
X90738470Y-216610191D01*
X90709614Y-216317203D01*
X90709614Y-216022797D01*
X90738470Y-215729809D01*
X90795906Y-215441059D01*
X90881368Y-215159330D01*
X90994032Y-214887335D01*
X91132814Y-214627692D01*
X91296377Y-214382902D01*
X91483147Y-214155323D01*
X91691323Y-213947147D01*
X91918902Y-213760377D01*
X92163692Y-213596814D01*
X92423335Y-213458032D01*
X92695330Y-213345368D01*
X92977059Y-213259906D01*
X93265809Y-213202470D01*
X93558797Y-213173614D01*
X93853203Y-213173614D01*
X94146191Y-213202470D01*
G37*
%TD*%
%TO.C,RED*%
G36*
X93265809Y-40537530D02*
G01*
X92977059Y-40480094D01*
X92695330Y-40394632D01*
X92423335Y-40281968D01*
X92163692Y-40143186D01*
X91918902Y-39979623D01*
X91691323Y-39792853D01*
X91483147Y-39584677D01*
X91296377Y-39357098D01*
X91132814Y-39112308D01*
X90994032Y-38852665D01*
X90881368Y-38580670D01*
X90795906Y-38298941D01*
X90738470Y-38010191D01*
X90709614Y-37717203D01*
X90709614Y-37422797D01*
X90738470Y-37129809D01*
X90795906Y-36841059D01*
X90881368Y-36559330D01*
X90994032Y-36287335D01*
X91132814Y-36027692D01*
X91296377Y-35782902D01*
X91483147Y-35555323D01*
X91587235Y-35451235D01*
X90706000Y-34570000D01*
X96706000Y-34570000D01*
X95824765Y-35451235D01*
X95928853Y-35555323D01*
X96115623Y-35782902D01*
X96279186Y-36027692D01*
X96417968Y-36287335D01*
X96530632Y-36559330D01*
X96616094Y-36841059D01*
X96673530Y-37129809D01*
X96702386Y-37422797D01*
X96702386Y-37717203D01*
X96673530Y-38010191D01*
X96616094Y-38298941D01*
X96530632Y-38580670D01*
X96417968Y-38852665D01*
X96279186Y-39112308D01*
X96115623Y-39357098D01*
X95928853Y-39584677D01*
X95720677Y-39792853D01*
X95493098Y-39979623D01*
X95248308Y-40143186D01*
X94988665Y-40281968D01*
X94716670Y-40394632D01*
X94434941Y-40480094D01*
X94146191Y-40537530D01*
X93853203Y-40566386D01*
X93558797Y-40566386D01*
X93265809Y-40537530D01*
G37*
G36*
G01*
X96706000Y-34570000D02*
X90706000Y-34570000D01*
G75*
G02*
X90206000Y-34070000I0J500000D01*
G01*
X90206000Y-33070000D01*
G75*
G02*
X90706000Y-32570000I500000J0D01*
G01*
X96706000Y-32570000D01*
G75*
G02*
X97206000Y-33070000I0J-500000D01*
G01*
X97206000Y-34070000D01*
G75*
G02*
X96706000Y-34570000I-500000J0D01*
G01*
G37*
%TD*%
%TO.C,BLACK*%
G36*
X119344191Y-213202470D02*
G01*
X119632941Y-213259906D01*
X119914670Y-213345368D01*
X120186665Y-213458032D01*
X120446308Y-213596814D01*
X120691098Y-213760377D01*
X120918677Y-213947147D01*
X121126853Y-214155323D01*
X121313623Y-214382902D01*
X121477186Y-214627692D01*
X121615968Y-214887335D01*
X121728632Y-215159330D01*
X121814094Y-215441059D01*
X121871530Y-215729809D01*
X121900386Y-216022797D01*
X121900386Y-216317203D01*
X121871530Y-216610191D01*
X121814094Y-216898941D01*
X121728632Y-217180670D01*
X121615968Y-217452665D01*
X121477186Y-217712308D01*
X121313623Y-217957098D01*
X121126853Y-218184677D01*
X121022765Y-218288765D01*
X121904000Y-219170000D01*
X115904000Y-219170000D01*
X116785235Y-218288765D01*
X116681147Y-218184677D01*
X116494377Y-217957098D01*
X116330814Y-217712308D01*
X116192032Y-217452665D01*
X116079368Y-217180670D01*
X115993906Y-216898941D01*
X115936470Y-216610191D01*
X115907614Y-216317203D01*
X115907614Y-216022797D01*
X115936470Y-215729809D01*
X115993906Y-215441059D01*
X116079368Y-215159330D01*
X116192032Y-214887335D01*
X116330814Y-214627692D01*
X116494377Y-214382902D01*
X116681147Y-214155323D01*
X116889323Y-213947147D01*
X117116902Y-213760377D01*
X117361692Y-213596814D01*
X117621335Y-213458032D01*
X117893330Y-213345368D01*
X118175059Y-213259906D01*
X118463809Y-213202470D01*
X118756797Y-213173614D01*
X119051203Y-213173614D01*
X119344191Y-213202470D01*
G37*
G36*
G01*
X115904000Y-219170000D02*
X121904000Y-219170000D01*
G75*
G02*
X122404000Y-219670000I0J-500000D01*
G01*
X122404000Y-220670000D01*
G75*
G02*
X121904000Y-221170000I-500000J0D01*
G01*
X115904000Y-221170000D01*
G75*
G02*
X115404000Y-220670000I0J500000D01*
G01*
X115404000Y-219670000D01*
G75*
G02*
X115904000Y-219170000I500000J0D01*
G01*
G37*
%TD*%
%TO.C,RED*%
G36*
G01*
X121904000Y-34570000D02*
X115904000Y-34570000D01*
G75*
G02*
X115404000Y-34070000I0J500000D01*
G01*
X115404000Y-33070000D01*
G75*
G02*
X115904000Y-32570000I500000J0D01*
G01*
X121904000Y-32570000D01*
G75*
G02*
X122404000Y-33070000I0J-500000D01*
G01*
X122404000Y-34070000D01*
G75*
G02*
X121904000Y-34570000I-500000J0D01*
G01*
G37*
G36*
X118463809Y-40537530D02*
G01*
X118175059Y-40480094D01*
X117893330Y-40394632D01*
X117621335Y-40281968D01*
X117361692Y-40143186D01*
X117116902Y-39979623D01*
X116889323Y-39792853D01*
X116681147Y-39584677D01*
X116494377Y-39357098D01*
X116330814Y-39112308D01*
X116192032Y-38852665D01*
X116079368Y-38580670D01*
X115993906Y-38298941D01*
X115936470Y-38010191D01*
X115907614Y-37717203D01*
X115907614Y-37422797D01*
X115936470Y-37129809D01*
X115993906Y-36841059D01*
X116079368Y-36559330D01*
X116192032Y-36287335D01*
X116330814Y-36027692D01*
X116494377Y-35782902D01*
X116681147Y-35555323D01*
X116785235Y-35451235D01*
X115904000Y-34570000D01*
X121904000Y-34570000D01*
X121022765Y-35451235D01*
X121126853Y-35555323D01*
X121313623Y-35782902D01*
X121477186Y-36027692D01*
X121615968Y-36287335D01*
X121728632Y-36559330D01*
X121814094Y-36841059D01*
X121871530Y-37129809D01*
X121900386Y-37422797D01*
X121900386Y-37717203D01*
X121871530Y-38010191D01*
X121814094Y-38298941D01*
X121728632Y-38580670D01*
X121615968Y-38852665D01*
X121477186Y-39112308D01*
X121313623Y-39357098D01*
X121126853Y-39584677D01*
X120918677Y-39792853D01*
X120691098Y-39979623D01*
X120446308Y-40143186D01*
X120186665Y-40281968D01*
X119914670Y-40394632D01*
X119632941Y-40480094D01*
X119344191Y-40537530D01*
X119051203Y-40566386D01*
X118756797Y-40566386D01*
X118463809Y-40537530D01*
G37*
%TD*%
%TO.C,BLACK*%
G36*
G01*
X141102000Y-219170000D02*
X147102000Y-219170000D01*
G75*
G02*
X147602000Y-219670000I0J-500000D01*
G01*
X147602000Y-220670000D01*
G75*
G02*
X147102000Y-221170000I-500000J0D01*
G01*
X141102000Y-221170000D01*
G75*
G02*
X140602000Y-220670000I0J500000D01*
G01*
X140602000Y-219670000D01*
G75*
G02*
X141102000Y-219170000I500000J0D01*
G01*
G37*
G36*
X144542191Y-213202470D02*
G01*
X144830941Y-213259906D01*
X145112670Y-213345368D01*
X145384665Y-213458032D01*
X145644308Y-213596814D01*
X145889098Y-213760377D01*
X146116677Y-213947147D01*
X146324853Y-214155323D01*
X146511623Y-214382902D01*
X146675186Y-214627692D01*
X146813968Y-214887335D01*
X146926632Y-215159330D01*
X147012094Y-215441059D01*
X147069530Y-215729809D01*
X147098386Y-216022797D01*
X147098386Y-216317203D01*
X147069530Y-216610191D01*
X147012094Y-216898941D01*
X146926632Y-217180670D01*
X146813968Y-217452665D01*
X146675186Y-217712308D01*
X146511623Y-217957098D01*
X146324853Y-218184677D01*
X146220765Y-218288765D01*
X147102000Y-219170000D01*
X141102000Y-219170000D01*
X141983235Y-218288765D01*
X141879147Y-218184677D01*
X141692377Y-217957098D01*
X141528814Y-217712308D01*
X141390032Y-217452665D01*
X141277368Y-217180670D01*
X141191906Y-216898941D01*
X141134470Y-216610191D01*
X141105614Y-216317203D01*
X141105614Y-216022797D01*
X141134470Y-215729809D01*
X141191906Y-215441059D01*
X141277368Y-215159330D01*
X141390032Y-214887335D01*
X141528814Y-214627692D01*
X141692377Y-214382902D01*
X141879147Y-214155323D01*
X142087323Y-213947147D01*
X142314902Y-213760377D01*
X142559692Y-213596814D01*
X142819335Y-213458032D01*
X143091330Y-213345368D01*
X143373059Y-213259906D01*
X143661809Y-213202470D01*
X143954797Y-213173614D01*
X144249203Y-213173614D01*
X144542191Y-213202470D01*
G37*
%TD*%
%TO.C,RED*%
G36*
X143661809Y-40537530D02*
G01*
X143373059Y-40480094D01*
X143091330Y-40394632D01*
X142819335Y-40281968D01*
X142559692Y-40143186D01*
X142314902Y-39979623D01*
X142087323Y-39792853D01*
X141879147Y-39584677D01*
X141692377Y-39357098D01*
X141528814Y-39112308D01*
X141390032Y-38852665D01*
X141277368Y-38580670D01*
X141191906Y-38298941D01*
X141134470Y-38010191D01*
X141105614Y-37717203D01*
X141105614Y-37422797D01*
X141134470Y-37129809D01*
X141191906Y-36841059D01*
X141277368Y-36559330D01*
X141390032Y-36287335D01*
X141528814Y-36027692D01*
X141692377Y-35782902D01*
X141879147Y-35555323D01*
X141983235Y-35451235D01*
X141102000Y-34570000D01*
X147102000Y-34570000D01*
X146220765Y-35451235D01*
X146324853Y-35555323D01*
X146511623Y-35782902D01*
X146675186Y-36027692D01*
X146813968Y-36287335D01*
X146926632Y-36559330D01*
X147012094Y-36841059D01*
X147069530Y-37129809D01*
X147098386Y-37422797D01*
X147098386Y-37717203D01*
X147069530Y-38010191D01*
X147012094Y-38298941D01*
X146926632Y-38580670D01*
X146813968Y-38852665D01*
X146675186Y-39112308D01*
X146511623Y-39357098D01*
X146324853Y-39584677D01*
X146116677Y-39792853D01*
X145889098Y-39979623D01*
X145644308Y-40143186D01*
X145384665Y-40281968D01*
X145112670Y-40394632D01*
X144830941Y-40480094D01*
X144542191Y-40537530D01*
X144249203Y-40566386D01*
X143954797Y-40566386D01*
X143661809Y-40537530D01*
G37*
G36*
G01*
X147102000Y-34570000D02*
X141102000Y-34570000D01*
G75*
G02*
X140602000Y-34070000I0J500000D01*
G01*
X140602000Y-33070000D01*
G75*
G02*
X141102000Y-32570000I500000J0D01*
G01*
X147102000Y-32570000D01*
G75*
G02*
X147602000Y-33070000I0J-500000D01*
G01*
X147602000Y-34070000D01*
G75*
G02*
X147102000Y-34570000I-500000J0D01*
G01*
G37*
%TD*%
%TO.C,BLACK*%
G36*
X169740191Y-213202470D02*
G01*
X170028941Y-213259906D01*
X170310670Y-213345368D01*
X170582665Y-213458032D01*
X170842308Y-213596814D01*
X171087098Y-213760377D01*
X171314677Y-213947147D01*
X171522853Y-214155323D01*
X171709623Y-214382902D01*
X171873186Y-214627692D01*
X172011968Y-214887335D01*
X172124632Y-215159330D01*
X172210094Y-215441059D01*
X172267530Y-215729809D01*
X172296386Y-216022797D01*
X172296386Y-216317203D01*
X172267530Y-216610191D01*
X172210094Y-216898941D01*
X172124632Y-217180670D01*
X172011968Y-217452665D01*
X171873186Y-217712308D01*
X171709623Y-217957098D01*
X171522853Y-218184677D01*
X171418765Y-218288765D01*
X172300000Y-219170000D01*
X166300000Y-219170000D01*
X167181235Y-218288765D01*
X167077147Y-218184677D01*
X166890377Y-217957098D01*
X166726814Y-217712308D01*
X166588032Y-217452665D01*
X166475368Y-217180670D01*
X166389906Y-216898941D01*
X166332470Y-216610191D01*
X166303614Y-216317203D01*
X166303614Y-216022797D01*
X166332470Y-215729809D01*
X166389906Y-215441059D01*
X166475368Y-215159330D01*
X166588032Y-214887335D01*
X166726814Y-214627692D01*
X166890377Y-214382902D01*
X167077147Y-214155323D01*
X167285323Y-213947147D01*
X167512902Y-213760377D01*
X167757692Y-213596814D01*
X168017335Y-213458032D01*
X168289330Y-213345368D01*
X168571059Y-213259906D01*
X168859809Y-213202470D01*
X169152797Y-213173614D01*
X169447203Y-213173614D01*
X169740191Y-213202470D01*
G37*
G36*
G01*
X166300000Y-219170000D02*
X172300000Y-219170000D01*
G75*
G02*
X172800000Y-219670000I0J-500000D01*
G01*
X172800000Y-220670000D01*
G75*
G02*
X172300000Y-221170000I-500000J0D01*
G01*
X166300000Y-221170000D01*
G75*
G02*
X165800000Y-220670000I0J500000D01*
G01*
X165800000Y-219670000D01*
G75*
G02*
X166300000Y-219170000I500000J0D01*
G01*
G37*
%TD*%
%TO.C,RED*%
G36*
G01*
X172300000Y-34570000D02*
X166300000Y-34570000D01*
G75*
G02*
X165800000Y-34070000I0J500000D01*
G01*
X165800000Y-33070000D01*
G75*
G02*
X166300000Y-32570000I500000J0D01*
G01*
X172300000Y-32570000D01*
G75*
G02*
X172800000Y-33070000I0J-500000D01*
G01*
X172800000Y-34070000D01*
G75*
G02*
X172300000Y-34570000I-500000J0D01*
G01*
G37*
G36*
X168859809Y-40537530D02*
G01*
X168571059Y-40480094D01*
X168289330Y-40394632D01*
X168017335Y-40281968D01*
X167757692Y-40143186D01*
X167512902Y-39979623D01*
X167285323Y-39792853D01*
X167077147Y-39584677D01*
X166890377Y-39357098D01*
X166726814Y-39112308D01*
X166588032Y-38852665D01*
X166475368Y-38580670D01*
X166389906Y-38298941D01*
X166332470Y-38010191D01*
X166303614Y-37717203D01*
X166303614Y-37422797D01*
X166332470Y-37129809D01*
X166389906Y-36841059D01*
X166475368Y-36559330D01*
X166588032Y-36287335D01*
X166726814Y-36027692D01*
X166890377Y-35782902D01*
X167077147Y-35555323D01*
X167181235Y-35451235D01*
X166300000Y-34570000D01*
X172300000Y-34570000D01*
X171418765Y-35451235D01*
X171522853Y-35555323D01*
X171709623Y-35782902D01*
X171873186Y-36027692D01*
X172011968Y-36287335D01*
X172124632Y-36559330D01*
X172210094Y-36841059D01*
X172267530Y-37129809D01*
X172296386Y-37422797D01*
X172296386Y-37717203D01*
X172267530Y-38010191D01*
X172210094Y-38298941D01*
X172124632Y-38580670D01*
X172011968Y-38852665D01*
X171873186Y-39112308D01*
X171709623Y-39357098D01*
X171522853Y-39584677D01*
X171314677Y-39792853D01*
X171087098Y-39979623D01*
X170842308Y-40143186D01*
X170582665Y-40281968D01*
X170310670Y-40394632D01*
X170028941Y-40480094D01*
X169740191Y-40537530D01*
X169447203Y-40566386D01*
X169152797Y-40566386D01*
X168859809Y-40537530D01*
G37*
%TD*%
%TO.C,BLACK*%
G36*
G01*
X102610000Y-46790000D02*
X96610000Y-46790000D01*
G75*
G02*
X96110000Y-46290000I0J500000D01*
G01*
X96110000Y-45290000D01*
G75*
G02*
X96610000Y-44790000I500000J0D01*
G01*
X102610000Y-44790000D01*
G75*
G02*
X103110000Y-45290000I0J-500000D01*
G01*
X103110000Y-46290000D01*
G75*
G02*
X102610000Y-46790000I-500000J0D01*
G01*
G37*
G36*
X99169809Y-52757530D02*
G01*
X98881059Y-52700094D01*
X98599330Y-52614632D01*
X98327335Y-52501968D01*
X98067692Y-52363186D01*
X97822902Y-52199623D01*
X97595323Y-52012853D01*
X97387147Y-51804677D01*
X97200377Y-51577098D01*
X97036814Y-51332308D01*
X96898032Y-51072665D01*
X96785368Y-50800670D01*
X96699906Y-50518941D01*
X96642470Y-50230191D01*
X96613614Y-49937203D01*
X96613614Y-49642797D01*
X96642470Y-49349809D01*
X96699906Y-49061059D01*
X96785368Y-48779330D01*
X96898032Y-48507335D01*
X97036814Y-48247692D01*
X97200377Y-48002902D01*
X97387147Y-47775323D01*
X97491235Y-47671235D01*
X96610000Y-46790000D01*
X102610000Y-46790000D01*
X101728765Y-47671235D01*
X101832853Y-47775323D01*
X102019623Y-48002902D01*
X102183186Y-48247692D01*
X102321968Y-48507335D01*
X102434632Y-48779330D01*
X102520094Y-49061059D01*
X102577530Y-49349809D01*
X102606386Y-49642797D01*
X102606386Y-49937203D01*
X102577530Y-50230191D01*
X102520094Y-50518941D01*
X102434632Y-50800670D01*
X102321968Y-51072665D01*
X102183186Y-51332308D01*
X102019623Y-51577098D01*
X101832853Y-51804677D01*
X101624677Y-52012853D01*
X101397098Y-52199623D01*
X101152308Y-52363186D01*
X100892665Y-52501968D01*
X100620670Y-52614632D01*
X100338941Y-52700094D01*
X100050191Y-52757530D01*
X99757203Y-52786386D01*
X99462797Y-52786386D01*
X99169809Y-52757530D01*
G37*
%TD*%
%TO.C,BLACK*%
G36*
X110909809Y-93647530D02*
G01*
X110621059Y-93590094D01*
X110339330Y-93504632D01*
X110067335Y-93391968D01*
X109807692Y-93253186D01*
X109562902Y-93089623D01*
X109335323Y-92902853D01*
X109127147Y-92694677D01*
X108940377Y-92467098D01*
X108776814Y-92222308D01*
X108638032Y-91962665D01*
X108525368Y-91690670D01*
X108439906Y-91408941D01*
X108382470Y-91120191D01*
X108353614Y-90827203D01*
X108353614Y-90532797D01*
X108382470Y-90239809D01*
X108439906Y-89951059D01*
X108525368Y-89669330D01*
X108638032Y-89397335D01*
X108776814Y-89137692D01*
X108940377Y-88892902D01*
X109127147Y-88665323D01*
X109231235Y-88561235D01*
X108350000Y-87680000D01*
X114350000Y-87680000D01*
X113468765Y-88561235D01*
X113572853Y-88665323D01*
X113759623Y-88892902D01*
X113923186Y-89137692D01*
X114061968Y-89397335D01*
X114174632Y-89669330D01*
X114260094Y-89951059D01*
X114317530Y-90239809D01*
X114346386Y-90532797D01*
X114346386Y-90827203D01*
X114317530Y-91120191D01*
X114260094Y-91408941D01*
X114174632Y-91690670D01*
X114061968Y-91962665D01*
X113923186Y-92222308D01*
X113759623Y-92467098D01*
X113572853Y-92694677D01*
X113364677Y-92902853D01*
X113137098Y-93089623D01*
X112892308Y-93253186D01*
X112632665Y-93391968D01*
X112360670Y-93504632D01*
X112078941Y-93590094D01*
X111790191Y-93647530D01*
X111497203Y-93676386D01*
X111202797Y-93676386D01*
X110909809Y-93647530D01*
G37*
G36*
G01*
X114350000Y-87680000D02*
X108350000Y-87680000D01*
G75*
G02*
X107850000Y-87180000I0J500000D01*
G01*
X107850000Y-86180000D01*
G75*
G02*
X108350000Y-85680000I500000J0D01*
G01*
X114350000Y-85680000D01*
G75*
G02*
X114850000Y-86180000I0J-500000D01*
G01*
X114850000Y-87180000D01*
G75*
G02*
X114350000Y-87680000I-500000J0D01*
G01*
G37*
%TD*%
%TO.C,BLACK*%
G36*
X100050191Y-76532470D02*
G01*
X100338941Y-76589906D01*
X100620670Y-76675368D01*
X100892665Y-76788032D01*
X101152308Y-76926814D01*
X101397098Y-77090377D01*
X101624677Y-77277147D01*
X101832853Y-77485323D01*
X102019623Y-77712902D01*
X102183186Y-77957692D01*
X102321968Y-78217335D01*
X102434632Y-78489330D01*
X102520094Y-78771059D01*
X102577530Y-79059809D01*
X102606386Y-79352797D01*
X102606386Y-79647203D01*
X102577530Y-79940191D01*
X102520094Y-80228941D01*
X102434632Y-80510670D01*
X102321968Y-80782665D01*
X102183186Y-81042308D01*
X102019623Y-81287098D01*
X101832853Y-81514677D01*
X101728765Y-81618765D01*
X102610000Y-82500000D01*
X96610000Y-82500000D01*
X97491235Y-81618765D01*
X97387147Y-81514677D01*
X97200377Y-81287098D01*
X97036814Y-81042308D01*
X96898032Y-80782665D01*
X96785368Y-80510670D01*
X96699906Y-80228941D01*
X96642470Y-79940191D01*
X96613614Y-79647203D01*
X96613614Y-79352797D01*
X96642470Y-79059809D01*
X96699906Y-78771059D01*
X96785368Y-78489330D01*
X96898032Y-78217335D01*
X97036814Y-77957692D01*
X97200377Y-77712902D01*
X97387147Y-77485323D01*
X97595323Y-77277147D01*
X97822902Y-77090377D01*
X98067692Y-76926814D01*
X98327335Y-76788032D01*
X98599330Y-76675368D01*
X98881059Y-76589906D01*
X99169809Y-76532470D01*
X99462797Y-76503614D01*
X99757203Y-76503614D01*
X100050191Y-76532470D01*
G37*
G36*
G01*
X96610000Y-82500000D02*
X102610000Y-82500000D01*
G75*
G02*
X103110000Y-83000000I0J-500000D01*
G01*
X103110000Y-84000000D01*
G75*
G02*
X102610000Y-84500000I-500000J0D01*
G01*
X96610000Y-84500000D01*
G75*
G02*
X96110000Y-84000000I0J500000D01*
G01*
X96110000Y-83000000D01*
G75*
G02*
X96610000Y-82500000I500000J0D01*
G01*
G37*
%TD*%
%TO.C,BLACK*%
G36*
X111790191Y-117802470D02*
G01*
X112078941Y-117859906D01*
X112360670Y-117945368D01*
X112632665Y-118058032D01*
X112892308Y-118196814D01*
X113137098Y-118360377D01*
X113364677Y-118547147D01*
X113572853Y-118755323D01*
X113759623Y-118982902D01*
X113923186Y-119227692D01*
X114061968Y-119487335D01*
X114174632Y-119759330D01*
X114260094Y-120041059D01*
X114317530Y-120329809D01*
X114346386Y-120622797D01*
X114346386Y-120917203D01*
X114317530Y-121210191D01*
X114260094Y-121498941D01*
X114174632Y-121780670D01*
X114061968Y-122052665D01*
X113923186Y-122312308D01*
X113759623Y-122557098D01*
X113572853Y-122784677D01*
X113468765Y-122888765D01*
X114350000Y-123770000D01*
X108350000Y-123770000D01*
X109231235Y-122888765D01*
X109127147Y-122784677D01*
X108940377Y-122557098D01*
X108776814Y-122312308D01*
X108638032Y-122052665D01*
X108525368Y-121780670D01*
X108439906Y-121498941D01*
X108382470Y-121210191D01*
X108353614Y-120917203D01*
X108353614Y-120622797D01*
X108382470Y-120329809D01*
X108439906Y-120041059D01*
X108525368Y-119759330D01*
X108638032Y-119487335D01*
X108776814Y-119227692D01*
X108940377Y-118982902D01*
X109127147Y-118755323D01*
X109335323Y-118547147D01*
X109562902Y-118360377D01*
X109807692Y-118196814D01*
X110067335Y-118058032D01*
X110339330Y-117945368D01*
X110621059Y-117859906D01*
X110909809Y-117802470D01*
X111202797Y-117773614D01*
X111497203Y-117773614D01*
X111790191Y-117802470D01*
G37*
G36*
G01*
X108350000Y-123770000D02*
X114350000Y-123770000D01*
G75*
G02*
X114850000Y-124270000I0J-500000D01*
G01*
X114850000Y-125270000D01*
G75*
G02*
X114350000Y-125770000I-500000J0D01*
G01*
X108350000Y-125770000D01*
G75*
G02*
X107850000Y-125270000I0J500000D01*
G01*
X107850000Y-124270000D01*
G75*
G02*
X108350000Y-123770000I500000J0D01*
G01*
G37*
%TD*%
%TO.C,BLACK*%
G36*
X99169809Y-135237530D02*
G01*
X98881059Y-135180094D01*
X98599330Y-135094632D01*
X98327335Y-134981968D01*
X98067692Y-134843186D01*
X97822902Y-134679623D01*
X97595323Y-134492853D01*
X97387147Y-134284677D01*
X97200377Y-134057098D01*
X97036814Y-133812308D01*
X96898032Y-133552665D01*
X96785368Y-133280670D01*
X96699906Y-132998941D01*
X96642470Y-132710191D01*
X96613614Y-132417203D01*
X96613614Y-132122797D01*
X96642470Y-131829809D01*
X96699906Y-131541059D01*
X96785368Y-131259330D01*
X96898032Y-130987335D01*
X97036814Y-130727692D01*
X97200377Y-130482902D01*
X97387147Y-130255323D01*
X97491235Y-130151235D01*
X96610000Y-129270000D01*
X102610000Y-129270000D01*
X101728765Y-130151235D01*
X101832853Y-130255323D01*
X102019623Y-130482902D01*
X102183186Y-130727692D01*
X102321968Y-130987335D01*
X102434632Y-131259330D01*
X102520094Y-131541059D01*
X102577530Y-131829809D01*
X102606386Y-132122797D01*
X102606386Y-132417203D01*
X102577530Y-132710191D01*
X102520094Y-132998941D01*
X102434632Y-133280670D01*
X102321968Y-133552665D01*
X102183186Y-133812308D01*
X102019623Y-134057098D01*
X101832853Y-134284677D01*
X101624677Y-134492853D01*
X101397098Y-134679623D01*
X101152308Y-134843186D01*
X100892665Y-134981968D01*
X100620670Y-135094632D01*
X100338941Y-135180094D01*
X100050191Y-135237530D01*
X99757203Y-135266386D01*
X99462797Y-135266386D01*
X99169809Y-135237530D01*
G37*
G36*
G01*
X102610000Y-129270000D02*
X96610000Y-129270000D01*
G75*
G02*
X96110000Y-128770000I0J500000D01*
G01*
X96110000Y-127770000D01*
G75*
G02*
X96610000Y-127270000I500000J0D01*
G01*
X102610000Y-127270000D01*
G75*
G02*
X103110000Y-127770000I0J-500000D01*
G01*
X103110000Y-128770000D01*
G75*
G02*
X102610000Y-129270000I-500000J0D01*
G01*
G37*
%TD*%
%TO.C,BLACK*%
G36*
G01*
X114350000Y-170570000D02*
X108350000Y-170570000D01*
G75*
G02*
X107850000Y-170070000I0J500000D01*
G01*
X107850000Y-169070000D01*
G75*
G02*
X108350000Y-168570000I500000J0D01*
G01*
X114350000Y-168570000D01*
G75*
G02*
X114850000Y-169070000I0J-500000D01*
G01*
X114850000Y-170070000D01*
G75*
G02*
X114350000Y-170570000I-500000J0D01*
G01*
G37*
G36*
X110909809Y-176537530D02*
G01*
X110621059Y-176480094D01*
X110339330Y-176394632D01*
X110067335Y-176281968D01*
X109807692Y-176143186D01*
X109562902Y-175979623D01*
X109335323Y-175792853D01*
X109127147Y-175584677D01*
X108940377Y-175357098D01*
X108776814Y-175112308D01*
X108638032Y-174852665D01*
X108525368Y-174580670D01*
X108439906Y-174298941D01*
X108382470Y-174010191D01*
X108353614Y-173717203D01*
X108353614Y-173422797D01*
X108382470Y-173129809D01*
X108439906Y-172841059D01*
X108525368Y-172559330D01*
X108638032Y-172287335D01*
X108776814Y-172027692D01*
X108940377Y-171782902D01*
X109127147Y-171555323D01*
X109231235Y-171451235D01*
X108350000Y-170570000D01*
X114350000Y-170570000D01*
X113468765Y-171451235D01*
X113572853Y-171555323D01*
X113759623Y-171782902D01*
X113923186Y-172027692D01*
X114061968Y-172287335D01*
X114174632Y-172559330D01*
X114260094Y-172841059D01*
X114317530Y-173129809D01*
X114346386Y-173422797D01*
X114346386Y-173717203D01*
X114317530Y-174010191D01*
X114260094Y-174298941D01*
X114174632Y-174580670D01*
X114061968Y-174852665D01*
X113923186Y-175112308D01*
X113759623Y-175357098D01*
X113572853Y-175584677D01*
X113364677Y-175792853D01*
X113137098Y-175979623D01*
X112892308Y-176143186D01*
X112632665Y-176281968D01*
X112360670Y-176394632D01*
X112078941Y-176480094D01*
X111790191Y-176537530D01*
X111497203Y-176566386D01*
X111202797Y-176566386D01*
X110909809Y-176537530D01*
G37*
%TD*%
%TO.C,BLACK*%
G36*
G01*
X96610000Y-165010000D02*
X102610000Y-165010000D01*
G75*
G02*
X103110000Y-165510000I0J-500000D01*
G01*
X103110000Y-166510000D01*
G75*
G02*
X102610000Y-167010000I-500000J0D01*
G01*
X96610000Y-167010000D01*
G75*
G02*
X96110000Y-166510000I0J500000D01*
G01*
X96110000Y-165510000D01*
G75*
G02*
X96610000Y-165010000I500000J0D01*
G01*
G37*
G36*
X100050191Y-159042470D02*
G01*
X100338941Y-159099906D01*
X100620670Y-159185368D01*
X100892665Y-159298032D01*
X101152308Y-159436814D01*
X101397098Y-159600377D01*
X101624677Y-159787147D01*
X101832853Y-159995323D01*
X102019623Y-160222902D01*
X102183186Y-160467692D01*
X102321968Y-160727335D01*
X102434632Y-160999330D01*
X102520094Y-161281059D01*
X102577530Y-161569809D01*
X102606386Y-161862797D01*
X102606386Y-162157203D01*
X102577530Y-162450191D01*
X102520094Y-162738941D01*
X102434632Y-163020670D01*
X102321968Y-163292665D01*
X102183186Y-163552308D01*
X102019623Y-163797098D01*
X101832853Y-164024677D01*
X101728765Y-164128765D01*
X102610000Y-165010000D01*
X96610000Y-165010000D01*
X97491235Y-164128765D01*
X97387147Y-164024677D01*
X97200377Y-163797098D01*
X97036814Y-163552308D01*
X96898032Y-163292665D01*
X96785368Y-163020670D01*
X96699906Y-162738941D01*
X96642470Y-162450191D01*
X96613614Y-162157203D01*
X96613614Y-161862797D01*
X96642470Y-161569809D01*
X96699906Y-161281059D01*
X96785368Y-160999330D01*
X96898032Y-160727335D01*
X97036814Y-160467692D01*
X97200377Y-160222902D01*
X97387147Y-159995323D01*
X97595323Y-159787147D01*
X97822902Y-159600377D01*
X98067692Y-159436814D01*
X98327335Y-159298032D01*
X98599330Y-159185368D01*
X98881059Y-159099906D01*
X99169809Y-159042470D01*
X99462797Y-159013614D01*
X99757203Y-159013614D01*
X100050191Y-159042470D01*
G37*
%TD*%
%TO.C,BLACK*%
G36*
G01*
X108350000Y-206650000D02*
X114350000Y-206650000D01*
G75*
G02*
X114850000Y-207150000I0J-500000D01*
G01*
X114850000Y-208150000D01*
G75*
G02*
X114350000Y-208650000I-500000J0D01*
G01*
X108350000Y-208650000D01*
G75*
G02*
X107850000Y-208150000I0J500000D01*
G01*
X107850000Y-207150000D01*
G75*
G02*
X108350000Y-206650000I500000J0D01*
G01*
G37*
G36*
X111790191Y-200682470D02*
G01*
X112078941Y-200739906D01*
X112360670Y-200825368D01*
X112632665Y-200938032D01*
X112892308Y-201076814D01*
X113137098Y-201240377D01*
X113364677Y-201427147D01*
X113572853Y-201635323D01*
X113759623Y-201862902D01*
X113923186Y-202107692D01*
X114061968Y-202367335D01*
X114174632Y-202639330D01*
X114260094Y-202921059D01*
X114317530Y-203209809D01*
X114346386Y-203502797D01*
X114346386Y-203797203D01*
X114317530Y-204090191D01*
X114260094Y-204378941D01*
X114174632Y-204660670D01*
X114061968Y-204932665D01*
X113923186Y-205192308D01*
X113759623Y-205437098D01*
X113572853Y-205664677D01*
X113468765Y-205768765D01*
X114350000Y-206650000D01*
X108350000Y-206650000D01*
X109231235Y-205768765D01*
X109127147Y-205664677D01*
X108940377Y-205437098D01*
X108776814Y-205192308D01*
X108638032Y-204932665D01*
X108525368Y-204660670D01*
X108439906Y-204378941D01*
X108382470Y-204090191D01*
X108353614Y-203797203D01*
X108353614Y-203502797D01*
X108382470Y-203209809D01*
X108439906Y-202921059D01*
X108525368Y-202639330D01*
X108638032Y-202367335D01*
X108776814Y-202107692D01*
X108940377Y-201862902D01*
X109127147Y-201635323D01*
X109335323Y-201427147D01*
X109562902Y-201240377D01*
X109807692Y-201076814D01*
X110067335Y-200938032D01*
X110339330Y-200825368D01*
X110621059Y-200739906D01*
X110909809Y-200682470D01*
X111202797Y-200653614D01*
X111497203Y-200653614D01*
X111790191Y-200682470D01*
G37*
%TD*%
%TO.C,BLACK*%
G36*
X122639809Y-52757530D02*
G01*
X122351059Y-52700094D01*
X122069330Y-52614632D01*
X121797335Y-52501968D01*
X121537692Y-52363186D01*
X121292902Y-52199623D01*
X121065323Y-52012853D01*
X120857147Y-51804677D01*
X120670377Y-51577098D01*
X120506814Y-51332308D01*
X120368032Y-51072665D01*
X120255368Y-50800670D01*
X120169906Y-50518941D01*
X120112470Y-50230191D01*
X120083614Y-49937203D01*
X120083614Y-49642797D01*
X120112470Y-49349809D01*
X120169906Y-49061059D01*
X120255368Y-48779330D01*
X120368032Y-48507335D01*
X120506814Y-48247692D01*
X120670377Y-48002902D01*
X120857147Y-47775323D01*
X120961235Y-47671235D01*
X120080000Y-46790000D01*
X126080000Y-46790000D01*
X125198765Y-47671235D01*
X125302853Y-47775323D01*
X125489623Y-48002902D01*
X125653186Y-48247692D01*
X125791968Y-48507335D01*
X125904632Y-48779330D01*
X125990094Y-49061059D01*
X126047530Y-49349809D01*
X126076386Y-49642797D01*
X126076386Y-49937203D01*
X126047530Y-50230191D01*
X125990094Y-50518941D01*
X125904632Y-50800670D01*
X125791968Y-51072665D01*
X125653186Y-51332308D01*
X125489623Y-51577098D01*
X125302853Y-51804677D01*
X125094677Y-52012853D01*
X124867098Y-52199623D01*
X124622308Y-52363186D01*
X124362665Y-52501968D01*
X124090670Y-52614632D01*
X123808941Y-52700094D01*
X123520191Y-52757530D01*
X123227203Y-52786386D01*
X122932797Y-52786386D01*
X122639809Y-52757530D01*
G37*
G36*
G01*
X126080000Y-46790000D02*
X120080000Y-46790000D01*
G75*
G02*
X119580000Y-46290000I0J500000D01*
G01*
X119580000Y-45290000D01*
G75*
G02*
X120080000Y-44790000I500000J0D01*
G01*
X126080000Y-44790000D01*
G75*
G02*
X126580000Y-45290000I0J-500000D01*
G01*
X126580000Y-46290000D01*
G75*
G02*
X126080000Y-46790000I-500000J0D01*
G01*
G37*
%TD*%
%TO.C,BLACK*%
G36*
X134379809Y-93647530D02*
G01*
X134091059Y-93590094D01*
X133809330Y-93504632D01*
X133537335Y-93391968D01*
X133277692Y-93253186D01*
X133032902Y-93089623D01*
X132805323Y-92902853D01*
X132597147Y-92694677D01*
X132410377Y-92467098D01*
X132246814Y-92222308D01*
X132108032Y-91962665D01*
X131995368Y-91690670D01*
X131909906Y-91408941D01*
X131852470Y-91120191D01*
X131823614Y-90827203D01*
X131823614Y-90532797D01*
X131852470Y-90239809D01*
X131909906Y-89951059D01*
X131995368Y-89669330D01*
X132108032Y-89397335D01*
X132246814Y-89137692D01*
X132410377Y-88892902D01*
X132597147Y-88665323D01*
X132701235Y-88561235D01*
X131820000Y-87680000D01*
X137820000Y-87680000D01*
X136938765Y-88561235D01*
X137042853Y-88665323D01*
X137229623Y-88892902D01*
X137393186Y-89137692D01*
X137531968Y-89397335D01*
X137644632Y-89669330D01*
X137730094Y-89951059D01*
X137787530Y-90239809D01*
X137816386Y-90532797D01*
X137816386Y-90827203D01*
X137787530Y-91120191D01*
X137730094Y-91408941D01*
X137644632Y-91690670D01*
X137531968Y-91962665D01*
X137393186Y-92222308D01*
X137229623Y-92467098D01*
X137042853Y-92694677D01*
X136834677Y-92902853D01*
X136607098Y-93089623D01*
X136362308Y-93253186D01*
X136102665Y-93391968D01*
X135830670Y-93504632D01*
X135548941Y-93590094D01*
X135260191Y-93647530D01*
X134967203Y-93676386D01*
X134672797Y-93676386D01*
X134379809Y-93647530D01*
G37*
G36*
G01*
X137820000Y-87680000D02*
X131820000Y-87680000D01*
G75*
G02*
X131320000Y-87180000I0J500000D01*
G01*
X131320000Y-86180000D01*
G75*
G02*
X131820000Y-85680000I500000J0D01*
G01*
X137820000Y-85680000D01*
G75*
G02*
X138320000Y-86180000I0J-500000D01*
G01*
X138320000Y-87180000D01*
G75*
G02*
X137820000Y-87680000I-500000J0D01*
G01*
G37*
%TD*%
%TO.C,BLACK*%
G36*
G01*
X120080000Y-82500000D02*
X126080000Y-82500000D01*
G75*
G02*
X126580000Y-83000000I0J-500000D01*
G01*
X126580000Y-84000000D01*
G75*
G02*
X126080000Y-84500000I-500000J0D01*
G01*
X120080000Y-84500000D01*
G75*
G02*
X119580000Y-84000000I0J500000D01*
G01*
X119580000Y-83000000D01*
G75*
G02*
X120080000Y-82500000I500000J0D01*
G01*
G37*
G36*
X123520191Y-76532470D02*
G01*
X123808941Y-76589906D01*
X124090670Y-76675368D01*
X124362665Y-76788032D01*
X124622308Y-76926814D01*
X124867098Y-77090377D01*
X125094677Y-77277147D01*
X125302853Y-77485323D01*
X125489623Y-77712902D01*
X125653186Y-77957692D01*
X125791968Y-78217335D01*
X125904632Y-78489330D01*
X125990094Y-78771059D01*
X126047530Y-79059809D01*
X126076386Y-79352797D01*
X126076386Y-79647203D01*
X126047530Y-79940191D01*
X125990094Y-80228941D01*
X125904632Y-80510670D01*
X125791968Y-80782665D01*
X125653186Y-81042308D01*
X125489623Y-81287098D01*
X125302853Y-81514677D01*
X125198765Y-81618765D01*
X126080000Y-82500000D01*
X120080000Y-82500000D01*
X120961235Y-81618765D01*
X120857147Y-81514677D01*
X120670377Y-81287098D01*
X120506814Y-81042308D01*
X120368032Y-80782665D01*
X120255368Y-80510670D01*
X120169906Y-80228941D01*
X120112470Y-79940191D01*
X120083614Y-79647203D01*
X120083614Y-79352797D01*
X120112470Y-79059809D01*
X120169906Y-78771059D01*
X120255368Y-78489330D01*
X120368032Y-78217335D01*
X120506814Y-77957692D01*
X120670377Y-77712902D01*
X120857147Y-77485323D01*
X121065323Y-77277147D01*
X121292902Y-77090377D01*
X121537692Y-76926814D01*
X121797335Y-76788032D01*
X122069330Y-76675368D01*
X122351059Y-76589906D01*
X122639809Y-76532470D01*
X122932797Y-76503614D01*
X123227203Y-76503614D01*
X123520191Y-76532470D01*
G37*
%TD*%
%TO.C,BLACK*%
G36*
G01*
X131820000Y-123740000D02*
X137820000Y-123740000D01*
G75*
G02*
X138320000Y-124240000I0J-500000D01*
G01*
X138320000Y-125240000D01*
G75*
G02*
X137820000Y-125740000I-500000J0D01*
G01*
X131820000Y-125740000D01*
G75*
G02*
X131320000Y-125240000I0J500000D01*
G01*
X131320000Y-124240000D01*
G75*
G02*
X131820000Y-123740000I500000J0D01*
G01*
G37*
G36*
X135260191Y-117772470D02*
G01*
X135548941Y-117829906D01*
X135830670Y-117915368D01*
X136102665Y-118028032D01*
X136362308Y-118166814D01*
X136607098Y-118330377D01*
X136834677Y-118517147D01*
X137042853Y-118725323D01*
X137229623Y-118952902D01*
X137393186Y-119197692D01*
X137531968Y-119457335D01*
X137644632Y-119729330D01*
X137730094Y-120011059D01*
X137787530Y-120299809D01*
X137816386Y-120592797D01*
X137816386Y-120887203D01*
X137787530Y-121180191D01*
X137730094Y-121468941D01*
X137644632Y-121750670D01*
X137531968Y-122022665D01*
X137393186Y-122282308D01*
X137229623Y-122527098D01*
X137042853Y-122754677D01*
X136938765Y-122858765D01*
X137820000Y-123740000D01*
X131820000Y-123740000D01*
X132701235Y-122858765D01*
X132597147Y-122754677D01*
X132410377Y-122527098D01*
X132246814Y-122282308D01*
X132108032Y-122022665D01*
X131995368Y-121750670D01*
X131909906Y-121468941D01*
X131852470Y-121180191D01*
X131823614Y-120887203D01*
X131823614Y-120592797D01*
X131852470Y-120299809D01*
X131909906Y-120011059D01*
X131995368Y-119729330D01*
X132108032Y-119457335D01*
X132246814Y-119197692D01*
X132410377Y-118952902D01*
X132597147Y-118725323D01*
X132805323Y-118517147D01*
X133032902Y-118330377D01*
X133277692Y-118166814D01*
X133537335Y-118028032D01*
X133809330Y-117915368D01*
X134091059Y-117829906D01*
X134379809Y-117772470D01*
X134672797Y-117743614D01*
X134967203Y-117743614D01*
X135260191Y-117772470D01*
G37*
%TD*%
%TO.C,BLACK*%
G36*
G01*
X126080000Y-129270000D02*
X120080000Y-129270000D01*
G75*
G02*
X119580000Y-128770000I0J500000D01*
G01*
X119580000Y-127770000D01*
G75*
G02*
X120080000Y-127270000I500000J0D01*
G01*
X126080000Y-127270000D01*
G75*
G02*
X126580000Y-127770000I0J-500000D01*
G01*
X126580000Y-128770000D01*
G75*
G02*
X126080000Y-129270000I-500000J0D01*
G01*
G37*
G36*
X122639809Y-135237530D02*
G01*
X122351059Y-135180094D01*
X122069330Y-135094632D01*
X121797335Y-134981968D01*
X121537692Y-134843186D01*
X121292902Y-134679623D01*
X121065323Y-134492853D01*
X120857147Y-134284677D01*
X120670377Y-134057098D01*
X120506814Y-133812308D01*
X120368032Y-133552665D01*
X120255368Y-133280670D01*
X120169906Y-132998941D01*
X120112470Y-132710191D01*
X120083614Y-132417203D01*
X120083614Y-132122797D01*
X120112470Y-131829809D01*
X120169906Y-131541059D01*
X120255368Y-131259330D01*
X120368032Y-130987335D01*
X120506814Y-130727692D01*
X120670377Y-130482902D01*
X120857147Y-130255323D01*
X120961235Y-130151235D01*
X120080000Y-129270000D01*
X126080000Y-129270000D01*
X125198765Y-130151235D01*
X125302853Y-130255323D01*
X125489623Y-130482902D01*
X125653186Y-130727692D01*
X125791968Y-130987335D01*
X125904632Y-131259330D01*
X125990094Y-131541059D01*
X126047530Y-131829809D01*
X126076386Y-132122797D01*
X126076386Y-132417203D01*
X126047530Y-132710191D01*
X125990094Y-132998941D01*
X125904632Y-133280670D01*
X125791968Y-133552665D01*
X125653186Y-133812308D01*
X125489623Y-134057098D01*
X125302853Y-134284677D01*
X125094677Y-134492853D01*
X124867098Y-134679623D01*
X124622308Y-134843186D01*
X124362665Y-134981968D01*
X124090670Y-135094632D01*
X123808941Y-135180094D01*
X123520191Y-135237530D01*
X123227203Y-135266386D01*
X122932797Y-135266386D01*
X122639809Y-135237530D01*
G37*
%TD*%
%TO.C,BLACK*%
G36*
X134379809Y-176547530D02*
G01*
X134091059Y-176490094D01*
X133809330Y-176404632D01*
X133537335Y-176291968D01*
X133277692Y-176153186D01*
X133032902Y-175989623D01*
X132805323Y-175802853D01*
X132597147Y-175594677D01*
X132410377Y-175367098D01*
X132246814Y-175122308D01*
X132108032Y-174862665D01*
X131995368Y-174590670D01*
X131909906Y-174308941D01*
X131852470Y-174020191D01*
X131823614Y-173727203D01*
X131823614Y-173432797D01*
X131852470Y-173139809D01*
X131909906Y-172851059D01*
X131995368Y-172569330D01*
X132108032Y-172297335D01*
X132246814Y-172037692D01*
X132410377Y-171792902D01*
X132597147Y-171565323D01*
X132701235Y-171461235D01*
X131820000Y-170580000D01*
X137820000Y-170580000D01*
X136938765Y-171461235D01*
X137042853Y-171565323D01*
X137229623Y-171792902D01*
X137393186Y-172037692D01*
X137531968Y-172297335D01*
X137644632Y-172569330D01*
X137730094Y-172851059D01*
X137787530Y-173139809D01*
X137816386Y-173432797D01*
X137816386Y-173727203D01*
X137787530Y-174020191D01*
X137730094Y-174308941D01*
X137644632Y-174590670D01*
X137531968Y-174862665D01*
X137393186Y-175122308D01*
X137229623Y-175367098D01*
X137042853Y-175594677D01*
X136834677Y-175802853D01*
X136607098Y-175989623D01*
X136362308Y-176153186D01*
X136102665Y-176291968D01*
X135830670Y-176404632D01*
X135548941Y-176490094D01*
X135260191Y-176547530D01*
X134967203Y-176576386D01*
X134672797Y-176576386D01*
X134379809Y-176547530D01*
G37*
G36*
G01*
X137820000Y-170580000D02*
X131820000Y-170580000D01*
G75*
G02*
X131320000Y-170080000I0J500000D01*
G01*
X131320000Y-169080000D01*
G75*
G02*
X131820000Y-168580000I500000J0D01*
G01*
X137820000Y-168580000D01*
G75*
G02*
X138320000Y-169080000I0J-500000D01*
G01*
X138320000Y-170080000D01*
G75*
G02*
X137820000Y-170580000I-500000J0D01*
G01*
G37*
%TD*%
%TO.C,BLACK*%
G36*
X123520191Y-159032470D02*
G01*
X123808941Y-159089906D01*
X124090670Y-159175368D01*
X124362665Y-159288032D01*
X124622308Y-159426814D01*
X124867098Y-159590377D01*
X125094677Y-159777147D01*
X125302853Y-159985323D01*
X125489623Y-160212902D01*
X125653186Y-160457692D01*
X125791968Y-160717335D01*
X125904632Y-160989330D01*
X125990094Y-161271059D01*
X126047530Y-161559809D01*
X126076386Y-161852797D01*
X126076386Y-162147203D01*
X126047530Y-162440191D01*
X125990094Y-162728941D01*
X125904632Y-163010670D01*
X125791968Y-163282665D01*
X125653186Y-163542308D01*
X125489623Y-163787098D01*
X125302853Y-164014677D01*
X125198765Y-164118765D01*
X126080000Y-165000000D01*
X120080000Y-165000000D01*
X120961235Y-164118765D01*
X120857147Y-164014677D01*
X120670377Y-163787098D01*
X120506814Y-163542308D01*
X120368032Y-163282665D01*
X120255368Y-163010670D01*
X120169906Y-162728941D01*
X120112470Y-162440191D01*
X120083614Y-162147203D01*
X120083614Y-161852797D01*
X120112470Y-161559809D01*
X120169906Y-161271059D01*
X120255368Y-160989330D01*
X120368032Y-160717335D01*
X120506814Y-160457692D01*
X120670377Y-160212902D01*
X120857147Y-159985323D01*
X121065323Y-159777147D01*
X121292902Y-159590377D01*
X121537692Y-159426814D01*
X121797335Y-159288032D01*
X122069330Y-159175368D01*
X122351059Y-159089906D01*
X122639809Y-159032470D01*
X122932797Y-159003614D01*
X123227203Y-159003614D01*
X123520191Y-159032470D01*
G37*
G36*
G01*
X120080000Y-165000000D02*
X126080000Y-165000000D01*
G75*
G02*
X126580000Y-165500000I0J-500000D01*
G01*
X126580000Y-166500000D01*
G75*
G02*
X126080000Y-167000000I-500000J0D01*
G01*
X120080000Y-167000000D01*
G75*
G02*
X119580000Y-166500000I0J500000D01*
G01*
X119580000Y-165500000D01*
G75*
G02*
X120080000Y-165000000I500000J0D01*
G01*
G37*
%TD*%
%TO.C,BLACK*%
G36*
G01*
X131820000Y-206640000D02*
X137820000Y-206640000D01*
G75*
G02*
X138320000Y-207140000I0J-500000D01*
G01*
X138320000Y-208140000D01*
G75*
G02*
X137820000Y-208640000I-500000J0D01*
G01*
X131820000Y-208640000D01*
G75*
G02*
X131320000Y-208140000I0J500000D01*
G01*
X131320000Y-207140000D01*
G75*
G02*
X131820000Y-206640000I500000J0D01*
G01*
G37*
G36*
X135260191Y-200672470D02*
G01*
X135548941Y-200729906D01*
X135830670Y-200815368D01*
X136102665Y-200928032D01*
X136362308Y-201066814D01*
X136607098Y-201230377D01*
X136834677Y-201417147D01*
X137042853Y-201625323D01*
X137229623Y-201852902D01*
X137393186Y-202097692D01*
X137531968Y-202357335D01*
X137644632Y-202629330D01*
X137730094Y-202911059D01*
X137787530Y-203199809D01*
X137816386Y-203492797D01*
X137816386Y-203787203D01*
X137787530Y-204080191D01*
X137730094Y-204368941D01*
X137644632Y-204650670D01*
X137531968Y-204922665D01*
X137393186Y-205182308D01*
X137229623Y-205427098D01*
X137042853Y-205654677D01*
X136938765Y-205758765D01*
X137820000Y-206640000D01*
X131820000Y-206640000D01*
X132701235Y-205758765D01*
X132597147Y-205654677D01*
X132410377Y-205427098D01*
X132246814Y-205182308D01*
X132108032Y-204922665D01*
X131995368Y-204650670D01*
X131909906Y-204368941D01*
X131852470Y-204080191D01*
X131823614Y-203787203D01*
X131823614Y-203492797D01*
X131852470Y-203199809D01*
X131909906Y-202911059D01*
X131995368Y-202629330D01*
X132108032Y-202357335D01*
X132246814Y-202097692D01*
X132410377Y-201852902D01*
X132597147Y-201625323D01*
X132805323Y-201417147D01*
X133032902Y-201230377D01*
X133277692Y-201066814D01*
X133537335Y-200928032D01*
X133809330Y-200815368D01*
X134091059Y-200729906D01*
X134379809Y-200672470D01*
X134672797Y-200643614D01*
X134967203Y-200643614D01*
X135260191Y-200672470D01*
G37*
%TD*%
%TO.C,BLACK*%
G36*
G01*
X179220000Y-47157223D02*
X173220000Y-47157223D01*
G75*
G02*
X172720000Y-46657223I0J500000D01*
G01*
X172720000Y-45657223D01*
G75*
G02*
X173220000Y-45157223I500000J0D01*
G01*
X179220000Y-45157223D01*
G75*
G02*
X179720000Y-45657223I0J-500000D01*
G01*
X179720000Y-46657223D01*
G75*
G02*
X179220000Y-47157223I-500000J0D01*
G01*
G37*
G36*
X175779809Y-53124753D02*
G01*
X175491059Y-53067317D01*
X175209330Y-52981855D01*
X174937335Y-52869191D01*
X174677692Y-52730409D01*
X174432902Y-52566846D01*
X174205323Y-52380076D01*
X173997147Y-52171900D01*
X173810377Y-51944321D01*
X173646814Y-51699531D01*
X173508032Y-51439888D01*
X173395368Y-51167893D01*
X173309906Y-50886164D01*
X173252470Y-50597414D01*
X173223614Y-50304426D01*
X173223614Y-50010020D01*
X173252470Y-49717032D01*
X173309906Y-49428282D01*
X173395368Y-49146553D01*
X173508032Y-48874558D01*
X173646814Y-48614915D01*
X173810377Y-48370125D01*
X173997147Y-48142546D01*
X174101235Y-48038458D01*
X173220000Y-47157223D01*
X179220000Y-47157223D01*
X178338765Y-48038458D01*
X178442853Y-48142546D01*
X178629623Y-48370125D01*
X178793186Y-48614915D01*
X178931968Y-48874558D01*
X179044632Y-49146553D01*
X179130094Y-49428282D01*
X179187530Y-49717032D01*
X179216386Y-50010020D01*
X179216386Y-50304426D01*
X179187530Y-50597414D01*
X179130094Y-50886164D01*
X179044632Y-51167893D01*
X178931968Y-51439888D01*
X178793186Y-51699531D01*
X178629623Y-51944321D01*
X178442853Y-52171900D01*
X178234677Y-52380076D01*
X178007098Y-52566846D01*
X177762308Y-52730409D01*
X177502665Y-52869191D01*
X177230670Y-52981855D01*
X176948941Y-53067317D01*
X176660191Y-53124753D01*
X176367203Y-53153609D01*
X176072797Y-53153609D01*
X175779809Y-53124753D01*
G37*
%TD*%
%TO.C,BLACK*%
G36*
X176660191Y-76175247D02*
G01*
X176948941Y-76232683D01*
X177230670Y-76318145D01*
X177502665Y-76430809D01*
X177762308Y-76569591D01*
X178007098Y-76733154D01*
X178234677Y-76919924D01*
X178442853Y-77128100D01*
X178629623Y-77355679D01*
X178793186Y-77600469D01*
X178931968Y-77860112D01*
X179044632Y-78132107D01*
X179130094Y-78413836D01*
X179187530Y-78702586D01*
X179216386Y-78995574D01*
X179216386Y-79289980D01*
X179187530Y-79582968D01*
X179130094Y-79871718D01*
X179044632Y-80153447D01*
X178931968Y-80425442D01*
X178793186Y-80685085D01*
X178629623Y-80929875D01*
X178442853Y-81157454D01*
X178338765Y-81261542D01*
X179220000Y-82142777D01*
X173220000Y-82142777D01*
X174101235Y-81261542D01*
X173997147Y-81157454D01*
X173810377Y-80929875D01*
X173646814Y-80685085D01*
X173508032Y-80425442D01*
X173395368Y-80153447D01*
X173309906Y-79871718D01*
X173252470Y-79582968D01*
X173223614Y-79289980D01*
X173223614Y-78995574D01*
X173252470Y-78702586D01*
X173309906Y-78413836D01*
X173395368Y-78132107D01*
X173508032Y-77860112D01*
X173646814Y-77600469D01*
X173810377Y-77355679D01*
X173997147Y-77128100D01*
X174205323Y-76919924D01*
X174432902Y-76733154D01*
X174677692Y-76569591D01*
X174937335Y-76430809D01*
X175209330Y-76318145D01*
X175491059Y-76232683D01*
X175779809Y-76175247D01*
X176072797Y-76146391D01*
X176367203Y-76146391D01*
X176660191Y-76175247D01*
G37*
G36*
G01*
X173220000Y-82142777D02*
X179220000Y-82142777D01*
G75*
G02*
X179720000Y-82642777I0J-500000D01*
G01*
X179720000Y-83642777D01*
G75*
G02*
X179220000Y-84142777I-500000J0D01*
G01*
X173220000Y-84142777D01*
G75*
G02*
X172720000Y-83642777I0J500000D01*
G01*
X172720000Y-82642777D01*
G75*
G02*
X173220000Y-82142777I500000J0D01*
G01*
G37*
%TD*%
%TO.C,BLACK*%
G36*
X175779809Y-94381419D02*
G01*
X175491059Y-94323983D01*
X175209330Y-94238521D01*
X174937335Y-94125857D01*
X174677692Y-93987075D01*
X174432902Y-93823512D01*
X174205323Y-93636742D01*
X173997147Y-93428566D01*
X173810377Y-93200987D01*
X173646814Y-92956197D01*
X173508032Y-92696554D01*
X173395368Y-92424559D01*
X173309906Y-92142830D01*
X173252470Y-91854080D01*
X173223614Y-91561092D01*
X173223614Y-91266686D01*
X173252470Y-90973698D01*
X173309906Y-90684948D01*
X173395368Y-90403219D01*
X173508032Y-90131224D01*
X173646814Y-89871581D01*
X173810377Y-89626791D01*
X173997147Y-89399212D01*
X174101235Y-89295124D01*
X173220000Y-88413889D01*
X179220000Y-88413889D01*
X178338765Y-89295124D01*
X178442853Y-89399212D01*
X178629623Y-89626791D01*
X178793186Y-89871581D01*
X178931968Y-90131224D01*
X179044632Y-90403219D01*
X179130094Y-90684948D01*
X179187530Y-90973698D01*
X179216386Y-91266686D01*
X179216386Y-91561092D01*
X179187530Y-91854080D01*
X179130094Y-92142830D01*
X179044632Y-92424559D01*
X178931968Y-92696554D01*
X178793186Y-92956197D01*
X178629623Y-93200987D01*
X178442853Y-93428566D01*
X178234677Y-93636742D01*
X178007098Y-93823512D01*
X177762308Y-93987075D01*
X177502665Y-94125857D01*
X177230670Y-94238521D01*
X176948941Y-94323983D01*
X176660191Y-94381419D01*
X176367203Y-94410275D01*
X176072797Y-94410275D01*
X175779809Y-94381419D01*
G37*
G36*
G01*
X179220000Y-88413889D02*
X173220000Y-88413889D01*
G75*
G02*
X172720000Y-87913889I0J500000D01*
G01*
X172720000Y-86913889D01*
G75*
G02*
X173220000Y-86413889I500000J0D01*
G01*
X179220000Y-86413889D01*
G75*
G02*
X179720000Y-86913889I0J-500000D01*
G01*
X179720000Y-87913889D01*
G75*
G02*
X179220000Y-88413889I-500000J0D01*
G01*
G37*
%TD*%
%TO.C,BLACK*%
G36*
G01*
X173220000Y-123399443D02*
X179220000Y-123399443D01*
G75*
G02*
X179720000Y-123899443I0J-500000D01*
G01*
X179720000Y-124899443D01*
G75*
G02*
X179220000Y-125399443I-500000J0D01*
G01*
X173220000Y-125399443D01*
G75*
G02*
X172720000Y-124899443I0J500000D01*
G01*
X172720000Y-123899443D01*
G75*
G02*
X173220000Y-123399443I500000J0D01*
G01*
G37*
G36*
X176660191Y-117431913D02*
G01*
X176948941Y-117489349D01*
X177230670Y-117574811D01*
X177502665Y-117687475D01*
X177762308Y-117826257D01*
X178007098Y-117989820D01*
X178234677Y-118176590D01*
X178442853Y-118384766D01*
X178629623Y-118612345D01*
X178793186Y-118857135D01*
X178931968Y-119116778D01*
X179044632Y-119388773D01*
X179130094Y-119670502D01*
X179187530Y-119959252D01*
X179216386Y-120252240D01*
X179216386Y-120546646D01*
X179187530Y-120839634D01*
X179130094Y-121128384D01*
X179044632Y-121410113D01*
X178931968Y-121682108D01*
X178793186Y-121941751D01*
X178629623Y-122186541D01*
X178442853Y-122414120D01*
X178338765Y-122518208D01*
X179220000Y-123399443D01*
X173220000Y-123399443D01*
X174101235Y-122518208D01*
X173997147Y-122414120D01*
X173810377Y-122186541D01*
X173646814Y-121941751D01*
X173508032Y-121682108D01*
X173395368Y-121410113D01*
X173309906Y-121128384D01*
X173252470Y-120839634D01*
X173223614Y-120546646D01*
X173223614Y-120252240D01*
X173252470Y-119959252D01*
X173309906Y-119670502D01*
X173395368Y-119388773D01*
X173508032Y-119116778D01*
X173646814Y-118857135D01*
X173810377Y-118612345D01*
X173997147Y-118384766D01*
X174205323Y-118176590D01*
X174432902Y-117989820D01*
X174677692Y-117826257D01*
X174937335Y-117687475D01*
X175209330Y-117574811D01*
X175491059Y-117489349D01*
X175779809Y-117431913D01*
X176072797Y-117403057D01*
X176367203Y-117403057D01*
X176660191Y-117431913D01*
G37*
%TD*%
%TO.C,BLACK*%
G36*
G01*
X179220000Y-129670555D02*
X173220000Y-129670555D01*
G75*
G02*
X172720000Y-129170555I0J500000D01*
G01*
X172720000Y-128170555D01*
G75*
G02*
X173220000Y-127670555I500000J0D01*
G01*
X179220000Y-127670555D01*
G75*
G02*
X179720000Y-128170555I0J-500000D01*
G01*
X179720000Y-129170555D01*
G75*
G02*
X179220000Y-129670555I-500000J0D01*
G01*
G37*
G36*
X175779809Y-135638085D02*
G01*
X175491059Y-135580649D01*
X175209330Y-135495187D01*
X174937335Y-135382523D01*
X174677692Y-135243741D01*
X174432902Y-135080178D01*
X174205323Y-134893408D01*
X173997147Y-134685232D01*
X173810377Y-134457653D01*
X173646814Y-134212863D01*
X173508032Y-133953220D01*
X173395368Y-133681225D01*
X173309906Y-133399496D01*
X173252470Y-133110746D01*
X173223614Y-132817758D01*
X173223614Y-132523352D01*
X173252470Y-132230364D01*
X173309906Y-131941614D01*
X173395368Y-131659885D01*
X173508032Y-131387890D01*
X173646814Y-131128247D01*
X173810377Y-130883457D01*
X173997147Y-130655878D01*
X174101235Y-130551790D01*
X173220000Y-129670555D01*
X179220000Y-129670555D01*
X178338765Y-130551790D01*
X178442853Y-130655878D01*
X178629623Y-130883457D01*
X178793186Y-131128247D01*
X178931968Y-131387890D01*
X179044632Y-131659885D01*
X179130094Y-131941614D01*
X179187530Y-132230364D01*
X179216386Y-132523352D01*
X179216386Y-132817758D01*
X179187530Y-133110746D01*
X179130094Y-133399496D01*
X179044632Y-133681225D01*
X178931968Y-133953220D01*
X178793186Y-134212863D01*
X178629623Y-134457653D01*
X178442853Y-134685232D01*
X178234677Y-134893408D01*
X178007098Y-135080178D01*
X177762308Y-135243741D01*
X177502665Y-135382523D01*
X177230670Y-135495187D01*
X176948941Y-135580649D01*
X176660191Y-135638085D01*
X176367203Y-135666941D01*
X176072797Y-135666941D01*
X175779809Y-135638085D01*
G37*
%TD*%
%TO.C,BLACK*%
G36*
X176660191Y-158688579D02*
G01*
X176948941Y-158746015D01*
X177230670Y-158831477D01*
X177502665Y-158944141D01*
X177762308Y-159082923D01*
X178007098Y-159246486D01*
X178234677Y-159433256D01*
X178442853Y-159641432D01*
X178629623Y-159869011D01*
X178793186Y-160113801D01*
X178931968Y-160373444D01*
X179044632Y-160645439D01*
X179130094Y-160927168D01*
X179187530Y-161215918D01*
X179216386Y-161508906D01*
X179216386Y-161803312D01*
X179187530Y-162096300D01*
X179130094Y-162385050D01*
X179044632Y-162666779D01*
X178931968Y-162938774D01*
X178793186Y-163198417D01*
X178629623Y-163443207D01*
X178442853Y-163670786D01*
X178338765Y-163774874D01*
X179220000Y-164656109D01*
X173220000Y-164656109D01*
X174101235Y-163774874D01*
X173997147Y-163670786D01*
X173810377Y-163443207D01*
X173646814Y-163198417D01*
X173508032Y-162938774D01*
X173395368Y-162666779D01*
X173309906Y-162385050D01*
X173252470Y-162096300D01*
X173223614Y-161803312D01*
X173223614Y-161508906D01*
X173252470Y-161215918D01*
X173309906Y-160927168D01*
X173395368Y-160645439D01*
X173508032Y-160373444D01*
X173646814Y-160113801D01*
X173810377Y-159869011D01*
X173997147Y-159641432D01*
X174205323Y-159433256D01*
X174432902Y-159246486D01*
X174677692Y-159082923D01*
X174937335Y-158944141D01*
X175209330Y-158831477D01*
X175491059Y-158746015D01*
X175779809Y-158688579D01*
X176072797Y-158659723D01*
X176367203Y-158659723D01*
X176660191Y-158688579D01*
G37*
G36*
G01*
X173220000Y-164656109D02*
X179220000Y-164656109D01*
G75*
G02*
X179720000Y-165156109I0J-500000D01*
G01*
X179720000Y-166156109D01*
G75*
G02*
X179220000Y-166656109I-500000J0D01*
G01*
X173220000Y-166656109D01*
G75*
G02*
X172720000Y-166156109I0J500000D01*
G01*
X172720000Y-165156109D01*
G75*
G02*
X173220000Y-164656109I500000J0D01*
G01*
G37*
%TD*%
%TO.C,BLACK*%
G36*
X175779809Y-176894753D02*
G01*
X175491059Y-176837317D01*
X175209330Y-176751855D01*
X174937335Y-176639191D01*
X174677692Y-176500409D01*
X174432902Y-176336846D01*
X174205323Y-176150076D01*
X173997147Y-175941900D01*
X173810377Y-175714321D01*
X173646814Y-175469531D01*
X173508032Y-175209888D01*
X173395368Y-174937893D01*
X173309906Y-174656164D01*
X173252470Y-174367414D01*
X173223614Y-174074426D01*
X173223614Y-173780020D01*
X173252470Y-173487032D01*
X173309906Y-173198282D01*
X173395368Y-172916553D01*
X173508032Y-172644558D01*
X173646814Y-172384915D01*
X173810377Y-172140125D01*
X173997147Y-171912546D01*
X174101235Y-171808458D01*
X173220000Y-170927223D01*
X179220000Y-170927223D01*
X178338765Y-171808458D01*
X178442853Y-171912546D01*
X178629623Y-172140125D01*
X178793186Y-172384915D01*
X178931968Y-172644558D01*
X179044632Y-172916553D01*
X179130094Y-173198282D01*
X179187530Y-173487032D01*
X179216386Y-173780020D01*
X179216386Y-174074426D01*
X179187530Y-174367414D01*
X179130094Y-174656164D01*
X179044632Y-174937893D01*
X178931968Y-175209888D01*
X178793186Y-175469531D01*
X178629623Y-175714321D01*
X178442853Y-175941900D01*
X178234677Y-176150076D01*
X178007098Y-176336846D01*
X177762308Y-176500409D01*
X177502665Y-176639191D01*
X177230670Y-176751855D01*
X176948941Y-176837317D01*
X176660191Y-176894753D01*
X176367203Y-176923609D01*
X176072797Y-176923609D01*
X175779809Y-176894753D01*
G37*
G36*
G01*
X179220000Y-170927223D02*
X173220000Y-170927223D01*
G75*
G02*
X172720000Y-170427223I0J500000D01*
G01*
X172720000Y-169427223D01*
G75*
G02*
X173220000Y-168927223I500000J0D01*
G01*
X179220000Y-168927223D01*
G75*
G02*
X179720000Y-169427223I0J-500000D01*
G01*
X179720000Y-170427223D01*
G75*
G02*
X179220000Y-170927223I-500000J0D01*
G01*
G37*
%TD*%
%TO.C,BLACK*%
G36*
G01*
X173220000Y-205912777D02*
X179220000Y-205912777D01*
G75*
G02*
X179720000Y-206412777I0J-500000D01*
G01*
X179720000Y-207412777D01*
G75*
G02*
X179220000Y-207912777I-500000J0D01*
G01*
X173220000Y-207912777D01*
G75*
G02*
X172720000Y-207412777I0J500000D01*
G01*
X172720000Y-206412777D01*
G75*
G02*
X173220000Y-205912777I500000J0D01*
G01*
G37*
G36*
X176660191Y-199945247D02*
G01*
X176948941Y-200002683D01*
X177230670Y-200088145D01*
X177502665Y-200200809D01*
X177762308Y-200339591D01*
X178007098Y-200503154D01*
X178234677Y-200689924D01*
X178442853Y-200898100D01*
X178629623Y-201125679D01*
X178793186Y-201370469D01*
X178931968Y-201630112D01*
X179044632Y-201902107D01*
X179130094Y-202183836D01*
X179187530Y-202472586D01*
X179216386Y-202765574D01*
X179216386Y-203059980D01*
X179187530Y-203352968D01*
X179130094Y-203641718D01*
X179044632Y-203923447D01*
X178931968Y-204195442D01*
X178793186Y-204455085D01*
X178629623Y-204699875D01*
X178442853Y-204927454D01*
X178338765Y-205031542D01*
X179220000Y-205912777D01*
X173220000Y-205912777D01*
X174101235Y-205031542D01*
X173997147Y-204927454D01*
X173810377Y-204699875D01*
X173646814Y-204455085D01*
X173508032Y-204195442D01*
X173395368Y-203923447D01*
X173309906Y-203641718D01*
X173252470Y-203352968D01*
X173223614Y-203059980D01*
X173223614Y-202765574D01*
X173252470Y-202472586D01*
X173309906Y-202183836D01*
X173395368Y-201902107D01*
X173508032Y-201630112D01*
X173646814Y-201370469D01*
X173810377Y-201125679D01*
X173997147Y-200898100D01*
X174205323Y-200689924D01*
X174432902Y-200503154D01*
X174677692Y-200339591D01*
X174937335Y-200200809D01*
X175209330Y-200088145D01*
X175491059Y-200002683D01*
X175779809Y-199945247D01*
X176072797Y-199916391D01*
X176367203Y-199916391D01*
X176660191Y-199945247D01*
G37*
%TD*%
D14*
%TO.C,Q1*%
X43930000Y-97490000D03*
X41650000Y-97490000D03*
X39370000Y-97490000D03*
D15*
X41650000Y-103790000D03*
%TD*%
%TO.C,Q2*%
X72650000Y-144730000D03*
D14*
X70370000Y-138430000D03*
X72650000Y-138430000D03*
X74930000Y-138430000D03*
%TD*%
%TO.C,Q3*%
X45920000Y-179920000D03*
X43640000Y-179920000D03*
X41360000Y-179920000D03*
D15*
X43640000Y-186220000D03*
%TD*%
D14*
%TO.C,Q4*%
X88640000Y-164960000D03*
X90920000Y-164960000D03*
X93200000Y-164960000D03*
D15*
X90920000Y-158660000D03*
%TD*%
%TO.C,Q5*%
X58973811Y-104140000D03*
D14*
X56693811Y-97840000D03*
X58973811Y-97840000D03*
X61253811Y-97840000D03*
%TD*%
D15*
%TO.C,Q6*%
X86470000Y-144730000D03*
D14*
X84190000Y-138430000D03*
X86470000Y-138430000D03*
X88750000Y-138430000D03*
%TD*%
%TO.C,Q7*%
X63740000Y-179920000D03*
X61460000Y-179920000D03*
X59180000Y-179920000D03*
D15*
X61460000Y-186220000D03*
%TD*%
%TO.C,Q8*%
X77100000Y-158660000D03*
D14*
X79380000Y-164960000D03*
X77100000Y-164960000D03*
X74820000Y-164960000D03*
%TD*%
%TO.C,R1*%
G36*
G01*
X38405000Y-95445003D02*
X38405000Y-94194997D01*
G75*
G02*
X38654997Y-93945000I249997J0D01*
G01*
X39280003Y-93945000D01*
G75*
G02*
X39530000Y-94194997I0J-249997D01*
G01*
X39530000Y-95445003D01*
G75*
G02*
X39280003Y-95695000I-249997J0D01*
G01*
X38654997Y-95695000D01*
G75*
G02*
X38405000Y-95445003I0J249997D01*
G01*
G37*
G36*
G01*
X41330000Y-95445003D02*
X41330000Y-94194997D01*
G75*
G02*
X41579997Y-93945000I249997J0D01*
G01*
X42205003Y-93945000D01*
G75*
G02*
X42455000Y-94194997I0J-249997D01*
G01*
X42455000Y-95445003D01*
G75*
G02*
X42205003Y-95695000I-249997J0D01*
G01*
X41579997Y-95695000D01*
G75*
G02*
X41330000Y-95445003I0J249997D01*
G01*
G37*
%TD*%
%TO.C,R2*%
G36*
G01*
X69405000Y-136365003D02*
X69405000Y-135114997D01*
G75*
G02*
X69654997Y-134865000I249997J0D01*
G01*
X70280003Y-134865000D01*
G75*
G02*
X70530000Y-135114997I0J-249997D01*
G01*
X70530000Y-136365003D01*
G75*
G02*
X70280003Y-136615000I-249997J0D01*
G01*
X69654997Y-136615000D01*
G75*
G02*
X69405000Y-136365003I0J249997D01*
G01*
G37*
G36*
G01*
X72330000Y-136365003D02*
X72330000Y-135114997D01*
G75*
G02*
X72579997Y-134865000I249997J0D01*
G01*
X73205003Y-134865000D01*
G75*
G02*
X73455000Y-135114997I0J-249997D01*
G01*
X73455000Y-136365003D01*
G75*
G02*
X73205003Y-136615000I-249997J0D01*
G01*
X72579997Y-136615000D01*
G75*
G02*
X72330000Y-136365003I0J249997D01*
G01*
G37*
%TD*%
%TO.C,R3*%
G36*
G01*
X43320000Y-177915003D02*
X43320000Y-176664997D01*
G75*
G02*
X43569997Y-176415000I249997J0D01*
G01*
X44195003Y-176415000D01*
G75*
G02*
X44445000Y-176664997I0J-249997D01*
G01*
X44445000Y-177915003D01*
G75*
G02*
X44195003Y-178165000I-249997J0D01*
G01*
X43569997Y-178165000D01*
G75*
G02*
X43320000Y-177915003I0J249997D01*
G01*
G37*
G36*
G01*
X40395000Y-177915003D02*
X40395000Y-176664997D01*
G75*
G02*
X40644997Y-176415000I249997J0D01*
G01*
X41270003Y-176415000D01*
G75*
G02*
X41520000Y-176664997I0J-249997D01*
G01*
X41520000Y-177915003D01*
G75*
G02*
X41270003Y-178165000I-249997J0D01*
G01*
X40644997Y-178165000D01*
G75*
G02*
X40395000Y-177915003I0J249997D01*
G01*
G37*
%TD*%
%TO.C,R4*%
G36*
G01*
X91240000Y-167014997D02*
X91240000Y-168265003D01*
G75*
G02*
X90990003Y-168515000I-249997J0D01*
G01*
X90364997Y-168515000D01*
G75*
G02*
X90115000Y-168265003I0J249997D01*
G01*
X90115000Y-167014997D01*
G75*
G02*
X90364997Y-166765000I249997J0D01*
G01*
X90990003Y-166765000D01*
G75*
G02*
X91240000Y-167014997I0J-249997D01*
G01*
G37*
G36*
G01*
X94165000Y-167014997D02*
X94165000Y-168265003D01*
G75*
G02*
X93915003Y-168515000I-249997J0D01*
G01*
X93289997Y-168515000D01*
G75*
G02*
X93040000Y-168265003I0J249997D01*
G01*
X93040000Y-167014997D01*
G75*
G02*
X93289997Y-166765000I249997J0D01*
G01*
X93915003Y-166765000D01*
G75*
G02*
X94165000Y-167014997I0J-249997D01*
G01*
G37*
%TD*%
%TO.C,R5*%
G36*
G01*
X55728811Y-95755003D02*
X55728811Y-94504997D01*
G75*
G02*
X55978808Y-94255000I249997J0D01*
G01*
X56603814Y-94255000D01*
G75*
G02*
X56853811Y-94504997I0J-249997D01*
G01*
X56853811Y-95755003D01*
G75*
G02*
X56603814Y-96005000I-249997J0D01*
G01*
X55978808Y-96005000D01*
G75*
G02*
X55728811Y-95755003I0J249997D01*
G01*
G37*
G36*
G01*
X58653811Y-95755003D02*
X58653811Y-94504997D01*
G75*
G02*
X58903808Y-94255000I249997J0D01*
G01*
X59528814Y-94255000D01*
G75*
G02*
X59778811Y-94504997I0J-249997D01*
G01*
X59778811Y-95755003D01*
G75*
G02*
X59528814Y-96005000I-249997J0D01*
G01*
X58903808Y-96005000D01*
G75*
G02*
X58653811Y-95755003I0J249997D01*
G01*
G37*
%TD*%
%TO.C,R6*%
G36*
G01*
X86150000Y-136365003D02*
X86150000Y-135114997D01*
G75*
G02*
X86399997Y-134865000I249997J0D01*
G01*
X87025003Y-134865000D01*
G75*
G02*
X87275000Y-135114997I0J-249997D01*
G01*
X87275000Y-136365003D01*
G75*
G02*
X87025003Y-136615000I-249997J0D01*
G01*
X86399997Y-136615000D01*
G75*
G02*
X86150000Y-136365003I0J249997D01*
G01*
G37*
G36*
G01*
X83225000Y-136365003D02*
X83225000Y-135114997D01*
G75*
G02*
X83474997Y-134865000I249997J0D01*
G01*
X84100003Y-134865000D01*
G75*
G02*
X84350000Y-135114997I0J-249997D01*
G01*
X84350000Y-136365003D01*
G75*
G02*
X84100003Y-136615000I-249997J0D01*
G01*
X83474997Y-136615000D01*
G75*
G02*
X83225000Y-136365003I0J249997D01*
G01*
G37*
%TD*%
%TO.C,R7*%
G36*
G01*
X61140000Y-177915003D02*
X61140000Y-176664997D01*
G75*
G02*
X61389997Y-176415000I249997J0D01*
G01*
X62015003Y-176415000D01*
G75*
G02*
X62265000Y-176664997I0J-249997D01*
G01*
X62265000Y-177915003D01*
G75*
G02*
X62015003Y-178165000I-249997J0D01*
G01*
X61389997Y-178165000D01*
G75*
G02*
X61140000Y-177915003I0J249997D01*
G01*
G37*
G36*
G01*
X58215000Y-177915003D02*
X58215000Y-176664997D01*
G75*
G02*
X58464997Y-176415000I249997J0D01*
G01*
X59090003Y-176415000D01*
G75*
G02*
X59340000Y-176664997I0J-249997D01*
G01*
X59340000Y-177915003D01*
G75*
G02*
X59090003Y-178165000I-249997J0D01*
G01*
X58464997Y-178165000D01*
G75*
G02*
X58215000Y-177915003I0J249997D01*
G01*
G37*
%TD*%
%TO.C,R8*%
G36*
G01*
X77420000Y-167014997D02*
X77420000Y-168265003D01*
G75*
G02*
X77170003Y-168515000I-249997J0D01*
G01*
X76544997Y-168515000D01*
G75*
G02*
X76295000Y-168265003I0J249997D01*
G01*
X76295000Y-167014997D01*
G75*
G02*
X76544997Y-166765000I249997J0D01*
G01*
X77170003Y-166765000D01*
G75*
G02*
X77420000Y-167014997I0J-249997D01*
G01*
G37*
G36*
G01*
X80345000Y-167014997D02*
X80345000Y-168265003D01*
G75*
G02*
X80095003Y-168515000I-249997J0D01*
G01*
X79469997Y-168515000D01*
G75*
G02*
X79220000Y-168265003I0J249997D01*
G01*
X79220000Y-167014997D01*
G75*
G02*
X79469997Y-166765000I249997J0D01*
G01*
X80095003Y-166765000D01*
G75*
G02*
X80345000Y-167014997I0J-249997D01*
G01*
G37*
%TD*%
%TO.C,R9*%
G36*
G01*
X98984997Y-62625000D02*
X100235003Y-62625000D01*
G75*
G02*
X100485000Y-62874997I0J-249997D01*
G01*
X100485000Y-63500003D01*
G75*
G02*
X100235003Y-63750000I-249997J0D01*
G01*
X98984997Y-63750000D01*
G75*
G02*
X98735000Y-63500003I0J249997D01*
G01*
X98735000Y-62874997D01*
G75*
G02*
X98984997Y-62625000I249997J0D01*
G01*
G37*
G36*
G01*
X98984997Y-65550000D02*
X100235003Y-65550000D01*
G75*
G02*
X100485000Y-65799997I0J-249997D01*
G01*
X100485000Y-66425003D01*
G75*
G02*
X100235003Y-66675000I-249997J0D01*
G01*
X98984997Y-66675000D01*
G75*
G02*
X98735000Y-66425003I0J249997D01*
G01*
X98735000Y-65799997D01*
G75*
G02*
X98984997Y-65550000I249997J0D01*
G01*
G37*
%TD*%
%TO.C,R10*%
G36*
G01*
X110724997Y-106806666D02*
X111975003Y-106806666D01*
G75*
G02*
X112225000Y-107056663I0J-249997D01*
G01*
X112225000Y-107681669D01*
G75*
G02*
X111975003Y-107931666I-249997J0D01*
G01*
X110724997Y-107931666D01*
G75*
G02*
X110475000Y-107681669I0J249997D01*
G01*
X110475000Y-107056663D01*
G75*
G02*
X110724997Y-106806666I249997J0D01*
G01*
G37*
G36*
G01*
X110724997Y-103881666D02*
X111975003Y-103881666D01*
G75*
G02*
X112225000Y-104131663I0J-249997D01*
G01*
X112225000Y-104756669D01*
G75*
G02*
X111975003Y-105006666I-249997J0D01*
G01*
X110724997Y-105006666D01*
G75*
G02*
X110475000Y-104756669I0J249997D01*
G01*
X110475000Y-104131663D01*
G75*
G02*
X110724997Y-103881666I249997J0D01*
G01*
G37*
%TD*%
%TO.C,R11*%
G36*
G01*
X98984997Y-145138332D02*
X100235003Y-145138332D01*
G75*
G02*
X100485000Y-145388329I0J-249997D01*
G01*
X100485000Y-146013335D01*
G75*
G02*
X100235003Y-146263332I-249997J0D01*
G01*
X98984997Y-146263332D01*
G75*
G02*
X98735000Y-146013335I0J249997D01*
G01*
X98735000Y-145388329D01*
G75*
G02*
X98984997Y-145138332I249997J0D01*
G01*
G37*
G36*
G01*
X98984997Y-148063332D02*
X100235003Y-148063332D01*
G75*
G02*
X100485000Y-148313329I0J-249997D01*
G01*
X100485000Y-148938335D01*
G75*
G02*
X100235003Y-149188332I-249997J0D01*
G01*
X98984997Y-149188332D01*
G75*
G02*
X98735000Y-148938335I0J249997D01*
G01*
X98735000Y-148313329D01*
G75*
G02*
X98984997Y-148063332I249997J0D01*
G01*
G37*
%TD*%
%TO.C,R12*%
G36*
G01*
X110724997Y-189320000D02*
X111975003Y-189320000D01*
G75*
G02*
X112225000Y-189569997I0J-249997D01*
G01*
X112225000Y-190195003D01*
G75*
G02*
X111975003Y-190445000I-249997J0D01*
G01*
X110724997Y-190445000D01*
G75*
G02*
X110475000Y-190195003I0J249997D01*
G01*
X110475000Y-189569997D01*
G75*
G02*
X110724997Y-189320000I249997J0D01*
G01*
G37*
G36*
G01*
X110724997Y-186395000D02*
X111975003Y-186395000D01*
G75*
G02*
X112225000Y-186644997I0J-249997D01*
G01*
X112225000Y-187270003D01*
G75*
G02*
X111975003Y-187520000I-249997J0D01*
G01*
X110724997Y-187520000D01*
G75*
G02*
X110475000Y-187270003I0J249997D01*
G01*
X110475000Y-186644997D01*
G75*
G02*
X110724997Y-186395000I249997J0D01*
G01*
G37*
%TD*%
%TO.C,R13*%
G36*
G01*
X122454997Y-62625000D02*
X123705003Y-62625000D01*
G75*
G02*
X123955000Y-62874997I0J-249997D01*
G01*
X123955000Y-63500003D01*
G75*
G02*
X123705003Y-63750000I-249997J0D01*
G01*
X122454997Y-63750000D01*
G75*
G02*
X122205000Y-63500003I0J249997D01*
G01*
X122205000Y-62874997D01*
G75*
G02*
X122454997Y-62625000I249997J0D01*
G01*
G37*
G36*
G01*
X122454997Y-65550000D02*
X123705003Y-65550000D01*
G75*
G02*
X123955000Y-65799997I0J-249997D01*
G01*
X123955000Y-66425003D01*
G75*
G02*
X123705003Y-66675000I-249997J0D01*
G01*
X122454997Y-66675000D01*
G75*
G02*
X122205000Y-66425003I0J249997D01*
G01*
X122205000Y-65799997D01*
G75*
G02*
X122454997Y-65550000I249997J0D01*
G01*
G37*
%TD*%
%TO.C,R14*%
G36*
G01*
X134194997Y-103881666D02*
X135445003Y-103881666D01*
G75*
G02*
X135695000Y-104131663I0J-249997D01*
G01*
X135695000Y-104756669D01*
G75*
G02*
X135445003Y-105006666I-249997J0D01*
G01*
X134194997Y-105006666D01*
G75*
G02*
X133945000Y-104756669I0J249997D01*
G01*
X133945000Y-104131663D01*
G75*
G02*
X134194997Y-103881666I249997J0D01*
G01*
G37*
G36*
G01*
X134194997Y-106806666D02*
X135445003Y-106806666D01*
G75*
G02*
X135695000Y-107056663I0J-249997D01*
G01*
X135695000Y-107681669D01*
G75*
G02*
X135445003Y-107931666I-249997J0D01*
G01*
X134194997Y-107931666D01*
G75*
G02*
X133945000Y-107681669I0J249997D01*
G01*
X133945000Y-107056663D01*
G75*
G02*
X134194997Y-106806666I249997J0D01*
G01*
G37*
%TD*%
%TO.C,R15*%
G36*
G01*
X122454997Y-145138332D02*
X123705003Y-145138332D01*
G75*
G02*
X123955000Y-145388329I0J-249997D01*
G01*
X123955000Y-146013335D01*
G75*
G02*
X123705003Y-146263332I-249997J0D01*
G01*
X122454997Y-146263332D01*
G75*
G02*
X122205000Y-146013335I0J249997D01*
G01*
X122205000Y-145388329D01*
G75*
G02*
X122454997Y-145138332I249997J0D01*
G01*
G37*
G36*
G01*
X122454997Y-148063332D02*
X123705003Y-148063332D01*
G75*
G02*
X123955000Y-148313329I0J-249997D01*
G01*
X123955000Y-148938335D01*
G75*
G02*
X123705003Y-149188332I-249997J0D01*
G01*
X122454997Y-149188332D01*
G75*
G02*
X122205000Y-148938335I0J249997D01*
G01*
X122205000Y-148313329D01*
G75*
G02*
X122454997Y-148063332I249997J0D01*
G01*
G37*
%TD*%
%TO.C,R16*%
G36*
G01*
X134194997Y-189320000D02*
X135445003Y-189320000D01*
G75*
G02*
X135695000Y-189569997I0J-249997D01*
G01*
X135695000Y-190195003D01*
G75*
G02*
X135445003Y-190445000I-249997J0D01*
G01*
X134194997Y-190445000D01*
G75*
G02*
X133945000Y-190195003I0J249997D01*
G01*
X133945000Y-189569997D01*
G75*
G02*
X134194997Y-189320000I249997J0D01*
G01*
G37*
G36*
G01*
X134194997Y-186395000D02*
X135445003Y-186395000D01*
G75*
G02*
X135695000Y-186644997I0J-249997D01*
G01*
X135695000Y-187270003D01*
G75*
G02*
X135445003Y-187520000I-249997J0D01*
G01*
X134194997Y-187520000D01*
G75*
G02*
X133945000Y-187270003I0J249997D01*
G01*
X133945000Y-186644997D01*
G75*
G02*
X134194997Y-186395000I249997J0D01*
G01*
G37*
%TD*%
D11*
%TO.C,BUTTON*%
X53770000Y-64650000D03*
D12*
X35170000Y-76950000D03*
X35170000Y-83250000D03*
X35170000Y-70650000D03*
%TD*%
%TO.C,BUTTON*%
X66110000Y-111906666D03*
X66110000Y-124506666D03*
X66110000Y-118206666D03*
D11*
X84710000Y-105906666D03*
%TD*%
D12*
%TO.C,SWITCH*%
X35170000Y-153163332D03*
X35170000Y-165763332D03*
X35170000Y-159463332D03*
D11*
X53770000Y-147163332D03*
%TD*%
%TO.C,SWITCH*%
X84710000Y-188420000D03*
D12*
X66110000Y-200720000D03*
X66110000Y-207020000D03*
X66110000Y-194420000D03*
%TD*%
M02*
