M48
; DRILL file {KiCad (5.1.9)-1} date 09/09/21 23:53:45
; FORMAT={-:-/ absolute / inch / decimal}
; #@! TF.CreationDate,2021-09-09T23:53:45+02:00
; #@! TF.GenerationSoftware,Kicad,Pcbnew,(5.1.9)-1
; #@! TF.FileFunction,Plated,1,2,PTH
FMAT,2
INCH
T1C0.0157
T2C0.0236
T3C0.0394
T4C0.1575
T5C0.8661
%
G90
G05
T1
X2.7441Y-5.2118
X3.2008Y-6.6906
X3.2882Y-5.2118
X3.7398Y-6.689
T2
X4.1587Y-7.4787
X4.1598Y-4.2311
X5.0799Y-4.2311
X5.0843Y-7.4796
T3
X1.5445Y-6.9799
X2.1445Y-6.6154
X2.2382Y-6.9799
X2.4957Y-3.3669
X2.5906Y-6.6197
X2.6917Y-5.45
X2.8677Y-6.789
X3.2169Y-6.4953
X3.2358Y-5.45
X3.4181Y-6.7862
X3.5724Y-4.9783
X3.7539Y-6.4689
X3.8173Y-6.7008
T4
X1.3846Y-2.7815
X1.3846Y-3.0295
X1.3846Y-3.2776
X1.3846Y-6.0301
X1.3846Y-6.2781
X1.3846Y-6.5261
X1.7051Y-1.4791
X1.7051Y-8.5264
X2.6028Y-4.4058
X2.6028Y-4.6538
X2.6028Y-4.9018
X2.6028Y-7.6543
X2.6028Y-7.9024
X2.6028Y-8.1504
X2.6972Y-1.4791
X2.6972Y-8.5264
X3.6892Y-1.4791
X3.6892Y-8.5106
X3.9217Y-1.9602
X3.9217Y-3.1299
X3.9217Y-5.2075
X3.9217Y-6.3783
X4.3839Y-3.5701
X4.3839Y-4.7547
X4.3839Y-6.8335
X4.3839Y-8.0177
X4.6813Y-1.4791
X4.6813Y-8.5106
X4.8457Y-1.9602
X4.8457Y-3.1299
X4.8457Y-5.2075
X4.8457Y-6.378
X5.3079Y-3.5701
X5.3079Y-4.7535
X5.3079Y-6.8339
X5.3079Y-8.0173
X5.6733Y-1.4791
X5.6733Y-8.5106
X5.8697Y-2.0138
X5.8697Y-3.0768
X5.8697Y-3.6381
X5.8697Y-4.701
X5.8713Y-5.2623
X5.8713Y-6.3253
X5.872Y-6.8866
X5.872Y-7.9496
X6.6654Y-1.4791
X6.6654Y-8.5106
X6.9378Y-1.9747
X6.9378Y-3.1159
X6.9378Y-3.599
X6.9378Y-4.7401
X6.9378Y-5.2233
X6.9378Y-6.3644
X6.9378Y-6.8475
X6.9378Y-7.9887
T5
X2.1169Y-2.5453
X2.1169Y-5.7938
X3.335Y-4.1696
X3.335Y-7.4181
X6.3461Y-2.5453
X6.3461Y-4.1696
X6.3476Y-5.7938
X6.3484Y-7.4181
T3
G00X1.6067Y-1.3217
M15
G01X1.8035Y-1.3217
M16
G05
G00X1.8035Y-8.6839
M15
G01X1.6067Y-8.6839
M16
G05
G00X2.5987Y-1.3217
M15
G01X2.7956Y-1.3217
M16
G05
G00X2.7956Y-8.6839
M15
G01X2.5987Y-8.6839
M16
G05
G00X3.5908Y-1.3217
M15
G01X3.7876Y-1.3217
M16
G05
G00X3.7876Y-8.6681
M15
G01X3.5908Y-8.6681
M16
G05
G00X3.8232Y-1.8028
M15
G01X4.0201Y-1.8028
M16
G05
G00X4.0201Y-3.2874
M15
G01X3.8232Y-3.2874
M16
G05
G00X3.8232Y-5.05
M15
G01X4.0201Y-5.05
M16
G05
G00X4.0201Y-6.5358
M15
G01X3.8232Y-6.5358
M16
G05
G00X4.2854Y-3.4126
M15
G01X4.4823Y-3.4126
M16
G05
G00X4.4823Y-4.9122
M15
G01X4.2854Y-4.9122
M16
G05
G00X4.2854Y-6.676
M15
G01X4.4823Y-6.676
M16
G05
G00X4.4823Y-8.1752
M15
G01X4.2854Y-8.1752
M16
G05
G00X4.5828Y-1.3217
M15
G01X4.7797Y-1.3217
M16
G05
G00X4.7797Y-8.6681
M15
G01X4.5828Y-8.6681
M16
G05
G00X4.7472Y-1.8028
M15
G01X4.9441Y-1.8028
M16
G05
G00X4.9441Y-3.2874
M15
G01X4.7472Y-3.2874
M16
G05
G00X4.7472Y-5.05
M15
G01X4.9441Y-5.05
M16
G05
G00X4.9441Y-6.5354
M15
G01X4.7472Y-6.5354
M16
G05
G00X5.2094Y-3.4126
M15
G01X5.4063Y-3.4126
M16
G05
G00X5.4063Y-4.911
M15
G01X5.2094Y-4.911
M16
G05
G00X5.2094Y-6.6764
M15
G01X5.4063Y-6.6764
M16
G05
G00X5.4063Y-8.1748
M15
G01X5.2094Y-8.1748
M16
G05
G00X5.5749Y-1.3217
M15
G01X5.7717Y-1.3217
M16
G05
G00X5.7717Y-8.6681
M15
G01X5.5749Y-8.6681
M16
G05
G00X6.5669Y-1.3217
M15
G01X6.7638Y-1.3217
M16
G05
G00X6.7638Y-8.6681
M15
G01X6.5669Y-8.6681
M16
G05
G00X6.8394Y-1.8172
M15
G01X7.0362Y-1.8172
M16
G05
G00X7.0362Y-3.2733
M15
G01X6.8394Y-3.2733
M16
G05
G00X6.8394Y-3.4415
M15
G01X7.0362Y-3.4415
M16
G05
G00X7.0362Y-4.8976
M15
G01X6.8394Y-4.8976
M16
G05
G00X6.8394Y-5.0658
M15
G01X7.0362Y-5.0658
M16
G05
G00X7.0362Y-6.5219
M15
G01X6.8394Y-6.5219
M16
G05
G00X6.8394Y-6.69
M15
G01X7.0362Y-6.69
M16
G05
G00X7.0362Y-8.1462
M15
G01X6.8394Y-8.1462
M16
G05
T0
M30
